<svg width="58" height="58" viewBox="0 0 58 58" fill="none" xmlns="http://www.w3.org/2000/svg">
<rect x="0.25" y="0.25" width="57.5" height="57.5" rx="4.75" fill="white" stroke="#981B9F" stroke-width="0.5"/>
<path fill-rule="evenodd" clip-rule="evenodd" d="M18.8787 34.9684H26.9786V36.4334H26.2121C26.1676 36.4334 26.125 36.4511 26.0935 36.4825C26.0621 36.514 26.0444 36.5567 26.0444 36.6011C26.0444 36.6456 26.0621 36.6883 26.0935 36.7197C26.125 36.7512 26.1676 36.7689 26.2121 36.7689H31.2518C31.2963 36.7689 31.3389 36.7512 31.3704 36.7197C31.4019 36.6883 31.4195 36.6456 31.4195 36.6011C31.4195 36.5567 31.4019 36.514 31.3704 36.4825C31.3389 36.4511 31.2963 36.4334 31.2518 36.4334H30.4851V34.9684H38.5847C38.7961 34.9684 38.9989 34.8845 39.1486 34.7352C39.2983 34.5858 39.3826 34.3832 39.3831 34.1718V20.8804C39.3826 20.669 39.2983 20.4663 39.1486 20.3169C38.999 20.1676 38.7961 20.0837 38.5847 20.0837H18.8787C18.6675 20.0839 18.4649 20.1679 18.3156 20.3173C18.1662 20.4666 18.0822 20.6692 18.082 20.8804V34.1716C18.0822 34.3829 18.1662 34.5854 18.3156 34.7348C18.4649 34.8842 18.6675 34.9682 18.8787 34.9684Z" fill="#981B9F" fill-opacity="0.1"/>
<path fill-rule="evenodd" clip-rule="evenodd" d="M18.5031 20.8805C18.5032 20.7805 18.543 20.6845 18.6137 20.6138C18.6845 20.543 18.7804 20.5032 18.8805 20.5032H38.5865C38.6361 20.5031 38.6852 20.5128 38.7311 20.5317C38.7769 20.5507 38.8186 20.5785 38.8536 20.6135C38.8887 20.6486 38.9166 20.6902 38.9356 20.736C38.9546 20.7818 38.9643 20.8309 38.9643 20.8805V34.1717C38.9643 34.2213 38.9546 34.2704 38.9356 34.3162C38.9166 34.3621 38.8887 34.4037 38.8536 34.4387C38.8186 34.4738 38.7769 34.5016 38.7311 34.5205C38.6852 34.5394 38.6361 34.5492 38.5865 34.5491H18.8805C18.7805 34.549 18.6845 34.5093 18.6138 34.4385C18.543 34.3677 18.5032 34.2718 18.5032 34.1717V20.8805H18.5031ZM30.0678 36.3497H27.3998V35.0524H30.0678V36.3497ZM18.8805 35.0524H26.8966V36.3497H26.2139C26.1472 36.3497 26.0832 36.3762 26.036 36.4234C25.9889 36.4705 25.9624 36.5345 25.9624 36.6013C25.9624 36.668 25.9889 36.732 26.036 36.7792C26.0832 36.8263 26.1472 36.8528 26.2139 36.8528H31.2536C31.3204 36.8528 31.3843 36.8263 31.4315 36.7792C31.4787 36.732 31.5052 36.668 31.5052 36.6013C31.5052 36.5345 31.4787 36.4705 31.4315 36.4234C31.3843 36.3762 31.3204 36.3497 31.2536 36.3497H30.5709V35.0524H38.5865C38.8202 35.0524 39.0443 34.9597 39.2097 34.7946C39.3751 34.6295 39.4683 34.4056 39.4687 34.1719V20.8805C39.4683 20.6468 39.3752 20.4229 39.2098 20.2578C39.0444 20.0927 38.8202 20 38.5865 20H18.8805C18.6471 20.0002 18.4232 20.093 18.2581 20.2581C18.093 20.4232 18.0002 20.6471 18 20.8805V34.1717C18.0002 34.4052 18.093 34.6291 18.2581 34.7942C18.4232 34.9593 18.647 35.0522 18.8805 35.0524Z" fill="#981B9F"/>
<path d="M35.1529 21.6106H37.9751M37.9751 21.6106V24.0565M37.9751 21.6106L19.6309 33.8401" stroke="#981B9F" stroke-width="0.3"/>
</svg>
