<svg width="58" height="58" viewBox="0 0 58 58" fill="none" xmlns="http://www.w3.org/2000/svg">
<rect x="0.25" y="0.25" width="57.5" height="57.5" rx="4.75" fill="white" stroke="#981B9F" stroke-width="0.5"/>
<path fill-rule="evenodd" clip-rule="evenodd" d="M16.427 37.5643H26.4873V39.3839H25.5353C25.48 39.3839 25.427 39.4058 25.388 39.4449C25.3489 39.484 25.327 39.5369 25.327 39.5922C25.327 39.6474 25.3489 39.7004 25.388 39.7395C25.427 39.7785 25.48 39.8005 25.5353 39.8005H31.7947C31.8499 39.8005 31.9029 39.7785 31.942 39.7395C31.9811 39.7004 32.003 39.6474 32.003 39.5922C32.003 39.5369 31.9811 39.484 31.942 39.4449C31.9029 39.4058 31.8499 39.3839 31.7947 39.3839H30.8425V37.5643H40.9023C41.1649 37.5643 41.4168 37.4601 41.6027 37.2746C41.7886 37.0891 41.8933 36.8375 41.8939 36.5749V20.0666C41.8934 19.804 41.7887 19.5523 41.6028 19.3668C41.4169 19.1813 41.1649 19.0771 40.9023 19.0771H16.427C16.1646 19.0774 15.9131 19.1817 15.7276 19.3672C15.5421 19.5527 15.4377 19.8043 15.4375 20.0666V36.5746C15.4377 36.837 15.5421 37.0886 15.7276 37.2741C15.9131 37.4597 16.1646 37.564 16.427 37.5643Z" fill="#981B9F" fill-opacity="0.1"/>
<path fill-rule="evenodd" clip-rule="evenodd" d="M15.9589 20.0668C15.9589 19.9425 16.0084 19.8233 16.0962 19.7354C16.1841 19.6476 16.3033 19.5982 16.4276 19.5981H40.903C40.9646 19.598 41.0256 19.6101 41.0825 19.6336C41.1394 19.6571 41.1912 19.6916 41.2347 19.7352C41.2783 19.7787 41.3129 19.8304 41.3365 19.8873C41.3601 19.9442 41.3722 20.0052 41.3722 20.0668V36.5748C41.3722 36.6364 41.3601 36.6974 41.3365 36.7543C41.3129 36.8112 41.2783 36.8629 41.2347 36.9064C41.1912 36.95 41.1394 36.9845 41.0825 37.008C41.0256 37.0315 40.9646 37.0436 40.903 37.0435H16.4276C16.3033 37.0434 16.1842 36.994 16.0963 36.9061C16.0084 36.8182 15.959 36.6991 15.9589 36.5748V20.0668H15.9589ZM30.3225 39.2799H27.0088V37.6686H30.3225V39.2799ZM16.4276 37.6686H26.3838V39.2799H25.5359C25.453 39.2799 25.3736 39.3128 25.315 39.3714C25.2564 39.43 25.2234 39.5095 25.2234 39.5923C25.2234 39.6752 25.2564 39.7547 25.315 39.8133C25.3736 39.8719 25.453 39.9048 25.5359 39.9048H31.7953C31.8782 39.9048 31.9577 39.8719 32.0163 39.8133C32.0749 39.7547 32.1078 39.6752 32.1078 39.5923C32.1078 39.5095 32.0749 39.43 32.0163 39.3714C31.9577 39.3128 31.8782 39.2799 31.7953 39.2799H30.9473V37.6686H40.903C41.1932 37.6686 41.4716 37.5534 41.677 37.3484C41.8824 37.1434 41.9981 36.8652 41.9987 36.575V20.0668C41.9982 19.7765 41.8825 19.4983 41.6771 19.2933C41.4716 19.0883 41.1932 18.9731 40.903 18.9731H16.4276C16.1376 18.9734 15.8596 19.0887 15.6546 19.2937C15.4495 19.4988 15.3342 19.7768 15.334 20.0668V36.5748C15.3342 36.8648 15.4495 37.1428 15.6546 37.3479C15.8596 37.553 16.1376 37.6683 16.4276 37.6686Z" fill="#981B9F"/>
<path d="M36.6381 20.9734H40.1434M40.1434 20.9734V24.0113M40.1434 20.9734L17.3594 36.1627" stroke="#981B9F" stroke-width="0.3"/>
</svg>
