<svg width="58" height="58" viewBox="0 0 58 58" fill="none" xmlns="http://www.w3.org/2000/svg">
<rect x="0.25" y="0.25" width="57.5" height="57.5" rx="4.75" fill="white" stroke="#981B9F" stroke-width="0.5"/>
<path fill-rule="evenodd" clip-rule="evenodd" d="M11.4712 41.5202H26.4293V44.2256H25.0138C24.9316 44.2256 24.8529 44.2582 24.7948 44.3163C24.7367 44.3744 24.7041 44.4532 24.7041 44.5353C24.7041 44.6175 24.7367 44.6962 24.7948 44.7543C24.8529 44.8124 24.9316 44.845 25.0138 44.845H34.3206C34.4027 44.845 34.4815 44.8124 34.5396 44.7543C34.5977 44.6962 34.6303 44.6175 34.6303 44.5353C34.6303 44.4532 34.5977 44.3744 34.5396 44.3163C34.4815 44.2582 34.4027 44.2256 34.3206 44.2256H32.9047V41.5202H47.8621C48.2526 41.5202 48.6271 41.3653 48.9035 41.0895C49.1799 40.8137 49.3356 40.4395 49.3365 40.049V15.5039C49.3357 15.1134 49.18 14.7392 48.9036 14.4634C48.6272 14.1876 48.2526 14.0327 47.8621 14.0327H11.4712C11.0811 14.0331 10.7071 14.1882 10.4313 14.464C10.1555 14.7398 10.0003 15.1138 10 15.5039V40.0487C10.0004 40.4388 10.1555 40.8128 10.4313 41.0887C10.7071 41.3646 11.0811 41.5198 11.4712 41.5202Z" fill="#981B9F" fill-opacity="0.1"/>
<path fill-rule="evenodd" clip-rule="evenodd" d="M10.7748 15.504C10.7749 15.3192 10.8484 15.142 10.979 15.0114C11.1097 14.8807 11.2869 14.8072 11.4717 14.8071H47.8627C47.9543 14.807 48.045 14.8249 48.1297 14.8599C48.2143 14.8949 48.2912 14.9462 48.356 15.0109C48.4208 15.0756 48.4723 15.1525 48.5073 15.2371C48.5424 15.3217 48.5605 15.4124 48.5605 15.504V40.0488C48.5605 40.1404 48.5424 40.2311 48.5073 40.3157C48.4723 40.4003 48.4208 40.4771 48.356 40.5419C48.2912 40.6066 48.2143 40.6579 48.1297 40.6929C48.045 40.7279 47.9543 40.7458 47.8627 40.7457H11.4718C11.287 40.7456 11.1098 40.6721 10.9791 40.5414C10.8485 40.4108 10.775 40.2336 10.7749 40.0488V15.504H10.7748ZM32.1312 44.0708H27.2043V41.6752H32.1312V44.0708ZM11.4718 41.6752H26.275V44.0708H25.0144C24.8911 44.0708 24.773 44.1198 24.6858 44.2069C24.5987 44.294 24.5498 44.4122 24.5498 44.5354C24.5498 44.6586 24.5987 44.7768 24.6858 44.8639C24.773 44.951 24.8911 45 25.0144 45H34.3211C34.4444 45 34.5625 44.951 34.6497 44.8639C34.7368 44.7768 34.7857 44.6586 34.7857 44.5354C34.7857 44.4122 34.7368 44.294 34.6497 44.2069C34.5625 44.1198 34.4444 44.0708 34.3211 44.0708H33.0602V41.6752H47.8627C48.2942 41.6751 48.7081 41.5039 49.0136 41.199C49.319 40.8942 49.4911 40.4806 49.492 40.0491V15.504C49.4912 15.0724 49.3191 14.6588 49.0137 14.354C48.7082 14.0491 48.2943 13.8779 47.8627 13.8779H11.4718C11.0406 13.8783 10.6272 14.0497 10.3223 14.3546C10.0175 14.6594 9.84605 15.0728 9.8457 15.504V40.0488C9.84607 40.48 10.0175 40.8934 10.3224 41.1983C10.6272 41.5032 11.0406 41.6747 11.4718 41.6752Z" fill="#981B9F"/>
<path d="M41.5199 16.8521H46.7317M46.7317 16.8521V21.3689M46.7317 16.8521L12.8555 39.4362" stroke="#981B9F" stroke-width="0.3"/>
</svg>
