<svg width="16" height="21" viewBox="0 0 16 21" fill="none" xmlns="http://www.w3.org/2000/svg">
<path d="M8.37005 0.940063C4.17641 0.940063 0.764648 4.18936 0.764648 8.18327C0.764648 13.1398 7.57074 20.4164 7.86052 20.7237C8.1327 21.0124 8.6079 21.0119 8.87959 20.7237C9.16937 20.4164 15.9755 13.1398 15.9755 8.18327C15.9754 4.18936 12.5637 0.940063 8.37005 0.940063ZM8.37005 11.8275C6.26013 11.8275 4.54362 10.1927 4.54362 8.18327C4.54362 6.17381 6.26017 4.53905 8.37005 4.53905C10.4799 4.53905 12.1964 6.17385 12.1964 8.18331C12.1964 10.1928 10.4799 11.8275 8.37005 11.8275Z" fill="#3C4DB7"/>
</svg>
