<svg width="19" height="20" viewBox="0 0 19 20" fill="none" xmlns="http://www.w3.org/2000/svg">
<g clip-path="url(#clip0_8287_76)">
<path d="M18.1228 3.99408L12.6638 9.71928L18.1228 15.4445C18.2215 15.2268 18.2814 14.9861 18.2814 14.729V4.70951C18.2814 4.45245 18.2215 4.2118 18.1228 3.99408Z" fill="#3C4DB7"/>
<path d="M16.6995 3.03958H1.86357C1.62004 3.03958 1.39205 3.10278 1.18579 3.20694L8.16301 10.5347C8.77993 11.1859 9.78315 11.1859 10.4001 10.5347L17.3773 3.20694C17.171 3.10278 16.943 3.03958 16.6995 3.03958Z" fill="#3C4DB7"/>
<path d="M0.440049 3.99408C0.341365 4.2118 0.281494 4.45245 0.281494 4.70951V14.729C0.281494 14.9861 0.341365 15.2268 0.440049 15.4445L5.89908 9.71928L0.440049 3.99408Z" fill="#3C4DB7"/>
<path d="M11.9183 10.5064L11.1458 11.3218C10.1178 12.4069 8.44521 12.4069 7.41727 11.3218L6.64482 10.5064L1.18579 16.2316C1.39205 16.3358 1.62004 16.399 1.86357 16.399H16.6995C16.943 16.399 17.171 16.3358 17.3773 16.2316L11.9183 10.5064Z" fill="#3C4DB7"/>
</g>
<defs>
<clipPath id="clip0_8287_76">
<rect width="18" height="19" fill="white" transform="translate(0.281494 0.219269)"/>
</clipPath>
</defs>
</svg>
