<svg width="38" height="38" viewBox="0 0 38 38" fill="none" xmlns="http://www.w3.org/2000/svg">
<g clip-path="url(#clip0_8277_8162)">
<path d="M20.6448 0.412762C29.9019 0.412762 37.4104 7.92116 37.4104 17.1784C37.4104 18.1395 36.6371 18.9128 35.676 18.9128C34.715 18.9128 33.9417 18.1395 33.9417 17.1784C33.9417 9.83619 27.987 3.8815 20.6448 3.8815C19.6836 3.8815 18.9104 3.10827 18.9104 2.14714C18.9104 1.186 19.6836 0.412762 20.6448 0.412762ZM21.2229 14.2878C21.8362 14.2878 22.4244 14.5314 22.8581 14.9651C23.2918 15.3987 23.5354 15.987 23.5354 16.6003C23.5354 17.2136 23.2918 17.8018 22.8581 18.2354C22.4244 18.6691 21.8362 18.9128 21.2229 18.9128C20.6096 18.9128 20.0214 18.6691 19.5877 18.2354C19.154 17.8018 18.9104 17.2136 18.9104 16.6003C18.9104 15.987 19.154 15.3987 19.5877 14.9651C20.0214 14.5314 20.6096 14.2878 21.2229 14.2878ZM18.9104 9.08463C18.9104 8.1235 19.6836 7.35025 20.6448 7.35025C26.072 7.35025 30.4729 11.7512 30.4729 17.1784C30.4729 18.1395 29.6996 18.9128 28.7385 18.9128C27.7775 18.9128 27.0042 18.1395 27.0042 17.1784C27.0042 13.6663 24.1568 10.819 20.6448 10.819C19.6836 10.819 18.9104 10.0458 18.9104 9.08463ZM8.90162 0.513934C10.3036 0.130927 11.7706 0.846356 12.327 2.1905L15.2176 9.12798C15.709 10.3059 15.3694 11.6717 14.3794 12.4739L10.8167 15.3934C13.2231 20.4809 17.3422 24.6001 22.4297 27.0065L25.3419 23.4438C26.1513 22.4538 27.5099 22.1141 28.6879 22.6055L35.6254 25.4962C36.9696 26.0526 37.6851 27.5196 37.3019 28.9215L35.5676 35.2809C35.2281 36.5384 34.0862 37.4127 32.7854 37.4127C14.9069 37.4127 0.4104 22.9163 0.4104 5.03775C0.4104 3.73697 1.28481 2.59518 2.54224 2.24831L8.90162 0.513934Z" fill="#3C4DB7"/>
</g>
<defs>
<clipPath id="clip0_8277_8162">
<rect width="37" height="37" fill="white" transform="translate(0.4104 0.411133)"/>
</clipPath>
</defs>
</svg>
