<svg width="18" height="17" viewBox="0 0 18 17" fill="none" xmlns="http://www.w3.org/2000/svg">
<path d="M4.6584 0.41149C5.28087 0.24143 5.93224 0.55909 6.17931 1.15591L7.46278 4.23624C7.68097 4.75926 7.53017 5.3657 7.09058 5.72187L5.50869 7.01818C6.57718 9.27709 8.40615 11.1061 10.6651 12.1745L11.9581 10.5927C12.3175 10.1531 12.9207 10.0023 13.4438 10.2204L16.5241 11.5039C17.121 11.751 17.4387 12.4024 17.2685 13.0248L16.4984 15.8485C16.3477 16.4068 15.8407 16.795 15.2631 16.795C7.32481 16.795 0.888184 10.3584 0.888184 2.42012C0.888184 1.84256 1.27643 1.33559 1.83475 1.18158L4.6584 0.41149Z" fill="#3C4DB7"/>
</svg>
