<svg width="21" height="21" viewBox="0 0 21 21" fill="none" xmlns="http://www.w3.org/2000/svg">
<g clip-path="url(#clip0_8287_92)">
<path d="M10.2815 20.0204C15.8029 20.0204 20.2815 15.5419 20.2815 10.0204C20.2815 4.49901 15.8029 0.0204468 10.2815 0.0204468C4.76005 0.0204468 0.281494 4.49901 0.281494 10.0204C0.281494 15.5419 4.76005 20.0204 10.2815 20.0204ZM9.56719 4.30617C9.56719 3.9133 9.88862 3.59186 10.2815 3.59186C10.6744 3.59186 10.9958 3.9133 10.9958 4.30617V9.6776L14.2994 12.3205C14.6065 12.5669 14.6565 13.0169 14.4101 13.324C14.2708 13.499 14.0637 13.5919 13.8529 13.5919C13.6958 13.5919 13.5386 13.5418 13.4065 13.4347L9.83509 10.5776C9.66723 10.4419 9.56725 10.2383 9.56725 10.0204L9.56719 4.30617Z" fill="#3C4DB7"/>
</g>
<defs>
<clipPath id="clip0_8287_92">
<rect width="20" height="20" fill="white" transform="translate(0.281494 0.0204468)"/>
</clipPath>
</defs>
</svg>
