<svg width="49" height="50" viewBox="0 0 49 50" fill="none" xmlns="http://www.w3.org/2000/svg">
<path d="M48.2118 26.695C48.2875 28.5041 47.6426 30.2693 46.4184 31.6035C45.1943 32.9376 43.4909 33.7317 41.682 33.8115C41.5762 33.8164 41.4706 33.8189 41.3652 33.8189C40.8846 33.8185 40.4054 33.7665 39.9359 33.6637C38.5428 35.8146 36.7161 37.6511 34.5727 39.0556C32.4293 40.4602 30.0163 41.4019 27.4881 41.8205C27.189 42.699 26.5925 43.4454 25.8015 43.9307C25.0105 44.416 24.0748 44.6097 23.1562 44.4783C22.2375 44.3469 21.3936 43.8986 20.7704 43.2111C20.1472 42.5235 19.7838 41.6397 19.7431 40.7126C19.7023 39.7855 19.9868 38.8733 20.5472 38.1337C21.1077 37.3941 21.909 36.8735 22.8125 36.662C23.7161 36.4505 24.6652 36.5613 25.4957 36.9754C26.3262 37.3894 26.986 38.0806 27.361 38.9294C30.9203 38.2711 34.1358 36.3847 36.4471 33.5989C38.7583 30.8132 40.0187 27.3047 40.0086 23.685C40.0086 15.1334 33.0515 8.17627 24.4999 8.17627C15.9484 8.17627 8.99123 15.1334 8.99123 23.685C8.99077 26.3292 9.66657 28.9297 10.9544 31.2392C10.998 31.3154 11.0308 31.3974 11.0517 31.4827C11.1761 31.8284 11.1628 32.2087 11.0146 32.5449C10.8664 32.8811 10.5945 33.1475 10.2554 33.2889C9.42492 33.6384 8.53297 33.8183 7.63196 33.8182C7.52592 33.8182 7.41966 33.8157 7.31318 33.8108C5.50504 33.73 3.80275 32.9355 2.57955 31.6014C1.35636 30.2674 0.712099 28.5027 0.788042 26.6943C0.818571 25.9732 0.801536 25.3298 0.784883 24.7076C0.76938 24.1218 0.753206 23.516 0.779811 22.8839C0.859214 21.1183 1.61874 19.4518 2.8993 18.2336C4.17987 17.0154 5.88214 16.3399 7.64957 16.3486C10.4877 9.855 16.9719 5.30518 24.4999 5.30518C32.0279 5.30518 38.5122 9.855 41.3504 16.3487C43.118 16.3387 44.8208 17.0135 46.1016 18.2318C47.3824 19.45 48.1416 21.117 48.2199 22.8829C48.2466 23.5159 48.2306 24.1217 48.2149 24.7075C48.1984 25.3297 48.1813 25.9734 48.2118 26.695ZM36.5399 23.685C36.5392 25.5295 36.1148 27.3492 35.2996 29.0038C34.4844 30.6584 33.3 32.1037 31.8378 33.2281C30.3757 34.3526 28.6748 35.1262 26.8664 35.4893C25.0579 35.8524 23.1903 35.7953 21.4074 35.3225L16.5341 38.1368C16.2882 38.2788 16.0057 38.3447 15.7224 38.3261C15.439 38.3076 15.1676 38.2054 14.9423 38.0326C14.717 37.8597 14.5481 37.6239 14.4568 37.3551C14.3655 37.0862 14.3561 36.7963 14.4296 36.522L15.675 31.8758C13.6125 29.6464 12.4648 26.7222 12.4605 23.685C12.4605 17.0443 17.8611 11.6423 24.4999 11.6423C31.1388 11.6423 36.5399 17.0443 36.5399 23.685ZM21.1527 23.685C21.1527 23.3042 21.0015 22.9391 20.7322 22.6699C20.463 22.4007 20.0979 22.2494 19.7172 22.2494H19.7148C19.431 22.2499 19.1537 22.3346 18.918 22.4926C18.6822 22.6507 18.4987 22.8751 18.3904 23.1375C18.2822 23.3998 18.2541 23.6884 18.3098 23.9667C18.3655 24.245 18.5024 24.5005 18.7033 24.701C18.9042 24.9015 19.16 25.0379 19.4384 25.0931C19.7168 25.1483 20.0053 25.1197 20.2674 25.011C20.5296 24.9022 20.7536 24.7182 20.9112 24.4822C21.0689 24.2462 21.153 23.9688 21.153 23.685H21.1527ZM25.9358 23.685C25.9356 23.638 25.9331 23.591 25.9281 23.5443C25.9236 23.4974 25.9166 23.4507 25.9071 23.4046C25.8986 23.3586 25.887 23.3132 25.8726 23.2687C25.8593 23.2237 25.843 23.1796 25.8258 23.1356C25.8086 23.0916 25.7875 23.0504 25.7655 23.0093C25.7436 22.9679 25.7197 22.9277 25.6937 22.8887C25.6676 22.8493 25.6394 22.8113 25.6094 22.7748C25.5799 22.7382 25.5483 22.7034 25.5148 22.6705C25.4822 22.637 25.4468 22.6054 25.4104 22.5748C25.374 22.5461 25.3357 22.5174 25.2965 22.4915C25.2575 22.4656 25.2173 22.4416 25.176 22.4198C25.1347 22.3978 25.0918 22.3777 25.0486 22.3595C25.0055 22.3414 24.9614 22.3258 24.9166 22.3126C24.8271 22.2838 24.7347 22.2652 24.641 22.2571C24.5004 22.2435 24.3586 22.2503 24.2199 22.2772C24.1737 22.2866 24.1281 22.2984 24.0831 22.3126C24.0383 22.3257 23.9942 22.3414 23.9511 22.3595C23.908 22.3777 23.8649 22.3978 23.8238 22.4198C23.7826 22.4418 23.7424 22.4657 23.7031 22.4915C23.6638 22.5174 23.6256 22.5461 23.5903 22.5748C23.5529 22.6054 23.5185 22.637 23.485 22.6705C23.4514 22.7034 23.4197 22.7383 23.3902 22.7748C23.3605 22.8113 23.3328 22.8494 23.307 22.8887C23.2807 22.9276 23.2564 22.9679 23.2343 23.0093C23.2122 23.0503 23.1923 23.0925 23.1748 23.1356C23.1567 23.1791 23.1407 23.2235 23.127 23.2687C23.1137 23.3127 23.1022 23.3586 23.0926 23.4046C23.0832 23.4507 23.0761 23.4974 23.0715 23.5443C23.0668 23.5912 23.0648 23.6381 23.0648 23.685C23.0648 23.7319 23.0668 23.7797 23.0715 23.8266C23.0762 23.8732 23.0832 23.9195 23.0926 23.9654C23.1022 24.0113 23.1137 24.0572 23.127 24.1022C23.1407 24.147 23.1567 24.1911 23.1748 24.2343C23.1923 24.2778 23.2122 24.3203 23.2343 24.3616C23.2562 24.4027 23.2811 24.4429 23.307 24.4822C23.3328 24.5212 23.3605 24.5589 23.3902 24.5951C23.42 24.6318 23.4516 24.6669 23.485 24.7004C23.5185 24.7329 23.5529 24.7654 23.5903 24.7951C23.6263 24.825 23.6639 24.8528 23.7031 24.8784C23.7424 24.9042 23.7825 24.9291 23.8238 24.9511C23.9069 24.9944 23.9937 25.0303 24.0831 25.0583C24.128 25.0717 24.174 25.0832 24.2199 25.0928C24.3122 25.1116 24.4061 25.1209 24.5003 25.1205C24.8806 25.1195 25.2451 24.9685 25.5148 24.7004C25.5809 24.6332 25.6408 24.5602 25.6937 24.4822C25.7196 24.4429 25.7435 24.4027 25.7655 24.3616C25.7875 24.3204 25.8076 24.2774 25.8258 24.2343C25.844 24.1912 25.8593 24.1462 25.8726 24.1022C25.8869 24.0574 25.8985 24.0117 25.9071 23.9654C25.9165 23.9195 25.9235 23.8732 25.9281 23.8266C25.933 23.7795 25.9355 23.7321 25.9355 23.6848L25.9358 23.685ZM30.7209 23.685C30.7209 23.3042 30.5697 22.9391 30.3005 22.6699C30.0312 22.4007 29.6661 22.2494 29.2854 22.2494H29.2826C28.9988 22.25 28.7215 22.3346 28.4858 22.4927C28.2501 22.6508 28.0665 22.8752 27.9583 23.1375C27.8501 23.3999 27.822 23.6884 27.8777 23.9667C27.9335 24.245 28.0704 24.5005 28.2713 24.701C28.4721 24.9015 28.7279 25.038 29.0063 25.0931C29.2847 25.1483 29.5732 25.1197 29.8354 25.011C30.0975 24.9022 30.3216 24.7182 30.4792 24.4822C30.6368 24.2462 30.7209 23.9688 30.7209 23.685Z" fill="#3C4DB7"/>
</svg>
