<svg id="Capa_1" enable-background="new 0 0 512 512" height="512" viewBox="0 0 512 512" width="512" xmlns="http://www.w3.org/2000/svg"><g><g><path d="m512 108.242c0-10.573-8.571-19.144-19.144-19.144h-473.712c-10.573 0-19.144 8.571-19.144 19.144v27.212l221.81 39.393 290.19-39.393z" fill="#4073c8"/></g><g><path d="m492.856 89.098h-22.063v61.593l41.207-15.237v-27.212c0-10.573-8.571-19.144-19.144-19.144z" fill="#3b66c1"/></g><g><path d="m0 135.454v268.303c0 10.573 8.571 19.144 19.144 19.144h473.712c10.573 0 19.144-8.571 19.144-19.144v-268.303z" fill="#f1f4f6"/></g><g><path d="m470.793 135.454v162.168c0 57.811-46.865 104.676-104.676 104.676h-366.117v1.46c0 10.573 8.571 19.144 19.144 19.144h473.712c10.573 0 19.144-8.571 19.144-19.144v-268.304z" fill="#dfeaef"/></g><g><path d="m165.572 161.209h-135.116c-2.596 0-4.701 2.105-4.701 4.701v142.706c0 2.596 2.105 4.701 4.701 4.701h21.522l43.52-12.971 48.553 12.971h21.522c2.596 0 4.701-2.105 4.701-4.701v-142.706c-.001-2.596-2.105-4.701-4.702-4.701z" fill="#b9e4ef"/></g><g><path d="m97.339 293.802c12.19 0 22.404-19.481 25.1-30.847h-6.424c-2.958 0-5.355-2.398-5.355-5.355v-5.365c-4.433 3.032-20.858 3.032-25.291 0v5.365c0 2.958-2.398 5.356-5.356 5.356h-7.774c2.695 11.364 12.91 30.846 25.1 30.846z" fill="#eaac9d"/></g><g><path d="m382.262 194.429h-176.74c-2.399 0-4.343-1.944-4.343-4.343v-24.535c0-2.399 1.944-4.343 4.343-4.343h176.74c2.399 0 4.343 1.944 4.343 4.343v24.535c0 2.399-1.944 4.343-4.343 4.343z" fill="#617881"/></g><path d="m316.512 337.391h22.496c1.154 0 2.09.936 2.09 2.09v63.302c0 1.154-.936 2.09-2.09 2.09h-22.496c-1.154 0-2.09-.936-2.09-2.09v-63.302c0-1.154.936-2.09 2.09-2.09zm143.979 65.393v-63.302c0-1.154-.936-2.09-2.09-2.09h-37.949c-1.154 0-2.09.936-2.09 2.09v63.302c0 1.154.936 2.09 2.09 2.09h37.949c1.154 0 2.09-.936 2.09-2.09zm-85.912-5.637v-52.03c0-4.267-3.459-7.726-7.726-7.726s-7.726 3.459-7.726 7.726v52.03c0 4.267 3.459 7.726 7.726 7.726s7.726-3.459 7.726-7.726zm-78.186 0v-52.03c0-4.267-3.459-7.726-7.726-7.726s-7.726 3.459-7.726 7.726v52.03c0 4.267 3.459 7.726 7.726 7.726s7.726-3.459 7.726-7.726zm197.579 0v-52.03c0-4.267-3.459-7.726-7.726-7.726s-7.726 3.459-7.726 7.726v52.03c0 4.267 3.459 7.726 7.726 7.726s7.726-3.459 7.726-7.726zm-93.638 0v-52.03c0-4.267-3.459-7.726-7.726-7.726s-7.726 3.459-7.726 7.726v52.03c0 4.267 3.459 7.726 7.726 7.726s7.726-3.459 7.726-7.726z" fill="#617881"/><g fill="#475959"><path d="m420.452 404.874h37.949c1.154 0 2.09-.936 2.09-2.09v-59.823c-9.162 19.037-23.915 34.875-42.129 45.387v14.436c0 1.154.936 2.09 2.09 2.09z"/><path d="m316.512 404.874h22.496c1.154 0 2.09-.936 2.09-2.09v-.486h-26.676v.486c0 1.154.936 2.09 2.09 2.09z"/><path d="m486.245 337.391c-4.268 0-7.726 3.459-7.726 7.726v52.03c0 4.267 3.459 7.726 7.726 7.726s7.726-3.459 7.726-7.726v-52.03c.001-4.266-3.458-7.726-7.726-7.726z"/><path d="m294.425 402.298h-11.517c1.415 1.581 3.47 2.575 5.758 2.575 2.289.001 4.345-.994 5.759-2.575z"/><path d="m400.334 397.147v-.57c-4.753 1.643-9.662 2.954-14.698 3.903 1.245 2.598 3.898 4.393 6.972 4.393 4.267.001 7.726-3.459 7.726-7.726z"/><path d="m372.793 402.089c-2.207.139-4.433.21-6.676.21h-5.022c1.415 1.581 3.47 2.575 5.759 2.575 2.387 0 4.522-1.084 5.939-2.785z"/></g><g><g><path d="m233.455 284.57h-32.277c-4.267 0-7.726-3.459-7.726-7.726s3.459-7.726 7.726-7.726h32.277c4.267 0 7.726 3.459 7.726 7.726.001 4.267-3.459 7.726-7.726 7.726z" fill="#617881"/></g></g><g><g><path d="m386.605 284.57h-122.018c-4.268 0-7.726-3.459-7.726-7.726s3.459-7.726 7.726-7.726h122.018c4.268 0 7.726 3.459 7.726 7.726s-3.459 7.726-7.726 7.726z" fill="#617881"/></g></g><g><g><path d="m304.12 310.325h-39.533c-4.268 0-7.726-3.459-7.726-7.726s3.459-7.726 7.726-7.726h39.533c4.268 0 7.726 3.459 7.726 7.726s-3.459 7.726-7.726 7.726z" fill="#617881"/></g></g><g><g><path d="m233.455 233.061h-32.277c-4.267 0-7.726-3.459-7.726-7.726s3.459-7.726 7.726-7.726h32.277c4.267 0 7.726 3.459 7.726 7.726s-3.459 7.726-7.726 7.726z" fill="#617881"/></g></g><g><g><path d="m386.605 233.061h-122.018c-4.268 0-7.726-3.459-7.726-7.726s3.459-7.726 7.726-7.726h122.018c4.268 0 7.726 3.459 7.726 7.726s-3.459 7.726-7.726 7.726z" fill="#617881"/></g></g><g><g><path d="m386.605 258.816h-20.604c-4.268 0-7.726-3.459-7.726-7.726s3.459-7.726 7.726-7.726h20.604c4.268 0 7.726 3.459 7.726 7.726s-3.459 7.726-7.726 7.726z" fill="#617881"/></g></g><g><g><path d="m340.246 258.816h-21.758c-4.268 0-7.726-3.459-7.726-7.726s3.459-7.726 7.726-7.726h21.758c4.268 0 7.726 3.459 7.726 7.726s-3.458 7.726-7.726 7.726z" fill="#617881"/></g></g><g><path d="m488.199 186.457c-22.686-5.93-46.668-5.93-69.354 0-4.129 1.079-6.601 5.301-5.521 9.429 1.078 4.129 5.3 6.599 9.429 5.522 7.56-1.976 15.281-3.21 23.043-3.702v28.95c0 4.267 3.459 7.726 7.726 7.726s7.726-3.459 7.726-7.726v-28.95c7.762.492 15.483 1.726 23.043 3.702.655.171 1.312.253 1.959.253 3.43 0 6.562-2.301 7.47-5.775 1.08-4.128-1.392-8.35-5.521-9.429z" fill="#86a0af"/></g><path d="m488.199 186.457c-5.733-1.498-11.549-2.618-17.406-3.359v15.591c4.539.649 9.047 1.555 13.499 2.718.655.171 1.312.253 1.959.253 3.43 0 6.562-2.301 7.47-5.775 1.079-4.127-1.393-8.349-5.522-9.428z" fill="#738b95"/><g><g><path d="m38.777 389.495c-1.954 0-3.91-.737-5.414-2.215-3.044-2.99-3.088-7.882-.097-10.926l23.276-23.693c2.579-2.626 6.3-3.889 9.941-3.376 3.645.512 6.871 2.748 8.628 5.983l1.102 2.029 7.841-4.633c4.557-2.694 10.371-1.974 14.136 1.75l15.872 15.702h59.537c4.267 0 7.726 3.459 7.726 7.726s-3.459 7.726-7.726 7.726h-61.094c-3.092 0-6.004-1.197-8.202-3.371l-14.903-14.743-8.708 5.146c-2.71 1.602-6.006 2.04-9.041 1.201-3.035-.84-5.638-2.908-7.141-5.675l-.533-.981-19.687 20.039c-1.514 1.539-3.513 2.311-5.513 2.311z" fill="#617881"/></g></g><g><g><path d="m453.522 234.382c-22.304 0-40.45-18.146-40.45-40.45s18.146-40.45 40.45-40.45 40.45 18.146 40.45 40.45-18.146 40.45-40.45 40.45zm0-65.447c-13.784 0-24.997 11.214-24.997 24.997s11.213 24.997 24.997 24.997 24.997-11.214 24.997-24.997-11.213-24.997-24.997-24.997z" fill="#617881"/></g></g><path d="m470.793 157.358v18.519c4.759 4.554 7.726 10.964 7.726 18.055s-2.968 13.501-7.726 18.055v18.519c13.689-6.49 23.179-20.444 23.179-36.574s-9.49-30.083-23.179-36.574z" fill="#475959"/><g><path d="m97.701 186.963c-14.505.178-25.497 12.453-24.431 26.92l1.669 22.657c.89 12.086 15.791 20.462 23.075 20.462s22.185-8.376 23.075-20.462l1.688-22.925c1.068-14.496-10.496-26.83-25.076-26.652z" fill="#ffcbbe"/></g><g><path d="m126.161 262.955h-3.722c-2.695 11.366-12.91 19.821-25.1 19.821s-22.405-8.455-25.1-19.821h-2.372c-9.88 0-17.889 8.009-17.889 17.889v32.473h92.073v-32.473c-.001-9.88-8.01-17.889-17.89-17.889z" fill="#f4dd45"/></g></g></svg>