<svg id="Layer_1" viewBox="0 0 512 512" xmlns="http://www.w3.org/2000/svg" data-name="Layer 1"><path d="m498.996 352.99v-325.986c0-2.209-1.791-4-4-4h-188.294c-1.061 0-2.078.421-2.829 1.171l-52.018 52.018c-.75.75-1.171 1.768-1.171 2.829v110.109c-11.151 5.478-21.601 12.845-30.863 22.107-37.549 37.549-44.015 94.589-19.391 138.835v122.923h-26.582v-176.188c0-2.209-1.791-4-4-4h-50.225c-2.209 0-4 1.791-4 4v176.188h-26.582v-74.002c0-2.209-1.791-4-4-4h-50.254c-2.209 0-4 1.791-4 4v74.002h-9.783c-4.418 0-8 3.582-8 8s3.582 8 8 8h332.299c4.418 0 8-3.582 8-8s-3.582-8-8-8h-9.783v-70.92c7.805-2.97 15.355-6.802 22.494-11.509l18.871 27.375s.002.003.004.005l.051.075.006-.004c.153.222.321.437.519.635l61.473 61.473c11.788 11.788 30.939 11.83 42.755.117.375-.336.738-.679 1.092-1.033 4.992-4.992 7.842-11.706 8.061-19.079.254-8.515-3.048-16.845-9.058-22.855l-61.473-61.473c-.198-.198-.413-.365-.635-.519l.004-.006-.075-.052s-.002-.002-.004-.002l-26.457-18.233h93.847c2.209 0 4-1.791 4-4zm-213.729 120.006h-26.583v-71.641c8.6 3.439 17.526 5.818 26.583 7.125z" fill="#e6e8e8"/><path d="m219.798 375.699c-7.797-7.797-14.253-16.436-19.367-25.626v122.923h58.254v-71.641c-14.164-5.665-27.436-14.205-38.887-25.656z" fill="#30e5a3"/><path d="m384.259 211.238c-45.336-45.336-119.102-45.335-164.437 0-45.348 45.348-45.36 119.125-.024 164.461 39.664 39.664 101.098 44.617 146.217 14.868l18.871 27.375s.002.003.004.005l.052.075.006-.004c.153.222.321.437.519.635l61.473 61.473c11.788 11.788 30.939 11.83 42.755.117.375-.336.738-.679 1.091-1.033 4.992-4.992 7.842-11.706 8.061-19.079.254-8.515-3.048-16.845-9.058-22.855l-61.473-61.473c-.198-.198-.413-.365-.635-.519l.004-.006-.075-.052s-.002-.002-.004-.002l-27.648-19.053c28.823-44.987 23.596-105.637-15.699-144.932z" fill="#678d98"/><path d="m240.527 231.943c-33.931 33.931-33.942 89.131-.023 123.049 33.931 33.931 89.141 33.931 123.072 0 33.919-33.919 33.908-89.118-.023-123.049-33.918-33.918-89.107-33.919-123.026 0z" fill="#c8effe"/><path d="m258.684 338.206v-92.664c0-2.209-1.791-4-4-4h-22.442c-25.365 34.05-22.621 82.568 8.261 113.45 5.551 5.55 11.677 10.175 18.18 13.909v-30.696z" fill="#30e5a3"/><path d="m384.259 375.675c-5.674 5.674-11.792 10.637-18.244 14.891l18.875 27.38 42.721-42.721-27.652-19.056c-4.431 6.916-9.658 13.465-15.699 19.506z" fill="#a8d3d8"/><path d="m219.822 211.238c-1.473 1.473-2.895 2.977-4.272 4.508 45.592-41.014 116.067-39.592 159.931 4.271 43.863 43.863 45.286 114.339 4.271 159.931 1.531-1.377 3.035-2.8 4.508-4.272 45.335-45.335 45.335-119.102 0-164.437-45.336-45.336-119.102-45.335-164.437 0z" fill="#5c8089"/><path d="m427.61 375.226-8.779 8.779c.249.165.486.357.705.576l61.473 61.473c6.01 6.01 9.312 14.34 9.058 22.855-.162 5.441-1.766 10.517-4.596 14.813 1.484-1.016 2.901-2.17 4.222-3.48.375-.336.738-.679 1.091-1.033 4.992-4.992 7.842-11.706 8.061-19.079.254-8.515-3.048-16.845-9.058-22.855l-61.473-61.473c-.219-.219-.456-.411-.705-.576z" fill="#5c8089"/><path d="m399.958 356.17c-2.179 3.402-4.554 6.714-7.121 9.921l25.995 17.914 8.779-8.779-27.652-19.056z" fill="#9dccce"/><path d="m353.303 488.996h-332.299c-4.418 0-8-3.582-8-8s3.582-8 8-8h332.299c4.418 0 8 3.582 8 8s-3.582 8-8 8z" fill="#678d98"/><path d="m306.702 75.365v-52.361c-1.061 0-2.078.421-2.829 1.171l-52.018 52.018c-.75.75-1.171 1.768-1.171 2.829h52.361c2.019 0 3.656-1.637 3.656-3.656z" fill="#c3d1d0"/><path d="m448.876 262.998h-13.3c-4.418 0-8-3.582-8-8s3.582-8 8-8h13.3c4.418 0 8 3.582 8 8s-3.582 8-8 8z" fill="#8ebac5"/><path d="m448.876 181.082h-86.195c-4.418 0-8-3.582-8-8s3.582-8 8-8h86.195c4.418 0 8 3.582 8 8s-3.582 8-8 8z" fill="#8ebac5"/><path d="m448.876 222.025h-29.349c-4.418 0-8-3.582-8-8s3.582-8 8-8h29.349c4.418 0 8 3.582 8 8s-3.582 8-8 8z" fill="#8ebac5"/><path d="m448.876 140.11h-148.072c-4.418 0-8-3.582-8-8s3.582-8 8-8h148.072c4.418 0 8 3.582 8 8s-3.582 8-8 8z" fill="#8ebac5"/><path d="m448.876 99.166h-86.195c-4.418 0-8-3.582-8-8s3.582-8 8-8h86.195c4.418 0 8 3.582 8 8s-3.582 8-8 8z" fill="#8ebac5"/><path d="m448.876 303.941h-13.3c-4.418 0-8-3.582-8-8s3.582-8 8-8h13.3c4.418 0 8 3.582 8 8s-3.582 8-8 8z" fill="#8ebac5"/><g fill="#678d98"><path d="m98.178 68.17h-7.084c-4.418 0-8-3.582-8-8s3.582-8 8-8h7.084c4.418 0 8 3.582 8 8s-3.582 8-8 8z"/><path d="m199.64 68.17h-75.786c-4.418 0-8-3.582-8-8s3.582-8 8-8h75.786c4.418 0 8 3.582 8 8s-3.582 8-8 8z"/><path d="m199.64 96.593h-108.72c-4.418 0-8-3.582-8-8s3.582-8 8-8h108.72c4.418 0 8 3.582 8 8s-3.582 8-8 8z"/><path d="m98.178 149.189h-7.084c-4.418 0-8-3.582-8-8s3.582-8 8-8h7.084c4.418 0 8 3.582 8 8s-3.582 8-8 8z"/><path d="m199.64 149.189h-75.786c-4.418 0-8-3.582-8-8s3.582-8 8-8h75.786c4.418 0 8 3.582 8 8s-3.582 8-8 8z"/><path d="m199.64 177.612h-108.72c-4.418 0-8-3.582-8-8s3.582-8 8-8h108.72c4.418 0 8 3.582 8 8s-3.582 8-8 8z"/></g><rect fill="#f46240" height="53.907" rx="8" width="53.908" x="13.004" y="47.427"/><rect fill="#30e5a3" height="53.907" rx="8" width="53.908" x="13.004" y="128.447"/><path d="m89.041 472.996v-74.002c0-2.209-1.791-4-4-4h-50.254c-2.209 0-4 1.791-4 4v74.002z" fill="#f46240"/><path d="m173.848 472.996v-176.188c0-2.209-1.791-4-4-4h-50.225c-2.209 0-4 1.791-4 4v176.188z" fill="#01d0fb"/><path d="m169.848 292.808h-13c2.209 0 4 1.791 4 4v176.188h13v-176.188c0-2.209-1.791-4-4-4z" fill="#01c0fa"/><path d="m85.041 394.993h-13c2.209 0 4 1.791 4 4v74.002h13v-74.002c0-2.209-1.791-4-4-4z" fill="#ea5334"/><g fill="#24d18f"><path d="m258.684 338.206v-92.664c0-2.209-1.791-4-4-4h-13c2.209 0 4 1.791 4 4v114.195c4.106 3.496 8.456 6.555 13 9.164v-30.696z"/><path d="m245.684 395.183v77.813h13v-71.641c-4.432-1.773-8.772-3.833-13-6.172z"/></g><g fill="#f9d641"><path d="m343.521 369.946v-56.57c0-2.209-1.791-4-4-4h-50.254c-2.209 0-4 1.791-4 4v65.443c19.615 3.824 40.293.855 58.254-8.873z"/><path d="m285.267 408.479v64.516h58.254v-70.92c-18.635 7.09-38.735 9.22-58.254 6.404z"/></g><g fill="#dfc84a"><path d="m330.521 406.157v66.839h13v-70.92c-4.264 1.622-8.607 2.977-13 4.081z"/><path d="m330.521 362.416v13.258c4.452-1.534 8.798-3.451 13-5.728v-56.57c0-2.209-1.791-4-4-4h-13c2.209 0 4 1.791 4 4z"/></g></svg>