<svg width="90" height="90" viewBox="0 0 90 90" fill="none" xmlns="http://www.w3.org/2000/svg">
<rect width="90" height="90" rx="45" fill="#F5F5F5"/>
<path d="M61.6284 30.3242L39.1982 36.3008L45.1748 71.9997L60.4866 51.7171C62.9111 48.5058 64.3496 44.5084 64.3496 40.1745C64.3496 36.5726 63.3556 33.2033 61.6284 30.3242Z" fill="#0F9D58"/>
<path d="M37.7061 62.1064L45.1752 72.0002V52.1836L37.7061 62.1064Z" fill="#31AA52"/>
<path d="M45.1748 52.1834L50.9448 44.518L45.1748 40.1748L39.1982 46.1791L45.1748 52.1834Z" fill="#F69411"/>
<path d="M45.1748 21L39.1982 27.5711L45.1748 34.1423L50.0893 21.6368C48.5207 21.222 46.8737 21 45.1748 21Z" fill="#4175DF"/>
<path d="M29.8545 28.643V40.1748H45.1746V21C38.9136 21 33.3541 24.0012 29.8545 28.643Z" fill="#4086F4"/>
<path d="M29.8547 28.6426C27.4351 31.852 26 35.8454 26 40.1744C26 43.776 26.9942 47.1449 28.7215 50.0237L42.3929 38.0804L29.8547 28.6426Z" fill="#EB4132"/>
<path d="M50.0893 21.6367L45.1748 28.1657L37.9531 44.5179H50.9448L61.6284 30.3245C59.0918 26.0967 54.9725 22.9279 50.0893 21.6367Z" fill="#4086F4"/>
<path d="M45.1745 28.166L39.4043 35.8318L45.1745 40.175V28.166Z" fill="#609AF6"/>
<path d="M39.1982 40.1748L45.1748 52.1834L50.9448 44.518L39.1982 40.1748Z" fill="#F8A808"/>
<path d="M39.4048 35.8311L28.7217 50.0237C29.0728 50.6089 29.4535 51.1744 29.8632 51.7169L37.7058 62.1056L45.175 52.1829V40.1743L39.4048 35.8311Z" fill="#FBBD00"/>
<path d="M45.1753 32.9531L41.5645 40.1748L45.1753 47.3965C49.1638 47.3965 52.397 44.1633 52.397 40.1748C52.397 36.1863 49.1638 32.9531 45.1753 32.9531Z" fill="#E3E7EA"/>
<path d="M37.9531 40.1748C37.9531 44.1633 41.1863 47.3965 45.1748 47.3965V32.9531C41.1863 32.9531 37.9531 36.1863 37.9531 40.1748Z" fill="white"/>
</svg>
