<svg width="90" height="90" viewBox="0 0 90 90" fill="none" xmlns="http://www.w3.org/2000/svg">
<rect width="90" height="90" rx="45" fill="#F5F5F5"/>
<path d="M30.7822 71.0178V19.981C30.7822 18.9595 31.603 18.1387 32.6245 18.1387H58.1338C59.1462 18.1387 59.967 18.9595 59.967 19.981V71.0178C59.967 72.0393 59.1462 72.8601 58.1247 72.8601H32.6245C31.603 72.8601 30.7822 72.0393 30.7822 71.0178Z" fill="#7AD7EE"/>
<path d="M30.7822 71.0178C45.9546 63.4298 54.8378 45.4164 58.1338 18.1387C59.1462 18.1387 59.967 18.9595 59.967 19.981V71.0178C59.967 72.0393 59.1462 72.8601 58.1247 72.8601H32.6245C31.603 72.8601 30.7822 72.0393 30.7822 71.0178Z" fill="#4BC3EF"/>
<path fill-rule="evenodd" clip-rule="evenodd" d="M29.8711 71.0187C29.8711 72.5454 31.0987 73.773 32.6254 73.773H58.1256C59.6523 73.773 60.8799 72.5454 60.8799 71.0187V19.9818C60.8799 18.4533 59.6496 17.2275 58.1347 17.2275H32.6254C31.0987 17.2275 29.8711 18.4551 29.8711 19.9818V71.0187ZM31.6951 71.0187V19.9818C31.6951 19.4656 32.1092 19.0516 32.6254 19.0516H58.1347C58.6445 19.0516 59.0558 19.4675 59.0558 19.9818V71.0187C59.0558 71.5349 58.6418 71.9489 58.1256 71.9489H32.6254C32.1092 71.9489 31.6951 71.5349 31.6951 71.0187Z" fill="#615260"/>
<path d="M43.5518 18.1387V19.9627C43.5518 20.9659 44.3726 21.7868 45.3758 21.7868C46.379 21.7868 47.1999 20.9659 47.1999 19.9627V18.1387H43.5518Z" fill="#615260"/>
<path d="M45.3775 69.7526C45.8815 69.7526 46.2901 69.3445 46.2901 68.8411C46.2901 68.3378 45.8815 67.9297 45.3775 67.9297C44.8734 67.9297 44.4648 68.3378 44.4648 68.8411C44.4648 69.3445 44.8734 69.7526 45.3775 69.7526Z" fill="#ECEAEC"/>
<path d="M39.9068 69.7526C40.4108 69.7526 40.8194 69.3445 40.8194 68.8411C40.8194 68.3378 40.4108 67.9297 39.9068 67.9297C39.4027 67.9297 38.9941 68.3378 38.9941 68.8411C38.9941 69.3445 39.4027 69.7526 39.9068 69.7526Z" fill="#ECEAEC"/>
<path d="M50.8511 69.7526C51.3552 69.7526 51.7638 69.3445 51.7638 68.8411C51.7638 68.3378 51.3552 67.9297 50.8511 67.9297C50.3471 67.9297 49.9385 68.3378 49.9385 68.8411C49.9385 69.3445 50.3471 69.7526 50.8511 69.7526Z" fill="#ECEAEC"/>
<path d="M60.8793 36.1523H53.5831C48.5488 36.1523 44.4629 40.2382 44.4629 45.2726V58.0409L48.111 54.3928H60.8793C65.9137 54.3928 69.9995 50.3069 69.9995 45.2726C69.9995 40.2382 65.9137 36.1523 60.8793 36.1523Z" fill="#4CE1A1"/>
<path d="M64.48 36.8916C66.1964 38.5497 67.2635 40.8753 67.2635 43.4481C67.2635 48.4825 63.1776 52.5684 58.1432 52.5684H46.2869L44.4629 58.0405L48.111 54.3924H60.8793C65.9137 54.3924 69.9995 50.3066 69.9995 45.2722C69.9995 41.5165 67.7259 38.2888 64.48 36.8916Z" fill="#3EC2A3"/>
<path fill-rule="evenodd" clip-rule="evenodd" d="M49.9355 42.536H64.5278C65.0313 42.536 65.4399 42.1274 65.4399 41.6239C65.4399 41.1205 65.0313 40.7119 64.5278 40.7119H49.9355C49.432 40.7119 49.0234 41.1205 49.0234 41.6239C49.0234 42.1274 49.432 42.536 49.9355 42.536Z" fill="#ECEAEC"/>
<path fill-rule="evenodd" clip-rule="evenodd" d="M49.9355 46.1844H64.5278C65.0313 46.1844 65.4399 45.7758 65.4399 45.2724C65.4399 44.7689 65.0313 44.3604 64.5278 44.3604H49.9355C49.432 44.3604 49.0234 44.7689 49.0234 45.2724C49.0234 45.7758 49.432 46.1844 49.9355 46.1844Z" fill="#ECEAEC"/>
<path fill-rule="evenodd" clip-rule="evenodd" d="M49.9355 49.8328H64.5278C65.0313 49.8328 65.4399 49.4242 65.4399 48.9208C65.4399 48.4174 65.0313 48.0088 64.5278 48.0088H49.9355C49.432 48.0088 49.0234 48.4174 49.0234 48.9208C49.0234 49.4242 49.432 49.8328 49.9355 49.8328Z" fill="#ECEAEC"/>
</svg>
