<svg height="512" viewBox="0 0 64 64" width="512" xmlns="http://www.w3.org/2000/svg" xmlns:xlink="http://www.w3.org/1999/xlink"><linearGradient id="linear-gradient" gradientUnits="userSpaceOnUse" x1="3" x2="63" y1="32" y2="32"><stop offset="0" stop-color="#fbb03b"/><stop offset=".5053" stop-color="#f37046"/><stop offset="1" stop-color="#fbb03b"/></linearGradient><g id="GLYPH_gradient" data-name="GLYPH gradient"><g id="_22-Romantic_copy_7" data-name="22-Romantic copy 7"><path d="m63 61a1 1 0 0 1 -1 1h-58a1 1 0 0 1 -1-1v-58a1 1 0 0 1 2 0v57h5v-34h8v34h6v-27h8v27h6v-20h5.77c-.64 1.3-1.21 2.43-1.62 3.22-2.09 4.02-2.12 8.59-.08 11.95a9.4639 9.4639 0 0 0 3.93 3.59v1.24h16a1 1 0 0 1 1 1zm-19.08-16.85c.51-.98 1.25-2.47 2.08-4.15 2.51-5.11 5.78-12 5.78-12s1.45 3.04 3.15 6.58c1.71 3.54 3.67 7.58 4.71 9.57 3.07 5.88 1.14 13.85-7.86 13.85a10.1522 10.1522 0 0 1 -5.78-1.55c-3.89-2.6-4.31-8.01-2.08-12.3zm5.76 9.79a.995.995 0 0 0 1 .96h.03c3.96-.14 6.86-2.54 7.07-5.84a.9968.9968 0 1 0 -1.99-.12c-.17 2.6-2.79 3.88-5.15 3.97a.9889.9889 0 0 0 -.96 1.03zm-8.4041-27.0191-4.8071 2.168a1 1 0 1 0 .8222 1.8222l7.12-3.2109a.9983.9983 0 0 0 .4112-1.4795l-4.4414-6.4238a1 1 0 0 0 -1.6446 1.1367l2.75 3.9784c-4.1172-.9454-19.6312-5.2499-31.6942-18.5829a1 1 0 0 0 -1.482 1.3418 65.0993 65.0993 0 0 0 32.9659 19.25z" fill="url(#linear-gradient)"/></g></g></svg>