<svg width="90" height="90" viewBox="0 0 90 90" fill="none" xmlns="http://www.w3.org/2000/svg">
<rect width="90" height="90" rx="45" fill="#F5F5F5"/>
<path fill-rule="evenodd" clip-rule="evenodd" d="M62.0941 33.1089L63.1 31.9659C64.0614 30.8744 63.8948 29.138 62.6921 28.0457C61.49 26.9504 59.7248 26.9269 58.7642 28.0185L57.7598 29.1622L62.0941 33.1089Z" fill="#808080"/>
<path fill-rule="evenodd" clip-rule="evenodd" d="M44.7295 21.8604H48.9465V25.63H44.7295V21.8604Z" fill="#CCCCCC"/>
<path fill-rule="evenodd" clip-rule="evenodd" d="M43.1586 18H50.5207C51.3783 18 52.0709 18.6926 52.0709 19.5555V21.3344C52.0709 22.1973 51.3783 22.8899 50.5207 22.8899H43.1586C42.3003 22.8899 41.6084 22.1973 41.6084 21.3344V19.5555C41.6084 18.6926 42.3003 18 43.1586 18Z" fill="#808080"/>
<path fill-rule="evenodd" clip-rule="evenodd" d="M46.8376 25.3652C58.4356 25.3652 67.8376 34.7832 67.8376 46.4001C67.8376 58.0185 58.4356 67.4372 46.8376 67.4372C41.1105 67.4372 37.3175 65.5388 29.5444 62.8955L31.7085 60.7163C32.6804 59.7353 31.7274 57.9481 30.2922 58.5022C23.765 61.013 19.9606 58.3319 18.1053 52.2755C20.9129 54.0597 24.79 52.8296 26.0049 51.6117C27.8874 49.7276 27.1524 47.5484 22.915 48.9487C17.4809 50.7404 11.7523 47.6044 9 39.8479C17.3143 44.0248 17.9267 35.4289 26.7088 37.7194C25.9617 34.706 23.9361 33.7121 19.2968 33.831C23.8975 28.0327 30.5889 31.0348 37.646 27.487C40.4217 26.1282 43.5388 25.3652 46.8376 25.3652Z" fill="#FD6B65"/>
<path fill-rule="evenodd" clip-rule="evenodd" d="M61.8968 46.3997C61.8968 54.7307 55.1569 61.4834 46.838 61.4834C42.8436 61.4834 39.0135 59.8961 36.1893 57.0651C33.3659 54.2371 31.7793 50.4002 31.7793 46.3997C31.7793 42.3969 33.3651 38.5645 36.1893 35.732C39.0135 32.904 42.8436 31.3145 46.838 31.3145C55.1569 31.3145 61.8968 38.0702 61.8968 46.3997Z" fill="#F2F2F2"/>
<path d="M46.612 33.4386C46.1775 33.4454 45.8285 33.8065 45.8331 34.2417V35.3809C45.8331 36.4331 47.4151 36.4331 47.4151 35.3809V34.2417C47.4226 33.7944 47.0593 33.431 46.612 33.4386Z" fill="#808080"/>
<path d="M46.612 56.6222C46.1775 56.626 45.8285 56.9855 45.8331 57.4253V58.5608C45.8331 59.6167 47.4151 59.6167 47.4151 58.5608V57.4253C47.4226 56.9787 47.0593 56.6139 46.612 56.6222Z" fill="#808080"/>
<path d="M57.629 45.6094C56.5768 45.6094 56.5768 47.1922 57.629 47.1922H58.7644C59.8158 47.1922 59.8158 45.6094 58.7644 45.6094H57.629Z" fill="#808080"/>
<path d="M34.4809 45.6094C33.4295 45.6094 33.4295 47.1922 34.4809 47.1922H35.6201C36.6723 47.1922 36.6723 45.6094 35.6201 45.6094H34.4809Z" fill="#808080"/>
<path d="M54.3967 53.3975C53.6852 53.3975 53.337 54.2604 53.8464 54.7539L54.6457 55.5578C54.9508 55.8871 55.4678 55.8931 55.785 55.5782C56.1006 55.2611 56.09 54.7471 55.7607 54.4428L54.9614 53.6397C54.8123 53.4853 54.6109 53.3975 54.3967 53.3975Z" fill="#808080"/>
<path d="M38.0291 37.0059C37.3198 37.0059 36.9731 37.8688 37.4795 38.3631L38.2827 39.1624C38.5862 39.4902 39.1047 39.503 39.4219 39.1851C39.7375 38.8695 39.7254 38.351 39.3976 38.0459L38.5983 37.2473C38.4484 37.0929 38.2433 37.0059 38.0291 37.0059Z" fill="#808080"/>
<path d="M55.1934 37.0053C54.9883 37.0099 54.7892 37.0969 54.6476 37.2468L53.8483 38.0454C53.5205 38.3504 53.5084 38.869 53.8241 39.1846C54.1405 39.5018 54.6598 39.4897 54.9633 39.1619L55.7626 38.3626C56.2811 37.8599 55.9133 36.9819 55.1934 37.0053Z" fill="#808080"/>
<path d="M38.8283 53.3968C38.6232 53.4051 38.4241 53.4876 38.2826 53.639L37.4794 54.4421C37.1509 54.7464 37.1433 55.2604 37.459 55.5776C37.7754 55.8932 38.2932 55.8864 38.5982 55.5571L39.3975 54.7532C39.9161 54.2521 39.5489 53.3779 38.8283 53.3968Z" fill="#808080"/>
<path fill-rule="evenodd" clip-rule="evenodd" d="M46.8379 45.2181C47.4987 45.2181 48.021 45.7373 48.021 46.4012C48.021 47.0665 47.4994 47.5843 46.8379 47.5843C46.1778 47.5843 45.6548 47.0665 45.6548 46.4012C45.6548 45.7366 46.1778 45.2181 46.8379 45.2181ZM52.1736 40.0178C51.9722 40.0216 51.7747 40.1049 51.6316 40.251L47.9892 43.9025C47.6364 43.7367 47.2489 43.6375 46.8379 43.6375C45.3232 43.6375 44.0811 44.8873 44.0811 46.4012C44.0811 47.9158 45.3232 49.1671 46.8379 49.1671C48.3525 49.1671 49.5954 47.9158 49.5954 46.4012C49.5954 45.8675 49.4365 45.374 49.1723 44.9501L52.7474 41.3667C53.2538 40.8641 52.8897 40.0012 52.1736 40.0178Z" fill="#808080"/>
</svg>
