<?xml version="1.0" encoding="iso-8859-1"?>
<!-- Generator: Adobe Illustrator 19.0.0, SVG Export Plug-In . SVG Version: 6.00 Build 0)  -->
<svg version="1.1" id="Capa_1" xmlns="http://www.w3.org/2000/svg" xmlns:xlink="http://www.w3.org/1999/xlink" x="0px" y="0px"
	 viewBox="0 0 511.999 511.999" style="enable-background:new 0 0 511.999 511.999;" xml:space="preserve">
<path style="fill:#5B5D6E;" d="M418.479,216.583l-0.907-0.215L97.57,216.37l-0.897,0.213c-0.73-0.004-1.491-0.063-2.292-0.176
	c-0.031-0.004-0.228-0.033-0.228-0.033l-0.339-0.063c-8.008-1.449-13.82-8.51-13.82-16.792c0-9.329,7.394-16.933,16.532-17.061
	l0.406,0.008c0,0,0.304-0.006,0.388-0.01h347.093l5.598,0.184v-78.065h-21.411h-27.865H93.676
	c-51.469,0-93.343,42.591-93.343,94.944s41.855,95.083,93.326,95.083l0,0h324.827c0.099,0.006-0.036,0.002,0.099,0.006
	c8.975,0.263,16.42,7.602,16.42,16.739c0,9.378-8.23,16.228-17.431,16.278l0,0H86.987l0,0v78.844h72.982h258.424
	c51.469,0,93.343-42.591,93.343-94.944C511.735,259.203,469.909,216.63,418.479,216.583z"/>
<path style="fill:#FF507D;" d="M459.651,194.158c-3.778-3.216-7.584-6.696-11.312-10.341l-2.709-2.693
	c-12.624-12.775-27.672-31.067-27.672-45.669c0-25.927,21.093-47.021,47.02-47.021c25.927,0,47.02,21.093,47.02,47.021
	c0,22.094-34.729,52.775-41.692,58.703l-5.329,4.536L459.651,194.158z"/>
<path style="fill:#EF1846;" d="M486.696,118.108c-6.037-6.658-14.369-9.854-22.615-9.601c-3.102,0.096-5.362-2.886-4.299-5.803
	l4.362-11.974c0.407-1.116-0.458-2.293-1.644-2.231c-24.779,1.294-44.539,21.861-44.539,46.956
	c0,14.602,15.048,32.895,27.672,45.669l2.709,2.693c3.727,3.645,7.533,7.124,11.312,10.341l5.329,4.536l-7.752-26.29
	c-0.883-2.995,1.581-5.86,4.687-5.537c9.257,0.967,18.891-2.454,25.487-10.267C496.77,145.504,496.452,128.866,486.696,118.108z"/>
<path style="fill:#FFFFFF;" d="M464.98,152.658c-8.215,0-14.9-6.684-14.9-14.9s6.684-14.9,14.9-14.9c8.216,0,14.9,6.684,14.9,14.9
	S473.196,152.658,464.98,152.658z"/>
<path style="fill:#FF507D;" d="M76.589,482.379C68.749,477.907,0,437.506,0,396.709c0-44.479,36.186-80.665,80.665-80.665
	s80.665,36.186,80.665,80.665c0,40.736-68.75,81.19-76.59,85.668l-4.074,2.328L76.589,482.379z"/>
<path style="fill:#EF1846;" d="M118.632,420.753c17.048-19.38,16.539-49-1.123-67.822c-9.768-10.409-22.857-15.716-36.016-15.927
	c-4.027-0.065-6.781-4.096-5.44-7.893l2.674-7.575c0.949-2.69-1.176-5.482-4.021-5.274C32.999,319.322,0,354.234,0,396.709
	c0,40.797,68.749,81.199,76.589,85.67l4.076,2.326l-10.253-39.548c-1.032-3.978,2.194-7.71,6.291-7.389
	C91.933,438.959,107.603,433.292,118.632,420.753z"/>
<path style="fill:#FFFFFF;" d="M80.665,415.719c-15.582,0-28.258-12.677-28.258-28.258c0-15.581,12.676-28.258,28.258-28.258
	s28.258,12.677,28.258,28.258C108.923,403.042,96.247,415.719,80.665,415.719z"/>
<g>
	<path style="fill:#FFDC64;" d="M222.961,356.633h-23.587c-3.134,0-5.675,2.541-5.675,5.675v11.256c0,3.134,2.541,5.675,5.675,5.675
		h23.587c3.134,0,5.675-2.541,5.675-5.675v-11.256C228.637,359.173,226.095,356.633,222.961,356.633z"/>
	<path style="fill:#FFDC64;" d="M285.13,357.147h-23.587c-3.134,0-5.675,2.541-5.675,5.675v11.256c0,3.134,2.541,5.675,5.675,5.675
		h23.587c3.134,0,5.675-2.541,5.675-5.675v-11.256C290.805,359.687,288.264,357.147,285.13,357.147z"/>
	<path style="fill:#FFDC64;" d="M347.298,357.661h-23.587c-3.134,0-5.675,2.541-5.675,5.675v11.256c0,3.134,2.541,5.675,5.675,5.675
		h23.587c3.134,0,5.675-2.541,5.675-5.675v-11.256C352.974,360.201,350.433,357.661,347.298,357.661z"/>
	<path style="fill:#FFDC64;" d="M409.467,358.174H385.88c-3.134,0-5.675,2.541-5.675,5.675v11.256c0,3.134,2.541,5.675,5.675,5.675
		h23.587c3.134,0,5.675-2.541,5.675-5.675V363.85C415.142,360.715,412.601,358.174,409.467,358.174z"/>
	<path style="fill:#FFDC64;" d="M119.223,154.2h23.587c3.134,0,5.675-2.541,5.675-5.675v-11.256c0-3.135-2.541-5.675-5.675-5.675
		h-23.587c-3.134,0-5.675,2.541-5.675,5.675v11.256C113.548,151.659,116.089,154.2,119.223,154.2z"/>
	<path style="fill:#FFDC64;" d="M181.392,154.713h23.587c3.134,0,5.675-2.541,5.675-5.675v-11.256c0-3.135-2.541-5.675-5.675-5.675
		h-23.587c-3.134,0-5.675,2.541-5.675,5.675v11.256C175.716,152.172,178.257,154.713,181.392,154.713z"/>
	<path style="fill:#FFDC64;" d="M243.56,155.227h23.587c3.134,0,5.675-2.541,5.675-5.675v-11.256c0-3.135-2.541-5.675-5.675-5.675
		H243.56c-3.134,0-5.675,2.541-5.675,5.675v11.256C237.885,152.686,240.426,155.227,243.56,155.227z"/>
	<path style="fill:#FFDC64;" d="M305.729,155.741h23.587c3.134,0,5.675-2.541,5.675-5.675V138.81c0-3.135-2.541-5.675-5.675-5.675
		h-23.587c-3.134,0-5.675,2.541-5.675,5.675v11.256C300.053,153.2,302.595,155.741,305.729,155.741z"/>
	<path style="fill:#FFDC64;" d="M365.328,155.741h23.587c3.134,0,5.675-2.541,5.675-5.675V138.81c0-3.135-2.541-5.675-5.675-5.675
		h-23.587c-3.134,0-5.675,2.541-5.675,5.675v11.256C359.653,153.2,362.194,155.741,365.328,155.741z"/>
	<path style="fill:#FFDC64;" d="M164.389,243.599h-23.587c-3.134,0-5.675,2.541-5.675,5.675v11.256c0,3.134,2.541,5.675,5.675,5.675
		h23.587c3.134,0,5.675-2.541,5.675-5.675v-11.256C170.065,246.139,167.523,243.599,164.389,243.599z"/>
	<path style="fill:#FFDC64;" d="M226.558,244.113h-23.587c-3.134,0-5.675,2.541-5.675,5.675v11.256c0,3.134,2.541,5.675,5.675,5.675
		h23.587c3.134,0,5.675-2.541,5.675-5.675v-11.256C232.233,246.653,229.692,244.113,226.558,244.113z"/>
	<path style="fill:#FFDC64;" d="M288.726,244.627h-23.587c-3.134,0-5.675,2.541-5.675,5.675v11.256c0,3.134,2.541,5.675,5.675,5.675
		h23.587c3.134,0,5.675-2.541,5.675-5.675v-11.256C294.402,247.167,291.861,244.627,288.726,244.627z"/>
	<path style="fill:#FFDC64;" d="M350.895,245.141h-23.587c-3.134,0-5.675,2.541-5.675,5.675v11.256c0,3.134,2.541,5.675,5.675,5.675
		h23.587c3.134,0,5.675-2.541,5.675-5.675v-11.256C356.57,247.681,354.029,245.141,350.895,245.141z"/>
	<path style="fill:#FFDC64;" d="M421.798,245.141h-23.587c-3.134,0-5.675,2.541-5.675,5.675v11.256c0,3.134,2.541,5.675,5.675,5.675
		h23.587c3.134,0,5.675-2.541,5.675-5.675v-11.256C427.473,247.681,424.932,245.141,421.798,245.141z"/>
</g>
<g>
	<path style="fill:#9B735A;" d="M169.037,127.996c-4.256,0-7.707-3.45-7.707-7.707V67.883c0-4.257,3.451-7.707,7.707-7.707
		c4.256,0,7.707,3.45,7.707,7.707v52.407C176.744,124.546,173.293,127.996,169.037,127.996z"/>
	<path style="fill:#9B735A;" d="M251.243,253.945c-4.256,0-7.707-3.45-7.707-7.707v-29.777c0-4.257,3.451-7.707,7.707-7.707
		c4.256,0,7.707,3.45,7.707,7.707v29.777C258.95,250.495,255.5,253.945,251.243,253.945z"/>
	<path style="fill:#9B735A;" d="M372.498,372.117c-4.256,0-7.707-3.45-7.707-7.707v-29.777c0-4.257,3.451-7.707,7.707-7.707
		s7.707,3.45,7.707,7.707v29.777C380.205,368.667,376.754,372.117,372.498,372.117z"/>
</g>
<path style="fill:#B4E66E;" d="M251.243,225.733c-7.366,0-13.359-5.993-13.359-13.359v-5.839c0-7.366,5.993-13.359,13.359-13.359
	s13.359,5.993,13.359,13.359v5.839C264.602,219.74,258.609,225.733,251.243,225.733z"/>
<path style="fill:#A0D755;" d="M251.243,212.02v-5.158c0-4.942,2.609-9.484,6.669-11.883c-1.965-1.139-4.239-1.801-6.669-1.801
	c-7.366,0-13.359,5.993-13.359,13.359v5.839c0,7.366,5.993,13.359,13.359,13.359c2.443,0,4.727-0.67,6.699-1.819
	C253.89,221.51,251.243,216.991,251.243,212.02z"/>
<path style="fill:#B4E66E;" d="M372.498,343.904c-7.366,0-13.359-5.993-13.359-13.359v-5.839c0-7.366,5.993-13.359,13.359-13.359
	s13.359,5.993,13.359,13.359v5.839C385.856,337.911,379.863,343.904,372.498,343.904z"/>
<path style="fill:#A0D755;" d="M370.956,330.546v-5.839c0-5.243,3.044-9.777,7.45-11.963c-1.784-0.885-3.786-1.395-5.909-1.395
	c-7.366,0-13.359,5.993-13.359,13.359v5.839c0,7.366,5.993,13.359,13.359,13.359c2.123,0,4.125-0.511,5.909-1.395
	C374,340.323,370.956,335.789,370.956,330.546z"/>
<path style="fill:#B4E66E;" d="M169.037,83.81c-12.749,0-23.121-10.372-23.121-23.121V50.414c0-12.748,10.371-23.121,23.121-23.121
	c12.749,0,23.121,10.372,23.121,23.121V60.69C192.157,73.438,181.786,83.81,169.037,83.81z"/>
<path style="fill:#A0D755;" d="M164.927,60.69V50.414c0-9.361,5.596-17.435,13.615-21.067c-2.902-1.314-6.118-2.053-9.505-2.053
	c-12.749,0-23.121,10.372-23.121,23.121V60.69c0,12.748,10.371,23.121,23.121,23.121c3.387,0,6.603-0.739,9.505-2.053
	C170.523,78.125,164.927,70.051,164.927,60.69z"/>
<g>
</g>
<g>
</g>
<g>
</g>
<g>
</g>
<g>
</g>
<g>
</g>
<g>
</g>
<g>
</g>
<g>
</g>
<g>
</g>
<g>
</g>
<g>
</g>
<g>
</g>
<g>
</g>
<g>
</g>
</svg>
