<svg width="90" height="90" viewBox="0 0 90 90" fill="none" xmlns="http://www.w3.org/2000/svg">
<rect width="90" height="90" rx="45" fill="#F5F5F5"/>
<path fill-rule="evenodd" clip-rule="evenodd" d="M63.6485 68.0629V23.1039C63.6485 20.2971 61.3516 18 58.5448 18H31.4562C28.6494 18 26.3525 20.2971 26.3525 23.1039V68.0629C26.3525 70.8728 28.6495 73.1699 31.4562 73.1699H58.5448C61.3516 73.1699 63.6485 70.8728 63.6485 68.0629Z" fill="#365E7D"/>
<path fill-rule="evenodd" clip-rule="evenodd" d="M59.8184 24.4053V59.1567C59.8184 60.2557 58.9193 61.1548 57.8203 61.1548H32.3467C31.2456 61.1548 30.3486 60.2556 30.3486 59.1567V24.4053C30.3486 23.3075 31.2456 22.4072 32.3467 22.4072H57.8203C58.9192 22.4071 59.8184 23.3074 59.8184 24.4053Z" fill="#90D8F9"/>
<path fill-rule="evenodd" clip-rule="evenodd" d="M50.4509 67.4179C50.4509 66.389 49.6107 65.5488 48.585 65.5488H41.414C40.3882 65.5488 39.5449 66.389 39.5449 67.4179C39.5449 68.4469 40.3882 69.287 41.414 69.287H48.585C49.6107 69.287 50.4509 68.4469 50.4509 67.4179Z" fill="#FFD772"/>
<path fill-rule="evenodd" clip-rule="evenodd" d="M63.6485 68.0629V23.1039C63.6485 20.2971 61.3516 18 58.5449 18H49.5332C52.233 18 54.2468 19.9289 54.5897 22.4084H57.8212C58.9193 22.4084 59.8193 23.3084 59.8193 24.4065V59.1579C59.8193 60.2561 58.9193 61.156 57.8212 61.156H54.6368V68.0629C54.6368 70.8728 52.3399 73.1699 49.5332 73.1699H58.5449C61.3516 73.1699 63.6485 70.8728 63.6485 68.0629Z" fill="#2B4D66"/>
<path fill-rule="evenodd" clip-rule="evenodd" d="M59.8181 59.1567V24.4053C59.8181 23.3071 58.9181 22.4072 57.82 22.4072H55.6269H54.6357C55.7339 22.4072 56.6338 23.3072 56.6338 24.4053V59.1567C56.6338 60.255 55.7339 61.1548 54.6357 61.1548H55.6741H57.82C58.9182 61.1548 59.8181 60.255 59.8181 59.1567Z" fill="#75CEF8"/>
<path d="M51.7024 53.8601L43.983 61.1553H41.5586L50.5601 52.6489C52.4716 50.8462 52.1919 48.7582 51.1239 47.5804C50.2392 46.6058 48.5475 46.0419 46.6948 47.6604L42.6887 51.1571C40.5907 52.9876 38.849 52.7523 37.9976 52.4492C36.6423 51.9663 35.5965 50.6575 35.3346 49.1157C35.0992 47.7392 35.541 46.4371 36.5168 45.6234L46.4663 35.4076C46.7871 35.079 47.3144 35.0713 47.643 35.3921C47.9727 35.7128 47.9793 36.2402 47.6585 36.5698L37.678 46.8178C37.6547 46.8423 37.6303 46.8645 37.6047 46.8855C36.8422 47.5016 36.9109 48.4552 36.9753 48.837C37.1385 49.7939 37.759 50.5964 38.5561 50.8807C39.4474 51.1971 40.4976 50.8596 41.5943 49.9027L45.5994 46.406C48.1703 44.1615 50.9043 44.8608 52.3574 46.4615C54.0046 48.2776 54.3099 51.4024 51.7024 53.8601Z" fill="#F9F6F6"/>
<path d="M36.5628 27.4482H34.313C33.8531 27.4482 33.4805 27.0755 33.4805 26.6157C33.4805 26.1559 33.8532 25.7832 34.313 25.7832H36.5628C37.0227 25.7832 37.3953 26.1559 37.3953 26.6157C37.3953 27.0755 37.0227 27.4482 36.5628 27.4482Z" fill="#2B4D66"/>
<path d="M36.5628 30.7802H34.313C33.8531 30.7802 33.4805 30.4075 33.4805 29.9477C33.4805 29.488 33.8532 29.1152 34.313 29.1152H36.5628C37.0227 29.1152 37.3953 29.488 37.3953 29.9477C37.3954 30.4074 37.0227 30.7802 36.5628 30.7802Z" fill="#78C2A4"/>
<path fill-rule="evenodd" clip-rule="evenodd" d="M49.3389 39.9659L52.7358 29.3902C52.8294 29.0987 52.5132 28.8459 52.2495 29.0015L42.6826 34.6459C42.4153 34.8035 42.4899 35.2088 42.7958 35.2609L47.0629 35.989L48.7141 39.9911C48.8324 40.2779 49.244 40.2613 49.3389 39.9659Z" fill="#DD636E"/>
<path fill-rule="evenodd" clip-rule="evenodd" d="M49.3396 39.9655L52.7362 29.3902C52.8298 29.0987 52.5136 28.8459 52.2499 29.0015L50.8327 29.8375L48.0732 38.4341L48.7146 39.9905C48.8328 40.2774 49.2446 40.2609 49.3396 39.9655Z" fill="#DA4A54"/>
</svg>
