<svg clip-rule="evenodd" fill-rule="evenodd" height="7.111in" image-rendering="optimizeQuality" shape-rendering="geometricPrecision" text-rendering="geometricPrecision" viewBox="0 0 7111 7111" width="7.111in" xmlns="http://www.w3.org/2000/svg"><g id="Layer_x0020_1"><path d="m4380 4872c-39 0-76-18-98-50-173-248-350-384-526-404-108-12-144-152-56-215 195-141 363-308 503-503 63-88 203-51 215 56 20 176 156 353 404 526 61 43 68 130 16 182l-373 373c-23 22-54 35-85 35z" fill="#61a2f9"/><path d="m2425 4849c-621 0-1243-236-1716-709-945-946-945-2485 0-3431 946-945 2485-945 3431 0 946 946 946 2485 0 3431-473 473-1094 709-1715 709z" fill="#80b4fb"/><path d="m2425 4465c-1128 0-2040-913-2040-2040 0-545 212-1057 597-1443 795-795 2090-795 2885 0 796 796 796 2090 0 2885-385 386-897 598-1442 598z" fill="#e4f6ff"/><path d="m6228 7111c-131 0-262-50-362-150l-1570-1569c-199-200-199-524 0-724l372-372c200-199 525-199 724 0l1569 1570c200 199 200 524 0 724l-371 371c-100 100-231 150-362 150z" fill="#80b4fb"/><path d="m5863 6959-168-168 1096-1096 168 168zm-1395-1396-168-168 1095-1095 168 168z" fill="#61a2f9"/><path d="m5498 6594-168-168 1096-1096 168 168zm-666-666-168-168 1096-1096 168 168z" fill="#61a2f9"/><path d="m2413 4122c-9 0-17-1-26-4-346-102-668-313-905-593-242-287-376-622-376-945v-1055c0-37 22-70 56-84 383-164 896-436 1189-711 35-33 90-33 125 0 293 275 806 547 1189 711 34 14 56 47 56 84v1055c0 700-614 1348-1281 1539-9 2-18 3-27 3z" fill="#335f8c"/><path d="m2413 3705c-10 0-19-1-29-4-488-160-933-633-933-1145v-785c0-36 21-69 54-84 198-88 572-271 850-498 34-27 82-27 116 0 278 227 652 410 850 498 33 15 54 48 54 84v785c0 513-442 982-933 1145-9 3-19 4-29 4z" fill="#5684b9"/><path d="m2096 2879c-39 0-75-25-87-63l-119-376c-15-48 11-99 60-115 48-15 99 12 114 60l79 249 675-535c40-32 97-25 129 15 31 39 24 97-15 128l-779 618c-16 13-36 19-57 19z" fill="#fff"/></g></svg>