<svg id="Capa_1" enable-background="new 0 0 512 512" height="512" viewBox="0 0 512 512" width="512" xmlns="http://www.w3.org/2000/svg"><path d="m420.232 312.499h-52.233l-56.577 11.756c-17.377 3.611-30.222 18.353-31.42 36.06l-3.702 54.707c-.357 5.281 3.83 9.762 9.123 9.762h217.385c5.293 0 9.481-4.48 9.123-9.762l-3.702-54.707c-1.198-17.708-14.043-32.45-31.42-36.06z" fill="#6bdae8"/><path d="m511.931 415.022-3.702-54.707c-1.198-17.708-14.044-32.45-31.42-36.06l-56.577-11.756h-52.233l74.649 21.778c26.317 8.268 30.222 18.353 31.42 36.06l1.307 54.446h27.433c5.293 0 9.48-4.48 9.123-9.761z" fill="#00c8de"/><path d="m420.232 312.499v-35.547h-52.233v35.547c0 14.424 11.693 26.117 26.117 26.117 14.423 0 26.116-11.693 26.116-26.117z" fill="#fff3de"/><path d="m455.364 215.307h-12.217v-6.189c0-13.249-5.439-26.088-15.479-34.732-7.871-6.778-18.936-12.694-33.552-12.857-14.616.163-25.681 6.079-33.552 12.857-10.04 8.645-15.479 21.483-15.479 34.732v5.027h-12.217v26.99c0 4.901 3.973 8.874 8.874 8.874h3.356c.276 12.879 5.689 25.275 15.466 33.694 7.872 6.778 18.936 12.694 33.552 12.857 14.616-.163 25.681-6.079 33.552-12.857 9.777-8.419 15.189-20.815 15.466-33.694h3.356c4.901 0 8.874-3.973 8.874-8.874z" fill="#fff3de"/><path d="m443.147 215.306v-6.189c0-13.249-5.439-26.088-15.479-34.732-2.497-2.15-5.318-4.211-8.469-6.032 1.208 3.143 1.877 6.549 1.877 10.101v75.029c-1.09 11.61-6.357 22.562-15.251 30.22-5.775 4.973-13.277 9.471-22.631 11.585 3.396.767 7.029 1.229 10.921 1.272 14.616-.163 25.681-6.079 33.552-12.857 9.777-8.419 15.189-20.815 15.466-33.694h3.356c4.901 0 8.874-3.973 8.874-8.874v-25.828h-12.216z" fill="#ffe5c2"/><path d="m476.465 424.783v-32.481c0-4.142-3.357-7.5-7.5-7.5s-7.5 3.358-7.5 7.5v32.481z" fill="#00c8de"/><path d="m143.171 312.765h-52.11l-56.443 11.728c-17.336 3.602-30.151 18.309-31.346 35.975l-3.187 47.102c-.63 9.313 6.754 17.214 16.089 17.214h201.885c9.334 0 16.719-7.901 16.089-17.214l-3.187-47.102c-1.195-17.666-14.01-32.373-31.346-35.975z" fill="#cc98e8"/><path d="m234.148 407.569-3.187-47.102c-1.195-17.666-14.01-32.373-31.346-35.975l-56.443-11.728h-52.11l73.646 20.415c25.201 6.962 30.151 18.309 31.346 35.975l3.187 47.102c.208 3.077-.473 5.992-1.796 8.527h20.613c9.336 0 16.72-7.901 16.09-17.214z" fill="#bf80e2"/><path d="m143.171 312.765v-35.463h-52.11v35.463c0 14.39 11.665 26.055 26.055 26.055 14.39-.001 26.055-11.666 26.055-26.055z" fill="#fff3de"/><path d="m49.944 424.783v-32.383c0-4.142-3.357-7.5-7.5-7.5s-7.5 3.358-7.5 7.5v32.383z" fill="#bf80e2"/><path d="m181.491 210.22h-12.735v-6.452c0-13.811-5.67-27.193-16.135-36.204-8.205-7.065-19.738-13.232-34.974-13.402-15.235.17-26.769 6.336-34.974 13.402-10.465 9.011-16.135 22.394-16.135 36.204v5.24h-12.735v24.635c0 7.041 5.708 12.749 12.749 12.749.288 13.425 5.93 26.346 16.121 35.122 8.205 7.065 19.739 15.87 34.974 16.04 15.236-.17 26.769-8.975 34.974-16.04 10.192-8.776 15.833-21.697 16.121-35.122 7.041 0 12.749-5.708 12.749-12.749z" fill="#fff3de"/><path d="m168.756 210.22v-6.452c0-12.454-4.625-24.549-13.205-33.415v76.039c-.288 13.425-5.93 26.346-16.121 35.122-6.975 6.005-16.364 13.248-28.378 15.396 2.12.379 4.311.618 6.596.644 15.236-.17 26.769-8.975 34.974-16.04 10.192-8.776 15.833-21.697 16.121-35.122 7.041 0 12.748-5.708 12.748-12.749v-23.423z" fill="#ffe5c2"/><path d="m329.695 462.921v-152.678c0-14.132-11.457-25.589-25.589-25.589h-95.108c-14.132 0-25.589 11.457-25.589 25.589v152.678z" fill="#ffa812"/><path d="m304.106 284.654h-11.752c2.059 6.447 3.18 13.313 3.18 20.443v157.824h34.161v-152.678c0-14.132-11.457-25.589-25.589-25.589z" fill="#ff9a00"/><path d="m197.863 409.572c0 22.59 31.812 55.492 58.137 55.626 26.325-.133 58.137-32.707 58.137-55.626l-28.163-4.447c-4.013-.634-6.969-4.093-6.968-8.156l.005-25.254h-23.011-23.01v25.062c0 4.041-2.926 7.489-6.914 8.146z" fill="#fff3de"/><path d="m363.603 447.061c-1.193-17.551-14.364-31.945-31.74-34.689l-17.725-2.799c-9.306 23.021-31.812 39.288-58.137 39.421-26.325-.133-48.831-16.4-58.137-39.421l-17.726 2.799c-17.376 2.744-30.547 17.138-31.74 34.689l-3.245 47.72c-.633 9.315 6.752 17.22 16.088 17.22h94.759 94.759c9.337 0 16.722-7.905 16.088-17.22z" fill="#ff646f"/><path d="m366.847 494.78-3.245-47.72c-1.193-17.551-14.364-31.945-31.74-34.689l-17.726-2.799c-2.032 5.028-4.695 9.733-7.888 14.018 13.1 5.34 22.389 17.751 23.381 32.354l3.813 56.056h17.317c9.336 0 16.722-7.905 16.088-17.22z" fill="#ff4755"/><path d="m210.19 340.316c.263 12.242 5.407 24.025 14.701 32.028 7.482 6.443 18 18.486 31.893 18.641 13.893-.155 24.411-12.199 31.893-18.641 9.294-8.003 14.438-19.786 14.701-32.028l.066-61.635h-93.774z" fill="#fff3de"/><path d="m329.695 317.498s-25.382-2.014-34.068-25.362c0 0-61.358 49.124-112.218 25.362v-12.401c0-37.08 30.06-67.14 67.14-67.14h12.006c37.08 0 67.14 30.06 67.14 67.14z" fill="#ffc265"/><path d="m188.838 512v-26.101c0-4.142-3.357-7.5-7.5-7.5s-7.5 3.358-7.5 7.5v26.101z" fill="#ff4755"/><path d="m331.311 478.399c-4.143 0-7.5 3.358-7.5 7.5v26.101h15v-26.101c0-4.142-3.358-7.5-7.5-7.5z" fill="#ff4755"/><path d="m24.241 0h85.577c13.362 0 24.194 10.832 24.194 24.194v17.612c0 13.362-10.832 24.194-24.194 24.194l-.154 26.444c-.019 3.328-4.219 4.773-6.282 2.162l-22.599-28.606h-56.542c-13.361 0-24.193-10.832-24.193-24.194v-17.612c0-13.362 10.832-24.194 24.193-24.194z" fill="#d5f3f7"/><path d="m109.819 0h-30.036c11.083 0 20.068 8.985 20.068 20.068v25.863c.001 11.084-8.984 20.069-20.068 20.069h1l22.6 28.606c2.063 2.611 6.263 1.166 6.282-2.162l.154-26.444c13.362 0 24.194-10.832 24.194-24.194v-17.612c0-13.362-10.832-24.194-24.194-24.194z" fill="#a7e8f1"/><path d="m487.759 0h-85.577c-13.362 0-24.194 10.832-24.194 24.194v17.612c0 13.362 10.832 24.194 24.194 24.194l.154 26.444c.019 3.328 4.219 4.773 6.282 2.162l22.599-28.606h56.542c13.362 0 24.194-10.832 24.194-24.194v-17.612c-.001-13.362-10.833-24.194-24.194-24.194z" fill="#d5f3f7"/><path d="m402.335 92.444c.02 3.328 4.219 4.773 6.282 2.162l22.6-28.606h-29.036z" fill="#a7e8f1"/><path d="m487.759 0h-24.089c7.946 0 14.388 6.442 14.388 14.388v37.224c0 7.946-6.442 14.388-14.388 14.388h24.089c13.362 0 24.194-10.832 24.194-24.194v-17.612c-.001-13.362-10.833-24.194-24.194-24.194z" fill="#a7e8f1"/><path d="m298.789 47.975h-85.577c-13.362 0-24.194 10.832-24.194 24.194v17.612c0 13.362 10.832 24.194 24.194 24.194h29.541l7.179 25.264c1.737 6.113 10.4 6.113 12.137 0l7.179-25.264h29.541c13.362 0 24.194-10.832 24.194-24.194v-17.612c0-13.362-10.832-24.194-24.194-24.194z" fill="#d5f3f7"/><path d="m242.752 113.975 7.179 25.264c1.737 6.113 10.4 6.113 12.137 0l7.179-25.264h-4.62z" fill="#a7e8f1"/><path d="m298.789 47.975h-24.999c8.302 0 15.031 6.73 15.031 15.031v35.937c0 8.302-6.73 15.031-15.031 15.031h24.999c13.362 0 24.194-10.832 24.194-24.194v-17.611c-.001-13.362-10.832-24.194-24.194-24.194z" fill="#a7e8f1"/><path d="m181.491 219.885s-12.462-3.716-21.892-14.172c-5.62-6.231-14.707-7.867-22.013-3.74-18.891 10.671-53.473 25.243-83.783 11.082v-18.634c0-24.281 19.684-43.965 43.965-43.965h26.142c5.802 0 11.443 1.901 16.061 5.413 4.452 3.386 9.861 5.278 15.453 5.406 14.492.333 26.067 12.176 26.067 26.672z" fill="#e29a74"/><path d="m155.551 161.282v41.083c1.472.902 2.843 2.013 4.048 3.349 9.429 10.456 21.892 14.172 21.892 14.172v-31.937c0-14.454-11.507-26.268-25.94-26.667z" fill="#dd8858"/><path d="m415.152 150.457c-1.031 0-43.509 0-42.073 0-22.208 0-40.212 18.003-40.212 40.212v30.095s14.525-.184 19.752 4.99c1.089 1.077 2.939.29 2.939-1.241v-31.949c0-7.212 5.846-13.058 13.058-13.058h5.476c9.18 0 9.603 7.68 20.023 7.68 10.36 0 10.847-7.68 20.023-7.68h5.476c7.212 0 13.058 5.846 13.058 13.058v31.949c0 1.532 1.85 2.319 2.939 1.241 5.228-5.174 19.752-4.99 19.752-4.99v-30.095c.001-22.209-18.003-40.212-40.211-40.212z" fill="#e29a74"/><path d="m415.152 150.457c-.513 0-11.311 0-21.842 0 .108 0 .215 0 .323.001 15.247.12 27.444 12.748 27.444 27.996v1.138c6.523.727 11.596 6.254 11.596 12.971v31.949c0 1.532 1.85 2.319 2.939 1.241 5.228-5.174 19.752-4.99 19.752-4.99v-30.095c0-22.208-18.004-40.211-40.212-40.211z" fill="#d97f4a"/></svg>