<?xml version="1.0" encoding="utf-8"?>
<!-- Generator: Adobe Illustrator 23.0.2, SVG Export Plug-In . SVG Version: 6.00 Build 0)  -->
<svg version="1.1" id="Layer_1" xmlns="http://www.w3.org/2000/svg" xmlns:xlink="http://www.w3.org/1999/xlink" x="0px" y="0px"
	 viewBox="0 0 1080 1080" style="enable-background:new 0 0 1080 1080;" xml:space="preserve">
<style type="text/css">
	.st0{fill:#FFFFFF;}
	.st1{fill:#FEFEFE;}
	.st2{fill:#FDFDFD;}
	.st3{fill:#FCFCFC;}
	.st4{fill:#FBFBFB;}
	.st5{fill:#FAFAFA;}
	.st6{fill:#F9F9F9;}
	.st7{fill:#F8F8F8;}
	.st8{fill:#F7F7F7;}
	.st9{fill:#F6F6F6;}
	.st10{fill:#F5F5F5;}
	.st11{fill:#F4F4F4;}
	.st12{fill:#F3F3F3;}
	.st13{fill:#F2F2F2;}
	.st14{fill:#F1F1F1;}
	.st15{fill:#F0F0F0;}
	.st16{fill:#EFEFEF;}
	.st17{fill:#EEEEEE;}
	.st18{fill:#EDEDED;}
	.st19{fill:#ECECEC;}
	.st20{fill:#EBEBEB;}
	.st21{fill:#EAEAEA;}
	.st22{fill:#E9E9E9;}
	.st23{fill:#E8E8E8;}
	.st24{fill:#E7E7E7;}
	.st25{fill:#E6E6E6;}
	.st26{fill:url(#SVGID_1_);}
	.st27{fill:url(#SVGID_2_);}
</style>
<g>
	<ellipse class="st0" cx="520.4" cy="1032" rx="344.1" ry="24.2"/>
	<ellipse class="st0" cx="520.4" cy="1032" rx="340.8" ry="24"/>
	<ellipse class="st0" cx="520.4" cy="1032" rx="337.5" ry="23.7"/>
	<ellipse class="st1" cx="520.4" cy="1032" rx="334.3" ry="23.5"/>
	<ellipse class="st1" cx="520.4" cy="1032" rx="331" ry="23.3"/>
	<ellipse class="st1" cx="520.4" cy="1032" rx="327.7" ry="23.1"/>
	<ellipse class="st1" cx="520.4" cy="1032" rx="324.4" ry="22.8"/>
	<ellipse class="st2" cx="520.4" cy="1032" rx="321.2" ry="22.6"/>
	<ellipse class="st2" cx="520.4" cy="1032" rx="317.9" ry="22.4"/>
	<ellipse class="st2" cx="520.4" cy="1032" rx="314.6" ry="22.1"/>
	<ellipse class="st2" cx="520.4" cy="1032" rx="311.3" ry="21.9"/>
	<ellipse class="st3" cx="520.4" cy="1032" rx="308.1" ry="21.7"/>
	<ellipse class="st3" cx="520.4" cy="1032" rx="304.8" ry="21.4"/>
	<ellipse class="st3" cx="520.4" cy="1032" rx="301.5" ry="21.2"/>
	<ellipse class="st3" cx="520.4" cy="1032" rx="298.2" ry="21"/>
	<ellipse class="st4" cx="520.4" cy="1032" rx="295" ry="20.8"/>
	<ellipse class="st4" cx="520.4" cy="1032" rx="291.7" ry="20.5"/>
	<ellipse class="st4" cx="520.4" cy="1032" rx="288.4" ry="20.3"/>
	<ellipse class="st4" cx="520.4" cy="1032" rx="285.1" ry="20.1"/>
	<ellipse class="st5" cx="520.4" cy="1032" rx="281.9" ry="19.8"/>
	<ellipse class="st5" cx="520.4" cy="1032" rx="278.6" ry="19.6"/>
	<ellipse class="st5" cx="520.4" cy="1032" rx="275.3" ry="19.4"/>
	<ellipse class="st5" cx="520.4" cy="1032" rx="272" ry="19.1"/>
	<ellipse class="st6" cx="520.4" cy="1032" rx="268.8" ry="18.9"/>
	<ellipse class="st6" cx="520.4" cy="1032" rx="265.5" ry="18.7"/>
	<ellipse class="st6" cx="520.4" cy="1032" rx="262.2" ry="18.4"/>
	<ellipse class="st6" cx="520.4" cy="1032" rx="258.9" ry="18.2"/>
	<ellipse class="st7" cx="520.4" cy="1032" rx="255.7" ry="18"/>
	<ellipse class="st7" cx="520.4" cy="1032" rx="252.4" ry="17.8"/>
	<ellipse class="st7" cx="520.4" cy="1032" rx="249.1" ry="17.5"/>
	<ellipse class="st7" cx="520.4" cy="1032" rx="245.8" ry="17.3"/>
	<ellipse class="st8" cx="520.4" cy="1032" rx="242.6" ry="17.1"/>
	<ellipse class="st8" cx="520.4" cy="1032" rx="239.3" ry="16.8"/>
	<ellipse class="st8" cx="520.4" cy="1032" rx="236" ry="16.6"/>
	<ellipse class="st8" cx="520.4" cy="1032" rx="232.7" ry="16.4"/>
	<ellipse class="st9" cx="520.4" cy="1032" rx="229.5" ry="16.1"/>
	<ellipse class="st9" cx="520.4" cy="1032" rx="226.2" ry="15.9"/>
	<ellipse class="st9" cx="520.4" cy="1032" rx="222.9" ry="15.7"/>
	<ellipse class="st9" cx="520.4" cy="1032" rx="219.6" ry="15.5"/>
	<ellipse class="st10" cx="520.4" cy="1032" rx="216.4" ry="15.2"/>
	<ellipse class="st10" cx="520.4" cy="1032" rx="213.1" ry="15"/>
	<ellipse class="st10" cx="520.4" cy="1032" rx="209.8" ry="14.8"/>
	<ellipse class="st10" cx="520.4" cy="1032" rx="206.5" ry="14.5"/>
	<ellipse class="st11" cx="520.4" cy="1032" rx="203.3" ry="14.3"/>
	<ellipse class="st11" cx="520.4" cy="1032" rx="200" ry="14.1"/>
	<ellipse class="st11" cx="520.4" cy="1032" rx="196.7" ry="13.8"/>
	<ellipse class="st11" cx="520.4" cy="1032" rx="193.4" ry="13.6"/>
	<ellipse class="st12" cx="520.4" cy="1032" rx="190.1" ry="13.4"/>
	<ellipse class="st12" cx="520.4" cy="1032" rx="186.9" ry="13.1"/>
	<ellipse class="st12" cx="520.4" cy="1032" rx="183.6" ry="12.9"/>
	<ellipse class="st12" cx="520.4" cy="1032" rx="180.3" ry="12.7"/>
	<ellipse class="st13" cx="520.4" cy="1032" rx="177" ry="12.5"/>
	<ellipse class="st13" cx="520.4" cy="1032" rx="173.8" ry="12.2"/>
	<ellipse class="st13" cx="520.4" cy="1032" rx="170.5" ry="12"/>
	<ellipse class="st13" cx="520.4" cy="1032" rx="167.2" ry="11.8"/>
	<ellipse class="st14" cx="520.4" cy="1032" rx="163.9" ry="11.5"/>
	<ellipse class="st14" cx="520.4" cy="1032" rx="160.7" ry="11.3"/>
	<ellipse class="st14" cx="520.4" cy="1032" rx="157.4" ry="11.1"/>
	<ellipse class="st14" cx="520.4" cy="1032" rx="154.1" ry="10.8"/>
	<ellipse class="st15" cx="520.4" cy="1032" rx="150.8" ry="10.6"/>
	<ellipse class="st15" cx="520.4" cy="1032" rx="147.6" ry="10.4"/>
	<ellipse class="st15" cx="520.4" cy="1032" rx="144.3" ry="10.2"/>
	<ellipse class="st15" cx="520.4" cy="1032" rx="141" ry="9.9"/>
	<ellipse class="st16" cx="520.4" cy="1032" rx="137.7" ry="9.7"/>
	<ellipse class="st16" cx="520.4" cy="1032" rx="134.5" ry="9.5"/>
	<ellipse class="st16" cx="520.4" cy="1032" rx="131.2" ry="9.2"/>
	<ellipse class="st16" cx="520.4" cy="1032" rx="127.9" ry="9"/>
	<ellipse class="st17" cx="520.4" cy="1032" rx="124.6" ry="8.8"/>
	<ellipse class="st17" cx="520.4" cy="1032" rx="121.4" ry="8.5"/>
	<ellipse class="st17" cx="520.4" cy="1032" rx="118.1" ry="8.3"/>
	<ellipse class="st17" cx="520.4" cy="1032" rx="114.8" ry="8.1"/>
	<ellipse class="st18" cx="520.4" cy="1032" rx="111.5" ry="7.8"/>
	<ellipse class="st18" cx="520.4" cy="1032" rx="108.3" ry="7.6"/>
	<ellipse class="st18" cx="520.4" cy="1032" rx="105" ry="7.4"/>
	<ellipse class="st18" cx="520.4" cy="1032" rx="101.7" ry="7.2"/>
	<ellipse class="st19" cx="520.4" cy="1032" rx="98.4" ry="6.9"/>
	<ellipse class="st19" cx="520.4" cy="1032" rx="95.2" ry="6.7"/>
	<ellipse class="st19" cx="520.4" cy="1032" rx="91.9" ry="6.5"/>
	<ellipse class="st19" cx="520.4" cy="1032" rx="88.6" ry="6.2"/>
	<ellipse class="st20" cx="520.4" cy="1032" rx="85.3" ry="6"/>
	<ellipse class="st20" cx="520.4" cy="1032" rx="82.1" ry="5.8"/>
	<ellipse class="st20" cx="520.4" cy="1032" rx="78.8" ry="5.5"/>
	<ellipse class="st20" cx="520.4" cy="1032" rx="75.5" ry="5.3"/>
	<ellipse class="st21" cx="520.4" cy="1032" rx="72.2" ry="5.1"/>
	<ellipse class="st21" cx="520.4" cy="1032" rx="69" ry="4.9"/>
	<ellipse class="st21" cx="520.4" cy="1032" rx="65.7" ry="4.6"/>
	<ellipse class="st21" cx="520.4" cy="1032" rx="62.4" ry="4.4"/>
	<ellipse class="st22" cx="520.4" cy="1032" rx="59.1" ry="4.2"/>
	<ellipse class="st22" cx="520.4" cy="1032" rx="55.9" ry="3.9"/>
	<ellipse class="st22" cx="520.4" cy="1032" rx="52.6" ry="3.7"/>
	<ellipse class="st22" cx="520.4" cy="1032" rx="49.3" ry="3.5"/>
	<ellipse class="st23" cx="520.4" cy="1032" rx="46" ry="3.2"/>
	<ellipse class="st23" cx="520.4" cy="1032" rx="42.8" ry="3"/>
	<ellipse class="st23" cx="520.4" cy="1032" rx="39.5" ry="2.8"/>
	<ellipse class="st23" cx="520.4" cy="1032" rx="36.2" ry="2.5"/>
	<ellipse class="st24" cx="520.4" cy="1032" rx="32.9" ry="2.3"/>
	<ellipse class="st24" cx="520.4" cy="1032" rx="29.7" ry="2.1"/>
	<ellipse class="st24" cx="520.4" cy="1032" rx="26.4" ry="1.9"/>
	<ellipse class="st24" cx="520.4" cy="1032" rx="23.1" ry="1.6"/>
	<ellipse class="st25" cx="520.4" cy="1032" rx="19.8" ry="1.4"/>
	<ellipse class="st25" cx="520.4" cy="1032" rx="16.6" ry="1.2"/>
	<ellipse class="st25" cx="520.4" cy="1032" rx="13.3" ry="0.9"/>
</g>
<g>
	<linearGradient id="SVGID_1_" gradientUnits="userSpaceOnUse" x1="206.8747" y1="59.7804" x2="833.9927" y2="686.8984">
		<stop  offset="3.524230e-03" style="stop-color:#02B8FD"/>
		<stop  offset="1" style="stop-color:#0088FC"/>
	</linearGradient>
	<path class="st26" d="M883.8,115.8c-110.7,76.1-202.8-92-231.4-92c-29.3,0-34.2,0-132,0c-97.8,0-102.6,0-132,0
		c-28.6,0-120.7,168.1-231.4,92c-3.3-2.3-8.1-0.2-8.1,3.7v353.3c0,43,4.5,290.4,371.5,435.6c367-145.2,371.5-392.6,371.5-435.6
		V119.5C891.9,115.7,887.1,113.5,883.8,115.8z"/>
	<path class="st25" d="M700.7,392c-6.8-14.9-21.8-25.2-39.2-25.2h-8.9v-82.3c0-63-51.1-114.1-114.1-114.1h-2.3
		c-63,0-114.1,51.1-114.1,114.1v82.3h-8.9c-23.7,0-43,19.2-43,43v221.8c0,23.7,19.2,43,43,43h248.3c23.7,0,43-19.2,43-43V409.7
		C704.5,403.4,703.2,397.4,700.7,392z M455.5,284.4c0-44.5,36.2-80.7,80.7-80.7h2.3c44.5,0,80.7,36.2,80.7,80.7v82.3H455.5V284.4z
		 M554.9,518.4l9.4,76.7c0.5,3.9-2.5,7.3-6.5,7.3h-41.1c-3.9,0-6.9-3.4-6.5-7.3l9.4-76.7c-15-7-25.2-22.7-24-40.6
		c1.3-20.6,18-37.3,38.6-38.8c24.4-1.7,44.7,17.6,44.7,41.6C579,497.3,569.1,511.7,554.9,518.4z"/>
	<path class="st0" d="M683.8,375c-6.8-14.9-21.8-25.2-39.2-25.2h-8.9v-82.3c0-63-51.1-114.1-114.1-114.1h-2.3
		c-63,0-114.1,51.1-114.1,114.1v82.3h-8.9c-23.7,0-43,19.2-43,43v221.8c0,23.7,19.2,43,43,43h248.3c23.7,0,43-19.2,43-43V392.8
		C687.6,386.5,686.2,380.4,683.8,375z M438.6,267.5c0-44.5,36.2-80.7,80.7-80.7h2.3c44.5,0,80.7,36.2,80.7,80.7v82.3H438.6V267.5z
		 M538,501.4l9.4,76.7c0.5,3.9-2.5,7.3-6.5,7.3h-41.1c-3.9,0-6.9-3.4-6.5-7.3l9.4-76.7c-15-7-25.2-22.7-24-40.6
		c1.3-20.6,18-37.3,38.6-38.8c24.4-1.7,44.7,17.6,44.7,41.6C562.1,480.4,552.2,494.8,538,501.4z"/>
	<linearGradient id="SVGID_2_" gradientUnits="userSpaceOnUse" x1="667.1072" y1="548.5219" x2="932.843" y2="814.2576">
		<stop  offset="0" style="stop-color:#8DCF41"/>
		<stop  offset="1" style="stop-color:#47B445"/>
	</linearGradient>
	<circle class="st27" cx="800" cy="681.4" r="187.9"/>
	<path class="st25" d="M919.2,610.7c-4.4-3.6-9.7-5.5-15.3-5.5c-7.3,0-14.1,3.2-18.7,8.8l-94.5,113.8L744.4,693
		c-5.7-4.3-12.8-5.8-20.1-4.2c-3.4,0.8-6.7,2.3-9.4,4.6c-12.8,10.4-11.8,29.1,0.5,38.3l75.9,57.1c4.2,3.1,10.1,2.4,13.4-1.6
		l117.9-142.4C931,634.4,929.5,619.1,919.2,610.7z"/>
	<path class="st0" d="M902.3,593.7c-4.4-3.6-9.7-5.5-15.3-5.5c-7.3,0-14.1,3.2-18.7,8.8l-94.5,113.8L727.5,676
		c-5.7-4.3-12.8-5.8-20.1-4.2c-3.4,0.8-6.7,2.3-9.4,4.6c-12.8,10.4-11.8,29.1,0.5,38.3l75.9,57.1c4.2,3.1,10.1,2.4,13.4-1.6
		l117.9-142.4C914.1,617.4,912.6,602.2,902.3,593.7z"/>
</g>
</svg>
