<?xml version="1.0" encoding="utf-8"?>
<!-- Generator: Adobe Illustrator 23.0.2, SVG Export Plug-In . SVG Version: 6.00 Build 0)  -->
<svg version="1.1" id="Layer_1" xmlns="http://www.w3.org/2000/svg" xmlns:xlink="http://www.w3.org/1999/xlink" x="0px" y="0px"
	 viewBox="0 0 1080 1080" style="enable-background:new 0 0 1080 1080;" xml:space="preserve">
<style type="text/css">
	.st0{fill:#393E8B;}
	.st1{fill:#1E205F;}
	.st2{fill:#E4E4EA;}
	.st3{fill:#FFFFFF;}
	.st4{opacity:0.43;fill:#393E8B;}
	.st5{fill:#BBD6EA;}
	.st6{fill:#E4F0FD;}
	.st7{fill:#F2F9FF;}
	.st8{fill:#AACEEB;}
	.st9{fill:#6FB0D8;}
	.st10{opacity:0.31;fill:#AACEEB;}
	.st11{fill:#005E85;}
	.st12{fill:#00739B;}
	.st13{fill:#F4F4F4;}
	.st14{fill:#E8DBFC;}
	.st15{fill:#6F51AD;}
	.st16{font-family:'Oswald-Bold';}
	.st17{font-size:31.9452px;}
	.st18{fill:#BB9EE7;}
	.st19{fill:#B08FE5;}
	.st20{fill:#F6AE20;}
	.st21{opacity:0.26;fill:#D98700;}
	.st22{fill:#997CC9;}
	.st23{opacity:0.24;fill:#6FB0D8;}
	.st24{fill:#0787B4;}
	.st25{fill:#0079A2;}
	.st26{fill:#50A6CE;}
	.st27{fill:#E10762;}
	.st28{fill:#A9014C;}
	.st29{fill:#C00C5F;}
	.st30{fill:#BA9CE7;}
	.st31{opacity:0.13;fill:#8D70CC;}
	.st32{opacity:0.6;fill:#BFA8EC;}
	.st33{fill:#8D70CC;}
	.st34{fill:#EDE1FF;}
	.st35{opacity:0.47;}
</style>
<g>
	<g>
		<g>
			<g>
				<path class="st0" d="M1062.9,969.8c-5.7,1.2-992.9-9-1022.1-18.2c-0.5-0.2-0.7-0.3-0.6-0.5l113.1-76.7l28.4-19.3l738.6-2.3
					c0,0,12.6,8.7,31.3,21.6c29.2,20.1,73.2,50.6,108.2,74.6c0,0,0,0,0,0c2.3,1.6,4.5,3.1,6.7,4.6
					C1069.8,955.9,1068.6,968.6,1062.9,969.8z"/>
				<path class="st1" d="M1058,986.7H50.5c-10.5,0-18.9-8.5-18.9-18.9l0,0c0-10.5,8.5-18.9,18.9-18.9H1058
					c10.5,0,18.9,8.5,18.9,18.9l0,0C1076.9,978.2,1068.4,986.7,1058,986.7z"/>
				<g>
					<g>
						<path class="st2" d="M679.7,930.9H430.8c-3.7,0-6.6-3-6.6-6.6l0,0c0-3.7,3-6.6,6.6-6.6h248.8c3.7,0,6.6,3,6.6,6.6l0,0
							C686.3,928,683.3,930.9,679.7,930.9z"/>
						<path class="st3" d="M679.2,927.7H430.4c-3.7,0-6.6-3-6.6-6.6l0,0c0-3.7,3-6.6,6.6-6.6h248.8c3.7,0,6.6,3,6.6,6.6l0,0
							C685.9,924.7,682.9,927.7,679.2,927.7z"/>
					</g>
					<g>
						<path class="st2" d="M271.2,874.7c0,0-0.4,2.6-0.3,4.2c0,0.6,0.5,0.9,1.1,0.9c0.7,0,19.2,0.6,23.5,0.5c0.5,0,0.8,0,1.8-0.9
							c0.5-0.4,3.9-4.3,5.2-6.3c0.3-0.4,0.5-0.7,0.4-1.7c-0.2-3.9,0.1-5-0.4-4.8C301.5,866.9,276.7,870.1,271.2,874.7z"/>
						<path class="st3" d="M271.2,874.7c2.7-3.1,10.2-8.4,10.8-8.4c1.2,0,18.9-0.1,20.6,0.3c0.6,0.2-5.9,8.4-6.9,8.9
							C294.7,875.8,270.1,875.9,271.2,874.7z"/>
					</g>
					<g>
						<path class="st2" d="M391.6,875.1c-1.5,0.7-1.2,3-1.2,4.4c0,1.4,1.5,1.5,2,1.6c1.3,0.2,24.7,0.2,27,0.2c1.4,0,2-1.2,2.6-3
							c1.1-3.3,1.6-4.2,1.7-5.2c0.1-2.2,0.2-3.9-0.1-5.3c-0.4-1.6-4.8,2.4-4.8,2.4s-15.3,1.2-22.4,3.7
							C394.7,874.4,392.1,874.8,391.6,875.1z"/>
						<path class="st3" d="M394.9,866.8c-1.1,0.8-5.3,9.5-4.2,9.9c1.1,0.3,27.9,0.9,29-0.2c1.1-1,4.9-9.4,3.2-9.9
							C421.3,866.1,395.8,866.1,394.9,866.8z"/>
					</g>
					<g>
						<path class="st2" d="M433.7,875.8c0,0,0,0.8,0,2.8c-0.1,1.6,2.4,1.6,3.6,1.6c1.7,0.1,18.4,0.2,19.9-0.7
							c1.5-0.9,3.4-4.9,3.4-6.5c0.1-1.4,0.3-6.9-1-6.5C457.2,867.4,434.4,873.2,433.7,875.8z"/>
						<path class="st3" d="M433.7,875.8c-0.2-1.2,4.2-9,5.1-9.2c0.9-0.2,20.9-0.9,21.2,0c0.4,0.9-2.7,8.8-3.8,9.2
							C455.1,876.2,433.9,877.1,433.7,875.8z"/>
					</g>
					<g>
						<path class="st2" d="M473.7,874c0,0-0.2,2-0.1,4.2c0,1.6,1,1.7,2.5,1.8c2.9,0.1,21.7,0.9,22.6-0.1c0.9-1,1.6-4.4,2-6.3
							c0.2-0.9,0.4-7.7-0.9-7S474.8,870.7,473.7,874z"/>
						<path class="st3" d="M477.3,866.9c-0.5,0.7-4.9,7.6-3.2,8.1c1.7,0.5,24.1,0.9,24.5-0.2c0.4-1,2.5-8.5,1.5-8.5
							C499.1,866.4,478,865.8,477.3,866.9z"/>
					</g>
					<g>
						<path class="st2" d="M518.2,868.4c0,0-5.8,7.6-6,6.5c-0.6-2.6-1.4,5.3,0.1,5.5c1.5,0.2,29.6,0.3,30.4-0.5c0.8-0.9,0.2-4,0.2-4
							S521.8,867.3,518.2,868.4z"/>
						<path class="st3" d="M513.7,866.5c-0.8,0.8-3.2,9.4-1.7,9.5c1.5,0.2,31.1,1,30.9-0.2c-0.2-1.2-0.9-9.4-2.5-9.4
							C538.9,866.5,514.2,865.9,513.7,866.5z"/>
					</g>
					<g>
						<path class="st2" d="M557.7,868.7c0,0-2.8-0.6-4.5-2.1c-0.3-0.3-1.2,4.5-1,6.2c0.2,1.7,0.8,7.1,2.9,7.7
							c1.8,0.5,19.5,0.4,25.4,0.3c1,0,1.8-0.1,1.9-1c0.2-1,0.1-3.8-1-4.7C577,871.5,557.7,868.7,557.7,868.7z"/>
						<path class="st3" d="M553,866.6c0,0.9,1.1,10.4,2.7,10.6c1.5,0.2,26.9,0.5,26.6-0.9c-0.4-1.4-1.9-9.4-3.4-9.7
							C577.3,866.3,553,865.9,553,866.6z"/>
					</g>
					<g>
						<path class="st2" d="M601.6,870.6c0,0-6.9-2.6-8.8-3.6c-0.8-0.5-1.1,2.2-1.4,3.7c-0.2,0.9,0.2,1.7,0.7,4
							c0.3,1.4,1.6,4.7,1.9,5.4c0.4,0.8,0.7,1.9,3.4,1.8c7.2-0.2,25.6,0.2,25.9-1.1c0.4-1.6,0.2-3.7-1.6-3.6
							C616.5,877.5,601.6,870.6,601.6,870.6z"/>
						<path class="st3" d="M592.5,866.9c0.3,1.2,2.3,11.3,3.6,11.3s26.9,0.2,26.8-0.7c-0.2-0.9-4.4-11.3-5.9-11.3
							C615.5,866.2,592.3,866.2,592.5,866.9z"/>
					</g>
					<g>
						<path class="st2" d="M639.9,870.3c-0.6,0-7.2-5.2-8.2-3.6c-0.9,1.6-1.5,5.5-0.9,6.6c0.6,1,1.7,7.8,4,8
							c2.3,0.2,28.8,0.9,29.4-0.3c0.6-1.2-0.2-4.2-0.2-4.2S640.7,870.3,639.9,870.3z"/>
						<path class="st3" d="M631.8,866.6c0.9,1.9,3.4,10.6,4.9,10.7c1.5,0.2,27.7,0.7,27.3-0.7c-0.4-1.4-3.8-10.1-5.3-10.2
							C657.2,866.3,631.4,866,631.8,866.6z"/>
					</g>
					<g>
						<path class="st2" d="M678.9,869.5c0,0-3.6-2.8-4.6-2.4c-0.9,0.3-2.3,5-1.5,6.2c0.8,1.2,2.1,7.6,4.6,8c2.5,0.3,24.7,0.3,25-0.3
							c0.4-0.7-0.4-4-0.4-4L678.9,869.5z"/>
						<path class="st3" d="M674.3,867.1c0,1,2.7,10.7,3.8,10.7s23.7,0.3,23.9-0.9c0.2-1.2-4.4-10.7-6.5-10.7
							S674.3,866.4,674.3,867.1z"/>
					</g>
					<g>
						<path class="st2" d="M717.9,868.7c0,0-2-0.9-3.9-2.1c-1.6-1-1.1,5.7-0.7,6.9c0.4,1.2,2.6,7.8,5.3,7.9c3.6,0.1,22.2,0,23-0.2
							c1.2-0.2,0.7-3.9-0.4-3.9C731.7,877.9,717.9,868.7,717.9,868.7z"/>
						<path class="st3" d="M713.4,866.6c0,1.2,4.2,11.3,5.7,11.3c1.5,0,22.8,0.7,22.6-0.2c-0.2-0.9-4-11.4-5.3-11.4
							S713.4,866.2,713.4,866.6z"/>
					</g>
					<g>
						<path class="st2" d="M756.1,868c0,0-2.8-1.2-2.8-0.9c-0.3,2.9-0.6,6.9,0,8c0.6,1,3.2,6.6,6.2,6.9c3.3,0.3,21.3-0.2,22.3-0.2
							c1.1,0,0.9-4.1,0-4C778.8,877.9,756.1,868,756.1,868z"/>
						<path class="st3" d="M753.2,867.1c0.2,1.2,5.1,11.6,6.5,11.6s23,0.5,22.6-0.5c-0.4-1-5.1-11.6-7-11.8
							C773.3,866.2,753,865.9,753.2,867.1z"/>
					</g>
					<g>
						<path class="st2" d="M380.1,898c-1.5,0.7-1.2,3-1.2,4.4c0,1.4,1.5,1.5,2,1.6c1.3,0.2,24.7,0.2,27,0.2c1.4,0,2-1.2,2.6-3
							c1.1-3.3,1.6-4.2,1.7-5.2c0.1-2.2,0.2-3.9-0.1-5.3c-0.4-1.6-4.8,2.4-4.8,2.4s-15.3,1.2-22.4,3.7
							C383.3,897.4,380.6,897.8,380.1,898z"/>
						<path class="st3" d="M383.4,889.8c-1.1,0.8-5.3,9.5-4.2,9.9c1.1,0.3,27.9,0.9,29-0.2c1.1-1,4.9-9.4,3.2-9.9
							C409.8,889.1,384.4,889.1,383.4,889.8z"/>
					</g>
					<g>
						<path class="st2" d="M425,898.8c0,0,0,0.8,0,2.8c-0.1,1.6,2.4,1.6,3.6,1.6c1.7,0.1,18.4,0.2,19.9-0.7c1.5-0.9,3.4-4.9,3.4-6.5
							c0.1-1.4,0.3-6.9-1-6.5C448.5,890.4,425.8,896.2,425,898.8z"/>
						<path class="st3" d="M425,898.8c-0.2-1.2,4.2-9,5.1-9.2c0.9-0.2,20.9-0.9,21.2,0c0.4,0.9-2.7,8.8-3.8,9.2
							C446.5,899.2,425.2,900,425,898.8z"/>
					</g>
					<g>
						<path class="st2" d="M467.9,897c0,0-0.2,2-0.1,4.2c0,1.6,1,1.7,2.5,1.8c2.9,0.1,21.7,0.9,22.6-0.1s1.6-4.4,2-6.3
							c0.2-0.9,0.4-7.7-0.9-7C492.7,890.3,469,893.7,467.9,897z"/>
						<path class="st3" d="M471.5,889.9c-0.5,0.7-4.9,7.6-3.2,8.1c1.7,0.5,24.1,0.9,24.5-0.2c0.4-1,2.5-8.5,1.5-8.5
							S472.2,888.8,471.5,889.9z"/>
					</g>
					<g>
						<path class="st2" d="M515.3,891.3c0,0-5.8,7.6-6,6.5c-0.6-2.6-1.4,5.3,0.1,5.5c1.5,0.2,29.6,0.3,30.4-0.5c0.8-0.9,0.2-4,0.2-4
							S518.9,890.3,515.3,891.3z"/>
						<path class="st3" d="M510.7,889.4c-0.8,0.8-3.2,9.4-1.7,9.5c1.5,0.2,31.1,1,30.9-0.2c-0.2-1.2-0.9-9.4-2.5-9.4
							C536,889.4,511.3,888.9,510.7,889.4z"/>
					</g>
					<g>
						<path class="st2" d="M557.6,891.7c0,0-2.8-0.6-4.5-2.1c-0.3-0.3-1.2,4.5-1,6.2c0.2,1.7,0.8,7.1,2.9,7.7
							c1.8,0.5,19.5,0.4,25.4,0.3c1,0,1.8-0.1,1.9-1c0.2-1,0.1-3.8-1-4.7C576.9,894.5,557.6,891.7,557.6,891.7z"/>
						<path class="st3" d="M552.9,889.6c0,0.9,1.1,10.4,2.7,10.6c1.5,0.2,26.9,0.5,26.6-0.9c-0.4-1.4-1.9-9.4-3.4-9.7
							C577.2,889.3,552.9,888.9,552.9,889.6z"/>
					</g>
					<g>
						<path class="st2" d="M604.3,893.5c0,0-6.9-2.6-8.8-3.6c-0.8-0.5-1.1,2.2-1.4,3.7c-0.2,0.9,0.2,1.7,0.7,4
							c0.3,1.4,1.6,4.7,1.9,5.4c0.4,0.8,0.7,1.9,3.4,1.8c7.2-0.2,25.6,0.2,25.9-1.1c0.4-1.6,0.2-3.7-1.6-3.6
							C619.2,900.5,604.3,893.5,604.3,893.5z"/>
						<path class="st3" d="M595.2,889.9c0.3,1.2,2.3,11.3,3.6,11.3c1.3,0,26.9,0.2,26.8-0.7c-0.2-0.9-4.4-11.3-5.9-11.3
							S595,889.2,595.2,889.9z"/>
					</g>
					<g>
						<path class="st2" d="M645.5,893.3c-0.6,0-7.2-5.2-8.2-3.6c-0.9,1.6-1.5,5.5-0.9,6.6c0.6,1,1.7,7.8,4,8
							c2.3,0.2,28.8,0.9,29.4-0.3c0.6-1.2-0.2-4.2-0.2-4.2S646.2,893.3,645.5,893.3z"/>
						<path class="st3" d="M637.3,889.6c0.9,1.9,3.4,10.6,4.9,10.7c1.5,0.2,27.7,0.7,27.3-0.7c-0.4-1.4-3.8-10.1-5.3-10.2
							C662.7,889.3,637,888.9,637.3,889.6z"/>
					</g>
					<g>
						<path class="st2" d="M687.3,892.5c0,0-3.6-2.8-4.6-2.4c-0.9,0.3-2.3,5-1.5,6.2c0.8,1.2,2.1,7.6,4.6,8c2.5,0.3,24.7,0.3,25-0.3
							c0.4-0.7-0.4-4-0.4-4L687.3,892.5z"/>
						<path class="st3" d="M682.7,890.1c0,1,2.7,10.7,3.8,10.7c1.1,0,23.7,0.3,23.9-0.9c0.2-1.2-4.4-10.7-6.5-10.7
							C701.9,889.2,682.7,889.4,682.7,890.1z"/>
					</g>
					<g>
						<path class="st2" d="M729.1,891.6c0,0-2-0.9-3.9-2.1c-1.6-1-1.1,5.7-0.7,6.9c0.4,1.2,2.6,7.8,5.3,7.9c3.6,0.1,22.2,0,23-0.2
							c1.2-0.2,0.7-3.9-0.4-3.9C742.9,900.9,729.1,891.6,729.1,891.6z"/>
						<path class="st3" d="M724.6,889.6c0,1.2,4.2,11.3,5.7,11.3c1.5,0,22.8,0.7,22.6-0.2c-0.2-0.9-4-11.4-5.3-11.4
							S724.6,889.2,724.6,889.6z"/>
					</g>
					<g>
						<path class="st2" d="M770.1,891c0,0-2.8-1.2-2.8-0.9c-0.3,2.9-0.6,6.9,0,8s3.2,6.6,6.2,6.9c3.3,0.3,21.3-0.2,22.3-0.2
							c1.1,0,0.9-4.1,0-4C792.8,900.9,770.1,891,770.1,891z"/>
						<path class="st3" d="M767.3,890.1c0.2,1.2,5.1,11.6,6.5,11.6s23,0.5,22.6-0.5c-0.4-1-5.1-11.6-7-11.8
							C787.4,889.2,767.1,888.9,767.3,890.1z"/>
					</g>
					<g>
						<path class="st2" d="M797.9,868.5c0,0-3.9-1.9-4-1.7c-0.3,0.4-0.8,5.5-0.2,6.9c0.6,1.4,3.7,7.2,6.1,7.3
							c4.1,0.2,10.5,0.1,21.8-0.4c0.8,0,0.6-3.3-0.1-3.2C810.5,878.4,797.9,868.5,797.9,868.5z"/>
						<path class="st3" d="M793.8,866.9c-0.3,1.4,4,10.4,6.6,10.7c2.7,0.3,21.8,0.9,21.2-0.2s-5.9-10.9-7.6-11.1
							C812.4,866.2,794,866,793.8,866.9z"/>
					</g>
					<g>
						<path class="st2" d="M807.6,889.7c0,0-0.6,0.2-0.7,5.8c0,1.1,5.2,12.6,7.5,12.8c2.3,0.2,24.9,0.6,26.9,0.2
							c1.6-0.3,1.1-4.7-0.2-4.7C830.4,903.8,809,888.1,807.6,889.7z"/>
						<path class="st3" d="M807.6,889.7c0.2,1.1,6.6,14.6,8.3,14.6c1.7,0,25.4,0.7,25.6-0.2c0.2-0.9-6.8-14.4-8.7-14.2
							C831,890,807.5,888.5,807.6,889.7z"/>
					</g>
					<g>
						<path class="st2" d="M249,898.7c0,0-0.1,3.2-0.1,4.9c0,1.1,0.9,0.9,1.1,0.9c1.1,0,26.2,0.8,27,0.5c0.8-0.4,7.6-7.9,7.8-9.3
							s0.4-6.4-0.8-6.2C282.8,889.8,255.2,893.5,249,898.7z"/>
						<path class="st3" d="M249,898.7c3-3.5,11.4-9.4,12.1-9.4c1.4,0,21.1-0.1,23,0.3c0.7,0.2-6.6,9.4-7.7,9.9
							C275.3,899.9,247.8,900.1,249,898.7z"/>
					</g>
					<g>
						<path class="st2" d="M310.9,874.7c0,0,0,1.8,0,3.4c0,1.2,0.2,1.7,1.7,1.8c1.3,0.1,22.7,0.8,23.4,0.5c0.7-0.3,6.8-7.1,7-8.3
							c0.1-1.2,0.4-5.8-0.7-5.5C341.2,866.8,316.5,870.1,310.9,874.7z"/>
						<path class="st3" d="M310.9,874.7c2.7-3.1,10.2-8.4,10.8-8.4c1.2,0,18.9-0.1,20.6,0.3c0.6,0.2-5.9,8.4-6.9,8.9
							C334.5,875.8,309.8,875.9,310.9,874.7z"/>
					</g>
					<g>
						<path class="st2" d="M292,898.7c-0.5,0.1-0.4,2.5-0.4,4c0,0.6,0.2,1.8,2.5,1.8c0.9,0,25.2,0.8,26,0.5s7.6-7.9,7.8-9.3
							c0.1-1.3,0.4-6.4-0.8-6.2C325.9,889.8,300.4,897.3,292,898.7z"/>
						<path class="st3" d="M292,898.7c3-3.5,11.4-9.4,12.1-9.4c1.4,0,21.1-0.1,23,0.3c0.7,0.2-6.6,9.4-7.7,9.9
							C318.4,899.9,290.8,900.1,292,898.7z"/>
					</g>
					<g>
						<path class="st2" d="M351.1,874.7c0,0-0.3,2.4-0.3,3.9c0,0.7,0.8,1.3,1.7,1.3c0.8,0,23,0.8,23.7,0.4c0.7-0.3,6.8-7.1,7-8.3
							c0.1-1.2,0.4-5.8-0.7-5.5C381.4,866.8,356.7,870.1,351.1,874.7z"/>
						<path class="st3" d="M351.1,874.7c2.7-3.1,10.2-8.4,10.8-8.4c1.2,0,18.9-0.1,20.6,0.3c0.6,0.2-5.9,8.4-6.9,8.9
							C374.7,875.8,350,875.9,351.1,874.7z"/>
					</g>
					<g>
						<path class="st2" d="M334.8,898.7c0,0-0.2,3.7-0.2,4.4c0,1.6,1.8,1.5,2.5,1.5c5.4,0.2,25,0.7,25.7,0.4
							c0.8-0.4,7.6-7.9,7.8-9.3c0.1-1.3,0.4-6.4-0.8-6.2C368.7,889.8,341,893.5,334.8,898.7z"/>
						<path class="st3" d="M334.8,898.7c3-3.5,11.4-9.4,12.1-9.4c1.4,0,21.1-0.1,23,0.3c0.7,0.2-6.6,9.4-7.7,9.9
							C361.2,899.9,333.6,900.1,334.8,898.7z"/>
					</g>
				</g>
			</g>
			<path class="st4" d="M951.5,874.4H153.2l28.4-19.3l738.6-2.3C920.2,852.7,932.8,861.4,951.5,874.4z"/>
		</g>
		<g>
			<path class="st1" d="M931.6,859.8H176.8c-3.9,0-7.1-3.2-7.1-7.1V327.3c0-3.9,3.2-7.1,7.1-7.1h754.8c3.9,0,7.1,3.2,7.1,7.1v525.4
				C938.7,856.6,935.5,859.8,931.6,859.8z"/>
			<g>
				<path class="st5" d="M894.5,830.3H214c-3.9,0-7.1-3.2-7.1-7.1V362.5c0-3.9,3.2-7.1,7.1-7.1h680.5c3.9,0,7.1,3.2,7.1,7.1v460.7
					C901.5,827.1,898.4,830.3,894.5,830.3z"/>
				<path class="st6" d="M891.5,380.6v424.3c0,9.1-7.4,16.4-16.4,16.4H232.2c-9.1,0-16.4-7.4-16.4-16.4V380.6
					c0-9.1,7.4-16.4,16.4-16.4H875C884.1,364.1,891.5,371.5,891.5,380.6z"/>
				<g>
					<path class="st7" d="M891.5,572.5v232.4c0,9.1-7.4,16.4-16.4,16.4h-39.7l-547-457.1h353.9L891.5,572.5z"/>
					<polygon class="st7" points="686.5,821.3 466.1,821.3 215.8,612.1 215.8,427.8 					"/>
				</g>
			</g>
		</g>
		<g>
			<g>
				<g>
					<g>
						<path class="st8" d="M686.9,505.2v265.2c0,4.3-3.5,7.8-7.8,7.8H276.5c-4.3,0-7.8-3.5-7.8-7.8V505.2c0-4.3,3.5-7.8,7.8-7.8
							h402.6C683.4,497.4,686.9,500.9,686.9,505.2z"/>
						<g>
							<path class="st9" d="M686.9,505.2v25.1H268.7v-25.1c0-4.3,3.5-7.8,7.8-7.8h402.6C683.4,497.4,686.9,500.9,686.9,505.2z"/>
							<g>
								<circle class="st3" cx="297.1" cy="514.3" r="9.5"/>
								<circle class="st3" cx="335.9" cy="514.3" r="9.5"/>
								<path class="st3" d="M388.8,514.3c0,5.3-4.3,9.5-9.5,9.5c-5.3,0-9.5-4.3-9.5-9.5s4.3-9.5,9.5-9.5
									C384.5,504.8,388.8,509,388.8,514.3z"/>
							</g>
						</g>
					</g>
					<path class="st10" d="M686.9,510v216.7c0,2.8-2.3,5.1-5.1,5.1H502.7c-9.9,0-17.9-8-17.9-17.9V497.4h189.6
						C681.2,497.4,686.9,503.1,686.9,510z"/>
				</g>
				<g>
					<g>
						<path class="st11" d="M363.2,696.8c-30.7,0-55.6-24.9-55.6-55.6c0-30.7,24.9-55.6,55.6-55.6c30.7,0,55.6,24.9,55.6,55.6
							C418.8,671.8,393.8,696.8,363.2,696.8z M363.2,592.6c-26.8,0-48.6,21.8-48.6,48.6c0,26.8,21.8,48.6,48.6,48.6
							c26.8,0,48.6-21.8,48.6-48.6C411.8,614.4,390,592.6,363.2,592.6z"/>
					</g>
					<g>
						<path class="st11" d="M347.4,673.1c-1,0-2-0.2-3-0.8c-2.1-1.1-3.3-3.1-3.4-5.4l-2-49.9c-0.1-2.3,1-4.4,3-5.7
							c2-1.2,4.4-1.3,6.4-0.2l44.2,23.2c2.1,1.1,3.3,3.1,3.4,5.4c0.1,2.3-1,4.4-3,5.7l-42.2,26.7
							C349.7,672.7,348.5,673.1,347.4,673.1z M346,617.7l1.9,48l40.6-25.7L346,617.7z M389.3,639.5L389.3,639.5L389.3,639.5z"/>
					</g>
				</g>
			</g>
			<g>
				<g>
					<path class="st12" d="M896.2,264.6c-1.1,3.9-24.7,1-51.2-9.1c-26.5-10.1-46.4-22.6-44.4-27.9c2-5.3,25.2-1.5,51.7,8.6
						C878.9,246.3,897.7,259.1,896.2,264.6z"/>
					<g>
						<g>
							<path class="st13" d="M874.5,210.3v491.5c0,6.2-5,11.1-11.1,11.1h-350c-6.2,0-11.1-5-11.1-11.1V210.3c0-6.2,5-11.1,11.1-11.1
								h350C869.5,199.2,874.5,204.1,874.5,210.3z"/>
							<g>
								<path class="st14" d="M839.7,670.4H537c-2.2,0-4-1.8-4-4V245.6c0-2.2,1.8-4,4-4h302.7c2.2,0,4,1.8,4,4v420.8
									C843.7,668.7,841.9,670.4,839.7,670.4z"/>
								<g>
									<path class="st1" d="M801.1,362.9H587.2c-3.1,0-5.6-2.5-5.6-5.6l0,0c0-3.1,2.5-5.6,5.6-5.6h213.9c3.1,0,5.6,2.5,5.6,5.6
										l0,0C806.7,360.4,804.2,362.9,801.1,362.9z"/>
									<path class="st1" d="M801.1,407.1H587.2c-3.1,0-5.6-2.5-5.6-5.6l0,0c0-3.1,2.5-5.6,5.6-5.6h213.9c3.1,0,5.6,2.5,5.6,5.6
										l0,0C806.7,404.6,804.2,407.1,801.1,407.1z"/>
									<path class="st1" d="M801.1,451.3H587.2c-3.1,0-5.6-2.5-5.6-5.6l0,0c0-3.1,2.5-5.6,5.6-5.6h213.9c3.1,0,5.6,2.5,5.6,5.6
										l0,0C806.7,448.8,804.2,451.3,801.1,451.3z"/>
									<path class="st1" d="M804.3,495.5H584c-1.3,0-2.4-1.1-2.4-2.4v-6.4c0-1.3,1.1-2.4,2.4-2.4h220.3c1.3,0,2.4,1.1,2.4,2.4v6.4
										C806.7,494.5,805.6,495.5,804.3,495.5z"/>
									<path class="st1" d="M801.1,539.8H587.2c-3.1,0-5.6-2.5-5.6-5.6l0,0c0-3.1,2.5-5.6,5.6-5.6h213.9c3.1,0,5.6,2.5,5.6,5.6
										l0,0C806.7,537.3,804.2,539.8,801.1,539.8z"/>
								</g>
								<text transform="matrix(1 0 0 1 604.8743 316.5731)" class="st15 st16 st17">CERTIFICATE</text>
							</g>
							<g>
								<g>
									<path class="st18" d="M684.3,666.7c0,0-2.1,8.6-5,20.4c-5.7,23.4-14.6,59.4-16.2,64.4c-1.5,4.8-3.5,4.7-5.4,2.4
										c-2-2.4-12.1-21.3-13.9-22c-1.8-0.7-19.7,2.8-26.4,4.7c-6.1,1.8-5.6-1.3-4.3-3.4c0.9-1.4,20.1-35.6,32.7-58.1
										c6.3-11.2,11-19.6,11-19.6L684.3,666.7z"/>
									<path class="st19" d="M656.8,655.5l27.5,11.2c0,0-2.1,8.6-5,20.4c-5.2-4.1-10.1-14.3-20-11.3c-6.2,1.9-10.6,0.9-13.6-0.7
										C652.1,663.9,656.8,655.5,656.8,655.5z"/>
								</g>
								<g>
									<path class="st18" d="M759.4,736.7c-6.7-1.9-24.7-5.4-26.4-4.7c-1.8,0.6-11.9,19.6-13.9,22c-2,2.4-3.9,2.4-5.4-2.4
										c-1.8-5.6-12.6-49.5-18.1-71.8c-1.9-7.8-3.1-13-3.1-13l27.5-11.2c0,0,2.8,5,7,12.5c12.1,21.6,35.7,63.7,36.7,65.2
										C765,735.4,765.5,738.5,759.4,736.7z"/>
									<path class="st19" d="M727,668c-4.5,13.5-15.4,8.7-21.9,7.1c-3.2-0.8-6.3,1.6-9.5,4.6c-1.9-7.8-3.1-13-3.1-13l27.5-11.2
										C720,655.5,722.8,660.5,727,668z"/>
								</g>
								<g>
									<g>
										<path class="st20" d="M644.1,592.2c2.8-3.9,2.4-14.2,6.9-17c4.5-2.8,11.7,0.4,16.2-0.9c4.5-1.3,10.8-9.9,15.6-9.9
											c4.8,0,11.3,7.8,14.5,9c3.2,1.3,15.6-1.3,19.7,1.7c4.1,3,2.8,12.7,5.8,15.5c3,2.8,13.4,6.7,15.2,10.6s-5,14.2-4.3,17.7
											c0.6,3.4,6.1,15.3,5,18.9c-1.1,3.7-13.2,7.8-15.2,12.1c-1.9,4.3-2.6,15.5-6.1,17.4c-3.5,1.9-12.8-1.9-17.1,0
											c-4.3,1.9-11,9.5-15.6,9.9c-4.5,0.4-10.6-8.8-15.4-9.9c-4.8-1.1-14.5,1.9-18.6-0.4c-4.1-2.4-2.8-12.7-5.6-16.8
											c-2.8-4.1-13.2-6.9-14.9-12.9c-1.7-6,5.2-12.5,4.8-17.2c-0.4-4.7-5.6-12.7-4.1-18.1S641.1,596.3,644.1,592.2z"/>
										<ellipse class="st21" cx="683.3" cy="621.1" rx="43.8" ry="43.6"/>
									</g>
									<ellipse class="st3" cx="683.3" cy="621.1" rx="39.9" ry="39.7"/>
									<g>
										<path class="st22" d="M683.2,586.6c-19.1,0-34.7,15.5-34.7,34.5s15.6,34.5,34.7,34.5c19.2,0,34.7-15.5,34.7-34.5
											S702.4,586.6,683.2,586.6z M683.2,649c-15.5,0-28.1-12.5-28.1-27.9c0-15.4,12.6-27.9,28.1-27.9s28.1,12.5,28.1,27.9
											C711.3,636.5,698.7,649,683.2,649z"/>
									</g>
								</g>
							</g>
						</g>
						<path class="st23" d="M874.5,210.3v64.3c-5.6-3.6-15.6-9.8-30.8-17.5c-9.1-4.6-20.1-9.8-33.1-15.3
							c-28.7-12.1-64.6-29.1-114.2-42.5h167C869.5,199.2,874.5,204.1,874.5,210.3z"/>
					</g>
				</g>
				<g>
					<g>
						<g>
							<path class="st24" d="M983.6,234.5c-11,0.9-92.5,2.9-92.5,2.9l-172.5-56.5c0,0-72.6-56.9-76.7-59.7c-1.7-1.2-3.1-3.7,4.6-3.7
								c1.9,0,9.1-0.1,19.7-0.3c47-0.8,160.1-3,167.3-2.7c6.3,0.2,7.1,2,10.6,4.8c16.4,13,113.6,88.5,136,106.5
								c2.4,1.9,3.9,3.2,4.4,3.7C988,232.5,987.4,234.2,983.6,234.5z"/>
							<path class="st25" d="M983.6,234.5c-11,0.9-92.5,2.9-92.5,2.9l-172.5-56.5c0,0-72.6-56.9-76.7-59.7c-1.7-1.2-3.1-3.7,4.6-3.7
								c1.9,0,9.1-0.1,19.7-0.3c27.6,17.3,93.6,54.1,190,79c61.6,15.9,100.2,24.7,123.8,29.6c2.4,1.9,3.9,3.2,4.4,3.7
								C988,232.5,987.4,234.2,983.6,234.5z"/>
						</g>
						<g>
							<path class="st9" d="M896.1,265c-1.1,0.8-14.9-15.3-97.6-43.6c-5.6-1.9-11-3.7-16.1-5.3c-52.6-16.7-74.9-16.8-81.6-16.7
								c-2.2,0,9.9-27.1,18-38.8c8.1-11.7,14.3-15.1,58.3-10.9c44,4.2,109.6,38,119,51.9c2.4,3.5,3.8,9,4.5,15.4
								C902.8,236.2,898.9,262.9,896.1,265z"/>
							<path class="st26" d="M900.6,217c-24.5-22.2-79.7-48.4-92.6-48.6c-14.7-0.2-21.2,30-25.6,47.6
								c-52.6-16.7-74.9-16.8-81.6-16.7c-2.2,0,9.9-27.1,18-38.8c8.1-11.7,14.3-15.1,58.3-10.9c44,4.2,109.6,38,119,51.9
								C898.4,205.1,899.8,210.6,900.6,217z"/>
						</g>
					</g>
					<g>
						<g>
							<path class="st27" d="M1002.5,409.7c-3.1-1.8-11.6-68.7-13.8-66.3c-2.2,2.4,7.8,59.3,7.9,63c0.1,3.8-4.3,1.1-7.1,0.8
								c-2.8-0.3-7.8-41.1-9.6-81c-1.2-26.4,0-45.3,1.8-56c0.9-5.5,2-8.8,3-9.8c2.6-2.8,5.5-1.5,7.8,9.1c0.9,4.2,1.8,9.8,2.5,17.3
								c3.3,33.8,14,117.7,15.1,122.2C1011.2,413.6,1005.6,411.5,1002.5,409.7z"/>
							<path class="st28" d="M992.6,269.5c-3.5,2.2-7.7,1.7-10.9,0.8c0.9-5.5,2-8.8,3-9.8C987.4,257.7,990.2,258.9,992.6,269.5z"/>
						</g>
						<g>
							<path class="st27" d="M990,250.2c-0.1,1-0.1,1.9-0.2,2.7c-0.5,4.3-6.9,5.8-7.5,0.3c-0.1-0.5-0.1-1.5-0.1-2.9
								c0.1-5.2,0.7-15.4,1.6-18.7c0.9-3.1,4.1-2.6,4.8,0C989.3,234.2,990.3,243,990,250.2z"/>
							<path class="st28" d="M990,250.2c-0.1,1-0.1,1.9-0.2,2.7c-0.5,4.3-6.9,5.8-7.5,0.3c-0.1-0.5-0.1-1.5-0.1-2.9
								C984.1,249.7,986.7,249.4,990,250.2z"/>
						</g>
						<g>
							<path class="st27" d="M994.2,261.5c-0.2,0.7-0.4,1.4-0.7,2v0c-1.6,3.2-5.2,5-8.9,4.2c-4.4-0.9-7.2-5.2-6.3-9.6
								c0.2-1,0.6-1.9,1.1-2.7c1.7-2.8,5.1-4.3,8.5-3.6C992.3,252.8,995.1,257.1,994.2,261.5z"/>
							<path class="st29" d="M993.5,263.5c-1.6,3.2-5.2,5-8.9,4.2c-4.4-0.9-7.2-5.2-6.3-9.6c0.2-1,0.6-1.9,1.1-2.7
								C980.4,259.4,983.6,265.2,993.5,263.5z"/>
						</g>
					</g>
				</g>
			</g>
		</g>
	</g>
	<g>
		<g>
			<g>
				<g>
					<g>
						<g>
							<path class="st30" d="M319.1,359.2v126.4c0,1.5-1.2,2.7-2.7,2.7H159.8c-1.5,0-2.7-1.2-2.7-2.7V359.2c0-1.5,1.2-2.7,2.7-2.7
								h156.6C317.9,356.4,319.1,357.6,319.1,359.2z"/>
						</g>
						<path class="st31" d="M319.1,462v23.6c0,1.5-1.2,2.7-2.7,2.7H159.8c-1.5,0-2.7-1.2-2.7-2.7V359.2c0-1.5,1.2-2.7,2.7-2.7h7.8
							C170.3,385.9,190.4,467.4,319.1,462z"/>
					</g>
					<path class="st32" d="M319.1,359.2v80.6c-2.4,0.2-4.8,0.3-7.2,0.3c-40.5,0-73.8-31.4-76.6-71.2c-0.1-1.8-0.2-3.7-0.2-5.5
						c0-2.3,0.1-4.7,0.3-6.9h80.9C317.9,356.4,319.1,357.6,319.1,359.2z"/>
				</g>
				<path class="st33" d="M264.2,356.4v9.7c0,1.5-1.2,2.7-2.7,2.7h-49.4c-1.5,0-2.7-1.2-2.7-2.7v-9.7H264.2z"/>
			</g>
			<path class="st34" d="M261.3,365.7h-52.5c-0.6,0-1.2-0.5-1.2-1.2V341c0-0.6,0.5-1.2,1.2-1.2h52.5c0.6,0,1.2,0.5,1.2,1.2v23.5
				C262.4,365.2,261.9,365.7,261.3,365.7z"/>
		</g>
		<g class="st35">
			<g>
				<path class="st34" d="M176.7,418.5c6.9,2.3,14.1,0.2,19.1-3.6c4.9-3.8,9.6-8.8,11-14c1.3-4.8-2.9-9.4-10.1-9.1
					c-7,0.3-11.3,5.1-11.6,9.8c-0.8,10.2,12,18.2,25,19.3c13.3,1.1,29.1-3.8,34.3-13.2c2.3-4.1,2.1-9-0.9-12.9
					c-2.9-3.8-9.5-7-14.2-2.6c-3.8,3.5-3.7,9.1-2.2,13.2c1.7,4.6,5.5,8.6,10.8,11.4c11.2,5.9,28.1,6,39.1-0.2
					c5-2.8,8.5-6.8,10.1-11.2c1.4-4.1,1.7-9.6-1.7-13.3c-4.4-4.8-14.2-2.1-18.2,1.5c-4.8,4.5-4.7,10.9-1.9,16c3,5.2,8.9,9.2,16.3,11
					c6.9,1.6,15.9,1.4,21.3-2.5c2.5-1.8-1.4-4.7-3.9-2.9c-3.5,2.6-9.5,2.7-14.1,1.9c-4.7-0.8-9-2.8-11.9-5.7
					c-2.9-2.9-4.4-6.6-3.9-10.2c0.5-3.4,3.4-7.1,8.5-7.4c5.1-0.3,5.1,5.1,4.9,7.8c-0.3,3.1-1.9,6.1-4.3,8.6
					c-5.7,5.9-16.8,8.1-26.2,6.7c-9.6-1.4-17.6-6.3-19.7-13.4c-0.4-1.5-0.5-3-0.4-4.4c0.2-1.2,0.6-4.1,2.4-4.7
					c1.7-0.6,3.7,1.7,4.5,2.6c1.1,1.4,1.6,3,1.7,4.5c0.4,7.1-8.1,12.3-16.6,14.4c-9.7,2.4-20.8,1.3-27.9-4.3
					c-3.5-2.8-6-6.8-5.2-10.6c0.4-1.9,1.8-3.8,4.3-4.6c2.2-0.8,5.4-0.3,6.4,1.5c1,2-0.9,4.8-2.1,6.5c-1.3,1.9-2.9,3.7-4.7,5.3
					c-3.3,3.2-9,7.4-15.1,5.4C176.3,414,173.4,417.5,176.7,418.5L176.7,418.5z"/>
			</g>
			<g>
				<path class="st34" d="M176.7,465.2c6.9,2.3,14.1,0.2,19.1-3.6c4.9-3.7,9.6-8.8,11-14c1.3-4.8-2.9-9.4-10.1-9.1
					c-7,0.3-11.3,5.1-11.6,9.8c-0.8,10.2,12,18.2,25,19.3c13.3,1.1,29.1-3.8,34.3-13.2c2.3-4.1,2.1-9-0.9-12.9
					c-2.9-3.8-9.5-7-14.2-2.6c-3.8,3.5-3.7,9.1-2.2,13.2c1.7,4.6,5.5,8.6,10.8,11.4c11.2,5.9,28.1,6,39.1-0.2
					c5-2.8,8.5-6.8,10.1-11.2c1.4-4.1,1.7-9.6-1.7-13.3c-4.4-4.8-14.2-2.1-18.2,1.5c-4.8,4.5-4.7,10.9-1.9,16c3,5.2,8.9,9.2,16.3,11
					c6.9,1.6,15.9,1.4,21.3-2.5c2.5-1.8-1.4-4.7-3.9-2.9c-3.5,2.6-9.5,2.7-14.1,1.9c-4.7-0.8-9-2.8-11.9-5.7
					c-2.9-2.9-4.4-6.6-3.9-10.2c0.5-3.4,3.4-7.1,8.5-7.4c5.1-0.3,5.1,5.1,4.9,7.8c-0.3,3.1-1.9,6.1-4.3,8.6
					c-5.7,5.9-16.8,8.1-26.2,6.7c-9.6-1.4-17.6-6.3-19.7-13.4c-0.4-1.5-0.5-3-0.4-4.4c0.2-1.2,0.6-4.1,2.4-4.7
					c1.7-0.6,3.7,1.7,4.5,2.6c1.1,1.4,1.6,3,1.7,4.5c0.4,7.1-8.1,12.3-16.6,14.4c-9.7,2.4-20.8,1.3-27.9-4.3
					c-3.5-2.8-6-6.8-5.2-10.6c0.4-1.9,1.8-3.8,4.3-4.6c2.2-0.8,5.4-0.3,6.4,1.5c1,2-0.9,4.8-2.1,6.5c-1.3,1.9-2.9,3.7-4.7,5.3
					c-3.3,3.2-9,7.4-15.1,5.4C176.3,460.7,173.4,464.2,176.7,465.2L176.7,465.2z"/>
			</g>
		</g>
	</g>
</g>
</svg>
