<?xml version="1.0" encoding="utf-8"?>
<!-- Generator: Adobe Illustrator 23.0.2, SVG Export Plug-In . SVG Version: 6.00 Build 0)  -->
<svg version="1.1" id="Layer_1" xmlns="http://www.w3.org/2000/svg" xmlns:xlink="http://www.w3.org/1999/xlink" x="0px" y="0px"
	 viewBox="0 0 1080 1080" style="enable-background:new 0 0 1080 1080;" xml:space="preserve">
<style type="text/css">
	.st0{fill:#F4F7FA;}
	.st1{fill:url(#SVGID_1_);}
	.st2{opacity:0.5;clip-path:url(#SVGID_2_);}
	.st3{fill:#FCFDFE;}
	.st4{clip-path:url(#SVGID_3_);fill:url(#SVGID_4_);}
	.st5{opacity:0.5;clip-path:url(#SVGID_3_);}
	.st6{fill:#BEB8F2;}
	.st7{fill:url(#SVGID_5_);}
	.st8{fill:url(#SVGID_6_);}
	.st9{fill:#D8DEE8;}
	.st10{opacity:0.3;}
	.st11{fill:url(#SVGID_7_);}
	.st12{fill:#FFFFFF;}
	.st13{opacity:0.74;fill:url(#SVGID_8_);}
	.st14{fill:#B19AF3;}
	.st15{clip-path:url(#SVGID_9_);}
	.st16{fill:#26264F;}
	.st17{fill:url(#SVGID_10_);}
	.st18{fill:url(#SVGID_11_);}
	.st19{fill:url(#SVGID_12_);}
	.st20{opacity:0.35;fill:#FFFFFF;}
	.st21{fill:url(#SVGID_13_);}
	.st22{fill:url(#SVGID_14_);}
	.st23{fill:url(#SVGID_15_);}
	.st24{opacity:0.74;fill:url(#SVGID_16_);}
	.st25{clip-path:url(#SVGID_17_);}
	.st26{fill:url(#SVGID_18_);}
	.st27{fill:url(#SVGID_19_);}
	.st28{fill:url(#SVGID_20_);}
	.st29{fill:url(#SVGID_21_);}
	.st30{fill:url(#SVGID_22_);}
	.st31{fill:url(#SVGID_23_);}
	.st32{opacity:0.5;fill:#D8DEE8;}
	.st33{fill:url(#SVGID_24_);}
	.st34{opacity:0.5;clip-path:url(#SVGID_25_);}
	.st35{clip-path:url(#SVGID_26_);fill:url(#SVGID_27_);}
	.st36{opacity:0.5;clip-path:url(#SVGID_26_);}
	.st37{fill:url(#SVGID_28_);}
	.st38{opacity:0.5;clip-path:url(#SVGID_29_);}
	.st39{fill:url(#SVGID_30_);}
	.st40{fill:url(#SVGID_31_);}
	.st41{fill:url(#SVGID_32_);}
	.st42{opacity:0.74;fill:url(#SVGID_33_);}
	.st43{clip-path:url(#SVGID_34_);}
	.st44{fill:url(#SVGID_35_);}
	.st45{fill:url(#SVGID_36_);}
	.st46{fill:url(#SVGID_37_);}
	.st47{fill:url(#SVGID_38_);}
	.st48{fill:url(#SVGID_39_);}
	.st49{fill:url(#SVGID_40_);}
	.st50{fill:url(#SVGID_41_);}
</style>
<g>
	<path class="st0" d="M923.1,888.4c-26,26.8-49.2,42.5-67,54.4c-173.6,115.9-372.1,82.5-433.5,71.1c-99-18.4-182.6-31.4-254.4-96.3
		C5,770.2,12.9,462.7,137.6,272.2C152.4,249.6,276.9,65,475.8,39c4.9-0.6,8.5-1,11.7-1.3c30.8-3.3,221.5-20.5,376.9,109.8
		c22.3,18.6,58.1,52.3,91.3,103.6C1077.1,438.7,1077.5,729.2,923.1,888.4z"/>
	<g>
		
			<linearGradient id="SVGID_1_" gradientUnits="userSpaceOnUse" x1="3818.6223" y1="-301.5318" x2="4006.3135" y2="7.4561" gradientTransform="matrix(0.9715 0.2369 -0.2369 0.9715 -3580.9126 -440.2849)">
			<stop  offset="0" style="stop-color:#FF9085"/>
			<stop  offset="1" style="stop-color:#FB6FBB"/>
		</linearGradient>
		<path class="st1" d="M249.4,472.3c0.3,0.2,0.6,0.4,0.8,0.6c16.6,12.6,37,23.4,62.1,30.6c5,1.1,10,2.1,15,3.2
			c7.1-10.7,11.9-22.2-2.1-30.5c-21.7-12.9-11.8-54.3-1.7-67.3c12.5-16,40.9-54,7.7-74.5c-27.6-17.1-49-22.4-41.3-61.6
			c7.6-39.2-7.4-68.6-43-75.2c-37.5-6.9-55.4-63.6-89.7-54.8c-59.9,15.3-33.7,112.6,24.2,153.4c57.8,40.8,15.3,54.7,5.6,85.9
			c-13.3,42.6,47.5,48.1,58.6,69C249.3,458,250.1,465.4,249.4,472.3z"/>
		<g>
			<defs>
				<path id="SVGID_51_" d="M241.7,495.6l80.6,19.6c7.5-10.3,18.6-29.8,3-39.1c-21.7-12.9-11.8-54.3-1.7-67.3
					c12.5-16,40.9-54,7.7-74.5c-27.6-17.1-49-22.4-41.3-61.6c7.6-39.2-7.4-68.6-43-75.2c-37.5-6.9-55.4-63.6-89.7-54.8
					c-59.9,15.3-33.7,112.6,24.2,153.4c57.8,40.8,15.3,54.7,5.6,85.9c-13.3,42.6,47.5,48.1,58.6,69
					C254.2,467.3,247.3,485.1,241.7,495.6z"/>
			</defs>
			<clipPath id="SVGID_2_">
				<use xlink:href="#SVGID_51_"  style="overflow:visible;"/>
			</clipPath>
			<g class="st2">
				<path class="st3" d="M282.7,492.2l1.8,0.1c5.9-131.2-51.9-264.7-150.9-348.2l-1.2,1.4C231,228.7,288.6,361.5,282.7,492.2z"/>
				<path class="st3" d="M279.8,420.4l1.7,0.4c12.5-50.1,65-78.5,65.6-78.8l-0.8-1.6C345.7,340.8,292.5,369.5,279.8,420.4z"/>
				<path class="st3" d="M283.2,468.1l1.7-0.4c-13-50.7-103.7-80-104.6-80.2l-0.5,1.7C180.6,389.4,270.4,418.3,283.2,468.1z"/>
				<path class="st3" d="M244.8,296.5l1.8-0.3c-6.8-40.9,31.4-91.8,31.8-92.3l-1.4-1.1C276.6,203.3,237.9,254.8,244.8,296.5z"/>
				<path class="st3" d="M203.9,223.8l1.3-1.3c-33.1-33.8-97-35.5-97.7-35.5l0,1.8C108.1,188.8,171.2,190.6,203.9,223.8z"/>
			</g>
		</g>
	</g>
	<g>
		<defs>
			<path id="SVGID_53_" d="M372.4,594.1l-88.9-6.6c0,0-13.3-46.8,10.8-77.4c49.3-62.3-8.7-101.2-30.6-121.1c-33-30-49-70.8,3.8-84.2
				s6.9-97-53.3-137.8c-59-39.9-22.1-167.8,113.5-93.1c81,44.6,61.2,132.5,61.8,179.2c0.6,46.7,69.4,55.7,41.5,110.7
				c-23.8,47-64.8,79.5-38,115C420,514.3,420.2,551.9,372.4,594.1z"/>
		</defs>
		<clipPath id="SVGID_3_">
			<use xlink:href="#SVGID_53_"  style="overflow:visible;"/>
		</clipPath>
		
			<linearGradient id="SVGID_4_" gradientUnits="userSpaceOnUse" x1="787.8331" y1="83.3256" x2="610.4683" y2="587.4155" gradientTransform="matrix(-0.9973 -7.390000e-02 -7.390000e-02 0.9973 1045.3894 40.3817)">
			<stop  offset="0" style="stop-color:#FFC444"/>
			<stop  offset="0.9964" style="stop-color:#F36F56"/>
		</linearGradient>
		<path class="st4" d="M372.4,594.1l-88.9-6.6c0,0-13.3-46.8,10.8-77.4c49.3-62.3-8.7-101.2-30.6-121.1c-33-30-45.8-66.6-2-86.4
			c49.6-22.5,12.7-94.8-47.6-135.5c-59-39.9-22.1-167.8,113.5-93.1c81,44.6,61.2,132.5,61.8,179.2c0.6,46.7,69.4,55.7,41.5,110.7
			c-23.8,47-64.8,79.5-38,115C420,514.3,420.2,551.9,372.4,594.1z"/>
		<g class="st5">
			<path class="st6" d="M333.4,599.4l-1.8-0.5c0.3-1.1,29.3-114.1,24.4-234.8c-4.6-111.2-39.8-251.8-181.6-290.5l0.5-1.8
				c63.1,17.2,110.8,55.8,141.5,114.5c24.6,46.9,38.6,106.7,41.5,177.8C362.8,485.1,333.7,598.3,333.4,599.4z"/>
			<path class="st6" d="M328.1,211.4l-1.8-0.4c12.3-61.4-4.8-151.1-4.9-152l1.8-0.4C323.4,59.6,340.5,149.7,328.1,211.4z"/>
			<path class="st6" d="M306.5,172.9c-60.2-44-120.6-29.5-121.2-29.4l-0.5-1.8c0.6-0.2,61.8-14.9,122.8,29.7L306.5,172.9z"/>
			<path class="st6" d="M354.9,443.3c-14.4-90-133.1-120.6-134.3-120.8l0.2-1.9c1.2,0.1,121.4,31.6,135.9,122.4L354.9,443.3z"/>
			<path class="st6" d="M358.2,405.9l-1.8-0.5c16-55.9,80.5-90.4,81.2-90.8l0.9,1.7C437.8,316.6,374,350.7,358.2,405.9z"/>
			<path class="st6" d="M335.7,581.1c-0.2-34.6-47.3-65.5-47.8-65.8l1-1.6c2,1.3,48.5,31.8,48.6,67.4L335.7,581.1z"/>
			<path class="st6" d="M343,554.4l-1.8-0.5c6.6-26.6,49.5-53.5,63.6-62.4c2-1.3,3.7-2.3,4-2.6l1.3,1.4c-0.4,0.4-1.5,1.1-4.3,2.8
				C391.8,501.9,349.4,528.6,343,554.4z"/>
		</g>
	</g>
	<g>
		<linearGradient id="SVGID_5_" gradientUnits="userSpaceOnUse" x1="91.0716" y1="564.6069" x2="491.4285" y2="564.6069">
			<stop  offset="0" style="stop-color:#444B8C"/>
			<stop  offset="0.9964" style="stop-color:#26264F"/>
		</linearGradient>
		<path class="st7" d="M477.7,253.8l-371.1-15c-8.6-0.3-15.6,5.7-15.6,13.5v625c0,7.8,7,13.6,15.6,13.1L477.7,866
			c7.6-0.5,13.7-6.8,13.7-14.1V267.6C491.4,260.3,485.3,254.1,477.7,253.8z"/>
		<linearGradient id="SVGID_6_" gradientUnits="userSpaceOnUse" x1="91.0716" y1="564.6069" x2="491.4285" y2="564.6069">
			<stop  offset="0" style="stop-color:#444B8C"/>
			<stop  offset="0.9964" style="stop-color:#26264F"/>
		</linearGradient>
		<path class="st8" d="M473,263.9l-366.3-25.1c-8.6-0.3-15.6,5.7-15.6,13.5v625c0,7.8,7,13.6,15.6,13.1L477.7,866
			c7.6-0.5,13.7-6.8,13.7-14.1V267.6C491.4,260.3,480.5,264.2,473,263.9z"/>
		<g>
			<path class="st9" d="M485.3,253.8l-371.1-15c-8.6-0.3-15.6,5.7-15.6,13.5v625c0,7.8,7,13.6,15.6,13.1L485.3,866
				c7.6-0.5,13.7-6.8,13.7-14.1V267.6C499,260.3,492.8,254.1,485.3,253.8z"/>
			<g class="st10">
				<path class="st9" d="M334.2,710.1c-6.3-70.8,40.9-100.3,22.9-164.4c-22.2-79.3-108.1-82.9-137.5-161.1
					c-11.3-30-15.7-75.3,16.5-141l-121.9-4.9c-8.6-0.3-15.6,5.7-15.6,13.5v625c0,7.8,7,13.6,15.6,13.1l331.3-21.8
					C362,809.8,338.1,753.7,334.2,710.1z"/>
			</g>
			<linearGradient id="SVGID_7_" gradientUnits="userSpaceOnUse" x1="470.1635" y1="273.075" x2="212.1832" y2="695.224">
				<stop  offset="0" style="stop-color:#FFFFFF"/>
				<stop  offset="0.9964" style="stop-color:#EBEFF2"/>
			</linearGradient>
			<path class="st11" d="M485.3,261.6l-371.1-14.5c-3.5-0.1-6.4,2.3-6.4,5.5v624.1c0,3.2,2.9,5.6,6.4,5.4l371.1-23.9
				c3.1-0.2,5.6-2.8,5.6-5.8V267.3C490.9,264.3,488.4,261.7,485.3,261.6z"/>
			<path class="st9" d="M305.5,535.3C236,535.9,178.2,483,178.2,417.5S236,300.4,305.5,302.6c68,2.1,122.1,54.9,122.1,117.8
				S373.5,534.8,305.5,535.3z"/>
			<path class="st12" d="M419.4,420.3c0,58.7-50.4,106.6-113.9,107c-64.8,0.4-118.4-48.7-118.4-109.7c0-61,53.6-108.9,118.4-107
				C369,312.5,419.4,361.6,419.4,420.3z"/>
			<linearGradient id="SVGID_8_" gradientUnits="userSpaceOnUse" x1="145.6893" y1="591.9562" x2="457.2083" y2="591.9562">
				<stop  offset="0" style="stop-color:#AA80F9"/>
				<stop  offset="0.9964" style="stop-color:#6165D7"/>
			</linearGradient>
			<path class="st13" d="M444.1,576.6L160.2,581c-8,0.1-14.5,6.1-14.5,13.4l0,0c0,7.3,6.5,13.1,14.5,12.9l283.9-5.6
				c7.2-0.1,13.1-5.9,13.1-12.8l0,0C457.2,582,451.4,576.5,444.1,576.6z"/>
			<path class="st9" d="M444.1,626l-232.4,5.5c-7.9,0.2-14.2,6.2-14.2,13.4l0,0c0,7.2,6.4,12.9,14.2,12.7l232.4-6.6
				c7.2-0.2,13.1-6,13.1-12.9l0,0C457.2,631.3,451.4,625.8,444.1,626z"/>
			<g>
				<path class="st14" d="M160.3,659.1l-0.3,0c-7.9,0.2-14.3-5.2-14.3-12.2v-1.2c0-7,6.4-12.8,14.3-13l0.3,0
					c7.9-0.2,14.3,5.3,14.3,12.2v1.2C174.6,653.1,168.2,658.9,160.3,659.1z"/>
				<path class="st9" d="M160.2,661.6c-9.5,0.3-17.2-6.5-17.2-15.2c0-8.6,7.7-15.8,17.2-16.1c9.4-0.2,17.1,6.6,17.1,15.2
					C177.3,654.1,169.6,661.3,160.2,661.6z M160.2,635.2c-6.5,0.2-11.8,5.1-11.8,11c0,5.9,5.3,10.6,11.8,10.4
					c6.5-0.2,11.7-5.1,11.7-11S166.6,635.1,160.2,635.2z"/>
			</g>
			<path class="st9" d="M444.1,670.7L211.8,678c-7.9,0.2-14.2,6.3-14.2,13.5l0,0c0,7.2,6.4,12.8,14.2,12.6l232.4-8.3
				c7.2-0.3,13.1-6.1,13.1-13l0,0C457.2,675.9,451.4,670.5,444.1,670.7z"/>
			<g>
				<path class="st14" d="M160.3,706l-0.3,0c-7.9,0.3-14.3-5.1-14.3-12.1v-1.2c0-7,6.4-12.8,14.3-13.1l0.3,0
					c7.9-0.2,14.3,5.2,14.3,12.1v1.2C174.6,699.8,168.2,705.7,160.3,706z"/>
				<path class="st9" d="M160.2,708.4c-9.5,0.3-17.2-6.4-17.2-15c0-8.6,7.7-15.9,17.2-16.2c9.4-0.3,17.1,6.5,17.1,15
					C177.3,700.8,169.6,708.1,160.2,708.4z M160.2,682.1c-6.5,0.2-11.8,5.2-11.8,11.1s5.3,10.5,11.8,10.3
					c6.5-0.2,11.7-5.2,11.7-11.1C171.9,686.5,166.6,681.9,160.2,682.1z"/>
			</g>
			<path class="st9" d="M444.1,715.4l-232.4,9.1c-7.9,0.3-14.2,6.4-14.2,13.6l0,0c0,7.2,6.4,12.8,14.2,12.5l232.4-10.1
				c7.2-0.3,13.1-6.2,13.1-13.1l0,0C457.2,720.5,451.4,715.1,444.1,715.4z"/>
			<path class="st9" d="M160.2,755.3c-9.5,0.4-17.2-6.3-17.2-14.9c0-8.6,7.7-16,17.2-16.3c9.4-0.4,17.1,6.3,17.1,14.9
				C177.3,747.6,169.6,754.9,160.2,755.3z M160.2,729c-6.5,0.3-11.8,5.3-11.8,11.2c0,5.9,5.3,10.5,11.8,10.2
				c6.5-0.3,11.7-5.3,11.7-11.2C171.9,733.3,166.6,728.7,160.2,729z"/>
			<path class="st9" d="M444.1,760.1L211.8,771c-7.9,0.4-14.2,6.5-14.2,13.7l0,0c0,7.2,6.4,12.7,14.2,12.3l232.4-11.9
				c7.2-0.4,13.1-6.3,13.1-13.2l0,0C457.2,765,451.4,759.7,444.1,760.1z"/>
			<g>
				<path class="st14" d="M160.3,799.7l-0.3,0c-7.9,0.4-14.3-4.9-14.3-11.9v-1.2c0-7,6.4-12.9,14.3-13.3l0.3,0
					c7.9-0.4,14.3,4.9,14.3,11.9v1.2C174.6,793.3,168.2,799.3,160.3,799.7z"/>
				<path class="st9" d="M160.2,802.2c-9.5,0.5-17.2-6.1-17.2-14.8c0-8.6,7.7-16,17.2-16.5c9.4-0.4,17.1,6.2,17.1,14.8
					C177.3,794.3,169.6,801.7,160.2,802.2z M160.2,775.9c-6.5,0.3-11.8,5.4-11.8,11.3c0,5.9,5.3,10.4,11.8,10.1
					c6.5-0.3,11.7-5.4,11.7-11.3S166.6,775.5,160.2,775.9z"/>
			</g>
			<g>
				<defs>
					<path id="SVGID_60_" d="M411.1,420.2c0,54.4-46.8,98.8-105.6,99.1c-60,0.3-109.5-45.2-109.5-101.6s49.5-100.8,109.5-99.1
						C364.3,320.3,411.1,365.7,411.1,420.2z"/>
				</defs>
				<clipPath id="SVGID_9_">
					<use xlink:href="#SVGID_60_"  style="overflow:visible;"/>
				</clipPath>
				<g class="st15">
					<path class="st16" d="M291.6,343.6c-20.6-0.6-40.1,10-48.8,24.8c-10.5,17.8,3.5,26.7-3.3,55.6c-6.3,26.6-20.9,31.2-18.5,48.6
						c2.7,19.1,22.7,31.3,30.6,36.1c35.6,21.6,91.1,20.7,119.3-7.2c2.4-2.3,21.8-21.5,16.5-39.2c-4.7-15.8-24.8-15.9-29-32.3
						c-3.6-14.2,10.2-18.7,8.9-39.2c-0.3-4-1.5-23-16.8-31.8c-10.2-5.8-21.4-4.2-25.5-3.4C320,352,308,344.1,291.6,343.6z"/>
					<linearGradient id="SVGID_10_" gradientUnits="userSpaceOnUse" x1="187.1199" y1="505.3112" x2="419.3978" y2="505.3112">
						<stop  offset="0" style="stop-color:#FF9085"/>
						<stop  offset="1" style="stop-color:#FB6FBB"/>
					</linearGradient>
					<path class="st17" d="M187.1,492.2c0,0,104-56.4,232.3-0.2c0,0-16.3,48.2-113.9,51.5C204.7,546.8,187.1,492.2,187.1,492.2z"/>
					<linearGradient id="SVGID_11_" gradientUnits="userSpaceOnUse" x1="304.119" y1="500.8814" x2="295.9185" y2="375.3503">
						<stop  offset="0" style="stop-color:#893976"/>
						<stop  offset="1" style="stop-color:#311944"/>
					</linearGradient>
					<path class="st18" d="M287.1,418.7l-3.9,26.9c-1.3,9.2-8.1,16.9-17.6,19.8l-31.7,9.9c0,0,60.7,27.1,137.1,0l-34.8-11.3
						c-9.9-3.5-16.6-12.2-17.1-22.1l-1-23L287.1,418.7z"/>
					<linearGradient id="SVGID_12_" gradientUnits="userSpaceOnUse" x1="318.6004" y1="387.0457" x2="182.9766" y2="483.5594">
						<stop  offset="0" style="stop-color:#893976"/>
						<stop  offset="1" style="stop-color:#311944"/>
					</linearGradient>
					<path class="st19" d="M334.3,395.5c0,22.7-14.7,47-33,46.9c-18.4-0.1-33.3-24.9-33.3-47.9c0-23,15-35.2,33.3-34.8
						C319.6,360.1,334.3,372.8,334.3,395.5z"/>
					<path class="st16" d="M316,374.7c-9.9,0.3-24.9,2.2-35.3,12.2c-17.5,16.8-9.2,43.9-17,45.4c-6.9,1.4-17.7-18-17.5-39.1
						c0.1-17.7,6.7-38.4,23.6-43.2c9.9-2.9,12.9,2.2,44.9,5.8c18.7,2.1,11.3,9.7,15.5,12.7c18.6,13.2,16.3,55.6,6.2,56
						C331.7,424.8,325.1,413.6,316,374.7z"/>
				</g>
			</g>
			<path class="st20" d="M334.2,710.1c-6.3-70.8,40.9-100.3,22.9-164.4c-22.2-79.3-108.1-82.9-137.5-161.1
				c-10.8-28.8-15.3-71.6,12.7-133l-118.2-4.6c-3.5-0.1-6.4,2.3-6.4,5.5v624.1c0,3.2,2.9,5.6,6.4,5.4l321.4-20.7
				C360.1,805.2,337.9,751.9,334.2,710.1z"/>
		</g>
	</g>
	<g>
		<linearGradient id="SVGID_13_" gradientUnits="userSpaceOnUse" x1="644.3585" y1="559.2103" x2="992.185" y2="559.2103">
			<stop  offset="0" style="stop-color:#444B8C"/>
			<stop  offset="0.9964" style="stop-color:#26264F"/>
		</linearGradient>
		<path class="st21" d="M980.2,269.2l-322.4-13.1c-7.4-0.3-13.5,5.3-13.5,12.6V850c0,7.2,6,12.7,13.5,12.2l322.4-21.2
			c6.6-0.4,11.9-6.3,11.9-13.1V282C992.2,275.2,986.8,269.5,980.2,269.2z"/>
		<linearGradient id="SVGID_14_" gradientUnits="userSpaceOnUse" x1="644.3585" y1="559.2103" x2="992.185" y2="559.2103">
			<stop  offset="0" style="stop-color:#444B8C"/>
			<stop  offset="0.9964" style="stop-color:#26264F"/>
		</linearGradient>
		<path class="st22" d="M976.8,289.4l-318.9-33.2c-7.4-0.3-13.5,5.3-13.5,12.6V850c0,7.2,6,12.7,13.5,12.2l322.4-21.2
			c6.6-0.4,11.9-6.3,11.9-13.1V282C992.2,275.2,983.4,289.6,976.8,289.4z"/>
		<g>
			<path class="st9" d="M987.8,269.2l-322.4-13.1c-7.4-0.3-13.5,5.3-13.5,12.6V850c0,7.2,6,12.7,13.5,12.2l322.4-21.2
				c6.6-0.4,12-6.3,12-13.1V282C999.7,275.2,994.4,269.5,987.8,269.2z"/>
			<g class="st10">
				<path class="st9" d="M856.2,695.1c-5.5-66.1,35.6-93.4,19.9-153.2c-19.3-74-93.9-77.3-119.4-150.1
					c-9.8-27.9-13.6-70.1,14.3-131.3l-105.6-4.3c-7.4-0.3-13.5,5.3-13.5,12.6V850c0,7.2,6,12.7,13.5,12.2l287.7-18.9
					C880.4,788.2,859.6,735.7,856.2,695.1z"/>
			</g>
			<linearGradient id="SVGID_15_" gradientUnits="userSpaceOnUse" x1="792.9453" y1="568.8538" x2="955.0079" y2="471.3971">
				<stop  offset="0" style="stop-color:#FFFFFF"/>
				<stop  offset="0.9964" style="stop-color:#EBEFF2"/>
			</linearGradient>
			<path class="st23" d="M987.8,276.5l-322.4-12.6c-3-0.1-5.5,2.2-5.5,5.2v580.5c0,3,2.5,5.2,5.5,5l322.4-20.7
				c2.7-0.2,4.9-2.6,4.9-5.4V281.8C992.7,279,990.5,276.6,987.8,276.5z"/>
			<path class="st20" d="M856.2,695.1c-5.5-66.1,35.6-93.4,19.9-153.2c-19.3-74-93.9-77.3-119.4-150.1c-9.4-26.8-13.3-66.7,11-123.9
				l-102.4-4c-3-0.1-5.5,2.2-5.5,5.2v580.5c0,3,2.5,5.2,5.5,5l279.1-18C878.7,783.8,859.4,734,856.2,695.1z"/>
			<path class="st9" d="M831.3,532.1c-60.4,0.5-110.5-48.7-110.5-109.8c0-61,50.1-109.1,110.5-107.2c59.1,1.8,106.3,51,106.3,109.7
				S890.4,531.6,831.3,532.1z"/>
			<path class="st12" d="M930.3,424.7c0,54.8-43.9,99.5-99.1,99.9C775,525,728.5,479.2,728.5,422.4c0-56.8,46.5-101.5,102.7-99.8
				C886.4,324.2,930.3,369.9,930.3,424.7z"/>
			<linearGradient id="SVGID_16_" gradientUnits="userSpaceOnUse" x1="692.6352" y1="584.8356" x2="963.2958" y2="584.8356">
				<stop  offset="0" style="stop-color:#AA80F9"/>
				<stop  offset="0.9964" style="stop-color:#6165D7"/>
			</linearGradient>
			<path class="st24" d="M951.9,570.7l-246.7,3.8c-6.9,0.1-12.5,5.7-12.5,12.5l0,0c0,6.8,5.6,12.2,12.5,12l246.7-4.9
				c6.3-0.1,11.4-5.5,11.4-11.9l0,0C963.3,575.8,958.2,570.6,951.9,570.7z"/>
			<path class="st9" d="M951.9,616.8l-202,4.8c-6.8,0.2-12.3,5.7-12.3,12.5l0,0c0,6.7,5.5,12,12.3,11.8l202-5.7
				c6.3-0.2,11.4-5.6,11.4-12l0,0C963.3,621.8,958.2,616.7,951.9,616.8z"/>
			<g>
				<path class="st14" d="M705.3,647.2l-0.2,0c-6.9,0.2-12.4-4.9-12.4-11.4v-1.1c0-6.5,5.6-11.9,12.4-12l0.2,0
					c6.8-0.2,12.4,4.9,12.4,11.4v1.1C717.6,641.6,712.1,647,705.3,647.2z"/>
				<path class="st9" d="M705.2,649.5c-8.2,0.2-14.9-6.1-14.9-14.2s6.7-14.7,14.9-14.9c8.2-0.2,14.8,6.2,14.8,14.2
					S713.3,649.2,705.2,649.5z M705.2,625c-5.6,0.1-10.2,4.7-10.2,10.2s4.6,9.8,10.2,9.7c5.6-0.2,10.1-4.7,10.1-10.2
					S710.8,624.9,705.2,625z"/>
			</g>
			<path class="st9" d="M951.9,658.5l-202,6.4c-6.8,0.2-12.3,5.8-12.3,12.6l0,0c0,6.7,5.5,12,12.3,11.7l202-7.2
				c6.3-0.2,11.4-5.6,11.4-12.1l0,0C963.3,663.4,958.2,658.3,951.9,658.5z"/>
			<g>
				<path class="st14" d="M705.3,690.8l-0.2,0c-6.9,0.2-12.4-4.8-12.4-11.3v-1.1c0-6.5,5.6-11.9,12.4-12.1l0.2,0
					c6.8-0.2,12.4,4.8,12.4,11.3v1.1C717.6,685.1,712.1,690.5,705.3,690.8z"/>
				<path class="st9" d="M705.2,693.1c-8.2,0.3-14.9-6-14.9-14c0-8,6.7-14.8,14.9-15c8.2-0.3,14.8,6,14.8,14
					C720,686,713.3,692.8,705.2,693.1z M705.2,668.6c-5.6,0.2-10.2,4.8-10.2,10.3c0,5.5,4.6,9.8,10.2,9.6
					c5.6-0.2,10.1-4.8,10.1-10.3S710.8,668.4,705.2,668.6z"/>
			</g>
			<path class="st9" d="M951.9,700.2l-202,7.9c-6.8,0.3-12.3,5.9-12.3,12.7l0,0c0,6.7,5.5,11.9,12.3,11.6l202-8.8
				c6.3-0.3,11.4-5.7,11.4-12.2l0,0C963.3,705,958.2,700,951.9,700.2z"/>
			<g>
				<path class="st14" d="M705.3,734.4l-0.2,0c-6.9,0.3-12.4-4.7-12.4-11.2v-1.1c0-6.5,5.6-12,12.4-12.2l0.2,0
					c6.8-0.3,12.4,4.7,12.4,11.2v1.1C717.6,728.6,712.1,734.1,705.3,734.4z"/>
				<path class="st9" d="M705.2,736.7c-8.2,0.4-14.9-5.9-14.9-13.9c0-8,6.7-14.8,14.9-15.2c8.2-0.3,14.8,5.9,14.8,13.9
					C720,729.6,713.3,736.3,705.2,736.7z M705.2,712.2c-5.6,0.2-10.2,4.9-10.2,10.4s4.6,9.8,10.2,9.5c5.6-0.2,10.1-4.9,10.1-10.4
					C715.3,716.3,710.8,712,705.2,712.2z"/>
			</g>
			<path class="st9" d="M951.9,742l-202,9.5c-6.8,0.3-12.3,6-12.3,12.8l0,0c0,6.7,5.5,11.9,12.3,11.5l202-10.4
				c6.3-0.3,11.4-5.8,11.4-12.3l0,0C963.3,746.7,958.2,741.7,951.9,742z"/>
			<g>
				<path class="st14" d="M705.3,778l-0.2,0c-6.9,0.4-12.4-4.6-12.4-11.1v-1.1c0-6.5,5.6-12,12.4-12.3l0.2,0
					c6.8-0.3,12.4,4.6,12.4,11.1v1.1C717.6,772.2,712.1,777.7,705.3,778z"/>
				<path class="st9" d="M705.2,780.3c-8.2,0.4-14.9-5.8-14.9-13.8c0-8,6.7-14.9,14.9-15.3c8.2-0.4,14.8,5.8,14.8,13.8
					C720,773.1,713.3,779.9,705.2,780.3z M705.2,755.8c-5.6,0.3-10.2,5-10.2,10.4c0,5.5,4.6,9.7,10.2,9.4c5.6-0.3,10.1-5,10.1-10.4
					C715.3,759.8,710.8,755.6,705.2,755.8z"/>
			</g>
			<g>
				<defs>
					<path id="SVGID_69_" d="M923.1,424.6c0,50.8-40.7,92.2-91.9,92.5c-52.1,0.3-95-42.1-95-94.6s42.9-93.9,95-92.4
						C882.4,331.5,923.1,373.9,923.1,424.6z"/>
				</defs>
				<clipPath id="SVGID_17_">
					<use xlink:href="#SVGID_69_"  style="overflow:visible;"/>
				</clipPath>
				<g class="st25">
					<linearGradient id="SVGID_18_" gradientUnits="userSpaceOnUse" x1="728.5211" y1="504.3442" x2="930.3419" y2="504.3442">
						<stop  offset="0" style="stop-color:#AB316D"/>
						<stop  offset="1" style="stop-color:#792D3D"/>
					</linearGradient>
					<path class="st26" d="M728.5,492.1c0,0,90.3-52.6,201.8-0.2c0,0-14.2,45-99.1,48C743.7,543,728.5,492.1,728.5,492.1z"/>
					<linearGradient id="SVGID_19_" gradientUnits="userSpaceOnUse" x1="828.1644" y1="431.8477" x2="828.5426" y2="505.22">
						<stop  offset="3.597000e-03" style="stop-color:#F36F56"/>
						<stop  offset="1" style="stop-color:#FFC444"/>
					</linearGradient>
					<path class="st27" d="M815.3,423.4l-3.4,25.1c-1,16-16.8,21.9-16.8,21.9c18.6,22.1,54.2,21.3,66.6,0.4
						c-8.6-3.2-18.2-16.5-18.6-25.7l-0.9-21.4L815.3,423.4z"/>
					<linearGradient id="SVGID_20_" gradientUnits="userSpaceOnUse" x1="838.8993" y1="331.1302" x2="820.4614" y2="444.9973">
						<stop  offset="3.597000e-03" style="stop-color:#F36F56"/>
						<stop  offset="1" style="stop-color:#FFC444"/>
					</linearGradient>
					<path class="st28" d="M856.3,401.7c0,21.2-12.8,43.8-28.7,43.7c-16-0.1-29-23.2-29-44.6c0-21.4,13-32.8,29-32.5
						C843.5,368.7,856.3,380.5,856.3,401.7z"/>
					<linearGradient id="SVGID_21_" gradientUnits="userSpaceOnUse" x1="829.1627" y1="354.5036" x2="820.2019" y2="409.8427">
						<stop  offset="0" style="stop-color:#444B8C"/>
						<stop  offset="0.9964" style="stop-color:#26264F"/>
					</linearGradient>
					<path class="st29" d="M797.8,406.2c1.6-0.2,3.2-0.5,4.8-0.7c-0.7-1.8-3.8-9.6,0-16.3c3.6-6.5,12.1-9.5,18.6-8.9
						c7.4,0.6,11.8,4.1,15.5,1.5c2.1-1.4,2.7-4.1,3-6.2c0.2,1.3,0.5,3.3,1.5,5.5c2.7,6.3,7.4,7.7,9.9,11.9c1.7,2.8,2.8,7.5,0,15.7
						c1.4-0.1,2.8-0.1,4.2-0.2c1.5-4.6,3.2-11.1,4.4-19.1c1.6-11.8,2.8-20-1.9-24.1c-0.9-0.8-5-4-14.8-1.3
						c-2.3-2.4-7.1-6.9-14.6-9.3c-2.6-0.8-15.4-4.9-26.7,3c-7.7,5.4-13.8,15.6-11.8,24.2c1,4.5,3.8,6.6,6.3,15.4
						C797.1,401.1,797.6,404.2,797.8,406.2z"/>
					<linearGradient id="SVGID_22_" gradientUnits="userSpaceOnUse" x1="868.3298" y1="336.9874" x2="850.0631" y2="449.7971">
						<stop  offset="3.597000e-03" style="stop-color:#F36F56"/>
						<stop  offset="1" style="stop-color:#FFC444"/>
					</linearGradient>
					<path class="st30" d="M852.3,409.5c0,0,1.8-9.3,7.4-8.2c5.6,1-2.4,16.1-7.4,17.9V409.5z"/>
					<linearGradient id="SVGID_23_" gradientUnits="userSpaceOnUse" x1="811.3197" y1="325.2804" x2="792.6707" y2="440.4509">
						<stop  offset="3.597000e-03" style="stop-color:#F36F56"/>
						<stop  offset="1" style="stop-color:#FFC444"/>
					</linearGradient>
					<path class="st31" d="M802.3,408.8c0,0-1.9-9.4-7.6-8.6c-5.7,0.8,2.5,16.3,7.6,18.3V408.8z"/>
				</g>
			</g>
			<path class="st32" d="M847.8,264.8l-182.4-8.6c-7.4-0.3-13.5,5.3-13.5,12.6V850c0,7.2,6,12.7,13.5,12.2l182.2-12.8L847.8,264.8z"
				/>
		</g>
	</g>
	<g>
		<g>
			
				<linearGradient id="SVGID_24_" gradientUnits="userSpaceOnUse" x1="-1982.582" y1="340.0033" x2="-1830.1001" y2="740.6627" gradientTransform="matrix(-0.9979 -6.530000e-02 -6.530000e-02 0.9979 -1053.7153 7.4841)">
				<stop  offset="0" style="stop-color:#AA80F9"/>
				<stop  offset="0.9964" style="stop-color:#6165D7"/>
			</linearGradient>
			<path class="st33" d="M813.4,772.3c6.8,14.6,0.3,29.2-5.9,39.1c-1.5,0-2.3,0.4-3.8,0.8c-13.5,3.3-19.8,1.6-33.5,2.6
				c-2.9,0.2-11.7-2-15.2-3.1l-6.5-2.2c0,0-11.6-35.5,6.6-45.4c18.2-9.8,11.2-45.2,9.7-64.5c-4.1-52.3,52.4-47.6,52.5-115.3
				c0-18-6-52.3,9.2-66.7c17.3-16.3,29.9-0.3,41-14c17.4-21.4,45.6-29,62.4-7c16.6,21.7-3.6,64.9-53.7,99.6
				c-33.1,29-33.6,37.6-31,58.8c1.8,14.8,15.9,53.3-4.1,68.7C821,738.9,805.7,755.6,813.4,772.3z"/>
			<g>
				<defs>
					<path id="SVGID_78_" d="M798.8,823.3l-49.2-12.7c0,0-12.7-36.8,5.5-46.7s11.2-45.2,9.7-64.5c-4.1-52.3,52.4-47.6,52.5-115.3
						c0-18-6-52.3,9.2-66.7c17.3-16.3,29.9-0.3,41-14c17.4-21.4,45.6-29,62.4-7c16.6,21.7-3.6,64.9-53.7,99.6
						c-33.1,29-33.6,37.6-31,58.8c1.8,14.8,15.9,53.3-4.1,68.7c-20.1,15.4-35.4,32-27.7,48.7C825.2,797.7,798.8,823.3,798.8,823.3z"
						/>
				</defs>
				<clipPath id="SVGID_25_">
					<use xlink:href="#SVGID_78_"  style="overflow:visible;"/>
				</clipPath>
				<g class="st34">
					<path class="st3" d="M777.4,815.3l-1-0.1c0.7-6,1.6-11.9,2.4-17.8c6.5-43.4,16.8-84.7,30.7-122.7
						c11.7-32.1,26.2-62.4,42.9-89.8c13.5-22.1,28.5-42.5,44.6-60.7c11.3-12.8,23.1-24.3,35-34.3c2.1-1.7,4.3-3.4,6.4-5
						c2.9-2.1,5.8-4.4,8.4-6.8l0.7,0.7c-2.7,2.5-5.6,4.7-8.5,6.9c-2.1,1.6-4.3,3.3-6.4,5c-11.9,10-23.6,21.5-34.9,34.2
						c-16.1,18.1-31.1,38.5-44.5,60.5c-16.7,27.4-31.1,57.5-42.8,89.6c-13.8,37.9-24.2,79.1-30.7,122.5
						C779,803.3,778.1,809.3,777.4,815.3z"/>
					<path class="st3" d="M834.3,619.6l-0.9-0.4c18.4-39.1,2.2-111.4,2.1-112.1l1-0.2C836.7,507.6,852.8,580.2,834.3,619.6z"/>
					<path class="st3" d="M792.6,733.5l-1-0.3c9.4-28,61.9-49.7,62.4-49.9l0.4,0.9C853.9,684.4,801.8,705.9,792.6,733.5z"/>
					<path class="st3" d="M788.7,749.9l-1-0.1c2.8-19.1-3.6-46.6-18.1-77.5c-0.7-1.6-0.7-1.6-0.7-1.7l1,0.1l-0.5-0.1l0.5-0.1
						c0,0.1,0.3,0.7,0.6,1.4C785,702.9,791.5,730.6,788.7,749.9z"/>
					<path class="st3" d="M778.9,804.4L778,804c9-19.3,39.5-26.9,39.9-27l0.2,1C817.8,778.1,787.7,785.6,778.9,804.4z"/>
					<path class="st3" d="M775.9,815.3c-3.8-16.7-12.5-32.9-26.6-49.4l0.8-0.7c14.2,16.7,23,33,26.9,49.9L775.9,815.3z"/>
					<path class="st3" d="M888.5,535.7l-0.9-0.5c11.4-21.2,18.5-46.1,20.8-54.3c0.6-2,0.8-2.7,0.9-2.9l0.9,0.4
						c-0.1,0.2-0.4,1.3-0.8,2.7C907.1,489.5,900,514.4,888.5,535.7z"/>
					<path class="st3" d="M864.8,567.4l-0.7-0.7c16.1-15.8,61.2-15.3,63.1-15.3l0,1C926.8,552.4,880.6,551.9,864.8,567.4z"/>
				</g>
			</g>
		</g>
		<g>
			<defs>
				<path id="SVGID_80_" d="M733.6,898.8l58.7,18.4c0,0,20.5-26.6,12.8-52.4c-15.7-52.5,31.3-62.6,50.4-69.8
					c28.8-10.8,49.4-33,19-55c-30.4-22,20.2-64,69.3-74.8c48-10.6,56.8-102-49.1-88.6c-63.3,8-73,69.4-85.3,99.2
					c-12.3,29.8-58.7,18.1-54.8,60.4c3.3,36.2,21.3,67.4-4.9,83.4C723.4,835.6,713.7,859.7,733.6,898.8z"/>
			</defs>
			<clipPath id="SVGID_26_">
				<use xlink:href="#SVGID_80_"  style="overflow:visible;"/>
			</clipPath>
			
				<linearGradient id="SVGID_27_" gradientUnits="userSpaceOnUse" x1="4113.1631" y1="93.4731" x2="3990.7805" y2="441.2981" gradientTransform="matrix(0.9542 0.2991 -0.2991 0.9542 -2952.4155 -729.4648)">
				<stop  offset="3.597120e-03" style="stop-color:#E38DDD"/>
				<stop  offset="1" style="stop-color:#9571F6"/>
			</linearGradient>
			<path class="st35" d="M733.6,898.8l58.7,18.4c0,0,20.5-26.6,12.8-52.4c-15.7-52.5,31.3-62.6,50.4-69.8
				c28.8-10.8,46.3-31,23.3-54.9c-26.1-27,16-64,65-74.8c48-10.6,56.8-102-49.1-88.6c-63.3,8-73,69.4-85.3,99.2
				c-12.3,29.8-58.7,18.1-54.8,60.4c3.3,36.2,21.3,67.4-4.9,83.4C723.4,835.6,713.7,859.7,733.6,898.8z"/>
			<g class="st36">
				<path class="st6" d="M757.3,912.2l1.3,0.2c0.1-0.8,10.2-80.6,44.1-156.8c31.2-70.1,89.6-151.4,190.4-140.1l0.1-1.3
					c-44.9-5-85.2,7.6-119.9,37.4c-27.7,23.8-51.9,58.6-71.9,103.5C767.5,831.4,757.4,911.4,757.3,912.2z"/>
				<path class="st6" d="M859.4,664.7l1.3,0.2c7.7-42.5,41.5-95.7,41.9-96.2l-1.1-0.7C901.1,568.6,867.1,622,859.4,664.7z"/>
				<path class="st6" d="M883,645.5c49.8-12.9,84.9,11.8,85.2,12l0.8-1.1c-0.4-0.3-35.9-25.3-86.3-12.2L883,645.5z"/>
				<path class="st6" d="M783.2,806.6c32.1-54,116-43.5,116.9-43.3l0.4-1.2c-0.8-0.2-85.9-10.6-118.3,43.9L783.2,806.6z"/>
				<path class="st6" d="M790.6,781.8l1.3,0.1c4-39.9-28.6-78.5-29-78.9l-1,0.8C762.3,704.3,794.5,742.4,790.6,781.8z"/>
				<path class="st6" d="M760.4,899.9c8.9-22.2,47-30,47.4-30.1l-0.3-1.3c-1.6,0.3-39.2,8-48.3,30.9L760.4,899.9z"/>
				<path class="st6" d="M762.6,880.9l1.3,0.2c2.5-18.7-18.1-46.9-24.9-56.2c-1-1.3-1.8-2.4-1.9-2.7l-1.2,0.5c0.1,0.3,0.7,1.1,2,2.9
					C744.6,834.8,765,862.7,762.6,880.9z"/>
			</g>
		</g>
		<g>
			
				<linearGradient id="SVGID_28_" gradientUnits="userSpaceOnUse" x1="1016.46" y1="546.5268" x2="1145.9617" y2="759.72" gradientTransform="matrix(-0.9997 2.270000e-02 2.270000e-02 0.9997 1870.5321 148.8009)">
				<stop  offset="0" style="stop-color:#FFC444"/>
				<stop  offset="0.9964" style="stop-color:#F36F56"/>
			</linearGradient>
			<path class="st37" d="M789.1,913.7c-0.2,0.1-0.4,0.2-0.7,0.3c-13,6-28.4,10.3-46.4,11.4c-3.5,0-7.1,0-10.6-0.1
				c-3.2-8.3-4.7-16.7,5.9-20.3c16.5-5.5,16-34.8,11.1-45.1c-6-12.7-19.5-42.4,5.9-51.3c21.1-7.4,36.3-7.9,37-35.4
				c0.7-27.5,15.1-45.2,40.1-44.3c26.3,0.9,46.7-34.7,68.6-23.6c38.1,19.2,6,80.8-39,99.8c-45,18.9-18.4,34.6-16.5,57
				c2.6,30.7-39.1,25.4-49.7,37.8C791.3,904.1,789.7,908.9,789.1,913.7z"/>
			<g>
				<defs>
					<path id="SVGID_84_" d="M790.8,930.6l-57.2,1.3c-3.5-8-8.1-22.9,3.8-26.8c16.5-5.5,16-34.8,11.1-45.1
						c-6-12.7-19.5-42.4,5.9-51.3c21.1-7.4,36.3-7.9,37-35.4c0.7-27.5,15.1-45.2,40.1-44.3c26.3,0.9,46.7-34.7,68.6-23.6
						c38.1,19.2,6,80.8-39,99.8c-45,18.9-18.4,34.6-16.5,57c2.6,30.7-39.1,25.4-49.7,37.8C786.6,909.7,788.6,922.7,790.8,930.6z"/>
				</defs>
				<clipPath id="SVGID_29_">
					<use xlink:href="#SVGID_84_"  style="overflow:visible;"/>
				</clipPath>
				<g class="st38">
					<path class="st3" d="M763.7,922.2l-1.2-0.2c15.5-89.3,74.2-170.6,153.3-212.3l0.6,1.1C837.6,752.3,779.1,833.3,763.7,922.2z"/>
					<path class="st3" d="M776.3,874.2l-1.2,0c-1-35.6-32.2-62.5-32.5-62.8l0.8-0.9C743.7,810.8,775.3,838.1,776.3,874.2z"/>
					<path class="st3" d="M767,905.9l-1.1-0.6c16.3-32.2,81.7-38.5,82.4-38.6l0.1,1.2C847.8,868,783,874.2,767,905.9z"/>
					<path class="st3" d="M818.2,795.9l-1.2-0.5c10.7-26.6-7.6-66.5-7.7-66.9l1.1-0.5C810.7,728.4,829.1,768.9,818.2,795.9z"/>
					<path class="st3" d="M856.6,753l-0.7-1c27.3-17.8,70.6-9.6,71.1-9.5l-0.2,1.2C926.4,743.7,883.5,735.5,856.6,753z"/>
				</g>
			</g>
		</g>
	</g>
	<g>
		<linearGradient id="SVGID_30_" gradientUnits="userSpaceOnUse" x1="346.7516" y1="559.8408" x2="778.2959" y2="559.8408">
			<stop  offset="0" style="stop-color:#444B8C"/>
			<stop  offset="0.9964" style="stop-color:#26264F"/>
		</linearGradient>
		<path class="st39" d="M759.3,193l-395.9-33.9c-9.2-0.4-16.7,7.1-16.7,16.7v768.6c0,9.6,7.5,16.8,16.7,16.2l400-26.3
			c8.2-0.5,14.9-8.3,14.9-17.3V192.2C778.3,183.2,767.5,193.3,759.3,193z"/>
		<linearGradient id="SVGID_31_" gradientUnits="userSpaceOnUse" x1="668.1891" y1="170.1755" x2="697.2253" y2="170.1755">
			<stop  offset="0" style="stop-color:#AB316D"/>
			<stop  offset="1" style="stop-color:#792D3D"/>
		</linearGradient>
		<path class="st40" d="M668.2,173.6L668.2,173.6c0-5.3,4.1-9.6,9.2-9.5l3.4-0.2l16.4,6.6v6L668.2,173.6z"/>
		<g>
			<path class="st9" d="M774.1,175.3l-400-16.2c-9.2-0.4-16.7,7.1-16.7,16.7v768.6c0,9.6,7.5,16.8,16.7,16.2l400-26.3
				c8.2-0.5,14.9-8.3,14.9-17.3V192.2C789,183.2,782.3,175.6,774.1,175.3z"/>
			<g class="st10">
				<path class="st9" d="M610.5,740.1c-6.8-87.6,44.2-123.8,24.7-203.1c-24-98.1-116.6-102.4-148.1-198.8
					c-12.1-37-16.9-92.8,17.8-173.9l-130.7-5.3c-9.2-0.4-16.7,7.1-16.7,16.7v768.6c0,9.6,7.5,16.8,16.7,16.2L731,937.1
					C640.5,863.6,614.7,794,610.5,740.1z"/>
			</g>
			<linearGradient id="SVGID_32_" gradientUnits="userSpaceOnUse" x1="778.1991" y1="212.291" x2="470.8549" y2="715.2172">
				<stop  offset="0" style="stop-color:#FFFFFF"/>
				<stop  offset="0.9964" style="stop-color:#EBEFF2"/>
			</linearGradient>
			<path class="st41" d="M774.1,184.9l-400-15.7c-3.8-0.1-6.8,2.9-6.8,6.8v767.6c0,3.9,3.1,6.9,6.8,6.7l400-25.7
				c3.4-0.2,6.1-3.4,6.1-7.1V191.9C780.2,188.2,777.5,185.1,774.1,184.9z"/>
			<path class="st9" d="M579.5,524.1c-74.9,0.6-137-64.6-137-145.3s62.1-144.5,137-142.2c73.4,2.3,132,67.4,132,145.3
				S652.9,523.5,579.5,524.1z"/>
			<path class="st12" d="M702.6,381.7c0,72.7-54.6,132-123.1,132.4c-69.8,0.5-127.3-60.1-127.3-135.3s57.6-134.4,127.3-132.4
				C648,248.5,702.6,309.1,702.6,381.7z"/>
			<linearGradient id="SVGID_33_" gradientUnits="userSpaceOnUse" x1="407.7846" y1="593.9467" x2="743.6063" y2="593.9467">
				<stop  offset="0" style="stop-color:#AA80F9"/>
				<stop  offset="0.9964" style="stop-color:#6165D7"/>
			</linearGradient>
			<path class="st42" d="M729.4,575.4l-306.1,4.7c-8.6,0.1-15.5,7.5-15.5,16.5l0,0c0,9,6.9,16.1,15.5,15.9l306.1-6
				c7.9-0.2,14.2-7.2,14.2-15.8l0,0C743.6,582.1,737.3,575.3,729.4,575.4z"/>
			<path class="st9" d="M729.4,636.6l-250.8,6c-8.4,0.2-15.3,7.6-15.3,16.5l0,0c0,8.9,6.8,15.9,15.3,15.7l250.8-7.1
				c7.9-0.2,14.2-7.3,14.2-15.9l0,0C743.6,643.2,737.3,636.4,729.4,636.6z"/>
			<g>
				<path class="st14" d="M423.4,676.3l-0.3,0c-8.5,0.2-15.4-6.5-15.4-15.1v-1.4c0-8.6,6.9-15.7,15.4-15.9l0.3,0
					c8.5-0.2,15.3,6.6,15.3,15.1v1.4C438.7,668.9,431.9,676,423.4,676.3z"/>
				<path class="st9" d="M423.3,679.3c-10.1,0.3-18.4-8.1-18.4-18.8c0-10.6,8.3-19.5,18.4-19.7c10.1-0.2,18.3,8.2,18.3,18.8
					S433.4,679,423.3,679.3z M423.3,646.9c-6.9,0.2-12.6,6.2-12.6,13.5c0,7.3,5.7,13,12.6,12.8c6.9-0.2,12.6-6.2,12.6-13.5
					C435.8,652.5,430.2,646.8,423.3,646.9z"/>
			</g>
			<path class="st9" d="M729.4,691.9l-250.8,7.9c-8.4,0.3-15.3,7.7-15.3,16.6l0,0c0,8.9,6.8,15.9,15.3,15.6l250.8-9
				c7.9-0.3,14.2-7.5,14.2-16l0,0C743.6,698.4,737.3,691.7,729.4,691.9z"/>
			<g>
				<path class="st14" d="M423.4,734l-0.3,0c-8.5,0.3-15.4-6.4-15.4-15v-1.4c0-8.6,6.9-15.7,15.4-16l0.3,0c8.5-0.3,15.3,6.4,15.3,15
					v1.4C438.7,726.5,431.9,733.7,423.4,734z"/>
				<path class="st9" d="M423.3,737c-10.1,0.4-18.4-8-18.4-18.6c0-10.6,8.3-19.5,18.4-19.9c10.1-0.3,18.3,8,18.3,18.6
					C441.6,727.8,433.4,736.7,423.3,737z M423.3,704.6c-6.9,0.2-12.6,6.3-12.6,13.6c0,7.3,5.7,13,12.6,12.7
					c6.9-0.2,12.6-6.3,12.6-13.6S430.2,704.4,423.3,704.6z"/>
			</g>
			<path class="st9" d="M729.4,747.3l-250.8,9.8c-8.4,0.3-15.3,7.8-15.3,16.7l0,0c0,8.9,6.8,15.8,15.3,15.4l250.8-10.9
				c7.9-0.3,14.2-7.6,14.2-16.1l0,0C743.6,753.7,737.3,747,729.4,747.3z"/>
			<path class="st9" d="M423.3,794.7c-10.1,0.4-18.4-7.8-18.4-18.5c0-10.6,8.3-19.6,18.4-20c10.1-0.4,18.3,7.9,18.3,18.5
				C441.6,785.3,433.4,794.3,423.3,794.7z M423.3,762.3c-6.9,0.3-12.6,6.4-12.6,13.7c0,7.3,5.7,12.9,12.6,12.6
				c6.9-0.3,12.6-6.4,12.6-13.7C435.8,767.7,430.2,762.1,423.3,762.3z"/>
			<path class="st9" d="M729.4,802.6l-250.8,11.8c-8.4,0.4-15.3,7.9-15.3,16.8l0,0c0,8.9,6.8,15.8,15.3,15.3l250.8-12.9
				c7.9-0.4,14.2-7.7,14.2-16.2l0,0C743.6,808.9,737.3,802.3,729.4,802.6z"/>
			<g>
				<path class="st14" d="M423.4,849.4l-0.3,0c-8.5,0.4-15.4-6.2-15.4-14.7v-1.4c0-8.6,6.9-15.8,15.4-16.2l0.3,0
					c8.5-0.4,15.3,6.2,15.3,14.7v1.4C438.7,841.7,431.9,849,423.4,849.4z"/>
				<path class="st9" d="M423.3,852.4c-10.1,0.5-18.4-7.7-18.4-18.3c0-10.6,8.3-19.7,18.4-20.1c10.1-0.5,18.3,7.8,18.3,18.3
					S433.4,851.9,423.3,852.4z M423.3,820c-6.9,0.3-12.6,6.5-12.6,13.8c0,7.3,5.7,12.9,12.6,12.5c6.9-0.4,12.6-6.5,12.6-13.8
					C435.8,825.3,430.2,819.7,423.3,820z"/>
			</g>
			<g>
				<defs>
					<path id="SVGID_90_" d="M693.6,381.6c0,67.4-50.6,122.3-114.1,122.6C515,504.6,461.8,448.5,461.8,379S515,254.6,579.5,256.4
						C643,258.2,693.6,314.3,693.6,381.6z"/>
				</defs>
				<clipPath id="SVGID_34_">
					<use xlink:href="#SVGID_90_"  style="overflow:visible;"/>
				</clipPath>
				<g class="st43">
					<linearGradient id="SVGID_35_" gradientUnits="userSpaceOnUse" x1="717.8617" y1="229.7902" x2="454.4577" y2="545.1533">
						<stop  offset="0" style="stop-color:#AB316D"/>
						<stop  offset="1" style="stop-color:#792D3D"/>
					</linearGradient>
					<path class="st44" d="M601.7,283.4c24.2,14.8,30.9,40.6,32.5,46.8c10.7,43.3-22.2,65.3-8.2,95.9c11.5,25.1,43.9,33,42.6,35.8
						c-1.2,2.5-24.4-9.5-46.7-15c-73-17.7-136.4,34.5-145.4,21.5c-6.4-9.3,30.8-27.6,38.5-70.7c7.3-40.7-19.3-62.4-3.2-92.7
						c10.7-20.3,31.5-27.5,35-28.7C574.3,267.2,598,281.2,601.7,283.4z"/>
					<linearGradient id="SVGID_36_" gradientUnits="userSpaceOnUse" x1="595.687" y1="386.3065" x2="569.2315" y2="508.296">
						<stop  offset="0" style="stop-color:#AA80F9"/>
						<stop  offset="0.9964" style="stop-color:#6165D7"/>
					</linearGradient>
					<path class="st45" d="M452.2,470.7c0,0,111.9-69.6,250.4-0.2c0,0-17.7,59.6-123.1,63.5C471,538.1,452.2,470.7,452.2,470.7z"/>
					<linearGradient id="SVGID_37_" gradientUnits="userSpaceOnUse" x1="576.0303" y1="391.4157" x2="576.5372" y2="489.7657">
						<stop  offset="3.597000e-03" style="stop-color:#F36F56"/>
						<stop  offset="1" style="stop-color:#FFC444"/>
					</linearGradient>
					<path class="st46" d="M559.7,380.1l-4.2,33.2c-1.4,11.3-8.8,20.8-19,24.5l-34.1,12.3c0,0,65.3,33.5,147.8,0l-37.6-14
						c-10.7-4.3-18-15-18.4-27.3l-1.1-28.4L559.7,380.1z"/>
					<linearGradient id="SVGID_38_" gradientUnits="userSpaceOnUse" x1="677.7274" y1="211.6719" x2="447.4822" y2="487.3353">
						<stop  offset="0" style="stop-color:#AB316D"/>
						<stop  offset="1" style="stop-color:#792D3D"/>
					</linearGradient>
					<path class="st47" d="M564.1,402.6c-17.2-4.9-26.3-19.8-31.8-28.7c-9.1-14.9-21.7-45.6-9.9-63.1c0.7-1,1.4-1.5,2.8-3.2
						c8.1-10.1,7.1-18.4,10.3-23.7c7.6-12.8,38.3-7.4,40.2-7.1c32.9,6.1,47.2,36.2,47.4,36.9c0.3,0.6,0.5,1.2,0.5,1.2
						c2,4.9,13.4,32.9-0.9,59.1C611.3,395.1,586.5,409,564.1,402.6z"/>
					<linearGradient id="SVGID_39_" gradientUnits="userSpaceOnUse" x1="590.0704" y1="248.6409" x2="567.3033" y2="402.0713">
						<stop  offset="3.597000e-03" style="stop-color:#F36F56"/>
						<stop  offset="1" style="stop-color:#FFC444"/>
					</linearGradient>
					<path class="st48" d="M610.6,351.3c0,28.1-15.9,58.1-35.6,58c-19.8-0.1-35.9-30.7-35.9-59.1c0-28.4,16.1-43.5,35.9-43.1
						C594.7,307.5,610.6,323.2,610.6,351.3z"/>
					<linearGradient id="SVGID_40_" gradientUnits="userSpaceOnUse" x1="686.1717" y1="218.7252" x2="455.9265" y2="494.3885">
						<stop  offset="0" style="stop-color:#AB316D"/>
						<stop  offset="1" style="stop-color:#792D3D"/>
					</linearGradient>
					<path class="st49" d="M537.9,368.5c3.4-0.2-1.5-29.7,11.7-37.7c8.8-5.3,24-0.2,32.6,9.5c13.5,15.3,5.9,37,16.2,41.8
						c6.5,3,15.2-3.1,19.3-7.7c13-14.2,11.2-44.4-4.1-61.7c-12.2-13.8-28.8-14.5-32.8-14.6c-22.6-0.3-43.3,17.3-48,38.3
						C529.1,352.6,535.4,368.6,537.9,368.5z"/>
				</g>
			</g>
			<path class="st20" d="M610.5,740.1c-6.8-87.6,44.2-123.8,24.7-203.1c-24-98.1-116.6-102.4-148.1-198.8
				c-11.6-35.4-16.5-88.2,13.7-164l-126.7-5c-3.8-0.1-6.8,2.9-6.8,6.8v767.6c0,3.9,3.1,6.9,6.8,6.7l346.1-22.3
				C638.4,857.9,614.5,791.7,610.5,740.1z"/>
		</g>
		<path class="st9" d="M756.7,282.7l-36.6-29l-37,27.3v-91.6c0-7.1-3.2-14-8.7-18.6l-0.3-0.2l69.8,2.7c7.1,0.3,12.8,6.4,12.8,13.7
			V282.7z"/>
		<linearGradient id="SVGID_41_" gradientUnits="userSpaceOnUse" x1="771.8914" y1="135.0042" x2="660.8618" y2="331.7881">
			<stop  offset="0" style="stop-color:#FF9085"/>
			<stop  offset="1" style="stop-color:#FB6FBB"/>
		</linearGradient>
		<path class="st50" d="M763.4,282.7l-36.6-30.7l-37,28.8v-96.9c0-7.6-3.2-14.8-8.7-19.7l-0.3-0.3l69.8,2.9
			c7.1,0.3,12.8,6.8,12.8,14.5V282.7z"/>
	</g>
</g>
</svg>
