<svg id="Capa_1" enable-background="new 0 0 512 512" height="512" viewBox="0 0 512 512" width="512" xmlns="http://www.w3.org/2000/svg"><g><g><g><g><g><g><g><circle cx="256" cy="256" fill="#7584f2" r="256"/></g></g></g></g></g></g><path d="m393.283 123.447-93.157-93.157-21.051 106.11 39.676 39.676-24.799 21.979-62.029-62.029-54.654 41.38-32.51-32.51-53.795 8.586v12.758l27.598 27.598-37.857 35.923 208.036 208.036-27.589 6.597-62.966-22.221-76.399-76.399.591 47.436 118.34 118.34c5.057.299 10.152.45 15.282.45 141.385 0 256-114.615 256-256 0-5.131-.151-10.227-.449-15.283l-117.828-117.828z" fill="#4253ce"/><path d="m415.148 149.545c-27.926-41.748-69.878-70.203-118.706-80.698l20.364-13.622-16.68-24.936-63.58 42.529 42.529 63.58 24.936-16.68-14.499-21.676c41.433 8.748 77.036 32.805 100.7 68.181 18.222 27.242 27.543 58.637 27.292 90.706l17.497 10 12.512-10c.263-37.965-10.79-75.13-32.365-107.384z" fill="#fff"/><path d="m417.514 256.069c-.026 10.416-1.059 20.906-3.131 31.352-8.393 42.306-32.758 78.811-68.607 102.79-35.85 23.98-78.893 32.563-121.197 24.171-42.306-8.393-78.811-32.758-102.79-68.607l-24.936 16.68c28.435 42.51 71.723 71.402 121.888 81.354 12.548 2.489 25.146 3.719 37.656 3.719 37.505 0 74.182-11.058 106.059-32.381 42.51-28.435 71.402-71.722 81.355-121.888 2.458-12.391 3.683-24.834 3.713-37.19z" fill="#e9edf5"/><g><g fill="#ffce00"><path d="m80.707 229.762v-18.831c40.614-29.371 48.203-35.836 48.203-45.111 0-6.465-6.043-9.837-12.929-9.837-10.399 0-18.27 3.935-25.015 10.259l-13.351-16.022c9.978-10.962 24.875-15.599 37.944-15.599 22.064 0 37.944 12.367 37.944 31.199 0 14.334-10.259 26.561-33.588 42.863h34.291v21.08h-73.499z"/><path d="m207.612 229.762v-17.145h-44.83v-18.832l35.555-57.759h33.588v55.37h11.383v21.221h-11.383v17.145zm0-72.655-21.361 34.29h21.361z"/></g></g><g><g><path d="m311.005 365.025 34.647-79.259h-49.824v-22.996h80.178v18.243l-36.026 84.011h-28.975z" fill="#fdba12"/></g></g><path d="m283.707 256c0-2.705-.388-5.32-1.111-7.792l65.254-80.677-23.326-18.866-64.625 79.901c-1.274-.179-2.575-.272-3.898-.272-15.302 0-27.707 12.405-27.707 27.707 0 .314.031.62.041.931l25.229 10 30.12-10c.01-.311.023-.62.023-.932z" fill="#a3d4ff"/><path d="m228.296 256.069c.008 3.331.601 6.525 1.687 9.482l-48.807 60.344 23.325 18.866 49.443-61.13c.679.05 1.364.076 2.055.076 15.279 0 27.668-12.368 27.705-27.638z" fill="#65b1fc"/></g></svg>