<svg id="Capa_1" enable-background="new 0 0 510 510" height="512" viewBox="0 0 510 510" width="512" xmlns="http://www.w3.org/2000/svg"><g><path d="m480.065 295h-30v-205h-70v-30h100z" fill="#002659"/><path d="m200.065 300h100v90h-100z" fill="#002659"/><path d="m30.065 300h170v90h-170z" fill="#39326c"/><path d="m200.065 120h170v90h-170z" fill="#002659"/><path d="m30.065 120h170v90h-170z" fill="#39326c"/><path d="m200.065 0h200v150h-200z" fill="#5f55ae"/><path d="m.065 0h200v150h-200z" fill="#918edd"/><path d="m400.065 180v75h-15l-110 60v15h-75v-150z" fill="#5f55ae"/><path d="m.065 180h200v150h-200z" fill="#918edd"/><path d="m400.075 510h-200.01v-150h199.93z" fill="#5f55ae"/><path d="m.065 360h200v150h-200z" fill="#918edd"/><path d="m60.065 60h120v30h-120z" fill="#dceaec"/><path d="m210.065 60h30v30h-30z" fill="#ff4a4a"/><path d="m270.065 60h30v30h-30z" fill="#ffd322"/><path d="m60.065 240h120v30h-120z" fill="#dceaec"/><path d="m210.065 240h30v30h-30z" fill="#ff4a4a"/><path d="m60.065 420h120v30h-120z" fill="#dceaec"/><path d="m210.065 420h30v30h-30z" fill="#ff4a4a"/><path d="m270.065 420h45v30h-45z" fill="#ffd322"/><path d="m494.935 310c0 51-20.26 99.9-56.32 135.97l-49.04 49.03h-5.01v-247.01c.14-.11.29-.23.43-.34l14.74 10.71c23.69 17.24 49.23 31.79 76.13 43.41z" fill="#007579"/><path d="m384.565 247.99v247.01h-4.15l-49.03-49.03c-18.03-18.03-32.11-39.28-41.68-62.39-9.58-23.1-14.64-48.08-14.64-73.58l9.68-3.88c18.05-7.24 35.52-15.78 52.27-25.55 16.6-9.68 32.49-20.56 47.55-32.58z" fill="#00baa0"/><path d="m384.565 228.79-8.94 7.15c-29.24 23.39-61.7 42.32-96.46 56.26l-19.1 7.65v10.15c0 27.36 5.31 54.05 15.78 79.32 10.47 25.28 25.59 47.91 44.93 67.25l53.43 53.43h10.36v-32.06l-42.58-42.58c-31.1-31.11-49.23-71.74-51.64-115.32 33.65-13.5 65.29-31.32 94.22-53.08z" fill="#00ed89"/><path d="m509.935 300.14v9.86c0 27.36-5.31 54.05-15.78 79.32-10.47 25.28-25.59 47.91-44.93 67.25l-53.43 53.43h-11.23v-32.06l.43.43 43.01-43.01c31.18-31.18 49.31-71.92 51.67-115.61l-9.76-4.21c-27.87-12.03-54.45-27.19-79.01-45.05l-5.61-4.08c-.24.18-.49.37-.73.55v-38.17l23.99 17.44c22.76 16.56 47.41 30.61 73.25 41.77z" fill="#00baa0"/><path d="m438.125 349.06-53.56 53.47v-42.38l32.37-32.32z" fill="#b3d1d6"/><path d="m384.565 360.15v42.38l-12.31 12.29-40.39-40.83 21.33-21.1 19.2 19.41z" fill="#dceaec"/></g></svg>