<?xml version="1.0" encoding="utf-8"?>
<!-- Generator: Adobe Illustrator 23.0.2, SVG Export Plug-In . SVG Version: 6.00 Build 0)  -->
<svg version="1.1" id="Layer_1" xmlns="http://www.w3.org/2000/svg" xmlns:xlink="http://www.w3.org/1999/xlink" x="0px" y="0px"
	 viewBox="0 0 1080 1080" style="enable-background:new 0 0 1080 1080;" xml:space="preserve">
<style type="text/css">
	.st0{opacity:0.3098;clip-path:url(#SVGID_1_);}
	.st1{clip-path:url(#SVGID_2_);}
	.st2{clip-path:url(#SVGID_3_);fill:url(#SVGID_4_);}
	.st3{clip-path:url(#SVGID_5_);}
	.st4{clip-path:url(#SVGID_6_);fill:url(#SVGID_7_);}
	.st5{clip-path:url(#SVGID_8_);}
	.st6{clip-path:url(#SVGID_9_);fill:url(#SVGID_10_);}
	.st7{opacity:0.2706;clip-path:url(#SVGID_1_);}
	.st8{clip-path:url(#SVGID_11_);fill:#631480;}
	.st9{clip-path:url(#SVGID_12_);fill:url(#SVGID_13_);}
	.st10{opacity:0.4392;clip-path:url(#SVGID_14_);}
	.st11{clip-path:url(#SVGID_15_);fill:#BA620F;}
	.st12{clip-path:url(#SVGID_16_);fill:url(#SVGID_17_);}
	.st13{opacity:0.2588;clip-path:url(#SVGID_18_);}
	.st14{clip-path:url(#SVGID_19_);fill:#326F7D;}
	.st15{clip-path:url(#SVGID_20_);fill:url(#SVGID_21_);}
	.st16{clip-path:url(#SVGID_22_);fill:url(#SVGID_23_);}
	.st17{opacity:0.3686;clip-path:url(#SVGID_24_);}
	.st18{clip-path:url(#SVGID_25_);fill:#B56100;}
	.st19{clip-path:url(#SVGID_26_);fill:url(#SVGID_27_);}
	.st20{opacity:0.3294;clip-path:url(#SVGID_28_);}
	.st21{clip-path:url(#SVGID_29_);fill:#A8A8A8;}
	.st22{clip-path:url(#SVGID_30_);fill:url(#SVGID_31_);}
	.st23{clip-path:url(#SVGID_32_);fill:#474BAC;}
	.st24{clip-path:url(#SVGID_33_);fill:url(#SVGID_34_);}
	.st25{clip-path:url(#SVGID_35_);fill:#474BAC;}
	.st26{clip-path:url(#SVGID_36_);fill:url(#SVGID_37_);}
	.st27{fill:none;}
</style>
<g>
	<defs>
		<rect id="SVGID_64_" x="-102.2" y="-149.1" width="1309.8" height="1386.2"/>
	</defs>
	<clipPath id="SVGID_1_">
		<use xlink:href="#SVGID_64_"  style="overflow:visible;"/>
	</clipPath>
	<g class="st0">
		<g>
			<defs>
				<rect id="SVGID_66_" x="148" y="189.1" width="871.3" height="868.8"/>
			</defs>
			<clipPath id="SVGID_2_">
				<use xlink:href="#SVGID_66_"  style="overflow:visible;"/>
			</clipPath>
			<g class="st1">
				<defs>
					<path id="SVGID_68_" d="M627.1,428.9C530.6,399,429.4,164.1,270.3,191.3c-188,32.1-157.3,475.3,78.2,704.5
						C473.2,1017.1,649.5,1078,816.8,1052C1040,1017.2,1196.5,605.5,627.1,428.9"/>
				</defs>
				<clipPath id="SVGID_3_">
					<use xlink:href="#SVGID_68_"  style="overflow:visible;"/>
				</clipPath>
				
					<linearGradient id="SVGID_4_" gradientUnits="userSpaceOnUse" x1="-958.7684" y1="2036.088" x2="-958.3116" y2="2036.088" gradientTransform="matrix(2251.8582 1513.1472 1513.1472 -2251.8582 -921781 6036004)">
					<stop  offset="0" style="stop-color:#DCBDE5"/>
					<stop  offset="1" style="stop-color:#D829FF"/>
				</linearGradient>
				<polygon class="st2" points="428.9,-383.6 1595,448.4 849.9,1625.7 -316.1,793.7 				"/>
			</g>
		</g>
	</g>
	<g class="st0">
		<g>
			<defs>
				<rect id="SVGID_71_" x="68.9" y="248" width="967.5" height="772.1"/>
			</defs>
			<clipPath id="SVGID_5_">
				<use xlink:href="#SVGID_71_"  style="overflow:visible;"/>
			</clipPath>
			<g class="st3">
				<defs>
					<path id="SVGID_73_" d="M415.2,509.4c-62.9,83.4-305.9,93.2-342.9,259.7c-43.7,196.7,353.9,335.6,643.2,191.8
						c153.1-76.2,273.4-225.9,314.5-400.1C1084.7,328.4,786,17.8,415.2,509.4"/>
				</defs>
				<clipPath id="SVGID_6_">
					<use xlink:href="#SVGID_73_"  style="overflow:visible;"/>
				</clipPath>
				
					<linearGradient id="SVGID_7_" gradientUnits="userSpaceOnUse" x1="-958.7031" y1="2036.0597" x2="-958.2645" y2="2036.0597" gradientTransform="matrix(3112.4504 -221.601 -221.601 -3112.4504 3434949.25 6125297.5)">
					<stop  offset="0" style="stop-color:#F8E3FF"/>
					<stop  offset="1" style="stop-color:#9126C7"/>
				</linearGradient>
				<polygon class="st4" points="-44,23.2 1079.4,-61.7 1157.2,1099.2 33.8,1184.2 				"/>
			</g>
		</g>
	</g>
	<g class="st0">
		<g>
			<defs>
				<rect id="SVGID_76_" x="271.1" y="30.1" width="120.6" height="140.4"/>
			</defs>
			<clipPath id="SVGID_8_">
				<use xlink:href="#SVGID_76_"  style="overflow:visible;"/>
			</clipPath>
			<g class="st5">
				<defs>
					<path id="SVGID_78_" d="M342.2,74.1c-13.5-6.9-23-43.9-47-44c-28.3-0.1-33.9,65.8-4.5,105.4c15.6,21,40.1,34.5,65.2,34.9
						C389.4,171,421.7,114.6,342.2,74.1"/>
				</defs>
				<clipPath id="SVGID_9_">
					<use xlink:href="#SVGID_78_"  style="overflow:visible;"/>
				</clipPath>
				
					<linearGradient id="SVGID_10_" gradientUnits="userSpaceOnUse" x1="-957.7758" y1="2035.3765" x2="-957.3223" y2="2035.3765" gradientTransform="matrix(412.0328 224.6693 224.6693 -412.0328 -62366.5469 1053894.375)">
					<stop  offset="0" style="stop-color:#DCBDE5"/>
					<stop  offset="1.993471e-02" style="stop-color:#DAB4E4"/>
					<stop  offset="9.021991e-02" style="stop-color:#D399DF"/>
					<stop  offset="0.171" style="stop-color:#CD83DC"/>
					<stop  offset="0.2652" style="stop-color:#C972D9"/>
					<stop  offset="0.3819" style="stop-color:#C667D7"/>
					<stop  offset="0.5456" style="stop-color:#C460D6"/>
					<stop  offset="1" style="stop-color:#C45ED6"/>
				</linearGradient>
				<polygon class="st6" points="298,-41.7 477.6,62.3 385,242.7 205.4,138.7 				"/>
			</g>
		</g>
	</g>
	<g class="st7">
		<g>
			<defs>
				<rect id="SVGID_81_" x="304.1" y="250.5" width="676.5" height="724.3"/>
			</defs>
			<clipPath id="SVGID_11_">
				<use xlink:href="#SVGID_81_"  style="overflow:visible;"/>
			</clipPath>
			<path class="st8" d="M980.5,357.4l-8.3,160.2c-1,19-15.7,33.6-32.8,32.6l-25.6-1.5l-8.2,159.6l-12.1,233.9v0
				c-1,19-15.7,33.6-32.8,32.6l-6.9-0.4l-361.1-21l-119.7,14.1L304.1,308l79.2-9.3l0.1-12.3l0.3-28.2l107.9,1.3
				c5.9-5.9,13.9-9.4,22.5-8.9l185.7,10.8l-3.9,0.5l6.6,0.1l8.2,0.1l-10.9-0.6l29.6-3.5l0.4,4.3l25.4,0.3l56.4,0.7l-0.1,4.7
				l72.8,4.2l12.5,0.7c17.1,1,30.2,17.2,29.2,36.2l-0.5,10.7l25.6,1.5C968.4,322.2,981.5,338.4,980.5,357.4"/>
		</g>
	</g>
</g>
<g>
	<defs>
		<path id="SVGID_83_" d="M470.9,277l-32.7,633.2c-1,19,12.1,35.2,29.2,36.2l375.8,21.9l6.9,0.4c17.1,1,31.8-13.6,32.8-32.6v0
			l12.1-233.9l8.2-159.6l25.6,1.5c17.1,1,31.8-13.6,32.8-32.6l8.3-160.2c1-19-12.1-35.2-29.2-36.2l-25.6-1.5l0.5-10.7
			c1-19-12.1-35.2-29.2-36.2l-12.5-0.7l-370.2-21.5c-0.6,0-1.1,0-1.7,0C485.6,244.4,471.9,258.7,470.9,277"/>
	</defs>
	<clipPath id="SVGID_12_">
		<use xlink:href="#SVGID_83_"  style="overflow:visible;"/>
	</clipPath>
	
		<linearGradient id="SVGID_13_" gradientUnits="userSpaceOnUse" x1="-958.7704" y1="2035.9302" x2="-958.3029" y2="2035.9302" gradientTransform="matrix(522.6991 2052.2817 2052.2817 -522.6991 -3676579.5 3031943.25)">
		<stop  offset="0" style="stop-color:#F1D83A"/>
		<stop  offset="1" style="stop-color:#FF8A14"/>
	</linearGradient>
	<polygon class="st9" points="938.5,108.9 1134.4,925.5 469.8,1105.2 273.9,288.6 	"/>
</g>
<g>
	<defs>
		<rect id="SVGID_86_" x="-102.2" y="-149.1" width="1309.8" height="1386.2"/>
	</defs>
	<clipPath id="SVGID_14_">
		<use xlink:href="#SVGID_86_"  style="overflow:visible;"/>
	</clipPath>
	<g class="st10">
		<g>
			<defs>
				<rect id="SVGID_88_" x="429.9" y="244" width="456.9" height="723.8"/>
			</defs>
			<clipPath id="SVGID_15_">
				<use xlink:href="#SVGID_88_"  style="overflow:visible;"/>
			</clipPath>
			<path class="st11" d="M886.8,701.8l-12.1,233.9c-0.6,0-1.2,0-1.8-0.1l-27.3-1.8l-0.6,10.9c-0.5,9.1-4.3,17.2-10,23.1L459.2,946
				c-17.1-1-30.2-17.2-29.2-36.2l32.7-633.2c1-19,15.7-33.6,32.8-32.6l370.2,21.5c10.4,6.5,17.1,18.8,16.3,32.5L859,700l27.3,1.8
				C886.5,701.8,886.7,701.8,886.8,701.8"/>
		</g>
	</g>
</g>
<g>
	<defs>
		<polygon id="SVGID_90_" points="769.1,951 842.8,955.7 865.5,957.1 866.8,935.2 880.1,701.4 902.6,303.7 881.7,302.3 805.8,297.5 
					"/>
	</defs>
	<clipPath id="SVGID_16_">
		<use xlink:href="#SVGID_90_"  style="overflow:visible;"/>
	</clipPath>
	
		<linearGradient id="SVGID_17_" gradientUnits="userSpaceOnUse" x1="-958.9286" y1="2035.8805" x2="-958.4638" y2="2035.8805" gradientTransform="matrix(1137.0529 1601.5511 1601.5511 -1137.0529 -2169589.75 3851006.5)">
		<stop  offset="0" style="stop-color:#FFFFFF"/>
		<stop  offset="1" style="stop-color:#CFF9FF"/>
	</linearGradient>
	<polygon class="st12" points="857.9,230.6 1195.8,736.1 813.8,1024.1 475.9,518.6 	"/>
</g>
<g>
	<defs>
		<rect id="SVGID_93_" x="-102.2" y="-149.1" width="1309.8" height="1386.2"/>
	</defs>
	<clipPath id="SVGID_18_">
		<use xlink:href="#SVGID_93_"  style="overflow:visible;"/>
	</clipPath>
	<g class="st13">
		<g>
			<defs>
				<rect id="SVGID_95_" x="769.1" y="297.5" width="117.8" height="658.1"/>
			</defs>
			<clipPath id="SVGID_19_">
				<use xlink:href="#SVGID_95_"  style="overflow:visible;"/>
			</clipPath>
			<path class="st14" d="M886.8,701.8l-12.1,233.9c-0.6,0-1.2,0-1.8-0.1l-6.2-0.4l-21.1-1.4l-0.6,10.9c-0.2,3.9-1,7.5-2.3,10.9
				l-73.7-4.7l36.7-653.5l75.9,4.8L859,700l21.1,1.4l6.3,0.4C886.5,701.8,886.7,701.8,886.8,701.8"/>
		</g>
	</g>
</g>
<g>
	<defs>
		<path id="SVGID_97_" d="M396.7,254.9l-36.9,646.7c-1.1,19.4,12.8,36.1,31.1,37.2l407.8,26.2c18.3,1.2,34-13.6,35.1-33l0.6-10.9
			l27.3,1.8c18.3,1.2,34-13.6,35.1-33l9.3-163.6c1.1-19.4-12.8-36.1-31.1-37.2l-27.3-1.8l22.9-401.9c1.1-19.4-12.8-36.1-31.1-37.2
			l-407.8-26.2c-0.7,0-1.4-0.1-2-0.1C412.4,221.9,397.8,236.2,396.7,254.9"/>
	</defs>
	<clipPath id="SVGID_20_">
		<use xlink:href="#SVGID_97_"  style="overflow:visible;"/>
	</clipPath>
	
		<linearGradient id="SVGID_21_" gradientUnits="userSpaceOnUse" x1="-958.7657" y1="2036.0093" x2="-958.2975" y2="2036.0093" gradientTransform="matrix(1037.4226 2111.8665 -2111.8665 1037.4226 5294809 -87329.5625)">
		<stop  offset="0" style="stop-color:#F1D83A"/>
		<stop  offset="1" style="stop-color:#FF8A14"/>
	</linearGradient>
	<polygon class="st15" points="81.3,366.6 465.4,1196.7 1184.6,821.5 800.6,-8.6 	"/>
</g>
<g>
	<defs>
		<polygon id="SVGID_100_" points="932.9,504.5 947.2,505.4 956.2,345.9 941.9,345 		"/>
	</defs>
	<clipPath id="SVGID_22_">
		<use xlink:href="#SVGID_100_"  style="overflow:visible;"/>
	</clipPath>
	
		<linearGradient id="SVGID_23_" gradientUnits="userSpaceOnUse" x1="-961.6373" y1="2031.5442" x2="-961.1662" y2="2031.5442" gradientTransform="matrix(20.8988 541.1771 97.4284 -377.5222 -176892.4219 1287692.25)">
		<stop  offset="0" style="stop-color:#FFFFFF"/>
		<stop  offset="1" style="stop-color:#CFF9FF"/>
	</linearGradient>
	<polygon class="st16" points="953.1,261.9 961.2,484.6 936,588.6 927.9,365.9 	"/>
</g>
<g>
	<defs>
		<rect id="SVGID_103_" x="-102.2" y="-149.1" width="1309.8" height="1386.2"/>
	</defs>
	<clipPath id="SVGID_24_">
		<use xlink:href="#SVGID_103_"  style="overflow:visible;"/>
	</clipPath>
	<g class="st17">
		<g>
			<defs>
				<rect id="SVGID_105_" x="376.9" y="263.8" width="434.8" height="668.5"/>
			</defs>
			<clipPath id="SVGID_25_">
				<use xlink:href="#SVGID_105_"  style="overflow:visible;"/>
			</clipPath>
			<polygon class="st18" points="811.7,268.8 803.1,932.3 376.9,927.3 383.8,263.8 			"/>
		</g>
	</g>
</g>
<g>
	<defs>
		<polygon id="SVGID_107_" points="373,280.3 366.4,915.6 711.1,919.6 792.6,920.6 801.2,257.1 744.8,256.4 692.1,255.8 
			373.3,252.1 		"/>
	</defs>
	<clipPath id="SVGID_26_">
		<use xlink:href="#SVGID_107_"  style="overflow:visible;"/>
	</clipPath>
	
		<linearGradient id="SVGID_27_" gradientUnits="userSpaceOnUse" x1="-958.8058" y1="2036.0017" x2="-958.3396" y2="2036.0017" gradientTransform="matrix(1640.3401 2196.9072 2196.9072 -1640.3401 -2899861.5 5446319)">
		<stop  offset="0" style="stop-color:#FFFFFF"/>
		<stop  offset="1" style="stop-color:#CFF9FF"/>
	</linearGradient>
	<polygon class="st19" points="645.5,30.7 1103,681.3 522,1141.9 64.6,491.4 	"/>
</g>
<g>
	<defs>
		<rect id="SVGID_110_" x="-102.2" y="-149.1" width="1309.8" height="1386.2"/>
	</defs>
	<clipPath id="SVGID_28_">
		<use xlink:href="#SVGID_110_"  style="overflow:visible;"/>
	</clipPath>
	<g class="st20">
		<g>
			<defs>
				<rect id="SVGID_112_" x="366.4" y="251.8" width="421.4" height="667.8"/>
			</defs>
			<clipPath id="SVGID_29_">
				<use xlink:href="#SVGID_112_"  style="overflow:visible;"/>
			</clipPath>
			<polygon class="st21" points="787.8,913.7 711.1,919.6 366.4,915.6 373,280.3 692.1,255.8 744.5,251.8 744.8,256.4 			"/>
		</g>
	</g>
</g>
<g>
	<defs>
		<polygon id="SVGID_114_" points="293.6,301.9 362.5,961.3 786.2,911.5 719,251.8 		"/>
	</defs>
	<clipPath id="SVGID_30_">
		<use xlink:href="#SVGID_114_"  style="overflow:visible;"/>
	</clipPath>
	
		<linearGradient id="SVGID_31_" gradientUnits="userSpaceOnUse" x1="-958.7979" y1="2036.0239" x2="-958.3331" y2="2036.0239" gradientTransform="matrix(1826.1708 2049.7114 2049.7114 -1826.1708 -2422132 5683612)">
		<stop  offset="0" style="stop-color:#FFFFFF"/>
		<stop  offset="1" style="stop-color:#CFF9FF"/>
	</linearGradient>
	<polygon class="st22" points="568.2,-8 1118,647.4 511.6,1221.1 -38.3,565.8 	"/>
</g>
<g>
	<defs>
		<rect id="SVGID_117_" x="-102.2" y="-149.1" width="1309.8" height="1386.2"/>
	</defs>
	<clipPath id="SVGID_32_">
		<use xlink:href="#SVGID_117_"  style="overflow:visible;"/>
	</clipPath>
	<polygon class="st23" points="696.5,438.9 695.8,432.3 369.8,470.7 370.5,477.3 	"/>
	<polygon class="st23" points="631,387.3 630.3,380.7 409.7,406.7 410.4,413.2 	"/>
	<polygon class="st23" points="702.1,461.5 701.4,454.9 372.2,493.7 372.9,500.2 	"/>
	<polygon class="st23" points="704.5,484.4 703.8,477.9 373.8,516.7 374.5,523.3 	"/>
	<polygon class="st23" points="707.1,506.4 706.5,499.9 376.5,538.7 377.2,545.3 	"/>
	<polygon class="st23" points="613.5,543.5 612.8,536.9 376.5,564.7 377.2,571.3 	"/>
	<polygon class="st23" points="561.5,612.1 560.8,605.5 444.9,619.2 445.6,625.7 	"/>
	<polygon class="st23" points="724,616.2 723.3,609.6 447.3,642.1 448,648.7 	"/>
	<polygon class="st23" points="726.4,639.2 725.7,632.6 449.1,665.2 449.8,671.7 	"/>
	<polygon class="st23" points="571,723.1 570.3,716.5 454.4,730.2 455.1,736.7 	"/>
	<polygon class="st23" points="733.5,727.2 732.8,720.6 456.8,753.1 457.5,759.7 	"/>
	<polygon class="st23" points="735.9,750.2 735.2,743.6 458.5,776.2 459.2,782.7 	"/>
	<path class="st23" d="M377.2,625.2l5.2,52.7l52.6-5.8l-5.2-52.7L377.2,625.2z M427.8,666.3l-39.6,4.4l-3.9-39.7l39.6-4.4
		L427.8,666.3z"/>
</g>
<g>
	<defs>
		<polygon id="SVGID_119_" points="403.9,651.6 388.5,641.3 384.4,648.2 405.8,662.7 438.2,616.2 432,611.3 		"/>
	</defs>
	<clipPath id="SVGID_33_">
		<use xlink:href="#SVGID_119_"  style="overflow:visible;"/>
	</clipPath>
	
		<linearGradient id="SVGID_34_" gradientUnits="userSpaceOnUse" x1="-959.0907" y1="2037.2216" x2="-958.6218" y2="2037.2216" gradientTransform="matrix(43.9222 167.4609 167.4609 -43.9222 -298626.5 250695.1719)">
		<stop  offset="0" style="stop-color:#FFED4D"/>
		<stop  offset="1" style="stop-color:#FF9326"/>
	</linearGradient>
	<polygon class="st24" points="434.7,597.3 450.1,659.4 387.8,676.8 372.5,614.6 	"/>
</g>
<g>
	<defs>
		<rect id="SVGID_122_" x="-102.2" y="-149.1" width="1309.8" height="1386.2"/>
	</defs>
	<clipPath id="SVGID_35_">
		<use xlink:href="#SVGID_122_"  style="overflow:visible;"/>
	</clipPath>
	<path class="st25" d="M388.9,738.5l5.2,52.7l52.6-5.8l-5.2-52.7L388.9,738.5z M439.5,779.6l-39.6,4.4l-3.9-39.7l39.6-4.4
		L439.5,779.6z"/>
</g>
<g>
	<defs>
		<polygon id="SVGID_124_" points="415.6,764.9 400.3,754.6 396.1,761.5 417.5,776 449.9,729.5 443.7,724.6 		"/>
	</defs>
	<clipPath id="SVGID_36_">
		<use xlink:href="#SVGID_124_"  style="overflow:visible;"/>
	</clipPath>
	
		<linearGradient id="SVGID_37_" gradientUnits="userSpaceOnUse" x1="-959.8452" y1="2037.3291" x2="-959.3763" y2="2037.3291" gradientTransform="matrix(43.9222 167.4609 167.4609 -43.9222 -298599.6563 250939.5313)">
		<stop  offset="0" style="stop-color:#FFED4D"/>
		<stop  offset="1" style="stop-color:#FF9326"/>
	</linearGradient>
	<polygon class="st26" points="446.5,710.6 461.8,772.7 399.6,790 384.2,727.9 	"/>
</g>
<rect x="-102.2" y="-149.1" class="st27" width="1309.8" height="1386.2"/>
</svg>
