<svg width="58" height="52" viewBox="0 0 58 52" fill="none" xmlns="http://www.w3.org/2000/svg">
<path d="M56.8081 12.1095L50.9151 1.90253C50.4073 1.02316 49.5876 0.39405 48.6067 0.131186C47.6259 -0.131677 46.6014 0.00326764 45.722 0.51104C44.8426 1.0187 44.2136 1.83852 43.9507 2.81938C43.8945 3.02904 43.8577 3.24072 43.8376 3.4525L42.5245 4.21065C41.8555 3.79366 41.128 3.47894 40.3555 3.27261L32.0556 1.04792C31.104 0.792862 30.1105 0.92357 29.2593 1.4155C28.4073 1.90655 27.7976 2.70138 27.5423 3.65336C27.2872 4.60411 27.4178 5.59712 27.9099 6.44951C28.4021 7.302 29.1971 7.9116 30.1476 8.16565L31.729 8.58978L30.5063 9.29551L22.8288 4.86329C20.5545 3.55009 17.8361 3.42819 15.4673 4.51266L13.6994 3.49165C13.5962 2.25674 12.8944 1.13413 11.8135 0.510705C9.998 -0.536846 7.66858 0.0872459 6.6207 1.90198L5.87014 3.20124C5.63906 3.60128 5.77601 4.11284 6.17605 4.34392C6.57587 4.575 7.08754 4.43805 7.31873 4.03812L8.06929 2.73875C8.65625 1.72253 9.96086 1.37313 10.9776 1.95986C11.6337 2.33837 12.0414 3.04611 12.0414 3.80704C12.0414 4.17886 11.943 4.54533 11.7564 4.86764L5.86333 15.0745C5.2766 16.0912 3.97199 16.441 2.95577 15.8547C2.29845 15.4746 1.89016 14.7671 1.89016 14.008C1.89016 13.6374 1.98908 13.2704 2.17622 12.9463L5.65467 6.9217C5.88564 6.52166 5.74858 6.0101 5.34854 5.77913C4.94839 5.54816 4.43693 5.68523 4.20597 6.08527L0.727622 12.1098C0.393717 12.6878 0.217285 13.3442 0.217285 14.008C0.217285 15.3626 0.945765 16.625 2.11889 17.3031C2.716 17.6476 3.36853 17.8113 4.01269 17.8113C4.56318 17.8113 5.10686 17.6903 5.60549 17.462L6.92103 18.2221C6.89494 19.0119 6.98594 19.799 7.19271 20.5688L9.4164 28.87C9.67146 29.8217 10.2817 30.6165 11.1331 31.1071C11.7 31.4353 12.3298 31.603 12.9686 31.603C13.289 31.603 13.6116 31.5609 13.9297 31.4755C15.8924 30.9494 17.0613 28.9247 16.5354 26.9624L16.1118 25.3814L18.2966 26.6427V35.9911C18.2966 38.6169 19.5503 41.0321 21.6735 42.5419V44.5835C20.6845 45.2706 20.0353 46.4142 20.0353 47.707C20.0353 49.8032 21.7408 51.5086 23.8369 51.5086H35.623C37.7192 51.5086 39.4246 49.8032 39.4246 47.707C39.4246 46.4284 38.7896 45.2961 37.8191 44.6067V43.0879C38.5168 42.7154 39.1533 42.2429 39.7162 41.679L40.6876 40.7088C41.0144 40.3823 41.0147 39.8527 40.6883 39.5259C40.3618 39.199 39.8323 39.1988 39.5053 39.5253L38.5332 40.4964C37.9836 41.0469 37.3466 41.4869 36.64 41.8043C36.3396 41.9392 36.1462 42.2379 36.1462 42.5673V43.9423C35.9751 43.9187 35.8006 43.9054 35.6231 43.9054H23.8369C23.6706 43.9054 23.5071 43.9173 23.3464 43.9381V42.0946C23.3464 41.7853 23.1785 41.5153 22.9288 41.3708C21.075 40.1939 19.9694 38.1852 19.9694 35.9911V20.7382C19.9694 19.8596 20.6656 19.1265 21.5211 19.1041C21.9663 19.0932 22.3811 19.2579 22.693 19.5709C22.9936 19.8716 23.1594 20.2709 23.1601 20.6957L23.1603 28.5504C23.1603 29.0123 23.5348 29.3868 23.9967 29.3868C24.4586 29.3868 24.8331 29.0123 24.8331 28.5504L24.833 18.6158C24.833 17.736 25.5488 17.0203 26.4286 17.0203C27.3084 17.0203 28.0242 17.736 28.0242 18.6158V28.5504C28.0242 29.0123 28.3987 29.3868 28.8606 29.3868C29.3227 29.3868 29.6971 29.0123 29.6971 28.5504V17.4623C29.6971 16.5825 30.4128 15.8668 31.2926 15.8668C32.1725 15.8668 32.8882 16.5825 32.8882 17.4623L32.8874 28.5499C32.8874 29.0118 33.2618 29.3863 33.7239 29.3863C34.1859 29.3863 34.5603 29.0118 34.5603 28.5499L34.5611 18.5996C34.5651 18.1787 34.7299 17.7845 35.0297 17.4862C35.3301 17.1851 35.7301 17.0193 36.1562 17.0193C37.0363 17.0193 37.7521 17.7351 37.7521 18.6152V33.5684C37.7521 33.9067 37.9559 34.2117 38.2685 34.3412C38.5811 34.4706 38.9408 34.399 39.1801 34.1598L41.7656 31.5743C42.1453 31.1942 42.6504 30.9848 43.1875 30.9848C43.725 30.9848 44.2304 31.1943 44.6107 31.5746C44.9907 31.9546 45.1999 32.4599 45.1999 32.9973C45.1999 33.5347 44.9907 34.0401 44.6107 34.42L41.8594 37.1713C41.5327 37.498 41.5327 38.0276 41.8594 38.3542C42.0228 38.5174 42.2369 38.5992 42.4509 38.5992C42.6649 38.5992 42.8791 38.5175 43.0424 38.3542L45.7937 35.6028C46.4895 34.9068 46.8729 33.9815 46.8729 32.9973C46.8729 32.0131 46.4895 31.0878 45.7936 30.3917C45.0974 29.6954 44.1718 29.312 43.1876 29.312C42.2033 29.312 41.278 29.6955 40.5825 30.3917L39.4252 31.549V28.5439L46.14 24.6663C48.4142 23.3532 49.8791 21.0599 50.1251 18.4664L51.8904 17.4468C52.0949 17.5431 52.3091 17.6227 52.5322 17.6825C52.8598 17.7703 53.1921 17.8137 53.5224 17.8137C54.1811 17.8137 54.8313 17.6409 55.417 17.3026C57.2319 16.2544 57.8561 13.9249 56.8081 12.1095ZM35.623 45.5783C36.7967 45.5783 37.7517 46.5333 37.7517 47.7071C37.7517 48.8809 36.7968 49.8359 35.623 49.8359H23.8369C22.6631 49.8359 21.7082 48.8809 21.7082 47.7071C21.7082 46.5333 22.6631 45.5783 23.8369 45.5783H35.623ZM34.2089 15.9893C33.6692 14.9252 32.5651 14.1938 31.2925 14.1938C30.7739 14.1938 30.2836 14.3157 29.8476 14.5315L26.8414 12.7959C26.4412 12.5649 25.9297 12.702 25.6988 13.1021C25.4678 13.5021 25.6049 14.0137 26.0049 14.2446L28.5375 15.7068C28.4788 15.7988 28.4243 15.8939 28.3748 15.9918C27.8307 15.5872 27.1571 15.3473 26.4285 15.3473C24.8752 15.3473 23.5723 16.4369 23.2419 17.8917C22.7166 17.5762 22.1108 17.4157 21.4772 17.4317C19.7233 17.4776 18.2964 18.9608 18.2964 20.7381V24.711L15.1993 22.923C14.9062 22.7539 14.5403 22.7778 14.2719 22.9838C14.0035 23.1898 13.8856 23.5371 13.9731 23.8639L14.9193 27.3953C15.2064 28.4668 14.5682 29.5724 13.4963 29.8597C12.9767 29.9991 12.4349 29.9278 11.9696 29.6584C11.5044 29.3902 11.1714 28.9564 11.0321 28.4368L8.80826 20.1351C8.6064 19.3839 8.54383 18.6125 8.62212 17.8425C8.65547 17.515 8.49353 17.1984 8.20848 17.0336L7.01851 16.3462C7.12468 16.2097 7.22293 16.0644 7.31182 15.9104L13.2042 5.70452C13.2868 5.56199 13.3595 5.41456 13.4224 5.26333L15.0165 6.18408C15.2616 6.32571 15.5766 6.33151 15.827 6.19913C17.7783 5.16731 20.0828 5.20946 21.992 6.31177L35.2012 13.9375C35.7212 14.2379 36.0243 14.7871 36.0273 15.3492C35.363 15.3749 34.7337 15.5977 34.2089 15.9893ZM48.9305 17.2242C48.6647 17.3639 48.4835 17.6426 48.4829 17.9637C48.3908 20.1577 47.2038 22.1201 45.303 23.2175L39.4248 26.6119V18.6151C39.4248 17.3624 38.7162 16.2727 37.6792 15.7241C37.8216 14.4541 37.1989 13.1598 36.0381 12.4891L32.1793 10.2614L34.3138 9.02941C34.6068 8.86034 34.7691 8.53134 34.725 8.19598C34.681 7.86052 34.4393 7.58472 34.1125 7.49706L30.5803 6.54966C30.0612 6.41081 29.6272 6.07824 29.3587 5.61296C29.0901 5.14779 29.0188 4.60578 29.1581 4.08652C29.2975 3.56637 29.63 3.13254 30.0954 2.86432C30.5604 2.59566 31.1026 2.5244 31.6224 2.66369L39.9231 4.88861C40.6777 5.09013 41.3766 5.42136 42.0007 5.87315C42.2679 6.06664 42.6239 6.08493 42.9094 5.91999L44.1001 5.23244C44.1658 5.39326 44.2421 5.55095 44.3304 5.70396L50.2234 15.9109C50.3061 16.0542 50.3979 16.1901 50.4965 16.3196L48.9305 17.2242ZM54.5801 15.8539C54.0876 16.1382 53.5138 16.2137 52.9649 16.0666C52.4155 15.9194 51.9565 15.5672 51.6722 15.0747L45.7792 4.86775C45.4949 4.37526 45.4194 3.80169 45.5666 3.25243C45.7138 2.70317 46.066 2.24413 46.5585 1.95986C46.8865 1.77049 47.2505 1.6738 47.6194 1.6738C47.8043 1.6738 47.9904 1.69811 48.1739 1.74729C48.7232 1.8945 49.1822 2.2467 49.4665 2.73919L55.3596 12.9462C55.9462 13.9625 55.5967 15.267 54.5801 15.8539Z" fill="#981B9F"/>
</svg>
