<svg width="62" height="61" viewBox="0 0 62 61" fill="none" xmlns="http://www.w3.org/2000/svg">
<path d="M56.9146 56.6621H61.1561V58.4538H56.9146V56.6621Z" fill="#981B9F"/>
<path d="M52.8495 47.9553C48.0247 43.7644 43.2526 46.8409 39.3972 48.1791C37.8612 48.6424 34.3296 48.8067 31.7718 48.8067C29.9269 48.8067 28.6022 49.7051 27.9714 50.8525C26.3589 49.6344 23.4489 47.4397 22.2086 46.5097C18.9481 44.047 16.1191 44.2747 14.4766 47.8346L14.964 48.3052C14.9944 48.3346 18.0366 51.271 21.2286 54.237C27.8091 60.3513 28.6078 60.6359 28.9494 60.7576C29.303 60.8834 29.9034 61.0002 31.1993 61.0002C33.0234 61.0002 36.2255 60.7685 42.0536 60.0039C47.1083 59.3408 51.9165 58.5596 52.5621 58.4539H55.1227V56.6622H52.4155L52.343 56.6743C52.2922 56.6826 47.1977 57.5221 41.8207 58.2274C32.1687 59.4936 30.0242 59.2383 29.5608 59.0737C28.6104 58.6639 22.3918 52.9686 16.7316 47.5204C17.8616 46.039 19.3604 46.6665 21.1335 47.9428C22.5735 49.0225 26.2663 51.8088 27.5589 52.7864L27.5595 53.2377H27.6439C28.0193 54.9394 29.5837 56.0334 31.7719 56.0334H39.9105V54.2417H31.7719C31.043 54.2417 29.348 54.0643 29.348 52.4201C29.348 51.6636 30.1 50.5983 31.7719 50.5983C33.1345 50.5983 37.7492 50.5475 39.9147 49.8943C43.6333 48.5811 48.3117 45.6438 52.1181 49.7469H61.1558V47.9552H52.8495V47.9553Z" fill="#981B9F"/>
<path d="M0 2.5459H3.94528V4.33758H0V2.5459Z" fill="#981B9F"/>
<path d="M14.04 15.1626C17.0136 15.159 19.3684 13.6557 21.7585 12.8215C23.2945 12.3581 26.8262 12.1938 29.3839 12.1938C31.2288 12.1938 32.5536 11.2954 33.1843 10.148C34.8152 11.3802 37.749 13.5924 38.9474 14.4918C42.1059 16.8757 44.9877 16.8253 46.679 13.1666L46.1917 12.6959C46.1613 12.6666 43.1191 9.72975 39.9271 6.76356C33.3469 0.648677 32.548 0.364039 32.2062 0.242324C31.3544 -0.0603507 29.0975 -0.311186 19.3764 0.99698C14.4593 1.65871 9.78938 2.43785 9.14629 2.54607H5.73696V4.33775H9.29667C16.8529 3.05263 29.6546 1.25259 31.599 1.92806C32.5627 2.35185 38.772 8.0396 44.4244 13.4806C43.2948 14.9617 41.7955 14.3337 40.0228 13.0588C38.6342 12.0165 34.9122 9.20933 33.597 8.21387L33.5963 7.76225H33.5118C33.1362 6.06087 31.5719 4.9671 29.3839 4.9671H21.2453V6.75879H29.3839C30.1128 6.75879 31.8078 6.93628 31.8078 8.58045C31.8078 9.33689 31.0558 10.4022 29.3839 10.4022C28.0212 10.4022 23.4066 10.453 21.2411 11.1062C20.6528 11.2836 19.9873 11.5754 19.2827 11.8843C16.0017 13.3965 12.5364 14.4839 9.59242 11.2538H0V13.0454H8.86022C10.5608 14.6245 12.3373 15.1626 14.04 15.1626Z" fill="#981B9F"/>
<path d="M20.0502 34.533V33.6372H17.8996L14.0283 25.341C14.1315 25.2366 14.2283 25.1259 14.3191 25.0104H20.9004C19.6933 30.982 24.476 36.7825 30.5778 36.7159C36.6786 36.7828 41.4634 30.9814 40.255 25.0104H46.9558C47.0465 25.126 47.1434 25.2366 47.2466 25.341L43.3753 33.6373H41.2248C40.8267 38.7898 44.7543 43.2891 49.9772 43.2855C55.1998 43.289 59.1281 38.7896 58.7296 33.6373H56.579L52.7077 25.341C55.0901 22.964 53.3785 18.7912 49.9771 18.7992C48.7519 18.7992 47.6595 19.3765 46.9555 20.2726H37.8976C34.1217 15.9454 27.0322 15.9471 23.2578 20.2726H14.3193C13.6153 19.3765 12.523 18.7992 11.2977 18.7992C7.89569 18.7911 6.18499 22.9655 8.56721 25.3411L4.69587 33.6373H2.54538C2.14714 38.7898 6.07499 43.2891 11.2979 43.2855C16.1239 43.2854 20.0502 39.3591 20.0502 34.533ZM49.9772 41.4937C46.4424 41.4937 43.5147 38.8456 43.0739 35.4289H56.8806C56.44 38.8456 53.5121 41.4937 49.9772 41.4937ZM45.3527 33.6372L48.7805 26.2914C49.5271 26.5454 50.4276 26.5454 51.1741 26.2914L54.6018 33.6372H45.3527ZM49.9772 20.5908C51.1078 20.5908 52.0275 21.5105 52.0275 22.6412C51.9149 25.3614 48.039 25.3605 47.9269 22.6412C47.9269 21.5105 48.8466 20.5908 49.9772 20.5908ZM46.1786 22.0641C46.121 22.4391 46.121 22.8436 46.1786 23.2186H39.731C39.5719 22.8205 39.3884 22.4349 39.1808 22.0641H46.1786ZM30.5778 18.7991C35.0235 18.7991 38.6403 22.4159 38.6403 26.8617C38.1974 37.5577 22.9564 37.5546 22.5152 26.8615C22.5152 22.4159 26.132 18.7991 30.5778 18.7991ZM21.9747 22.0641C21.7671 22.4349 21.5837 22.8205 21.4246 23.2186H15.0963C15.154 22.8436 15.154 22.4391 15.0963 22.0641H21.9747ZM11.2977 20.5908C12.4283 20.5908 13.3481 21.5105 13.3481 22.6412C13.2356 25.3613 9.35961 25.3605 9.24733 22.6412C9.24733 21.5105 10.1672 20.5908 11.2977 20.5908ZM10.101 26.2914C10.8475 26.5454 11.748 26.5454 12.4947 26.2914L15.9225 33.6372H6.67317L10.101 26.2914ZM11.2977 41.4937C7.76299 41.4937 4.83514 38.8456 4.39439 35.4289H18.2011C17.7603 38.8456 14.8326 41.4937 11.2977 41.4937Z" fill="#981B9F"/>
<path d="M25.8003 24.1738H35.3559V25.9655H25.8003V24.1738Z" fill="#981B9F"/>
<path d="M25.8003 27.7573H35.3559V29.549H25.8003V27.7573Z" fill="#981B9F"/>
</svg>
