<svg width="58" height="61" viewBox="0 0 58 61" fill="none" xmlns="http://www.w3.org/2000/svg">
<path fill-rule="evenodd" clip-rule="evenodd" d="M39.3107 27.5063H32.7468C31.4961 27.5063 30.828 29.0467 31.7376 29.9634C31.8699 30.0975 32.0271 30.2039 32.2003 30.2766C32.3735 30.3493 32.5592 30.3869 32.7468 30.3871H39.3102C40.5611 30.3871 41.2291 28.8467 40.3194 27.93C40.1872 27.7959 40.0299 27.6895 39.8568 27.6168C39.6836 27.5441 39.4979 27.5065 39.3102 27.5063H39.3107ZM39.7431 32.011H32.315C31.0644 32.011 30.396 33.5512 31.3058 34.4681C31.7607 34.9264 32.1935 34.8919 32.7472 34.8919H39.7431C40.9938 34.8919 41.662 33.3515 40.7522 32.4347C40.62 32.3007 40.4628 32.1942 40.2896 32.1215C40.1164 32.0488 39.9307 32.0112 39.7431 32.011ZM32.7468 36.5156C31.4961 36.5156 30.828 38.056 31.7376 38.9728C31.8699 39.1069 32.0271 39.2133 32.2003 39.2861C32.3735 39.3588 32.5592 39.3963 32.7468 39.3966H39.3102C40.561 39.3966 41.2291 37.8561 40.3194 36.9393C40.1872 36.8053 40.0299 36.6988 39.8568 36.6261C39.6836 36.5534 39.4979 36.5158 39.3102 36.5156H32.7468ZM32.7468 41.0203C32.2748 41.0203 31.8918 40.9523 31.5707 41.2758C31.4509 41.3971 31.3694 41.5515 31.3364 41.7194C31.3034 41.8873 31.3205 42.0613 31.3854 42.2195C31.4504 42.3776 31.5603 42.5129 31.7014 42.6083C31.8425 42.7037 32.0084 42.7549 32.1783 42.7555H37.5281C37.7565 42.7555 37.9755 42.6641 38.137 42.5014C38.2985 42.3387 38.3892 42.118 38.3892 41.8879C38.3892 41.6578 38.2985 41.4371 38.137 41.2744C37.9755 41.1117 37.7565 41.0203 37.5281 41.0203H32.7468ZM22.476 40.8206H18.4778C17.6134 40.8187 16.7849 40.4718 16.1736 39.8559C15.5624 39.24 15.2181 38.4053 15.2161 37.5343V30.2525C15.2182 29.3816 15.5626 28.547 16.1738 27.9312C16.785 27.3154 17.6135 26.9686 18.4778 26.9666H21.0513C21.8793 25.6643 22.8001 24.7757 24.1167 24.0535C25.092 23.4904 25.6524 22.4568 25.7773 21.2819C25.9204 19.9367 25.5316 18.4425 24.6716 17.0773C24.5751 16.9238 24.5326 16.742 24.5508 16.5612C24.6118 15.9867 24.8327 15.4413 25.188 14.9878C25.5433 14.5343 26.0186 14.1912 26.559 13.9981C27.0995 13.8049 27.6831 13.7696 28.2426 13.8962C28.8021 14.0227 29.3147 14.306 29.7214 14.7134C31.123 16.1256 32.2054 17.2376 32.7259 18.6417C33.2609 20.0851 33.1511 21.6915 32.1009 23.9744C31.9583 24.3271 32.0862 24.612 32.4072 24.8544C32.9388 25.2557 33.8595 25.5845 35.0123 25.8829H39.3111C41.9224 25.8829 43.3398 29.0255 41.5645 31.0007C41.9428 31.2856 42.25 31.6555 42.4616 32.081C42.6731 32.5065 42.7833 32.9758 42.7833 33.4517C42.7833 33.9276 42.6731 34.397 42.4616 34.8225C42.25 35.248 41.9428 35.6179 41.5645 35.9028C43.1868 37.7077 42.1582 40.5697 39.8293 40.9759C39.976 41.3537 40.029 41.7618 39.9838 42.1649C39.9386 42.5679 39.7965 42.9538 39.5699 43.2891C39.3433 43.6243 39.0389 43.8989 38.6832 44.0889C38.3275 44.2789 37.9312 44.3786 37.5286 44.3795H32.1791C31.5497 44.3796 30.9441 44.1369 30.4866 43.7014C27.4488 43.8031 24.7529 42.799 22.4761 40.8205L22.476 40.8206ZM26.0023 41.2187C24.4301 40.4925 23.0504 39.3019 21.9459 37.9677C21.8786 37.8861 21.7959 37.8186 21.7026 37.7692C21.6094 37.7197 21.5074 37.6893 21.4024 37.6795C21.2975 37.6698 21.1917 37.681 21.0911 37.7125C20.9904 37.744 20.8969 37.7951 20.8159 37.863C20.7349 37.9309 20.6679 38.0142 20.6188 38.1081C20.5697 38.2021 20.5395 38.3049 20.5299 38.4106C20.5202 38.5163 20.5313 38.6229 20.5626 38.7243C20.5938 38.8257 20.6446 38.9199 20.7119 39.0016C20.7664 39.0674 20.8211 39.1325 20.8759 39.1969H18.4778C18.0407 39.1951 17.6221 39.0193 17.313 38.7079C17.0039 38.3965 16.8295 37.9747 16.8277 37.5343V30.2525C16.8295 29.8122 17.004 29.3904 17.3131 29.079C17.6221 28.7676 18.0408 28.5919 18.4778 28.5901H20.1889C20.1228 28.7391 20.0584 28.8912 19.9958 29.0465C19.9546 29.1455 19.9334 29.2517 19.9333 29.359C19.9332 29.4663 19.9542 29.5726 19.9952 29.6717C20.0361 29.7707 20.0962 29.8606 20.1719 29.9361C20.2476 30.0116 20.3374 30.0713 20.4361 30.1115C20.5348 30.1518 20.6405 30.172 20.747 30.1708C20.8535 30.1696 20.9587 30.1472 21.0566 30.1047C21.1544 30.0623 21.2429 30.0007 21.3169 29.9236C21.391 29.8464 21.4491 29.7552 21.4879 29.6553C22.2414 27.783 23.1489 26.4799 24.9058 25.4609C26.3778 24.6076 27.1949 23.1561 27.376 21.4524C27.5464 19.8494 27.1419 18.1351 26.195 16.4856C26.2631 16.244 26.3926 16.0246 26.5708 15.8491C26.7489 15.6735 26.9696 15.5479 27.2107 15.4848C27.4519 15.4217 27.7053 15.4232 27.9458 15.4891C28.1862 15.5551 28.4054 15.6832 28.5815 15.8609C31.2202 18.5193 32.2909 19.6347 30.6377 23.301C30.0991 24.4957 30.4933 25.4388 31.4696 26.167C31.0373 26.3688 30.6582 26.6701 30.3628 27.0467C30.0674 27.4233 29.864 27.8646 29.769 28.335C29.6741 28.8054 29.6902 29.2916 29.8161 29.7546C29.9421 30.2175 30.1742 30.6441 30.4939 31C30.1156 31.285 29.8085 31.6549 29.5969 32.0804C29.3854 32.5059 29.2752 32.9752 29.2752 33.4511C29.2752 33.927 29.3854 34.3963 29.5969 34.8218C29.8085 35.2473 30.1156 35.6172 30.4939 35.9022C29.9821 36.4696 29.7009 37.2103 29.7062 37.9771C29.7115 38.7438 30.0028 39.4805 30.5224 40.0407C30.2413 40.2957 30.0222 40.6124 29.882 40.9663C29.7417 41.3203 29.6842 41.7019 29.7137 42.0819C28.4315 42.0478 27.1693 41.7538 26.0023 41.2176V41.2187ZM32.9464 4.12063C34.1352 5.2043 35.3093 6.27449 36.6552 6.7135C39.5779 7.66765 43.8217 5.65716 45.7447 7.05349C47.6622 8.44602 47.0958 13.1317 48.9054 15.5774C50.715 18.0231 55.3456 18.8378 56.1296 21.1486C56.9151 23.4641 53.785 27.0843 53.8107 30.2982C53.8359 33.5392 57.0254 37.0809 56.2765 39.4097C55.5291 41.7342 50.9166 42.6194 49.1428 45.0991C47.3722 47.5743 48.0201 52.2394 46.1152 53.6698C44.219 55.0941 39.9352 53.1585 37.0341 54.1578C34.1169 55.1625 31.8295 59.3612 29.2314 59.3823C26.6285 59.4032 24.2758 55.2424 21.3455 54.2855C18.4227 53.3313 14.1788 55.3418 12.2559 53.9454C10.3384 52.5528 10.9049 47.8673 9.09524 45.4214C7.28563 42.9756 2.6552 42.1613 1.87106 39.8505C1.08553 37.5349 4.21567 33.9148 4.18993 30.7008C4.16407 27.4597 0.975399 23.9181 1.72409 21.5893C2.47165 19.2646 7.08392 18.3799 8.85783 15.8999C10.6285 13.4244 9.98056 8.75945 11.8854 7.32918C13.7817 5.90488 18.0656 7.84051 20.9666 6.84123C23.8836 5.83713 26.1713 1.63783 28.7693 1.61737C30.1881 1.60593 31.5786 2.87339 32.9466 4.1205L32.9464 4.12063ZM28.7565 0.000133448C32.2172 -0.0278288 34.6162 4.347 37.1454 5.17252C39.6778 5.99868 44.0398 3.8222 46.6823 5.74079C49.3298 7.66333 48.6465 12.5138 50.1955 14.6073C51.7445 16.7007 56.5787 17.4631 57.6524 20.6287C58.2706 22.4505 57.438 24.3836 56.5928 26.3437C55.0137 30.0072 55.0201 30.5694 56.6578 34.2072C57.533 36.1518 58.3962 38.0688 57.8057 39.9046C56.7832 43.086 51.9577 43.9308 50.4455 46.0445C48.93 48.1631 49.686 53.0114 47.0781 54.9703C45.5643 56.1074 43.5137 55.8797 41.4536 55.6512C37.6704 55.2318 37.2336 55.3868 34.463 57.9954C32.8891 59.4773 31.2895 60.9833 29.2435 60.9999C25.7829 61.0278 23.384 56.653 20.8546 55.8275C18.3222 55.0013 13.9601 57.1777 11.3177 55.2591C8.67024 53.3366 9.35359 48.4862 7.80461 46.3926C6.25562 44.299 1.42146 43.537 0.347555 40.3713C-0.270576 38.5495 0.562008 36.6162 1.40721 34.6562C2.98647 30.9926 2.97991 30.4306 1.34224 26.7928C0.467018 24.8482 -0.396221 22.9312 0.194283 21.0954C1.21723 17.9139 6.04256 17.0693 7.55483 14.9555C9.07039 12.8366 8.31438 7.98845 10.9223 6.02969C12.436 4.89264 14.4869 5.12016 16.5467 5.34881C20.3302 5.76825 20.7669 5.61305 23.5376 3.00443C25.1113 1.52268 26.7108 0.0166566 28.7567 0.000133448H28.7565ZM10.2011 24.933C10.1408 25.139 10.0018 25.3125 9.81464 25.4154C9.62744 25.5182 9.40737 25.5418 9.20285 25.4812C8.99832 25.4205 8.8261 25.2804 8.72407 25.0918C8.62203 24.9032 8.59854 24.6815 8.65876 24.4754C9.71721 20.8497 11.7114 17.5719 14.4379 14.9764C17.1643 12.3808 20.5254 10.5606 24.1782 9.7014C27.8309 8.84219 31.6445 8.97476 35.2298 10.0856C38.815 11.1964 42.0436 13.2458 44.586 16.0244C52.5145 24.6903 51.9679 38.2149 43.3663 46.2038C40.8527 48.5373 37.8165 50.224 34.5163 51.1202C31.2161 52.0163 27.7498 52.0954 24.4128 51.3506C21.0758 50.6058 17.9669 49.0592 15.3511 46.8426C12.7353 44.626 10.6901 41.8052 9.3898 38.6204C9.31169 38.4224 9.31419 38.2015 9.39675 38.0054C9.47931 37.8093 9.63527 37.6539 9.8308 37.5729C10.0263 37.4919 10.2457 37.4919 10.4412 37.5728C10.6368 37.6537 10.7928 37.809 10.8755 38.0051C12.6331 42.3127 15.8464 45.855 19.9468 48.0052C24.0472 50.1554 28.7703 50.7749 33.2804 49.754C37.7905 48.7332 41.7968 46.1378 44.5904 42.4271C47.384 38.7164 48.7847 34.1297 48.5448 29.4785C48.3048 24.8274 46.4396 20.4117 43.2793 17.0129C40.1189 13.614 35.8671 11.4511 31.2763 10.9069C26.6854 10.3626 22.0515 11.4722 18.1945 14.0391C14.3374 16.6061 11.5059 20.465 10.2011 24.933ZM9.42626 29.697L9.45149 29.2359C9.45811 29.1297 9.44391 29.0232 9.4097 28.9225C9.37549 28.8218 9.32193 28.729 9.25208 28.6491C9.18224 28.5693 9.09747 28.5042 9.00263 28.4573C8.90779 28.4105 8.80472 28.383 8.69932 28.3763C8.59392 28.3697 8.48824 28.384 8.38833 28.4184C8.28842 28.4529 8.19622 28.5069 8.117 28.5772C8.03779 28.6476 7.9731 28.733 7.92664 28.8286C7.88019 28.9241 7.85286 29.028 7.84624 29.1342L7.82101 29.6333C7.81687 29.7395 7.83353 29.8455 7.87004 29.9452C7.90654 30.0449 7.96219 30.1364 8.03379 30.2144C8.10539 30.2925 8.19155 30.3555 8.28735 30.4C8.38314 30.4445 8.48669 30.4696 8.5921 30.4738C8.6975 30.4779 8.80268 30.4611 8.90165 30.4244C9.00061 30.3876 9.09141 30.3315 9.16887 30.2594C9.24633 30.1872 9.30893 30.1004 9.35309 30.0039C9.39725 29.9074 9.42211 29.803 9.42626 29.6968V29.697Z" fill="#981B9F"/>
</svg>
