<svg width="69" height="57" viewBox="0 0 69 57" fill="none" xmlns="http://www.w3.org/2000/svg">
<path fill-rule="evenodd" clip-rule="evenodd" d="M41.282 39.3365C41.0767 39.3365 40.8713 39.2578 40.714 39.1005C40.186 38.5685 39.6754 37.9779 39.1341 37.3526C37.2942 35.226 35.3916 33.0274 32.9117 33.3528C32.5197 33.5887 31.4331 34.7954 31.0171 35.258C30.8345 35.4607 30.6905 35.6206 30.5878 35.7286C29.8505 36.4993 28.8132 36.9473 27.7413 36.9593C26.6867 36.9699 25.7054 36.5726 24.9747 35.8393C24.9694 35.8353 24.9654 35.83 24.9601 35.8246C24.2161 35.098 23.7935 34.1247 23.7708 33.0781C23.7481 32.0195 24.1361 31.0155 24.8654 30.2529L27.9546 27.0237L17.3164 27.0464H17.3151C16.8738 27.0464 16.5165 26.6891 16.5151 26.2478C16.5138 25.8064 16.8711 25.4465 17.3124 25.4465L29.8292 25.4185H29.8318C30.1518 25.4185 30.4412 25.6091 30.5665 25.9038C30.6931 26.1984 30.6318 26.5397 30.4092 26.7717L26.0214 31.3595C25.588 31.8128 25.3561 32.4115 25.3707 33.0434C25.3841 33.6754 25.6414 34.262 26.0947 34.6954C26.1067 34.7074 26.1187 34.7194 26.1307 34.7314C26.5507 35.142 27.112 35.3673 27.7239 35.358C28.3679 35.3513 28.9906 35.0833 29.4319 34.622C29.5185 34.5314 29.6612 34.3727 29.8278 34.1874C31.4558 32.3795 32.0531 31.8608 32.6051 31.7808C35.9889 31.2728 38.3021 33.9461 40.3447 36.3059C40.8673 36.9086 41.3606 37.4792 41.85 37.9725C42.1619 38.2859 42.1593 38.7925 41.8459 39.1045C41.69 39.2591 41.486 39.3365 41.282 39.3365Z" fill="#981B9F"/>
<path fill-rule="evenodd" clip-rule="evenodd" d="M11.5981 47.4394H11.5968L0.798629 47.4194C0.586639 47.4194 0.383982 47.334 0.233322 47.1834C0.0839961 47.034 0 46.8301 0 46.6181L0.0453312 21.6766C0.0466645 21.2352 0.403981 20.8779 0.845294 20.8779H0.846627L11.6448 20.8966C11.8568 20.8979 12.0608 20.9819 12.2101 21.1326C12.3594 21.2832 12.4434 21.4859 12.4434 21.6979L12.3981 46.6407C12.3968 47.082 12.0394 47.4394 11.5981 47.4394ZM1.60126 45.8208L10.7995 45.8381L10.8422 22.4952L1.64392 22.4792L1.60126 45.8208Z" fill="#981B9F"/>
<path fill-rule="evenodd" clip-rule="evenodd" d="M17.2381 44.7325L11.6037 44.7298C11.161 44.7298 10.8037 44.3712 10.8037 43.9299C10.8037 43.4886 11.1624 43.1299 11.6037 43.1299L16.4408 43.1326L16.5181 25.1574L11.6383 25.1561C11.197 25.1561 10.8384 24.7974 10.8397 24.3561C10.8397 23.9148 11.197 23.5562 11.6397 23.5562L17.3221 23.5575C17.5354 23.5575 17.7394 23.6415 17.8887 23.7935C18.0394 23.9428 18.1234 24.1481 18.122 24.3601L18.038 43.9352C18.0354 44.3765 17.6781 44.7325 17.2381 44.7325Z" fill="#981B9F"/>
<path fill-rule="evenodd" clip-rule="evenodd" d="M67.4179 47.5403H67.4166L56.6185 47.5203C56.1771 47.519 55.8198 47.1603 55.8198 46.719L55.8652 21.7762C55.8665 21.5642 55.9505 21.3615 56.1011 21.2109C56.2505 21.0615 56.4545 20.9775 56.6651 20.9775H56.6664L67.4646 20.9975C67.9059 20.9989 68.2646 21.3575 68.2632 21.7988L68.2179 46.7417C68.2179 46.9537 68.1326 47.1563 67.9833 47.3056C67.8326 47.4563 67.6299 47.5403 67.4179 47.5403ZM57.4211 45.9217L66.6193 45.939L66.662 22.5961L57.4637 22.5801L57.4211 45.9217Z" fill="#981B9F"/>
<path fill-rule="evenodd" clip-rule="evenodd" d="M56.6253 44.8604L50.9416 44.8591C50.7296 44.8591 50.5256 44.7738 50.3749 44.6231C50.2256 44.4724 50.1416 44.2685 50.1416 44.0551L50.2309 24.48C50.2323 24.0401 50.5909 23.6841 51.0309 23.6841L56.6613 23.6854C57.1026 23.6854 57.4599 24.0441 57.4599 24.4854C57.4599 24.928 57.1026 25.2853 56.66 25.2853L51.8269 25.284L51.7455 43.2592L56.6253 43.2605C57.0666 43.2605 57.4253 43.6178 57.4253 44.0605C57.4253 44.5018 57.0666 44.8604 56.6253 44.8604Z" fill="#981B9F"/>
<path fill-rule="evenodd" clip-rule="evenodd" d="M47.0177 51.2107C46.1218 51.2107 45.2805 50.864 44.6485 50.2361L37.1089 42.7284C36.7955 42.4164 36.7955 41.9098 37.1062 41.5965C37.4182 41.2832 37.9248 41.2832 38.2381 41.5938L45.7778 49.1015C46.1071 49.4308 46.5471 49.6108 47.0177 49.6108H47.0217C47.4924 49.6094 47.9337 49.4268 48.263 49.0961C48.5923 48.7655 48.7736 48.3242 48.7723 47.8522C48.771 47.3815 48.5883 46.9402 48.2577 46.6109L40.718 39.1033C40.4047 38.7913 40.4034 38.2846 40.7154 37.9726C41.0273 37.6593 41.534 37.658 41.8473 37.97L49.387 45.4776C50.0203 46.1083 50.3696 46.9509 50.3722 47.8495C50.3736 48.7481 50.0269 49.5908 49.3963 50.2254C48.7656 50.8587 47.923 51.2094 47.0244 51.2107C47.0231 51.2107 47.0204 51.2107 47.0177 51.2107Z" fill="#981B9F"/>
<path fill-rule="evenodd" clip-rule="evenodd" d="M43.4084 54.8359C42.5124 54.8359 41.6711 54.4892 41.0391 53.8599L33.4995 46.3523C33.1862 46.0403 33.1862 45.5337 33.4968 45.2217C33.8088 44.9083 34.3154 44.907 34.6288 45.219L42.1684 52.7266C42.4977 53.0546 42.9377 53.236 43.4084 53.236H43.4123C43.883 53.2346 44.3243 53.052 44.6536 52.7213C44.9829 52.3907 45.1629 51.948 45.1629 51.4774C45.1616 51.0054 44.9789 50.5654 44.6483 50.2361C44.335 49.9241 44.335 49.4175 44.6456 49.1042C44.9576 48.7908 45.4643 48.7908 45.7776 49.1028C46.4109 49.7335 46.7602 50.5747 46.7629 51.4734C46.7642 52.3733 46.4175 53.2173 45.7869 53.8493C45.1563 54.4826 44.315 54.8332 43.415 54.8359C43.4137 54.8359 43.411 54.8359 43.4084 54.8359Z" fill="#981B9F"/>
<path fill-rule="evenodd" clip-rule="evenodd" d="M38.321 55.7703C37.561 55.7703 36.8464 55.477 36.3091 54.941L30.604 49.2613C30.2907 48.9493 30.2893 48.4427 30.6013 48.1294C30.9133 47.816 31.4199 47.816 31.7333 48.1267L37.4383 53.8078C37.673 54.0424 37.9863 54.1704 38.321 54.1704H38.325C38.6609 54.1704 38.9743 54.0398 39.2089 53.8038L40.6569 52.3505C40.9688 52.0372 41.4755 52.0358 41.7888 52.3478C42.1021 52.6585 42.1035 53.1651 41.7915 53.4784L40.3422 54.933C39.8062 55.4717 39.0916 55.769 38.3276 55.7703C38.325 55.7703 38.3236 55.7703 38.321 55.7703Z" fill="#981B9F"/>
<path fill-rule="evenodd" clip-rule="evenodd" d="M33.8691 56.9998C33.1731 56.9998 32.4638 56.7438 31.8772 56.2305L16.7179 42.9285C16.3859 42.6365 16.3526 42.1312 16.6432 41.7992C16.9352 41.4672 17.4405 41.4339 17.7725 41.7259L32.9318 55.0266C33.4784 55.5052 34.2357 55.5186 34.6957 55.0573L36.121 53.6253C36.433 53.312 36.9396 53.312 37.2529 53.6227C37.5662 53.9346 37.5662 54.4413 37.2556 54.7546L35.829 56.1865C35.2904 56.7278 34.5864 56.9998 33.8691 56.9998Z" fill="#981B9F"/>
<path fill-rule="evenodd" clip-rule="evenodd" d="M51.0177 28.0505C50.787 28.0505 50.559 27.9519 50.4004 27.7586C50.0857 27.3772 47.9258 26.4759 43.2661 25.5587C39.6116 24.8387 35.9531 24.4334 34.5665 24.5947C33.9092 24.6694 32.1332 25.7586 31.1786 26.344C30.8053 26.5719 30.4827 26.7693 30.2267 26.9146C29.8427 27.1332 29.3534 26.9986 29.1361 26.6146C28.9174 26.2306 29.0521 25.7413 29.436 25.524C29.6707 25.3907 29.9813 25.2 30.3427 24.9787C32.0013 23.9627 33.4519 23.1121 34.3838 23.0054C36.2064 22.7921 40.3142 23.3468 43.5754 23.9894C46.7299 24.6107 50.687 25.592 51.635 26.7426C51.9163 27.0826 51.867 27.5866 51.5257 27.8679C51.3777 27.9905 51.1977 28.0505 51.0177 28.0505Z" fill="#981B9F"/>
<path fill-rule="evenodd" clip-rule="evenodd" d="M47.9605 45.9875C47.7658 45.9875 47.5712 45.9168 47.4165 45.7741C47.0925 45.4728 47.0739 44.9675 47.3739 44.6435L50.3644 41.417C50.6657 41.093 51.171 41.0744 51.495 41.3744C51.819 41.6743 51.839 42.181 51.5377 42.505L48.5471 45.7315C48.3898 45.9008 48.1752 45.9875 47.9605 45.9875Z" fill="#981B9F"/>
<path fill-rule="evenodd" clip-rule="evenodd" d="M6.2224 30.0666C4.53981 30.0666 3.17188 28.6987 3.17188 27.0175C3.17188 25.3362 4.53981 23.9683 6.2224 23.9683C7.90365 23.9683 9.27159 25.3362 9.27159 27.0175C9.27159 28.6987 7.90365 30.0666 6.2224 30.0666ZM6.2224 25.5682C5.42244 25.5682 4.7718 26.2175 4.7718 27.0175C4.7718 27.8174 5.42244 28.4681 6.2224 28.4681C7.02103 28.4681 7.67166 27.8174 7.67166 27.0175C7.67166 26.2175 7.02103 25.5682 6.2224 25.5682Z" fill="#981B9F"/>
<path fill-rule="evenodd" clip-rule="evenodd" d="M62.0422 30.0666C60.361 30.0666 58.9917 28.6987 58.9917 27.0175C58.9917 25.3362 60.361 23.9683 62.0422 23.9683C63.7235 23.9683 65.0914 25.3362 65.0914 27.0175C65.0914 28.6987 63.7235 30.0666 62.0422 30.0666ZM62.0422 25.5682C61.2423 25.5682 60.5916 26.2175 60.5916 27.0175C60.5916 27.8174 61.2423 28.4681 62.0422 28.4681C62.8409 28.4681 63.4915 27.8174 63.4915 27.0175C63.4915 26.2175 62.8409 25.5682 62.0422 25.5682Z" fill="#981B9F"/>
<path fill-rule="evenodd" clip-rule="evenodd" d="M34.0809 20.4884C28.4319 20.4884 23.8374 15.8926 23.8374 10.2435C23.8374 4.59579 28.4332 0 34.0809 0C39.73 0 44.3258 4.59579 44.3258 10.2435C44.3258 15.8926 39.73 20.4884 34.0809 20.4884ZM34.0809 1.59993C29.3145 1.59993 25.4373 5.47708 25.4373 10.2435C25.4373 15.01 29.3145 18.8884 34.0809 18.8884C38.8474 18.8884 42.7259 15.01 42.7259 10.2435C42.7259 5.47708 38.8474 1.59993 34.0809 1.59993Z" fill="#981B9F"/>
<path fill-rule="evenodd" clip-rule="evenodd" d="M31.9589 14.3741C31.7469 14.3741 31.5429 14.2901 31.3936 14.1407L28.9777 11.7248C28.6643 11.4115 28.6643 10.9049 28.9777 10.5929C29.2897 10.2809 29.7963 10.2809 30.1083 10.5929L31.9589 12.4435L38.0546 6.34776C38.3666 6.03577 38.8732 6.03577 39.1865 6.34776C39.4985 6.65974 39.4985 7.16639 39.1852 7.47837L32.5242 14.1407C32.3748 14.2901 32.1708 14.3741 31.9589 14.3741Z" fill="#981B9F"/>
</svg>
