<svg width="46" height="63" viewBox="0 0 46 63" fill="none" xmlns="http://www.w3.org/2000/svg">
<path fill-rule="evenodd" clip-rule="evenodd" d="M22.8975 43.9277C22.6514 43.9277 22.4053 43.8047 22.2822 43.6816L18.4678 38.7598L12.5615 40.9746C12.3154 41.0977 12.0693 41.0977 11.9463 40.9746C11.7002 40.8516 11.5771 40.6055 11.5771 40.4824L10.5928 34.207L4.44043 33.3457C4.19434 33.2227 3.94824 33.0996 3.94824 32.9766C3.8252 32.7305 3.8252 32.4844 3.8252 32.2383L6.16309 26.4551L1.24121 22.5176C1.11816 22.3945 0.995117 22.1484 0.995117 22.0254C0.995117 21.7793 1.11816 21.5332 1.24121 21.4102L6.16309 17.4727L3.8252 11.6895C3.8252 11.4434 3.8252 11.1973 3.94824 10.9512C3.94824 10.8281 4.19434 10.7051 4.44043 10.582L10.5928 9.7207L11.5771 3.44531C11.5771 3.32227 11.7002 3.07617 11.9463 2.95312C12.0693 2.83008 12.3154 2.83008 12.5615 2.95312L18.4678 5.16797L22.2822 0.246094C22.4053 0.123047 22.6514 0 22.8975 0C23.1436 0 23.3896 0.123047 23.5127 0.246094L27.3271 5.16797L33.2334 2.95312C33.4795 2.83008 33.7256 2.83008 33.8486 2.95312C34.0947 3.07617 34.2178 3.32227 34.2178 3.44531L35.2021 9.7207L41.3545 10.582C41.6006 10.7051 41.8467 10.8281 41.8467 10.9512C41.9697 11.1973 41.9697 11.4434 41.9697 11.6895L39.6318 17.4727L44.5537 21.4102C44.6768 21.5332 44.7998 21.7793 44.7998 22.0254C44.7998 22.1484 44.6768 22.3945 44.5537 22.5176L39.6318 26.4551L41.9697 32.2383C41.9697 32.4844 41.9697 32.7305 41.8467 32.9766C41.8467 33.0996 41.6006 33.2227 41.3545 33.3457L35.2021 34.207L34.2178 40.4824C34.2178 40.6055 34.0947 40.8516 33.8486 40.9746C33.7256 41.0977 33.4795 41.0977 33.2334 40.9746L27.3271 38.7598L23.5127 43.6816C23.3896 43.8047 23.1436 43.9277 22.8975 43.9277ZM18.5908 37.0371C18.8369 37.0371 19.083 37.1602 19.2061 37.4062L22.8975 41.959L26.5889 37.4062C26.7119 37.1602 27.0811 37.0371 27.4502 37.1602L32.8643 39.252L33.7256 33.4688C33.8486 33.0996 34.0947 32.8535 34.3408 32.8535L40.2471 31.9922L38.0322 26.4551C37.9092 26.209 38.0322 25.8398 38.2783 25.5938L42.9541 22.0254L38.2783 18.334C38.0322 18.0879 37.9092 17.7188 38.0322 17.4727L40.2471 11.9355L34.3408 11.0742C34.0947 11.0742 33.8486 10.8281 33.7256 10.459L32.8643 4.67578L27.4502 6.76758C27.0811 6.89062 26.7119 6.76758 26.5889 6.52148L22.8975 1.96875L19.2061 6.52148C19.083 6.76758 18.7139 6.89062 18.3447 6.76758L12.9307 4.67578L12.0693 10.459C11.9463 10.8281 11.7002 11.0742 11.4541 11.0742L5.54785 11.9355L7.7627 17.4727C7.88574 17.7188 7.7627 18.0879 7.5166 18.334L2.84082 22.0254L7.5166 25.5938C7.7627 25.8398 7.88574 26.209 7.7627 26.4551L5.54785 31.9922L11.4541 32.8535C11.7002 32.8535 11.9463 33.0996 12.0693 33.4688L12.9307 39.252L18.3447 37.1602C18.4678 37.1602 18.5908 37.0371 18.5908 37.0371Z" fill="#981B9F"/>
<path fill-rule="evenodd" clip-rule="evenodd" d="M11.0853 62.9998H10.9623C10.5931 62.8767 10.347 62.6306 10.347 62.3845L8.74742 54.1404L1.11852 57.9548C0.749376 58.0779 0.503283 58.0779 0.257189 57.8318C0.0110951 57.5857 -0.111952 57.2166 0.134142 56.9705L10.8392 34.5759C10.9623 34.2068 11.4545 34.0837 11.8236 34.2068C12.1927 34.3298 12.3158 34.822 12.1927 35.1912L2.34899 55.6169L8.99352 52.2947C9.11656 52.1716 9.36266 52.1716 9.60875 52.2947C9.85484 52.4177 9.97789 52.6638 9.97789 52.9099L11.3314 59.9236L20.5599 40.7283C20.683 40.3591 21.1752 40.2361 21.5443 40.3591C21.9134 40.6052 22.0365 40.9744 21.9134 41.3435L11.7005 62.5076C11.5775 62.7537 11.3314 62.9998 11.0853 62.9998Z" fill="#981B9F"/>
<path fill-rule="evenodd" clip-rule="evenodd" d="M34.7097 62.9998C34.4636 62.9998 34.2175 62.7537 34.0945 62.5076L23.8816 41.3435C23.7585 40.9744 23.8816 40.6052 24.2507 40.3591C24.6199 40.2361 25.1121 40.3591 25.2351 40.7283L34.4636 59.9236L35.8171 52.9099C35.8171 52.6638 35.9402 52.4177 36.1863 52.2947C36.4324 52.1716 36.6785 52.1716 36.8015 52.2947L43.446 55.6169L33.6023 35.1912C33.4792 34.822 33.6023 34.3298 33.9714 34.2068C34.3406 34.0837 34.8328 34.2068 34.9558 34.5759L45.6609 56.9705C45.907 57.2166 45.7839 57.5857 45.5378 57.8318C45.2917 58.0779 45.0457 58.0779 44.6765 57.9548L37.0476 54.1404L35.448 62.3845C35.448 62.6306 35.2019 62.8767 34.8328 62.9998H34.7097Z" fill="#981B9F"/>
<path fill-rule="evenodd" clip-rule="evenodd" d="M29.6655 32.8535C29.5424 32.8535 29.2963 32.7305 29.1733 32.6074L22.8979 28.1777L16.6225 32.6074C16.3764 32.8535 16.0073 32.8535 15.7612 32.6074C15.5151 32.4844 15.392 32.1152 15.5151 31.8691L17.853 24.6094L11.5776 20.1797C11.3315 20.0566 11.2084 19.6875 11.3315 19.3184C11.3315 19.0723 11.7006 18.8262 11.9467 18.8262H19.8217L22.1596 11.6895C22.2826 11.3203 22.5287 11.0742 22.8979 11.0742C23.267 11.0742 23.5131 11.3203 23.6362 11.6895L25.9741 18.8262H33.8491C34.0951 18.8262 34.4643 19.0723 34.4643 19.3184C34.5873 19.6875 34.4643 20.0566 34.2182 20.1797L27.9428 24.6094L30.2807 31.8691C30.4037 32.1152 30.2807 32.4844 30.0346 32.6074C29.9116 32.7305 29.7885 32.8535 29.6655 32.8535ZM22.8979 26.5781C23.0209 26.5781 23.144 26.5781 23.267 26.7012L28.1889 30.1465L26.3432 24.6094C26.2201 24.2402 26.3432 23.8711 26.5893 23.748L31.5112 20.3027H25.4819C25.1127 20.3027 24.8666 20.1797 24.7436 19.8105L22.8979 14.1504L21.0522 19.8105C20.9291 20.1797 20.683 20.3027 20.3139 20.3027H14.2846L19.2065 23.748C19.4526 23.8711 19.5756 24.2402 19.4526 24.6094L17.6069 30.1465L22.5287 26.7012C22.6518 26.5781 22.7748 26.5781 22.8979 26.5781Z" fill="#981B9F"/>
</svg>
