<svg width="60" height="60" viewBox="0 0 60 60" fill="none" xmlns="http://www.w3.org/2000/svg">
<path d="M23.5286 21.4289C23.5286 22.786 22.4285 23.8861 21.0715 23.8861C19.7145 23.8861 18.6144 22.786 18.6144 21.4289C18.6144 20.0719 19.7145 18.9718 21.0715 18.9718C22.4285 18.9718 23.5286 20.0719 23.5286 21.4289Z" fill="#981B9F" stroke="#F8EFF8" stroke-width="0.8"/>
<path d="M41.3856 21.4289C41.3856 22.786 40.2855 23.8861 38.9284 23.8861C37.5714 23.8861 36.4713 22.786 36.4713 21.4289C36.4713 20.0719 37.5714 18.9718 38.9284 18.9718C40.2855 18.9718 41.3856 20.0719 41.3856 21.4289Z" fill="#981B9F" stroke="#F8EFF8" stroke-width="0.8"/>
<path d="M43.1857 34.7359L43.1956 34.7392L43.2057 34.7421C43.3388 34.7796 43.463 34.8437 43.5708 34.9303C43.6786 35.017 43.7679 35.1245 43.8332 35.2465C43.8985 35.3685 43.9385 35.5023 43.9509 35.6401C43.9629 35.7742 43.9485 35.9094 43.9084 36.0379C42.8202 38.8187 40.9055 41.1991 38.4222 42.858C35.9353 44.5192 32.9983 45.3766 30.0083 45.3143L30.0083 45.3141L29.9955 45.3143C27.029 45.348 24.1226 44.4772 21.6634 42.8178C19.207 41.1604 17.3132 38.7948 16.2335 36.0354C16.1922 35.9094 16.1756 35.7766 16.1846 35.6443C16.1938 35.5091 16.2295 35.377 16.2897 35.2556C16.35 35.1342 16.4335 35.0258 16.5356 34.9367C16.6377 34.8476 16.7564 34.7794 16.8848 34.7362C17.0133 34.6929 17.149 34.6754 17.2842 34.6846C17.4194 34.6937 17.5515 34.7295 17.6729 34.7897C17.7943 34.8499 17.9027 34.9335 17.9918 35.0356C18.081 35.1377 18.1491 35.2564 18.1924 35.3848L18.1953 35.3934L18.1985 35.4018C19.1172 37.7693 20.7453 39.7949 22.8599 41.2011C24.9712 42.6051 27.4644 43.3232 29.9988 43.2573C32.5457 43.3386 35.0552 42.6278 37.1812 41.2228C39.3106 39.8155 40.9501 37.7814 41.8729 35.4017L41.8764 35.3929L41.8794 35.3839C41.9223 35.2554 41.9902 35.1366 42.0792 35.0344C42.1682 34.9322 42.2765 34.8486 42.3979 34.7884C42.5192 34.7282 42.6513 34.6925 42.7865 34.6835C42.9217 34.6745 43.0574 34.6923 43.1857 34.7359Z" fill="#981B9F" stroke="#F8EFF8" stroke-width="0.8"/>
<path d="M13.5551 5.3885C18.4228 2.13601 24.1457 0.4 30 0.4C37.8504 0.4 45.3793 3.51856 50.9304 9.06964C56.4814 14.6207 59.6 22.1496 59.6 30C59.6 35.8543 57.864 41.5772 54.6115 46.4449C51.359 51.3126 46.7361 55.1065 41.3274 57.3468C35.9187 59.5872 29.9672 60.1734 24.2253 59.0312C18.4835 57.8891 13.2093 55.07 9.06965 50.9304C4.93002 46.7907 2.11089 41.5165 0.968769 35.7747C-0.173353 30.0328 0.412825 24.0813 2.65318 18.6726C4.89353 13.2639 8.68744 8.64099 13.5551 5.3885ZM14.698 52.901C19.2274 55.9275 24.5525 57.5429 30 57.5429C37.3048 57.5429 44.3105 54.641 49.4757 49.4757C54.641 44.3104 57.5429 37.3048 57.5429 30C57.5429 24.5525 55.9275 19.2274 52.9011 14.698C49.8746 10.1686 45.573 6.63837 40.5402 4.55372C35.5074 2.46906 29.9695 1.92362 24.6267 2.98637C19.2839 4.04912 14.3762 6.67232 10.5243 10.5243C6.67233 14.3762 4.04913 19.2839 2.98638 24.6267C1.92364 29.9694 2.46908 35.5074 4.55373 40.5402C6.63838 45.573 10.1686 49.8746 14.698 52.901Z" fill="#981B9F" stroke="#F8EFF8" stroke-width="0.8"/>
</svg>
