<svg id="svg5175" height="512" viewBox="0 0 16.933333 16.933334" width="512" xmlns="http://www.w3.org/2000/svg" xmlns:svg="http://www.w3.org/2000/svg"><g id="layer1" transform="translate(0 -280.067)"><path id="path22342" d="m1.3230447 281.12407c-.43516203 0-.79296903.35976-.79296903.79492v8.4668c0 .43516.357807.79297.79296903.79297h13.2285143c.435163 0 .794922-.35781.794922-.79297v-8.4668c0-.43516-.35976-.79492-.794922-.79492z" fill="#e7ebef" font-variant-ligatures="normal" font-variant-position="normal" font-variant-caps="normal" font-variant-numeric="normal" font-variant-alternates="normal" font-feature-settings="normal" text-indent="0" text-align="start" text-decoration-line="none" text-decoration-style="solid" text-decoration-color="#000000" text-transform="none" text-orientation="mixed" white-space="normal" shape-padding="0" isolation="auto" mix-blend-mode="normal" solid-color="#000000" solid-opacity="1" vector-effect="none"/><path id="path22434" d="m13.493232 281.12395c.435161 0 .794782.36014.794782.7953v7.9375c0 .43516-.359619.79272-.794782.79272h-12.1703164c-.43516292 0-.79271555-.35756-.79271555-.79272v.52916c0 .43517.35755263.79272.79271555.79272h13.2286504c.435163 0 .794782-.35755.794782-.79272v-8.46666c0-.43516-.359622-.7953-.794782-.7953z" fill="#dbe1e7" font-variant-ligatures="normal" font-variant-position="normal" font-variant-caps="normal" font-variant-numeric="normal" font-variant-alternates="normal" font-feature-settings="normal" text-indent="0" text-align="start" text-decoration-line="none" text-decoration-style="solid" text-decoration-color="#000000" text-transform="none" text-orientation="mixed" white-space="normal" shape-padding="0" isolation="auto" mix-blend-mode="normal" solid-color="#000000" solid-opacity="1" vector-effect="none"/><path id="path22307" d="m2.9127477 291.70805c-.728319 0-1.324219.59395-1.324219 1.32227v.26562c0 .72832.5959 1.32227 1.324219 1.32227.7283191 0 1.3222661-.59395 1.3222661-1.32227v-.26562c0-.72832-.593947-1.32227-1.3222661-1.32227z" fill="#fdd5a6" font-variant-ligatures="normal" font-variant-position="normal" font-variant-caps="normal" font-variant-numeric="normal" font-variant-alternates="normal" font-feature-settings="normal" text-indent="0" text-align="start" text-decoration-line="none" text-decoration-style="solid" text-decoration-color="#000000" text-transform="none" text-orientation="mixed" white-space="normal" shape-padding="0" isolation="auto" mix-blend-mode="normal" solid-color="#000000" solid-opacity="1" vector-effect="none"/><path id="path22311" d="m14.022263 291.70805c-.72832 0-1.322266.59395-1.322266 1.32227v.26562c0 .72832.593946 1.32227 1.322266 1.32227.728319 0 1.324218-.59395 1.324218-1.32227v-.26562c0-.72832-.595899-1.32227-1.324218-1.32227z" fill="#fdd5a6" font-variant-ligatures="normal" font-variant-position="normal" font-variant-caps="normal" font-variant-numeric="normal" font-variant-alternates="normal" font-feature-settings="normal" text-indent="0" text-align="start" text-decoration-line="none" text-decoration-style="solid" text-decoration-color="#000000" text-transform="none" text-orientation="mixed" white-space="normal" shape-padding="0" isolation="auto" mix-blend-mode="normal" solid-color="#000000" solid-opacity="1" vector-effect="none"/><path id="path22324" d="m2.9126127 291.7078c-.188333 0-.367072.0412-.529682.11265.4658989.20487.79375.6696.79375 1.20975v.26562c0 .54014-.3278511 1.00488-.79375 1.20974.16261.0715.341349.11266.529682.11266.7283191 0 1.3224011-.59409 1.3224011-1.3224v-.26562c0-.72832-.594082-1.3224-1.3224011-1.3224z" fill="#fdcc93" font-variant-ligatures="normal" font-variant-position="normal" font-variant-caps="normal" font-variant-numeric="normal" font-variant-alternates="normal" font-feature-settings="normal" text-indent="0" text-align="start" text-decoration-line="none" text-decoration-style="solid" text-decoration-color="#000000" text-transform="none" text-orientation="mixed" white-space="normal" shape-padding="0" isolation="auto" mix-blend-mode="normal" solid-color="#000000" solid-opacity="1" vector-effect="none"/><path id="path22326" d="m14.02408 291.7078c-.188333 0-.367072.0412-.529682.11265.465899.20487.79375.6696.79375 1.20975v.26562c0 .54014-.327851 1.00488-.79375 1.20974.16261.0715.341349.11266.529682.11266.728319 0 1.322401-.59409 1.322401-1.3224v-.26562c0-.72832-.594082-1.3224-1.322401-1.3224z" fill="#fdcc93" font-variant-ligatures="normal" font-variant-position="normal" font-variant-caps="normal" font-variant-numeric="normal" font-variant-alternates="normal" font-feature-settings="normal" text-indent="0" text-align="start" text-decoration-line="none" text-decoration-style="solid" text-decoration-color="#000000" text-transform="none" text-orientation="mixed" white-space="normal" shape-padding="0" isolation="auto" mix-blend-mode="normal" solid-color="#000000" solid-opacity="1" vector-effect="none"/><path id="path22303" d="m8.4657637 291.70805c-.7283201 0-1.3242189.59395-1.3242189 1.32227v.26562c0 .72832.5958988 1.32227 1.3242189 1.32227.7283191 0 1.322265-.59395 1.322265-1.32227v-.26562c0-.72832-.5939459-1.32227-1.322265-1.32227z" fill="#fdd5a6" font-variant-ligatures="normal" font-variant-position="normal" font-variant-caps="normal" font-variant-numeric="normal" font-variant-alternates="normal" font-feature-settings="normal" text-indent="0" text-align="start" text-decoration-line="none" text-decoration-style="solid" text-decoration-color="#000000" text-transform="none" text-orientation="mixed" white-space="normal" shape-padding="0" isolation="auto" mix-blend-mode="normal" solid-color="#000000" solid-opacity="1" vector-effect="none"/><path id="path22313" d="m8.4657608 291.7078c-.1883341 0-.3670731.0412-.5296831.11265.465899.20487.79375.6696.79375 1.20975v.26562c0 .54014-.327851 1.00488-.79375 1.20974.16261.0715.341349.11266.5296831.11266.7283178 0 1.3224-.59409 1.3224-1.3224v-.26562c0-.72832-.5940822-1.3224-1.3224-1.3224z" fill="#fdcc93" font-variant-ligatures="normal" font-variant-position="normal" font-variant-caps="normal" font-variant-numeric="normal" font-variant-alternates="normal" font-feature-settings="normal" text-indent="0" text-align="start" text-decoration-line="none" text-decoration-style="solid" text-decoration-color="#000000" text-transform="none" text-orientation="mixed" white-space="normal" shape-padding="0" isolation="auto" mix-blend-mode="normal" solid-color="#000000" solid-opacity="1" vector-effect="none"/><path id="path22338" d="m1.8523417 282.18266a.26460982.26460982 0 0 0 -.265625.26563v7.4082a.26460982.26460982 0 0 0 .265625.26367h12.1699213a.26460982.26460982 0 0 0 .265625-.26367v-7.4082a.26460982.26460982 0 0 0 -.265625-.26563z" fill="#68b1fc" font-variant-ligatures="normal" font-variant-position="normal" font-variant-caps="normal" font-variant-numeric="normal" font-variant-alternates="normal" font-feature-settings="normal" text-indent="0" text-align="start" text-decoration-line="none" text-decoration-style="solid" text-decoration-color="#000000" text-transform="none" text-orientation="mixed" white-space="normal" shape-padding="0" isolation="auto" mix-blend-mode="normal" solid-color="#000000" solid-opacity="1" vector-effect="none"/><path id="path22291" d="m2.1179667 294.08891c-.8748941 0-1.58787901.713-1.58789103 1.58789v.5293a.26460982.26460982 0 0 0 .265625.26562h4.23242203a.26460982.26460982 0 0 0 .265625-.26562v-.5293c0-.8749-.7129971-1.58789-1.58789-1.58789z" fill="#fc6067" font-variant-ligatures="normal" font-variant-position="normal" font-variant-caps="normal" font-variant-numeric="normal" font-variant-alternates="normal" font-feature-settings="normal" text-indent="0" text-align="start" text-decoration-line="none" text-decoration-style="solid" text-decoration-color="#000000" text-transform="none" text-orientation="mixed" white-space="normal" shape-padding="0" isolation="auto" mix-blend-mode="normal" solid-color="#000000" solid-opacity="1" vector-effect="none"/><path id="path22295" d="m9.2606856 294.08891c.8748934 0 1.5878774.713 1.5878894 1.58789v.5293a.26460982.26460982 0 0 1 -.265625.26562h-4.2324202a.26460982.26460982 0 0 1 -.2656261-.26562v-.5293c0-.8749.7129981-1.58789 1.5878911-1.58789z" fill="#68b1fc" font-variant-ligatures="normal" font-variant-position="normal" font-variant-caps="normal" font-variant-numeric="normal" font-variant-alternates="normal" font-feature-settings="normal" text-indent="0" text-align="start" text-decoration-line="none" text-decoration-style="solid" text-decoration-color="#000000" text-transform="none" text-orientation="mixed" white-space="normal" shape-padding="0" isolation="auto" mix-blend-mode="normal" solid-color="#000000" solid-opacity="1" vector-effect="none"/><path id="path22299" d="m14.819137 294.08891c.874894 0 1.585926.713 1.585938 1.58789v.5293a.26460982.26460982 0 0 1 -.263672.26562h-4.232422a.26460982.26460982 0 0 1 -.265625-.26562v-.5293c0-.8749.712997-1.58789 1.587891-1.58789z" fill="#59e78b" font-variant-ligatures="normal" font-variant-position="normal" font-variant-caps="normal" font-variant-numeric="normal" font-variant-alternates="normal" font-feature-settings="normal" text-indent="0" text-align="start" text-decoration-line="none" text-decoration-style="solid" text-decoration-color="#000000" text-transform="none" text-orientation="mixed" white-space="normal" shape-padding="0" isolation="auto" mix-blend-mode="normal" solid-color="#000000" solid-opacity="1" vector-effect="none"/><path id="path22315" d="m9.5246117 295.94268h-3.1739679c-.1469332.00053-.2661812-.11868-.2656152-.26561v.52916c-.0005292.14693.118687.26618.2656152.26562h4.2323012c.146928.00053.266176-.11869.265615-.26562v-.52968c-.000011-.8749-.713122-1.5875-1.5880152-1.5875h-1.0583331c.8748919 0 1.5880049.7126 1.588016 1.58776.0005292.14719-.118682.26644-.265616.26587z" fill="#4fa4fb" font-variant-ligatures="normal" font-variant-position="normal" font-variant-caps="normal" font-variant-numeric="normal" font-variant-alternates="normal" font-feature-settings="normal" text-indent="0" text-align="start" text-decoration-line="none" text-decoration-style="solid" text-decoration-color="#000000" text-transform="none" text-orientation="mixed" white-space="normal" shape-padding="0" isolation="auto" mix-blend-mode="normal" solid-color="#000000" solid-opacity="1" vector-effect="none"/><path id="path22328" d="m15.081126 295.94268h-3.173968c-.146934.00053-.266181-.11868-.265615-.26561v.52916c-.000529.14693.118687.26618.265615.26562h4.232302c.146928.00053.266176-.11869.265615-.26562v-.52968c-.000011-.8749-.713124-1.5875-1.588016-1.5875h-1.058333c.874892 0 1.588005.7126 1.588016 1.58776.000529.14719-.118682.26644-.265616.26587z" fill="#41e37a" font-variant-ligatures="normal" font-variant-position="normal" font-variant-caps="normal" font-variant-numeric="normal" font-variant-alternates="normal" font-feature-settings="normal" text-indent="0" text-align="start" text-decoration-line="none" text-decoration-style="solid" text-decoration-color="#000000" text-transform="none" text-orientation="mixed" white-space="normal" shape-padding="0" isolation="auto" mix-blend-mode="normal" solid-color="#000000" solid-opacity="1" vector-effect="none"/><path id="path22330" d="m3.9697989 295.94268h-3.17396821c-.146934.00053-.266181-.11868-.265615-.26561v.52916c-.00052917.14693.11868701.26618.265615.26562h4.23230201c.1469279.00053.2661759-.11869.265615-.26562v-.52968c-.0000109-.8749-.7131241-1.5875-1.588016-1.5875h-1.0583331c.8748922 0 1.5880051.7126 1.588016 1.58776.0005292.14719-.1186818.26644-.2656157.26587z" fill="#fb4f56" font-variant-ligatures="normal" font-variant-position="normal" font-variant-caps="normal" font-variant-numeric="normal" font-variant-alternates="normal" font-feature-settings="normal" text-indent="0" text-align="start" text-decoration-line="none" text-decoration-style="solid" text-decoration-color="#000000" text-transform="none" text-orientation="mixed" white-space="normal" shape-padding="0" isolation="auto" mix-blend-mode="normal" solid-color="#000000" solid-opacity="1" vector-effect="none"/><path id="path22429" d="m1.8525982 282.1828c-.1471295-.00079-.2666947.11848-.2661338.26561v7.40834c.0005292.14632.1198113.26439.2661338.26355h1.0583334c-.1461691.00053-.2656153-.11738-.2661338-.26355v-6.87917c-.0005292-.14693.1192001-.26618.2661338-.26561h11.1114674c.146934-.00053.266181.11868.265615.26561v-.52917c.000529-.14692-.118689-.26617-.265615-.26561z" fill="#4fa4fb" font-variant-ligatures="normal" font-variant-position="normal" font-variant-caps="normal" font-variant-numeric="normal" font-variant-alternates="normal" font-feature-settings="normal" text-indent="0" text-align="start" text-decoration-line="none" text-decoration-style="solid" text-decoration-color="#000000" text-transform="none" text-orientation="mixed" white-space="normal" shape-padding="0" isolation="auto" mix-blend-mode="normal" solid-color="#000000" solid-opacity="1" vector-effect="none"/><path id="path22417" d="m8.731249 280.59685c-.4351549 0-.7927155.35755-.7927155.79271v4.2323c0 .43516.3575606.7953.7927155.7953h.2635488v1.32189a.26460982.26460982 0 0 0 .4377003.20154l1.7771529-1.52343h4.400248c.43516 0 .7953-.36013.7953-.7953v-4.2323c0-.43516-.36014-.79271-.7953-.79271z" fill="#fc6067" font-variant-ligatures="normal" font-variant-position="normal" font-variant-caps="normal" font-variant-numeric="normal" font-variant-alternates="normal" font-feature-settings="normal" text-indent="0" text-align="start" text-decoration-line="none" text-decoration-style="solid" text-decoration-color="#000000" text-transform="none" text-orientation="mixed" white-space="normal" shape-padding="0" isolation="auto" mix-blend-mode="normal" solid-color="#000000" solid-opacity="1" vector-effect="none"/><path id="path22427" d="m10.848431 282.1828v2.64635c.000045.20741.227862.33414.404111.22479l2.117183-1.3224c.166132-.10359.166132-.34547 0-.44907l-2.117183-1.32446c-.158906-.0994-.404111-.003-.404111.22479z" fill="#e7ebef" font-variant-ligatures="normal" font-variant-position="normal" font-variant-caps="normal" font-variant-numeric="normal" font-variant-alternates="normal" font-feature-settings="normal" text-indent="0" text-align="start" text-decoration-line="none" text-decoration-style="solid" text-decoration-color="#000000" text-transform="none" text-orientation="mixed" white-space="normal" shape-padding="0" isolation="auto" mix-blend-mode="normal" solid-color="#000000" solid-opacity="1" vector-effect="none"/><path id="path22439" d="m14.551566 280.59685c.43516 0 .7953.35755.7953.79271v3.70314c0 .43516-.36014.7953-.7953.7953h-3.341915l-1.7771529 1.52342c-.1719078.14868-.4390232.0257-.4377003-.20154v.52917c-.00132.22728.2657925.35021.4377003.20154l1.7771529-1.52343h4.400248c.43516 0 .7953-.36013.7953-.7953v-4.2323c0-.43516-.36014-.79271-.7953-.79271z" fill="#fb4f56" font-variant-ligatures="normal" font-variant-position="normal" font-variant-caps="normal" font-variant-numeric="normal" font-variant-alternates="normal" font-feature-settings="normal" text-indent="0" text-align="start" text-decoration-line="none" text-decoration-style="solid" text-decoration-color="#000000" text-transform="none" text-orientation="mixed" white-space="normal" shape-padding="0" isolation="auto" mix-blend-mode="normal" solid-color="#000000" solid-opacity="1" vector-effect="none"/><path id="path9871-9-6" d="m4.2330706 288.0057c-.874894 0-1.5880179.71053-1.5880179 1.58543v.52865h5.8223829v-.52865c0-.8749-.7126039-1.58543-1.5875-1.58543z" fill="#fcbc60" font-variant-ligatures="normal" font-variant-position="normal" font-variant-caps="normal" font-variant-numeric="normal" font-variant-alternates="normal" font-feature-settings="normal" text-indent="0" text-align="start" text-decoration-line="none" text-decoration-style="solid" text-decoration-color="#000000" text-transform="none" text-orientation="mixed" white-space="normal" shape-padding="0" isolation="auto" mix-blend-mode="normal" solid-color="#000000" solid-opacity="1" vector-effect="none"/><path id="path22408" d="m5.8213483 288.0057c.8748977 0 1.5875.71053 1.5875 1.58543v.52865h1.0583333v-.52865c0-.8749-.7126023-1.58543-1.5875-1.58543z" fill="#fbb04f" font-variant-ligatures="normal" font-variant-position="normal" font-variant-caps="normal" font-variant-numeric="normal" font-variant-alternates="normal" font-feature-settings="normal" text-indent="0" text-align="start" text-decoration-line="none" text-decoration-style="solid" text-decoration-color="#000000" text-transform="none" text-orientation="mixed" white-space="normal" shape-padding="0" isolation="auto" mix-blend-mode="normal" solid-color="#000000" solid-opacity="1" vector-effect="none"/><path id="path9878-9-3" d="m4.4986856 286.94685v1.3224c-.0002598.0203.0019.0406.0062.0605 0 0 .04662.19629.2030889.37672.1564618.18042.4450159.35553.849562.35553.4045479 0 .69103-.17511.8474919-.35553.1564211-.18043.2030891-.37672.2030891-.37672.0044-.0198.0065-.0401.0062-.0605v-1.3224z" fill="#fdd5a6" font-variant-ligatures="normal" font-variant-position="normal" font-variant-caps="normal" font-variant-numeric="normal" font-variant-alternates="normal" font-feature-settings="normal" text-indent="0" text-align="start" text-decoration-line="none" text-decoration-style="solid" text-decoration-color="#000000" text-transform="none" text-orientation="mixed" white-space="normal" shape-padding="0" isolation="auto" mix-blend-mode="normal" solid-color="#000000" solid-opacity="1" vector-effect="none"/><path id="path9906-3-7" d="m4.4986856 286.94685v1.03301c.3123922.18239.6737461.28887 1.0588522.28887.3845848 0 .7449849-.10632 1.0567829-.28836v-1.03352z" fill="#fdcc93" font-variant-ligatures="normal" font-variant-position="normal" font-variant-caps="normal" font-variant-numeric="normal" font-variant-alternates="normal" font-feature-settings="normal" text-indent="0" text-align="start" text-decoration-line="none" text-decoration-style="solid" text-decoration-color="#000000" text-transform="none" text-orientation="mixed" white-space="normal" shape-padding="0" isolation="auto" mix-blend-mode="normal" solid-color="#000000" solid-opacity="1" vector-effect="none"/><path id="path9864-2-1" d="m3.9695208 285.09321v1.05885c-.0000111.87491.7131209 1.5875 1.588018 1.5875.8749028 0 1.5859499-.71261 1.5859499-1.5875v-1.05885z" fill="#fdd5a6" font-variant-ligatures="normal" font-variant-position="normal" font-variant-caps="normal" font-variant-numeric="normal" font-variant-alternates="normal" font-feature-settings="normal" text-indent="0" text-align="start" text-decoration-line="none" text-decoration-style="solid" text-decoration-color="#000000" text-transform="none" text-orientation="mixed" white-space="normal" shape-padding="0" isolation="auto" mix-blend-mode="normal" solid-color="#000000" solid-opacity="1" vector-effect="none"/><path id="path9895-7-4" d="m6.0851556 285.09321v1.05885c0 .68916-.441855 1.2762-1.0567829 1.495.1658829.059.3434241.0925.5291661.0925.8749028 0 1.5859499-.71261 1.5859499-1.5875v-1.05885z" fill="#fdcc93" font-variant-ligatures="normal" font-variant-position="normal" font-variant-caps="normal" font-variant-numeric="normal" font-variant-alternates="normal" font-feature-settings="normal" text-indent="0" text-align="start" text-decoration-line="none" text-decoration-style="solid" text-decoration-color="#000000" text-transform="none" text-orientation="mixed" white-space="normal" shape-padding="0" isolation="auto" mix-blend-mode="normal" solid-color="#000000" solid-opacity="1" vector-effect="none"/><path id="path9857-2-7" d="m5.2919218 283.24165c-.8749012 0-1.5880191.71311-1.588016 1.58801v.79272c-.0007937.14713.1184849.26669.265615.26613h.7927178c.6754832 0 1.3733892-.3457 1.5492601-.45888l.3808539.38034c.04957.0501.117089.0784.1875841.0786h.263552c.1471289.00053.266464-.11901.2656149-.26614v-.79271c0-.87491-.7131209-1.58802-1.5880159-1.58802z" fill="#5a626e" font-variant-ligatures="normal" font-variant-position="normal" font-variant-caps="normal" font-variant-numeric="normal" font-variant-alternates="normal" font-feature-settings="normal" text-indent="0" text-align="start" text-decoration-line="none" text-decoration-style="solid" text-decoration-color="#000000" text-transform="none" text-orientation="mixed" white-space="normal" shape-padding="0" isolation="auto" mix-blend-mode="normal" solid-color="#000000" solid-opacity="1" vector-effect="none"/><path id="path9893-8-1" d="m5.2919218 283.24165c-.09031 0-.17833.01-.2645841.0243.7493719.12675 1.3234331.77913 1.3234331 1.56373v.63923l.3415818.34107c.04957.0501.117089.0784.1875841.0786h.263552c.1471289.00053.266464-.11901.2656149-.26614v-.79271c0-.87491-.7131209-1.58802-1.5880159-1.58802z" fill="#515663" font-variant-ligatures="normal" font-variant-position="normal" font-variant-caps="normal" font-variant-numeric="normal" font-variant-alternates="normal" font-feature-settings="normal" text-indent="0" text-align="start" text-decoration-line="none" text-decoration-style="solid" text-decoration-color="#000000" text-transform="none" text-orientation="mixed" white-space="normal" shape-padding="0" isolation="auto" mix-blend-mode="normal" solid-color="#000000" solid-opacity="1" vector-effect="none"/></g></svg>