<svg width="55" height="64" viewBox="0 0 55 64" fill="none" xmlns="http://www.w3.org/2000/svg">
<path d="M1.03077 27.2266C1.60004 27.2266 2.06153 26.7651 2.06153 26.1958C2.06153 25.6265 1.60004 25.165 1.03077 25.165C0.461489 25.165 0 25.6265 0 26.1958C0 26.7651 0.461489 27.2266 1.03077 27.2266Z" fill="#981B9F"/>
<path d="M11.2142 4.67439C11.4154 4.87565 11.6793 4.97641 11.9429 4.97641C12.2065 4.97641 12.4704 4.87565 12.6717 4.67439L13.4004 3.94564L14.1292 4.67439C14.3304 4.87565 14.5943 4.97641 14.8579 4.97641C15.1215 4.97641 15.3854 4.87565 15.5867 4.67439C15.9892 4.27188 15.9892 3.6194 15.5867 3.21689L14.8579 2.48814L15.5869 1.75939C15.9894 1.35687 15.9894 0.704399 15.5869 0.301885C15.1844 -0.100628 14.5319 -0.100628 14.1294 0.301885L13.4007 1.03064L12.6719 0.301885C12.2694 -0.100628 11.6169 -0.100628 11.2144 0.301885C10.8119 0.704399 10.8119 1.35687 11.2144 1.75939L11.9432 2.48814L11.2144 3.21689C10.8114 3.61966 10.8114 4.27188 11.2142 4.67439Z" fill="#981B9F"/>
<path d="M3.0923 9.70361C1.38715 9.70361 0 11.0908 0 12.7959C0 14.5011 1.38715 15.8882 3.0923 15.8882C4.79744 15.8882 6.18459 14.5011 6.18459 12.7959C6.18459 11.0908 4.7977 9.70361 3.0923 9.70361ZM3.0923 13.8267C2.52409 13.8267 2.06153 13.3641 2.06153 12.7959C2.06153 12.2277 2.52409 11.7651 3.0923 11.7651C3.66051 11.7651 4.12306 12.2277 4.12306 12.7959C4.12306 13.3641 3.66051 13.8267 3.0923 13.8267Z" fill="#981B9F"/>
<path d="M35.5618 50.934H30.9233V32.3802C30.9233 32.139 30.8388 31.9055 30.6842 31.7203L25.5303 25.5357C25.2451 25.1924 24.7709 25.0726 24.3555 25.2383L19.2017 27.2998C18.6732 27.5117 18.416 28.111 18.6273 28.6401C18.8391 29.1681 19.438 29.4247 19.9676 29.2145L24.4259 27.4307L28.8615 32.7531V50.934H24.2231H23.0751C22.2873 50.934 21.6462 50.2929 21.6462 49.5051V47.8548C21.6462 44.4958 20.2052 41.3012 17.588 38.8599C13.5748 35.1164 11.5027 29.8185 11.9036 24.3261C12.5241 15.8153 19.372 8.69193 27.832 7.75625C28.516 7.68024 29.2091 7.6421 29.892 7.6421C30.4613 7.6421 30.9228 7.18057 30.9228 6.61133C30.9228 6.04209 30.4613 5.58057 29.892 5.58057C29.1336 5.58057 28.3639 5.62334 27.6055 5.70684C18.1743 6.74997 10.5397 14.6902 9.84751 24.1758C9.40119 30.2939 11.7104 36.1958 16.1821 40.3676C18.3766 42.4145 19.5849 45.0736 19.5849 47.8548V49.5051C19.5849 50.9706 20.4948 52.2227 21.7776 52.7394C21.6998 52.9844 21.6464 53.2403 21.6464 53.5109C21.6464 54.0933 21.8479 54.6249 22.1749 55.0571C21.8479 55.4892 21.6464 56.0208 21.6464 56.6032C21.6464 57.8476 22.5331 58.8884 23.708 59.1281V60.2547C23.708 61.9356 25.0755 63.3032 26.7564 63.3032H33.0287C34.7096 63.3032 36.0771 61.9356 36.0771 60.2547V59.1281C37.252 58.8887 38.1387 57.8476 38.1387 56.6032C38.1387 56.0208 37.9372 55.4892 37.6101 55.0571C37.9372 54.6249 38.1387 54.0933 38.1387 53.5109C38.1387 52.09 36.9827 50.934 35.5618 50.934ZM35.5618 52.9955C35.8462 52.9955 36.0771 53.2264 36.0771 53.5109C36.0771 53.7954 35.8462 54.0263 35.5618 54.0263H24.2233C23.9388 54.0263 23.708 53.7954 23.708 53.5109C23.708 53.2264 23.9388 52.9955 24.2233 52.9955H35.5618ZM33.0287 61.2416H26.7564C26.2125 61.2416 25.7695 60.7987 25.7695 60.2547V59.1801H34.0156V60.2547C34.0156 60.7987 33.5729 61.2416 33.0287 61.2416ZM35.5618 57.1186H24.2233C23.9388 57.1186 23.708 56.8877 23.708 56.6032C23.708 56.3187 23.9388 56.0878 24.2233 56.0878H35.5618C35.8462 56.0878 36.0771 56.3187 36.0771 56.6032C36.0771 56.8877 35.8462 57.1186 35.5618 57.1186Z" fill="#981B9F"/>
<path d="M17.6004 15.1999C16.3462 16.6014 15.3487 18.1901 14.6354 19.9218C14.4189 20.4483 14.6697 21.0507 15.1961 21.2677C15.3245 21.3205 15.4574 21.3458 15.5881 21.3458C15.9932 21.3458 16.3777 21.1051 16.5418 20.707C17.1659 19.1915 18.0387 17.8015 19.1362 16.5749C19.5158 16.1507 19.48 15.4988 19.0558 15.1195C18.6312 14.7388 17.9784 14.7762 17.6004 15.1999Z" fill="#981B9F"/>
<path d="M24.1871 10.7171C22.9445 11.1756 21.7555 11.786 20.6533 12.5321C20.1818 12.8511 20.0583 13.492 20.3776 13.9635C20.5768 14.2581 20.9015 14.4166 21.2321 14.4166C21.4308 14.4166 21.6318 14.3591 21.8088 14.2393C22.7731 13.5865 23.8129 13.0521 24.8996 12.6519C25.434 12.4545 25.7074 11.8623 25.5106 11.3281C25.3129 10.7942 24.7205 10.5203 24.1871 10.7171Z" fill="#981B9F"/>
<path d="M52.2486 19.005C51.2521 18.0085 49.9869 17.322 48.6051 17.0149C48.759 15.3285 48.1923 13.6677 47.0154 12.4906C46.9799 12.4375 46.9574 12.3782 46.9108 12.3311C45.6556 11.0614 43.8997 10.5834 42.2664 10.8965C42.234 9.67581 41.7572 8.51362 40.8898 7.64623C39.012 5.76843 35.3167 5.91197 33.2864 7.9436C33.0931 8.13687 32.9844 8.3992 32.9844 8.67235V45.7799C32.9844 46.167 33.2014 46.5218 33.5461 46.6978C34.4244 47.1462 35.4889 47.416 36.5408 47.416C37.7684 47.416 38.9788 47.049 39.856 46.1713C40.0503 45.977 40.2289 45.7683 40.3904 45.5457C42.5628 46.4752 45.1858 45.9709 46.9768 44.1796C48.5714 42.5856 49.1576 40.281 48.5551 38.2231C48.692 38.1084 48.8213 37.9896 48.9453 37.8657C50.7148 36.0966 51.2866 33.5262 50.4919 31.3126C51.0315 30.9763 51.5291 30.5813 51.9791 30.1319C55.1216 26.9898 55.2422 21.9981 52.2486 19.005ZM49.2352 29.6361C48.2675 28.9045 47.1066 28.487 45.8718 28.4795C44.3558 28.4932 42.9305 29.0508 41.8528 30.1154C41.4477 30.5156 41.4436 31.1683 41.8438 31.5729C42.2445 31.9785 42.8967 31.9821 43.3013 31.5819C44.6983 30.2017 46.9427 30.2043 48.3454 31.5651C49.1424 33.1239 48.8105 35.0852 47.4878 36.4084C47.2785 36.6177 47.0389 36.8097 46.7554 36.9942C46.3261 37.2745 46.1681 37.8276 46.3846 38.2922C47.0621 39.7471 46.7142 41.5275 45.5195 42.7221C44.3287 43.9129 42.6014 44.2523 41.189 43.6431C41.189 43.6411 41.19 43.6395 41.19 43.6377L41.198 42.2895C41.2122 40.0537 39.4042 38.2234 37.168 38.2092C37.1654 38.2092 37.1634 38.2092 37.1616 38.2092C36.5954 38.2092 36.1344 38.6661 36.1308 39.2335C36.1272 39.8028 36.5859 40.2674 37.1551 40.2707C38.2549 40.2777 39.1437 41.1773 39.1365 42.2769L39.1285 43.6256C39.1285 43.6341 39.1331 43.6413 39.1334 43.6498C39.1138 43.6831 39.0811 43.7058 39.0651 43.7413C38.8989 44.1108 38.675 44.4373 38.3992 44.7131C37.6383 45.4756 36.2109 45.5013 35.0462 45.0991V9.13723C36.3331 8.1513 38.4268 8.09951 39.4323 9.10399C40.1423 9.81393 40.3786 10.8924 40.0655 11.9296C39.9168 12.0471 39.7604 12.1504 39.6225 12.2867C38.643 13.2541 38.099 14.5457 38.0905 15.922C38.082 17.2983 38.6106 18.596 39.5777 19.5755C39.7794 19.7794 40.0451 19.8817 40.3111 19.8817C40.5729 19.8817 40.8344 19.7825 41.0357 19.5843C41.4403 19.1841 41.4444 18.5314 41.0442 18.1263C40.4634 17.539 40.1469 16.7608 40.1518 15.9349C40.1567 15.109 40.4835 14.3343 41.0707 13.7535C41.5013 13.3278 42.0283 13.0624 42.5805 12.9418C43.685 12.8168 44.7771 13.1675 45.5564 13.9468C46.4841 14.8745 46.802 16.2364 46.407 17.5908C46.3194 17.8902 46.3727 18.2134 46.5516 18.469C46.7301 18.7252 47.0152 18.8862 47.3267 18.9073C48.667 18.9988 49.865 19.5364 50.7909 20.4625C52.9802 22.6524 52.8593 26.3361 50.5216 28.6744C50.142 29.0542 49.7016 29.3634 49.2352 29.6361Z" fill="#981B9F"/>
</svg>
