<svg width="26" height="18" viewBox="0 0 26 18" fill="none" xmlns="http://www.w3.org/2000/svg">
<path d="M7.22208 16.6786C7.22208 16.7898 7.22208 16.9009 7.32987 17.0121C7.43766 17.1233 7.54546 17.1233 7.65325 17.1233H17.3545C17.5701 17.1233 17.7857 16.9009 17.7857 16.6786C17.7857 16.5674 17.7857 16.0114 17.6779 15.1219H24.7922C25.0078 15.1219 25.2234 14.8995 25.2234 14.6771C25.2234 14.566 25.3312 10.8967 23.0675 8.78408C22.9597 8.67289 22.6364 8.67289 22.5286 8.78408C22.5286 8.78408 19.9416 10.7855 17.4623 8.78408C17.2468 8.67289 17.0312 8.67289 16.9234 8.78408C16.9234 8.78408 16.1688 9.45122 15.5221 10.7855C15.4143 10.6743 15.1987 10.7855 15.0909 10.7855C14.9831 10.8967 12.5039 12.7869 10.0247 10.7855C9.91688 10.6743 9.7013 10.6743 9.5935 10.6743C9.27013 10.0072 8.83896 9.34003 8.3 8.78408C8.19221 8.67289 7.86883 8.67289 7.76104 8.78408C7.76104 8.78408 5.17403 10.7855 2.8026 8.78408C2.58702 8.67289 2.37143 8.67289 2.26364 8.78408C2.15585 8.89527 0 10.7855 0 14.6771C0 14.7883 2.46556e-06 14.8995 0.107795 15.0107C0.215587 15.1219 0.323378 15.1219 0.43117 15.1219H7.43766C7.22208 15.6779 7.22208 16.1226 7.22208 16.6786ZM17.139 9.78478C19.4026 11.4526 21.774 10.3407 22.6364 9.78478C23.9299 11.2303 24.1455 13.3429 24.2532 14.3436H17.4623C17.2468 13.4541 16.8156 12.3422 16.1688 11.5638C16.4922 10.6743 16.9234 10.0072 17.139 9.78478ZM9.80909 11.7862C12.0727 13.4541 14.4442 12.3422 15.3065 11.7862C16.6 13.2317 16.8156 15.3443 16.9234 16.345H8.19221C8.19221 13.8988 9.27013 12.3422 9.80909 11.7862ZM0.754546 14.2324C0.862338 11.7862 1.94026 10.3407 2.47922 9.6736C4.74286 11.3414 7.11429 10.2295 7.97662 9.6736C8.40779 10.1184 8.73117 10.7855 8.94675 11.3414C8.51558 11.8974 7.86883 12.8981 7.54545 14.2324H0.754546Z" fill="#3C4DB7"/>
<path d="M0.969727 4.22522C0.969727 6.56021 2.80219 8.45044 5.06583 8.45044C6.14375 8.45044 7.22167 8.00568 7.97622 7.22735C8.08401 7.11616 8.1918 7.00498 8.2996 6.89378C8.62297 8.89521 10.3477 10.5631 12.3957 10.5631C13.4736 10.5631 14.5515 10.1183 15.3061 9.33997C15.9528 8.67283 16.384 7.78331 16.4918 6.89378C17.2463 7.8945 18.4321 8.56164 19.8334 8.56164C20.9113 8.56164 21.9892 8.11687 22.7438 7.33854C23.4983 6.56021 23.9295 5.44832 23.9295 4.33641C23.9295 2.00142 22.097 0.111188 19.8334 0.111188C18.7554 0.111188 17.6775 0.555951 16.923 1.33428C16.2762 2.00142 15.8451 2.89094 15.7373 3.78046C14.9827 2.77975 13.797 2.11261 12.3957 2.11261C11.3178 2.11261 10.2399 2.55737 9.48531 3.3357C9.37752 3.44689 9.26973 3.55808 9.16194 3.66927C8.83856 1.66785 7.11388 0 5.06583 0C3.98791 0 2.90998 0.444759 2.15544 1.22309C1.40089 2.00142 0.969727 3.00213 0.969727 4.22522ZM17.5697 1.77904C18.2165 1.1119 18.971 0.778331 19.8334 0.778331C21.6658 0.778331 23.0671 2.33499 23.0671 4.11403C23.0671 5.00355 22.7438 5.89307 22.097 6.44902C21.4502 7.11616 20.6957 7.44974 19.8334 7.44974C18.0009 7.44974 16.5996 5.89307 16.5996 4.11403C16.5996 3.3357 16.923 2.44618 17.5697 1.77904ZM10.1321 3.78046C10.7788 3.11332 11.5334 2.77975 12.3957 2.77975C14.2282 2.77975 15.6295 4.33641 15.6295 6.11545C15.6295 7.00497 15.3061 7.89449 14.6593 8.45044C14.0126 9.11758 13.258 9.45116 12.3957 9.45116C10.5632 9.45116 9.16194 7.8945 9.16194 6.11545C9.16194 5.33712 9.48531 4.4476 10.1321 3.78046ZM5.17362 0.778331C7.00609 0.778331 8.40739 2.33499 8.40739 4.11403C8.40739 5.00355 8.08401 5.89307 7.43726 6.44902C6.79051 7.11616 6.03596 7.44974 5.17362 7.44974C3.34115 7.44974 1.93985 5.89307 1.93985 4.11403C1.93985 3.22451 2.26323 2.33499 2.90999 1.77904C3.44895 1.1119 4.31128 0.778331 5.17362 0.778331Z" fill="#3C4DB7"/>
</svg>
