<svg width="71" height="67" viewBox="0 0 71 67" fill="none" xmlns="http://www.w3.org/2000/svg">
<path d="M70.954 48.7445L66.0334 24.2909C65.9098 23.6764 65.5509 23.1459 65.0227 22.7968C64.4946 22.4478 63.8618 22.3227 63.2413 22.4452L56.9096 23.6941C55.6259 23.9474 54.7893 25.1873 55.0451 26.4582L55.1058 26.7601C51.3108 28.0065 46.6983 28.3654 40.9597 23.6778C38.3457 21.5427 34.9391 21.4724 32.4827 23.5026L29.9204 25.6206H15.9669C15.811 24.6822 15.0868 23.8906 14.0906 23.6939L7.75865 22.4451C7.13775 22.3225 6.50544 22.4477 5.97726 22.7967C5.44907 23.1458 5.09018 23.6764 4.96656 24.2907L0.0460057 48.7445C-0.209732 50.0154 0.626671 51.2553 1.91037 51.5086L8.24214 52.7575C8.39765 52.7882 8.55371 52.8034 8.70893 52.8034C9.17307 52.8034 9.62775 52.6676 10.0235 52.406C10.5517 52.0568 10.9108 51.5263 11.0344 50.9118L11.0643 50.763L26.0835 65.6324C26.9742 66.5143 28.1625 67 29.4291 67C30.6957 67 31.884 66.5143 32.7746 65.6325C33.4097 65.0037 33.8415 64.2254 34.0371 63.376L36.1248 65.4429C37.9698 67.2692 40.9716 67.2691 42.8163 65.4426C43.466 64.7992 43.8869 64.0136 44.079 63.1862C44.9642 64.0392 46.1331 64.5081 47.3777 64.5081C48.6444 64.5081 49.8326 64.0223 50.7234 63.1402C51.7489 62.1248 52.2043 60.7557 52.0895 59.4259C52.2233 59.437 52.3582 59.4426 52.494 59.4426C53.7607 59.4426 54.9487 58.9568 55.8396 58.0748C57.0881 56.839 57.5146 54.9927 56.9999 53.3533L59.8824 50.4999L59.9653 50.912C60.089 51.5264 60.448 52.0569 60.9762 52.4062C61.3721 52.6678 61.8266 52.8035 62.2908 52.8035C62.4459 52.8035 62.6021 52.7884 62.7576 52.7576L69.0894 51.5088C70.3733 51.2553 71.2097 50.0154 70.954 48.7445ZM8.78661 50.5718C8.76309 50.5874 8.72508 50.6042 8.67747 50.5947L2.3457 49.3458C2.26913 49.3308 2.21525 49.251 2.23057 49.1753L7.15112 24.7217C7.16058 24.6749 7.19065 24.6463 7.21418 24.6307C7.23311 24.6183 7.2611 24.6052 7.2959 24.6052C7.30453 24.6052 7.31386 24.6061 7.32346 24.608L13.6552 25.8569C13.7318 25.872 13.7857 25.9517 13.7704 26.0275L8.84982 50.4808C8.84035 50.5278 8.81028 50.5562 8.78661 50.5718ZM54.2649 56.5151C53.7946 56.9807 53.1658 57.2372 52.4942 57.2372C51.8227 57.2372 51.1937 56.9809 50.7236 56.5153L39.9511 45.8502C39.5161 45.4195 38.8111 45.4196 38.376 45.8502C37.9411 46.2808 37.9411 46.9789 38.376 47.4095L49.1485 58.0745C50.1248 59.0411 50.1248 60.6139 49.1485 61.5806C48.6784 62.0462 48.0494 62.3026 47.3777 62.3026C46.7061 62.3026 46.0773 62.0463 45.6071 61.5808L34.2242 50.3114C33.7895 49.8807 33.0843 49.881 32.6493 50.3114C32.2144 50.7422 32.2144 51.4401 32.6494 51.8707L41.2405 60.3763L41.2414 60.377C42.2175 61.3434 42.2175 62.9162 41.2412 63.8829C40.2648 64.8498 38.6759 64.8495 37.6999 63.8831L28.4978 54.7727C28.063 54.3423 27.3579 54.342 26.9227 54.7727C26.4878 55.2033 26.4878 55.9014 26.9227 56.332L31.1999 60.5665C31.6702 61.0319 31.929 61.6546 31.929 62.3195C31.929 62.9844 31.6701 63.607 31.1997 64.0727C30.7297 64.538 30.1008 64.7944 29.4291 64.7944C28.7574 64.7944 28.1286 64.538 27.6584 64.0726L11.5876 48.1623L15.6797 27.8259H27.2528L23.9925 30.5209C22.581 31.6874 21.9747 33.2785 22.3292 34.8858L24.9046 46.5702C24.9688 46.8609 25.1488 47.1137 25.4039 47.2709C25.659 47.4282 25.9675 47.477 26.2593 47.4057C29.3523 46.6511 31.4203 45.1753 32.5818 42.8939C33.5857 40.9221 33.785 38.6787 33.9961 36.3038C34.0228 36.0019 34.0499 35.6983 34.0788 35.3938C34.0822 35.368 34.0866 35.3498 34.09 35.3377C34.4741 35.1776 36.3644 35.5482 39.2596 38.1531L54.769 53.7319C55.1951 54.6641 54.9983 55.7893 54.2649 56.5151ZM55.698 51.5238L40.8246 36.5838C40.8105 36.5698 40.7963 36.5561 40.7814 36.5427C37.8125 33.8647 35.0173 32.6436 33.3022 33.2769C32.4953 33.5749 31.9715 34.2558 31.8654 35.1446C31.8643 35.1533 31.8633 35.162 31.8625 35.1708C31.8325 35.4853 31.8047 35.7987 31.777 36.1105C31.4159 40.1733 31.1249 43.4451 26.8257 44.9427L24.5052 34.4158C24.2705 33.3517 24.9776 32.5795 25.4199 32.214L33.9102 25.1957C35.5178 23.867 37.781 23.9408 39.5422 25.3792C45.9939 30.649 51.3949 30.247 55.544 28.9383L59.3593 47.8993L55.698 51.5238ZM68.6543 49.3458L62.3225 50.5947C62.2748 50.6042 62.2368 50.5874 62.2134 50.5718C62.1897 50.5562 62.1597 50.5278 62.1502 50.4808L57.2296 26.0274C57.2145 25.9517 57.2681 25.8719 57.3446 25.8567L63.6765 24.6079C63.724 24.5984 63.7622 24.6152 63.7858 24.6307C63.8093 24.6463 63.8394 24.6747 63.8489 24.7217L68.7694 49.1753C68.7847 49.2511 68.7309 49.3308 68.6543 49.3458Z" fill="#981B9F"/>
<circle cx="36.5" cy="9.5" r="8.5" stroke="#981B9F" stroke-width="2"/>
<path d="M31 9.5L34.5 13L41.5 6" stroke="#981B9F" stroke-width="1.5"/>
</svg>
