<svg width="25" height="24" viewBox="0 0 25 24" fill="none" xmlns="http://www.w3.org/2000/svg">
<path d="M12.6654 7.72493C12.2249 7.72493 11.7844 7.61134 11.454 7.38413L11.2337 7.27052L10.9033 8.29295L11.0135 8.40655C11.3439 8.63376 11.7844 8.86097 12.335 8.86097V9.88341H13.3262V8.74737C14.2073 8.52016 14.7579 7.83854 14.7579 6.92971C14.7579 5.79367 13.8769 5.33925 13.2161 4.99844C12.335 4.65763 12.2249 4.43043 12.2249 4.08962C12.2249 3.7488 12.4452 3.5216 12.9958 3.5216C13.5465 3.5216 13.8769 3.7488 14.0972 3.8624L14.3174 3.97601L14.6478 2.95358L14.5377 2.83997C14.2073 2.61276 13.8769 2.49916 13.4364 2.49916V1.59033H12.4452V2.61276C11.5641 2.83997 11.0135 3.52159 11.0135 4.31682C11.0135 5.33925 11.7844 5.79367 12.6654 6.13448C13.3262 6.36169 13.5465 6.7025 13.5465 7.04331C13.5465 7.49773 13.2161 7.72493 12.6654 7.72493ZM12.8857 5.68007C11.8945 5.22566 11.454 4.88484 11.454 4.20322C11.454 3.5216 11.8945 3.06718 12.6654 2.95358H12.8857V2.04474H12.9958V2.95358H13.2161C13.5465 2.95358 13.8769 3.06718 14.0972 3.18078V3.408C13.8769 3.29439 13.5465 3.18078 13.106 3.18078C12.335 3.18078 11.8945 3.7488 11.8945 4.20322C11.8945 4.88484 12.4452 5.22565 13.2161 5.45286C14.0972 5.79367 14.5377 6.24809 14.5377 6.92971C14.5377 7.61133 13.987 8.17935 13.2161 8.29295H12.9958V9.20179H12.8857V8.29295H12.6654C12.2249 8.29295 11.7844 8.17935 11.5641 7.95215L11.6742 7.72493C12.0046 7.95214 12.4452 8.06575 12.8857 8.06575C13.6566 8.06575 14.2073 7.61133 14.2073 6.92971C13.987 6.36169 13.4364 6.02088 12.8857 5.68007Z" fill="#3C4DB7"/>
<path d="M17.6211 8.29308C18.0617 7.49785 18.2819 6.58902 18.2819 5.56658C18.2819 2.49928 15.859 0 12.8855 0C9.91189 0 7.48899 2.49928 7.48899 5.56658C7.48899 6.58902 7.70925 7.49785 8.14978 8.29308H1.65198L0 12.9508L0.770926 23.6296H24.3392L25 12.9508L22.9075 8.29308H17.6211ZM8.14978 5.56658C8.14978 2.84009 10.3524 0.568019 12.9956 0.568019C14.0969 0.568019 14.978 0.908829 15.859 1.47685C15.9692 1.47685 15.9692 1.59045 16.0793 1.59045C16.5198 1.93127 16.9604 2.38568 17.1806 2.9537C17.6211 3.63532 17.8414 4.54415 17.8414 5.45298C17.8414 5.68019 17.8414 5.79379 17.8414 5.9074C17.8414 6.36181 17.6211 6.92983 17.511 7.27064C17.1806 8.17947 16.5198 8.86109 15.7489 9.42911C14.978 9.99713 14.0969 10.2243 13.1057 10.2243C10.2423 10.5652 8.14978 8.29307 8.14978 5.56658ZM14.0969 11.0196H20.5947V12.1556H4.51542V11.0196H11.7841C11.7841 11.0196 11.7841 11.0196 11.8943 11.0196C12.2247 11.1332 12.5551 11.1332 12.9956 11.1332C13.326 11.1332 13.6564 11.1332 14.0969 11.0196ZM23.4581 22.7208H1.65198L0.991187 14.2005H24.0088L23.4581 22.7208ZM24.0088 13.2916V13.4052H0.991187V13.2916V13.0644L2.31277 9.20191H8.81057C8.9207 9.31551 8.92071 9.42911 9.03084 9.42911C9.47137 9.88353 9.91189 10.2243 10.4626 10.4515H3.96476V12.4964H20.9251V10.4515H15.1982C15.859 10.1107 16.4097 9.65632 16.8502 9.20191H22.2467L24.0088 13.0644V13.2916Z" fill="#3C4DB7"/>
</svg>
