<svg width="82" height="79" viewBox="0 0 82 79" fill="none" xmlns="http://www.w3.org/2000/svg">
<path d="M38.3965 71.1097L21.7093 78.5266C21.1973 78.7542 20.598 78.5237 20.3704 78.0117L8.06336 50.3224C7.83578 49.8104 8.06627 49.2111 8.5783 48.9835L25.2655 41.5666C25.7775 41.339 26.3768 41.5695 26.6044 42.0815L38.9114 69.7707C39.1396 70.284 38.9085 70.8821 38.3965 71.1097ZM21.8116 76.2625L36.6461 69.669L25.1625 43.8324L10.328 50.4259L21.8116 76.2625Z" fill="#981B9F"/>
<path d="M27.9381 71.8066C25.6477 72.8246 22.956 71.7894 21.938 69.499C20.92 67.2087 21.9553 64.517 24.2456 63.499C26.536 62.481 29.2282 63.5174 30.2457 65.8065C31.2631 68.0957 30.2284 70.7886 27.9381 71.8066ZM25.0691 65.3516C23.8004 65.9155 23.2268 67.4069 23.7907 68.6756C24.3546 69.9443 25.8454 70.5166 27.1141 69.9527C28.3828 69.3888 28.9569 67.8987 28.393 66.63C27.8291 65.3613 26.3377 64.7877 25.0691 65.3516Z" fill="#981B9F"/>
<path d="M57.8786 40.362C57.3701 40.588 56.7742 40.3617 56.5428 39.8542C56.3117 39.3438 56.537 38.7425 57.0474 38.5113C57.9651 38.0948 58.3734 37.0101 57.9574 36.0935C57.756 35.6503 57.3937 35.3101 56.9369 35.1384C56.48 34.9666 55.9709 34.9359 55.5396 35.1836L43.9711 40.4245C43.9687 40.4256 43.9663 40.4266 43.9639 40.4277C43.4555 40.6537 42.8578 40.4268 42.6282 39.92C42.3976 39.4107 42.6229 38.8094 43.1333 38.5782L54.7017 33.3373C54.7101 33.3336 54.7185 33.3298 54.7269 33.3261C55.6587 32.912 56.6951 32.8821 57.6504 33.2416C58.6144 33.6044 59.3791 34.32 59.8035 35.2586C60.6808 37.1936 59.8196 39.482 57.8846 40.3593C57.8822 40.3604 57.8798 40.3614 57.8786 40.362Z" fill="#981B9F"/>
<path d="M60.2207 45.5358C59.7123 45.7618 59.1145 45.5349 58.885 45.0281C58.6543 44.5189 58.8808 43.917 59.39 43.6864C59.8351 43.4857 60.174 43.124 60.3457 42.6671C60.5175 42.2102 60.5007 41.7136 60.2988 41.2691C60.0975 40.8259 59.7352 40.4857 59.2795 40.3134C58.8232 40.1429 58.3005 40.1785 57.8828 40.3598L51.2879 43.3471C50.7746 43.6169 50.1774 43.3524 49.9462 42.842C49.7156 42.3328 49.9409 41.7314 50.4513 41.5003L57.0449 38.5136C57.0545 38.5093 57.0629 38.5056 57.0725 38.5013C58.003 38.0877 59.0395 38.0579 59.9931 38.4166C60.9571 38.7794 61.7218 39.495 62.1461 40.4337C62.5717 41.3718 62.6047 42.4184 62.2419 43.3824C61.8798 44.3447 61.1629 45.1099 60.2248 45.5354C60.2243 45.5342 60.2231 45.5348 60.2207 45.5358Z" fill="#981B9F"/>
<path d="M62.5664 50.7112C62.0579 50.9372 61.4619 50.711 61.2306 50.2035C60.9994 49.6931 61.2247 49.0917 61.7352 48.8606C62.6529 48.444 63.0611 47.3593 62.6451 46.4428C62.2307 45.5299 61.1543 45.1208 60.2394 45.5275C60.2358 45.5291 60.2322 45.5307 60.2274 45.5328L52.4479 49.0566C52.4455 49.0577 52.4443 49.0582 52.4419 49.0593C51.9335 49.2853 51.3358 49.0584 51.1062 48.5516C50.8755 48.0423 51.1008 47.441 51.6113 47.2098L59.3907 43.686C59.3991 43.6823 59.4075 43.6786 59.4147 43.6754C61.3453 42.8173 63.6184 43.6795 64.4925 45.6074C65.3686 47.5429 64.5074 49.8313 62.5724 50.7086C62.5712 50.7091 62.5688 50.7102 62.5664 50.7112Z" fill="#981B9F"/>
<path d="M53.341 61.1259C52.8326 61.3518 52.2348 61.1249 52.0053 60.6181C51.7746 60.1089 51.9999 59.5076 52.5103 59.2764L64.0788 54.0355C64.5238 53.8348 64.8628 53.473 65.0345 53.0162C65.2062 52.5593 65.19 52.0639 64.9881 51.6194C64.7862 51.1749 64.4239 50.8348 63.9671 50.6631C63.5119 50.492 63.0123 50.5116 62.5715 50.7089L54.0789 54.5569C54.0765 54.558 54.0741 54.559 54.0717 54.5601C53.5632 54.7861 52.9655 54.5592 52.7359 54.0524C52.5053 53.5431 52.7306 52.9418 53.241 52.7106L61.7337 48.8627C62.6969 48.4417 63.7179 48.4029 64.6819 48.7657C65.6458 49.1285 66.411 49.8453 66.8349 50.7828C67.26 51.7197 67.2934 52.7675 66.9306 53.7315C66.5685 54.6937 65.8517 55.4589 64.9136 55.8845L53.3451 61.1255C53.3458 61.1237 53.3434 61.1248 53.341 61.1259Z" fill="#981B9F"/>
<path d="M53.1699 61.195L37.1542 68.3135C36.6422 68.541 36.0429 68.3105 35.8153 67.7985C35.5877 67.2865 35.8182 66.6872 36.3303 66.4596L52.3459 59.3411C52.8579 59.1135 53.4572 59.344 53.6848 59.856C53.9129 60.3693 53.6819 60.9674 53.1699 61.195Z" fill="#981B9F"/>
<path d="M51.5306 37.0011C51.0222 37.2271 50.4245 37.0002 50.1949 36.4933C49.9643 35.9841 50.1895 35.3828 50.7 35.1516L65.9405 28.247C66.6777 27.9121 67.2344 27.2942 67.5101 26.5025C67.7919 25.6922 67.7454 24.8025 67.3801 23.9969C66.6374 22.3582 64.7903 21.5852 63.2542 22.268C63.2482 22.2706 63.241 22.2738 63.235 22.2765L39.4678 33.0428C38.7562 33.3706 38.0186 33.3653 37.3329 33.0956C36.6455 32.8253 36.1118 32.3029 35.8289 31.6244C34.4061 28.2101 32.946 25.5907 31.4915 23.8433C30.6414 22.8224 29.4535 22.2303 28.2338 22.2196C27.1117 22.2085 26.0728 22.6918 25.3075 23.5805C25.0842 23.8406 25.0413 24.6682 25.183 24.9901C25.3038 25.2652 25.4301 25.5365 25.5574 25.8131C26.0191 26.8098 26.5423 27.9386 27.0187 29.5822C28.1369 33.4292 26.7384 42.2821 26.6784 42.6577C26.5905 43.2095 26.0694 43.5847 25.517 43.4985C24.9641 43.4111 24.5871 42.8893 24.6763 42.3371C24.6902 42.249 26.0631 33.5612 25.0725 30.15C24.6365 28.6521 24.1707 27.6429 23.7181 26.6665C23.5848 26.3796 23.4537 26.0976 23.327 25.8093C22.9558 24.9676 22.9039 23.2645 23.7703 22.2576C24.9319 20.9099 26.5225 20.1785 28.2495 20.1935C30.0675 20.2098 31.8174 21.0676 33.0501 22.5488C34.6344 24.4525 36.1988 27.2453 37.6994 30.8476C37.7694 31.0147 37.9033 31.1447 38.0758 31.2131C38.2553 31.2841 38.4186 31.2704 38.6298 31.1995L62.3971 20.4332C62.4079 20.4284 62.4187 20.4236 62.4294 20.4188C64.9812 19.2846 68.0232 20.5102 69.2261 23.1649C69.8071 24.4461 69.8775 25.871 69.4236 27.1727C68.964 28.4942 68.0239 29.5324 66.7763 30.0985L51.5358 37.0031C51.5354 36.9989 51.533 37 51.5306 37.0011Z" fill="#981B9F"/>
<path d="M30 6L37 17" stroke="#981B9F" stroke-width="2"/>
<path d="M58 7L51 18" stroke="#981B9F" stroke-width="2"/>
<path d="M43.8301 1L43.8301 16.5448" stroke="#981B9F" stroke-width="2"/>
</svg>
