<svg width="23" height="22" viewBox="0 0 23 22" fill="none" xmlns="http://www.w3.org/2000/svg">
<path d="M3.07816 17.3414H13.8517L19.4161 21.1272C19.5345 21.2494 19.6529 21.2494 19.7713 21.2494C19.8897 21.2494 20.008 21.2494 20.008 21.1272C20.2448 21.0051 20.3632 20.7609 20.3632 20.6387V16.9751C21.4287 16.4866 22.731 15.5096 22.731 14.1662V3.17519C22.731 1.46547 21.3103 0 19.6529 0H3.07816C1.42069 0 0 1.46547 0 3.17519V14.1662C0 15.876 1.3023 17.3414 3.07816 17.3414ZM1.18391 3.17519C1.18391 2.07609 2.01264 1.22123 3.07816 1.22123H19.6529C20.7184 1.22123 21.5471 2.07609 21.5471 3.17519V14.1662C21.5471 14.899 20.4816 15.7538 19.5345 15.9981C19.2977 16.1202 19.0609 16.3645 19.0609 16.6087V19.5396L14.3253 16.2423C14.2069 16.1202 14.0885 16.1202 13.9701 16.1202H2.95977C1.89425 16.1202 1.06552 15.2653 1.06552 14.1662V3.17519H1.18391Z" fill="#3C4DB7"/>
<path d="M4.26181 6.3513H18.2319C18.8239 6.3513 19.2974 5.86254 19.2974 5.25158C19.2974 4.64062 18.8239 4.15186 18.2319 4.15186H4.26181C3.66985 4.15186 3.19629 4.64062 3.19629 5.25158C3.19629 5.86254 3.66985 6.3513 4.26181 6.3513ZM4.26181 4.76281H18.2319C18.4687 4.76281 18.5871 5.0072 18.5871 5.12939C18.5871 5.37377 18.3503 5.49596 18.2319 5.49596H4.26181C4.02502 5.49596 3.90663 5.25158 3.90663 5.12939C3.90663 5.0072 4.14342 4.76281 4.26181 4.76281Z" fill="#3C4DB7"/>
<path d="M4.26181 9.77123H18.2319C18.8239 9.77123 19.2974 9.28246 19.2974 8.6715C19.2974 8.06054 18.8239 7.57178 18.2319 7.57178H4.26181C3.66985 7.57178 3.19629 8.06054 3.19629 8.6715C3.19629 9.28246 3.66985 9.77123 4.26181 9.77123ZM4.26181 8.18273H18.2319C18.4687 8.18273 18.5871 8.42712 18.5871 8.54931C18.5871 8.7937 18.3503 8.91589 18.2319 8.91589H4.26181C4.02502 8.91589 3.90663 8.6715 3.90663 8.54931C3.90663 8.42712 4.14342 8.18273 4.26181 8.18273Z" fill="#3C4DB7"/>
<path d="M4.26181 12.946H18.2319C18.8239 12.946 19.2974 12.4573 19.2974 11.8463C19.2974 11.2353 18.8239 10.7466 18.2319 10.7466H4.26181C3.66985 10.7466 3.19629 11.2353 3.19629 11.8463C3.19629 12.4573 3.66985 12.946 4.26181 12.946ZM4.26181 11.4797H18.2319C18.4687 11.4797 18.5871 11.7241 18.5871 11.8463C18.5871 12.0907 18.3503 12.2129 18.2319 12.2129H4.26181C4.02502 12.2129 3.90663 11.9685 3.90663 11.8463C3.90663 11.6019 4.14342 11.4797 4.26181 11.4797Z" fill="#3C4DB7"/>
</svg>
