<svg width="74" height="75" viewBox="0 0 74 75" fill="none" xmlns="http://www.w3.org/2000/svg">
<path d="M8 69.0006C8 70.6572 9.5675 72 11.5011 72C13.434 71.9994 15.0007 70.6559 15 68.9987C15 67.3422 13.4325 65.9994 11.4989 66C9.56676 66.0019 8.00148 67.3447 8 69.0006ZM11.4996 67.9519C12.1755 67.9519 12.7232 68.4213 12.7232 69.0006C12.724 69.5793 12.1755 70.0493 11.5004 70.0493C10.8245 70.0493 10.2768 69.5799 10.2768 69.0006C10.2768 68.4213 10.8237 67.9519 11.4989 67.9513L11.4996 67.9519Z" fill="#981B9F"/>
<path d="M65.6571 43.5681L65.3016 43.7669C63.7552 41.8406 61.0911 41.0968 59.0611 42.1645L59.039 42.1766L58.1636 42.6657C55.9625 40.7454 52.8387 40.4579 50.3463 41.9468L45.5265 44.6659H39.1105C37.7248 44.6639 36.3571 44.3387 35.1086 43.7145L34.2247 43.2711C29.0831 40.6749 22.9722 41.2944 18.4114 44.8736C18.3894 44.8904 18.3687 44.9078 18.348 44.9273L16.2143 46.898C15.4204 47.6297 14.4834 48.1753 13.4674 48.4957L12.2648 44.4039C12.1373 43.9692 11.7513 43.6729 11.3136 43.6729H0.9948C0.709875 43.6722 0.43855 43.7992 0.250111 44.0203C0.0610252 44.2413 -0.0270423 44.5363 0.00727824 44.8292L3.44709 74.0929C3.50796 74.611 3.93146 75 4.43461 75H19.9118C20.2272 75 20.5238 74.8448 20.7116 74.5821C20.8987 74.3194 20.955 73.9801 20.8631 73.667L18.8369 66.7693L25.1467 62.6311C25.9865 62.15 26.9715 62.0176 27.9014 62.2615C27.9221 62.2669 27.9428 62.2716 27.9635 62.2756L40.8447 64.7368C44.3531 65.3879 47.9697 64.8584 51.1667 63.225C51.2088 63.2029 51.2496 63.1787 51.2885 63.1505L73.5682 47.2783C74.0021 46.9692 74.129 46.3625 73.857 45.8948C72.1643 42.9681 68.5503 41.9428 65.6571 43.5681ZM59.9709 44.0008C61.1151 43.4061 62.5527 43.8818 63.4858 44.7835L55.0779 49.4902L54.6169 49.7421C54.3527 48.9782 53.9732 48.2626 53.4921 47.623L59.9709 44.0008ZM51.3085 43.7535L51.3318 43.7401C52.8439 42.833 54.7088 42.8391 56.2151 43.7555L51.9904 46.1172C51.1965 45.5193 50.2951 45.0933 49.3393 44.8635L51.3085 43.7535ZM5.31464 72.9359L2.11766 45.7369H10.576L18.5681 72.9359H5.31464ZM50.2206 61.4069C47.4226 62.8192 44.2651 63.2748 41.2015 62.7063L28.3527 60.2512C26.9313 59.8877 25.4296 60.0987 24.1527 60.8425C24.1378 60.8512 24.1222 60.8606 24.1073 60.8707L18.234 64.7227L14.0469 50.4725C15.3381 50.064 16.5284 49.3699 17.5366 48.4393L19.6392 46.4969C23.6029 43.4061 28.8999 42.878 33.3583 45.1282L34.2416 45.5717C35.7607 46.3316 37.4243 46.7266 39.1099 46.7293H47.6796C50.2446 46.7327 52.4515 48.6133 52.954 51.2236L46.786 50.9341C44.526 50.8286 42.2615 50.9367 40.0204 51.2579C39.4764 51.3365 39.0963 51.8572 39.1714 52.4223C39.2472 52.9867 39.749 53.3811 40.2936 53.3025C42.4144 52.9988 44.5571 52.896 46.696 52.9961L54.0056 53.3401C54.0205 53.3401 54.0354 53.3408 54.0503 53.3408C54.6001 53.3408 55.0449 52.8792 55.0449 52.3088C55.0449 52.1542 55.0397 52.0017 55.0307 51.8492L56.0137 51.3117L66.6025 45.3849C68.2479 44.4603 70.2864 44.7889 71.5841 46.1878L50.2206 61.4069Z" fill="#981B9F"/>
<path d="M37 39C46.9413 39 55 30.9413 55 21C55 11.0587 46.9413 3 37 3C27.0587 3 19 11.0587 19 21C19.0113 30.9366 27.0634 38.9887 37 39ZM37 5.03774C45.8156 5.03774 52.9623 12.1844 52.9623 21C52.9623 29.8156 45.8156 36.9623 37 36.9623C28.1844 36.9623 21.0377 29.8156 21.0377 21C21.0477 12.1884 28.1884 5.04769 37 5.03774Z" fill="#981B9F"/>
<path d="M34.8644 20.4327H34.8286L31.9738 20.399H31.9631C31.5706 20.399 31.217 20.6606 31.0703 21.0598C30.9229 21.4597 31.0119 21.9175 31.2941 22.2169L38.3569 29.7029C38.74 30.109 39.3495 30.0973 39.7188 29.6767C40.0881 29.2568 40.0774 28.5877 39.695 28.1816L34.374 22.5425L34.8073 22.548C37.3311 22.577 39.5163 20.6275 40.0066 17.9092L41.9754 17.9326H41.9855C42.5178 17.9353 42.9511 17.4645 42.9536 16.8807C42.9567 16.2963 42.5278 15.8207 41.9961 15.8179L40.0285 15.7945C39.8787 14.8432 39.5112 13.949 38.9601 13.1966L42.0212 13.2317H42.0319C42.5636 13.2352 42.9969 12.7643 43 12.1799C43.0025 11.5962 42.5736 11.1205 42.0419 11.1171L34.9195 11.0331L32.0647 11.0001C31.533 10.9939 31.0972 11.462 31.0916 12.0457C31.0859 12.6301 31.5123 13.1085 32.044 13.1147L34.8989 13.1478C36.3604 13.1663 37.6389 14.2306 38.0503 15.7704L32.0189 15.7002H32.0083C31.4766 15.6968 31.0427 16.1676 31.0402 16.752C31.037 17.3358 31.4665 17.8114 31.9983 17.8149L38.0271 17.8851C37.5907 19.3995 36.3115 20.43 34.8644 20.4327Z" fill="#981B9F"/>
<path d="M62 11C61.4473 11 61 11.4886 61 12.0909V13.9091C61 14.5121 61.4473 15 62 15C62.5521 15 63 14.5121 63 13.9091V12.0909C63 11.4886 62.5521 11 62 11Z" fill="#981B9F"/>
<path d="M62 16C61.4473 16 61 16.4886 61 17.0909V18.9091C61 19.5121 61.4473 20 62 20C62.5521 20 63 19.5121 63 18.9091V17.0909C63 16.4886 62.5521 16 62 16Z" fill="#981B9F"/>
<path d="M58.0909 15C57.4879 15 57 15.4479 57 16C57 16.5527 57.4879 17 58.0909 17H59.9091C60.5114 17 61 16.5527 61 16C61 15.4479 60.5114 15 59.9091 15H58.0909Z" fill="#981B9F"/>
<path d="M65.1818 17C65.6335 17 66 16.5527 66 16C66 15.4479 65.6335 15 65.1818 15H63.8182C63.3659 15 63 15.4479 63 16C63 16.5527 63.3659 17 63.8182 17H65.1818Z" fill="#981B9F"/>
<path d="M18 0C17.4479 0 17 0.488636 17 1.09091V2.90909C17 3.51136 17.4479 4 18 4C18.5527 4 19 3.51136 19 2.90909V1.09091C19 0.488636 18.5527 0 18 0Z" fill="#981B9F"/>
<path d="M18 5C17.4479 5 17 5.48864 17 6.09091V7.90909C17 8.51136 17.4479 9 18 9C18.5527 9 19 8.51136 19 7.90909V6.09091C19 5.48864 18.5527 5 18 5Z" fill="#981B9F"/>
<path d="M14.0909 4C13.4886 4 13 4.22396 13 4.5C13 4.77604 13.4886 5 14.0909 5H15.9091C16.5121 5 17 4.77604 17 4.5C17 4.22396 16.5121 4 15.9091 4H14.0909Z" fill="#981B9F"/>
<path d="M21.1818 4H19.8182C19.3665 4 19 4.22396 19 4.5C19 4.77604 19.3665 5 19.8182 5H21.1818C21.6341 5 22 4.77604 22 4.5C22 4.22396 21.6341 4 21.1818 4Z" fill="#981B9F"/>
</svg>
