<svg width="25" height="25" viewBox="0 0 25 25" fill="none" xmlns="http://www.w3.org/2000/svg">
<path d="M24.6338 22.5496H23.3665C23.4048 22.4386 23.4259 22.3196 23.4259 22.1958V21.5091L24.975 13.5134C25.0833 12.9542 24.6361 12.4068 24.0639 12.4068H13.9674C13.6895 10.4427 14.8353 8.55884 14.8353 6.59316C14.8353 2.89766 11.624 0 8.03828 0C6.60913 0 5.31187 0.308838 4.18247 0.91792C3.76572 1.14268 4.11343 1.7873 4.53013 1.56255C5.55151 1.01172 6.73184 0.732422 8.03828 0.732422C11.2218 0.732422 14.1029 3.30186 14.1029 6.59316C14.1029 8.57432 12.9868 10.4136 13.2283 12.4068H12.145C11.4812 12.4068 11.6805 12.9592 11.1046 12.4453C12.1467 11.5151 12.8043 10.1609 12.8043 8.65552V7.94546C12.8043 7.50859 12.496 7.12651 12.0713 7.03687C11.5402 6.92476 10.5693 6.54941 10.0343 5.29556C9.7688 4.67344 8.86338 4.6127 8.5207 5.20283C7.49849 6.96357 5.31226 7.22427 3.65869 7.13281C3.13325 7.10391 2.6772 7.53403 2.6772 8.0606V8.65557C2.6772 10.1609 3.33467 11.5149 4.37666 12.4452C3.31245 13.3976 2.68872 14.774 2.68872 16.212V19.3372C2.05098 18.7224 1.68525 17.9742 1.57852 17.0662C1.4105 15.6367 1.84946 14.2284 2.06987 12.8301C2.42705 10.5638 1.30498 8.60415 1.41997 6.37456C1.49233 4.97109 2.09233 3.63701 3.10938 2.61802C3.44385 2.28291 2.92549 1.76543 2.59102 2.10059C1.4459 3.24785 0.770264 4.75229 0.688525 6.33682C0.575 8.53799 1.69604 10.4973 1.34639 12.7161C0.918994 15.4274 0.0892578 18.3668 2.68872 20.2952V21.7927V21.7964C2.68872 22.0711 2.76382 22.3285 2.89404 22.5496H0.366211C0.163965 22.5496 0 22.7136 0 22.9158V24.6338C0 24.836 0.163965 25 0.366211 25H24.6338C24.8361 25 25 24.836 25 24.6338V22.9158C25 22.7136 24.8361 22.5496 24.6338 22.5496ZM12.1449 13.1393H24.0639C24.2015 13.157 24.2655 13.2353 24.256 13.3741L22.7577 21.1077H10.44L11.9529 13.2985C11.9708 13.2063 12.0515 13.1393 12.1449 13.1393ZM3.40962 8.65552V8.06055C3.40962 7.95786 3.51523 7.85786 3.61826 7.86411C6.98535 8.05024 8.48701 6.71953 9.1541 5.57051C9.21006 5.51694 9.31504 5.47627 9.3606 5.58296C10.0258 7.1417 11.2497 7.61191 11.92 7.75342C12.008 7.77197 12.0718 7.85273 12.0718 7.94541V8.65547C12.0718 11.05 10.1289 12.9981 7.74072 12.9981C5.35254 12.9982 3.40962 11.0501 3.40962 8.65552ZM8.99282 13.5735C8.7585 14.0322 8.28008 14.3462 7.74072 14.3462C7.20132 14.3462 6.7229 14.0322 6.48857 13.5735C6.88916 13.676 7.30869 13.7307 7.74072 13.7307C8.17271 13.7306 8.59224 13.676 8.99282 13.5735ZM4.96899 12.9006C5.17891 13.0387 5.39956 13.1617 5.62954 13.2679C5.78994 14.2946 6.68906 15.0786 7.74067 15.0786C8.79224 15.0786 9.69141 14.2946 9.85181 13.2679C10.0816 13.1618 10.3021 13.0389 10.5118 12.9009C10.7492 13.0995 10.9647 13.3222 11.1548 13.5669L9.6939 21.1077H7.61973C7.34141 20.9641 7.02627 20.8824 6.69224 20.8824H5.31621V16.3255C5.31621 15.8521 4.58379 15.8521 4.58379 16.3255V17.3987H3.42114V16.2119C3.42114 14.9362 3.99541 13.7168 4.96899 12.9006ZM4.11074 22.5496C3.7248 22.5149 3.42114 22.189 3.42114 21.7927V18.1312H4.58379V21.2487C4.58379 21.4509 4.74775 21.6149 4.95 21.6149H6.69224C7.28125 21.6149 7.77993 22.0099 7.93926 22.5497L4.11074 22.5496ZM24.2676 24.2676H0.732422V23.282H17.6986C18.1721 23.282 18.1721 22.5496 17.6986 22.5496H8.69082C8.6437 22.2932 8.54863 22.0535 8.41509 21.8402H9.996H22.6935C22.7301 22.0961 22.6963 22.5496 22.3397 22.5496H19.7069C19.2334 22.5496 19.2334 23.282 19.7069 23.282H24.2676V24.2676Z" fill="#3C4DB7"/>
<path d="M5.92798 9.53857C6.39927 9.53857 6.40005 8.80615 5.92798 8.80615C5.45669 8.80615 5.45591 9.53857 5.92798 9.53857Z" fill="#3C4DB7"/>
<path d="M9.55298 9.53857C10.0243 9.53857 10.025 8.80615 9.55298 8.80615C9.08169 8.80615 9.08091 9.53857 9.55298 9.53857Z" fill="#3C4DB7"/>
<path d="M17.3105 18.9868C18.226 18.9868 18.9707 18.2421 18.9707 17.3267C18.9707 16.4112 18.226 15.6665 17.3105 15.6665C16.3951 15.6665 15.6504 16.4112 15.6504 17.3267C15.6504 18.2421 16.3951 18.9868 17.3105 18.9868ZM17.3105 16.3989C17.8221 16.3989 18.2383 16.8151 18.2383 17.3267C18.2383 17.8382 17.8221 18.2544 17.3105 18.2544C16.799 18.2544 16.3828 17.8382 16.3828 17.3267C16.3828 16.8151 16.799 16.3989 17.3105 16.3989Z" fill="#3C4DB7"/>
</svg>
