<svg width="25" height="26" viewBox="0 0 25 26" fill="none" xmlns="http://www.w3.org/2000/svg">
<path fill-rule="evenodd" clip-rule="evenodd" d="M20.0887 6.25007C20.0887 5.264 19.2891 4.46436 18.303 4.46436C15.5787 4.46436 9.42016 4.46436 6.69587 4.46436C5.7098 4.46436 4.91016 5.264 4.91016 6.25007V11.1608C4.91016 11.4072 5.11016 11.6072 5.35658 11.6072H19.6423C19.8887 11.6072 20.0887 11.4072 20.0887 11.1608V6.25007ZM19.1959 6.25007V10.7144H5.80301V6.25007C5.80301 5.75686 6.20266 5.35721 6.69587 5.35721C9.42016 5.35721 15.5787 5.35721 18.303 5.35721C18.7962 5.35721 19.1959 5.75686 19.1959 6.25007Z" fill="#3C4DB7"/>
<path fill-rule="evenodd" clip-rule="evenodd" d="M24.9999 6.25018C24.9999 6.00382 24.7999 5.80371 24.5534 5.80371H22.7677C22.5213 5.80371 22.3213 6.00382 22.3213 6.25018V11.1609C22.3213 11.4072 22.5213 11.6074 22.7677 11.6074H24.5534C24.7999 11.6074 24.9999 11.4072 24.9999 11.1609V6.25018ZM24.107 6.69665V10.7144H23.2141V6.69665H24.107Z" fill="#3C4DB7"/>
<path fill-rule="evenodd" clip-rule="evenodd" d="M2.67857 6.25018C2.67857 6.00382 2.47857 5.80371 2.23214 5.80371H0.446429C0.2 5.80371 0 6.00382 0 6.25018V11.1609C0 11.4072 0.2 11.6074 0.446429 11.6074H2.23214C2.47857 11.6074 2.67857 11.4072 2.67857 11.1609V6.25018ZM1.78571 6.69665V10.7144H0.892857V6.69665H1.78571Z" fill="#3C4DB7"/>
<path fill-rule="evenodd" clip-rule="evenodd" d="M20.7588 15.625C19.8966 15.625 19.1963 16.3253 19.1963 17.1875C19.1963 18.0497 19.8966 18.75 20.7588 18.75C21.6209 18.75 22.3213 18.0497 22.3213 17.1875C22.3213 16.3253 21.6209 15.625 20.7588 15.625ZM20.7588 16.5179C21.1282 16.5179 21.4284 16.8181 21.4284 17.1875C21.4284 17.5569 21.1282 17.8571 20.7588 17.8571C20.3894 17.8571 20.0891 17.5569 20.0891 17.1875C20.0891 16.8181 20.3894 16.5179 20.7588 16.5179Z" fill="#3C4DB7"/>
<path fill-rule="evenodd" clip-rule="evenodd" d="M4.2412 15.625C3.37904 15.625 2.67871 16.3253 2.67871 17.1875C2.67871 18.0497 3.37904 18.75 4.2412 18.75C5.10337 18.75 5.8037 18.0497 5.8037 17.1875C5.8037 16.3253 5.10337 15.625 4.2412 15.625ZM4.2412 16.5179C4.61062 16.5179 4.91085 16.8181 4.91085 17.1875C4.91085 17.5569 4.61062 17.8571 4.2412 17.8571C3.87178 17.8571 3.57155 17.5569 3.57155 17.1875C3.57155 16.8181 3.87178 16.5179 4.2412 16.5179Z" fill="#3C4DB7"/>
<path fill-rule="evenodd" clip-rule="evenodd" d="M12.0537 4.91302L12.0818 11.163C12.0832 11.409 12.2841 11.6081 12.5305 11.6072C12.7769 11.6059 12.976 11.405 12.9747 11.1586L12.9466 4.90856C12.9452 4.66257 12.7443 4.46347 12.4979 4.46436C12.2519 4.4657 12.0528 4.66659 12.0537 4.91302Z" fill="#3C4DB7"/>
<path fill-rule="evenodd" clip-rule="evenodd" d="M5.80427 23.6607H19.1971V25.4464C19.1971 25.6929 19.3971 25.8929 19.6436 25.8929H22.7686C23.015 25.8929 23.215 25.6929 23.215 25.4464V23.6607H23.6614C23.9078 23.6607 24.1078 23.4607 24.1078 23.2143V15.625C24.1078 14.796 23.7784 14.0013 23.1926 13.4152C22.8221 13.0451 22.3686 12.7772 21.8757 12.6304V5.80357C21.8757 4.38036 20.9243 3.17946 19.623 2.80179C19.5422 2.09598 19.2252 1.43348 18.7176 0.925892C18.1248 0.333035 17.3203 0 16.4819 0C14.1614 0 10.84 0 8.51943 0C7.68104 0 6.87658 0.333035 6.28372 0.925892C5.77613 1.43348 5.45916 2.09598 5.37836 2.80179C4.07702 3.17946 3.1257 4.38036 3.1257 5.80357V12.6304C2.63284 12.7772 2.17926 13.0451 1.80873 13.4152C1.22257 14.0013 0.893555 14.796 0.893555 15.625C0.893555 18.6674 0.893555 23.2143 0.893555 23.2143C0.893555 23.4607 1.09355 23.6607 1.33998 23.6607H1.78641V25.4464C1.78641 25.6929 1.98641 25.8929 2.23284 25.8929H5.35784C5.60427 25.8929 5.80427 25.6929 5.80427 25.4464V23.6607ZM21.7096 23.6607H22.3221V25H20.09V23.6607H21.7096ZM4.29844 23.6607H4.91141V25H2.67927V23.6607H4.29844ZM20.9828 13.3929H4.01855C3.42659 13.3929 2.85873 13.6281 2.43998 14.0464C2.02167 14.4652 1.78641 15.033 1.78641 15.625V22.7679H5.80427V20.5357C5.80427 17.8237 8.00293 15.625 10.715 15.625C11.8757 15.625 13.1257 15.625 14.2864 15.625C16.9985 15.625 19.1971 17.8237 19.1971 20.5357V22.7679H23.215V15.625C23.215 15.033 22.9797 14.4652 22.561 14.0464C22.1426 13.6281 21.5748 13.3929 20.9828 13.3929ZM18.3043 22.7679H6.69713V20.5357C6.69713 18.3165 8.49579 16.5179 10.715 16.5179H14.2864C16.5056 16.5179 18.3043 18.3165 18.3043 20.5357V22.7679ZM8.92927 21.875H16.0721C16.3186 21.875 16.5186 21.675 16.5186 21.4286C16.5186 21.1821 16.3186 20.9821 16.0721 20.9821H8.92927C8.68284 20.9821 8.48284 21.1821 8.48284 21.4286C8.48284 21.675 8.68284 21.875 8.92927 21.875ZM8.92927 20.0893H16.0721C16.3186 20.0893 16.5186 19.8893 16.5186 19.6429C16.5186 19.3964 16.3186 19.1964 16.0721 19.1964H8.92927C8.68284 19.1964 8.48284 19.3964 8.48284 19.6429C8.48284 19.8893 8.68284 20.0893 8.92927 20.0893ZM10.2686 18.3036H14.7328C14.9793 18.3036 15.1793 18.1036 15.1793 17.8571C15.1793 17.6107 14.9793 17.4107 14.7328 17.4107H10.2686C10.0221 17.4107 9.82213 17.6107 9.82213 17.8571C9.82213 18.1036 10.0221 18.3036 10.2686 18.3036ZM19.1578 3.60848H5.84353C4.80514 3.8 4.01855 4.70982 4.01855 5.80357V12.5H20.9828V5.80357C20.9828 5.71339 20.9775 5.62277 20.9668 5.53303C20.9485 5.3817 20.9145 5.23214 20.8654 5.0875C20.7788 4.8317 20.6449 4.59196 20.473 4.38393C20.2806 4.15089 20.0413 3.95714 19.773 3.81875C19.6476 3.75402 19.5168 3.70134 19.3815 3.66205C19.3083 3.64018 19.2342 3.62277 19.1596 3.60893L19.1578 3.60848ZM18.6985 2.67857H6.30247C6.39443 2.25714 6.6056 1.86696 6.91497 1.55714C7.34042 1.1317 7.91765 0.892857 8.51943 0.892857C10.84 0.892857 14.1614 0.892857 16.4819 0.892857C17.0837 0.892857 17.6605 1.1317 18.086 1.55714C18.3958 1.86696 18.6069 2.25714 18.6985 2.67857Z" fill="#3C4DB7"/>
</svg>
