<svg width="72" height="74" viewBox="0 0 72 74" fill="none" xmlns="http://www.w3.org/2000/svg">
<path d="M51.5999 0H8.39999C3.76334 0.00599999 0.00599999 3.76334 0 8.39999V51.5003C0.00599999 56.137 3.76334 59.8943 8.39999 59.9003H21.6V57.5003H8.39999C5.08799 57.4964 2.4039 54.8123 2.4 51.5003V31.1999H10.1064C10.8175 31.1479 11.352 30.5293 11.2999 29.818C11.2899 29.6809 11.2581 29.5462 11.2056 29.4191C10.1391 26.9922 11.2419 24.1602 13.6689 23.0937C16.0959 22.0272 18.9279 23.13 19.9944 25.557C20.5351 26.7876 20.5351 28.1886 19.9944 29.4191C19.698 30.0392 19.9605 30.7822 20.5806 31.0786C20.7409 31.1552 20.916 31.1966 21.0936 31.2001H28.7999V38.4001C28.4035 38.3326 28.0021 38.2993 27.6 38.3005C23.6235 38.2991 20.3989 41.5216 20.3974 45.4979C20.3964 48.3628 22.0939 50.9555 24.72 52.1005L25.68 49.9021C23.2491 48.8446 22.1356 46.0168 23.193 43.5859C23.9559 41.8319 25.6873 40.6984 27.6 40.7005C28.2613 40.7003 28.9153 40.8385 29.5199 41.1061C30.1273 41.3711 30.8347 41.0936 31.0997 40.4863C31.1657 40.3351 31.1998 40.1719 31.1999 40.0069V31.1999H37.3019C37.2337 31.5962 37.1995 31.9978 37.1999 32.3999C37.2071 35.819 39.6115 38.7644 42.9599 39.4559L43.4399 37.1051C41.2076 36.6433 39.6049 34.6795 39.5999 32.3999C39.5998 31.7386 39.7379 31.0846 40.0055 30.4799C40.2706 29.8726 39.9931 29.1652 39.3857 28.9002C39.2345 28.8342 39.0713 28.8001 38.9063 28.7999H31.1999V22.698C31.5962 22.7662 31.9978 22.8004 32.3999 22.8C36.3764 22.8 39.5999 19.5765 39.5999 15.6C39.5999 11.6235 36.3764 8.39999 32.3999 8.39999C31.9978 8.39954 31.5962 8.43373 31.1999 8.50199V2.4H51.5999C54.9119 2.4039 57.596 5.08799 57.5999 8.39999V28.7999H49.8935C49.2308 28.8002 48.6938 29.3378 48.6941 30.0005C48.6943 30.1655 48.7283 30.3287 48.7943 30.4799C49.0619 31.0846 49.2001 31.7386 49.1999 32.3999H51.5999C51.6004 31.9978 51.5662 31.5962 51.4979 31.1999H58.7999C59.4626 31.1999 59.9999 30.6626 59.9999 29.9999V8.39999C59.9939 3.76334 56.2366 0.00599999 51.5999 0ZM32.3999 10.8C35.0509 10.8 37.1999 12.949 37.1999 15.6C37.1999 18.2509 35.0509 20.4 32.3999 20.4C31.7386 20.4001 31.0846 20.262 30.4799 19.9944C29.8726 19.7293 29.1652 20.0068 28.9002 20.6142C28.8342 20.7654 28.8001 20.9286 28.7999 21.0936V28.7003H22.7064C22.7665 28.3366 22.7977 27.9687 22.8 27.6C22.8 27.5784 22.8 27.5592 22.8 27.5376C22.8 27.516 22.8 27.5124 22.8 27.5004C22.8 23.5239 19.5765 20.3004 15.6 20.3004C11.6235 20.3004 8.39999 23.5239 8.39999 27.5004C8.39999 27.5124 8.39999 27.5256 8.39999 27.5376C8.39999 27.5496 8.39999 27.5784 8.39999 27.6C8.40224 27.9687 8.43344 28.3366 8.49359 28.7003H2.4V8.39999C2.4039 5.08799 5.08799 2.4039 8.39999 2.4H28.7999V10.1064C28.8002 10.7691 29.3378 11.3061 30.0005 11.3058C30.1655 11.3056 30.3287 11.2716 30.4799 11.2056C31.0846 10.938 31.7386 10.7998 32.3999 10.8Z" fill="#981B9F"/>
<path d="M69.4331 51.5785L59.3448 44.6317L55.47 34.2793C55.2388 33.6581 54.5479 33.3421 53.9268 33.5732C53.9046 33.5815 53.8825 33.5905 53.8608 33.6001L46.0608 37.0501C45.4761 37.3082 45.1965 37.9795 45.4248 38.5765C45.5544 38.9125 45.6756 39.1669 45.804 39.4309C45.9324 39.6949 46.0512 39.9421 46.1964 40.3321C47.1279 42.821 45.8737 45.5951 43.3896 46.5397C40.9066 47.4683 38.1409 46.2085 37.2121 43.7254C36.9792 43.1026 36.8782 42.4382 36.9156 41.7745C36.9504 41.1127 36.442 40.5479 35.7802 40.5131C35.6144 40.5044 35.4486 40.5302 35.2932 40.5889L26.9556 43.7293C26.3366 43.9625 26.0231 44.6528 26.2548 45.2725L29.2476 53.2681C28.8509 53.3404 28.4613 53.4479 28.0836 53.5897C24.3494 54.9812 22.4504 59.1365 23.8419 62.8707C25.2335 66.605 29.3888 68.504 33.123 67.1124C33.5075 66.9692 33.879 66.7934 34.2336 66.5868L36.3792 72.318C36.6117 72.9387 37.3032 73.2533 37.9239 73.0208C37.9246 73.0205 37.9252 73.0202 37.926 73.02L49.8156 68.5404C50.5624 70.1457 51.9367 71.3729 53.616 71.934L54.3744 69.654C53.3853 69.3207 52.5633 68.6183 52.08 67.6932L55.698 66.3312C56.8864 69.674 60.0523 71.9051 63.5999 71.9004V69.5004C60.2947 69.4802 57.6202 66.8057 57.6 63.5004C57.6 63.1821 57.4734 62.877 57.2484 62.652L53.07 58.4737C52.4505 57.8488 52.3806 56.8651 52.9056 56.1589C53.2113 55.7462 53.6832 55.4891 54.1956 55.4557C54.7087 55.4125 55.2141 55.6015 55.5732 55.9705L63.9515 64.3488L65.6483 62.652L63.1692 60.1729C63.7799 58.3463 63.7423 56.365 63.0623 54.5629L60.8136 48.5569L68.0651 53.5501C69.0263 54.2248 69.599 55.3253 69.5999 56.4997V72H71.9999V56.4997C71.9983 54.5387 71.0402 52.702 69.4331 51.5785ZM60.8148 55.4041C61.1463 56.2852 61.2663 57.2317 61.1652 58.1677L57.27 54.2737C55.6621 52.6247 53.0221 52.5916 51.3732 54.1993C49.7242 55.8071 49.6911 58.4471 51.2988 60.0961C51.3232 60.1211 51.348 60.146 51.3732 60.1705L55.1688 63.966L38.2104 70.3536L35.9232 64.242C35.7809 63.8622 35.4563 63.5802 35.0604 63.492C34.9749 63.4731 34.8876 63.4634 34.8 63.4632C34.4861 63.4629 34.1846 63.5858 33.96 63.8052C32.0331 65.6258 28.995 65.5395 27.1745 63.6125C25.3539 61.6856 25.4402 58.6475 27.3672 56.827C27.8205 56.3987 28.3527 56.063 28.9344 55.8383C29.3165 55.6967 29.7155 55.6064 30.1212 55.5695C30.3708 55.5389 30.6225 55.5305 30.8736 55.5443C31.5354 55.579 32.1002 55.0706 32.1348 54.4088C32.1435 54.2443 32.1182 54.0797 32.0604 53.9255L28.926 45.5567L34.6404 43.4051C35.3904 47.3102 39.1641 49.8679 43.0692 49.118C43.4682 49.0414 43.86 48.9311 44.2404 48.7883C47.9614 47.3765 49.8423 43.2235 48.4488 39.4955C48.3384 39.2003 48.2388 38.9663 48.1428 38.7575L53.6628 36.3131L60.8148 55.4041Z" fill="#981B9F"/>
</svg>
