<svg width="25" height="31" viewBox="0 0 25 31" fill="none" xmlns="http://www.w3.org/2000/svg">
<path d="M12.5 8C8.3645 8 5 11.3645 5 15.5C5 19.6355 8.3645 23 12.5 23C16.6355 23 20 19.6355 20 15.5C20 11.3645 16.6355 8 12.5 8ZM12.5 22C10.6625 22 9.004 21.23 7.8205 20H17.1795C15.996 21.23 14.3375 22 12.5 22ZM11.7515 14.7905C11.281 14.5165 11 14.034 11 13.5V12.5C11 12.081 11.1775 11.6775 11.487 11.394C11.8 11.1065 12.206 10.9685 12.636 11.006C13.4005 11.0725 14 11.774 14 12.604V13.5C14 14.034 13.719 14.5165 13.2485 14.7905L13 14.935V16.377L15.42 17.0685C16.056 17.25 16.5 17.839 16.5 18.5V19H8.5V18.5C8.5 17.839 8.944 17.25 9.58 17.0685L12 16.377V14.935L11.7515 14.7905ZM17.5 19.6475V18.5C17.5 17.395 16.758 16.4105 15.695 16.107L14 15.623V15.49C14.623 15.0205 15 14.282 15 13.5005V12.6045C15 11.2605 13.9995 10.1215 12.722 10.0105C12.0215 9.948 11.3255 10.1855 10.811 10.6575C10.2955 11.1295 10 11.8015 10 12.5V13.5C10 14.2815 10.377 15.0205 11 15.4895V15.6225L9.305 16.107C8.242 16.4105 7.5 17.395 7.5 18.5V19.6475C6.564 18.521 6 17.0755 6 15.5C6 11.916 8.916 9 12.5 9C16.084 9 19 11.916 19 15.5C19 17.0755 18.436 18.521 17.5 19.6475Z" fill="#3C4DB7"/>
<path d="M23.5 3H18.908C18.701 2.4195 18.151 2 17.5 2H15.8085C15.1605 0.7645 13.8995 0 12.5 0C11.1005 0 9.8395 0.764 9.1915 2H7.5C6.849 2 6.299 2.4195 6.092 3H1.5C0.673 3 0 3.673 0 4.5V29.5C0 30.327 0.673 31 1.5 31H23.5C24.327 31 25 30.327 25 29.5V4.5C25 3.673 24.327 3 23.5 3ZM22 24H18V28H3V6H6V7H19V6H22V24ZM21.293 25L19 27.293V25H21.293ZM7 3.5C7 3.2245 7.2245 3 7.5 3H9.809L10.0525 2.5125C10.5195 1.5795 11.457 1 12.5 1C13.543 1 14.4805 1.5795 14.9475 2.512L15.191 3H17.5C17.7755 3 18 3.2245 18 3.5V6H7V3.5ZM24 29.5C24 29.7755 23.7755 30 23.5 30H1.5C1.2245 30 1 29.7755 1 29.5V4.5C1 4.2245 1.2245 4 1.5 4H6V5H2V29H18.707L23 24.707V5H19V4H23.5C23.7755 4 24 4.2245 24 4.5V29.5Z" fill="#3C4DB7"/>
<path d="M17 24H16V25H17V24Z" fill="#3C4DB7"/>
<path d="M15 24H4V25H15V24Z" fill="#3C4DB7"/>
<path d="M15 26H4V27H15V26Z" fill="#3C4DB7"/>
<path d="M17 26H16V27H17V26Z" fill="#3C4DB7"/>
<path d="M12.5 2C11.673 2 11 2.673 11 3.5C11 4.327 11.673 5 12.5 5C13.327 5 14 4.327 14 3.5C14 2.673 13.327 2 12.5 2ZM12.5 4C12.2245 4 12 3.7755 12 3.5C12 3.2245 12.2245 3 12.5 3C12.7755 3 13 3.2245 13 3.5C13 3.7755 12.7755 4 12.5 4Z" fill="#3C4DB7"/>
<path d="M9.5 4H8.5V5H9.5V4Z" fill="#3C4DB7"/>
<path d="M16.5 4H15.5V5H16.5V4Z" fill="#3C4DB7"/>
</svg>
