<svg width="36" height="36" viewBox="0 0 36 36" fill="none" xmlns="http://www.w3.org/2000/svg">
<circle cx="18" cy="18" r="18" fill="#EDEDED"/>
<path d="M17.8297 31.97C25.7524 31.97 32.1751 25.5474 32.1751 17.6246C32.1751 9.70193 25.7524 3.2793 17.8297 3.2793C9.90701 3.2793 3.48438 9.70193 3.48438 17.6246C3.48438 25.5474 9.90701 31.97 17.8297 31.97Z" fill="#2196F3"/>
<path d="M25.0017 20.5903C23.4542 20.5903 21.9784 20.2532 20.6174 19.588C20.404 19.4857 20.1566 19.4696 19.9306 19.5467C19.7047 19.6256 19.52 19.7906 19.416 20.004L18.7704 21.3399C16.8338 20.2281 15.2271 18.6196 14.1136 16.683L15.4513 16.0375C15.6665 15.9335 15.8296 15.7488 15.9085 15.5228C15.9856 15.2969 15.9713 15.0494 15.8673 14.8361C15.2002 13.4768 14.8631 12.0011 14.8631 10.4518C14.8631 9.95685 14.4615 9.55518 13.9665 9.55518H10.6564C10.1614 9.55518 9.75977 9.95685 9.75977 10.4518C9.75977 18.8563 16.5971 25.6937 25.0017 25.6937C25.4966 25.6937 25.8983 25.292 25.8983 24.7971V21.4869C25.8983 20.992 25.4966 20.5903 25.0017 20.5903Z" fill="#FAFAFA"/>
</svg>
