<svg width="29" height="29" viewBox="0 0 29 29" fill="none" xmlns="http://www.w3.org/2000/svg">
<path d="M28.4551 14.2638C28.4551 6.37163 22.0835 0 14.2638 0C6.44403 0 0 6.37163 0 14.2638C0 21.3594 5.21315 27.2242 12.0192 28.3103V18.3184H8.39896V14.1913H12.0192V11.0779C12.0192 7.5301 14.1189 5.57517 17.3772 5.57517C18.9701 5.57517 20.563 5.86479 20.563 5.86479V9.34022H18.7529C17.0151 9.34022 16.4359 10.4263 16.4359 11.5848V14.2638H20.4182L19.7665 18.3908H16.4359V28.3103C23.242 27.2242 28.4551 21.3594 28.4551 14.2638Z" fill="#4373B9"/>
<path d="M19.767 18.3184L20.4186 14.1914H16.4364V11.5848C16.4364 10.4263 17.0156 9.34025 18.7533 9.34025H20.5634V5.86482C20.5634 5.86482 18.9705 5.5752 17.3776 5.5752C14.1194 5.5752 12.0197 7.53013 12.0197 11.078V14.1914H8.39941V18.3184H12.0197V28.2379C12.7437 28.3827 13.4678 28.3827 14.2642 28.3827C14.9883 28.3827 15.7847 28.3103 16.5088 28.2379V18.3184H19.767Z" fill="white"/>
</svg>
