<svg width="63" height="68" viewBox="0 0 63 68" fill="none" xmlns="http://www.w3.org/2000/svg">
<path d="M20.0531 67.2427C16.6249 67.2427 13.0928 54.0235 12.1578 51.4813C12.0539 51.0746 9.14516 34.4998 9.87236 34.6014C9.97624 34.6014 8.00243 37.4487 6.54804 37.4487C5.71696 37.4487 1.04215 34.3981 2.28876 33.4829C1.87322 33.788 6.96358 33.3812 5.50919 32.2627C4.26258 31.4492 2.28876 33.9913 1.14603 30.9407C0.834376 30.1273 0.938261 29.5171 2.28876 29.0087C6.23639 27.3817 8.00243 31.7542 5.19754 25.5514C3.11984 21.0772 6.65193 22.5008 9.5607 20.7721C11.2229 19.7553 13.1967 17.0097 14.1316 15.4845C14.5472 14.976 16.521 12.3322 16.6249 12.0271C16.9365 11.1119 13.9239 10.0951 13.5083 9.17991C12.885 7.55293 14.5472 6.12933 14.3394 5.51921C14.0278 4.50235 11.9501 3.58717 11.9501 2.77368C11.9501 1.1467 16.2093 0.73996 17.3521 1.1467C18.8065 1.65514 19.9492 4.29898 21.2997 4.60403C22.9618 5.01078 26.5978 1.85851 26.8056 5.41752C26.8056 5.62089 24.7279 9.2816 24.7279 9.2816C23.689 11.1119 25.9745 10.1968 23.4813 11.1119C21.4036 11.8237 25.3512 14.4676 25.9745 14.976C26.4939 15.5861 28.0522 15.7895 28.26 16.603C28.3639 17.1114 26.8056 18.0266 27.0134 18.535C28.0522 22.2974 32.2076 22.2974 35.8436 23.3143C37.1941 23.721 40.7261 26.0598 42.3883 24.8396C43.4272 24.0261 41.8689 21.9924 43.4272 21.2806C44.466 20.7721 44.6738 23.3143 45.8165 23.8227C46.232 24.0261 51.3224 23.721 51.3224 23.3143C51.3224 23.1109 50.5952 22.6025 50.4913 22.1957C50.2836 21.5856 51.6341 21.0772 51.7379 20.9755C52.3612 19.857 54.4389 18.1283 55.6856 17.5182C57.2438 16.8064 60.8798 16.7047 59.6332 18.9418C60.7759 19.7553 62.4381 20.9755 61.607 21.789C60.9837 21.9924 58.3866 22.9075 57.7633 24.1278C56.9322 25.6531 56.4128 28.5003 55.8933 29.6188C55.4778 29.5171 54.5428 29.0087 54.6467 29.6188C54.6467 30.1273 54.7506 30.6357 54.7506 31.1441C54.5428 31.4492 54.7506 32.5677 54.4389 32.9745C51.4263 35.72 54.6467 31.5509 52.3612 30.6357C51.4263 30.2289 51.6341 32.0593 51.2185 32.2627C51.1146 32.3644 50.9069 32.5677 50.4913 32.2627C49.7641 31.0424 51.2185 27.5851 52.569 27.8902C54.2312 26.2632 48.2059 28.1952 46.5437 25.348C45.8165 25.8564 45.2971 25.7548 44.9854 24.9413C44.7777 23.2126 42.7 28.8053 44.7777 27.4834C41.3495 29.6188 48.2059 32.9745 45.6087 35.8217C44.9854 36.5335 44.0505 34.6014 42.9077 35.5166C41.2456 36.8385 42.0767 37.5503 40.83 38.8723C37.9213 41.9228 33.4542 45.5835 30.1299 48.024C29.2988 48.6341 27.5328 48.8375 26.9095 49.7527C25.7667 51.583 26.9095 53.9218 26.7017 56.0572C26.4939 57.8876 25.8706 60.1247 25.4551 61.7516C25.4551 61.955 24.4162 62.2601 24.3123 62.4634C23.7929 63.0736 23.689 62.6668 24.0007 64.1921C22.2347 64.4972 21.6113 66.1242 20.0531 67.2427Z" stroke="#3C4DB7" stroke-width="1.5" stroke-miterlimit="10"/>
</svg>
