<svg width="29" height="29" viewBox="0 0 29 29" fill="none" xmlns="http://www.w3.org/2000/svg">
<path d="M14.5 29C22.5081 29 29 22.5081 29 14.5C29 6.49187 22.5081 0 14.5 0C6.49187 0 0 6.49187 0 14.5C0 22.5081 6.49187 29 14.5 29Z" fill="url(#paint0_linear_12034_2047)"/>
<path d="M14.5007 7.01562C16.9384 7.01562 17.2272 7.02494 18.1899 7.06885C19.08 7.10948 19.5634 7.2582 19.8851 7.38321C20.3112 7.54885 20.6154 7.74666 20.9348 8.06614C21.2543 8.38562 21.4522 8.68974 21.6178 9.11587C21.7428 9.43757 21.8915 9.92101 21.9321 10.8111C21.9761 11.7738 21.9854 12.0625 21.9854 14.5003C21.9854 16.938 21.9761 17.2267 21.9321 18.1894C21.8915 19.0796 21.7428 19.563 21.6178 19.8847C21.4522 20.3108 21.2543 20.6149 20.9348 20.9344C20.6154 21.2539 20.3112 21.4517 19.8851 21.6173C19.5634 21.7423 19.08 21.8911 18.1899 21.9317C17.2273 21.9756 16.9386 21.9849 14.5007 21.9849C12.0628 21.9849 11.7741 21.9756 10.8116 21.9317C9.92147 21.8911 9.43805 21.7423 9.11636 21.6173C8.69023 21.4517 8.3861 21.2539 8.06663 20.9344C7.74718 20.615 7.5493 20.3108 7.38369 19.8847C7.25869 19.563 7.10997 19.0795 7.06933 18.1894C7.02542 17.2267 7.01611 16.938 7.01611 14.5002C7.01611 12.0625 7.02542 11.7738 7.06933 10.8111C7.10997 9.92098 7.25865 9.43757 7.38369 9.11584C7.5493 8.68971 7.74715 8.38558 8.06663 8.0661C8.3861 7.74663 8.69023 7.54878 9.11636 7.38317C9.43805 7.25816 9.9215 7.10945 10.8116 7.06881C11.7743 7.0249 12.063 7.01562 14.5007 7.01562ZM14.5007 5.37061C12.0213 5.37061 11.7104 5.38111 10.7366 5.42553C9.76483 5.46985 9.10121 5.6242 8.52046 5.84989C7.92013 6.08319 7.41099 6.39536 6.90342 6.9029C6.39589 7.41047 6.08371 7.9196 5.85038 8.51994C5.62469 9.10069 5.47034 9.76431 5.42602 10.7361C5.3816 11.7099 5.37109 12.0207 5.37109 14.5002C5.37109 16.9797 5.3816 17.2906 5.42602 18.2643C5.47034 19.2361 5.62469 19.8997 5.85038 20.4805C6.08367 21.0808 6.39585 21.59 6.90342 22.0975C7.41099 22.6051 7.92013 22.9172 8.52046 23.1505C9.10121 23.3762 9.76483 23.5306 10.7366 23.5749C11.7104 23.6193 12.0213 23.6298 14.5007 23.6298C16.9802 23.6298 17.2911 23.6193 18.2649 23.5749C19.2366 23.5306 19.9003 23.3762 20.481 23.1505C21.0813 22.9172 21.5905 22.6051 22.0981 22.0975C22.6056 21.59 22.9178 21.0808 23.1511 20.4805C23.3767 19.8997 23.5311 19.2361 23.5754 18.2643C23.6198 17.2906 23.6303 16.9797 23.6303 14.5002C23.6303 12.0207 23.6198 11.7099 23.5754 10.7361C23.5311 9.76431 23.3767 9.10069 23.1511 8.51994C22.9178 7.9196 22.6056 7.41047 22.0981 6.9029C21.5905 6.39536 21.0813 6.08319 20.481 5.84989C19.9003 5.6242 19.2366 5.46985 18.2649 5.42553C17.2911 5.38111 16.9802 5.37061 14.5007 5.37061Z" fill="white"/>
<path d="M14.5007 9.81201C11.9115 9.81201 9.8125 11.911 9.8125 14.5002C9.8125 17.0894 11.9115 19.1884 14.5007 19.1884C17.0899 19.1884 19.1888 17.0894 19.1888 14.5002C19.1888 11.911 17.0899 9.81201 14.5007 9.81201ZM14.5007 17.5434C12.82 17.5434 11.4574 16.1809 11.4574 14.5002C11.4574 12.8194 12.82 11.457 14.5007 11.457C16.1814 11.457 17.5439 12.8194 17.5439 14.5002C17.5439 16.1809 16.1814 17.5434 14.5007 17.5434Z" fill="white"/>
<path d="M20.1482 10.4011C20.576 9.97329 20.576 9.27963 20.1482 8.8518C19.7204 8.42396 19.0267 8.42396 18.5989 8.8518C18.171 9.27964 18.171 9.97329 18.5989 10.4011C19.0267 10.829 19.7204 10.829 20.1482 10.4011Z" fill="white"/>
<defs>
<linearGradient id="paint0_linear_12034_2047" x1="16.2025" y1="-1.69818" x2="12.9621" y2="29.1323" gradientUnits="userSpaceOnUse">
<stop offset="0.1117" stop-color="#5254D4"/>
<stop offset="0.4441" stop-color="#FF00B9"/>
<stop offset="0.7179" stop-color="#FF145E"/>
<stop offset="0.9777" stop-color="#FACA31"/>
</linearGradient>
</defs>
</svg>
