<svg width="60" height="62" viewBox="0 0 60 62" fill="none" xmlns="http://www.w3.org/2000/svg">
<path d="M30.0004 27.7685C32.4028 27.7685 34.3504 25.6536 34.3504 23.0447C34.3504 20.4357 32.4028 18.3208 30.0004 18.3208C27.598 18.3208 25.6504 20.4357 25.6504 23.0447C25.6504 25.6536 27.598 27.7685 30.0004 27.7685Z" stroke="#3C4DB7" stroke-width="1.5" stroke-miterlimit="10" stroke-linecap="round" stroke-linejoin="round"/>
<path d="M25.6504 60.8356H32.9004V53.7498C32.9004 51.5453 31.3054 49.8132 29.2754 49.8132C27.2454 49.8132 25.6504 51.5453 25.6504 53.7498V60.8356Z" stroke="#3C4DB7" stroke-width="1.5" stroke-miterlimit="10" stroke-linecap="round" stroke-linejoin="round"/>
<path d="M12.5996 32.4924H47.3996" stroke="#3C4DB7" stroke-width="1.5" stroke-miterlimit="10" stroke-linecap="round" stroke-linejoin="round"/>
<path d="M1 60.8356H59" stroke="#3C4DB7" stroke-width="1.5" stroke-miterlimit="10" stroke-linecap="round" stroke-linejoin="round"/>
<path d="M47.3996 60.8356V24.6193L29.9996 10.4477L12.5996 24.6193V60.8356" stroke="#3C4DB7" stroke-width="1.5" stroke-miterlimit="10" stroke-linecap="round" stroke-linejoin="round"/>
<path d="M30 10.4477V5.72382" stroke="#3C4DB7" stroke-width="1.5" stroke-miterlimit="10" stroke-linecap="round" stroke-linejoin="round"/>
<path d="M1 34.067H8.25" stroke="#3C4DB7" stroke-width="1.5" stroke-miterlimit="10" stroke-linecap="round" stroke-linejoin="round"/>
<path d="M8.25 27.7686H1V60.8356" stroke="#3C4DB7" stroke-width="1.5" stroke-miterlimit="10" stroke-linecap="round" stroke-linejoin="round"/>
<path d="M51.75 34.067H59" stroke="#3C4DB7" stroke-width="1.5" stroke-miterlimit="10" stroke-linecap="round" stroke-linejoin="round"/>
<path d="M59 60.8356V27.7686H51.75" stroke="#3C4DB7" stroke-width="1.5" stroke-miterlimit="10" stroke-linecap="round" stroke-linejoin="round"/>
<path d="M38.7 1H30V10.4477H38.7L37.25 5.72386L38.7 1Z" stroke="#3C4DB7" stroke-width="1.5" stroke-miterlimit="10" stroke-linecap="round" stroke-linejoin="round"/>
<path d="M6.7998 41.9401V45.0911" stroke="#3C4DB7" stroke-width="1.5" stroke-miterlimit="10" stroke-linecap="round" stroke-linejoin="round"/>
<path d="M18.4004 38.7909V41.9419" stroke="#3C4DB7" stroke-width="1.5" stroke-miterlimit="10" stroke-linecap="round" stroke-linejoin="round"/>
<path d="M32.9004 38.7909V41.9419" stroke="#3C4DB7" stroke-width="1.5" stroke-miterlimit="10" stroke-linecap="round" stroke-linejoin="round"/>
<path d="M25.6504 38.7909V41.9419" stroke="#3C4DB7" stroke-width="1.5" stroke-miterlimit="10" stroke-linecap="round" stroke-linejoin="round"/>
<path d="M40.1504 38.7909V41.9419" stroke="#3C4DB7" stroke-width="1.5" stroke-miterlimit="10" stroke-linecap="round" stroke-linejoin="round"/>
<path d="M6.7998 51.3878V54.5388" stroke="#3C4DB7" stroke-width="1.5" stroke-miterlimit="10" stroke-linecap="round" stroke-linejoin="round"/>
<path d="M53.2002 41.9401V45.0911" stroke="#3C4DB7" stroke-width="1.5" stroke-miterlimit="10" stroke-linecap="round" stroke-linejoin="round"/>
<path d="M53.2002 51.3878V54.5388" stroke="#3C4DB7" stroke-width="1.5" stroke-miterlimit="10" stroke-linecap="round" stroke-linejoin="round"/>
</svg>
