<svg xmlns="http://www.w3.org/2000/svg" xmlns:xlink="http://www.w3.org/1999/xlink" width="1024.002" height="184.422" viewBox="0 0 1024.002 184.422">
  <defs>
    <linearGradient id="linear-gradient" x1="0.634" y1="1.917" x2="0.357" y2="3.397" gradientUnits="objectBoundingBox">
      <stop offset="0" stop-color="#fff"/>
      <stop offset="1" stop-opacity="0"/>
    </linearGradient>
    <linearGradient id="linear-gradient-2" x1="16.535" y1="-5.165" x2="16.258" y2="-3.573" xlink:href="#linear-gradient"/>
  </defs>
  <g id="Group_8220" data-name="Group 8220" transform="translate(-101.041 -226.121)">
    <path id="Path_63480" data-name="Path 63480" d="M485.15,269.267l.883,39.07h-3.353q-2.029-11.551-11.728-21.077a37.925,37.925,0,0,0-15.436-9.085,44.28,44.28,0,0,0-13.581-2.2q-12.085,0-19.226,6.615a15.258,15.258,0,0,0-5.2,11.551q0,7.677,7.231,12.525,6.524,4.413,20.728,9,16.224,5.293,21.785,7.938Q493,336.207,493,358.61q0,18.346-15.875,28.4-12.436,7.936-30.163,7.936a63.138,63.138,0,0,1-19.58-3.086q-2.642-.794-10.495-3.794a14.926,14.926,0,0,0-5.2-1.056q-5.908,0-9.347,7.936h-3.44V350.671h3.44q2.909,16.053,13.14,25.843,12.522,12,30.515,12,11.464,0,19.05-4.588,8.29-5.027,8.292-14.463,0-10.056-10.673-16.936-6.175-3.965-26.459-10.847a125.2,125.2,0,0,1-16.845-6.791q-20.285-11.113-20.285-30.428,0-16.313,13.405-26.546,11.377-8.733,27.694-8.732a58.826,58.826,0,0,1,18.169,3q3.174,1.058,10.406,4.234,4.586,2.029,6.88,2.029a5.559,5.559,0,0,0,3.572-1.324,5.774,5.774,0,0,0,2.073-3.35,18.2,18.2,0,0,0,.705-4.059,2.993,2.993,0,0,0-.087-.44Z" transform="translate(-67.333 -9.734)" fill="#005390"/>
    <path id="Path_63481" data-name="Path 63481" d="M562.327,276.131v80.08l16.758-19.225a55.173,55.173,0,0,0,5.38-6.791,11.2,11.2,0,0,0,1.85-5.645q0-6.088-8.465-6.085h-.882V315.2h35.1v3.264a23.087,23.087,0,0,0-10.673,3.7q-4.673,3-13.052,12.525l-7.144,8.2,21.7,33.337q6.878,10.677,11.289,14.642a9.068,9.068,0,0,0,5.291,2.467v3.178H579.085v-3.178q5.027-.614,5.026-3.35,0-2.026-5.026-9.7l-13.054-20.284-3.7,4.41v13.053q0,8.2.97,11.025,1.408,3.525,6.086,4.583a12.07,12.07,0,0,0,2.559.265h.176v3.178h-44.45v-3.178h2.116a8.642,8.642,0,0,0,6.526-2.821,9.776,9.776,0,0,0,1.942-5.821q.174-1.675.176-7.055V295.181a51.37,51.37,0,0,0-.619-9.968q-1.585-5.64-8.025-5.731h-2.116v-3.351Z" transform="translate(-96.444 -11.305)" fill="#005390"/>
    <path id="Path_63482" data-name="Path 63482" d="M944.942,276.131V376.85l-.089,7.585q0,8.908,8.376,8.906h.443v3.178H910.28v-3.178q5.289-.087,7.849-2.116,2.029-1.762,2.734-5.909.178-1.408.176-8.112V298q-.176-10.316-.527-12.436a7.616,7.616,0,0,0-2.912-4.5q-1.853-1.588-7.32-1.588v-3.351Z" transform="translate(-182.938 -11.305)" fill="#005390"/>
    <path id="Path_63483" data-name="Path 63483" d="M1049.054,333.105a49.694,49.694,0,0,1,19.844,7.231q13.671,8.731,13.67,23.813,0,15.346-14.464,24.695-11.818,7.672-30.69,7.674H972.5v-3.178h3.615q6.438,0,9.614-3.086a11.026,11.026,0,0,0,3-6.261,43.522,43.522,0,0,0,.354-6.526V295.357a33.006,33.006,0,0,0-.882-9q-2.56-7.145-12.083-7.055H973.56v-3.175h58.826q20.284,0,32.1,6.969a26.46,26.46,0,0,1,9.968,10.231,25.221,25.221,0,0,1,3,12.17q0,14.287-13.054,22.049a47.922,47.922,0,0,1-15.345,5.555m-32.1-50.624v48.33h2.47q10.759,0,16.58-3a20.094,20.094,0,0,0,8.909-8.644,26.814,26.814,0,0,0,3-12.614,26.109,26.109,0,0,0-4.672-15.61,19.433,19.433,0,0,0-13.053-7.848,61.235,61.235,0,0,0-9.7-.618Zm0,54.68v40.747q0,7.5,2.556,10.053,2.387,2.382,7.587,2.383,8.995,0,14.992-4.41,9.529-7.055,9.527-20.99,0-15-11.2-22.755a25.826,25.826,0,0,0-10.76-4.41,74.592,74.592,0,0,0-10.23-.618Z" transform="translate(-197.004 -11.305)" fill="#9e4070"/>
    <path id="Path_63484" data-name="Path 63484" d="M1197.671,380.12l3.261,1.939q-11.468,24.611-33.515,24.608-16.229,0-25.4-10.759-10.319-12.172-10.319-30.694,0-19.136,11.817-32.19,10.763-11.995,24.7-11.995a28.9,28.9,0,0,1,19.136,7.231q10.586,9,12.967,24.254a50.805,50.805,0,0,1,.616,7.76v.794h-46.038q.7,11.645,5.115,19.667,7.055,12.792,18.7,12.789t18.964-13.4m-42.777-24.87h24.521c.113-2.294.176-4.114.176-5.467q0-9.438-1.854-14.377a14.417,14.417,0,0,0-5.029-7.055,8.234,8.234,0,0,0-4.761-1.676q-8.027,0-11.291,12.347a63.1,63.1,0,0,0-1.762,16.229" transform="translate(-232.993 -21.455)" fill="#9e4070"/>
    <path id="Path_63485" data-name="Path 63485" d="M1301.143,380.12l3.261,1.939q-11.467,24.611-33.514,24.608-16.227,0-25.4-10.759-10.318-12.172-10.319-30.694,0-19.136,11.819-32.19,10.76-11.995,24.695-11.995a28.9,28.9,0,0,1,19.136,7.231q10.586,9,12.967,24.254a50.728,50.728,0,0,1,.616,7.76v.794h-46.038q.7,11.645,5.115,19.667,7.056,12.792,18.7,12.789t18.961-13.4m-42.777-24.87h24.521q.173-3.441.176-5.467,0-9.438-1.854-14.377a14.421,14.421,0,0,0-5.028-7.055,8.238,8.238,0,0,0-4.761-1.676q-8.027,0-11.29,12.347a63,63,0,0,0-1.765,16.229" transform="translate(-256.384 -21.455)" fill="#9e4070"/>
    <path id="Path_63486" data-name="Path 63486" d="M1358.755,322.821v8.954q6.6-10.745,17.423-10.745a20.214,20.214,0,0,1,12.132,4.315q7,5.129,10.581,14.816a57.655,57.655,0,0,1,3.422,20.516q0,17.831-8.63,28.984a29.065,29.065,0,0,1-9,7.571,21.646,21.646,0,0,1-10.382,2.85q-9.523,0-15.55-8.466v23.121a48.816,48.816,0,0,0,.571,9.2q1.463,5.21,7.408,5.291h3.338V432h-42.5V429.23h.976a8.243,8.243,0,0,0,5.944-2.524,9.843,9.843,0,0,0,1.873-5.453q.08-1.55.083-6.515V340.488a48.068,48.068,0,0,0-.571-9.282q-1.464-5.209-7.328-5.292h-.976v-3.093Zm0,17.423v44.125q5.862,8.059,10.991,8.061,6.025,0,7.979-9.77,1.3-6.513,1.3-21.249,0-14.326-1.791-21.492-2.444-9.283-8.3-9.282-3.826,0-7.408,4.722a23.691,23.691,0,0,0-2.769,4.884" transform="translate(-277.272 -21.455)" fill="#9e4070"/>
    <path id="Path_63487" data-name="Path 63487" d="M682.484,299.216a44.084,44.084,0,0,1,35.038,6.889q16.5,11.021,21.368,34.09,4.582,21.711-4.744,37.962a45.647,45.647,0,0,1-16.2,16.722,42.935,42.935,0,0,1-13.857,5.652,46.73,46.73,0,0,1-23.951-1.377,45.177,45.177,0,0,1-24.274-17.89,59.057,59.057,0,0,1-9.039-21.64q-5.134-24.326,7.007-41.713a45.263,45.263,0,0,1,28.657-18.7m1.013,6.872q-11.272,2.38-11.008,19.66.147,7.932,3.079,21.813,6.124,29.019,10.815,37.3,6.012,10.4,15.615,8.37,6.579-1.387,9.154-6.731,3.258-6.788,1.652-20.08-.777-5.727-2.4-13.451-5.42-25.679-8.755-34.241-6.04-15.194-18.15-12.638" transform="translate(-123.035 -16.283)" fill="#005390"/>
    <path id="Path_63488" data-name="Path 63488" d="M815.741,299.218a44.056,44.056,0,0,1,35.038,6.886q16.5,11.021,21.368,34.09,4.582,21.715-4.747,37.966a45.655,45.655,0,0,1-16.2,16.719,43.039,43.039,0,0,1-13.855,5.652,46.7,46.7,0,0,1-23.951-1.377,45.181,45.181,0,0,1-24.271-17.89,58.985,58.985,0,0,1-9.039-21.64q-5.135-24.322,7-41.711a45.24,45.24,0,0,1,28.657-18.7m1.016,6.869q-11.277,2.38-11.008,19.66.145,7.929,3.076,21.813,6.124,29.019,10.816,37.3,6.008,10.4,15.612,8.37,6.579-1.387,9.159-6.729,3.253-6.791,1.648-20.084-.775-5.723-2.4-13.451-5.416-25.676-8.753-34.241-6.044-15.19-18.146-12.635" transform="translate(-153.16 -16.282)" fill="#005390"/>
    <g id="Group_8215" data-name="Group 8215" transform="translate(101.042 243.357)">
      <path id="Path_63489" data-name="Path 63489" d="M316.082,297.6s15.572-12,22.356,2.313c4.023,8.492-2.635,13.2-2.635,13.2a8.728,8.728,0,0,0-1.886-7.544,7.848,7.848,0,0,1-5.029,8.054s3.668-7.069.984-10.433c-2.117-2.656-8.106-5.233-10.6-3.2S316.082,297.6,316.082,297.6Z" transform="translate(-149.654 -258.451)" fill="#9e4070"/>
      <path id="Path_63490" data-name="Path 63490" d="M292.713,285.8s2.111-22.789-14.7-21.178c-10.077,1.38-12.054,9.293-12.054,9.293s5.195-5.811,11.447-3.754c0,0-7.769.409-4.668,11.113,0,0,.423-7.359,8.389-6.828a8.385,8.385,0,0,1,7.616,9.5C288.076,287.415,292.713,285.8,292.713,285.8Z" transform="translate(-138.324 -252.042)" fill="#9e4070"/>
      <path id="Path_63491" data-name="Path 63491" d="M133.745,351.272s-26.853,28.365-23.665,43.259,11.389,18.633,11.389,18.633,6.688,5.1,4.7-3.621,6.023-32.632,20.878-38.943c7.818-1.88,11.955,10.854,25.842,13.271s22.984,2.263,26.946,1.775,4.6-4.972-2.6-6.575-20.288-14.443-20.288-14.443Z" transform="translate(-103.025 -271.649)" fill="#005390"/>
      <circle id="Ellipse_675" data-name="Ellipse 675" cx="16.568" cy="16.568" r="16.568" transform="translate(16.909 15.575)" fill="#005390"/>
      <circle id="Ellipse_676" data-name="Ellipse 676" cx="16.568" cy="16.568" r="16.568" transform="translate(141.057 23.316)" fill="#9e4070"/>
      <path id="Path_63492" data-name="Path 63492" d="M133.745,351.272s-26.853,28.365-23.665,43.259,11.389,18.633,11.389,18.633,6.688,5.1,4.7-3.621,6.023-32.632,20.878-38.943c7.818-1.88,11.955,10.854,25.842,13.271s22.984,2.263,26.946,1.775,4.6-4.972-2.6-6.575-20.288-14.443-20.288-14.443Z" transform="translate(-103.025 -271.649)" opacity="0.15" fill="url(#linear-gradient)"/>
      <path id="Path_63493" data-name="Path 63493" d="M177.007,343.251s-75.838-18.1-75.965-25.689,31.722-4.12,51.246-24.081,19.152-22.238,26.6-43.546c4.977-9.154,9.748,24.521-5.54,46.06C157.135,318.837,177.007,343.251,177.007,343.251Z" transform="translate(-101.042 -248.392)" fill="#005390"/>
      <path id="Path_63494" data-name="Path 63494" d="M307.394,357.679s33.34,20.35,34.162,35.559-6.117,20.964-6.117,20.964-5.12,6.674-5.486-2.265-14.353-29.918-30.341-32.123c-8.038.232-8.7,13.6-21.469,19.572s-21.591,8.2-25.542,8.765-5.741-3.594.787-7.026,15.8-19.249,15.8-19.249Z" transform="translate(-134.502 -273.098)" fill="#9e4070"/>
      <path id="Path_63495" data-name="Path 63495" d="M307.394,357.679s33.34,20.35,34.162,35.559-6.117,20.964-6.117,20.964-5.12,6.674-5.486-2.265-14.353-29.918-30.341-32.123c-8.038.232-8.7,13.6-21.469,19.572s-21.591,8.2-25.542,8.765-5.741-3.594.787-7.026,15.8-19.249,15.8-19.249Z" transform="translate(-134.502 -273.098)" opacity="0.15" fill="url(#linear-gradient-2)"/>
      <path id="Path_63496" data-name="Path 63496" d="M264.544,365.5s68.459-37.314,66.6-44.673-31.7,4.326-55.762-9.831-24.3-16.451-37.068-35.068c-7.2-7.534-2.991,26.216,17.4,43.005C277.335,336.737,264.544,365.5,264.544,365.5Z" transform="translate(-131.333 -254.372)" fill="#9e4070"/>
      <path id="Path_63497" data-name="Path 63497" d="M302.813,281.25" transform="translate(-146.654 -255.82)" fill="#9e4070"/>
    </g>
    <g id="Group_8219" data-name="Group 8219" transform="translate(186.274 226.121)">
      <g id="Group_8218" data-name="Group 8218">
        <g id="Group_8217" data-name="Group 8217">
          <g id="Group_8216" data-name="Group 8216">
            <path id="SVGID" d="M226.372,226.58l3.706,8.674,9.4.84a.756.756,0,0,1,.431,1.325h0l-7.112,6.206,2.1,9.2a.753.753,0,0,1-.571.9.776.776,0,0,1-.582-.108l-8.081-4.827-8.1,4.849a.755.755,0,0,1-1.035-.259.738.738,0,0,1-.086-.56h0l2.1-9.2-7.112-6.206a.762.762,0,0,1-.075-1.066.783.783,0,0,1,.539-.248l9.374-.84,3.706-8.685a.766.766,0,0,1,1.4,0Z" transform="translate(-211.17 -226.121)" fill="#b14170"/>
          </g>
        </g>
      </g>
      <path id="Path_63498" data-name="Path 63498" d="M225.668,226.121a.746.746,0,0,0-.7.459l-3.706,8.685-9.374.84a.783.783,0,0,0-.539.248.762.762,0,0,0,.075,1.066l7.112,6.206-2.1,9.2a.738.738,0,0,0,.086.56.756.756,0,0,0,1.035.259l8.1-4.849.007,0Z" transform="translate(-211.17 -226.121)" fill="#005391"/>
    </g>
  </g>
</svg>
