<svg width="56" height="61" viewBox="0 0 56 61" fill="none" xmlns="http://www.w3.org/2000/svg">
<path d="M13 28.6917C13 37.6508 19.75 44.9809 28 44.9809C36.25 44.9809 43 37.6508 43 28.6917" stroke="#3C4DB7" stroke-width="1.5" stroke-miterlimit="10" stroke-linecap="round" stroke-linejoin="round"/>
<path d="M17.7998 49.0532L27.6998 58.0123L37.5998 49.0532" stroke="#3C4DB7" stroke-width="1.5" stroke-miterlimit="10" stroke-linecap="round" stroke-linejoin="round"/>
<path d="M34.8998 33.7413C33.0998 35.696 30.6998 36.9992 27.9998 36.9992C25.1498 36.9992 22.4498 35.5331 20.7998 33.4155" stroke="#3C4DB7" stroke-width="1.5" stroke-miterlimit="10" stroke-linecap="round" stroke-linejoin="round"/>
<path d="M19 41.7231V45.1438C19 47.7501 17.05 49.8677 14.65 49.8677H10C5.05 49.8677 1 54.2658 1 59.6412" stroke="#3C4DB7" stroke-width="1.5" stroke-miterlimit="10" stroke-linecap="round" stroke-linejoin="round"/>
<path d="M55 59.6412C55 54.2658 50.95 49.8677 46 49.8677H41.35C38.95 49.8677 37 47.7501 37 45.1438V41.7231" stroke="#3C4DB7" stroke-width="1.5" stroke-miterlimit="10" stroke-linecap="round" stroke-linejoin="round"/>
<path d="M13 18.9182H9.69998C8.94998 18.9182 8.5 19.5698 8.5 20.2213V28.8546C8.5 30.4835 9.69999 31.9496 11.35 31.9496H13" stroke="#3C4DB7" stroke-width="1.5" stroke-miterlimit="10" stroke-linecap="round" stroke-linejoin="round"/>
<path d="M43 18.9182H46.3C47.05 18.9182 47.5 19.5698 47.5 20.2213V28.8546C47.5 30.4835 46.3 31.9496 44.65 31.9496H43" stroke="#3C4DB7" stroke-width="1.5" stroke-miterlimit="10" stroke-linecap="round" stroke-linejoin="round"/>
<path d="M13 22.1759V1H43V22.1759" stroke="#3C4DB7" stroke-width="1.5" stroke-miterlimit="10" stroke-linecap="round" stroke-linejoin="round"/>
<path d="M43 22.1779H26.5C24.85 22.1779 23.5 20.711 23.5 18.9182" stroke="#3C4DB7" stroke-width="1.5" stroke-miterlimit="10" stroke-linecap="round" stroke-linejoin="round"/>
<path d="M13 15.6603H43" stroke="#3C4DB7" stroke-width="1.5" stroke-miterlimit="10" stroke-linecap="round" stroke-linejoin="round"/>
<path d="M50.5 14.0314V15.6604" stroke="#3C4DB7" stroke-width="1.5" stroke-miterlimit="10" stroke-linecap="round" stroke-linejoin="round"/>
<path d="M5.5 1H50.5V9.14459" stroke="#3C4DB7" stroke-width="1.5" stroke-miterlimit="10" stroke-linecap="round" stroke-linejoin="round"/>
</svg>
