<svg width="74" height="74" viewBox="0 0 74 74" fill="none" xmlns="http://www.w3.org/2000/svg">
<mask id="path-1-inside-1_553_109" fill="white">
<path d="M42.2398 29.5395C42.144 29.4435 42.0681 29.3295 42.0162 29.204C41.9644 29.0785 41.9377 28.944 41.9377 28.8081C41.9377 28.6722 41.9644 28.5377 42.0162 28.4122C42.0681 28.2867 42.144 28.1727 42.2398 28.0767C42.5626 27.7489 42.9469 27.4886 43.3705 27.311C43.7941 27.1334 44.2485 27.0419 44.7075 27.0419C45.1665 27.0419 45.621 27.1334 46.0446 27.311C46.4682 27.4886 46.8525 27.7489 47.1753 28.0767C47.2711 28.1727 47.347 28.2867 47.3989 28.4122C47.4507 28.5377 47.4774 28.6722 47.4774 28.8081C47.4774 28.944 47.4507 29.0785 47.3989 29.204C47.347 29.3295 47.2711 29.4435 47.1753 29.5395C46.9803 29.7298 46.7192 29.8363 46.4473 29.8363C46.1755 29.8363 45.9143 29.7298 45.7193 29.5395C45.5878 29.4066 45.4315 29.3011 45.2592 29.2291C45.087 29.1571 44.9023 29.12 44.7158 29.12C44.5292 29.12 44.3445 29.1571 44.1723 29.2291C44.0001 29.3011 43.8437 29.4066 43.7122 29.5395C43.5186 29.7293 43.2588 29.8355 42.9883 29.8355C42.7178 29.8355 42.4581 29.7293 42.2645 29.5395H42.2398ZM28.3381 29.5395C28.469 29.4056 28.6252 29.2992 28.7975 29.2265C28.9698 29.1539 29.1548 29.1165 29.3416 29.1165C29.5285 29.1165 29.7135 29.1539 29.8858 29.2265C30.0581 29.2992 30.2143 29.4056 30.3452 29.5395C30.5416 29.7149 30.7973 29.8081 31.06 29.8C31.3226 29.7918 31.5722 29.683 31.7575 29.4958C31.9427 29.3086 32.0497 29.0572 32.0563 28.7933C32.0628 28.5294 31.9686 28.273 31.7929 28.0767C31.4701 27.7489 31.0858 27.4886 30.6622 27.311C30.2386 27.1334 29.7842 27.0419 29.3252 27.0419C28.8662 27.0419 28.4117 27.1334 27.9881 27.311C27.5646 27.4886 27.1802 27.7489 26.8574 28.0767C26.7617 28.1727 26.6857 28.2867 26.6339 28.4122C26.582 28.5377 26.5553 28.6722 26.5553 28.8081C26.5553 28.944 26.582 29.0785 26.6339 29.204C26.6857 29.3295 26.7617 29.4435 26.8574 29.5395C26.9545 29.6374 27.0699 29.7152 27.1969 29.7682C27.324 29.8212 27.4602 29.8485 27.5978 29.8485C27.7353 29.8485 27.8716 29.8212 27.9986 29.7682C28.1256 29.7152 28.241 29.6374 28.3381 29.5395ZM37.0164 35.151C37.1514 35.151 37.2851 35.1243 37.4099 35.0724C37.5346 35.0205 37.648 34.9444 37.7434 34.8484C37.8389 34.7525 37.9147 34.6386 37.9663 34.5133C38.018 34.388 38.0446 34.2536 38.0446 34.118V30.8122C38.0446 30.5382 37.9363 30.2755 37.7434 30.0817C37.5506 29.888 37.2891 29.7792 37.0164 29.7792C36.7437 29.7792 36.4821 29.888 36.2893 30.0817C36.0965 30.2755 35.9881 30.5382 35.9881 30.8122V34.118C35.9881 34.2536 36.0147 34.388 36.0664 34.5133C36.1181 34.6386 36.1938 34.7525 36.2893 34.8484C36.3848 34.9444 36.4981 35.0205 36.6229 35.0724C36.7476 35.1243 36.8813 35.151 37.0164 35.151ZM37.0164 40.6468C37.8741 40.6486 38.7237 40.4793 39.5158 40.1487C40.308 39.8182 41.0269 39.333 41.6311 38.7212C41.8231 38.5283 41.9309 38.2667 41.9309 37.994C41.9309 37.7212 41.8231 37.4596 41.6311 37.2667C41.4391 37.0738 41.1787 36.9654 40.9072 36.9654C40.6357 36.9654 40.3753 37.0738 40.1833 37.2667C39.3418 38.1075 38.2032 38.5794 37.0164 38.5794C35.8295 38.5794 34.691 38.1075 33.8494 37.2667C33.6574 37.0738 33.397 36.9654 33.1255 36.9654C32.854 36.9654 32.5936 37.0738 32.4017 37.2667C32.2097 37.4596 32.1018 37.7212 32.1018 37.994C32.1018 38.2667 32.2097 38.5283 32.4017 38.7212C33.0044 39.336 33.7228 39.8242 34.515 40.1576C35.3072 40.491 36.1575 40.6629 37.0164 40.6633V40.6468ZM73.6132 45.6964C73.7364 45.7951 73.8353 45.921 73.9023 46.0643C73.9694 46.2076 74.0027 46.3645 73.9998 46.5228V69.5639C73.9989 69.8013 73.9166 70.0312 73.7668 70.2148C73.617 70.3985 73.4088 70.5247 73.1772 70.5721L58.4036 73.9936C58.3271 74.0021 58.2498 74.0021 58.1733 73.9936H6.7123C5.37258 73.9893 4.08873 73.4538 3.13986 72.5036C2.191 71.5534 1.65384 70.2652 1.64517 68.9193V43.6137C1.64517 43.6137 1.64517 43.5559 1.64517 43.5146C0.585746 42.1682 0.00645803 40.5036 0 38.7873V33.2171C0 32.4829 0.290328 31.7787 0.807115 31.2595C1.3239 30.7403 2.02482 30.4486 2.75566 30.4486H8.31634V26.1841C8.30785 25.3949 8.5879 24.63 9.1034 24.0344C9.6189 23.4388 10.334 23.0539 11.1131 22.9528C11.5492 22.9027 11.9908 22.9458 12.4092 23.079C12.8275 23.2123 13.2131 23.4328 13.5408 23.7262C13.8685 24.0195 14.1308 24.379 14.3107 24.7812C14.4905 25.1834 14.5838 25.6193 14.5844 26.0602V39.0518C14.5883 40.7126 14.0218 42.3239 12.9804 43.6137V54.9855C14.5155 52.7772 16.6477 51.0565 19.1251 50.0269V33.9361C18.2477 33.317 17.5315 32.4948 17.0371 31.5389C16.5426 30.5831 16.2845 29.5217 16.2845 28.4445C16.2845 27.3672 16.5426 26.3058 17.0371 25.35C17.5315 24.3941 18.2477 23.5719 19.1251 22.9528V17.6305C19.2256 12.9202 21.1585 8.43678 24.5098 5.14117C27.8611 1.84557 32.3639 0 37.0534 0C41.7428 0 46.2457 1.84557 49.597 5.14117C52.9482 8.43678 54.8812 12.9202 54.9816 17.6305V22.9528C55.8591 23.5719 56.5753 24.3941 57.0697 25.35C57.5641 26.3058 57.8222 27.3672 57.8222 28.4445C57.8222 29.5217 57.5641 30.5831 57.0697 31.5389C56.5753 32.4948 55.8591 33.317 54.9816 33.9361V49.3492C55.4171 49.6307 55.8057 49.9794 56.1333 50.3823C56.8807 49.4704 57.9125 48.8385 59.0617 48.5889L72.7495 45.5145C72.8989 45.4784 73.0547 45.4774 73.2045 45.5118C73.3544 45.5462 73.4943 45.6151 73.6132 45.7129V45.6964ZM57.1615 53.0434H57.9841L71.894 49.8285V47.812L59.5141 50.6054C58.9126 50.705 58.3595 50.9982 57.9382 51.4408C57.5168 51.8835 57.25 52.4517 57.1779 53.0599L57.1615 53.0434ZM45.0777 71.9606L39.0646 70.5721C38.833 70.5247 38.6248 70.3985 38.475 70.2148C38.3252 70.0312 38.2429 69.8013 38.242 69.5639V57.6549H34.4417L37.5757 71.9606H45.0777ZM44.3292 23.4982C43.4218 23.6111 42.5654 23.9819 41.8605 24.5668C41.1556 25.1518 40.6314 25.9267 40.3497 26.8005C40.0679 27.6744 40.0402 28.6109 40.2697 29.5C40.4993 30.3891 40.9767 31.1939 41.6457 31.82C42.3148 32.446 43.1478 32.8672 44.0469 33.0341C44.9459 33.201 45.8737 33.1066 46.7213 32.7622C47.5688 32.4177 48.3009 31.8374 48.8316 31.0894C49.3623 30.3414 49.6695 29.4568 49.7171 28.5395V27.9527C49.6574 26.9792 49.3056 26.0467 48.708 25.2781C48.1103 24.5094 47.2949 23.9408 46.3692 23.647C45.6535 23.6305 44.9708 23.5809 44.3292 23.4982ZM40.7098 22.8536C36.1526 21.7462 33.981 19.8702 32.961 18.4074C31.9328 19.6185 30.6921 20.6297 29.3005 21.3908C30.9192 21.4229 32.4746 22.0284 33.6921 23.1004C34.9097 24.1725 35.7112 25.6423 35.9552 27.2503H38.1515C38.4143 25.5103 39.3296 23.9373 40.7098 22.8536ZM24.3897 28.5395C24.4656 29.7918 25.0239 30.9652 25.9463 31.811C26.8686 32.6568 28.0826 33.1084 29.3308 33.0703C30.579 33.0321 31.7633 32.5071 32.6328 31.6066C33.5023 30.7061 33.9886 29.5007 33.9886 28.2461C33.9886 26.9915 33.5023 25.7862 32.6328 24.8856C31.7633 23.9851 30.579 23.4601 29.3308 23.4219C28.0826 23.3838 26.8686 23.8355 25.9463 24.6812C25.0239 25.527 24.4656 26.7004 24.3897 27.9527V28.5395ZM24.3897 33.1923C24.4738 36.504 25.8423 39.6517 28.2034 41.9641C30.5645 44.2765 33.7314 45.5707 37.0287 45.5707C40.326 45.5707 43.4929 44.2765 45.854 41.9641C48.2151 39.6517 49.5836 36.504 49.6677 33.1923C48.7646 34.0674 47.6395 34.6763 46.4152 34.9523C45.191 35.2283 43.9148 35.1609 42.7261 34.7574C41.5374 34.3539 40.482 33.6299 39.6752 32.6644C38.8684 31.699 38.3413 30.5294 38.1515 29.2833H35.9552C35.7654 30.5294 35.2383 31.699 34.4316 32.6644C33.6248 33.6299 32.5694 34.3539 31.3807 34.7574C30.192 35.1609 28.9158 35.2283 27.6915 34.9523C26.4673 34.6763 25.3421 34.0674 24.439 33.1923H24.3897ZM52.7278 50.5475L40.3067 47.812V49.8451L54.2166 53.0599H55.0392C54.9941 52.6006 54.8308 52.1611 54.5654 51.7844C54.3001 51.4076 53.9417 51.1067 53.5257 50.9112H53.4681C53.2404 50.7852 53.0006 50.6828 52.7524 50.6054L52.7278 50.5475ZM40.3067 68.7457L53.0732 71.6961V54.9194L40.3067 51.9608V68.7457ZM32.7307 46.903V49.7624L33.9975 55.5475H38.2749V47.4484C37.8389 47.5476 37.4606 47.5476 37.0164 47.5476C35.564 47.5464 34.1198 47.3291 32.7307 46.903ZM52.9252 34.9196C52.4792 35.0455 52.0217 35.1258 51.5597 35.1593C51.1607 37.5841 50.1676 39.8712 48.6699 41.8145C47.1722 43.7577 45.2169 45.2962 42.9801 46.2914L52.9252 48.5228V34.9196ZM55.7631 28.4486C55.7608 27.3257 55.3564 26.241 54.624 25.3928C53.8915 24.5446 52.8798 23.9895 51.7736 23.8288V28.2585C51.7736 28.2585 51.7736 28.4486 51.7736 28.5478V33.0353C52.8742 32.8755 53.8815 32.3251 54.6133 31.4838C55.3451 30.6425 55.7529 29.5658 55.7631 28.4486ZM21.2145 21.9693C21.8029 21.7998 22.412 21.7135 23.0242 21.7131C23.0679 21.7085 23.112 21.7085 23.1558 21.7131C23.4108 21.647 30.5591 19.7214 32.2042 15.8206C32.2921 15.612 32.4457 15.4383 32.6414 15.326C32.8372 15.2137 33.0642 15.1692 33.2877 15.1992C33.5111 15.2293 33.7185 15.3322 33.8779 15.4923C34.0374 15.6524 34.1401 15.8606 34.1702 16.0851C34.1702 16.0851 34.9928 20.2173 44.3703 21.3908H45.0037C45.6178 21.3933 46.229 21.4766 46.8216 21.6387C48.0308 21.7131 49.3552 21.7379 50.8029 21.7131C50.8686 21.7091 50.9346 21.7091 51.0003 21.7131C51.0633 21.7092 51.1265 21.7092 51.1895 21.7131C51.8017 21.7135 52.4108 21.7998 52.9992 21.9693V17.6305C52.9048 13.4642 51.1911 9.50045 48.2249 6.58738C45.2586 3.67432 41.2754 2.0433 37.1274 2.0433C32.9794 2.0433 28.9962 3.67432 26.0299 6.58738C23.0637 9.50045 21.35 13.4642 21.2556 17.6305L21.2145 21.9693ZM18.3437 28.4486C18.3468 29.573 18.7537 30.6586 19.4897 31.5058C20.2256 32.353 21.2412 32.9049 22.3497 33.0601C22.3497 32.9609 22.3497 32.8618 22.3497 32.7626V28.5395C22.3497 28.4403 22.3497 28.3494 22.3497 28.2502C22.3497 28.1511 22.3497 28.0519 22.3497 27.9527V23.8205C21.2383 23.9762 20.2206 24.5305 19.4843 25.3811C18.748 26.2317 18.3428 27.3213 18.3437 28.4486ZM21.1816 49.374C22.431 49.0686 23.7125 48.9159 24.9984 48.9195H30.6742V46.0765C28.5476 45.0425 26.6994 43.5104 25.2851 41.6091C23.8708 39.7078 22.9317 37.4929 22.5471 35.151C22.085 35.1183 21.6274 35.038 21.1816 34.9113V49.374ZM7.14827 44.2914C7.84657 44.3124 8.54196 44.1925 9.1933 43.9387C9.84464 43.6849 10.4387 43.3024 10.9403 42.8139C11.4419 42.3253 11.8409 41.7407 12.1136 41.0945C12.3863 40.4483 12.5272 39.7537 12.528 39.0518V37.8535H7.46085C7.2296 37.8535 7.00782 37.9458 6.8443 38.11C6.68078 38.2743 6.58891 38.4971 6.58891 38.7295C6.58891 38.9618 6.68078 39.1846 6.8443 39.3489C7.00782 39.5132 7.2296 39.6055 7.46085 39.6055H8.98264C9.25534 39.6055 9.51688 39.7143 9.70971 39.9081C9.90254 40.1018 10.0109 40.3646 10.0109 40.6386C10.0109 40.9125 9.90254 41.1753 9.70971 41.369C9.51688 41.5628 9.25534 41.6716 8.98264 41.6716H7.46085C6.68562 41.6694 5.94288 41.3585 5.39547 40.807C4.84807 40.2554 4.54067 39.5084 4.54067 38.7295C4.54323 38.4489 4.5876 38.1704 4.67229 37.903H2.08937V38.7873C2.06752 40.182 2.58074 41.5316 3.52261 42.5564C4.46448 43.5811 5.76276 44.2024 7.14827 44.2914ZM10.4386 34.118C10.4325 34.7012 10.2706 35.272 9.96974 35.7708H12.5609V26.0602C12.5666 25.9047 12.5378 25.7499 12.4766 25.607C12.4155 25.464 12.3234 25.3365 12.2072 25.2337C12.0966 25.1332 11.9663 25.0569 11.8246 25.01C11.6829 24.963 11.533 24.9463 11.3846 24.961C11.1125 25.0122 10.8675 25.1594 10.6941 25.3762C10.5206 25.5929 10.43 25.8648 10.4386 26.1428V34.118ZM2.08937 33.2171V35.8204H5.93907C7.23876 35.8204 8.34925 35.0436 8.34925 34.118V32.5147H2.78857C2.60313 32.5147 2.42528 32.5887 2.29416 32.7204C2.16303 32.8522 2.08937 33.0308 2.08937 33.2171ZM18.7796 71.9606V59.1177C18.7796 58.8437 18.888 58.581 19.0808 58.3872C19.2736 58.1935 19.5352 58.0847 19.8079 58.0847C20.0806 58.0847 20.3421 58.1935 20.5349 58.3872C20.7278 58.581 20.8361 58.8437 20.8361 59.1177V71.9606H35.4699L30.8799 50.9856H24.9984C19.594 50.9856 15.3577 53.812 13.0627 58.9524C13.0352 58.9862 13.0104 59.0221 12.9886 59.0599V65.5722C12.9886 65.8462 12.8803 66.1089 12.6875 66.3027C12.4946 66.4964 12.2331 66.6052 11.9604 66.6052C11.6877 66.6052 11.4262 66.4964 11.2333 66.3027C11.0405 66.1089 10.9322 65.8462 10.9322 65.5722V45.3823C9.83122 46.0195 8.58333 46.3557 7.31279 46.3575H7.08246C5.8847 46.3234 4.71652 45.9759 3.69341 45.3493V68.9193C3.69341 69.7244 4.01121 70.4968 4.57712 71.0669C5.14304 71.637 5.91089 71.9584 6.7123 71.9606H18.7796ZM57.1204 71.9606V55.126H55.1133V58.5557C55.2277 58.7147 55.2909 58.9051 55.2942 59.1012V71.9606H57.1204ZM71.9434 51.9608L59.1768 54.9194V71.6961L71.9434 68.7457V51.9608Z"/>
</mask>
<path d="M42.2398 29.5395C42.144 29.4435 42.0681 29.3295 42.0162 29.204C41.9644 29.0785 41.9377 28.944 41.9377 28.8081C41.9377 28.6722 41.9644 28.5377 42.0162 28.4122C42.0681 28.2867 42.144 28.1727 42.2398 28.0767C42.5626 27.7489 42.9469 27.4886 43.3705 27.311C43.7941 27.1334 44.2485 27.0419 44.7075 27.0419C45.1665 27.0419 45.621 27.1334 46.0446 27.311C46.4682 27.4886 46.8525 27.7489 47.1753 28.0767C47.2711 28.1727 47.347 28.2867 47.3989 28.4122C47.4507 28.5377 47.4774 28.6722 47.4774 28.8081C47.4774 28.944 47.4507 29.0785 47.3989 29.204C47.347 29.3295 47.2711 29.4435 47.1753 29.5395C46.9803 29.7298 46.7192 29.8363 46.4473 29.8363C46.1755 29.8363 45.9143 29.7298 45.7193 29.5395C45.5878 29.4066 45.4315 29.3011 45.2592 29.2291C45.087 29.1571 44.9023 29.12 44.7158 29.12C44.5292 29.12 44.3445 29.1571 44.1723 29.2291C44.0001 29.3011 43.8437 29.4066 43.7122 29.5395C43.5186 29.7293 43.2588 29.8355 42.9883 29.8355C42.7178 29.8355 42.4581 29.7293 42.2645 29.5395H42.2398ZM28.3381 29.5395C28.469 29.4056 28.6252 29.2992 28.7975 29.2265C28.9698 29.1539 29.1548 29.1165 29.3416 29.1165C29.5285 29.1165 29.7135 29.1539 29.8858 29.2265C30.0581 29.2992 30.2143 29.4056 30.3452 29.5395C30.5416 29.7149 30.7973 29.8081 31.06 29.8C31.3226 29.7918 31.5722 29.683 31.7575 29.4958C31.9427 29.3086 32.0497 29.0572 32.0563 28.7933C32.0628 28.5294 31.9686 28.273 31.7929 28.0767C31.4701 27.7489 31.0858 27.4886 30.6622 27.311C30.2386 27.1334 29.7842 27.0419 29.3252 27.0419C28.8662 27.0419 28.4117 27.1334 27.9881 27.311C27.5646 27.4886 27.1802 27.7489 26.8574 28.0767C26.7617 28.1727 26.6857 28.2867 26.6339 28.4122C26.582 28.5377 26.5553 28.6722 26.5553 28.8081C26.5553 28.944 26.582 29.0785 26.6339 29.204C26.6857 29.3295 26.7617 29.4435 26.8574 29.5395C26.9545 29.6374 27.0699 29.7152 27.1969 29.7682C27.324 29.8212 27.4602 29.8485 27.5978 29.8485C27.7353 29.8485 27.8716 29.8212 27.9986 29.7682C28.1256 29.7152 28.241 29.6374 28.3381 29.5395ZM37.0164 35.151C37.1514 35.151 37.2851 35.1243 37.4099 35.0724C37.5346 35.0205 37.648 34.9444 37.7434 34.8484C37.8389 34.7525 37.9147 34.6386 37.9663 34.5133C38.018 34.388 38.0446 34.2536 38.0446 34.118V30.8122C38.0446 30.5382 37.9363 30.2755 37.7434 30.0817C37.5506 29.888 37.2891 29.7792 37.0164 29.7792C36.7437 29.7792 36.4821 29.888 36.2893 30.0817C36.0965 30.2755 35.9881 30.5382 35.9881 30.8122V34.118C35.9881 34.2536 36.0147 34.388 36.0664 34.5133C36.1181 34.6386 36.1938 34.7525 36.2893 34.8484C36.3848 34.9444 36.4981 35.0205 36.6229 35.0724C36.7476 35.1243 36.8813 35.151 37.0164 35.151ZM37.0164 40.6468C37.8741 40.6486 38.7237 40.4793 39.5158 40.1487C40.308 39.8182 41.0269 39.333 41.6311 38.7212C41.8231 38.5283 41.9309 38.2667 41.9309 37.994C41.9309 37.7212 41.8231 37.4596 41.6311 37.2667C41.4391 37.0738 41.1787 36.9654 40.9072 36.9654C40.6357 36.9654 40.3753 37.0738 40.1833 37.2667C39.3418 38.1075 38.2032 38.5794 37.0164 38.5794C35.8295 38.5794 34.691 38.1075 33.8494 37.2667C33.6574 37.0738 33.397 36.9654 33.1255 36.9654C32.854 36.9654 32.5936 37.0738 32.4017 37.2667C32.2097 37.4596 32.1018 37.7212 32.1018 37.994C32.1018 38.2667 32.2097 38.5283 32.4017 38.7212C33.0044 39.336 33.7228 39.8242 34.515 40.1576C35.3072 40.491 36.1575 40.6629 37.0164 40.6633V40.6468ZM73.6132 45.6964C73.7364 45.7951 73.8353 45.921 73.9023 46.0643C73.9694 46.2076 74.0027 46.3645 73.9998 46.5228V69.5639C73.9989 69.8013 73.9166 70.0312 73.7668 70.2148C73.617 70.3985 73.4088 70.5247 73.1772 70.5721L58.4036 73.9936C58.3271 74.0021 58.2498 74.0021 58.1733 73.9936H6.7123C5.37258 73.9893 4.08873 73.4538 3.13986 72.5036C2.191 71.5534 1.65384 70.2652 1.64517 68.9193V43.6137C1.64517 43.6137 1.64517 43.5559 1.64517 43.5146C0.585746 42.1682 0.00645803 40.5036 0 38.7873V33.2171C0 32.4829 0.290328 31.7787 0.807115 31.2595C1.3239 30.7403 2.02482 30.4486 2.75566 30.4486H8.31634V26.1841C8.30785 25.3949 8.5879 24.63 9.1034 24.0344C9.6189 23.4388 10.334 23.0539 11.1131 22.9528C11.5492 22.9027 11.9908 22.9458 12.4092 23.079C12.8275 23.2123 13.2131 23.4328 13.5408 23.7262C13.8685 24.0195 14.1308 24.379 14.3107 24.7812C14.4905 25.1834 14.5838 25.6193 14.5844 26.0602V39.0518C14.5883 40.7126 14.0218 42.3239 12.9804 43.6137V54.9855C14.5155 52.7772 16.6477 51.0565 19.1251 50.0269V33.9361C18.2477 33.317 17.5315 32.4948 17.0371 31.5389C16.5426 30.5831 16.2845 29.5217 16.2845 28.4445C16.2845 27.3672 16.5426 26.3058 17.0371 25.35C17.5315 24.3941 18.2477 23.5719 19.1251 22.9528V17.6305C19.2256 12.9202 21.1585 8.43678 24.5098 5.14117C27.8611 1.84557 32.3639 0 37.0534 0C41.7428 0 46.2457 1.84557 49.597 5.14117C52.9482 8.43678 54.8812 12.9202 54.9816 17.6305V22.9528C55.8591 23.5719 56.5753 24.3941 57.0697 25.35C57.5641 26.3058 57.8222 27.3672 57.8222 28.4445C57.8222 29.5217 57.5641 30.5831 57.0697 31.5389C56.5753 32.4948 55.8591 33.317 54.9816 33.9361V49.3492C55.4171 49.6307 55.8057 49.9794 56.1333 50.3823C56.8807 49.4704 57.9125 48.8385 59.0617 48.5889L72.7495 45.5145C72.8989 45.4784 73.0547 45.4774 73.2045 45.5118C73.3544 45.5462 73.4943 45.6151 73.6132 45.7129V45.6964ZM57.1615 53.0434H57.9841L71.894 49.8285V47.812L59.5141 50.6054C58.9126 50.705 58.3595 50.9982 57.9382 51.4408C57.5168 51.8835 57.25 52.4517 57.1779 53.0599L57.1615 53.0434ZM45.0777 71.9606L39.0646 70.5721C38.833 70.5247 38.6248 70.3985 38.475 70.2148C38.3252 70.0312 38.2429 69.8013 38.242 69.5639V57.6549H34.4417L37.5757 71.9606H45.0777ZM44.3292 23.4982C43.4218 23.6111 42.5654 23.9819 41.8605 24.5668C41.1556 25.1518 40.6314 25.9267 40.3497 26.8005C40.0679 27.6744 40.0402 28.6109 40.2697 29.5C40.4993 30.3891 40.9767 31.1939 41.6457 31.82C42.3148 32.446 43.1478 32.8672 44.0469 33.0341C44.9459 33.201 45.8737 33.1066 46.7213 32.7622C47.5688 32.4177 48.3009 31.8374 48.8316 31.0894C49.3623 30.3414 49.6695 29.4568 49.7171 28.5395V27.9527C49.6574 26.9792 49.3056 26.0467 48.708 25.2781C48.1103 24.5094 47.2949 23.9408 46.3692 23.647C45.6535 23.6305 44.9708 23.5809 44.3292 23.4982ZM40.7098 22.8536C36.1526 21.7462 33.981 19.8702 32.961 18.4074C31.9328 19.6185 30.6921 20.6297 29.3005 21.3908C30.9192 21.4229 32.4746 22.0284 33.6921 23.1004C34.9097 24.1725 35.7112 25.6423 35.9552 27.2503H38.1515C38.4143 25.5103 39.3296 23.9373 40.7098 22.8536ZM24.3897 28.5395C24.4656 29.7918 25.0239 30.9652 25.9463 31.811C26.8686 32.6568 28.0826 33.1084 29.3308 33.0703C30.579 33.0321 31.7633 32.5071 32.6328 31.6066C33.5023 30.7061 33.9886 29.5007 33.9886 28.2461C33.9886 26.9915 33.5023 25.7862 32.6328 24.8856C31.7633 23.9851 30.579 23.4601 29.3308 23.4219C28.0826 23.3838 26.8686 23.8355 25.9463 24.6812C25.0239 25.527 24.4656 26.7004 24.3897 27.9527V28.5395ZM24.3897 33.1923C24.4738 36.504 25.8423 39.6517 28.2034 41.9641C30.5645 44.2765 33.7314 45.5707 37.0287 45.5707C40.326 45.5707 43.4929 44.2765 45.854 41.9641C48.2151 39.6517 49.5836 36.504 49.6677 33.1923C48.7646 34.0674 47.6395 34.6763 46.4152 34.9523C45.191 35.2283 43.9148 35.1609 42.7261 34.7574C41.5374 34.3539 40.482 33.6299 39.6752 32.6644C38.8684 31.699 38.3413 30.5294 38.1515 29.2833H35.9552C35.7654 30.5294 35.2383 31.699 34.4316 32.6644C33.6248 33.6299 32.5694 34.3539 31.3807 34.7574C30.192 35.1609 28.9158 35.2283 27.6915 34.9523C26.4673 34.6763 25.3421 34.0674 24.439 33.1923H24.3897ZM52.7278 50.5475L40.3067 47.812V49.8451L54.2166 53.0599H55.0392C54.9941 52.6006 54.8308 52.1611 54.5654 51.7844C54.3001 51.4076 53.9417 51.1067 53.5257 50.9112H53.4681C53.2404 50.7852 53.0006 50.6828 52.7524 50.6054L52.7278 50.5475ZM40.3067 68.7457L53.0732 71.6961V54.9194L40.3067 51.9608V68.7457ZM32.7307 46.903V49.7624L33.9975 55.5475H38.2749V47.4484C37.8389 47.5476 37.4606 47.5476 37.0164 47.5476C35.564 47.5464 34.1198 47.3291 32.7307 46.903ZM52.9252 34.9196C52.4792 35.0455 52.0217 35.1258 51.5597 35.1593C51.1607 37.5841 50.1676 39.8712 48.6699 41.8145C47.1722 43.7577 45.2169 45.2962 42.9801 46.2914L52.9252 48.5228V34.9196ZM55.7631 28.4486C55.7608 27.3257 55.3564 26.241 54.624 25.3928C53.8915 24.5446 52.8798 23.9895 51.7736 23.8288V28.2585C51.7736 28.2585 51.7736 28.4486 51.7736 28.5478V33.0353C52.8742 32.8755 53.8815 32.3251 54.6133 31.4838C55.3451 30.6425 55.7529 29.5658 55.7631 28.4486ZM21.2145 21.9693C21.8029 21.7998 22.412 21.7135 23.0242 21.7131C23.0679 21.7085 23.112 21.7085 23.1558 21.7131C23.4108 21.647 30.5591 19.7214 32.2042 15.8206C32.2921 15.612 32.4457 15.4383 32.6414 15.326C32.8372 15.2137 33.0642 15.1692 33.2877 15.1992C33.5111 15.2293 33.7185 15.3322 33.8779 15.4923C34.0374 15.6524 34.1401 15.8606 34.1702 16.0851C34.1702 16.0851 34.9928 20.2173 44.3703 21.3908H45.0037C45.6178 21.3933 46.229 21.4766 46.8216 21.6387C48.0308 21.7131 49.3552 21.7379 50.8029 21.7131C50.8686 21.7091 50.9346 21.7091 51.0003 21.7131C51.0633 21.7092 51.1265 21.7092 51.1895 21.7131C51.8017 21.7135 52.4108 21.7998 52.9992 21.9693V17.6305C52.9048 13.4642 51.1911 9.50045 48.2249 6.58738C45.2586 3.67432 41.2754 2.0433 37.1274 2.0433C32.9794 2.0433 28.9962 3.67432 26.0299 6.58738C23.0637 9.50045 21.35 13.4642 21.2556 17.6305L21.2145 21.9693ZM18.3437 28.4486C18.3468 29.573 18.7537 30.6586 19.4897 31.5058C20.2256 32.353 21.2412 32.9049 22.3497 33.0601C22.3497 32.9609 22.3497 32.8618 22.3497 32.7626V28.5395C22.3497 28.4403 22.3497 28.3494 22.3497 28.2502C22.3497 28.1511 22.3497 28.0519 22.3497 27.9527V23.8205C21.2383 23.9762 20.2206 24.5305 19.4843 25.3811C18.748 26.2317 18.3428 27.3213 18.3437 28.4486ZM21.1816 49.374C22.431 49.0686 23.7125 48.9159 24.9984 48.9195H30.6742V46.0765C28.5476 45.0425 26.6994 43.5104 25.2851 41.6091C23.8708 39.7078 22.9317 37.4929 22.5471 35.151C22.085 35.1183 21.6274 35.038 21.1816 34.9113V49.374ZM7.14827 44.2914C7.84657 44.3124 8.54196 44.1925 9.1933 43.9387C9.84464 43.6849 10.4387 43.3024 10.9403 42.8139C11.4419 42.3253 11.8409 41.7407 12.1136 41.0945C12.3863 40.4483 12.5272 39.7537 12.528 39.0518V37.8535H7.46085C7.2296 37.8535 7.00782 37.9458 6.8443 38.11C6.68078 38.2743 6.58891 38.4971 6.58891 38.7295C6.58891 38.9618 6.68078 39.1846 6.8443 39.3489C7.00782 39.5132 7.2296 39.6055 7.46085 39.6055H8.98264C9.25534 39.6055 9.51688 39.7143 9.70971 39.9081C9.90254 40.1018 10.0109 40.3646 10.0109 40.6386C10.0109 40.9125 9.90254 41.1753 9.70971 41.369C9.51688 41.5628 9.25534 41.6716 8.98264 41.6716H7.46085C6.68562 41.6694 5.94288 41.3585 5.39547 40.807C4.84807 40.2554 4.54067 39.5084 4.54067 38.7295C4.54323 38.4489 4.5876 38.1704 4.67229 37.903H2.08937V38.7873C2.06752 40.182 2.58074 41.5316 3.52261 42.5564C4.46448 43.5811 5.76276 44.2024 7.14827 44.2914ZM10.4386 34.118C10.4325 34.7012 10.2706 35.272 9.96974 35.7708H12.5609V26.0602C12.5666 25.9047 12.5378 25.7499 12.4766 25.607C12.4155 25.464 12.3234 25.3365 12.2072 25.2337C12.0966 25.1332 11.9663 25.0569 11.8246 25.01C11.6829 24.963 11.533 24.9463 11.3846 24.961C11.1125 25.0122 10.8675 25.1594 10.6941 25.3762C10.5206 25.5929 10.43 25.8648 10.4386 26.1428V34.118ZM2.08937 33.2171V35.8204H5.93907C7.23876 35.8204 8.34925 35.0436 8.34925 34.118V32.5147H2.78857C2.60313 32.5147 2.42528 32.5887 2.29416 32.7204C2.16303 32.8522 2.08937 33.0308 2.08937 33.2171ZM18.7796 71.9606V59.1177C18.7796 58.8437 18.888 58.581 19.0808 58.3872C19.2736 58.1935 19.5352 58.0847 19.8079 58.0847C20.0806 58.0847 20.3421 58.1935 20.5349 58.3872C20.7278 58.581 20.8361 58.8437 20.8361 59.1177V71.9606H35.4699L30.8799 50.9856H24.9984C19.594 50.9856 15.3577 53.812 13.0627 58.9524C13.0352 58.9862 13.0104 59.0221 12.9886 59.0599V65.5722C12.9886 65.8462 12.8803 66.1089 12.6875 66.3027C12.4946 66.4964 12.2331 66.6052 11.9604 66.6052C11.6877 66.6052 11.4262 66.4964 11.2333 66.3027C11.0405 66.1089 10.9322 65.8462 10.9322 65.5722V45.3823C9.83122 46.0195 8.58333 46.3557 7.31279 46.3575H7.08246C5.8847 46.3234 4.71652 45.9759 3.69341 45.3493V68.9193C3.69341 69.7244 4.01121 70.4968 4.57712 71.0669C5.14304 71.637 5.91089 71.9584 6.7123 71.9606H18.7796ZM57.1204 71.9606V55.126H55.1133V58.5557C55.2277 58.7147 55.2909 58.9051 55.2942 59.1012V71.9606H57.1204ZM71.9434 51.9608L59.1768 54.9194V71.6961L71.9434 68.7457V51.9608Z" fill="#3C4DB7" stroke="white" stroke-width="0.6" mask="url(#path-1-inside-1_553_109)"/>
</svg>
