<svg width="18" height="18" viewBox="0 0 18 18" fill="none" xmlns="http://www.w3.org/2000/svg">
<path d="M11.151 9.25317C12.7643 8.45686 13.8771 6.79466 13.8771 4.87706C13.8771 2.18783 11.6892 0 9 0C6.31077 0 4.12294 2.18783 4.12294 4.87706C4.12294 6.79466 5.23571 8.45686 6.84898 9.25317C2.92175 10.1783 0 13.5777 0 17.618C0 17.8285 0.171022 17.9995 0.381546 17.9995H17.6185C17.829 17.9995 18 17.8285 18 17.618C18 13.5777 15.0783 10.1783 11.151 9.25317ZM4.88604 4.87661C4.88604 2.60798 6.73137 0.762643 9 0.762643C11.2686 0.762643 13.114 2.60798 13.114 4.87661C13.114 7.14524 11.2686 8.99057 9 8.99057C6.73137 8.99057 4.88604 7.14524 4.88604 4.87661ZM0.772519 17.2365C0.982145 13.0839 4.59202 9.76668 9 9.76668C13.408 9.76668 17.0179 13.0839 17.2275 17.2365H0.772519Z" fill="white"/>
</svg>
