<svg width="36" height="36" viewBox="0 0 36 36" fill="none" xmlns="http://www.w3.org/2000/svg">
<g clip-path="url(#clip0_734_88)">
<path d="M0 36L2.48273 27C0.868992 24.2069 0 21.1035 0 17.8758C0 8.06899 8.06899 0 17.9379 0C27.8068 0 36 8.06899 36 17.8758C36 27.6827 27.8069 36 17.9379 36C14.8345 36 11.8552 35.0069 9.18619 33.5173L0 36Z" fill="#EDEDED"/>
<path d="M9.6828 30.2897L10.2414 30.6001C12.538 32.0276 15.207 32.8966 18.0001 32.8966C26.1311 32.8966 32.8966 26.1311 32.8966 17.8759C32.8966 9.62071 26.1311 3.10352 17.938 3.10352C9.74488 3.10352 3.10352 9.6828 3.10352 17.8759C3.10352 20.7311 3.91042 23.5242 5.40006 25.8828L5.77251 26.4414L4.34495 31.6552L9.6828 30.2897Z" fill="#55CD6C"/>
<path d="M13.1595 9.55867L11.9802 9.49658C11.6078 9.49658 11.2354 9.62075 10.9871 9.86903C10.4285 10.3656 9.49749 11.2966 9.24921 12.538C8.81475 14.4001 9.49749 16.6346 11.1113 18.869C12.7251 21.1035 15.8286 24.7035 21.2906 26.2552C23.0285 26.7518 24.394 26.4414 25.5113 25.7587C26.3803 25.2 26.9389 24.3311 27.1251 23.4L27.3113 22.531C27.3734 22.2828 27.2492 21.9724 27.0009 21.8483L23.0906 20.0483C22.8423 19.9241 22.5319 19.9862 22.3458 20.2345L20.794 22.2207C20.6699 22.3449 20.4837 22.4069 20.2975 22.3449C19.2423 21.9724 15.7044 20.4828 13.7802 16.7587C13.7181 16.5725 13.7181 16.3862 13.8423 16.2621L15.3319 14.5863C15.4561 14.4001 15.5181 14.1518 15.4561 13.9656L13.6561 9.93111C13.594 9.74486 13.4078 9.55867 13.1595 9.55867Z" fill="#FEFEFE"/>
</g>
<defs>
<clipPath id="clip0_734_88">
<rect width="36" height="36" fill="white"/>
</clipPath>
</defs>
</svg>
