<svg id="Capa_1" enable-background="new 0 0 512 512" height="512" viewBox="0 0 512 512" width="512" xmlns="http://www.w3.org/2000/svg"><circle cx="256" cy="225.404" fill="#fc8086" r="70.711"/><path d="m203.472 272.734c12.942 14.354 31.679 23.382 52.528 23.382s39.586-9.028 52.528-23.382v-47.329c0-28.964-23.564-52.528-52.528-52.528s-52.528 23.564-52.528 52.528z" fill="#fa4954"/><path d="m169.132 59.451c-2.747 0-5.394-1.515-6.709-4.138-1.858-3.702-.362-8.209 3.34-10.067 21.734-10.904 45.047-17.708 69.291-20.222 4.125-.435 7.806 2.567 8.233 6.687.428 4.12-2.566 7.806-6.687 8.233-22.434 2.326-44.004 8.621-64.111 18.709-1.079.541-2.226.798-3.357.798z" fill="#595959"/><path d="m342.868 59.451c-1.131 0-2.278-.256-3.357-.798-20.107-10.088-41.678-16.383-64.111-18.709-4.12-.427-7.114-4.113-6.687-8.233.428-4.12 4.122-7.113 8.233-6.687 24.244 2.514 47.557 9.318 69.291 20.222 3.702 1.857 5.198 6.365 3.34 10.067-1.315 2.623-3.962 4.138-6.709 4.138z" fill="#595959"/><path d="m256 3.75c-15.275 0-27.703 12.428-27.703 27.703 0 15.276 12.428 27.704 27.703 27.704s27.703-12.428 27.703-27.704c0-15.275-12.428-27.703-27.703-27.703z" fill="#fc8086"/><path d="m464.094 217.904h-99.836c-1.605-23.685-10.798-45.878-26.404-63.746l70.595-70.595c2.929-2.929 2.929-7.678 0-10.606-2.93-2.929-7.678-2.929-10.607 0l-70.594 70.594c-19.748-17.244-44.769-26.663-71.248-26.663-26.48 0-51.502 9.42-71.247 26.663l-70.594-70.594c-2.93-2.929-7.678-2.929-10.607 0s-2.929 7.678 0 10.606l70.595 70.595c-15.607 17.87-24.799 40.062-26.404 63.746h-99.837c-4.143 0-7.5 3.358-7.5 7.5s3.357 7.5 7.5 7.5h99.851c2.989 43.496 31.764 81.249 73.518 95.349 3.925 1.325 8.179-.782 9.505-4.706 1.325-3.925-.781-8.18-4.706-9.506-38.035-12.845-63.591-48.465-63.591-88.637 0-24.988 9.728-48.471 27.393-66.126 17.653-17.663 41.137-27.39 66.124-27.39s48.471 9.727 66.127 27.393c17.662 17.652 27.39 41.135 27.39 66.124 0 40.172-25.556 75.792-63.591 88.637-3.925 1.326-6.031 5.581-4.706 9.506 1.057 3.129 3.976 5.102 7.104 5.102.796 0 1.605-.127 2.4-.396 41.754-14.101 70.529-51.854 73.518-95.349h99.851c4.143 0 7.5-3.358 7.5-7.5s-3.357-7.501-7.499-7.501z" fill="#c7eefb"/><path d="m114.159 44.385c-5.232-5.232-12.189-8.114-19.59-8.114-7.399 0-14.356 2.882-19.589 8.114-10.801 10.801-10.801 28.376 0 39.178 5.401 5.401 12.495 8.101 19.59 8.101 7.094 0 14.188-2.7 19.589-8.101 10.801-10.801 10.801-28.376 0-39.178z" fill="#fbe77b"/><path d="m27.703 197.701c-15.275 0-27.703 12.428-27.703 27.703 0 15.276 12.428 27.704 27.703 27.704s27.703-12.428 27.703-27.704c0-15.275-12.427-27.703-27.703-27.703z" fill="#b9ea6a"/><path d="m484.297 197.701c-15.275 0-27.703 12.428-27.703 27.703 0 15.276 12.428 27.704 27.703 27.704s27.703-12.428 27.703-27.704c0-15.275-12.428-27.703-27.703-27.703z" fill="#b9ea6a"/><path d="m437.02 44.385c-5.232-5.232-12.189-8.114-19.589-8.114s-14.357 2.882-19.59 8.114c-10.801 10.801-10.801 28.376 0 39.178 5.401 5.401 12.495 8.101 19.589 8.101 7.095 0 14.188-2.7 19.59-8.101 10.8-10.801 10.8-28.376 0-39.178z" fill="#62d8f9"/><path d="m449.321 396.128c-17.562.336-31.695 14.677-31.695 32.319v-19.565c0-18.125-14.833-33.304-32.956-32.958-17.562.336-31.695 14.677-31.695 32.319v-29.666c0-18.125-14.833-33.304-32.956-32.958-17.562.336-31.695 14.677-31.695 32.319v-151.895c0-18.125-14.833-33.304-32.956-32.958-17.562.336-31.695 14.677-31.695 32.319v236.245l-37.277-37.277c-12.455-12.455-32.748-13.218-45.539-1.109-13.271 12.563-13.489 33.511-.651 46.348l36.097 35.744c1.872 1.854 4.401 2.894 7.036 2.894h288.935c5.523 0 10-4.477 10-10v-69.164c.002-18.125-14.831-33.304-32.953-32.957z" fill="#fcd0a3"/><g fill="#fba65c"><path d="m278.729 428.447c5.3 0 9.597-4.297 9.597-9.597v-193.446c0-13.173-7.889-24.517-19.193-29.547v222.993c-.001 5.301 4.296 9.597 9.596 9.597z"/><path d="m352.976 377.939v40.912c0 5.3-4.297 9.597-9.597 9.597h-1.01c-5.3 0-9.597-4.297-9.597-9.597v-70.893c11.839 4.798 20.204 16.415 20.204 29.981z"/><path d="m417.626 408.244v10.607c0 5.3-4.297 9.597-9.597 9.597h-1.01c-5.3 0-9.597-4.297-9.597-9.597v-40.588c11.84 4.798 20.204 16.414 20.204 29.981z"/><path d="m482.276 428.447v69.803c0 5.523-4.477 10-10 10h-10.203v-109.784c11.839 4.798 20.203 16.415 20.203 29.981z"/></g></svg>