<svg id="Capa_1" enable-background="new 0 0 512 512" height="512" viewBox="0 0 512 512" width="512" xmlns="http://www.w3.org/2000/svg"><g><g><g><path d="m461.853 145.767h-173.053s-23.972 40.943-23.972 93.349c0 39.005 26.42 52.821 39.932 57.337 4.179 1.397 8.797.021 11.459-3.49 7.409-9.773 26.239-29.201 59.106-29.649 32.868.448 51.699 19.876 59.107 29.649 2.662 3.511 7.28 4.887 11.459 3.49 13.512-4.515 39.932-18.331 39.932-57.337.001-52.405-23.97-93.349-23.97-93.349z" fill="#873f30"/><path d="m485.823 239.113c0 39.013-26.424 52.828-39.93 57.34-4.183 1.401-8.798.021-11.456-3.492-1.772-2.339-4.203-5.223-7.314-8.262 14.062-5.46 36.984-19.934 36.984-56.268 0-36.345-11.528-67.178-18.595-82.662h16.339s23.972 40.939 23.972 93.344z" fill="#6c3328"/></g><g><g><path d="m150.999 39.381c-76.647 0-107.594 37.51-107.594 86.503 0 38.158 22.604 55.123 22.604 55.123h169.98s22.604-16.965 22.604-55.123c0-48.993-30.947-86.503-107.594-86.503z" fill="#873f30"/><g><g><g><path d="m301.997 423.959v76.316h-291.997c-5.523 0-10-4.477-10-10v-66.316c0-63.336 45.73-115.978 105.964-126.733 11.796-2.112 20.624-12.002 21.603-23.931l2.668-32.482h41.527l2.668 32.482c.979 11.93 9.818 21.819 21.603 23.931 60.235 10.755 105.964 63.397 105.964 126.733z" fill="#7a6e79"/><path d="m301.874 418.272c-16.854 4.358-34.408-3.75-42.134-19.161-11.497 6.655-24.827 10.477-39.065 10.477-14.237 0-27.578-3.822-39.064-10.477-8.159 16.267-27.259 24.395-44.937 18.327-3.379-1.164-6.49-2.771-9.272-4.739-1.556-1.102-2.514-2.895-2.431-4.801.144-3.461.783-6.954 1.968-10.395 4.43-12.888 15.278-21.737 27.743-24.209-7.696-12.105-12.177-26.465-12.177-41.877 0-25.693 12.403-48.501 31.544-62.738l.381 4.615c.979 11.93 9.818 21.819 21.603 23.931 58.422 10.437 103.193 60.267 105.841 121.047z" fill="#685e67"/><path d="m301.996 423.957v76.314h-31.485v-76.314c0-63.33-45.731-115.973-105.971-126.733-11.781-2.104-20.617-11.998-21.603-23.935l-2.657-32.471h31.485l2.669 32.471c.974 11.938 9.81 21.831 21.603 23.935 60.228 10.76 105.959 63.403 105.959 126.733z" fill="#685e67"/><path d="m212.454 301.288c-12.154 21.351-35.127 35.753-61.455 35.753-26.327 0-49.301-14.402-61.455-35.753 5.338-1.695 10.82-3.066 16.422-4.063 11.793-2.104 20.617-11.998 21.603-23.935l2.669-32.471h41.523l2.669 32.471c.986 11.938 9.81 21.831 21.603 23.935 5.602.997 11.084 2.368 16.421 4.063z" fill="#f89f8e"/><path d="m177.253 283.228c-8.475 1.765-17.262 2.692-26.254 2.692s-17.779-.927-26.254-2.692c1.551-3.033 2.536-6.398 2.828-9.938l2.662-32.476h41.526l2.662 32.476c.294 3.54 1.28 6.905 2.83 9.938z" fill="#ea806f"/><path d="m212.458 301.288c-3.931 6.9-8.98 13.068-14.919 18.249-4.821-1.298-9.726-2.404-14.703-3.294-16.133-2.873-28.215-16.422-29.561-32.759l-3.51-42.665h22l2.669 32.471c.986 11.938 9.81 21.831 21.603 23.935 5.602.997 11.083 2.368 16.421 4.063z" fill="#ea806f"/><g><g><circle cx="53.333" cy="166.904" fill="#ea806f" r="27.151"/></g></g><path d="m150.996 267.36c-44.938 0-82.259-34.68-85.553-79.497l-1.869-25.438c-3.733-50.805 36.479-94.081 87.421-94.081 50.942 0 91.155 43.276 87.422 94.081l-1.869 25.438c-3.292 44.817-40.614 79.497-85.552 79.497z" fill="#fdb0a0"/></g><g><g><g><g><g fill="#873f30"><path d="m107.697 178.855c-4.268 0-7.726-3.459-7.726-7.726v-.144c0-4.267 3.459-7.726 7.726-7.726 4.268 0 7.726 3.459 7.726 7.726v.144c.001 4.267-3.458 7.726-7.726 7.726z"/><path d="m194.299 178.855c-4.268 0-7.726-3.459-7.726-7.726v-.144c0-4.267 3.459-7.726 7.726-7.726 4.268 0 7.726 3.459 7.726 7.726v.144c0 4.267-3.459 7.726-7.726 7.726z"/></g></g></g></g></g></g><g><path d="m150.997 225.935c-10.149 0-19.711-3.935-26.925-11.079-3.032-3.003-3.055-7.895-.053-10.927 3.004-3.032 7.895-3.054 10.927-.052 4.302 4.26 10.002 6.606 16.051 6.606s11.751-2.346 16.052-6.606c3.031-3.002 7.924-2.979 10.927.053s2.979 7.924-.053 10.927c-7.215 7.143-16.777 11.078-26.926 11.078z" fill="#fc9aa1"/></g></g><path d="m58.686 67.041s-6.624 58.512 91.013 58.512c95.094 0 112.496-38.729 108.334-84.15-.48-5.239-5.083-9.152-10.331-8.785-9.427.66-25.338-.022-43.672-8.214-34.369-15.357-125.087-30.381-145.344 42.637z" fill="#a34f41"/><path d="m149.696 125.557c-31.421 0-52.034-6.057-65.551-14.289 10.693 2.493 23.56 3.966 39.065 3.966 94.354 0 112.218-38.127 108.416-83.084 6.408.783 11.888.752 16.081.464 5.244-.361 9.849 3.554 10.322 8.787 4.162 45.421-13.237 84.156-108.333 84.156z" fill="#873f30"/></g><g><g><g><g><path d="m512 431.201v59.074c0 5.523-4.477 10-10 10h-263.338v-69.074c0-57.319 41.383-104.975 95.91-114.711 10.673-1.906 18.656-10.858 19.543-21.654l2.421-29.401h37.591l2.41 29.401c.886 10.796 8.88 19.749 19.553 21.654 54.517 9.736 95.91 57.392 95.91 114.711z" fill="#fb4a59"/><path d="m361.367 407.898c.082 1.906-.876 3.698-2.431 4.801-2.792 1.968-5.893 3.575-9.282 4.739-17.668 6.068-36.767-2.06-44.926-18.327-11.497 6.655-24.827 10.477-39.065 10.477-8.458 0-16.586-1.35-24.209-3.843 10.137-45.524 46.904-81.003 93.118-89.255 2.617-.464 5.068-1.35 7.294-2.596 1.288 5.635 1.968 11.497 1.968 17.523 0 15.411-4.481 29.772-12.177 41.877 12.465 2.472 23.313 11.322 27.743 24.209 1.174 3.442 1.812 6.934 1.967 10.395z" fill="#f82f40"/><path d="m511.997 431.198v59.072c0 5.523-4.477 10-10 10h-18.497v-69.072c0-57.321-41.391-104.969-95.916-114.707-10.663-1.904-18.661-10.859-19.553-21.664l-2.405-29.389h28.497l2.416 29.389c.881 10.805 8.879 19.76 19.553 21.664 54.514 9.739 95.905 57.387 95.905 114.707z" fill="#f82f40"/><path d="m430.953 320.169c-11.001 19.325-31.794 32.36-55.623 32.36s-44.623-13.035-55.623-32.36c4.831-1.534 9.793-2.775 14.863-3.678 10.674-1.904 18.661-10.859 19.553-21.664l2.416-29.389h37.583l2.416 29.389c.892 10.805 8.879 19.76 19.553 21.664 5.069.904 10.03 2.144 14.862 3.678z" fill="#fdb0a0"/><path d="m399.092 303.823c-7.671 1.598-15.624 2.436-23.763 2.436s-16.092-.839-23.763-2.436c1.403-2.745 2.295-5.791 2.56-8.995l2.41-29.394h37.586l2.41 29.394c.265 3.205 1.156 6.25 2.56 8.995z" fill="#f89f8e"/><path d="m430.956 320.169c-3.558 6.246-8.128 11.828-13.503 16.517-4.363-1.175-8.803-2.176-13.307-2.981-14.602-2.601-25.538-14.863-26.756-29.651l-3.177-38.616h19.912l2.416 29.389c.892 10.805 8.879 19.76 19.553 21.664 5.069.904 10.031 2.144 14.862 3.678z" fill="#f89f8e"/><g><g><circle cx="458.673" cy="191.315" fill="#fdb0a0" r="27.151"/></g></g><path d="m375.326 289.461c-40.674 0-74.454-31.389-77.434-71.953l-1.692-23.024c-3.379-45.984 33.018-85.153 79.126-85.153 46.108 0 82.505 39.169 79.126 85.153l-1.692 23.024c-2.98 40.564-36.76 71.953-77.434 71.953z" fill="#ffcec0"/></g><g><g><g><g><g fill="#873f30"><path d="m336.136 216.269c-4.268 0-7.726-3.459-7.726-7.726v-.13c0-4.267 3.459-7.726 7.726-7.726s7.726 3.459 7.726 7.726v.13c0 4.266-3.459 7.726-7.726 7.726z"/><path d="m414.52 216.269c-4.268 0-7.726-3.459-7.726-7.726v-.13c0-4.267 3.459-7.726 7.726-7.726s7.726 3.459 7.726 7.726v.13c0 4.266-3.458 7.726-7.726 7.726z"/></g></g></g></g></g></g><g><path d="m375.327 258.881c-9.379 0-18.217-3.637-24.885-10.24-3.032-3.003-3.056-7.895-.053-10.927s7.895-3.055 10.927-.053c3.756 3.719 8.731 5.767 14.012 5.767s10.258-2.048 14.013-5.767c3.031-3.002 7.924-2.98 10.927.053 3.003 3.032 2.979 7.924-.053 10.927-6.67 6.603-15.508 10.24-24.888 10.24z" fill="#fc9aa1"/></g></g></g><g><g><path d="m352.282 488.544c-6.752-37.659-36.419-67.367-74.061-74.172-8.491-1.535-14.92-8.531-15.626-17.131l-1.905-23.205h-29.674l-1.905 23.205c-.706 8.6-7.134 15.596-15.626 17.131-37.641 6.805-67.308 36.513-74.061 74.172-1.096 6.115 3.645 11.727 9.858 11.727h193.141c6.214 0 10.955-5.612 9.859-11.727z" fill="#31a7fb"/><path d="m255.528 414.339c41.568 7.424 73.457 42.763 75.591 85.932h11.307c6.263 0 10.946-5.685 9.833-11.848-6.806-37.665-36.54-67.352-74.227-74.084-8.426-1.503-14.739-8.572-15.435-17.101l-1.907-23.199h-22.495l1.898 23.199c.704 8.529 7.017 15.598 15.435 17.101z" fill="#1c96f9"/><path d="m289.761 417.242c-8.684 15.254-25.097 25.544-43.907 25.544s-35.224-10.29-43.907-25.544c3.814-1.211 7.73-2.19 11.733-2.903 8.426-1.503 14.73-8.572 15.435-17.101l1.907-23.199h29.667l1.907 23.199c.704 8.529 7.009 15.598 15.435 17.101 4 .713 7.916 1.692 11.73 2.903z" fill="#fdb0a0"/><g fill="#f89f8e"><path d="m265.663 406.136c-6.012 1.486-12.3 2.276-18.767 2.276-7.112 0-14-.953-20.554-2.731 1.546-2.499 2.517-5.377 2.774-8.443l1.907-23.199h29.667l1.907 23.199c.266 3.255 1.357 6.296 3.066 8.898z"/><path d="m289.764 417.242c-2.809 4.93-6.416 9.336-10.659 13.038-3.444-.928-6.949-1.718-10.504-2.353-11.527-2.053-20.159-11.733-21.121-23.405l-2.508-30.483h15.718l1.907 23.199c.704 8.529 7.009 15.598 15.435 17.101 4.002.713 7.918 1.692 11.732 2.903z"/></g></g><g><path d="m152.136 379.792c-1.18 3.437-1.82 6.93-1.969 10.389-.082 1.906.874 3.704 2.433 4.803 2.787 1.965 5.893 3.574 9.277 4.736 19.268 6.616 40.251-3.64 46.871-22.921 1.514-4.408 2.139-8.91 1.979-13.312-3.363-2.826-7.299-5.098-11.72-6.616-19.267-6.616-40.25 3.641-46.871 22.921z" fill="#873f30"/><path d="m208.744 376.796c-6.614 19.283-27.597 29.538-46.871 22.924-3.38-1.16-6.483-2.77-9.268-4.732-1.578-1.112-2.528-2.938-2.431-4.866l.002-.03c18.982 5.909 39.338-4.32 45.831-23.251 1.168-3.41 1.812-6.88 1.967-10.307.344.103.687.215 1.031.335 4.424 1.52 8.357 3.788 11.724 6.622.162 4.398-.465 8.899-1.985 13.305z" fill="#6c3328"/></g><g><path d="m339.605 379.792c1.18 3.437 1.82 6.93 1.969 10.389.082 1.906-.874 3.704-2.433 4.803-2.787 1.965-5.893 3.574-9.277 4.736-19.268 6.616-40.251-3.64-46.871-22.921-1.514-4.408-2.139-8.91-1.979-13.312 3.363-2.826 7.299-5.098 11.72-6.616 19.267-6.616 40.251 3.641 46.871 22.921z" fill="#873f30"/><path d="m339.605 379.796c1.178 3.43 1.818 6.924 1.97 10.381.084 1.908-.873 3.709-2.435 4.809-2.79 1.965-5.895 3.567-9.28 4.73-.712.244-1.421.467-2.139.661-.319-2.33-.869-4.665-1.66-6.969-6.377-18.572-26.064-28.764-44.722-23.582-.298-2.117-.402-4.249-.323-6.339 3.363-2.83 7.295-5.101 11.715-6.619 19.266-6.614 40.253 3.644 46.874 22.928z" fill="#6c3328"/></g><circle cx="245.871" cy="313.707" fill="#ffcec0" r="78.167"/><g fill="#fc9aa1"><circle cx="201.828" cy="333.249" r="8.927"/><circle cx="289.913" cy="333.249" r="8.927"/><path d="m245.87 363.704c-7.238 0-14.058-2.806-19.204-7.902-3.031-3.003-3.054-7.895-.052-10.927 3.003-3.031 7.894-3.055 10.928-.052 2.231 2.211 5.19 3.429 8.329 3.429 3.14 0 6.099-1.218 8.33-3.429 3.033-3.003 7.925-2.98 10.928.052 3.002 3.032 2.979 7.924-.052 10.927-5.147 5.095-11.967 7.902-19.207 7.902z"/></g><path d="m210.755 329.381c-4.268 0-7.726-3.408-7.726-7.675v-.103c0-4.267 3.459-7.726 7.726-7.726 4.268 0 7.726 3.459 7.726 7.726 0 4.268-3.459 7.778-7.726 7.778z" fill="#873f30"/><path d="m280.987 329.381c-4.268 0-7.726-3.408-7.726-7.675v-.103c0-4.267 3.459-7.726 7.726-7.726 4.268 0 7.726 3.459 7.726 7.726 0 4.268-3.458 7.778-7.726 7.778z" fill="#873f30"/><path d="m322.209 303.184c4.423-.441 7.781-4.206 7.717-8.65-.337-23.11-8.612-81.88-84.054-81.88-75.801 0-83.794 59.329-84.059 82.206-.049 4.197 2.938 7.829 7.072 8.552 14.725 2.573 51.811 5.42 99.779-17.256 0 0 25.442 19.83 53.545 17.028z" fill="#873f30"/><path d="m329.928 294.537c.06 4.44-3.298 8.203-7.722 8.649-6.218.618-12.308.129-18.02-1.005 2.723-1.477 4.526-4.38 4.483-7.644-.326-21.98-7.825-76.211-73.445-81.468 3.393-.266 6.94-.412 10.65-.412 75.439 0 83.71 58.767 84.054 81.88z" fill="#6c3328"/></g></g><g><path d="m434.656 101.944s39.857 12.437 35.878 65.944c-.36 4.844-4.002 8.781-8.805 9.504-12.933 1.947-38.598 1.899-53.772-24.342z" fill="#a34f41"/></g><path d="m434.656 101.944c-.583 31.953-22.833 62.838-57.625 75.501-33.071 12.037-68.045 4.178-89.446-17.329-2.104-2.114-3.245-5.034-2.999-8.006 2.497-30.295 24.259-58.891 57.4-70.953 34.79-12.664 71.688-3.307 92.67 20.787z" fill="#a34f41"/><path d="m434.654 101.945c-.577 31.956-22.829 62.841-57.628 75.502-28.969 10.539-59.39 5.821-80.869-9.962 21.284 7.479 46.554 6.16 69.486-5.604 31.009-15.916 48.975-46.461 48.12-76.501 7.942 4.264 15.04 9.838 20.891 16.565z" fill="#873f30"/><g><path d="m74.297 415.274v85h-15.453v-85c0-4.265 3.451-7.726 7.726-7.726 4.265 0 7.727 3.461 7.727 7.726z" fill="#554e55"/><path d="m453.156 415.274v85h-15.453v-85c0-4.265 3.462-7.726 7.726-7.726 4.276 0 7.727 3.461 7.727 7.726z" fill="#f82f40"/></g></g></g></svg>