<svg id="Layer_1" enable-background="new 0 0 133 133" height="512" viewBox="0 0 133 133" width="512" xmlns="http://www.w3.org/2000/svg"><g><g><g><g><g><path d="m130.4971008 8.0951405v66.3952332c0 2.9293747-2.3762665 5.3055801-5.3055878 5.3055801h-87.086399c-2.9293747 0-5.305584-2.3762054-5.305584-5.3055801v-66.3952332c0-2.9293761 2.3762093-5.3056302 5.305584-5.3056302h87.0863953c2.9293251 0 5.3055915 2.376254 5.3055915 5.3056302z" fill="#f0f0f2"/></g></g><g><path d="m130.4971008 13.2907352v-5.1955947c0-2.9293761-2.3762665-5.3056302-5.3055878-5.3056302h-87.086399c-2.9293747 0-5.305584 2.3762541-5.305584 5.3056302v5.1955948h97.6975708z" fill="#a9d075"/></g><g><g><path d="m105.0681534 8.0400276c0 1.4569845-1.184227 2.6412125-2.6411133 2.6412125s-2.6411209-1.1842279-2.6411209-2.6412125c0-1.4645925 1.1842346-2.6410217 2.6411209-2.6410217s2.6411133 1.1764293 2.6411133 2.6410217z" fill="#ffc863"/></g><g><path d="m113.7025604 8.0400276c0 1.4569845-1.184227 2.6412125-2.6411209 2.6412125-1.4568863 0-2.6411133-1.1842279-2.6411133-2.6412125 0-1.4645925 1.184227-2.6410217 2.6411133-2.6410217 1.4568939 0 2.6411209 1.1764293 2.6411209 2.6410217z" fill="#ffc863"/></g><g><path d="m122.3369598 8.0400276c0 1.4569845-1.184227 2.6412125-2.6411209 2.6412125-1.4568863 0-2.6411133-1.1842279-2.6411133-2.6412125 0-1.4645925 1.184227-2.6410217 2.6411133-2.6410217 1.4568939 0 2.6411209 1.1764293 2.6411209 2.6410217z" fill="#ffc863"/></g></g><g><path d="m81.7651443 8.040123c0 .5142241-.2103195.9738588-.5453186 1.3089085-.3350525.3271561-.8024826.5375242-1.3089066.5375242h-39.9515723c-1.0206032 0-1.8464355-.8258781-1.8464355-1.8464327 0-.5142241.2025719-.9738593.5375748-1.3089085.3349991-.3271556.802433-.5375247 1.3088608-.5375247h39.9515724c1.020645 0 1.854225.8258782 1.854225 1.8464332z" fill="#8dbd57"/></g></g><g><g><g><path d="m115.3487854 23.243454v66.3952255c0 2.9293823-2.3762589 5.3055878-5.3055878 5.3055878h-87.0863971c-2.9293766 0-5.305582-2.3762054-5.305582-5.3055878v-66.3952255c0-2.9293766 2.3762054-5.3056297 5.305582-5.3056297h87.0863953c2.9293308-.0000001 5.3055896 2.3762531 5.3055896 5.3056297z" fill="#d1ddeb"/></g></g><g><path d="m115.3487854 28.4390488v-5.1955948c0-2.9293766-2.3762589-5.3056297-5.3055878-5.3056297h-87.0863971c-2.9293766 0-5.305582 2.3762531-5.305582 5.3056297v5.1955948z" fill="#e4686a"/></g><g><g><path d="m89.9198456 23.1883411c0 1.4569836-1.184227 2.6412125-2.6411209 2.6412125-1.4568863 0-2.6411133-1.1842289-2.6411133-2.6412125 0-1.464592 1.184227-2.6410217 2.6411133-2.6410217 1.4568939 0 2.6411209 1.1764298 2.6411209 2.6410217z" fill="#ffc863"/></g><g><path d="m98.554245 23.1883411c0 1.4569836-1.184227 2.6412125-2.6411209 2.6412125-1.4568863 0-2.6411133-1.1842289-2.6411133-2.6412125 0-1.464592 1.184227-2.6410217 2.6411133-2.6410217 1.4568939 0 2.6411209 1.1764298 2.6411209 2.6410217z" fill="#ffc863"/></g><g><path d="m107.1886444 23.1883411c0 1.4569836-1.184227 2.6412125-2.6411133 2.6412125-1.4568939 0-2.6411209-1.1842289-2.6411209-2.6412125 0-1.464592 1.184227-2.6410217 2.6411209-2.6410217 1.4568863 0 2.6411133 1.1764298 2.6411133 2.6410217z" fill="#ffc863"/></g></g><g><path d="m66.6168365 23.1884365c0 .5142231-.2103195.9738579-.5453262 1.3089085-.3350449.3271561-.8024826.5375252-1.3089066.5375252h-39.9515724c-1.0206013 0-1.8464317-.8258801-1.8464317-1.8464336 0-.514225.20257-.9738598.537571-1.3089085.3350029-.3271561.8024349-.5375252 1.3088608-.5375252h39.9515724c1.0206527 0 1.8542327.8258781 1.8542327 1.8464336z" fill="#d8524f"/></g></g><g><g><g><path d="m100.20047 38.3917656v66.3952332c0 2.9293747-2.3762589 5.3055801-5.3055801 5.3055801h-87.0864025c-2.9293761 0-5.3055825-2.3762054-5.3055825-5.3055801v-66.3952332c0-2.9293747 2.3762064-5.3056297 5.3055825-5.3056297h87.0864029c2.9293208 0 5.3055797 2.376255 5.3055797 5.3056297z" fill="#f0f0f2"/></g></g><g><path d="m100.20047 43.5873604v-5.1955948c0-2.9293747-2.3762589-5.3056297-5.3055801-5.3056297h-87.0864025c-2.9293761 0-5.3055825 2.376255-5.3055825 5.3056297v5.1955948z" fill="#b281ae"/></g><g><g><path d="m74.7715302 38.3366547c0 1.4569855-1.184227 2.6412125-2.6411133 2.6412125-1.4568939 0-2.6411209-1.184227-2.6411209-2.6412125 0-1.464592 1.184227-2.6410217 2.6411209-2.6410217 1.4568863-.0000001 2.6411133 1.1764297 2.6411133 2.6410217z" fill="#ffc863"/></g><g><path d="m83.4059296 38.3366547c0 1.4569855-1.184227 2.6412125-2.6411133 2.6412125-1.4568939 0-2.6411209-1.184227-2.6411209-2.6412125 0-1.464592 1.184227-2.6410217 2.6411209-2.6410217 1.4568863-.0000001 2.6411133 1.1764297 2.6411133 2.6410217z" fill="#ffc863"/></g><g><path d="m92.040329 38.3366547c0 1.4569855-1.184227 2.6412125-2.6411133 2.6412125-1.4568939 0-2.6411209-1.184227-2.6411209-2.6412125 0-1.464592 1.184227-2.6410217 2.6411209-2.6410217 1.4568863-.0000001 2.6411133 1.1764297 2.6411133 2.6410217z" fill="#ffc863"/></g></g><g><path d="m51.4685211 38.33675c0 .514225-.2103195.9738579-.5453224 1.3089066-.3350487.3271561-.8024826.5375252-1.3089104.5375252h-39.9515695c-1.0206022 0-1.8464332-.8258781-1.8464332-1.8464317 0-.514225.2025704-.9738617.5375724-1.3089104.3350019-.3271561.8024349-.5375252 1.3088608-.5375252h39.9515686c1.0206537 0 1.8542337.8258781 1.8542337 1.8464355z" fill="#8f5387"/></g></g></g><g><g><path d="m49.1425896 68.8151779c0 11.412117-9.2296219 20.6416168-20.6209335 20.6416168-3.9285469 0-7.5871048-1.0600433-10.6843681-2.9933548h-.0208073l.4572563-.7691193 4.3860569-7.4417038h.0205536c1.7046871 1.0808487 3.7001724 1.683754 5.8205013 1.683754 6.1321049 0 11.1213207-4.9681549 11.1213207-11.1003876s-4.9892159-11.1210709-11.1213207-11.1210709h-.083231l.2913036-9.5413513c5.0511341.0624237 9.6658192 1.9123802 13.2411442 5.0097733.5612946.4780617 1.0809746.9769325 1.5798454 1.4966125.3534698.3949585.7069435.7899208 1.0393562 1.2056885.3326645.3949623.665329.8314095.9563789 1.2679863.145401.2078209.3118591.436573.436451.6652031.1453972.2286263.29105.4572563.4158936.6860123.269989.4572563.51968.935318.7480545 1.4135094l.2496872.5404854c.0208092.0414886.0416145.1039085.0624237.1662064.1662064.3741531.3116035.7484322.4572563 1.1433945.1245918.3117294.2286263.6235886.3324127.9561272.1040344.3118553.1872673.6443939.2704964.9770622.1037827.3949585.1867599.789917.269989 1.1848831.1248436.6027756.2080727 1.2055588.2702408 1.8291473.0624237.6860122.1040383 1.3928299.1040383 2.0995254z" fill="#6dbcf7"/></g><g><path d="m22.6597939 78.2526169-4.3652496 7.4417038h-.0208073l-.4364491.7691193h-.0208073c-5.9661522-3.6169434-9.9363136-10.1440125-9.9363136-17.648262 0-2.785408.5612936-5.4670296 1.5798435-7.8782806l8.7513046 3.8247604c-.5196781 1.2473068-.7899208 2.640007-.7899208 4.0743256 0 3.9704131 2.0995198 7.4626387 5.2383996 9.4166335z" fill="#ffc863"/></g><g><path d="m28.7094002 48.1703491-.2928448 9.5437927c-2.2029018.0190811-4.2784595.6875801-6.0038567 1.8718185-.0254536-.0191193-.0254536 0-.0254536 0-1.8654442 1.2478523-3.3425293 3.0560226-4.176569 5.1761093l-8.7478743-3.8263664c1.6171341-3.9473763 4.4439611-7.2771606 8.0029783-9.5373802l.063652.1018906c-.0190811-.031826-.031826-.0700264-.0445728-.1018906 3.1769905-2.0628128 6.9651985-3.2279739 11.0399189-3.2279739z" fill="#a9d075"/></g></g><g><g><g><path d="m70.8576508 89.7822495v36.0259171h13.0065155v-36.0259171c0-1.075325-.871727-1.947052-1.947052-1.947052h-9.1124115c-1.0753251-.0000001-1.947052.8717269-1.947052 1.947052z" fill="#e4686a"/></g><g><path d="m53.9165726 83.0602951v42.7478714h13.0065231v-42.7478714c0-1.0753326-.871727-1.9470596-1.9470596-1.9470596h-9.1124077c-1.0753288 0-1.9470558.871727-1.9470558 1.9470596z" fill="#ffc863"/></g><g><path d="m87.7987213 96.9545288v28.8536377h13.0065231v-28.8536377c0-1.0753326-.871727-1.9470596-1.9470596-1.9470596h-9.1124039c-1.0753326 0-1.9470596.871727-1.9470596 1.9470596z" fill="#a9d075"/></g><g><path d="m104.7397995 104.3914795v21.416687h13.0065155v-21.416687c0-1.0753326-.871727-1.9470596-1.947052-1.9470596h-9.1124115c-1.075325 0-1.947052.871727-1.947052 1.9470596z" fill="#6dbcf7"/></g></g><g><path d="m47.4610825 127.8061218c0 .6652985.2684288 1.2722473.7002754 1.7041016.4318466.431839 1.0271149.7002716 1.6924133.7002716h71.9436646c1.3305893 0 2.4043655-1.0737762 2.4043655-2.4043732 0-.6652985-.268425-1.2604904-.7002716-1.6924133-.4435272-.4318466-1.0387955-.7002716-1.7040939-.7002716h-71.9436646c-1.3189087 0-2.3926887 1.0737762-2.3926887 2.3926849z" fill="#2c2c39"/></g></g><g><g><path d="m47.8613853 95.6280518c0 .9699707-.7800293 1.75-1.75 1.75h-35.2000131c-.9700317 0-1.75-.7800293-1.75-1.75 0-.960022.7799683-1.75 1.75-1.75h35.2000122c.9699716 0 1.7500009.789978 1.7500009 1.75z" fill="#606076"/></g><g><path d="m47.8613853 103.0423584c0 .9699707-.7800293 1.75-1.75 1.75h-35.2000131c-.9700317 0-1.75-.7800293-1.75-1.75 0-.960022.7799683-1.75 1.75-1.75h35.2000122c.9699716 0 1.7500009.789978 1.7500009 1.75z" fill="#606076"/></g></g><g><g><path d="m47.8613853 95.6280518c0 .9699707-.7800293 1.75-1.75 1.75h-35.2000131c-.9700317 0-1.75-.7800293-1.75-1.75 0-.960022.7799683-1.75 1.75-1.75h35.2000122c.9699716 0 1.7500009.789978 1.7500009 1.75z" fill="#606076"/></g><g><path d="m47.8613853 103.0423584c0 .9699707-.7800293 1.75-1.75 1.75h-35.2000131c-.9700317 0-1.75-.7800293-1.75-1.75 0-.960022.7799683-1.75 1.75-1.75h35.2000122c.9699716 0 1.7500009.789978 1.7500009 1.75z" fill="#606076"/></g></g><g><g><path d="m93.8638687 51.6910782c0 .9699707-.7800293 1.75-1.75 1.75h-35.2000122c-.9700317 0-1.75-.7800293-1.75-1.75 0-.960022.7799683-1.75 1.75-1.75h35.2000122c.9699707 0 1.75.789978 1.75 1.75z" fill="#606076"/></g><g><path d="m93.8638687 59.1053848c0 .9699707-.7800293 1.75-1.75 1.75h-35.2000122c-.9700317 0-1.75-.7800293-1.75-1.75 0-.960022.7799683-1.75 1.75-1.75h35.2000122c.9699707 0 1.75.7899781 1.75 1.75z" fill="#606076"/></g></g><g><g><path d="m93.8638687 66.8197327c0 .9699707-.7800293 1.75-1.75 1.75h-35.2000122c-.9700317 0-1.75-.7800293-1.75-1.75 0-.960022.7799683-1.75 1.75-1.75h35.2000122c.9699707 0 1.75.789978 1.75 1.75z" fill="#606076"/></g><g><path d="m93.8638687 74.2340393c0 .9699707-.7800293 1.75-1.75 1.75h-35.2000122c-.9700317 0-1.75-.7800293-1.75-1.75 0-.960022.7799683-1.75 1.75-1.75h35.2000122c.9699707 0 1.75.789978 1.75 1.75z" fill="#606076"/></g></g></g></svg>