<svg id="Capa_1" enable-background="new 0 0 512 512" height="512" viewBox="0 0 512 512" width="512" xmlns="http://www.w3.org/2000/svg"><g><g><path d="m434.942 15.453v481.095c0 8.534-6.918 15.453-15.453 15.453h-326.979c-8.534 0-15.453-6.918-15.453-15.453v-363.675l132.873-132.873h209.56c8.534 0 15.452 6.918 15.452 15.453z" fill="#eef4f5"/><path d="m434.942 15.453v481.095c0 8.53-6.923 15.453-15.453 15.453h-35.84c8.53 0 15.453-6.923 15.453-15.453v-481.095c0-8.53-6.922-15.453-15.452-15.453h35.84c8.53 0 15.452 6.923 15.452 15.453z" fill="#cbe5e7"/><path d="m77.058 132.873 132.872-132.873v117.42c0 8.534-6.918 15.453-15.453 15.453z" fill="#cbe5e7"/><path d="m209.93 0v117.42c0 8.53-6.923 15.453-15.453 15.453h-33.605c8.54 0 15.453-6.923 15.453-15.453v-83.815z" fill="#a9d3d8"/></g><g><g><g><g><g><g><path d="m184.784 207.035v38.282c0 2.998-2.431 5.429-5.429 5.429h-38.271c-3.008 0-5.439-2.431-5.439-5.429v-38.282c0-2.998 2.431-5.429 5.439-5.429h38.271c2.997 0 5.429 2.432 5.429 5.429z" fill="#27d1b3"/><path d="m184.79 207.044v38.268c0 3.008-2.435 5.433-5.433 5.433h-19.802c3.008 0 5.433-2.425 5.433-5.433v-38.268c0-3.008-2.425-5.442-5.433-5.442h19.802c2.998 0 5.433 2.434 5.433 5.442z" fill="#20b69f"/></g><path d="m184.784 207.035v5.501l-38.209 38.209h-5.491c-3.008 0-5.439-2.431-5.439-5.429v-5.501l38.22-38.209h5.491c2.996 0 5.428 2.432 5.428 5.429z" fill="#64e0c4"/></g></g></g><g><g><path d="m350.934 209.328h-137.377c-4.267 0-7.726-3.459-7.726-7.726s3.459-7.726 7.726-7.726h137.377c4.267 0 7.726 3.459 7.726 7.726s-3.459 7.726-7.726 7.726z" fill="#a9d3d8"/></g><g><g fill="#20b69f"><path d="m268.519 241.464h-28.178c-4.267 0-7.726-3.459-7.726-7.726s3.459-7.726 7.726-7.726h28.178c4.267 0 7.726 3.459 7.726 7.726s-3.459 7.726-7.726 7.726z"/><path d="m213.557 241.518c-4.267 0-7.726-3.459-7.726-7.726v-.107c0-4.267 3.459-7.726 7.726-7.726s7.726 3.459 7.726 7.726v.107c0 4.266-3.459 7.726-7.726 7.726z"/></g><g fill="#fc9744"><path d="m376.355 241.464h-28.178c-4.267 0-7.726-3.459-7.726-7.726s3.459-7.726 7.726-7.726h28.178c4.267 0 7.726 3.459 7.726 7.726s-3.459 7.726-7.726 7.726z"/><path d="m321.392 241.518c-4.267 0-7.726-3.459-7.726-7.726v-.107c0-4.267 3.459-7.726 7.726-7.726s7.726 3.459 7.726 7.726v.107c0 4.266-3.459 7.726-7.726 7.726z"/></g></g><g fill="#fc9744"><g><path d="m268.519 266.908h-28.178c-4.267 0-7.726-3.459-7.726-7.726s3.459-7.726 7.726-7.726h28.178c4.267 0 7.726 3.459 7.726 7.726s-3.459 7.726-7.726 7.726z"/><path d="m213.557 266.961c-4.267 0-7.726-3.459-7.726-7.726v-.107c0-4.267 3.459-7.726 7.726-7.726s7.726 3.459 7.726 7.726v.107c0 4.267-3.459 7.726-7.726 7.726z"/></g><g><path d="m376.355 266.908h-28.178c-4.267 0-7.726-3.459-7.726-7.726s3.459-7.726 7.726-7.726h28.178c4.267 0 7.726 3.459 7.726 7.726s-3.459 7.726-7.726 7.726z"/><path d="m321.392 266.961c-4.267 0-7.726-3.459-7.726-7.726v-.107c0-4.267 3.459-7.726 7.726-7.726s7.726 3.459 7.726 7.726v.107c0 4.267-3.459 7.726-7.726 7.726z"/></g></g></g></g><g><g><g><g><g><path d="m184.784 308.477v38.271c0 3.008-2.431 5.439-5.429 5.439h-38.271c-3.008 0-5.439-2.431-5.439-5.439v-38.271c0-2.998 2.431-5.439 5.439-5.439h38.271c2.997 0 5.429 2.442 5.429 5.439z" fill="#27d1b3"/><path d="m184.79 308.482v38.268c0 3.008-2.435 5.433-5.433 5.433h-19.802c3.008 0 5.433-2.425 5.433-5.433v-38.268c0-3.008-2.425-5.442-5.433-5.442h19.802c2.998 0 5.433 2.434 5.433 5.442z" fill="#20b69f"/></g><path d="m184.784 308.477v5.491l-38.22 38.22h-5.481c-3.008 0-5.439-2.431-5.439-5.439v-5.491l38.22-38.22h5.491c2.997 0 5.429 2.442 5.429 5.439z" fill="#64e0c4"/></g></g></g><g><g fill="#a9d3d8"><path d="m376.355 310.766h-103.715c-4.267 0-7.726-3.459-7.726-7.726s3.459-7.726 7.726-7.726h103.715c4.267 0 7.726 3.459 7.726 7.726s-3.459 7.726-7.726 7.726z"/><path d="m244.528 310.766h-30.971c-4.267 0-7.726-3.459-7.726-7.726s3.459-7.726 7.726-7.726h30.971c4.267 0 7.726 3.459 7.726 7.726s-3.459 7.726-7.726 7.726z"/></g><g><g fill="#fc9744"><path d="m268.519 342.902h-28.178c-4.267 0-7.726-3.459-7.726-7.726s3.459-7.726 7.726-7.726h28.178c4.267 0 7.726 3.459 7.726 7.726s-3.459 7.726-7.726 7.726z"/><path d="m213.557 342.955c-4.267 0-7.726-3.459-7.726-7.726v-.107c0-4.267 3.459-7.726 7.726-7.726s7.726 3.459 7.726 7.726v.107c0 4.267-3.459 7.726-7.726 7.726z"/></g><g fill="#20b69f"><path d="m376.355 342.902h-28.178c-4.267 0-7.726-3.459-7.726-7.726s3.459-7.726 7.726-7.726h28.178c4.267 0 7.726 3.459 7.726 7.726s-3.459 7.726-7.726 7.726z"/><path d="m321.392 342.955c-4.267 0-7.726-3.459-7.726-7.726v-.107c0-4.267 3.459-7.726 7.726-7.726s7.726 3.459 7.726 7.726v.107c0 4.267-3.459 7.726-7.726 7.726z"/></g></g><g fill="#fc9744"><g><path d="m268.519 368.346h-28.178c-4.267 0-7.726-3.459-7.726-7.726s3.459-7.726 7.726-7.726h28.178c4.267 0 7.726 3.459 7.726 7.726s-3.459 7.726-7.726 7.726z"/><path d="m213.557 368.399c-4.267 0-7.726-3.459-7.726-7.726v-.107c0-4.267 3.459-7.726 7.726-7.726s7.726 3.459 7.726 7.726v.107c0 4.267-3.459 7.726-7.726 7.726z"/></g><g><path d="m376.355 368.346h-28.178c-4.267 0-7.726-3.459-7.726-7.726s3.459-7.726 7.726-7.726h28.178c4.267 0 7.726 3.459 7.726 7.726s-3.459 7.726-7.726 7.726z"/><path d="m321.392 368.399c-4.267 0-7.726-3.459-7.726-7.726v-.107c0-4.267 3.459-7.726 7.726-7.726s7.726 3.459 7.726 7.726v.107c0 4.267-3.459 7.726-7.726 7.726z"/></g></g></g></g><g><g><g><g><g><path d="m184.784 409.919v38.271c0 2.998-2.431 5.429-5.429 5.429h-38.271c-3.008 0-5.439-2.431-5.439-5.429v-38.271c0-3.008 2.431-5.439 5.439-5.439h38.271c2.997 0 5.429 2.431 5.429 5.439z" fill="#27d1b3"/><path d="m184.79 409.92v38.268c0 3.008-2.435 5.433-5.433 5.433h-19.802c3.008 0 5.433-2.425 5.433-5.433v-38.268c0-3.008-2.425-5.442-5.433-5.442h19.802c2.998 0 5.433 2.434 5.433 5.442z" fill="#20b69f"/></g><path d="m184.784 409.919v5.491l-38.209 38.209h-5.491c-3.008 0-5.439-2.431-5.439-5.429v-5.501l38.22-38.209h5.491c2.996 0 5.428 2.431 5.428 5.439z" fill="#64e0c4"/></g></g></g><g><g><path d="m295.801 412.204h-82.244c-4.267 0-7.726-3.459-7.726-7.726s3.459-7.726 7.726-7.726h82.244c4.267 0 7.726 3.459 7.726 7.726.001 4.266-3.459 7.726-7.726 7.726z" fill="#a9d3d8"/></g><g fill="#fc9744"><g><path d="m268.519 444.34h-28.178c-4.267 0-7.726-3.459-7.726-7.726s3.459-7.726 7.726-7.726h28.178c4.267 0 7.726 3.459 7.726 7.726s-3.459 7.726-7.726 7.726z"/><path d="m213.557 444.393c-4.267 0-7.726-3.459-7.726-7.726v-.107c0-4.267 3.459-7.726 7.726-7.726s7.726 3.459 7.726 7.726v.107c0 4.267-3.459 7.726-7.726 7.726z"/></g><g><path d="m376.355 444.34h-28.178c-4.267 0-7.726-3.459-7.726-7.726s3.459-7.726 7.726-7.726h28.178c4.267 0 7.726 3.459 7.726 7.726s-3.459 7.726-7.726 7.726z"/><path d="m321.392 444.393c-4.267 0-7.726-3.459-7.726-7.726v-.107c0-4.267 3.459-7.726 7.726-7.726s7.726 3.459 7.726 7.726v.107c0 4.267-3.459 7.726-7.726 7.726z"/></g></g><g><g fill="#20b69f"><path d="m268.519 469.784h-28.178c-4.267 0-7.726-3.459-7.726-7.726s3.459-7.726 7.726-7.726h28.178c4.267 0 7.726 3.459 7.726 7.726s-3.459 7.726-7.726 7.726z"/><path d="m213.557 469.837c-4.267 0-7.726-3.459-7.726-7.726v-.107c0-4.267 3.459-7.726 7.726-7.726s7.726 3.459 7.726 7.726v.107c0 4.267-3.459 7.726-7.726 7.726z"/></g><g fill="#fc9744"><path d="m376.355 469.784h-28.178c-4.267 0-7.726-3.459-7.726-7.726s3.459-7.726 7.726-7.726h28.178c4.267 0 7.726 3.459 7.726 7.726s-3.459 7.726-7.726 7.726z"/><path d="m321.392 469.837c-4.267 0-7.726-3.459-7.726-7.726v-.107c0-4.267 3.459-7.726 7.726-7.726s7.726 3.459 7.726 7.726v.107c0 4.267-3.459 7.726-7.726 7.726z"/></g></g></g></g></g><g><path d="m388.671 86.999c-4.267 0-7.726 3.459-7.726 7.726 0 27.729-22.559 50.289-50.289 50.289s-50.289-22.56-50.289-50.289 22.56-50.289 50.289-50.289c4.267 0 7.726-3.459 7.726-7.726s-3.459-7.726-7.726-7.726c-36.25 0-65.742 29.491-65.742 65.741s29.492 65.742 65.742 65.742 65.741-29.492 65.741-65.742c0-4.266-3.459-7.726-7.726-7.726z" fill="#27d1b3"/><g fill="#20b69f"><path d="m332.333 54.549c-3.316-.237-6.411 1.676-7.686 4.746l-22.505 54.253c-1.635 3.941.235 8.462 4.177 10.097s8.462-.235 10.097-4.177l4.392-10.587h14.96l3.771 14.699c.895 3.489 4.035 5.808 7.478 5.808.635 0 1.282-.079 1.926-.244 4.133-1.06 6.624-5.27 5.564-9.404l-2.786-10.859h1.563c4.267 0 7.726-3.459 7.726-7.726s-3.459-7.726-7.726-7.726h-5.527l-8.489-33.093c-.826-3.22-3.619-5.551-6.935-5.787zm-5.115 38.88 2.834-6.831 1.752 6.831z"/><path d="m354.322 65.188h5.196v5.195c0 4.267 3.459 7.726 7.726 7.726s7.726-3.459 7.726-7.726v-5.195h5.196c4.267 0 7.726-3.459 7.726-7.726s-3.459-7.726-7.726-7.726h-5.196v-5.196c0-4.267-3.459-7.726-7.726-7.726s-7.726 3.459-7.726 7.726v5.196h-5.196c-4.267 0-7.726 3.459-7.726 7.726s3.459 7.726 7.726 7.726z"/></g></g></g></svg>