<svg width="66" height="64" viewBox="0 0 66 64" fill="none" xmlns="http://www.w3.org/2000/svg">
<path d="M64.3628 50.4968C64.1335 52.5887 62.4391 54.223 60.3394 54.37C60.1656 54.3824 59.9932 54.3946 59.8206 54.4057C58.5403 54.4926 57.545 55.5558 57.545 56.8393V61.6911C57.545 63.3232 55.6769 64.2494 54.3787 63.2609C52.0096 61.4563 48.8578 58.7721 46.9241 55.9887C46.4665 55.3296 45.7106 54.9456 44.9079 54.95C38.954 54.9801 33 54.7886 27.0461 54.37C25.3861 54.2542 23.9767 53.2111 23.3489 51.7438C23.1819 51.3586 23.0705 50.9422 23.0226 50.507C22.1409 42.4523 22.1409 34.3964 23.0226 26.3405C23.252 24.2508 24.9475 22.6242 27.0438 22.4773C35.9134 21.8549 44.782 21.7303 53.6506 22.1031C55.8794 22.1956 58.1095 22.3202 60.3382 22.4773C62.4357 22.6242 64.1323 24.2508 64.3617 26.3405C65.2435 34.3929 65.2435 42.4443 64.3628 50.4968Z" fill="#78D0B1"/>
<path d="M25.2945 26.1191C24.3915 34.3665 24.3915 42.6147 25.2945 50.8604C25.3434 51.3068 25.4576 51.7325 25.6284 52.1274C26.0653 53.1489 26.8722 53.9695 27.8783 54.4271C27.601 54.409 27.3238 54.3901 27.0464 54.3704C25.3864 54.2546 23.9768 53.2116 23.3494 51.7438C23.182 51.3584 23.0703 50.9421 23.0231 50.5069C22.1407 42.4527 22.1407 34.3966 23.0231 26.3406C23.2523 24.2513 24.9476 22.6246 27.0438 22.4779C27.4532 22.4496 27.8626 22.4213 28.273 22.3955C26.6765 22.9448 25.4859 24.3749 25.2945 26.1191Z" fill="#66B49D"/>
<path d="M38.8047 47.4888C38.8072 48.8016 40.5306 49.8644 41.8433 49.8644H52.0037C53.0601 49.8644 53.9165 49.008 53.9165 47.951C53.9165 47.4228 53.703 46.9439 53.3569 46.5978C53.0107 46.2518 52.5319 46.0375 52.0037 46.0375H52.6905C53.7469 46.0375 54.6039 45.1817 54.6039 44.1241C54.6039 43.5953 54.3905 43.1176 54.043 42.7709C53.6975 42.4248 53.2192 42.2113 52.6904 42.2113H53.3778C54.4212 42.2113 55.2697 41.3751 55.29 40.3361C55.3116 39.2624 54.4082 38.3844 53.3345 38.3844H52.6903C53.7466 38.3844 54.6037 37.5279 54.6037 36.4703C54.6037 35.9415 54.3902 35.4639 54.0428 35.1172C53.6972 34.771 53.2189 34.5575 52.6901 34.5575H47.3086C47.3009 34.5454 47.2985 34.5418 47.2909 34.5297L49.3895 30.0592C49.985 28.7918 49.4395 27.2818 48.1721 26.6865C47.8242 26.5229 47.4577 26.4458 47.0966 26.4458C46.1439 26.4458 45.2313 26.9852 44.7994 27.9045L43.9022 29.8161C43.3721 30.9447 42.5231 31.8987 41.4481 32.5293C40.7384 32.9452 40.1474 33.5795 39.7864 34.3915C39.5401 34.9456 39.4298 35.5294 39.4402 36.1025L38.8047 47.4888Z" fill="#FFDDCE"/>
<path d="M48.9592 27.2596C48.8729 27.2503 48.7865 27.246 48.7 27.246C47.7473 27.246 46.8347 27.7853 46.4028 28.7047L45.5056 30.6163C44.9755 31.7449 44.1265 32.6989 43.0515 33.3295C42.3419 33.7454 39.7891 34.3914 39.6948 39.2273C39.6874 39.6049 39.551 39.9536 39.4511 40.3015L39.4431 36.1025C39.4325 35.5293 39.543 34.9456 39.7893 34.3915C40.1502 33.5795 40.7413 32.9452 41.451 32.5293C42.5259 31.8986 43.375 30.9447 43.9051 29.8161L44.8023 27.9045C45.2342 26.985 46.1468 26.4458 47.0995 26.4458C47.4604 26.4458 47.8271 26.5229 48.175 26.6865C48.4803 26.8296 48.7438 27.0264 48.9592 27.2596Z" fill="#FFCBBE"/>
<path d="M53.9193 47.9508C53.9193 49.0078 53.0628 49.8642 52.0065 49.8642H41.5808C40.4774 49.8642 39.4545 49.3311 38.8213 48.4548H52.0063C52.814 48.4548 53.5045 47.9545 53.7853 47.2461C53.7859 47.2467 53.7859 47.248 53.7872 47.2485C53.7872 47.2485 53.7866 47.2491 53.7872 47.2491C53.8724 47.4664 53.9193 47.7034 53.9193 47.9508Z" fill="#FFCBBE"/>
<path d="M54.4714 43.4194C54.5578 43.6376 54.6058 43.8753 54.6058 44.124C54.6058 45.1815 53.7495 46.0378 52.6927 46.0378H51.9596C51.5703 46.0378 51.2549 45.7224 51.2549 45.3331C51.2549 44.9439 51.5703 44.6284 51.9596 44.6284H52.6927C53.5007 44.6286 54.1909 44.1278 54.4714 43.4194Z" fill="#FFCBBE"/>
<path d="M55.1609 39.5928C55.2472 39.811 55.2952 40.0487 55.2952 40.2973C55.2952 41.3548 54.4389 42.2112 53.3822 42.2112H52.649C52.2598 42.2112 51.9443 41.8957 51.9443 41.5065C51.9443 41.1172 52.2598 40.8018 52.649 40.8018H53.3822C54.19 40.8018 54.8803 40.301 55.1609 39.5928Z" fill="#FFCBBE"/>
<path d="M54.4714 35.7656C54.5578 35.9838 54.6058 36.2215 54.6058 36.4702C54.6058 37.5277 53.7495 38.384 52.6927 38.384H51.9596C51.5703 38.384 51.2549 38.0686 51.2549 37.6793C51.2549 37.2901 51.5703 36.9746 51.9596 36.9746H52.6927C53.5005 36.9747 54.1909 36.4739 54.4714 35.7656Z" fill="#FFCBBE"/>
<path d="M33.4893 36.1029V48.0352C33.4893 48.8627 34.1602 49.5336 34.9877 49.5336H37.9422C38.7697 49.5336 39.4406 48.8627 39.4406 48.0352V36.1029C39.4406 35.2754 38.7697 34.6045 37.9422 34.6045H34.9877C34.1602 34.6045 33.4893 35.2753 33.4893 36.1029Z" fill="#F1F4F6"/>
<path d="M43 50V53.7588C43 54.5863 43.6713 55.2569 44.4988 55.2569H47.4532C48.2807 55.2569 48.9513 54.5863 48.9513 53.7588V50C48.9513 50.8275 48.2807 51.4989 47.4532 51.4989H44.4988C43.6713 51.4988 43 50.8275 43 50Z" fill="#D0E2E7"/>
<path d="M0.634978 27.5041C0.855442 29.5156 2.48479 31.0872 4.5039 31.2285C4.6709 31.2403 4.83688 31.252 5.00273 31.2628C6.23383 31.3463 7.19087 32.3687 7.19087 33.603V38.2683C7.19087 39.8377 8.98722 40.7283 10.2355 39.7777C12.5135 38.0425 15.5441 35.4614 17.4037 32.7851C17.8438 32.1514 18.5706 31.782 19.3424 31.7863C25.0676 31.8153 30.7927 31.6311 36.5179 31.2285C38.114 31.1172 39.4693 30.1142 40.0732 28.7031C40.2337 28.3327 40.3408 27.9324 40.3869 27.5138C41.2347 19.7686 41.2347 12.0222 40.3869 4.2759C40.1663 2.26657 38.5359 0.702498 36.5201 0.561152C27.9911 -0.0371243 19.4633 -0.157008 10.9355 0.2015C8.79228 0.290397 6.64796 0.410281 4.50479 0.561152C2.48797 0.702498 0.856585 2.26657 0.635994 4.27602C-0.211829 12.0191 -0.211829 19.7611 0.634978 27.5041Z" fill="#F9DA41"/>
<path d="M2.82041 4.06319C1.95214 11.9937 1.95214 19.9249 2.82041 27.8538C2.86753 28.283 2.97725 28.6923 3.14146 29.072C3.56156 30.0542 4.3375 30.8434 5.30482 31.2833C5.03826 31.266 4.77157 31.2477 4.50501 31.2288C2.90867 31.1174 1.55338 30.1145 0.950022 28.7031C0.789118 28.3325 0.681807 27.9321 0.636343 27.5137C-0.212114 19.769 -0.212114 12.0225 0.636343 4.27603C0.85668 2.26696 2.48692 0.702886 4.50259 0.561667C4.89628 0.53449 5.29009 0.507186 5.68454 0.482422C4.14929 1.01085 3.00443 2.38596 2.82041 4.06319Z" fill="#EDC932"/>
<path d="M27.3925 15.3C28.5967 15.3 29.5762 13.6723 29.5762 11.6715C29.5762 9.67067 28.5967 8.04297 27.3925 8.04297C26.1885 8.04297 25.209 9.67067 25.209 11.6715C25.209 13.6723 26.1885 15.3 27.3925 15.3Z" fill="#21386B"/>
<path d="M13.6308 15.3C14.835 15.3 15.8145 13.6723 15.8145 11.6715C15.8145 9.67067 14.835 8.04297 13.6308 8.04297C12.4268 8.04297 11.4473 9.67067 11.4473 11.6715C11.4473 13.6723 12.4268 15.3 13.6308 15.3Z" fill="#21386B"/>
<path d="M28.0324 17.9673C27.5326 17.7571 26.9576 17.9909 26.747 18.4903C25.6867 21.0053 23.239 22.6303 20.5113 22.6303C17.7834 22.6303 15.3357 21.0053 14.2754 18.4903C14.065 17.9909 13.4892 17.7571 12.99 17.9673C12.4906 18.1779 12.2564 18.7533 12.467 19.2526C13.8347 22.4966 16.9922 24.5928 20.5111 24.5928C24.0299 24.5928 27.1874 22.4966 28.5552 19.2526C28.766 18.7533 28.5318 18.1779 28.0324 17.9673Z" fill="#21386B"/>
</svg>
