<svg width="54" height="53" viewBox="0 0 54 53" fill="none" xmlns="http://www.w3.org/2000/svg">
<path fill-rule="evenodd" clip-rule="evenodd" d="M29.9979 1.13726L33.381 3.66963C34.3063 4.3622 35.2802 4.71664 36.4342 4.7809L40.6534 5.0156C43.1799 5.15609 45.2319 6.87781 45.8089 9.3416L46.7728 13.4561C47.0364 14.5813 47.5546 15.4789 48.3973 16.2698L51.4787 19.1618C53.3237 20.8934 53.7887 23.5313 52.6473 25.7895L50.7409 29.5609C50.2196 30.5924 50.0396 31.613 50.1767 32.7605L50.6783 36.9566C50.9786 39.4691 49.6393 41.7887 47.3133 42.7849L43.4287 44.4486C42.3662 44.9036 41.5724 45.5697 40.9398 46.537L38.6268 50.0736C37.2419 52.1913 34.7249 53.1074 32.3028 52.3754L28.2577 51.1529C27.1514 50.8186 26.115 50.8186 25.0087 51.1529L20.9635 52.3754C18.5415 53.1074 16.0244 52.1913 14.6395 50.0736L12.3265 46.537C11.6939 45.5697 10.9 44.9036 9.83765 44.4486L5.95277 42.7847C3.62681 41.7885 2.28749 39.4689 2.58778 36.9564L3.08937 32.7603C3.22653 31.6128 3.04654 30.5922 2.52519 29.5607L0.618818 25.7893C-0.522633 23.5312 -0.0575521 20.8933 1.78746 19.1616L4.8688 16.2695C5.71152 15.4786 6.22964 14.5811 6.4932 13.4559L7.45709 9.34137C8.03415 6.8777 10.0861 5.15598 12.6126 5.01538L16.8318 4.78067C17.9858 4.71653 18.9597 4.36198 19.885 3.66941L23.2681 1.13704C25.2936 -0.37905 27.9723 -0.37905 29.9979 1.13726Z" fill="#FFE177"/>
<path fill-rule="evenodd" clip-rule="evenodd" d="M29.9997 1.13717L33.3827 3.66953C34.308 4.3621 35.2819 4.71655 36.4359 4.7808L40.6551 5.0155C43.1816 5.15599 45.2336 6.87771 45.8106 9.3415L46.7745 13.456C47.0381 14.5812 47.5563 15.4788 48.3991 16.2697L51.4804 19.1617C53.3254 20.8933 53.7905 23.5312 52.649 25.7895L50.7427 29.5608C50.2213 30.5923 50.0413 31.6129 50.1785 32.7604L50.6801 36.9565C50.9804 39.469 49.641 41.7886 47.3151 42.7848L43.4304 44.4485C42.368 44.9035 41.5741 45.5696 40.9416 46.5369L38.6286 50.0735C37.3483 52.0312 35.1007 52.9618 32.855 52.513C34.2776 52.2234 35.5574 51.3758 36.4092 50.0735L38.7221 46.5369C39.3547 45.5696 40.1486 44.9034 41.211 44.4485L45.0957 42.7848C47.4217 41.7886 48.7609 39.469 48.4606 36.9565L47.9591 32.7604C47.8219 31.6129 48.0019 30.5923 48.5232 29.5608L50.4296 25.7895C51.5711 23.5313 51.106 20.8934 49.261 19.1617L46.1796 16.2697C45.3369 15.4788 44.8188 14.5812 44.5551 13.456L43.5912 9.3415C43.0142 6.87782 40.9622 5.1561 38.4357 5.0155L34.2165 4.7808C33.0625 4.71666 32.0886 4.3621 31.1633 3.66953L27.7802 1.13717C27.0874 0.618597 26.3183 0.277471 25.5251 0.113566C27.0512 -0.201704 28.6668 0.139422 29.9997 1.13717ZM25.525 51.0202C25.3547 51.0562 25.1833 51.1003 25.0103 51.1526L20.9652 52.3751C20.0326 52.6569 19.086 52.6941 18.1953 52.5128C18.379 52.4761 18.5625 52.4303 18.7456 52.3751L22.7907 51.1526C23.7239 50.8706 24.6073 50.8265 25.525 51.0202Z" fill="#FFD064"/>
<path d="M38.8296 38.5156C45.5695 31.7758 45.5695 20.8483 38.8296 14.1084C32.0898 7.3685 21.1623 7.3685 14.4224 14.1084C7.6825 20.8483 7.6825 31.7758 14.4224 38.5156C21.1623 45.2555 32.0898 45.2555 38.8296 38.5156Z" fill="#FFD064"/>
<path fill-rule="evenodd" clip-rule="evenodd" d="M26.6341 9.05078C27.0071 9.05078 27.3768 9.06399 27.7438 9.08729C18.728 9.65957 11.5925 17.1518 11.5925 26.3119C11.5925 35.4721 18.7282 42.9643 27.7439 43.5366C27.3769 43.5599 27.0071 43.5731 26.6342 43.5731C17.1011 43.5731 9.37305 35.845 9.37305 26.3119C9.37294 16.7789 17.101 9.05078 26.6341 9.05078Z" fill="#FFC338"/>
<path fill-rule="evenodd" clip-rule="evenodd" d="M24.4753 27.7615L32.4648 19.6924C33.4105 18.7372 34.9534 18.7345 35.9058 19.6817C36.858 20.6286 36.861 22.1671 35.9163 23.1206C32.6765 26.3904 29.4586 29.6819 26.2038 32.9367C25.2522 33.8883 23.7088 33.8882 22.7572 32.9367L17.3572 27.5368C16.4057 26.5852 16.4057 25.0418 17.3572 24.0903C18.3087 23.1387 19.8523 23.1387 20.8038 24.0903L24.4753 27.7615Z" fill="#ECEFF1"/>
</svg>
