<svg width="49" height="49" viewBox="0 0 49 49" fill="none" xmlns="http://www.w3.org/2000/svg">
<path d="M47.1618 44.3013C47.1761 45.5151 47.4316 46.7075 47.9355 47.8787H22.0347C20.0118 47.8787 18.3721 46.2959 18.2798 44.3013C18.2656 44.2374 18.2656 44.1736 18.2656 44.1097C18.2656 44.0032 18.2727 43.8967 18.2798 43.7902C18.3508 42.8675 18.7554 42.0442 19.3658 41.4337C20.0472 40.7523 20.9913 40.3335 22.0347 40.3335H47.9355C47.4813 41.5047 47.2187 42.6617 47.1761 43.7902C47.1619 43.9606 47.1618 44.131 47.1618 44.3013Z" fill="#F9D5C7"/>
<path d="M47.9331 48.9407H22.0324C19.3668 48.9407 17.1982 46.7721 17.1982 44.1065C17.1982 42.8044 17.7029 41.5875 18.6192 40.6798C19.5197 39.7707 20.7344 39.2661 22.0324 39.2661H47.9331C48.5212 39.2661 48.9978 39.7427 48.9978 40.3308C48.9978 40.919 48.5212 41.3955 47.9331 41.3955H22.0324C21.307 41.3955 20.6298 41.6763 20.1252 42.1857C19.6084 42.6977 19.3277 43.3773 19.3277 44.1065C19.3277 45.5979 20.5411 46.8113 22.0324 46.8113H47.9331C48.5212 46.8113 48.9978 47.2878 48.9978 47.876C48.9978 48.4641 48.5212 48.9407 47.9331 48.9407Z" fill="#E4686A"/>
<path d="M19.0354 34.6006C19.0212 35.8144 18.7657 37.0069 18.2617 38.1781H44.1625C46.1855 38.1781 47.8251 36.5952 47.9174 34.6006C47.9316 34.5367 47.9316 34.4729 47.9316 34.409C47.9316 34.3025 47.9245 34.1961 47.9174 34.0896C47.8464 33.1668 47.4418 32.3435 46.8314 31.733C46.15 31.0516 45.2059 30.6328 44.1625 30.6328H18.2617C18.716 31.804 18.9786 32.961 19.0212 34.0896C19.0354 34.2599 19.0354 34.4303 19.0354 34.6006Z" fill="#F9D5C7"/>
<path d="M18.2649 39.24H44.1656C46.8311 39.24 48.9997 37.0714 48.9997 34.4058C48.9997 33.1037 48.4951 31.8869 47.5787 30.9792C46.6783 30.0701 45.4635 29.5654 44.1656 29.5654H18.2649C17.6768 29.5654 17.2002 30.042 17.2002 30.6301C17.2002 31.2183 17.6768 31.6948 18.2649 31.6948H44.1656C44.891 31.6948 45.5682 31.9756 46.0728 32.4851C46.5896 32.997 46.8703 33.6766 46.8703 34.4058C46.8703 35.8972 45.6569 37.1106 44.1656 37.1106H18.2649C17.6768 37.1106 17.2002 37.5871 17.2002 38.1753C17.2002 38.7634 17.6768 39.24 18.2649 39.24Z" fill="#A9D075"/>
<path d="M16.2322 13.3017V47.915C16.2322 48.4964 15.759 48.9696 15.1776 48.9696H10.1171C9.53569 48.9696 9.0625 48.4964 9.0625 47.915V13.3017C9.0625 12.7203 9.53569 12.2471 10.1171 12.2471H15.1776C15.759 12.2471 16.2322 12.7203 16.2322 13.3017Z" fill="#FFD67E"/>
<path d="M14.5598 30.6063C14.5598 35.5826 13.7017 39.6165 12.6471 39.6165C11.5885 39.6165 10.7344 35.5826 10.7344 30.6063C10.7344 25.6341 11.5885 21.6001 12.6471 21.6001C13.7017 21.6001 14.5598 25.6341 14.5598 30.6063Z" fill="#FFB749"/>
<path d="M9.0625 16.8823H16.2323V17.9608H9.0625V16.8823Z" fill="#FFB749"/>
<path d="M9.0625 43.2554H16.2323V44.3339H9.0625V43.2554Z" fill="#FFB749"/>
<path d="M9.00216 7.79244V47.9153C9.00216 48.4967 8.52902 48.9699 7.94761 48.9699H1.0546C0.473138 48.9699 0 48.4967 0 47.9153V7.79244C0 7.21098 0.473138 6.73779 1.0546 6.73779H7.94761C8.52902 6.73779 9.00216 7.21098 9.00216 7.79244Z" fill="#86CFF8"/>
<path d="M0 11.1406H9.00216V12.6365H0V11.1406Z" fill="#53AFF4"/>
<path d="M0 43.0669H9.00216V44.5624H0V43.0669Z" fill="#53AFF4"/>
<path d="M7.33604 17.2697V38.4339C7.33604 38.8068 7.0353 39.1075 6.66632 39.1075H2.3397C1.96676 39.1075 1.66602 38.8068 1.66602 38.4339V17.2697C1.66602 16.9008 1.96676 16.6001 2.3397 16.6001H6.66632C7.0353 16.6001 7.33604 16.9008 7.33604 17.2697Z" fill="#53AFF4"/>
<path d="M35.2822 29.5306C37.0136 29.6958 38.5383 29.4696 39.8431 28.7509C42.6372 26.8396 44.4129 24.3522 45.4437 21.4428C47.3033 16.1912 46.7721 12.3394 44.4285 9.54864C42.0959 6.92458 39.1533 5.80326 35.5111 6.40568C34.2772 6.60977 33.0144 6.60142 31.7806 6.39651C28.2784 5.81486 25.7464 6.9381 23.4258 9.54864C21.0822 12.3394 20.5509 16.1912 22.4106 21.4428C23.4413 24.3522 25.2171 26.8396 28.0112 28.7509C29.3173 29.4704 30.8668 29.6963 32.6095 29.5301C33.4996 29.4452 34.3921 29.4456 35.2822 29.5306Z" fill="#E4686A"/>
<path d="M35.5115 8.31606C35.5115 8.62274 34.9813 8.87826 34.2658 8.93578C34.1571 8.94853 34.0421 8.95492 33.9207 8.95492C33.8377 8.95492 33.7547 8.95492 33.678 8.94217C33.2933 8.92494 32.9604 8.83888 32.7196 8.72459C32.7195 8.72451 32.7197 8.72467 32.7196 8.72459C32.6877 8.7118 32.6622 8.6994 32.6367 8.68661C32.6111 8.66747 32.5855 8.65468 32.56 8.64189C32.5408 8.62274 32.5153 8.60995 32.4961 8.59077C32.4002 8.50775 32.3428 8.4183 32.3428 8.31606C32.3428 8.23301 32.3811 8.14995 32.4642 8.07329C32.4833 8.05415 32.5089 8.03496 32.528 8.01581C32.7261 7.86889 33.0583 7.76025 33.4544 7.71553C33.6013 7.69638 33.761 7.68359 33.9271 7.68359C34.0166 7.68359 34.106 7.68359 34.1891 7.69638C34.2082 7.68999 34.221 7.69638 34.2402 7.69638C34.3424 7.70278 34.4446 7.71553 34.5405 7.73471C34.6363 7.7475 34.7257 7.76665 34.8088 7.79219C34.8918 7.81137 34.9749 7.84331 35.0451 7.86889C35.1921 7.92636 35.3071 7.99024 35.3838 8.07329C35.4029 8.08608 35.4157 8.09887 35.4285 8.11802C35.4412 8.13081 35.454 8.14995 35.4604 8.16274C35.4732 8.18193 35.486 8.20107 35.4924 8.22026C35.4988 8.2394 35.5052 8.26498 35.5052 8.28413C35.5115 8.29692 35.5115 8.30331 35.5115 8.31606Z" fill="#D8524F"/>
<path d="M33.4737 6.11695C33.3078 6.11695 33.1677 5.98874 33.1555 5.8206C33.1487 5.72764 33.2718 3.64639 34.7214 3.36907C34.8932 3.33757 35.0617 3.44955 35.0951 3.62299C35.1281 3.79612 35.0146 3.96333 34.8411 3.9967C33.958 4.16547 33.7913 5.75727 33.7925 5.77443C33.8053 5.95037 33.673 6.10322 33.4971 6.11601C33.4893 6.11663 33.4815 6.11695 33.4737 6.11695Z" fill="#8DBD57"/>
<path d="M41.6162 0.380604C41.6162 0.380604 42.2326 0.56774 43.2147 0.422398C43.5542 0.372147 43.8297 0.702993 43.7167 1.02709C43.0518 2.93385 40.7686 7.51035 34.9029 3.99898C34.7185 3.88858 34.634 3.66295 34.7021 3.45909C35.0851 2.31313 36.6757 -1.14063 41.6162 0.380604Z" fill="#8DBD57"/>
<path d="M34.2658 8.93604C34.1572 8.94879 34.0422 8.95518 33.9208 8.95518C33.8377 8.95518 33.7547 8.95518 33.678 8.94243C33.6525 8.73799 33.6077 8.46328 33.5439 8.14385C33.5183 8.00968 33.4864 7.86275 33.4544 7.71579C33.1925 6.60417 32.7006 5.13479 31.7806 4.01679C31.6145 3.81874 31.557 3.54403 31.6528 3.30126C31.7678 3.00098 32.0425 2.84766 32.3109 2.84766C32.5728 2.84766 32.8347 2.98823 32.9625 3.27572C33.5694 4.66844 34.0102 6.13142 34.1891 7.69664C34.2019 7.81803 34.2147 7.93941 34.2211 8.0608C34.253 8.34829 34.2658 8.63575 34.2658 8.93604Z" fill="#F9C6B9"/>
</svg>
