<svg width="59" height="55" viewBox="0 0 59 55" fill="none" xmlns="http://www.w3.org/2000/svg">
<path d="M16.5742 0H58.9793V35.0303H16.5742V0Z" fill="#F4A261"/>
<path d="M44.0803 0H26.6078C26.3005 0 26.0058 0.122066 25.7886 0.339346C25.5713 0.556626 25.4492 0.85132 25.4492 1.1586C25.4492 1.46588 25.5713 1.76057 25.7886 1.97785C26.0058 2.19513 26.3005 2.3172 26.6078 2.3172H44.0576C44.3649 2.3172 44.6596 2.19513 44.8769 1.97785C45.0942 1.76057 45.2162 1.46588 45.2162 1.1586C45.2162 0.85132 45.0942 0.556626 44.8769 0.339346C44.6596 0.122066 44.3649 0 44.0576 0L44.0803 0Z" fill="#F4D49D"/>
<path d="M21.1836 2.76562H57.1358V29.4993H21.1836V2.76562Z" fill="#264653"/>
<path d="M25.1494 5.20601C24.8318 5.17375 24.5142 5.26626 24.2636 5.46397C24.013 5.66169 23.8492 5.94911 23.8067 6.26546V11.4777C23.8052 11.7107 23.8732 11.9389 24.002 12.133C24.1308 12.3272 24.3145 12.4786 24.5296 12.568C24.7448 12.6574 24.9817 12.6806 25.2102 12.6347C25.4386 12.5889 25.6482 12.476 25.8123 12.3106L30.9112 7.2116C31.0755 7.04714 31.1875 6.83776 31.2331 6.60981C31.2787 6.38186 31.2558 6.14552 31.1674 5.93053C31.079 5.71554 30.9289 5.5315 30.7362 5.40157C30.5434 5.27164 30.3165 5.20163 30.0841 5.20034L25.1494 5.20601Z" fill="#265A67"/>
<path d="M34.7921 7.36462L25.9312 16.1915C24.571 17.5558 23.807 19.4036 23.8066 21.3301V25.8002C23.8478 26.1176 24.0111 26.4064 24.2618 26.6053C24.5125 26.8042 24.831 26.8975 25.1494 26.8654H41.0638C42.0175 26.8658 42.962 26.6779 43.8428 26.3123C44.7237 25.9467 45.5237 25.4108 46.1968 24.7351L52.2476 18.6957C53.6092 17.33 54.3733 15.4799 54.3722 13.5514V5.20605H39.9251C38.9694 5.20929 38.0238 5.40169 37.1428 5.77217C36.2618 6.14265 35.4629 6.68387 34.7921 7.36462Z" fill="#265A67"/>
<path d="M53.0282 22.3902L49.9009 25.4949C49.7887 25.6054 49.7122 25.7469 49.6813 25.9013C49.6504 26.0557 49.6665 26.2158 49.7275 26.3609C49.7885 26.5061 49.8916 26.6296 50.0235 26.7156C50.1554 26.8016 50.31 26.846 50.4674 26.8433H53.5948C53.8007 26.8403 53.9973 26.7568 54.1423 26.6107C54.2874 26.4645 54.3695 26.2674 54.371 26.0614V22.9511C54.3714 22.7953 54.3257 22.6429 54.2396 22.5131C54.1534 22.3833 54.0307 22.282 53.887 22.222C53.7433 22.1619 53.585 22.1459 53.4321 22.1758C53.2792 22.2058 53.1387 22.2803 53.0282 22.3902Z" fill="#265A67"/>
<path d="M54.3693 29.7554H23.6055V31.9706H54.3693V29.7554Z" fill="#F4A261"/>
<path d="M45.4532 29.7554H34.3091C34.056 29.81 33.8291 29.9497 33.6665 30.1513C33.5038 30.3528 33.415 30.604 33.415 30.863C33.415 31.122 33.5038 31.3732 33.6665 31.5747C33.8291 31.7762 34.056 31.916 34.3091 31.9706H45.4532C45.7064 31.916 45.9332 31.7762 46.0959 31.5747C46.2586 31.3732 46.3473 31.122 46.3473 30.863C46.3473 30.604 46.2586 30.3528 46.0959 30.1513C45.9332 29.9497 45.7064 29.81 45.4532 29.7554Z" fill="#F4D49D"/>
<path d="M58.9794 32.2651H20.2617V35.0307H58.9794V32.2651Z" fill="#F47543"/>
<path d="M5.58611 32.5139C3.1386 30.5197 4.1414 27.194 4.42467 25.8116L4.89491 23.5454H8.86078V32.5139H5.58611Z" fill="#352D51"/>
<path d="M28.6947 15.6766V16.7757C28.696 20.3621 27.9533 23.9098 26.5135 27.1946L25.2558 30.3333L7.87393 30.186C5.2847 26.1971 3.93433 21.5309 3.99305 16.7757V15.6766C3.99305 13.3197 3.99305 1.60908 16.3382 1.61475C28.2472 1.61475 28.6947 13.3197 28.6947 15.6766Z" fill="#353C60"/>
<path d="M20.9111 4.839C17.924 3.62072 14.5785 3.62072 11.5914 4.839C11.3856 4.93042 11.2174 5.08948 11.1146 5.28976C11.0118 5.49003 10.9807 5.71945 11.0264 5.93988C11.072 6.16031 11.1918 6.35847 11.3657 6.50141C11.5396 6.64436 11.7572 6.72348 11.9823 6.72562H20.4806C20.7059 6.72661 20.9249 6.65079 21.1014 6.51067C21.2779 6.37055 21.4014 6.17448 21.4515 5.95477C21.5016 5.73507 21.4754 5.50484 21.3772 5.30202C21.279 5.0992 21.1146 4.93589 20.9111 4.839Z" fill="#355FA1"/>
<path d="M24.0479 21.3814C24.1485 24.4105 23.6717 27.4311 22.6429 30.2819L10.0541 30.1743C8.86998 27.1659 8.6377 24.5824 8.6377 21.3814C8.6377 19.5854 8.63769 10.6735 16.3428 10.6792C23.776 10.6792 24.0479 19.5854 24.0479 21.3814Z" fill="#352D51"/>
<path d="M10.2307 29.036C10.1185 29.037 10.0085 29.0047 9.91475 28.9432C9.82095 28.8817 9.74752 28.7937 9.70378 28.6904C9.15927 27.5082 8.69921 26.289 8.32705 25.0418C8.30548 24.9674 8.29877 24.8895 8.3073 24.8125C8.31584 24.7355 8.33946 24.6609 8.37682 24.5931C8.41417 24.5252 8.46452 24.4653 8.525 24.4169C8.58548 24.3685 8.65491 24.3325 8.72931 24.3109C8.80371 24.2894 8.88163 24.2827 8.95862 24.2912C9.03562 24.2997 9.11018 24.3234 9.17804 24.3607C9.24591 24.3981 9.30575 24.4484 9.35416 24.5089C9.40256 24.5694 9.43858 24.6388 9.46016 24.7132C9.80836 25.912 10.2381 27.0856 10.7462 28.2258C10.7875 28.3125 10.8061 28.4082 10.8002 28.504C10.7944 28.5999 10.7643 28.6926 10.7127 28.7736C10.6612 28.8546 10.5899 28.9212 10.5056 28.9671C10.4213 29.013 10.3267 29.0367 10.2307 29.036Z" fill="#355083"/>
<path d="M24.0473 8.90723V16.9636C24.0754 18.0092 23.8938 19.0498 23.5131 20.024C23.1324 20.9982 22.5604 21.8862 21.8308 22.6357C21.1012 23.3852 20.2289 23.9809 19.2653 24.3876C18.3017 24.7944 17.2663 25.004 16.2204 25.004C15.1744 25.004 14.1391 24.7944 13.1755 24.3876C12.2119 23.9809 11.3395 23.3852 10.6099 22.6357C9.88036 21.8862 9.30834 20.9982 8.92765 20.024C8.54697 19.0498 8.36533 18.0092 8.39346 16.9636V8.90723H24.0473Z" fill="#FFAAA0"/>
<path d="M22.5028 29.2117C22.4054 29.2154 22.3087 29.1938 22.222 29.1492C22.1354 29.1045 22.0617 29.0382 22.0082 28.9568C21.9546 28.8753 21.923 28.7814 21.9164 28.6841C21.9097 28.5869 21.9283 28.4895 21.9703 28.4016C22.2422 27.784 22.4349 27.3591 22.7068 26.6396C22.7319 26.567 22.7716 26.5002 22.8233 26.4434C22.875 26.3866 22.9378 26.3409 23.0078 26.3091C23.0777 26.2773 23.1534 26.2601 23.2302 26.2584C23.3071 26.2568 23.3834 26.2708 23.4546 26.2996C23.5258 26.3265 23.5907 26.3674 23.6457 26.4198C23.7007 26.4723 23.7446 26.5353 23.7747 26.6051C23.8048 26.6749 23.8206 26.75 23.8211 26.826C23.8216 26.902 23.8068 26.9773 23.7776 27.0475C23.4886 27.8123 23.2677 28.2996 23.0184 28.8661C22.9754 28.9676 22.9037 29.0544 22.8122 29.1158C22.7206 29.1772 22.6131 29.2105 22.5028 29.2117Z" fill="#355083"/>
<path d="M13.5379 8.46387C13.5379 11.6309 11.385 13.0586 8.22363 13.4212V8.46387H13.5379Z" fill="#353C60"/>
<path d="M20.0098 8.62793C20.0098 11.0981 21.7491 12.1745 24.2306 12.4522V8.62793H20.0098Z" fill="#353C60"/>
<path d="M6.94448 17.5637H8.39486V14.731H6.94448C6.59968 14.7747 6.28266 14.9426 6.05287 15.2034C5.82307 15.4642 5.69629 15.7998 5.69629 16.1473C5.69629 16.4949 5.82307 16.8305 6.05287 17.0913C6.28266 17.352 6.59968 17.52 6.94448 17.5637Z" fill="#FFAAA0"/>
<path d="M25.5039 14.731H24.0479V17.5637H25.5039C25.8487 17.52 26.1657 17.352 26.3955 17.0913C26.6253 16.8305 26.7521 16.4949 26.7521 16.1473C26.7521 15.7998 26.6253 15.4642 26.3955 15.2034C26.1657 14.9426 25.8487 14.7747 25.5039 14.731Z" fill="#FFAAA0"/>
<path d="M13.5421 17.4329C13.3919 17.4329 13.2478 17.3732 13.1415 17.267C13.0353 17.1607 12.9756 17.0166 12.9756 16.8664V16.4811C12.9756 16.3271 13.0368 16.1794 13.1457 16.0705C13.2546 15.9616 13.4023 15.9004 13.5563 15.9004C13.7103 15.9004 13.858 15.9616 13.9669 16.0705C14.0758 16.1794 14.137 16.3271 14.137 16.4811V16.8664C14.1371 16.9432 14.1216 17.0193 14.0913 17.0899C14.0611 17.1606 14.0168 17.2243 13.9612 17.2773C13.9055 17.3303 13.8397 17.3715 13.7677 17.3982C13.6956 17.4249 13.6189 17.4368 13.5421 17.4329Z" fill="#302D3D"/>
<path d="M13.8807 14.9734H12.13C11.9798 14.9734 11.8357 14.9137 11.7294 14.8075C11.6232 14.7012 11.5635 14.5571 11.5635 14.4069C11.5635 14.2566 11.6232 14.1125 11.7294 14.0063C11.8357 13.9 11.9798 13.8403 12.13 13.8403H13.8807C14.0309 13.8403 14.175 13.9 14.2813 14.0063C14.3875 14.1125 14.4472 14.2566 14.4472 14.4069C14.4472 14.5571 14.3875 14.7012 14.2813 14.8075C14.175 14.9137 14.0309 14.9734 13.8807 14.9734Z" fill="#302D3D"/>
<path d="M19.2472 17.4319C19.097 17.4319 18.9529 17.3722 18.8466 17.266C18.7404 17.1597 18.6807 17.0156 18.6807 16.8654V16.4801C18.6807 16.3299 18.7404 16.1858 18.8466 16.0795C18.9529 15.9733 19.097 15.9136 19.2472 15.9136C19.3975 15.9136 19.5416 15.9733 19.6478 16.0795C19.7541 16.1858 19.8138 16.3299 19.8138 16.4801V16.8654C19.8138 17.0156 19.7541 17.1597 19.6478 17.266C19.5416 17.3722 19.3975 17.4319 19.2472 17.4319Z" fill="#302D3D"/>
<path d="M20.8231 14.9734H19.0724C18.9222 14.9734 18.778 14.9137 18.6718 14.8075C18.5656 14.7012 18.5059 14.5571 18.5059 14.4069C18.5059 14.2566 18.5656 14.1125 18.6718 14.0063C18.778 13.9 18.9222 13.8403 19.0724 13.8403H20.8231C20.9733 13.8403 21.1174 13.9 21.2237 14.0063C21.3299 14.1125 21.3896 14.2566 21.3896 14.4069C21.3896 14.5571 21.3299 14.7012 21.2237 14.8075C21.1174 14.9137 20.9733 14.9734 20.8231 14.9734Z" fill="#302D3D"/>
<path d="M14.605 22.1859C14.4675 22.1183 14.3625 21.9988 14.3131 21.8538C14.2637 21.7088 14.2739 21.5501 14.3415 21.4126C14.4091 21.2751 14.5286 21.1701 14.6736 21.1207C14.8187 21.0713 14.9774 21.0815 15.1149 21.1491C15.4952 21.3363 15.9156 21.4275 16.3393 21.4146C16.763 21.4018 17.1771 21.2854 17.5454 21.0755C17.6105 21.0362 17.6829 21.0105 17.7582 20.9998C17.8335 20.9891 17.9101 20.9936 17.9836 21.0132C18.0571 21.0328 18.1259 21.0669 18.1859 21.1136C18.2459 21.1603 18.2959 21.2187 18.3329 21.2851C18.3755 21.3518 18.4036 21.4266 18.4155 21.5048C18.4274 21.583 18.4228 21.6629 18.402 21.7392C18.3812 21.8155 18.3447 21.8866 18.2947 21.9479C18.2447 22.0093 18.1825 22.0595 18.1119 22.0953C17.58 22.398 16.9816 22.5646 16.3698 22.5804C15.758 22.5962 15.1518 22.4607 14.605 22.1859Z" fill="#FF8282"/>
<path d="M18.7746 11.774C18.7457 11.8445 18.7028 11.9084 18.6485 11.962C18.5943 12.0155 18.5298 12.0576 18.4589 12.0856C18.388 12.1137 18.3122 12.1271 18.236 12.1251C18.1598 12.1232 18.0848 12.1059 18.0154 12.0743C17.3604 11.8293 16.7902 11.3999 16.374 10.8379C15.9577 10.2758 15.7132 9.60527 15.6699 8.90723H16.803C16.8432 9.38008 17.0207 9.8309 17.3136 10.2043C17.6065 10.5777 18.002 10.8574 18.4517 11.0091C18.5249 11.0358 18.5919 11.0772 18.6483 11.1309C18.7048 11.1846 18.7496 11.2494 18.7799 11.3212C18.8102 11.3929 18.8254 11.4702 18.8245 11.5481C18.8236 11.626 18.8066 11.7029 18.7746 11.774Z" fill="#353C60"/>
<path d="M41.1094 14.3784L42.9433 14.7922L38.8526 32.9216L37.0186 32.5078L41.1094 14.3784Z" fill="#F4894D"/>
<path d="M35.5656 6.35661L34.0813 7.84098C33.9723 7.94991 33.9111 8.09766 33.9111 8.25173C33.9111 8.40579 33.9723 8.55354 34.0813 8.66248C34.1902 8.77141 34.338 8.83261 34.492 8.83261C34.6461 8.83261 34.7938 8.77141 34.9028 8.66248L35.3957 8.16391V13.3819C35.3957 13.5321 35.4554 13.6762 35.5616 13.7825C35.6679 13.8887 35.812 13.9484 35.9622 13.9484C36.1125 13.9484 36.2566 13.8887 36.3628 13.7825C36.4691 13.6762 36.5288 13.5321 36.5288 13.3819V6.79852C36.5366 6.68377 36.5093 6.56935 36.4506 6.47047C36.3918 6.37159 36.3044 6.29294 36.1998 6.24497C36.0953 6.19701 35.9786 6.182 35.8653 6.20194C35.752 6.22188 35.6475 6.27583 35.5656 6.35661Z" fill="white"/>
<path d="M45.5733 6.35661L44.0889 7.84098C44.035 7.89454 43.9921 7.95821 43.9628 8.02835C43.9335 8.09848 43.9182 8.1737 43.918 8.24972C43.9177 8.32574 43.9324 8.40107 43.9613 8.47141C43.9901 8.54174 44.0325 8.6057 44.0861 8.65964C44.1397 8.71358 44.2033 8.75645 44.2735 8.78578C44.3436 8.81512 44.4188 8.83035 44.4949 8.83061C44.5709 8.83087 44.6462 8.81616 44.7165 8.78731C44.7869 8.75846 44.8508 8.71604 44.9048 8.66248L45.4033 8.16391V13.3819C45.4033 13.5321 45.463 13.6762 45.5693 13.7825C45.6755 13.8887 45.8196 13.9484 45.9699 13.9484C46.1202 13.9484 46.2643 13.8887 46.3705 13.7825C46.4768 13.6762 46.5364 13.5321 46.5364 13.3819V6.79852C46.5443 6.68377 46.517 6.56935 46.4582 6.47047C46.3995 6.37159 46.312 6.29294 46.2075 6.24497C46.1029 6.19701 45.9863 6.182 45.873 6.20194C45.7597 6.22188 45.6552 6.27583 45.5733 6.35661Z" fill="white"/>
<path d="M42.7116 9.49574H41.2272V8.01138C41.2272 7.86112 41.1675 7.71701 41.0613 7.61076C40.955 7.50451 40.8109 7.44482 40.6606 7.44482C40.5104 7.44482 40.3663 7.50451 40.26 7.61076C40.1538 7.71701 40.0941 7.86112 40.0941 8.01138V9.49574H38.5871C38.4368 9.49574 38.2927 9.55543 38.1864 9.66168C38.0802 9.76793 38.0205 9.91204 38.0205 10.0623C38.0205 10.2126 38.0802 10.3567 38.1864 10.4629C38.2927 10.5692 38.4368 10.6288 38.5871 10.6288H40.0714V12.1132C40.0714 12.2635 40.1311 12.4076 40.2374 12.5138C40.3436 12.6201 40.4877 12.6798 40.638 12.6798C40.7882 12.6798 40.9323 12.6201 41.0386 12.5138C41.1448 12.4076 41.2045 12.2635 41.2045 12.1132V10.6572H42.6889C42.8392 10.6572 42.9833 10.5975 43.0895 10.4912C43.1958 10.385 43.2555 10.2409 43.2555 10.0906C43.2555 9.94036 43.1958 9.79626 43.0895 9.69001C42.9833 9.58376 42.8392 9.52407 42.6889 9.52407L42.7116 9.49574Z" fill="white"/>
<path d="M38.5976 38.2814L31.799 49.7031C31.5591 50.1135 31.2405 50.4725 30.8615 50.7595C30.4825 51.0464 30.0505 51.2556 29.5904 51.3751C29.1303 51.4946 28.6511 51.5221 28.1803 51.4558C27.7096 51.3896 27.2566 51.231 26.8473 50.9892L27.1759 54.3885H14.1112C4.24752 49.2102 6.89331 50.6493 2.88212 48.3434C1.5785 47.5921 0.620835 46.3603 0.214207 44.9117C-0.19242 43.4631 -0.0156867 41.9129 0.706562 40.593C1.87366 38.457 4.57612 33.5224 6.24745 31.7604C6.98032 30.8996 7.82211 30.1378 8.75161 29.4942C10.1739 28.5607 11.8377 28.0626 13.539 28.0608C18.7399 28.0608 19.2838 28.0098 20.2809 28.1911C23.9522 28.7973 27.0173 31.9077 28.2637 35.426C28.9763 37.5666 29.5441 39.7528 29.9633 41.9697L34.0368 34.9841L38.5976 38.2814Z" fill="#F4D493"/>
<path d="M36.2406 36.5879L30.9376 45.2675C30.8145 45.4689 30.6358 45.6303 30.423 45.7325C30.2102 45.8346 29.9724 45.873 29.7383 45.8431C29.5042 45.8131 29.2837 45.7161 29.1035 45.5637C28.9232 45.4113 28.7909 45.2101 28.7224 44.9842L26.3712 37.1261C24.9775 32.4691 20.3488 29.7609 15.7484 29.7609C13.8901 29.7609 12.9949 29.693 11.6182 30.0895L10.6891 30.3558C10.2948 30.4682 9.87793 30.475 9.4802 30.3756C9.08247 30.2761 8.71785 30.074 8.42285 29.7893C9.91526 28.694 11.716 28.099 13.5671 28.0896C18.7681 28.0896 19.312 28.0386 20.3091 28.2199C23.9804 28.8261 27.0454 31.9365 28.2918 35.4548C28.994 37.5985 29.5616 39.784 29.9915 41.9985L34.065 35.0129L36.2406 36.5879Z" fill="#F4F7BB"/>
<path d="M20.2799 28.2083C20.2799 31.9872 18.7502 33.6698 17.3112 35.5055C17.1772 35.6784 17.0054 35.8183 16.809 35.9146C16.6126 36.0109 16.3968 36.061 16.1781 36.061C15.9593 36.061 15.7435 36.0109 15.5471 35.9146C15.3507 35.8183 15.1789 35.6784 15.045 35.5055L14.0705 34.2647C12.7182 32.5411 12.0126 30.3981 12.0762 28.2083C12.5816 28.1227 13.0934 28.081 13.6059 28.0836V28.4689C13.6072 28.6928 13.6631 28.913 13.7687 29.1105C13.8743 29.3079 14.0265 29.4767 14.2121 29.602L15.4472 30.4405C15.6762 30.5986 15.9479 30.6833 16.2262 30.6833C16.5045 30.6833 16.7762 30.5986 17.0052 30.4405L18.2063 29.6076C18.3846 29.4779 18.5291 29.3073 18.6277 29.1101C18.7263 28.9129 18.7761 28.695 18.7729 28.4745V28.0836C19.2779 28.082 19.782 28.1237 20.2799 28.2083Z" fill="#497DB0"/>
<path d="M27.1759 54.3893H14.1112C4.24752 49.211 6.89332 50.6501 2.88212 48.3442C1.5785 47.593 0.620835 46.3612 0.214207 44.9125C-0.19242 43.4639 -0.0156867 41.9137 0.706562 40.5938C1.87366 38.4579 4.57612 33.5232 6.24745 31.7612L9.40881 35.5968C9.94079 36.2456 10.6714 36.7015 11.4881 36.8942L18.57 38.5939C18.9597 38.6861 19.2998 38.9228 19.5217 39.2562C19.7436 39.5896 19.8307 39.9947 19.7654 40.3898L18.451 48.1573C18.3817 48.5687 18.4031 48.9903 18.5136 49.3926C18.6242 49.7949 18.8212 50.1683 19.0909 50.4866C19.3607 50.8049 19.6966 51.0605 20.0754 51.2355C20.4541 51.4105 20.8665 51.5008 21.2837 51.4999H22.8304C23.1565 51.4999 23.4692 51.3704 23.6998 51.1398C23.9303 50.9093 24.0599 50.5966 24.0599 50.2705C24.0599 50.0665 24.1052 50.3045 23.193 46.5199C23.1586 46.363 23.158 46.2006 23.1911 46.0434C23.2242 45.8862 23.2904 45.7379 23.3852 45.6083C23.4801 45.4786 23.6014 45.3706 23.7411 45.2914C23.8809 45.2122 24.0359 45.1636 24.1958 45.1489L25.9295 50.9617H26.8643C26.853 51.0183 27.1759 54.327 27.1759 54.3893Z" fill="#F4B675"/>
<path d="M4.73535 52.2761L14.1118 54.3893H15.3412C15.8115 52.2987 17.9417 42.8543 18.4346 40.6561L7.91371 38.2822C6.54265 44.2537 6.06675 46.3726 4.73535 52.2761Z" fill="#FF4B6E"/>
<path d="M9.50204 41.7492L7.67853 49.8389C7.5918 50.2237 7.83342 50.606 8.21821 50.6927L12.8575 51.7384C13.2423 51.8252 13.6245 51.5836 13.7113 51.1988L15.5348 43.109C15.6215 42.7242 15.3799 42.342 14.9951 42.2553L10.3558 41.2095C9.97102 41.1228 9.58877 41.3644 9.50204 41.7492Z" fill="#FF8C87"/>
<path d="M11.3461 47.4831C12.0939 47.6814 12.8418 47.8741 12.7851 47.8684C13.0311 47.8909 13.2785 47.8445 13.4996 47.7344C13.7207 47.6244 13.9069 47.455 14.0372 47.2452L14.1335 47.0979C14.2365 46.9288 14.375 46.784 14.5393 46.6734C14.7036 46.5629 14.8899 46.4893 15.0853 46.4577C15.1425 46.4498 15.2007 46.4549 15.2556 46.4726C15.3106 46.4903 15.3608 46.5201 15.4027 46.5598C15.4446 46.5995 15.477 46.6481 15.4976 46.702C15.5182 46.7559 15.5264 46.8137 15.5216 46.8713L15.4536 47.5908C15.4526 47.73 15.5029 47.8647 15.5948 47.9691C15.6868 48.0736 15.814 48.1406 15.9522 48.1573L18.7113 48.4179C18.8206 48.4272 18.927 48.458 19.0242 48.5088C19.1215 48.5595 19.2077 48.6291 19.2778 48.7134C19.3479 48.7978 19.4006 48.8952 19.4327 49.0001C19.4648 49.105 19.4757 49.2153 19.4648 49.3244L19.4025 49.9986C19.3696 50.3745 19.2619 50.74 19.0858 51.0737C18.9097 51.4074 18.6687 51.7026 18.377 51.9419C18.1395 52.2081 17.8449 52.4171 17.5153 52.5535C17.1857 52.6899 16.8295 52.75 16.4734 52.7294L14.2525 52.5198C13.3574 52.4405 12.9551 51.9079 12.2412 51.211L10.5869 50.6445L11.3461 47.4831Z" fill="#FFAAA0"/>
<path d="M18.8007 24.3618V28.4863C18.803 28.7066 18.7528 28.9242 18.6543 29.1213C18.5558 29.3183 18.4118 29.4891 18.2342 29.6194L17.0331 30.4523C16.8041 30.6104 16.5324 30.6951 16.2541 30.6951C15.9758 30.6951 15.7041 30.6104 15.4751 30.4523L14.24 29.6138C14.0548 29.4881 13.9028 29.3193 13.7972 29.1219C13.6916 28.9246 13.6355 28.7045 13.6338 28.4807V24.3618C15.3066 24.9456 17.1279 24.9456 18.8007 24.3618Z" fill="#FF7D82"/>
<path d="M2.88184 48.3383L10.1394 52.5195L11.5954 46.429L5.90723 43.2847L2.88184 48.3383Z" fill="#F4D493"/>
<path d="M26.9373 51.8907C26.8472 51.9732 26.733 52.0244 26.6115 52.0366C26.49 52.0489 26.3678 52.0215 26.2631 51.9587C25.3189 51.4165 24.6283 50.5221 24.3425 49.4715L22.8071 43.908C22.7857 43.8351 22.7792 43.7586 22.788 43.6831C22.7967 43.6076 22.8206 43.5347 22.8581 43.4686C22.8956 43.4025 22.9461 43.3447 23.0064 43.2985C23.0668 43.2523 23.1358 43.2188 23.2094 43.1998C23.2826 43.1775 23.3597 43.1703 23.4358 43.1787C23.5119 43.187 23.5856 43.2107 23.6523 43.2483C23.719 43.2859 23.7774 43.3366 23.824 43.3974C23.8706 43.4582 23.9043 43.5278 23.9232 43.6021L25.4756 49.1656C25.6805 49.9189 26.1728 50.5618 26.8466 50.9559L26.9373 51.8907Z" fill="#F48957"/>
<path d="M29.9404 41.9926L28.2804 44.8254C28.2432 44.8912 28.1934 44.9491 28.1338 44.9957C28.0743 45.0423 28.0061 45.0767 27.9332 45.097C27.8604 45.1172 27.7842 45.1229 27.7092 45.1137C27.6341 45.1046 27.5616 45.0807 27.4957 45.0435C27.4299 45.0063 27.372 44.9565 27.3254 44.8969C27.2788 44.8374 27.2444 44.7692 27.2242 44.6963C27.2039 44.6235 27.1982 44.5473 27.2074 44.4723C27.2165 44.3972 27.2404 44.3247 27.2776 44.2588L29.5835 40.293C29.8044 41.3014 29.9404 41.9926 29.9404 41.9926Z" fill="#F4B675"/>
<path d="M35.1064 35.7831C35.4294 34.1798 35.5314 33.2166 36.2396 32.0269L37.8656 29.3924C38.0105 29.1575 38.219 28.9684 38.4669 28.8471C38.7148 28.7257 38.992 28.6771 39.2665 28.7067C39.5409 28.7363 39.8013 28.8431 40.0176 29.0145C40.2339 29.186 40.3972 29.4153 40.4887 29.6757L40.704 30.2932C41.0996 31.4147 41.1231 32.6339 40.771 33.7698C40.4189 34.9057 39.7099 35.8978 38.7494 36.599L37.503 37.4998L35.1064 35.7831Z" fill="#FFAAA0"/>
<path d="M5.52215 52.4575L5.22754 54.3895H14.1111L5.52215 52.4575Z" fill="#F4B675"/>
</svg>
