<svg width="51" height="53" viewBox="0 0 51 53" fill="none" xmlns="http://www.w3.org/2000/svg">
<path d="M14.9847 31.188H7.41195C6.18176 31.188 5.18457 32.1852 5.18457 33.4154V50.2567C5.18457 51.4869 6.18176 52.4841 7.41195 52.4841H14.9846C16.2148 52.4841 17.2119 51.4869 17.2119 50.2567V33.4154C17.2119 32.1852 16.2148 31.188 14.9847 31.188Z" fill="#FADC60"/>
<path d="M8.35266 50.2567V33.4154C8.35266 32.1853 9.34985 31.188 10.58 31.188H7.41195C6.18176 31.188 5.18457 32.1852 5.18457 33.4154V50.2568C5.18457 51.487 6.18176 52.4842 7.41195 52.4842H10.5799C9.34985 52.4841 8.35266 51.4869 8.35266 50.2567Z" fill="#F2C42C"/>
<path d="M31.3146 23.4639H23.742C22.5118 23.4639 21.5146 24.4611 21.5146 25.6912V50.2566C21.5146 51.4868 22.5118 52.484 23.742 52.484H31.3146C32.5448 52.484 33.542 51.4868 33.542 50.2566V25.6911C33.542 24.4611 32.5448 23.4639 31.3146 23.4639Z" fill="#FD6F71"/>
<path d="M24.6826 50.2566V25.6912C24.6826 24.4611 25.6798 23.4639 26.91 23.4639H23.742C22.5118 23.4639 21.5146 24.4611 21.5146 25.6912V50.2566C21.5146 51.4868 22.5118 52.484 23.742 52.484H26.91C25.6798 52.484 24.6826 51.4868 24.6826 50.2566Z" fill="#E34B4C"/>
<path d="M47.6447 15.7397H40.0721C38.8419 15.7397 37.8447 16.7369 37.8447 17.9671V50.2564C37.8447 51.4866 38.8419 52.4837 40.0721 52.4837H47.6447C48.8749 52.4837 49.8721 51.4866 49.8721 50.2564V17.9671C49.872 16.7369 48.8748 15.7397 47.6447 15.7397Z" fill="#57D0E6"/>
<path d="M41.0127 50.2564V17.9671C41.0127 16.7369 42.0099 15.7397 43.2401 15.7397H40.0721C38.8419 15.7397 37.8447 16.7369 37.8447 17.9671V50.2564C37.8447 51.4866 38.8419 52.4837 40.0721 52.4837H43.2401C42.0099 52.4837 41.0127 51.4866 41.0127 50.2564Z" fill="#4DB8CC"/>
<path d="M49.753 0.00970167L42.1031 1.00669L43.9522 3.47998L37.401 8.37818L33.955 5.33997C33.3673 4.8218 32.4969 4.78684 31.8693 5.25592L17.2175 16.2102L13.79 13.6426C13.2022 13.2023 12.3947 13.202 11.8066 13.6417L0 22.4691L1.98208 25.1204L12.7967 17.0347L16.2242 19.6023C16.8119 20.0427 17.6195 20.043 18.2076 19.6032L32.7743 8.71215L36.2203 11.7504C36.808 12.2685 37.6786 12.3036 38.306 11.8344L45.9343 6.13102L47.7852 8.60646L50.9041 1.54885C51.2516 0.762514 50.6054 -0.101416 49.753 0.00970167Z" fill="#58B78C"/>
</svg>
