<svg width="51" height="54" viewBox="0 0 51 54" fill="none" xmlns="http://www.w3.org/2000/svg">
<path fill-rule="evenodd" clip-rule="evenodd" d="M51.0001 13.953V32.3971L40.7795 36.8348L29.8657 32.3971V26.6101C27.2354 26.6101 25.1035 24.4837 25.1035 21.8572C25.1035 19.2337 27.2354 17.1073 29.8657 17.1073V11.6432C29.8657 11.4649 30.0102 11.3203 30.1885 11.3203H48.3576C49.8095 11.3203 51.0001 12.5047 51.0001 13.953Z" fill="#CB97E7"/>
<path fill-rule="evenodd" clip-rule="evenodd" d="M47.5085 13.953V32.3971L49.3517 33.6606L51.0002 32.3971V13.953C51.0002 12.5047 49.8097 11.3203 48.3576 11.3203H44.8721C46.3211 11.3234 47.5085 12.5079 47.5085 13.953Z" fill="#BD80E1"/>
<path fill-rule="evenodd" clip-rule="evenodd" d="M51 32.3968V50.8409C51 52.2922 49.8095 53.4766 48.3574 53.4766H29.8655L23.0791 42.9367L29.8655 32.3968H35.6705C35.6705 29.7733 37.8024 27.647 40.4327 27.647C43.063 27.647 45.1949 29.7733 45.1949 32.3968H51Z" fill="#9BE69D"/>
<path fill-rule="evenodd" clip-rule="evenodd" d="M34.6271 42.9375C34.6271 45.561 32.4952 47.6873 29.8649 47.6873V53.4774H11.3731C9.91971 53.4774 8.73047 52.2882 8.73047 50.8347V32.7203C8.73047 32.542 8.87502 32.3975 9.05332 32.3975H14.2239C14.3945 32.3975 14.5344 32.5305 14.5452 32.7009C14.702 35.183 16.7697 37.1473 19.2977 37.1473C21.8258 37.1473 23.8935 35.183 24.0503 32.7009C24.061 32.5305 24.2009 32.3975 24.3716 32.3975H29.865V38.1875C32.4952 38.1876 34.6271 40.3139 34.6271 42.9375Z" fill="#FE646F"/>
<path fill-rule="evenodd" clip-rule="evenodd" d="M47.5079 32.3975V50.8415C47.5079 52.2928 46.3174 53.4772 44.8652 53.4772H48.3569C49.8089 53.4772 50.9995 52.2928 50.9995 50.8415V32.3975H47.5079Z" fill="#6FD7A3"/>
<path fill-rule="evenodd" clip-rule="evenodd" d="M18.295 13.3641C17.7391 15.8237 19.2039 18.2692 21.5967 18.9677C21.7608 19.0155 21.86 19.1816 21.8222 19.3482L20.6828 24.375C20.6434 24.5487 20.4708 24.6577 20.297 24.6186L14.951 23.413C14.3727 25.9721 11.8224 27.5799 9.25676 27C6.69111 26.4231 5.07907 23.8794 5.66053 21.3204L0 20.0439L4.07616 2.05397C4.39609 0.639438 5.81741 -0.256512 7.23246 0.0656041L24.9568 4.06019C25.1309 4.09947 25.24 4.27243 25.2007 4.44644L24.0612 9.47318C24.0235 9.63957 23.8629 9.74652 23.6944 9.71947C21.2322 9.32309 18.8539 10.9041 18.295 13.3641Z" fill="#FFE177"/>
<path fill-rule="evenodd" clip-rule="evenodd" d="M21.6416 7.52776C14.1446 8.123 13.0894 17.0889 18.7838 20.0345L17.87 24.0725L20.2967 24.6186C20.4704 24.6577 20.643 24.5487 20.6824 24.375L21.8219 19.3481C21.8597 19.1814 21.7605 19.0154 21.5964 18.9676C19.2036 18.2691 17.7389 15.8236 18.2947 13.364C18.8536 10.904 21.2319 9.3231 23.6941 9.71938C23.8626 9.74653 24.0233 9.63947 24.061 9.47309L25.2005 4.44614C25.24 4.27213 25.1308 4.09917 24.9568 4.05989L22.5278 3.51123L21.6416 7.52776Z" fill="#FFD15B"/>
</svg>
