<svg width="472" height="472" viewBox="0 0 472 472" fill="none" xmlns="http://www.w3.org/2000/svg">
<path d="M236.269 471.991H235.917C205.028 471.991 179.898 446.861 179.898 415.972V402.881C179.898 395.245 186.09 389.054 193.726 389.054H278.46C286.097 389.054 292.288 395.245 292.288 402.881V415.972C292.288 446.862 267.157 471.991 236.269 471.991Z" fill="#FFA81C"/>
<path d="M278.459 389.055H236.092V471.992H236.268C267.157 471.992 292.286 446.862 292.286 415.973V402.882C292.286 395.245 286.095 389.055 278.459 389.055Z" fill="#FF9300"/>
<path d="M263.733 86.427H208.451C200.814 86.427 194.623 80.2359 194.623 72.5993V41.4751C194.623 18.6087 213.226 0.00683594 236.091 0.00683594C258.957 0.00683594 277.56 18.6097 277.56 41.4751V72.5993C277.56 80.2359 271.369 86.427 263.733 86.427Z" fill="#FFA81C"/>
<path d="M263.732 86.427C271.369 86.427 277.56 80.2359 277.56 72.5993V41.4751C277.56 18.6087 258.957 0.00683594 236.092 0.00683594V86.427H263.732Z" fill="#FF9300"/>
<path d="M382.619 416.71H89.5671C77.5988 416.71 67.8613 406.972 67.8613 395.004V375.234C67.8613 353.579 75.8344 332.784 90.3119 316.679C100.218 305.66 105.674 291.431 105.674 276.614V187.032C105.674 115.119 164.178 56.6143 236.091 56.6143C308.005 56.6143 366.509 115.119 366.509 187.032V276.614C366.509 291.431 371.965 305.66 381.871 316.679C396.349 332.783 404.322 353.578 404.322 375.233V395.003C404.323 406.972 394.587 416.71 382.619 416.71Z" fill="#FFCF2C"/>
<path d="M382.617 416.71C394.585 416.71 404.323 406.972 404.323 395.004V375.234C404.323 353.579 396.35 332.784 381.871 316.679C371.965 305.661 366.51 291.432 366.51 276.615V187.033C366.51 115.12 308.005 56.6152 236.092 56.6152V416.71H382.617Z" fill="#FFC12E"/>
<path d="M67.8633 375.235V395.005C67.8633 406.973 77.6007 416.71 89.569 416.71H382.62C394.588 416.71 404.325 406.973 404.325 395.005V375.235C404.325 365.751 402.795 356.433 399.86 347.6H72.3287C69.3935 356.433 67.8633 365.751 67.8633 375.235Z" fill="#FFF566"/>
<path d="M236.092 347.6V416.709H382.617C394.585 416.709 404.323 406.972 404.323 395.004V375.234C404.323 365.75 402.793 356.432 399.857 347.599H236.092V347.6Z" fill="#FFE645"/>
<path d="M13.8441 152.719C12.8771 152.719 11.8963 152.618 10.9127 152.405C3.44757 150.794 -1.29716 143.436 0.314225 135.97C11.3874 84.6799 39.6465 37.5636 79.8851 3.29952C85.7 -1.65171 94.4272 -0.950184 99.3775 4.86297C104.329 10.678 103.629 19.4041 97.814 24.3554C62.1718 54.7052 37.1456 96.4169 27.3464 141.807C25.9479 148.288 20.2159 152.719 13.8441 152.719Z" fill="#FF8B6E"/>
<path d="M458.155 152.72C451.782 152.72 446.052 148.289 444.653 141.808C434.853 96.4179 409.827 54.7063 374.186 24.3573C368.371 19.4061 367.671 10.679 372.622 4.86493C377.573 -0.950061 386.299 -1.65066 392.115 3.30148C432.353 37.5637 460.612 84.681 471.685 135.971C473.296 143.437 468.551 150.795 461.086 152.406C460.104 152.617 459.122 152.72 458.155 152.72Z" fill="#FF674F"/>
<path d="M67.0071 168.896C66.1599 168.896 65.3007 168.818 64.4379 168.656C56.9322 167.245 51.9921 160.017 53.4025 152.512C60.992 112.126 82.2756 74.8212 113.331 47.4691C119.061 42.4202 127.799 42.9761 132.846 48.7062C137.894 54.4373 137.339 63.1746 131.609 68.2217C105.16 91.5176 87.0378 123.266 80.5812 157.619C79.3331 164.263 73.5282 168.896 67.0071 168.896Z" fill="#FF8B6E"/>
<path d="M404.991 168.897C398.469 168.897 392.665 164.263 391.417 157.621C384.961 123.268 366.84 91.5188 340.391 68.2238C334.66 63.1758 334.107 54.4386 339.154 48.7074C344.202 42.9773 352.939 42.4232 358.671 47.4703C389.724 74.8224 411.006 112.127 418.596 152.512C420.006 160.017 415.065 167.245 407.56 168.655C406.699 168.818 405.839 168.897 404.991 168.897Z" fill="#FF674F"/>
</svg>
