<svg id="Layer_1" enable-background="new 0 0 512 512" height="512" viewBox="0 0 512 512" width="512" xmlns="http://www.w3.org/2000/svg"><g><g><path d="m322.812 124c0-38.271 30.877-69.45 69.025-69.975v-9.525c0-20.435-16.565-37-37-37h-200.051c-20.435 0-37 16.565-37 37v423c0 20.435 16.565 37 37 37h200.051c20.435 0 37-16.565 37-37v-273.525c-38.149-.525-69.025-31.704-69.025-69.975z" fill="#dff6fd"/><g><path d="m208.812 504.5h92v-9.5c0-11.046-8.954-20-20-20h-52c-11.046 0-20 8.954-20 20z" fill="#a8d3d8"/></g><g><path d="m261.748 475h-32.937c-11.046 0-20 8.954-20 20v9.5h32.937v-9.5c0-11.046 8.955-20 20-20z" fill="#8ebac5"/></g><g><path d="m160.698 467.5v-423c0-20.435 16.565-37 37-37h-42.911c-20.435 0-37 16.565-37 37v423c0 20.435 16.565 37 37 37h42.911c-20.435 0-37-16.565-37-37z" fill="#c8effe"/></g><path d="m392.812 194c-2.87 0-5.694-.194-8.475-.531v274.031c0 16.266-13.233 29.5-29.5 29.5h-200.051c-16.267 0-29.5-13.234-29.5-29.5v-423c0-16.266 13.233-29.5 29.5-29.5h200.051c16.267 0 29.5 13.234 29.5 29.5v10.031c2.781-.337 5.605-.531 8.475-.531 2.201 0 4.375.115 6.525.315v-9.815c0-24.538-19.962-44.5-44.5-44.5h-200.051c-24.538 0-44.5 19.962-44.5 44.5v423c0 24.538 19.962 44.5 44.5 44.5h200.051c24.538 0 44.5-19.962 44.5-44.5v-273.815c-2.15.2-4.324.315-6.525.315z" fill="#7ca1b1"/><g><g><path d="m296.225 50.568h-82.841c-4.143 0-7.5-3.358-7.5-7.5s3.357-7.5 7.5-7.5h82.841c4.143 0 7.5 3.358 7.5 7.5s-3.358 7.5-7.5 7.5z" fill="#8ebac5"/></g><g fill="#8ebac5"><circle cx="180.128" cy="43.068" r="7.5"/><circle cx="332.088" cy="43.068" r="7.5"/></g></g></g><g><path d="m322.812 124c0-11.527 2.818-22.401 7.774-32h-165.774c-5.523 0-10 4.477-10 10v180c0 5.523 4.477 10 10 10h180c5.523 0 10-4.477 10-10v-99.259c-19.239-12.488-32-34.146-32-58.741z" fill="#fff"/><path d="m347.312 177.13v104.87c0 1.378-1.122 2.5-2.5 2.5h-180c-1.378 0-2.5-1.122-2.5-2.5v-180c0-1.378 1.122-2.5 2.5-2.5h162.435c2.001-5.339 4.636-10.368 7.814-15h-170.249c-9.649 0-17.5 7.851-17.5 17.5v180c0 9.649 7.851 17.5 17.5 17.5h180c9.649 0 17.5-7.851 17.5-17.5v-95.005c-5.431-2.64-10.462-5.973-15-9.865z" fill="#a8d3d8"/><g><g><path d="m322.812 124c0-4.971.53-9.819 1.52-14.5h-51.338c-4.142 0-7.5 3.358-7.5 7.5s3.358 7.5 7.5 7.5h49.318v49.318c0 4.142 3.358 7.5 7.5 7.5s7.5-3.358 7.5-7.5v-7.231c-9.082-11.808-14.5-26.573-14.5-42.587z" fill="#537983"/><g><path d="m179.812 181.318c-4.142 0-7.5-3.358-7.5-7.5v-56.818c0-4.142 3.358-7.5 7.5-7.5h56.818c4.142 0 7.5 3.358 7.5 7.5s-3.358 7.5-7.5 7.5h-49.318v49.318c0 4.142-3.358 7.5-7.5 7.5z" fill="#537983"/></g><g><path d="m329.812 274.5h-56.818c-4.142 0-7.5-3.358-7.5-7.5s3.358-7.5 7.5-7.5h49.318v-49.318c0-4.142 3.358-7.5 7.5-7.5s7.5 3.358 7.5 7.5v56.818c0 4.142-3.358 7.5-7.5 7.5z" fill="#537983"/></g><g><path d="m236.63 274.5h-56.818c-4.142 0-7.5-3.358-7.5-7.5v-56.818c0-4.142 3.358-7.5 7.5-7.5s7.5 3.358 7.5 7.5v49.318h49.318c4.142 0 7.5 3.358 7.5 7.5s-3.358 7.5-7.5 7.5z" fill="#537983"/></g></g><g><path d="m233.221 177.909h-28.409c-4.142 0-7.5-3.358-7.5-7.5v-28.409c0-4.142 3.358-7.5 7.5-7.5h28.409c4.142 0 7.5 3.358 7.5 7.5v28.409c0 4.142-3.358 7.5-7.5 7.5zm-20.909-15h13.409v-13.409h-13.409z" fill="#537983"/></g><g><path d="m305.948 224.5h-28.409c-4.142 0-7.5-3.358-7.5-7.5s3.358-7.5 7.5-7.5h28.409c4.142 0 7.5 3.358 7.5 7.5s-3.358 7.5-7.5 7.5z" fill="#537983"/></g><g><path d="m277.539 177.909c-4.142 0-7.5-3.358-7.5-7.5v-28.409c0-4.142 3.358-7.5 7.5-7.5h25c4.142 0 7.5 3.358 7.5 7.5s-3.358 7.5-7.5 7.5h-17.5v20.909c0 4.142-3.358 7.5-7.5 7.5z" fill="#537983"/></g><g><path d="m305.948 247.227h-28.409c-4.142 0-7.5-3.358-7.5-7.5s3.358-7.5 7.5-7.5h28.409c4.142 0 7.5 3.358 7.5 7.5s-3.358 7.5-7.5 7.5z" fill="#537983"/></g><g><path d="m225.812 247.227c-4.142 0-7.5-3.358-7.5-7.5v-7.227h-13.5c-4.142 0-7.5-3.358-7.5-7.5v-31c0-4.142 3.358-7.5 7.5-7.5s7.5 3.358 7.5 7.5v23.5h13.5c4.142 0 7.5 3.358 7.5 7.5v14.727c0 4.142-3.358 7.5-7.5 7.5z" fill="#537983"/></g><g><path d="m255.812 201.5h-27c-4.142 0-7.5-3.358-7.5-7.5s3.358-7.5 7.5-7.5h27c4.142 0 7.5 3.358 7.5 7.5s-3.358 7.5-7.5 7.5z" fill="#537983"/></g><g><path d="m250.812 247.227c-4.142 0-7.5-3.358-7.5-7.5v-22.727c0-4.142 3.358-7.5 7.5-7.5s7.5 3.358 7.5 7.5v22.727c0 4.142-3.358 7.5-7.5 7.5z" fill="#537983"/></g></g></g><g><g><path d="m334.382 367.86h-159.14c-11.283 0-20.43-9.147-20.43-20.43 0-11.283 9.147-20.43 20.43-20.43h159.14c11.283 0 20.43 9.147 20.43 20.43 0 11.283-9.147 20.43-20.43 20.43z" fill="#00f2a6"/></g></g><g><path d="m195.748 347.43c0-11.283 9.147-20.43 20.43-20.43h-40.937c-11.283 0-20.43 9.147-20.43 20.43 0 11.283 9.147 20.43 20.43 20.43h40.937c-11.283 0-20.43-9.147-20.43-20.43z" fill="#0ed290"/></g><g><g><circle cx="392.812" cy="124" fill="#00f2a6" r="71"/></g><g><path d="m366.78 124c0-31.346 20.322-57.928 48.503-67.34-7.064-2.361-14.613-3.66-22.471-3.66-39.212 0-71 31.788-71 71s31.788 71 71 71c7.858 0 15.407-1.299 22.471-3.66-28.181-9.412-48.503-35.994-48.503-67.34z" fill="#0ed290"/></g><g><path d="m389.17 153.346c-1.984 0-3.893-.787-5.303-2.197l-25.487-25.487c-2.929-2.929-2.929-7.678 0-10.606 2.929-2.929 7.678-2.929 10.606 0l19.649 19.649 28.945-35.109c2.635-3.196 7.361-3.651 10.558-1.016 3.196 2.635 3.651 7.362 1.016 10.558l-34.197 41.479c-1.345 1.631-3.316 2.619-5.428 2.72-.119.006-.239.009-.359.009z" fill="#fff"/></g></g><g><circle cx="175.312" cy="417.36" fill="#01d0fb" r="20.5"/></g><g><path d="m172.748 417.36c0-8.101 4.711-15.084 11.532-18.413-2.712-1.324-5.747-2.087-8.968-2.087-11.322 0-20.5 9.178-20.5 20.5s9.178 20.5 20.5 20.5c3.221 0 6.256-.764 8.968-2.087-6.821-3.329-11.532-10.312-11.532-18.413z" fill="#01c0fa"/></g><g><circle cx="334.312" cy="417.36" fill="#ffd15b" r="20.5"/></g><g><path d="m331.748 417.36c0-8.101 4.711-15.084 11.532-18.413-2.712-1.324-5.747-2.087-8.968-2.087-11.322 0-20.5 9.178-20.5 20.5s9.178 20.5 20.5 20.5c3.221 0 6.256-.764 8.968-2.087-6.821-3.329-11.532-10.312-11.532-18.413z" fill="#ffc344"/></g><g><circle cx="254.812" cy="417.36" fill="#fe646f" r="20.5"/></g><g><path d="m252.248 417.36c0-8.101 4.711-15.084 11.532-18.413-2.712-1.324-5.747-2.087-8.968-2.087-11.322 0-20.5 9.178-20.5 20.5s9.178 20.5 20.5 20.5c3.221 0 6.256-.764 8.968-2.087-6.821-3.329-11.532-10.312-11.532-18.413z" fill="#fd4755"/></g><g><g><path d="m70.598 220.625c-1.919 0-3.839-.732-5.303-2.197-22.809-22.81-22.809-59.923 0-82.731 2.929-2.929 7.678-2.929 10.606 0 2.929 2.929 2.929 7.678 0 10.606-16.96 16.96-16.96 44.558 0 61.519 2.929 2.929 2.929 7.678 0 10.606-1.464 1.465-3.384 2.197-5.303 2.197z" fill="#00f2a6"/></g><g><path d="m91.812 199.412c-1.919 0-3.839-.732-5.303-2.197-5.383-5.383-8.348-12.54-8.348-20.152 0-7.613 2.965-14.77 8.348-20.152 2.929-2.929 7.678-2.93 10.606 0 2.929 2.929 2.929 7.678 0 10.607-2.55 2.549-3.954 5.939-3.954 9.545s1.404 6.996 3.954 9.546c2.929 2.929 2.929 7.678 0 10.606-1.464 1.464-3.384 2.197-5.303 2.197z" fill="#0ed290"/></g></g><g fill="#537983"><circle cx="302.538" cy="169.27" r="7.5"/><circle cx="302.538" cy="194" r="7.5"/><circle cx="277.538" cy="194" r="7.5"/><circle cx="254.808" cy="142.003" r="7.5"/><circle cx="254.808" cy="169.27" r="7.5"/></g></g></svg>