<?xml version="1.0" encoding="utf-8"?>
<!-- Generator: Adobe Illustrator 23.0.2, SVG Export Plug-In . SVG Version: 6.00 Build 0)  -->
<svg version="1.1" id="Layer_1" xmlns="http://www.w3.org/2000/svg" xmlns:xlink="http://www.w3.org/1999/xlink" x="0px" y="0px"
	 viewBox="0 0 1080 1080" style="enable-background:new 0 0 1080 1080;" xml:space="preserve">
<style type="text/css">
	.st0{opacity:0.6;}
	.st1{fill:#CFE6FF;}
	.st2{fill:#B3D6F9;}
	.st3{fill:#BEDEFF;}
	.st4{fill:#A8CCFC;}
	.st5{fill:#FDBAA0;}
	.st6{opacity:0.5;}
	.st7{fill:#F18E7B;}
	.st8{opacity:0.5;fill:#F07B7E;}
	.st9{fill:#FFFFFF;}
	.st10{fill:#383463;}
	.st11{fill:#84C874;}
	.st12{fill:#9BD78E;}
	.st13{fill:#FFC6B2;}
	.st14{fill:#FF6576;}
	.st15{fill:#FF536A;}
	.st16{fill:#F07B7E;}
</style>
<g>
	<g class="st0">
		<g>
			<path class="st1" d="M948.9,537c0.8,2.2,1.5,4.4,2.1,6.6c0.1,0.2,0.1,0.4,0.2,0.6c1.9,6.8,3.1,13.8,3.5,20.8c0,0.2,0,0.5,0,0.7
				c1.4,29.9-12.5,60.3-53.3,81.2c-10.9,5.6-15.8,14.7-18.5,26.2c-0.1,0.2-0.1,0.5-0.2,0.7c-4.5,19.7-2.7,46.1-12.8,73.4
				c-0.1,0.3-0.2,0.6-0.3,0.9c-13.6,36.2-48.2,74-145.5,99.8c-0.3,0.1-0.7,0.2-1,0.3c0,0-0.4-0.3-1-0.9c-10.9-9.4-103.6-92.8-81-170
				c16.9-57.9,45.2-64.9,61.4-85.9c0.1-0.2,0.3-0.3,0.4-0.5c6.5-8.7,11-19.8,11.9-37.7c2.5-55.2,49.5-78.5,89.3-80.4
				c0.2,0,0.4,0,0.6,0c4.9-0.2,9.7-0.1,14.3,0.4c41.9,4,97.5-79.9,147.8-54.3C1017.1,444.4,935.5,499,948.9,537z"/>
		</g>
		<g>
			<g>
				<path class="st2" d="M968.2,421.9c-2.5,1.6-5.1,3.2-7.6,4.8c-17,11.2-33,23.8-48.3,37.3c-0.2,0.2-0.4,0.3-0.5,0.5
					c-9.1,8.1-17.9,16.5-26.4,25.1c-30.4,30.8-57.4,65.1-79.9,102.1c-6.2,10.2-12.1,20.6-17.5,31.2c-0.1,0.1-0.1,0.3-0.2,0.4
					c-3.2,6.3-6.4,12.6-9.3,19c-0.1,0.2-0.2,0.4-0.3,0.6c-9.9,21.2-18.2,43.1-25.2,65.6c-0.8,2.6-1.6,5.2-2.4,7.8
					c-0.1,0.2-0.1,0.4-0.2,0.6c-8.7,29.3-15.5,59.3-20.5,89.5c0,0.2-0.1,0.4-0.1,0.6c-1.1,6.9-2.2,13.9-3.1,20.8
					c-0.9,6.6-1.7,13.3-2.5,20c-0.3,0.1-0.7,0.2-1,0.3c0,0-0.4-0.3-1-0.9c1.2-11,2.7-21.8,4.4-32.6c2.6-17,5.8-33.9,9.6-50.7
					c0-0.2,0.1-0.5,0.2-0.7c5.2-23.4,11.6-46.5,19.2-69.1c1.3-3.8,2.6-7.6,3.9-11.3c0.1-0.2,0.1-0.4,0.2-0.6
					c11.4-31.3,25.9-61.2,43.1-89.7c0.1-0.2,0.2-0.4,0.3-0.6c3.2-5.3,6.5-10.5,9.8-15.6c0.8-1.2,1.5-2.3,2.3-3.4
					c0.1-0.2,0.3-0.4,0.4-0.6c17.9-26.9,38.2-52.3,60.4-75.8c0.1-0.2,0.3-0.3,0.5-0.5c5.7-6,11.5-11.8,17.4-17.6
					c22.5-21.6,46.8-41.8,73.3-58.3C968.2,419.5,969.3,421.2,968.2,421.9z"/>
			</g>
		</g>
		<g>
			<g>
				<path class="st2" d="M654.9,645.7c8.7,49.9,46.8,86.3,82.1,119.3c0.3,0.3,0.7-0.2,0.4-0.5c-35.3-33-73.3-69.2-82-119
					C655.4,645.1,654.8,645.3,654.9,645.7L654.9,645.7z"/>
			</g>
		</g>
		<g>
			<g>
				<path class="st2" d="M749.4,716.9c37,2.1,74.2-11.1,106.6-27.7c9.2-4.7,18.2-9.9,26.9-15.5c0.3-0.2,0-0.7-0.3-0.5
					c-31.1,19.9-66.5,35.9-103.2,41.5c-9.9,1.5-20,2.1-30,1.6C749,716.3,749,716.9,749.4,716.9L749.4,716.9z"/>
			</g>
		</g>
		<g>
			<g>
				<path class="st2" d="M804.2,472.2c-6.8,33.9-1.3,69.7,11.2,101.7c0.1,0.4,0.7,0.2,0.6-0.2c-12.5-31.8-18-67.5-11.2-101.4
					C804.9,471.9,804.3,471.8,804.2,472.2L804.2,472.2z"/>
			</g>
		</g>
		<g>
			<g>
				<path class="st2" d="M782.6,476.4c-2.8,20.8-2.7,41.9,0.4,62.7c2.9,19.3,7.6,38.9,20.2,54.3c0.3,0.3,0.8,0,0.5-0.3
					c-12.8-15.6-17.5-35.5-20.3-55.1c-2.9-20.3-3-41-0.2-61.4C783.3,476.1,782.7,476,782.6,476.4L782.6,476.4z"/>
			</g>
		</g>
		<g>
			<g>
				<path class="st2" d="M777.5,643c51.7-0.2,103.3-18,144.9-48.6c11.7-8.6,22.6-18.2,32.5-28.9c0.3-0.3-0.2-0.7-0.5-0.4
					c-35.1,37.6-82.9,63.1-133.4,73c-14.4,2.8-29,4.3-43.6,4.3C777.1,642.4,777.1,643,777.5,643L777.5,643z"/>
			</g>
		</g>
		<g>
			<g>
				<path class="st2" d="M788,623.5c48.4-3,94.9-23.3,133.2-52.5c10.7-8.2,20.8-17.2,30.2-26.9c0.3-0.3-0.2-0.7-0.5-0.4
					c-33.3,34.5-76.3,60.8-122.9,72.8c-13.1,3.4-26.5,5.6-40,6.4C787.6,623,787.6,623.6,788,623.5L788,623.5z"/>
			</g>
		</g>
		<g>
			<g>
				<path class="st2" d="M869.6,452.2c-2.9,15.1,0.4,31.5,6.7,45.3c0.2,0.4,0.7,0,0.5-0.3c-6.3-13.7-9.5-29.9-6.6-44.8
					C870.3,452,869.7,451.8,869.6,452.2L869.6,452.2z"/>
			</g>
		</g>
		<g>
			<g>
				<path class="st2" d="M910.7,464.1c21.2,8,45,7.4,65.8-1.7c0.4-0.2,0.2-0.8-0.2-0.6c-20.6,9.1-44.2,9.8-65.3,1.8
					C910.6,463.5,910.3,464,910.7,464.1L910.7,464.1z"/>
			</g>
		</g>
		<g>
			<g>
				<path class="st2" d="M702.4,591.3c8.6,17.1,16,34.7,24.3,51.9c7.6,15.6,17.7,30.4,32.7,39.7c0.3,0.2,0.6-0.3,0.3-0.6
					c-15.6-9.7-25.8-25.3-33.5-41.5c-7.8-16.6-15.1-33.4-23.3-49.8C702.8,590.7,702.3,591,702.4,591.3L702.4,591.3z"/>
			</g>
		</g>
		<g>
			<g>
				<path class="st2" d="M869.6,747.4c-30.3,26.8-70,42.4-108.8,52.4c-10.6,2.8-21.4,5.1-32.2,6.9c-0.4,0.1-0.2,0.7,0.2,0.6
					c39.9-6.8,80.1-19.2,114.9-40.3c9.3-5.6,18.2-12,26.4-19.2C870.4,747.5,869.9,747.1,869.6,747.4L869.6,747.4z"/>
			</g>
		</g>
	</g>
	<g>
		<g>
			<path class="st3" d="M1065.2,737.8c-13.5,16.4-54.9,22.6-60.3,44.3c-0.4,1.7-0.9,3.4-1.4,5.1c0,0.2-0.1,0.3-0.2,0.5v0
				c-1.6,5.1-3.8,10.1-6.5,14.7v0c-0.1,0.2-0.2,0.3-0.3,0.5c0,0,0,0,0,0c-11.6,19.6-33.1,33.1-67.8,29.4c-9.2-1-16.2,2.7-22.7,8.9
				c-0.1,0.1-0.3,0.3-0.4,0.4c-11,10.6-21,28.2-38.8,41.3c-0.2,0.1-0.4,0.3-0.6,0.4c0,0,0,0,0,0c-6.7,4.9-14.5,9.1-23.8,12.2
				l-76.9-0.1c-10.3-2.3-21.4-5.4-33.6-9.4c-0.2-0.1-0.5-0.2-0.7-0.2c0,0-0.1-0.3-0.3-1c-3-10.5-27.1-102.3,19.5-142
				c33.7-28.7,54.4-22.8,72.9-28.3c0.7-0.2,1.3-0.4,2-0.6h0c0.2,0,0.3-0.1,0.5-0.2c7.8-2.8,15.3-8,23.3-19.1
				c24.7-34.1,64.3-29.3,90.4-13.8c0,0,0,0,0,0c0.1,0.1,0.3,0.2,0.4,0.2c3.2,1.9,6.2,4,8.9,6.2c25,20.1,95.4-10.1,116.7,27.2
				C1071.3,724.5,1070.1,731.9,1065.2,737.8z"/>
		</g>
		<g>
			<g>
				<path class="st4" d="M1065.2,717c-2.3-0.1-4.6-0.1-6.8-0.1c-15.5,0.1-31,1.4-46.3,3.6c-0.2,0-0.4,0-0.5,0.1
					c-9.2,1.3-18.3,3-27.3,4.9c-32.2,6.9-63.7,17.5-93.5,31.6c-8.2,3.9-16.3,8.1-24.2,12.5c-0.1,0.1-0.2,0.1-0.3,0.2
					c-4.7,2.6-9.3,5.4-13.9,8.2c-0.2,0.1-0.3,0.2-0.4,0.3c-15.1,9.4-29.6,19.8-43.4,31.2c-1.6,1.3-3.2,2.6-4.7,4
					c-0.1,0.1-0.2,0.2-0.4,0.3c-17.8,15-34.6,31.2-50.4,48.3c-0.1,0.1-0.2,0.2-0.3,0.4c-3.6,3.9-7.2,7.9-10.7,11.9
					c-3.3,3.8-6.7,7.7-9.9,11.7c-0.2-0.1-0.5-0.2-0.7-0.2c0,0-0.1-0.3-0.3-1c5.3-6.5,10.8-12.8,16.4-18.9
					c8.8-9.7,17.8-19.1,27.2-28.2c0.1-0.1,0.3-0.3,0.4-0.4c13.1-12.7,26.8-24.7,41.1-36c2.4-1.9,4.8-3.7,7.2-5.6
					c0.1-0.1,0.3-0.2,0.4-0.3c20.3-15.1,42-28.2,64.8-39.1c0.2-0.1,0.3-0.2,0.5-0.2c4.2-2,8.5-4,12.8-5.8c1-0.4,1.9-0.8,2.9-1.2
					c0.2-0.1,0.4-0.2,0.5-0.2c22.6-9.6,46.1-17.3,70.1-23c0.2,0,0.3-0.1,0.5-0.1c6.1-1.4,12.3-2.7,18.4-3.9
					c23.3-4.4,47.2-7.1,71-6.5C1066.2,715.5,1066.2,717.1,1065.2,717z"/>
			</g>
		</g>
		<g>
			<g>
				<path class="st4" d="M772.5,728.6c-15.3,35.4-6.3,74.4,2.4,110.2c0.1,0.3,0.5,0.2,0.5-0.1c-8.7-35.7-17.7-74.6-2.4-109.9
					C773,728.4,772.6,728.3,772.5,728.6L772.5,728.6z"/>
			</g>
		</g>
		<g>
			<g>
				<path class="st4" d="M802.8,813.3c22.7,16.8,51.8,23.9,79.4,26.9c7.8,0.8,15.7,1.3,23.6,1.4c0.3,0,0.3-0.5,0-0.5
					c-28.1-0.3-57.3-4.9-83-16.7c-6.9-3.2-13.6-7-19.7-11.5C802.8,812.8,802.6,813.2,802.8,813.3L802.8,813.3z"/>
			</g>
		</g>
		<g>
			<g>
				<path class="st4" d="M939.9,680.5c-18.5,18.7-30,43.8-35.3,69.4c-0.1,0.3,0.4,0.4,0.5,0.1c5.3-25.5,16.8-50.5,35.2-69.2
					C940.4,680.7,940.1,680.3,939.9,680.5L939.9,680.5z"/>
			</g>
		</g>
		<g>
			<g>
				<path class="st4" d="M924.4,674.2c-10.5,12.1-19.2,25.5-25.9,40c-6.2,13.5-11.4,27.9-9.8,42.9c0,0.3,0.5,0.3,0.5,0
					c-1.6-15.3,3.7-29.9,10.1-43.5c6.6-14.2,15.3-27.3,25.5-39.1C924.9,674.3,924.6,674,924.4,674.2L924.4,674.2z"/>
			</g>
		</g>
		<g>
			<g>
				<path class="st4" d="M851.6,778.1c33,21.5,73.2,31.7,112.5,29.6c11-0.6,22-2.2,32.7-4.8c0.3-0.1,0.2-0.5-0.1-0.5
					c-38,9.3-79.1,5.5-115.3-9.3c-10.3-4.2-20.2-9.4-29.6-15.5C851.5,777.5,851.3,777.9,851.6,778.1L851.6,778.1z"/>
			</g>
		</g>
		<g>
			<g>
				<path class="st4" d="M866.4,770c32,18.3,70.1,24.9,106.6,22.2c10.2-0.7,20.4-2.3,30.4-4.5c0.3-0.1,0.2-0.5-0.1-0.5
					c-35.6,8-73.9,6.8-108.6-5c-9.8-3.3-19.2-7.5-28.2-12.6C866.3,769.5,866.1,769.9,866.4,770L866.4,770z"/>
			</g>
		</g>
		<g>
			<g>
				<path class="st4" d="M989.8,695.1c-8.1,8.4-12.9,20.2-14.6,31.6c0,0.3,0.4,0.3,0.5,0c1.7-11.3,6.4-23,14.5-31.3
					C990.3,695.3,990,694.9,989.8,695.1L989.8,695.1z"/>
			</g>
		</g>
		<g>
			<g>
				<path class="st4" d="M1011,719.9c10.1,14,25.5,23.5,42.5,26.4c0.3,0,0.4-0.4,0.1-0.5c-16.9-2.8-32.2-12.3-42.3-26.1
					C1011.2,719.4,1010.8,719.7,1011,719.9L1011,719.9z"/>
			</g>
		</g>
		<g>
			<g>
				<path class="st4" d="M825.4,713.8c-1.7,14.4-4.3,28.7-6.2,43.2c-1.7,13.1-1.4,26.7,4.2,38.9c0.1,0.3,0.5,0,0.4-0.2
					c-5.9-12.7-5.9-26.8-3.9-40.4c2-13.8,4.4-27.6,6-41.4C825.9,713.5,825.4,713.5,825.4,713.8L825.4,713.8z"/>
			</g>
		</g>
		<g>
			<g>
				<path class="st4" d="M866.6,882.9c-30.5,4.4-62.2-2.3-91.1-12.1c-7.9-2.7-15.7-5.7-23.4-9.1c-0.3-0.1-0.4,0.3-0.1,0.5
					c28.2,12.3,59,21.2,89.9,22.4c8.3,0.3,16.6,0,24.8-1.2C867,883.3,866.9,882.8,866.6,882.9L866.6,882.9z"/>
			</g>
		</g>
	</g>
	<g>
		<g>
			<path class="st1" d="M453.5,982l-14.2,0h-2.8l-40.4,0h0l-1.7,0l-137,0.1c-8.4-8.5-16-17-23.4-23c-0.2-0.2-0.4-0.3-0.5-0.4l0,0
				c-8.6-6.9-17.5-10.7-28.6-8.6c-42,8.1-69.6-6.2-85.8-28.9c-0.1-0.2-0.3-0.4-0.4-0.6v0c-3.7-5.4-6.9-11.2-9.4-17.3v0
				c-0.1-0.2-0.2-0.4-0.2-0.6v0c-0.8-2-1.6-4-2.3-6.1c-12-35.5-103.2-28.7-81-76.3c22.2-47.6,111.2-18,139.6-45.1
				c3.1-3,6.6-5.8,10.3-8.5c0.2-0.1,0.3-0.2,0.5-0.3c0,0,0,0,0,0c30.3-21.6,78.1-31.4,111.7,7.6c10,11.6,18.9,17.3,27.9,20.1
				c0.8,0.3,1.7,0.5,2.5,0.7c0.2,0.1,0.4,0.1,0.6,0.2h0c24,6.1,48.7-5.1,94.4,27.7C465.1,860.1,458.3,948.5,453.5,982z"/>
		</g>
		<g>
			<g>
				<path class="st2" d="M439.3,982h-2.8l0,0c-4.5-4.4-9.1-8.7-13.8-13l0,0c-0.2-0.1-0.3-0.3-0.4-0.4c-21-19.3-43.3-37.3-66.5-53.8
					c-0.2-0.1-0.3-0.2-0.5-0.3c-2.1-1.5-4.1-2.9-6.2-4.3c-12.4-8.6-25.2-16.6-38.2-24c-5.9-3.3-11.9-6.5-17.9-9.6
					c-0.2-0.1-0.4-0.2-0.6-0.3c0,0,0,0,0,0c-5.9-3-11.8-5.9-17.8-8.6h0c-0.1-0.1-0.3-0.1-0.4-0.2c0,0,0,0,0,0
					c-10.1-4.6-20.3-8.9-30.8-12.8c-37.8-14.2-77.3-23.9-117.3-29c-11.2-1.4-22.5-2.5-33.8-3.2c-0.2,0-0.4,0-0.7,0
					c-18.9-1.2-38-1.2-56.9,0.4c-2.8,0.2-5.6,0.5-8.3,0.8c-1.2,0.1-1.4-1.8-0.2-1.9c28.9-3.1,58.4-2.3,87.3,0.7
					c7.6,0.8,15.3,1.7,22.9,2.9h0c0.2,0,0.4,0.1,0.6,0.1h0c29.8,4.4,59.2,11.4,87.8,20.9h0c0.2,0.1,0.4,0.1,0.7,0.2
					c1.2,0.4,2.4,0.8,3.6,1.2c5.4,1.8,10.8,3.8,16.2,5.8c0.2,0.1,0.4,0.1,0.6,0.2h0c22.4,8.5,44.1,18.6,65,30.3
					c6.1,3.4,12.2,7,18.1,10.7c0,0,0,0,0,0c0.2,0.1,0.3,0.2,0.5,0.3c3.2,2,6.3,4,9.4,6.1c18.6,12.3,36.5,25.6,53.8,39.7
					c0.2,0.1,0.3,0.3,0.5,0.4c12.4,10.2,24.4,20.7,36.1,31.7C432.8,975.8,436,978.9,439.3,982C439.3,982,439.3,982,439.3,982z"/>
			</g>
		</g>
		<g>
			<g>
				<path class="st2" d="M384.9,807.7c22.3,41.6,15.3,90.2,8.3,134.7c-0.1,0.4-0.6,0.3-0.6-0.1c7-44.5,14-92.9-8.3-134.4
					C384.2,807.5,384.7,807.3,384.9,807.7L384.9,807.7z"/>
			</g>
		</g>
		<g>
			<g>
				<path class="st2" d="M356.5,914.2c-25.9,22.8-60.8,34.5-94.2,40.9c-9.5,1.8-19,3.2-28.6,4.1c-0.4,0-0.4-0.5-0.1-0.6
					c34.3-3.3,69.4-11.8,99.6-28.8c8.1-4.6,15.9-9.9,22.9-16.1C356.4,913.5,356.8,914,356.5,914.2L356.5,914.2z"/>
			</g>
		</g>
		<g>
			<g>
				<path class="st2" d="M175.7,766.1c24.5,21,41.1,50.4,50.2,81c0.1,0.4-0.4,0.6-0.5,0.2c-9.1-30.6-25.6-59.9-50-80.8
					C175.1,766.3,175.4,765.9,175.7,766.1L175.7,766.1z"/>
			</g>
		</g>
		<g>
			<g>
				<path class="st2" d="M193.9,756.8c14,13.6,26.1,29.2,35.7,46.2c9,15.8,16.8,32.9,16.4,51.4c0,0.4-0.6,0.4-0.6,0.1
					c0.4-18.8-7.6-36.1-16.8-52c-9.5-16.6-21.4-31.8-35.1-45.2C193.3,757,193.7,756.5,193.9,756.8L193.9,756.8z"/>
			</g>
		</g>
		<g>
			<g>
				<path class="st2" d="M293.4,876.1c-38,29.6-86.1,46.1-134.2,47.6c-13.5,0.4-27.1-0.4-40.4-2.5c-0.4-0.1-0.3-0.6,0.1-0.6
					c47.4,7.4,97.1-1.3,139.7-23.1c12.2-6.2,23.7-13.5,34.5-21.9C293.4,875.4,293.7,875.9,293.4,876.1L293.4,876.1z"/>
			</g>
		</g>
		<g>
			<g>
				<path class="st2" d="M274.6,867.8c-37.2,25.6-83,37.5-127.9,38c-12.6,0.1-25.1-0.7-37.6-2.4c-0.4-0.1-0.3-0.6,0.1-0.6
					c44.3,6.2,90.9,0.7,132-17.2c11.6-5,22.7-11.1,33.1-18.3C274.5,867.2,274.9,867.6,274.6,867.8L274.6,867.8z"/>
			</g>
		</g>
		<g>
			<g>
				<path class="st2" d="M116.3,789c10.8,9.4,17.8,23.3,21.1,37.1c0.1,0.4-0.5,0.4-0.6,0.1c-3.3-13.6-10.2-27.4-20.9-36.7
					C115.6,789.2,116,788.8,116.3,789L116.3,789z"/>
			</g>
		</g>
		<g>
			<g>
				<path class="st2" d="M93,821.4c-10.9,18.1-28.7,31.3-49.2,36.5c-0.4,0.1-0.6-0.4-0.2-0.5c20.3-5.1,38.1-18.2,48.9-36.2
					C92.6,820.9,93.1,821.1,93,821.4L93,821.4z"/>
			</g>
		</g>
		<g>
			<g>
				<path class="st2" d="M318.8,795.1c3.5,17.5,8.2,34.6,12,52c3.4,15.8,4.4,32.5-1.2,47.9c-0.1,0.4-0.7,0.1-0.5-0.2
					c5.9-16,4.4-33.3,0.7-49.7c-3.8-16.7-8.2-33.2-11.5-49.9C318.2,794.8,318.7,794.7,318.8,795.1L318.8,795.1z"/>
			</g>
		</g>
		<g>
			<g>
				<path class="st2" d="M423.5,968.6c-0.2,0.1-0.5,0.3-0.7,0.4c-8.6,4.6-17.5,9-26.5,13c0,0-0.1,0-0.1,0.1h0l-1.7,0
					c0,0,0.1,0,0.1-0.1c0.4-0.2,0.7-0.3,1.1-0.5c9-3.9,17.9-8.3,26.6-12.9c0.3-0.2,0.7-0.3,1-0.5
					C423.6,967.9,423.8,968.5,423.5,968.6z"/>
			</g>
		</g>
	</g>
	<g>
		<g>
			<g>
				<g>
					<g>
						<g>
							<g>
								<path class="st5" d="M725.6,390c-31.2,27.3-106.5,62.3-117.5,112.9c-33.4,153.5-82.8,138.3-95.9,156.5
									c-23.3,32.4,7.1,301.4,4.1,322.7H303.5c2.2-5.8,27.8-353.8,7.2-410.9c-13-36-5.8-36.5-6.8-90.4c0,0,31.8-13.3,67.1-50.4
									c35.9-37.6,60.4-84,75-133c10.7-35.9,33-53.5,49.5-77.4c15.8-22.9,35.1-46.9,51.7-66.8c27.7-33.3,57.1-9.3,44.8,21.6
									c-23.5,59.2-91.5,157-78.6,156.9c6.9,0,50.2-44.8,80.8-98.5c25.8-45.2,74.4-112.1,98-96c18.6,12.6,12.6,30.7-51.9,124
									c-38.3,55.3-85.3,124.2-77.4,126.7c8,2.5,46.5-50.1,80.1-88.5c31.7-36.1,69.4-104.6,90.2-86.9
									c25.2,21.4-3.6,50.5-57.5,125.6c-33,45.9-76.1,93.9-62.5,93.8c25.7-0.2,94.6-121.3,130.9-90.9
									C747,343.1,758.5,361.2,725.6,390z"/>
							</g>
						</g>
					</g>
				</g>
			</g>
		</g>
		<g class="st6">
			<g>
				<path class="st7" d="M479.9,604.5c29.2-7.6,95.8-4.5,95.8-4.5l0,0c5.4-10.1,10.8-22.3,16-37.3l-17.3-9.3L479.9,604.5z"/>
			</g>
		</g>
		<g>
			<g>
				<g>
					<path class="st7" d="M537.1,644.3c-12.8,6.9-26.7,10.5-41.2,10.6c-0.9,0-0.9-1.4,0-1.4c14.3-0.2,28-3.7,40.5-10.5
						C537.2,642.7,537.9,643.9,537.1,644.3L537.1,644.3z"/>
				</g>
			</g>
		</g>
		<g>
			<path class="st5" d="M306.2,565.2c-21.7-33.2-5.1-101.7-0.2-168.1c3.4-46.3,5.8-59.3,20-79.6c10.9-15.6,15.8-49.1,17.2-68
				c0.1-0.7,0.1-1.1,0.1-1.1c1.1-11.8,23.9-9.3,36.5,13.9c12.6,23.2-0.1,70.1-0.1,70.1c1,12.5-4.8,45.4-8.6,56.1
				c-3.8,10.7,26,63.8,30.5,128C405.9,580.7,335.2,609.7,306.2,565.2z"/>
		</g>
	</g>
	<path class="st8" d="M503.6,654.7l-0.1-0.2l-0.6-1.4L388.3,410.4c-3,3.8-6,7.4-9,10.8c-0.9-2.5-1.7-4.9-2.5-7.2
		c-1.3,5.6-3.1,11.3-5.7,16c0,0.1-0.1,0.2-0.1,0.3c-7.7,14-13.9,37.3-7.3,70.4c2.5,12.4,3.2,43.7,4.2,80.1
		c1.7,61.8,4.1,138.2,17,161.1c17.1,30.5,95.2,47.9,120.2,52.8c-2.5-53.8-2.8-103.9,3.3-126.2L503.6,654.7z"/>
	<g>
		<path class="st9" d="M652.1,750.2H452.1c-37.1,0-67.2-30.1-67.2-67.2v-438c0-37.1,30.1-67.2,67.2-67.2h200.1
			c37.1,0,67.2,30.1,67.2,67.2v438C719.3,720.1,689.2,750.2,652.1,750.2z"/>
	</g>
	<g>
		<g>
			<path class="st10" d="M684.9,754.8H419.3c-21.5,0-39.1-17.5-39.1-39.1V212.2c0-21.5,17.5-39.1,39.1-39.1h265.6
				c21.5,0,39.1,17.5,39.1,39.1v503.6C724,737.3,706.5,754.8,684.9,754.8z M419.3,182.4c-16.4,0-29.7,13.3-29.7,29.7v503.6
				c0,16.4,13.3,29.7,29.7,29.7h265.6c16.4,0,29.7-13.3,29.7-29.7V212.2c0-16.4-13.3-29.7-29.7-29.7H419.3z"/>
		</g>
	</g>
	<g>
		<g>
			<path class="st10" d="M684.4,754.3H418.8c-21.5,0-39.1-17.5-39.1-39.1V211.7c0-21.5,17.5-39.1,39.1-39.1h265.6
				c21.5,0,39.1,17.5,39.1,39.1v503.6C723.5,736.8,706,754.3,684.4,754.3z M418.8,181.9c-16.4,0-29.7,13.3-29.7,29.7v503.6
				c0,16.4,13.3,29.7,29.7,29.7h265.6c16.4,0,29.7-13.3,29.7-29.7V211.7c0-16.4-13.3-29.7-29.7-29.7H418.8z"/>
		</g>
	</g>
	<g>
		<path class="st11" d="M609.7,601H478.4c-24.3,0-43.9-19.7-43.9-43.9v0c0-24.3,19.7-43.9,43.9-43.9h131.4
			c24.3,0,43.9,19.7,43.9,43.9v0C653.7,581.4,634,601,609.7,601z"/>
	</g>
	<g>
		<path class="st12" d="M618.2,601H486.9c-24.3,0-43.9-19.7-43.9-43.9v0c0-24.3,19.7-43.9,43.9-43.9h131.4
			c24.3,0,43.9,19.7,43.9,43.9v0C662.2,581.4,642.5,601,618.2,601z"/>
	</g>
	<g>
		<g>
			<path class="st7" d="M300.3,552.4c4.1,10.8,11.1,20.3,20.3,27.3c10.9,8.3,24,11.6,37.2,14.4c0.7,0.2,1.1-1,0.3-1.1
				c-12.5-2.7-25-5.6-35.6-13.3c-9.5-6.9-16.9-16.6-21.1-27.6C301.2,551.3,300,551.6,300.3,552.4L300.3,552.4z"/>
		</g>
	</g>
	<g>
		<g>
			<path class="st7" d="M357.7,388.3c3.9,1.5,7.9,2.9,11.8,4.4c0-0.4-0.1-0.7-0.1-1.1c-2.7,2.1-5.7,3.7-8.9,4.9
				c-0.7,0.3-0.4,1.4,0.3,1.1c3.3-1.2,6.4-2.8,9.2-5c0.4-0.3,0.4-0.9-0.1-1.1c-3.9-1.5-7.9-2.9-11.8-4.4
				C357.3,386.9,357,388,357.7,388.3L357.7,388.3z"/>
		</g>
	</g>
	<g>
		<path class="st13" d="M351.8,298c-3.5,1.5-11.2,0.3-16.7-1.5c0-26.5,3.9-44.1,8-47.1c3.5,1.4,7.3,3.6,8.6,6.9
			C354.5,262.9,357.9,295.4,351.8,298z"/>
	</g>
	<g>
		<path class="st1" d="M714.2,489.8H433.6c-9.4,0-17-7.9-17-17.7V259.2c0-9.8,7.6-17.7,17-17.7H512l199.2,79.2L714.2,489.8z"/>
	</g>
	<g>
		<path class="st14" d="M828.5,251.6v204.1c0,9.4-7.6,17-17,17H433.6c-9.4,0-17-7.6-17-17V251.6c0-9.4,7.6-17,17-17h377.9
			C820.9,234.6,828.5,242.3,828.5,251.6z"/>
	</g>
	<g>
		<path class="st15" d="M777.7,472.7H433.6c-9.4,0-17-7.6-17-17V251.6c0-9.4,7.6-17,17-17H512L777.7,472.7z"/>
	</g>
	<g>
		<g>
			<path class="st10" d="M355.5,195.9l-16.2-4c4-16,13.5-30.4,26.7-40.3c12.9-9.7,28.2-14.8,44.3-14.7l-0.1,16.7
				c-12.4-0.1-24.2,3.8-34.1,11.3C365.7,172.7,358.6,183.4,355.5,195.9z"/>
		</g>
		<g>
			<path class="st10" d="M321.4,187.4l-16.2-4.1c5.9-23.8,20-45,39.6-59.8c19.1-14.4,41.8-21.9,65.7-21.7l-0.1,16.7
				c-20.2-0.2-39.3,6.2-55.5,18.4C338.1,149.5,326.5,167,321.4,187.4z"/>
		</g>
		<g>
			<path class="st10" d="M287.7,178.9l-16.2-4.1c7.9-31.4,26.5-59.5,52.4-79.1C348.8,77,378.4,67,409.5,67c0.4,0,0.8,0,1.2,0
				l-0.1,16.7c-27.9-0.2-54.3,8.5-76.6,25.4C311.1,126.4,294.7,151.2,287.7,178.9z"/>
		</g>
	</g>
	<g>
		<g>
			<g>
				<path class="st9" d="M512,268.9v51.8c0,4.8-3.9,8.6-8.6,8.6h-51.8c-4.8,0-8.6-3.9-8.6-8.6v-51.8c0-4.8,3.9-8.6,8.6-8.6h51.8
					C508.1,260.2,512,264.1,512,268.9z"/>
			</g>
		</g>
		<g>
			<g>
				<path class="st14" d="M471.2,260.2v12.1c0,8.9-7.3,16.2-16.2,16.2h-12v-7.3h12c5,0,9-4,9-9v-12.1H471.2z"/>
			</g>
		</g>
		<g>
			<g>
				<path class="st14" d="M512,291.1v7.3h-6.9c-4.5,0-8.2,3.7-8.2,8.2v22.7h-7.3v-22.7c0-8.5,6.9-15.4,15.4-15.4H512z"/>
			</g>
		</g>
		<g>
			<g>
				<path class="st14" d="M512,272.9v7.3h-14.2c-9.2,0-16.7,7.5-16.7,16.7c0,9.6-7.8,17.4-17.4,17.4h-20.8V307h20.8
					c5.6,0,10.1-4.5,10.1-10.1c0-13.2,10.7-23.9,23.9-23.9H512z"/>
			</g>
		</g>
	</g>
	<g>
		<g>
			<path class="st9" d="M563.8,432.3H448.5c-1.8,0-3.3-1.5-3.3-3.3l0,0c0-1.8,1.5-3.3,3.3-3.3h115.2c1.8,0,3.3,1.5,3.3,3.3l0,0
				C567.1,430.8,565.6,432.3,563.8,432.3z"/>
		</g>
		<g>
			<path class="st9" d="M510.9,445.1H447c-1,0-1.9-0.8-1.9-1.9l0,0c0-1,0.8-1.9,1.9-1.9h63.8c1,0,1.9,0.8,1.9,1.9l0,0
				C512.8,444.3,511.9,445.1,510.9,445.1z"/>
		</g>
		<g>
			<path class="st9" d="M585.8,445.1h-63.8c-1,0-1.9-0.8-1.9-1.9l0,0c0-1,0.8-1.9,1.9-1.9h63.8c1,0,1.9,0.8,1.9,1.9l0,0
				C587.6,444.3,586.8,445.1,585.8,445.1z"/>
		</g>
	</g>
	<g>
		<g>
			<path class="st9" d="M522.5,542.3c0-0.9,0.7-1.7,1.6-1.8c1.5-0.2,3.5-0.3,5.9-0.3c3.4,0,5.9,0.7,7.5,2c1.6,1.2,2.6,3.3,2.6,5.7
				c0,2.4-0.8,4.5-2.3,5.8c-1.9,1.8-4.7,2.6-8,2.6c0,0,0,0,0,0c-1,0-1.9,0.8-1.9,1.9v5c0,1-0.8,1.9-1.9,1.9h-1.8
				c-1,0-1.9-0.8-1.9-1.9V542.3z M528,550.2c0,1,0.8,1.9,1.8,1.9c0,0,0,0,0,0c3,0,4.8-1.5,4.8-4c0-2.3-1.6-3.6-4.4-3.6
				c-0.2,0-0.3,0-0.5,0c-1,0-1.8,0.8-1.8,1.9V550.2z"/>
		</g>
		<g>
			<path class="st9" d="M550.6,560.1l-1,3.6c-0.2,0.8-1,1.4-1.8,1.4h-1.8c-1.2,0-2.1-1.2-1.8-2.4l6.4-20.9c0.2-0.8,1-1.3,1.8-1.3
				h4.6c0.8,0,1.5,0.5,1.8,1.3l6.5,20.9c0.4,1.2-0.5,2.4-1.8,2.4h-2.1c-0.8,0-1.5-0.5-1.8-1.3l-1.1-3.7c-0.2-0.8-1-1.3-1.8-1.3h-4.3
				C551.5,558.7,550.8,559.3,550.6,560.1z M554.7,554.5c1.2,0,2.1-1.2,1.8-2.4l-0.8-2.9c-0.4-1.5-0.9-3.3-1.2-4.8h-0.1
				c-0.4,1.5-0.7,3.3-1.1,4.8l-0.8,2.9c-0.3,1.2,0.6,2.4,1.8,2.4H554.7z"/>
		</g>
		<g>
			<path class="st9" d="M575.1,563.2v-7.8c0-0.3-0.1-0.6-0.2-0.9l-6.1-11.4c-0.7-1.2,0.2-2.7,1.6-2.7h2.1c0.7,0,1.4,0.4,1.7,1.1
				l2,4.8c0.8,1.8,1.3,3.1,1.9,4.7h0.1c0.5-1.5,1.1-3,1.9-4.7l2-4.8c0.3-0.7,1-1.1,1.7-1.1h1.8c1.4,0,2.3,1.5,1.6,2.8l-6.3,11.2
				c-0.2,0.3-0.2,0.6-0.2,0.9v7.9c0,1-0.8,1.9-1.9,1.9h-1.8C575.9,565,575.1,564.2,575.1,563.2z"/>
		</g>
	</g>
	<g>
		<path class="st1" d="M560.5,745c0,0-29.3-109.4-21-145.5c8.3-36.1,75.7,145.6,75.7,145.6L560.5,745z"/>
	</g>
	<g>
		<g>
			<g>
				<g>
					<g>
						<g>
							<path class="st5" d="M916.3,982H676.8c-6.3-4.9-13-10.3-20.2-16.5c-0.1-0.1-1.2-1-2.7-2.6c-23.4-25-3.8-82.5,13.5-81.5
								c-13.3-23.4-34.8-65.4-52-103.7c-14.3-31.9-24.4-58-35.7-82.7c-10.9-23.6-21.2-45.6-32.1-67.3c-26.6-52.9,7.1-68.6,26.1-44.1
								c36.4,47,95.3,166.6,101.4,156.2c3.3-5.6-3.5-38.6,34.4-37.4c20.2,0.6,30.1,30.8,34.3,24.2c4.6-7.2-1.7-26.4,29.2-29.6
								c17.7-1.8,27.5,13.3,30.1,10c10.3-12.9,20.9-10.2,31.8-6.6c23.3,7.7,26.4,49.3,48.2,119.1C893,851.2,907,949.4,916.3,982z"/>
						</g>
					</g>
				</g>
			</g>
		</g>
		<g>
			<g>
				<path class="st13" d="M541.2,585.5c0,0,4.6,21.3,12.9,25s22-4.8,22.1-9c0.2-4.2-12.2-24.1-14.8-25.1
					C558.8,575.4,544,580.5,541.2,585.5z"/>
			</g>
		</g>
		<g>
			<g>
				<g>
					<path class="st7" d="M663.9,876.7c8.7,12.8,16.2,26.4,22.5,40.5c0.3,0.8,1.5,0.1,1.2-0.7c-6.3-14.2-13.8-27.7-22.5-40.5
						C664.6,875.3,663.4,876,663.9,876.7L663.9,876.7z"/>
				</g>
			</g>
		</g>
		<g>
			<path class="st5" d="M772.9,982H675c-23.2-19.3-48.7-46.5-64.8-67.1c-25.4-32.4-30.4-41.7-35.4-63.1c-5-21.4-35.4-52.2-35.4-52.3
				c-7.1-7.7,8-21.3,30.8-15.9c22.8,5.4,46.2,41.5,46.2,41.5c8.8,6.7,27.1,30.1,31.9,38.9c1.3,2.5,6.4,5.1,13.9,8.5h0
				c10.5,5.3,53,19.4,88.7,47.2C773.8,937.4,779.2,962.5,772.9,982z"/>
		</g>
		<g>
			<g>
				<path class="st7" d="M653.3,855.8c10.8,20.8,20.1,42.3,27.8,64.4c0.2,0.7,1.4,0.4,1.1-0.3c-7.8-22.2-17.1-43.8-27.9-64.7
					C654,854.6,653,855.2,653.3,855.8L653.3,855.8z"/>
			</g>
		</g>
		<g>
			<g>
				<path class="st7" d="M615.3,824.3c-3.5,0.1-6.9,0.9-10.1,2.3c-0.7,0.3-0.1,1.3,0.6,1c3-1.3,6.2-2,9.5-2.1
					C616.1,825.5,616.1,824.3,615.3,824.3L615.3,824.3z"/>
			</g>
		</g>
		<g>
			<g>
				<path class="st7" d="M613.9,825.2c-1.4,1.1-2.7,2.4-3.8,3.8c-0.5,0.6,0.4,1.4,0.8,0.8c1.1-1.4,2.4-2.7,3.8-3.8
					C615.4,825.5,614.5,824.7,613.9,825.2L613.9,825.2z"/>
			</g>
		</g>
		<g>
			<g>
				<path class="st7" d="M653.4,868.4c-2.1-1.5-4.4-2.3-6.9-2.5c-0.8-0.1-0.8,1.1,0,1.2c2.3,0.2,4.4,1,6.3,2.3
					C653.4,869.8,654,868.8,653.4,868.4L653.4,868.4z"/>
			</g>
		</g>
		<g>
			<g>
				<path class="st7" d="M668.5,736.4c4,4.2,8,8.4,12.1,12.6c0.5,0.6,1.4-0.3,0.8-0.8c-4-4.2-8-8.4-12.1-12.6
					C668.8,735,668,735.8,668.5,736.4L668.5,736.4z"/>
			</g>
		</g>
		<g>
			<g>
				<path class="st7" d="M738.2,726.1c2.9,2.2,6.1,3.6,9.7,4.2c0.7,0.1,1.1-1,0.3-1.1c-3.4-0.5-6.4-1.8-9.1-3.9
					C738.4,724.8,737.5,725.7,738.2,726.1L738.2,726.1z"/>
			</g>
		</g>
		<g>
			<g>
				<path class="st7" d="M798.2,705.2c3.1,3.4,7,5.7,11.5,6.8c0.7,0.2,1.1-1,0.3-1.1c-4.3-1-8-3.2-11-6.5
					C798.5,703.8,797.7,704.7,798.2,705.2L798.2,705.2z"/>
			</g>
		</g>
		<g>
			<path class="st13" d="M568.2,818.3c0.2,3.9-3,7.1-5.7,9c-15.5-14.1-23.6-26.6-23-27.8l0,0c0,0,4.1-7.7,9.5-3.9
				C554.3,799.4,567.9,811.7,568.2,818.3z"/>
		</g>
		<g>
			<g>
				<path class="st7" d="M598,690.9c5.2-4,11.2-6.6,17.8-7.7c0.8-0.1,0.4-1.3-0.3-1.1c-6.6,1.1-12.7,3.7-18,7.8
					C596.8,690.3,597.4,691.3,598,690.9L598,690.9z"/>
			</g>
		</g>
		<g>
			<g>
				<path class="st7" d="M606.3,693.2c1.9-0.7,3.8-1.3,5.7-2c0.7-0.3,0.4-1.4-0.3-1.1c-1.9,0.7-3.8,1.3-5.7,2
					C605.3,692.3,605.6,693.5,606.3,693.2L606.3,693.2z"/>
			</g>
		</g>
		<g class="st6">
			<path class="st16" d="M648.3,864c-9.2,2.5-44.4-33.1-57.8-54.6c-13.4-21.6-44-24.4-44-24.4c5.8-2.6,14-3.7,23.7-1.4
				c22.8,5.4,46.2,41.5,46.2,41.5C625.3,831.8,643.5,855.2,648.3,864z"/>
		</g>
	</g>
	<g>
		<g>
			<g>
				<path class="st9" d="M450.2,386L450.2,386c-2.8,0-5-2.3-5-5v-16.4c0-2.8,2.3-5,5-5l0,0c2.8,0,5,2.3,5,5v16.4
					C455.3,383.7,453,386,450.2,386z"/>
			</g>
			<g>
				<path class="st9" d="M467.5,386L467.5,386c-2.8,0-5-2.3-5-5v-16.4c0-2.8,2.3-5,5-5l0,0c2.8,0,5,2.3,5,5v16.4
					C472.6,383.7,470.3,386,467.5,386z"/>
			</g>
			<g>
				<path class="st9" d="M484.8,386L484.8,386c-2.8,0-5-2.3-5-5v-16.4c0-2.8,2.3-5,5-5h0c2.8,0,5,2.3,5,5v16.4
					C489.9,383.7,487.6,386,484.8,386z"/>
			</g>
			<g>
				<path class="st9" d="M502.1,386L502.1,386c-2.8,0-5-2.3-5-5v-16.4c0-2.8,2.3-5,5-5l0,0c2.8,0,5,2.3,5,5v16.4
					C507.2,383.7,504.9,386,502.1,386z"/>
			</g>
		</g>
		<g>
			<g>
				<path class="st9" d="M548.3,386L548.3,386c-2.8,0-5-2.3-5-5v-16.4c0-2.8,2.3-5,5-5l0,0c2.8,0,5,2.3,5,5v16.4
					C553.3,383.7,551,386,548.3,386z"/>
			</g>
			<g>
				<path class="st9" d="M565.6,386L565.6,386c-2.8,0-5-2.3-5-5v-16.4c0-2.8,2.3-5,5-5l0,0c2.8,0,5,2.3,5,5v16.4
					C570.6,383.7,568.3,386,565.6,386z"/>
			</g>
			<g>
				<path class="st9" d="M582.9,386L582.9,386c-2.8,0-5-2.3-5-5v-16.4c0-2.8,2.3-5,5-5l0,0c2.8,0,5,2.3,5,5v16.4
					C587.9,383.7,585.6,386,582.9,386z"/>
			</g>
			<g>
				<path class="st9" d="M600.1,386L600.1,386c-2.8,0-5-2.3-5-5v-16.4c0-2.8,2.3-5,5-5l0,0c2.8,0,5,2.3,5,5v16.4
					C605.2,383.7,602.9,386,600.1,386z"/>
			</g>
		</g>
		<g>
			<g>
				<path class="st9" d="M744.3,386L744.3,386c-2.8,0-5-2.3-5-5v-16.4c0-2.8,2.3-5,5-5l0,0c2.8,0,5,2.3,5,5v16.4
					C749.3,383.7,747.1,386,744.3,386z"/>
			</g>
			<g>
				<path class="st9" d="M761.6,386L761.6,386c-2.8,0-5-2.3-5-5v-16.4c0-2.8,2.3-5,5-5l0,0c2.8,0,5,2.3,5,5v16.4
					C766.6,383.7,764.4,386,761.6,386z"/>
			</g>
			<g>
				<path class="st9" d="M778.9,386L778.9,386c-2.8,0-5-2.3-5-5v-16.4c0-2.8,2.3-5,5-5l0,0c2.8,0,5,2.3,5,5v16.4
					C783.9,383.7,781.7,386,778.9,386z"/>
			</g>
			<g>
				<path class="st9" d="M796.2,386L796.2,386c-2.8,0-5-2.3-5-5v-16.4c0-2.8,2.3-5,5-5l0,0c2.8,0,5,2.3,5,5v16.4
					C801.2,383.7,799,386,796.2,386z"/>
			</g>
		</g>
		<g>
			<g>
				<path class="st9" d="M646.3,386L646.3,386c-2.8,0-5-2.3-5-5v-16.4c0-2.8,2.3-5,5-5l0,0c2.8,0,5,2.3,5,5v16.4
					C651.3,383.7,649.1,386,646.3,386z"/>
			</g>
			<g>
				<path class="st9" d="M663.6,386L663.6,386c-2.8,0-5-2.3-5-5v-16.4c0-2.8,2.3-5,5-5l0,0c2.8,0,5,2.3,5,5v16.4
					C668.6,383.7,666.3,386,663.6,386z"/>
			</g>
			<g>
				<path class="st9" d="M680.9,386L680.9,386c-2.8,0-5-2.3-5-5v-16.4c0-2.8,2.3-5,5-5l0,0c2.8,0,5,2.3,5,5v16.4
					C685.9,383.7,683.6,386,680.9,386z"/>
			</g>
			<g>
				<path class="st9" d="M698.2,386L698.2,386c-2.8,0-5-2.3-5-5v-16.4c0-2.8,2.3-5,5-5l0,0c2.8,0,5,2.3,5,5v16.4
					C703.2,383.7,700.9,386,698.2,386z"/>
			</g>
		</g>
	</g>
</g>
</svg>
