<?xml version="1.0" encoding="utf-8"?>
<!-- Generator: Adobe Illustrator 23.0.2, SVG Export Plug-In . SVG Version: 6.00 Build 0)  -->
<svg version="1.1" id="Layer_1" xmlns="http://www.w3.org/2000/svg" xmlns:xlink="http://www.w3.org/1999/xlink" x="0px" y="0px"
	 viewBox="0 0 1080 1080" style="enable-background:new 0 0 1080 1080;" xml:space="preserve">
<style type="text/css">
	.st0{fill:#EAF6FF;}
	.st1{fill:#D8ECFE;}
	.st2{fill:#4FC123;}
	.st3{fill:#47A920;}
	.st4{fill:#FFFFFF;}
	.st5{fill:#F3F0F3;}
	.st6{fill:#8AC9FE;}
	.st7{fill:#0593FC;}
	.st8{fill:#0182FC;}
	.st9{fill:#60B7FF;}
	.st10{fill:#EFEFEF;}
	.st11{fill:#B3DAFE;}
	.st12{fill:#FBC533;}
	.st13{fill:#FFD54B;}
	.st14{fill:#EF9C35;}
	.st15{fill:#FBBE3D;}
	.st16{fill:#B5843A;}
	.st17{fill:#8F5F00;}
	.st18{fill:#7A4818;}
</style>
<g>
	<path class="st0" d="M644.5,889c0-95.4,77.6-173,173-173c31.2,0,60.4,8.3,85.7,22.8V26.4c0-5.8-4.7-10.5-10.5-10.5H155.7
		c-5.8,0-10.5,4.7-10.5,10.5v1003.9c0,5.8,4.7,10.5,10.5,10.5h579C681,1011.5,644.5,954.5,644.5,889L644.5,889z"/>
	<g>
		<path class="st1" d="M240.2,1030.4V26.4c0-5.8,4.7-10.5,10.5-10.5h-95c-5.8,0-10.5,4.7-10.5,10.5v1003.9c0,5.8,4.7,10.5,10.5,10.5
			h95C244.9,1040.9,240.2,1036.2,240.2,1030.4z"/>
	</g>
	<g>
		<g>
			<path class="st2" d="M499.9,946.8H216.7c-3.6,0-6.4-2.9-6.4-6.4v-48.2c0-3.6,2.9-6.4,6.4-6.4h283.2c3.6,0,6.4,2.9,6.4,6.4v48.2
				C506.3,943.9,503.5,946.8,499.9,946.8z"/>
		</g>
		<g>
			<path class="st3" d="M281.5,940.3v-48.2c0-3.6,2.9-6.4,6.4-6.4h-71.2c-3.6,0-6.4,2.9-6.4,6.4v48.2c0,3.6,2.9,6.4,6.4,6.4h71.2
				C284.3,946.8,281.5,943.9,281.5,940.3z"/>
		</g>
	</g>
	<g>
		<g>
			<path class="st4" d="M225.6,383h597.1V637H225.6V383z"/>
		</g>
		<g>
			<path class="st5" d="M225.6,383h54.1V637h-54.1V383z"/>
		</g>
		<g>
			<path class="st6" d="M611,383h211.7V637H611V383z"/>
		</g>
	</g>
	<g>
		<g>
			<g>
				<path class="st7" d="M831.7,186.9H518.5c-3.6,0-6.4-2.9-6.4-6.4v-48.6c0-3.6,2.9-6.4,6.4-6.4h313.2c3.6,0,6.4,2.9,6.4,6.4v48.6
					C838.1,184,835.2,186.9,831.7,186.9z"/>
			</g>
		</g>
		<g>
			<path class="st8" d="M583,180.5v-48.6c0-3.6,2.9-6.4,6.4-6.4h-70.9c-3.6,0-6.4,2.9-6.4,6.4v48.6c0,3.6,2.9,6.4,6.4,6.4h70.9
				C585.9,186.9,583,184,583,180.5z"/>
		</g>
	</g>
	<g>
		<path class="st9" d="M757.5,726.7c-2.8-2.8-6.6-4.6-10.9-4.6H420.5c-8.5,0-15.4,6.9-15.4,15.4s6.9,15.4,15.4,15.4h290.4
			C724.9,741.9,740.5,733,757.5,726.7L757.5,726.7z"/>
		<path class="st9" d="M672.9,794.2H420.5c-8.5,0-15.4,6.9-15.4,15.4c0,8.5,6.9,15.4,15.4,15.4h236.4
			C661.2,814.1,666.6,803.8,672.9,794.2z"/>
		<g>
			<path class="st9" d="M363.3,752.9H225.6c-8.5,0-15.4-6.9-15.4-15.4c0-8.5,6.9-15.4,15.4-15.4h137.6c8.5,0,15.4,6.9,15.4,15.4
				C378.6,746,371.7,752.9,363.3,752.9L363.3,752.9z"/>
		</g>
		<g>
			<path class="st9" d="M363.3,824.9H225.6c-8.5,0-15.4-6.9-15.4-15.4c0-8.5,6.9-15.4,15.4-15.4h137.6c8.5,0,15.4,6.9,15.4,15.4
				C378.6,818,371.7,824.9,363.3,824.9L363.3,824.9z"/>
		</g>
	</g>
	<g>
		<g>
			<circle class="st10" cx="817.5" cy="889" r="175.1"/>
		</g>
		<g>
			<circle class="st2" cx="817.5" cy="889" r="116.1"/>
		</g>
		<g>
			<path class="st3" d="M779.6,889c0-50.3,32.2-93.2,77-109.3c-12.2-4.4-25.4-6.8-39.1-6.8c-64,0-116.1,52.1-116.1,116.1
				c0,64,52.1,116.1,116.1,116.1c13.7,0,26.9-2.4,39.1-6.8C811.8,982.2,779.6,939.3,779.6,889L779.6,889z"/>
		</g>
		<g>
			<path class="st4" d="M809.6,941c-4.1,0-8-1.6-10.9-4.5l-48.6-48.6c-6-6-6-15.7,0-21.7c6-6,15.7-6,21.7,0l37.8,37.8l53.7-53.7
				c6-6,15.7-6,21.7,0c6,6,6,15.7,0,21.7l-64.5,64.5C817.5,939.4,813.6,941,809.6,941L809.6,941z"/>
		</g>
	</g>
	<g>
		<path class="st6" d="M822.7,260H670.3c-8.5,0-15.4-6.9-15.4-15.4c0-8.5,6.9-15.4,15.4-15.4h152.5c8.5,0,15.4,6.9,15.4,15.4
			C838.1,253.1,831.2,260,822.7,260z"/>
	</g>
	<path class="st11" d="M822.7,367.6H225.6c-8.5,0-15.4,6.9-15.4,15.4V637c0,8.5,6.9,15.4,15.4,15.4h597.1c8.5,0,15.4-6.9,15.4-15.4
		V383C838.1,374.5,831.2,367.6,822.7,367.6z M241,483h56.1v54H241V483z M595.6,537H327.8v-54h267.8V537z M626.4,537v-54h181v54
		H626.4z M807.4,567.7v54h-181v-54H807.4z M595.6,452.3H327.8v-54h267.8V452.3z M327.8,567.7h267.8v54H327.8V567.7z M807.4,452.3
		h-181v-54h181V452.3z M297.1,398.3v54H241v-54H297.1z M241,567.7h56.1v54H241V567.7z"/>
	<g id="flat">
		<circle class="st12" cx="338.2" cy="186.9" r="93.4"/>
		<path class="st13" d="M338.2,93.5c-14.9,0-29.5,3.5-42.7,10.3c-21.2,17.1-38.4,44-38.4,73.4c0,62.7,40.9,94,92.5,94
			c16.4-0.4,32.6-4.3,47.3-11.6c40.2-32.4,46.5-91.2,14.1-131.4C393.2,106.3,366.4,93.5,338.2,93.5z"/>
		<path class="st14" d="M333.7,104c-47,0-85.1,38.1-85.1,85.1s38.1,85.1,85.1,85.1s85.1-38.1,85.1-85.1l0,0
			C418.8,142.1,380.7,104,333.7,104L333.7,104z M333.7,267.6c-43.4,0-78.6-35.2-78.6-78.6s35.2-78.6,78.6-78.6
			c43.4,0,78.6,35.2,78.6,78.6c0,0,0,0,0,0C412.2,232.4,377.1,267.6,333.7,267.6z"/>
		<path class="st15" d="M338.3,101.8c-47,0-85.1,38.1-85.1,85.1s38.1,85.1,85.1,85.1s85.1-38.1,85.1-85.1l0,0
			C423.3,139.9,385.3,101.8,338.3,101.8z M338.3,265.4c-43.4,0-78.6-35.2-78.6-78.6c0-43.4,35.2-78.6,78.6-78.6s78.6,35.2,78.6,78.6
			c0,0,0,0,0,0C416.8,230.2,381.6,265.4,338.3,265.4L338.3,265.4z"/>
	</g>
	<g id="Layer_1_copy">
		<path class="st16" d="M361.3,159.5h-4.5c-0.9-2.6-2.2-5.1-3.8-7.4h8.3c3.4,0,6.2-2.8,6.2-6.2c0-3.4-2.8-6.2-6.2-6.2h-31.7
			c-0.2,0-0.4,0-0.7,0h-16.5c-3.4,0-6.2,2.8-6.2,6.2c0,3.4,2.8,6.2,6.2,6.2H329c5.6,0,10.9,2.8,14,7.4h-30.3c-3.4,0-6.2,2.8-6.2,6.2
			s2.8,6.2,6.2,6.2h33c-1.4,8.2-8.5,14.2-16.8,14.3h-16.5c-3.4,0-6.2,2.8-6.2,6.2c0,1.6,0.6,3.1,1.7,4.3l33.7,35.5
			c2.3,2.5,6.3,2.7,8.8,0.3c2.5-2.3,2.7-6.3,0.3-8.8c0,0-0.1-0.1-0.1-0.1l-23.7-25h2c15.2,0,27.9-11.6,29.4-26.7h3
			c3.4,0,6.2-2.8,6.2-6.2C367.6,162.3,364.8,159.5,361.3,159.5L361.3,159.5z"/>
		<path class="st17" d="M346.2,232.1c-1.1,0-2.2-0.5-3-1.3l-33.7-35.5c-1.6-1.7-1.5-4.3,0.2-5.9c0.8-0.7,1.8-1.1,2.9-1.1H329
			c9.3,0,17.3-6.8,18.8-16l0.4-2.4h-35.5c-2.3,0-4.2-1.9-4.2-4.2c0-2.3,1.9-4.2,4.2-4.2H347l-2.2-3.3c-3.6-5.2-9.5-8.3-15.8-8.3
			h-16.5c-2.3,0-4.2-1.9-4.2-4.2s1.9-4.2,4.2-4.2H329l0.7,0h31.7c2.3,0,4.2,1.9,4.2,4.2s-1.9,4.2-4.2,4.2h-12.3l2.3,3.3
			c1.5,2.1,2.7,4.4,3.5,6.9l0.5,1.4h6c2.3,0,4.2,1.9,4.2,4.2s-1.9,4.2-4.2,4.2h-4.9l-0.2,1.9c-1.3,14.1-13.1,24.9-27.3,24.8h-6.8
			l27,28.5c1.6,1.7,1.5,4.3-0.2,5.9C348.3,231.7,347.3,232.1,346.2,232.1L346.2,232.1z"/>
		<g>
			<path class="st18" d="M329,188.3h-16.5c-1.2,0-2.2,0.5-3,1.3c0.3-0.1,0.7-0.1,1-0.1h16.5c3.8,0,7.5-1.1,10.6-3.2
				C334.9,187.6,332,188.3,329,188.3L329,188.3z"/>
			<path class="st18" d="M309.7,162.9c0.3-0.1,0.7-0.1,1-0.1H345l-0.8-1.2h-31.4C311.6,161.6,310.5,162.1,309.7,162.9z"/>
			<path class="st18" d="M310.5,142.9H327l0.7,0h31.7c2.3,0,4.2,1.9,4.2,4.2c0,1.1-0.4,2.1-1.1,2.8c2.2-0.5,3.6-2.8,3-5
				c-0.5-1.9-2.1-3.2-4-3.2h-31.7l-0.7,0h-16.5c-1.1,0-2.2,0.5-3,1.3C309.8,142.9,310.2,142.9,310.5,142.9z"/>
			<path class="st18" d="M361.3,161.6h-6l-0.5-1.4c-0.8-2.4-2-4.8-3.5-6.9l-1.5-2.1H347l2.3,3.3c1.5,2.1,2.7,4.4,3.5,6.9l0.5,1.4h6
				c2.3,0,4.2,1.9,4.2,4.2c0,1.1-0.4,2.1-1.1,2.8c2.2-0.5,3.6-2.8,3-5C364.9,162.9,363.3,161.6,361.3,161.6L361.3,161.6z"/>
			<path class="st18" d="M354.4,171.1l-0.2,1.9c-0.8,8.4-5.3,15.9-12.4,20.5c8.2-4.3,13.6-12.5,14.4-21.7l0.1-0.7L354.4,171.1z"/>
			<path class="st18" d="M323.3,197.8h-3.2l27,28.5c1.5,1.6,1.5,4.1,0,5.7c2.2-0.5,3.6-2.8,3-5c-0.2-0.7-0.5-1.3-1-1.9L323.3,197.8z
				"/>
		</g>
	</g>
</g>
</svg>
