<svg id="Layer_1" enable-background="new 0 0 471.366 471.366" height="512" viewBox="0 0 471.366 471.366" width="512" xmlns="http://www.w3.org/2000/svg"><g><path d="m456.546 349.367c-19.644 27.551-5.609 7.865-69.39 97.33 0 0-27.94 48.19-75.43 9.78l-295.42-310.43s-19.55-35.62 13.27-54.82c132.22-52.434 102.806-40.768 141.78-56.23 0 0 24.44-8.72 61.45 35.97 31.26 37.74 177.26 198.95 221.97 248.23 7.61 8.39 8.35 20.95 1.77 30.17z" fill="#52528c"/><path d="m441.416 370.587-54.26 76.11s-27.94 48.19-75.43 9.78l-295.42-310.43s-19.55-35.62 13.27-54.82l112.44-44.59c38.17 76.86 137.18 246.329 299.4 323.95z" fill="#404077"/><path d="m434.156 344.736c-12.387 17.374-64.115 89.934-64.18 90.05-5.89 9.73-19.52 11.01-27.2 2.62l-285.55-312.09c-8.07-8.83-4.81-23.02 6.32-27.43l14.67-5.81 8.59 7.31c7.15 6.09 17.21 7.46 25.73 3.51l37.65-17.44c10.271-4.763 15.927-16.076 13.36-27.24l7.62-3.02s22.53-8.03 56.64 33.17c28.85 34.82 163.75 183.77 204.75 228.96 6.91 7.62 7.58 19.031 1.6 27.41z" fill="#baedfe"/><path d="m422.556 361.007c-53.966 75.706-52.508 73.65-52.58 73.78-5.89 9.73-19.52 11.01-27.2 2.62l-285.55-312.09c-8.07-8.83-4.81-23.02 6.32-27.43l14.67-5.81 8.59 7.31c7.15 6.09 17.21 7.46 25.73 3.51l37.65-17.44c3.45-1.6 6.36-3.93 8.62-6.72 44.51 81.12 131.97 211.4 263.75 282.27z" fill="#9ae1ff"/><path d="m154.316 416.087c-23.646 49.46-79.99 70.967-119.57 42.66-30.85-22.11-40.38-68.56-20.7-109.73 19.7-41.18 61.84-62.93 98.42-52.78 47.106 13.099 65.406 70.6 41.85 119.85z" fill="#edd15a"/><path d="m133.156 405.966c-19.69 41.18-61.84 62.93-98.41 52.78-30.85-22.11-40.38-68.56-20.7-109.73 19.7-41.18 61.84-62.93 98.42-52.78 30.85 22.101 40.38 68.561 20.69 109.73z" fill="#fae26b"/><ellipse cx="66.11" cy="377.079" fill="#edd15a" rx="62.546" ry="44.28" transform="matrix(.431 -.902 .902 .431 -302.596 274.051)"/><path d="m421.016 279.917c.03 3.51-.68 6.98-2.09 10.2-16.96 38.55-50.73 73.43-76.5 96.2-14.32 12.648-36.974 5.094-40.79-13.58-27.89-135.98-98.42-199.96-134.22-224.48-11.58-7.93-14.26-23.99-5.84-35.22 30.68-40.915 71.51-78.873 112.62-108.37 10.52-7.54 25.08-5.78 33.44 4.1 105.81 124.949 113.12 244.8 113.38 271.15z" fill="#79e9b3"/><path d="m421.016 279.917c.03 3.51-.68 6.98-2.09 10.2-16.96 38.55-50.73 73.43-76.5 96.2-10.79 9.53-26.32 7.6-34.95-1.95 35.78-158.63-11.11-307.24-38.88-375.62 1.96-1.45 3.83-2.81 5.6-4.08 10.52-7.54 25.08-5.78 33.44 4.1 105.81 124.949 113.12 244.8 113.38 271.15z" fill="#14d2aa"/><path d="m390.866 282.627c-13.19 20.08-30.18 37.85-44.2 50.83-7.247-20.006-34.667-17.199-34.99-17.53-23.31-82.57-74.86-140.3-105.22-168.6 15.9-20.19 5.23-40.8-2.21-50.95 19.25-24.41 40.03-43.11 56.63-56.05 15.196 11.5 33.367 12.899 50.83 1.24 51.52 68.4 76.86 146.3 87.36 186.56-8.35 8.88-19.71 27.21-8.2 54.5z" fill="#b4ffc6"/><path d="m390.866 282.627c-13.19 20.08-30.18 37.85-44.2 50.83-4.64-12.81-17.61-16.59-28.52-17.37 9.56-106.01-12.94-202.46-34.47-266.57 8.17.72 17.71-1.06 28.03-7.95 51.52 68.4 76.86 146.3 87.36 186.56-8.35 8.88-19.71 27.21-8.2 54.5z" fill="#79e9b3"/><path d="m442.406 152.946c-33.649 26.844-86.296 10.566-108.62-36.12-21.389-44.73-3.599-93.312 34.49-105.69 33.1-10.91 72.19 8.45 90.18 46.07 16.99 35.53 9.5 75.481-16.05 95.74z" fill="#edd15a"/><path d="m442.406 152.946c-33.1 10.9-72.17-8.48-90.16-46.09-16.98-35.52-9.5-75.46 16.03-95.72 33.1-10.91 72.19 8.45 90.18 46.07 16.99 35.53 9.5 75.481-16.05 95.74z" fill="#fae26b"/><ellipse cx="412.186" cy="82.154" fill="#edd15a" rx="39.355" ry="55.588" transform="matrix(.902 -.431 .431 .902 4.886 185.853)"/></g></svg>