<svg id="Icons" height="512" viewBox="0 0 60 60" width="512" xmlns="http://www.w3.org/2000/svg"><path d="m59 9v47a3 3 0 0 1 -3 3h-52a3 3 0 0 1 -3-3v-47l1-1h56z" fill="#e1e9f4"/><path d="m59 4v5h-58v-5a3 3 0 0 1 3-3h52a3 3 0 0 1 3 3z" fill="#293e72"/><path d="m21.73 36.04a12.059 12.059 0 0 1 -13.22-2.55l1.49-4.49 4.17-1.17a4.025 4.025 0 0 0 2.83 1.17 3.906 3.906 0 0 0 1.57-.33l2.43 2.33z" fill="#23a8fe"/><rect fill="#23a8fe" height="10" rx="1" width="4" x="34" y="27"/><rect fill="#f9656f" height="20" rx="1" width="4" x="38" y="17"/><rect fill="#f9c32d" height="15" rx="1" width="4" x="42" y="22"/><rect fill="#79de89" height="24" rx="1" width="4" x="46" y="13"/><rect fill="#23a8fe" height="18" rx="1" width="4" x="50" y="19"/><path d="m17 13 1 4-1 4a4 4 0 0 0 -2.83 6.83l-5.66 5.66a12.007 12.007 0 0 1 8.49-20.49z" fill="#79de89"/><path d="m29 25-5 1-3-1a4 4 0 0 0 -4-4v-8a12 12 0 0 1 12 12z" fill="#f9656f"/><path d="m29 25a12.026 12.026 0 0 1 -7.27 11.04l-3.16-7.37a3.976 3.976 0 0 0 2.43-3.67z" fill="#f9c32d"/><path d="m6 6h-1a1 1 0 0 1 0-2h1a1 1 0 0 1 0 2z" fill="#fff"/><path d="m11 6h-1a1 1 0 0 1 0-2h1a1 1 0 0 1 0 2z" fill="#fff"/><path d="m16 6h-1a1 1 0 0 1 0-2h1a1 1 0 0 1 0 2z" fill="#fff"/><path d="m55 6h-6a1 1 0 0 1 0-2h6a1 1 0 0 1 0 2z" fill="#1d2e49"/><g fill="#abbad3"><path d="m54 43h-20a1 1 0 0 1 0-2h20a1 1 0 0 1 0 2z"/><path d="m54 47h-20a1 1 0 0 1 0-2h20a1 1 0 0 1 0 2z"/><path d="m54 51h-20a1 1 0 0 1 0-2h20a1 1 0 0 1 0 2z"/><path d="m54 55h-20a1 1 0 0 1 0-2h20a1 1 0 0 1 0 2z"/><path d="m27 43h-20a1 1 0 0 1 0-2h20a1 1 0 0 1 0 2z"/><path d="m27 47h-20a1 1 0 0 1 0-2h20a1 1 0 0 1 0 2z"/><path d="m27 51h-20a1 1 0 0 1 0-2h20a1 1 0 0 1 0 2z"/><path d="m27 55h-20a1 1 0 0 1 0-2h20a1 1 0 0 1 0 2z"/></g></svg>