<?xml version="1.0" encoding="utf-8"?>
<!-- Generator: Adobe Illustrator 23.0.2, SVG Export Plug-In . SVG Version: 6.00 Build 0)  -->
<svg version="1.1" id="Layer_1" xmlns="http://www.w3.org/2000/svg" xmlns:xlink="http://www.w3.org/1999/xlink" x="0px" y="0px"
	 viewBox="0 0 1080 1080" style="enable-background:new 0 0 1080 1080;" xml:space="preserve">
<style type="text/css">
	.st0{fill:#262626;}
	.st1{fill:#4E4E4E;}
	.st2{fill:#333333;}
	.st3{fill:#696969;}
	.st4{fill:#B5BB92;}
	.st5{fill:#D6DCB3;}
	.st6{fill:#777E4A;}
	.st7{fill:#A1A685;}
	.st8{fill:#B42A27;}
	.st9{fill:#FF8E8A;}
	.st10{fill:#FF4F4A;}
	.st11{fill:#787878;}
	.st12{fill:#A8A8A8;}
	.st13{fill:#919191;}
	.st14{fill:#383838;}
	.st15{fill:#808080;}
	.st16{fill:#666666;}
	.st17{fill:#FFBB8B;}
	.st18{fill:#FF8C40;}
	.st19{fill:#C05F22;}
	.st20{fill:#FFFFFF;}
	.st21{fill:#BC8E48;}
	.st22{fill:#FFF8C3;}
	.st23{fill:#6E6E6E;}
	.st24{fill:#D4D4D4;}
	.st25{fill:#B6CDCE;}
	.st26{fill:#7E8D8E;}
	.st27{fill:#C7275F;}
	.st28{fill:#DE467B;}
	.st29{fill:#F1BA80;}
	.st30{fill:#D89146;}
	.st31{fill:#E5A868;}
	.st32{fill:#EFD199;}
	.st33{fill:#FF930C;}
	.st34{fill:#FFAA3D;}
	.st35{fill:#F27800;}
	.st36{fill:#585955;}
	.st37{fill:#8E8F8A;}
	.st38{fill:#F57CA7;}
	.st39{fill:#F16A9A;}
	.st40{fill:#E79013;}
	.st41{fill:#ECA43E;}
	.st42{fill:#B16B04;}
	.st43{fill:#F2F2F2;}
	.st44{fill:#76E45B;}
	.st45{fill:#CCCCCC;}
	.st46{fill:#34424D;}
	.st47{fill:#FF5E58;}
	.st48{fill:#00B6A5;}
	.st49{fill:#FFB244;}
	.st50{fill:#DB9022;}
	.st51{fill:#FFCE8A;}
	.st52{fill:#D99836;}
	.st53{fill:#FFD959;}
	.st54{fill:#EEC128;}
	.st55{fill:#FFE691;}
	.st56{fill:#5B5C58;}
	.st57{fill:#353633;}
	.st58{fill:#26323E;}
	.st59{fill:#FFBB80;}
	.st60{fill:#DB8A44;}
	.st61{fill:#684729;}
	.st62{fill:#404040;}
	.st63{fill:#616161;}
	.st64{fill:#1A1A1A;}
	.st65{fill:#A7ACB0;}
	.st66{fill:#D9DFE4;}
	.st67{opacity:0.2;fill:#E0E0E0;}
	.st68{opacity:0.4;fill:#E0E0E0;}
	.st69{opacity:0.3;fill:#FFFFFF;}
	.st70{fill:#A3CEFF;}
	.st71{fill:#9DB0C0;}
	.st72{fill:#DDE5FA;}
	.st73{fill:#596F89;}
	.st74{opacity:0.5;fill:#2E2E2E;}
	.st75{opacity:0.2;}
	.st76{fill:#5A697B;}
	.st77{fill:#C5E0FF;}
	.st78{fill:#0B0F13;}
	.st79{fill:#F7A865;}
	.st80{fill:#727371;}
	.st81{fill:#ACADAA;}
	.st82{fill:#474746;}
	.st83{fill:#BDBDBD;}
	.st84{fill:#757575;}
	.st85{fill:#DFDFDF;}
	.st86{opacity:0.15;fill:#4AC9F6;}
	.st87{opacity:0.26;fill:#FFFFFF;}
	.st88{fill:#FFD5AF;}
</style>
<g>
	<g>
		<path class="st0" d="M683.4,678.6c-9.3-8.7-9.9-23.2-1.3-32.3l205.8-219.4c4.2-4.4,9.8-6.9,16-7.1c6.1-0.1,11.9,2.1,16.4,6.3
			L1058.6,556c9.3,8.7,9.8,23.2,1.3,32.3L854.1,807.7c-8.6,9.1-23.1,9.5-32.4,0.8L683.4,678.6z"/>
		<path class="st1" d="M1057.4,557.3c8.6,8,9.1,21.4,1.2,29.9L852.8,806.5c-7.9,8.4-21.3,8.7-29.9,0.7L684.6,677.4
			c-8.6-8-9.1-21.4-1.2-29.9l205.8-219.4c3.8-4.1,9.1-6.4,14.7-6.5c5.6-0.1,11,2,15.2,5.8C919,427.5,1057.4,557.3,1057.4,557.3z"/>
		<path class="st2" d="M1064,569.9c-0.3,4.6-2.2,9-5.5,12.6L852.7,801.9c-7.9,8.4-21.3,8.7-29.9,0.7L684.4,672.8
			c-3.7-3.5-5.9-8-6.6-12.6c-0.5,6.2,1.8,12.6,6.7,17.2L823,807.2c8.6,8,22,7.7,29.9-0.7l205.8-219.4
			C1063.1,582.4,1064.9,576,1064,569.9z"/>
		<path class="st3" d="M683.5,652.6l205.8-219.4c3.8-4.1,9.1-6.4,14.7-6.5c5.6-0.1,11,2,15.2,5.8c0,0,138.4,129.9,138.4,129.9
			c3.6,3.4,5.8,7.8,6.5,12.4c0.5-6.3-1.7-12.8-6.7-17.5c0,0-138.4-129.9-138.4-129.9c-4.1-3.9-9.5-6-15.2-5.8
			c-5.7,0.1-10.9,2.4-14.7,6.5L683.3,647.5c-4.5,4.8-6.3,11.3-5.3,17.5C678.4,660.5,680.2,656.1,683.5,652.6z"/>
	</g>
	<g>
		<path class="st4" d="M1007.6,608.9L870.7,480.5c-3.1-2.9-3.3-7.8-0.3-10.9l27.5-29.4c2.9-3.1,7.8-3.3,10.9-0.3l136.9,128.4
			c3.1,2.9,3.3,7.8,0.3,10.9l-27.5,29.4C1015.6,611.7,1010.7,611.8,1007.6,608.9z"/>
		<path class="st5" d="M1048,572.6c-0.2,1.6-0.8,3.2-2,4.4l-27.5,29.4c-2.9,3.1-7.8,3.3-10.9,0.3L870.6,478.3
			c-1.3-1.2-2-2.7-2.3-4.3c-0.3,2.3,0.5,4.8,2.4,6.5l136.9,128.4c3.1,2.9,8,2.8,10.9-0.3l27.5-29.4
			C1047.8,577.4,1048.5,574.9,1048,572.6z"/>
		<path class="st6" d="M870.5,472.2l27.5-29.4c2.9-3.1,7.8-3.3,10.9-0.3L1045.8,571c1.2,1.1,2,2.6,2.3,4.1c0.3-2.4-0.4-4.9-2.4-6.7
			L908.8,439.8c-3.1-2.9-8-2.8-10.9,0.3l-27.5,29.4c-1.8,1.9-2.4,4.5-1.9,6.9C868.7,474.9,869.3,473.4,870.5,472.2z"/>
		<g>
			<path class="st7" d="M892.7,459.3l7.6-8.1l2.8-0.1l0.1,2.8l-7.6,8.1l-2.8,0.1L892.7,459.3z M889.2,463.1l2.8-0.1l0.1,2.8l-7.5,8
				l-2.8,0.1l-0.1-2.8L889.2,463.1z M906.6,451l8,7.5l0.1,2.8l-2.8,0.1l-8-7.5l-0.1-2.8L906.6,451z M895.6,462.9l8,7.5l0.1,2.8
				l-2.8,0.1l-8-7.5l-0.1-2.8L895.6,462.9z M892.5,482.2l0.1,2.8l-2.8,0.1l-8-7.5l-0.1-2.8l2.8-0.1L892.5,482.2z M904.5,470.4
				l7.6-8.1l2.8-0.1l0.1,2.8l-7.6,8.1l-2.8,0.1L904.5,470.4z M900.9,474.1l2.8-0.1l0.1,2.8l-7.5,8l-2.8,0.1l-0.1-2.8L900.9,474.1z"
				/>
			<path class="st7" d="M909.9,475.4l7.6-8.1l2.8-0.1l0.1,2.8l-7.6,8.1l-2.8,0.1L909.9,475.4z M906.3,479.2l2.8-0.1l0.1,2.8l-7.5,8
				l-2.8,0.1l-0.1-2.8L906.3,479.2z M923.8,467.1l8,7.5l0.1,2.8l-2.8,0.1l-8-7.5l-0.1-2.8L923.8,467.1z M912.7,479l8,7.5l0.1,2.8
				l-2.8,0.1l-8-7.5l-0.1-2.8L912.7,479z M909.7,498.3l0.1,2.8l-2.8,0.1l-8-7.5l-0.1-2.8l2.8-0.1L909.7,498.3z M921.6,486.5l7.6-8.1
				l2.8-0.1l0.1,2.8l-7.6,8.1l-2.8,0.1L921.6,486.5z M918.1,490.2l2.8-0.1l0.1,2.8l-7.5,8l-2.8,0.1l-0.1-2.8L918.1,490.2z"/>
			<path class="st7" d="M927,491.5l7.6-8.1l2.8-0.1l0.1,2.8l-7.6,8.1l-2.8,0.1L927,491.5z M923.5,495.3l2.8-0.1l0.1,2.8l-7.5,8
				l-2.8,0.1l-0.1-2.8L923.5,495.3z M941,483.3l8,7.5l0.1,2.8l-2.8,0.1l-8-7.5l-0.1-2.8L941,483.3z M929.9,495.1l8,7.5l0.1,2.8
				l-2.8,0.1l-8-7.5l-0.1-2.8L929.9,495.1z M926.9,514.4l0.1,2.8l-2.8,0.1l-8-7.5l-0.1-2.8l2.8-0.1L926.9,514.4z M938.8,502.6
				l7.6-8.1l2.8-0.1l0.1,2.8l-7.6,8.1l-2.8,0.1L938.8,502.6z M935.3,506.4l2.8-0.1l0.1,2.8l-7.5,8l-2.8,0.1l-0.1-2.8L935.3,506.4z"
				/>
			<path class="st7" d="M944.2,507.6l7.6-8.1l2.8-0.1l0.1,2.8l-7.6,8.1l-2.8,0.1L944.2,507.6z M940.7,511.4l2.8-0.1l0.1,2.8l-7.5,8
				l-2.8,0.1l-0.1-2.8L940.7,511.4z M958.2,499.4l8,7.5l0.1,2.8l-2.8,0.1l-8-7.5l-0.1-2.8L958.2,499.4z M947.1,511.2l8,7.5l0.1,2.8
				l-2.8,0.1l-8-7.5l-0.1-2.8L947.1,511.2z M944,530.5l0.1,2.8l-2.8,0.1l-8-7.5l-0.1-2.8l2.8-0.1L944,530.5z M956,518.7l7.6-8.1
				l2.8-0.1l0.1,2.8l-7.6,8.1l-2.8,0.1L956,518.7z M952.5,522.5l2.8-0.1l0.1,2.8l-7.5,8l-2.8,0.1l-0.1-2.8L952.5,522.5z"/>
			<path class="st7" d="M961.4,523.7l7.6-8.1l2.8-0.1l0.1,2.8l-7.6,8.1l-2.8,0.1L961.4,523.7z M957.8,527.5l2.8-0.1l0.1,2.8l-7.5,8
				l-2.8,0.1l-0.1-2.8L957.8,527.5z M975.3,515.5l8,7.5l0.1,2.8l-2.8,0.1l-8-7.5l-0.1-2.8L975.3,515.5z M964.2,527.3l8,7.5l0.1,2.8
				l-2.8,0.1l-8-7.5l-0.1-2.8L964.2,527.3z M961.2,546.6l0.1,2.8l-2.8,0.1l-8-7.5l-0.1-2.8l2.8-0.1L961.2,546.6z M973.2,534.8
				l7.6-8.1l2.8-0.1l0.1,2.8l-7.6,8.1l-2.8,0.1L973.2,534.8z M969.6,538.6l2.8-0.1l0.1,2.8l-7.5,8l-2.8,0.1l-0.1-2.8L969.6,538.6z"
				/>
			<path class="st7" d="M978.6,539.9l7.6-8.1l2.8-0.1l0.1,2.8l-7.6,8.1l-2.8,0.1L978.6,539.9z M975,543.6l2.8-0.1l0.1,2.8l-7.5,8
				l-2.8,0.1l-0.1-2.8L975,543.6z M992.5,531.6l8,7.5l0.1,2.8l-2.8,0.1l-8-7.5l-0.1-2.8L992.5,531.6z M981.4,543.4l8,7.5l0.1,2.8
				l-2.8,0.1l-8-7.5l-0.1-2.8L981.4,543.4z M978.4,562.7l0.1,2.8l-2.8,0.1l-8-7.5l-0.1-2.8l2.8-0.1L978.4,562.7z M990.3,550.9
				l7.6-8.1l2.8-0.1l0.1,2.8l-7.6,8.1l-2.8,0.1L990.3,550.9z M986.8,554.7l2.8-0.1l0.1,2.8l-7.5,8l-2.8,0.1l-0.1-2.8L986.8,554.7z"
				/>
			<path class="st7" d="M995.7,556l7.6-8.1l2.8-0.1l0.1,2.8l-7.6,8.1l-2.8,0.1L995.7,556z M992.2,559.7l2.8-0.1l0.1,2.8l-7.5,8
				l-2.8,0.1l-0.1-2.8L992.2,559.7z M1009.7,547.7l8,7.5l0.1,2.8l-2.8,0.1l-8-7.5l-0.1-2.8L1009.7,547.7z M998.6,559.5l8,7.5
				l0.1,2.8l-2.8,0.1l-8-7.5l-0.1-2.8L998.6,559.5z M995.6,578.9l0.1,2.8l-2.8,0.1l-8-7.5l-0.1-2.8l2.8-0.1L995.6,578.9z
				 M1007.5,567l7.6-8.1l2.8-0.1l0.1,2.8l-7.6,8.1l-2.8,0.1L1007.5,567z M1004,570.8l2.8-0.1l0.1,2.8l-7.5,8l-2.8,0.1l-0.1-2.8
				L1004,570.8z"/>
			<path class="st7" d="M1012.9,572.1l7.6-8.1l2.8-0.1l0.1,2.8l-7.6,8.1l-2.8,0.1L1012.9,572.1z M1009.4,575.8l2.8-0.1l0.1,2.8
				l-7.5,8l-2.8,0.1l-0.1-2.8L1009.4,575.8z M1026.9,563.8l8,7.5l0.1,2.8l-2.8,0.1l-8-7.5l-0.1-2.8L1026.9,563.8z M1015.8,575.6
				l8,7.5l0.1,2.8l-2.8,0.1l-8-7.5l-0.1-2.8L1015.8,575.6z M1012.7,595l0.1,2.8l-2.8,0.1l-8-7.5l-0.1-2.8l2.8-0.1L1012.7,595z
				 M1024.7,583.1l7.6-8.1l2.8-0.1l0.1,2.8l-7.6,8.1l-2.8,0.1L1024.7,583.1z M1021.2,586.9l2.8-0.1l0.1,2.8l-7.5,8l-2.8,0.1
				l-0.1-2.8L1021.2,586.9z"/>
		</g>
	</g>
	<g>
		<g>
			<g>
				<path class="st8" d="M879,515.6c0,1-0.3,2-1,2.8l-19.4,20.7c-1.5,1.5-3.9,1.6-5.4,0.2l-20.7-19.4c-0.8-0.7-1.2-1.7-1.2-2.7
					l-2.9,0.1c0.1,1.7,0.8,3.4,2.1,4.7l20.7,19.4c2.7,2.6,7,2.4,9.6-0.3l19.4-20.7c1.3-1.4,1.9-3.1,1.8-4.8L879,515.6z"/>
			</g>
			<g>
				<path class="st9" d="M832.3,514.4l19.4-20.7c1.5-1.5,3.9-1.6,5.4-0.2l20.7,19.4c0.8,0.7,1.2,1.7,1.2,2.7l2.9-0.1
					c-0.1-1.7-0.8-3.4-2.1-4.7l-20.7-19.4c-2.7-2.6-7-2.4-9.6,0.3l-19.4,20.7c-1.3,1.4-1.9,3.1-1.8,4.8l2.9-0.1
					C831.2,516.2,831.6,515.2,832.3,514.4z"/>
			</g>
			<g>
				<path class="st10" d="M832.5,519.8c-1.5-1.5-1.6-3.9-0.2-5.4l19.4-20.7c1.5-1.5,3.9-1.6,5.4-0.2l20.7,19.4
					c1.5,1.5,1.6,3.9,0.2,5.4l-19.4,20.7c-1.5,1.5-3.9,1.6-5.4,0.2L832.5,519.8z"/>
			</g>
		</g>
		<g>
			<g>
				<path class="st8" d="M918.2,552.4c0,1-0.3,2-1,2.8l-19.4,20.7c-1.5,1.5-3.9,1.6-5.4,0.2l-20.7-19.4c-0.8-0.7-1.2-1.7-1.2-2.7
					l-2.9,0.1c0.1,1.7,0.8,3.4,2.1,4.7l20.7,19.4c2.7,2.6,7,2.4,9.6-0.3l19.4-20.7c1.3-1.4,1.9-3.1,1.8-4.8L918.2,552.4z"/>
			</g>
			<g>
				<path class="st9" d="M871.5,551.2l19.4-20.7c1.5-1.5,3.9-1.6,5.4-0.2l20.7,19.4c0.8,0.7,1.2,1.7,1.2,2.7l2.9-0.1
					c-0.1-1.7-0.8-3.4-2.1-4.7l-20.7-19.4c-2.7-2.6-7-2.4-9.6,0.3l-19.4,20.7c-1.3,1.4-1.9,3.1-1.8,4.8l2.9-0.1
					C870.4,552.9,870.8,551.9,871.5,551.2z"/>
			</g>
			<g>
				<path class="st10" d="M871.7,556.6c-1.5-1.5-1.6-3.9-0.2-5.4l19.4-20.7c1.5-1.5,3.9-1.6,5.4-0.2l20.7,19.4
					c1.5,1.5,1.6,3.9,0.2,5.4l-19.4,20.7c-1.5,1.5-3.9,1.6-5.4,0.2L871.7,556.6z"/>
			</g>
		</g>
		<g>
			<path class="st11" d="M844.4,552.5c0,1-0.3,2-1,2.8L824,575.9c-1.5,1.5-3.9,1.6-5.4,0.2l-20.7-19.4c-0.8-0.7-1.2-1.7-1.2-2.7
				l-2.9,0.1c0.1,1.7,0.8,3.4,2.1,4.7l20.7,19.4c2.7,2.6,7,2.4,9.6-0.3l19.4-20.7c1.3-1.4,1.9-3.1,1.8-4.8L844.4,552.5z"/>
			<path class="st12" d="M797.7,551.3l19.4-20.7c1.5-1.5,3.9-1.6,5.4-0.2l20.7,19.4c0.8,0.7,1.2,1.7,1.2,2.7l2.9-0.1
				c-0.1-1.7-0.8-3.4-2.1-4.7l-20.7-19.4c-2.7-2.6-7-2.4-9.6,0.3l-19.4,20.7c-1.3,1.4-1.9,3.1-1.8,4.8l2.9-0.1
				C796.6,553,797,552,797.7,551.3z"/>
			<path class="st13" d="M797.9,556.7c-1.5-1.5-1.6-3.9-0.2-5.4l19.4-20.7c1.5-1.5,3.9-1.6,5.4-0.2l20.7,19.4
				c1.5,1.5,1.6,3.9,0.2,5.4L824,575.9c-1.5,1.5-3.9,1.6-5.4,0.2L797.9,556.7z"/>
		</g>
		<g>
			<path class="st11" d="M883.6,589.3c0,1-0.3,2-1,2.8l-19.4,20.7c-1.5,1.5-3.9,1.6-5.4,0.2l-20.7-19.4c-0.8-0.7-1.2-1.7-1.2-2.7
				l-2.9,0.1c0.1,1.7,0.8,3.4,2.1,4.7l20.7,19.4c2.7,2.6,7,2.4,9.6-0.3l19.4-20.7c1.3-1.4,1.9-3.1,1.8-4.8L883.6,589.3z"/>
			<path class="st12" d="M836.9,588.1l19.4-20.7c1.5-1.5,3.9-1.6,5.4-0.2l20.7,19.4c0.8,0.7,1.2,1.7,1.2,2.7l2.9-0.1
				c-0.1-1.7-0.8-3.4-2.1-4.7l-20.7-19.4c-2.7-2.6-7-2.4-9.6,0.3L834.8,586c-1.3,1.4-1.9,3.1-1.8,4.8l2.9-0.1
				C835.8,589.8,836.2,588.8,836.9,588.1z"/>
			<path class="st13" d="M837.1,593.5c-1.5-1.5-1.6-3.9-0.2-5.4l19.4-20.7c1.5-1.5,3.9-1.6,5.4-0.2l20.7,19.4
				c1.5,1.5,1.6,3.9,0.2,5.4l-19.4,20.7c-1.5,1.5-3.9,1.6-5.4,0.2L837.1,593.5z"/>
		</g>
		<g>
			<path class="st11" d="M922.8,626.1c0,1-0.3,2-1,2.8l-19.4,20.7c-1.5,1.5-3.9,1.6-5.4,0.2l-20.7-19.4c-0.8-0.7-1.2-1.7-1.2-2.7
				l-2.9,0.1c0.1,1.7,0.8,3.4,2.1,4.7l20.7,19.4c2.7,2.6,7,2.4,9.6-0.3l19.4-20.7c1.3-1.4,1.9-3.1,1.8-4.8L922.8,626.1z"/>
			<path class="st12" d="M876.1,624.8l19.4-20.7c1.5-1.5,3.9-1.6,5.4-0.2l20.7,19.4c0.8,0.7,1.2,1.7,1.2,2.7l2.9-0.1
				c-0.1-1.7-0.8-3.4-2.1-4.7L903,601.8c-2.7-2.6-7-2.4-9.6,0.3L874,622.8c-1.3,1.4-1.9,3.1-1.8,4.8l2.9-0.1
				C875,626.6,875.4,625.6,876.1,624.8z"/>
			<path class="st13" d="M876.3,630.3c-1.5-1.5-1.6-3.9-0.2-5.4l19.4-20.7c1.5-1.5,3.9-1.6,5.4-0.2l20.7,19.4
				c1.5,1.5,1.6,3.9,0.2,5.4l-19.4,20.7c-1.5,1.5-3.9,1.6-5.4,0.2L876.3,630.3z"/>
		</g>
		<g>
			<path class="st11" d="M809.8,589.4c0,1-0.3,2-1,2.8l-19.4,20.7c-1.5,1.5-3.9,1.6-5.4,0.2l-20.7-19.4c-0.8-0.7-1.2-1.7-1.2-2.7
				l-2.9,0.1c0.1,1.7,0.8,3.4,2.1,4.7l20.7,19.4c2.7,2.6,7,2.4,9.6-0.3l19.4-20.7c1.3-1.4,1.9-3.1,1.8-4.8L809.8,589.4z"/>
			<path class="st12" d="M763.1,588.1l19.4-20.7c1.5-1.5,3.9-1.6,5.4-0.2l20.7,19.4c0.8,0.7,1.2,1.7,1.2,2.7l2.9-0.1
				c-0.1-1.7-0.8-3.4-2.1-4.7l-20.7-19.4c-2.7-2.6-7-2.4-9.6,0.3L761,586.1c-1.3,1.4-1.9,3.1-1.8,4.8l2.9-0.1
				C762,589.9,762.4,588.9,763.1,588.1z"/>
			<path class="st13" d="M763.3,593.6c-1.5-1.5-1.6-3.9-0.2-5.4l19.4-20.7c1.5-1.5,3.9-1.6,5.4-0.2l20.7,19.4
				c1.5,1.5,1.6,3.9,0.2,5.4l-19.4,20.7c-1.5,1.5-3.9,1.6-5.4,0.2L763.3,593.6z"/>
		</g>
		<g>
			<path class="st11" d="M849,626.2c0,1-0.3,2-1,2.8l-19.4,20.7c-1.5,1.5-3.9,1.6-5.4,0.2l-20.7-19.4c-0.8-0.7-1.2-1.7-1.2-2.7
				l-2.9,0.1c0.1,1.7,0.8,3.4,2.1,4.7l20.7,19.4c2.7,2.6,7,2.4,9.6-0.3l19.4-20.7c1.3-1.4,1.9-3.1,1.8-4.8L849,626.2z"/>
			<path class="st12" d="M802.3,624.9l19.4-20.7c1.5-1.5,3.9-1.6,5.4-0.2l20.7,19.4c0.8,0.7,1.2,1.7,1.2,2.7l2.9-0.1
				c-0.1-1.7-0.8-3.4-2.1-4.7l-20.7-19.4c-2.7-2.6-7-2.4-9.6,0.3l-19.4,20.7c-1.3,1.4-1.9,3.1-1.8,4.8l2.9-0.1
				C801.2,626.7,801.6,625.7,802.3,624.9z"/>
			<path class="st13" d="M802.5,630.4c-1.5-1.5-1.6-3.9-0.2-5.4l19.4-20.7c1.5-1.5,3.9-1.6,5.4-0.2l20.7,19.4
				c1.5,1.5,1.6,3.9,0.2,5.4l-19.4,20.7c-1.5,1.5-3.9,1.6-5.4,0.2L802.5,630.4z"/>
		</g>
		<g>
			<path class="st11" d="M888.2,662.9c0,1-0.3,2-1,2.8l-19.4,20.7c-1.5,1.5-3.9,1.6-5.4,0.2l-20.7-19.4c-0.8-0.7-1.2-1.7-1.2-2.7
				l-2.9,0.1c0.1,1.7,0.8,3.4,2.1,4.7l20.7,19.4c2.7,2.6,7,2.4,9.6-0.3l19.4-20.7c1.3-1.4,1.9-3.1,1.8-4.8L888.2,662.9z"/>
			<path class="st12" d="M841.5,661.7l19.4-20.7c1.5-1.5,3.9-1.6,5.4-0.2l20.7,19.4c0.8,0.7,1.2,1.7,1.2,2.7l2.9-0.1
				c-0.1-1.7-0.8-3.4-2.1-4.7l-20.7-19.4c-2.7-2.6-7-2.4-9.6,0.3l-19.4,20.7c-1.3,1.4-1.9,3.1-1.8,4.8l2.9-0.1
				C840.4,663.5,840.8,662.5,841.5,661.7z"/>
			<path class="st13" d="M841.7,667.1c-1.5-1.5-1.6-3.9-0.2-5.4l19.4-20.7c1.5-1.5,3.9-1.6,5.4-0.2l20.7,19.4
				c1.5,1.5,1.6,3.9,0.2,5.4l-19.4,20.7c-1.5,1.5-3.9,1.6-5.4,0.2L841.7,667.1z"/>
		</g>
		<g>
			<path class="st14" d="M927.5,699.7c0,1-0.3,2-1,2.8L907,723.2c-1.5,1.5-3.9,1.6-5.4,0.2l-20.7-19.4c-0.8-0.7-1.2-1.7-1.2-2.7
				l-2.9,0.1c0.1,1.7,0.8,3.4,2.1,4.7l20.7,19.4c2.7,2.6,7,2.4,9.6-0.3l19.4-20.7c1.3-1.4,1.9-3.1,1.8-4.8L927.5,699.7z"/>
			<path class="st15" d="M880.7,698.5l19.4-20.7c1.5-1.5,3.9-1.6,5.4-0.2l20.7,19.4c0.8,0.7,1.2,1.7,1.2,2.7l2.9-0.1
				c-0.1-1.7-0.8-3.4-2.1-4.7l-20.7-19.4c-2.7-2.6-7-2.4-9.6,0.3l-19.4,20.7c-1.3,1.4-1.9,3.1-1.8,4.8l2.9-0.1
				C879.7,700.3,880,699.3,880.7,698.5z"/>
			<path class="st16" d="M880.9,703.9c-1.5-1.5-1.6-3.9-0.2-5.4l19.4-20.7c1.5-1.5,3.9-1.6,5.4-0.2l20.7,19.4
				c1.5,1.5,1.6,3.9,0.2,5.4L907,723.2c-1.5,1.5-3.9,1.6-5.4,0.2L880.9,703.9z"/>
		</g>
		<g>
			<path class="st11" d="M775.2,626.3c0,1-0.3,2-1,2.8l-19.4,20.7c-1.5,1.5-3.9,1.6-5.4,0.2l-20.7-19.4c-0.8-0.7-1.2-1.7-1.2-2.7
				l-2.9,0.1c0.1,1.7,0.8,3.4,2.1,4.7l20.7,19.4c2.7,2.6,7,2.4,9.6-0.3l19.4-20.7c1.3-1.4,1.9-3.1,1.8-4.8L775.2,626.3z"/>
			<path class="st12" d="M728.5,625l19.4-20.7c1.5-1.5,3.9-1.6,5.4-0.2l20.7,19.4c0.8,0.7,1.2,1.7,1.2,2.7l2.9-0.1
				c-0.1-1.7-0.8-3.4-2.1-4.7L755.4,602c-2.7-2.6-7-2.4-9.6,0.3L726.4,623c-1.3,1.4-1.9,3.1-1.8,4.8l2.9-0.1
				C727.4,626.8,727.8,625.8,728.5,625z"/>
			<path class="st13" d="M728.7,630.5c-1.5-1.5-1.6-3.9-0.2-5.4l19.4-20.7c1.5-1.5,3.9-1.6,5.4-0.2l20.7,19.4
				c1.5,1.5,1.6,3.9,0.2,5.4l-19.4,20.7c-1.5,1.5-3.9,1.6-5.4,0.2L728.7,630.5z"/>
		</g>
		<g>
			<path class="st11" d="M814.4,663c0,1-0.3,2-1,2.8L794,686.5c-1.5,1.5-3.9,1.6-5.4,0.2l-20.7-19.4c-0.8-0.7-1.2-1.7-1.2-2.7
				l-2.9,0.1c0.1,1.7,0.8,3.4,2.1,4.7l20.7,19.4c2.7,2.6,7,2.4,9.6-0.3l19.4-20.7c1.3-1.4,1.9-3.1,1.8-4.8L814.4,663z"/>
			<path class="st12" d="M767.7,661.8l19.4-20.7c1.5-1.5,3.9-1.6,5.4-0.2l20.7,19.4c0.8,0.7,1.2,1.7,1.2,2.7l2.9-0.1
				c-0.1-1.7-0.8-3.4-2.1-4.7l-20.7-19.4c-2.7-2.6-7-2.4-9.6,0.3l-19.4,20.7c-1.3,1.4-1.9,3.1-1.8,4.8l2.9-0.1
				C766.6,663.6,767,662.6,767.7,661.8z"/>
			<path class="st13" d="M767.9,667.2c-1.5-1.5-1.6-3.9-0.2-5.4l19.4-20.7c1.5-1.5,3.9-1.6,5.4-0.2l20.7,19.4
				c1.5,1.5,1.6,3.9,0.2,5.4L794,686.5c-1.5,1.5-3.9,1.6-5.4,0.2L767.9,667.2z"/>
		</g>
		<g>
			<path class="st11" d="M853.6,699.8c0,1-0.3,2-1,2.8l-19.4,20.7c-1.5,1.5-3.9,1.6-5.4,0.2L807.1,704c-0.8-0.7-1.2-1.7-1.2-2.7
				l-2.9,0.1c0.1,1.7,0.8,3.4,2.1,4.7l20.7,19.4c2.7,2.6,7,2.4,9.6-0.3l19.4-20.7c1.3-1.4,1.9-3.1,1.8-4.8L853.6,699.8z"/>
			<path class="st12" d="M806.9,698.6l19.4-20.7c1.5-1.5,3.9-1.6,5.4-0.2l20.7,19.4c0.8,0.7,1.2,1.7,1.2,2.7l2.9-0.1
				c-0.1-1.7-0.8-3.4-2.1-4.7l-20.7-19.4c-2.7-2.6-7-2.4-9.6,0.3l-19.4,20.7c-1.3,1.4-1.9,3.1-1.8,4.8l2.9-0.1
				C805.9,700.4,806.2,699.4,806.9,698.6z"/>
			<path class="st13" d="M807.1,704c-1.5-1.5-1.6-3.9-0.2-5.4l19.4-20.7c1.5-1.5,3.9-1.6,5.4-0.2l20.7,19.4c1.5,1.5,1.6,3.9,0.2,5.4
				l-19.4,20.7c-1.5,1.5-3.9,1.6-5.4,0.2L807.1,704z"/>
		</g>
		<g>
			<path class="st11" d="M740.6,663.1c0,1-0.3,2-1,2.8l-19.4,20.7c-1.5,1.5-3.9,1.6-5.4,0.2l-20.7-19.4c-0.8-0.7-1.2-1.7-1.2-2.7
				l-2.9,0.1c0.1,1.7,0.8,3.4,2.1,4.7l20.7,19.4c2.7,2.6,7,2.4,9.6-0.3l19.4-20.7c1.3-1.4,1.9-3.1,1.8-4.8L740.6,663.1z"/>
			<path class="st12" d="M693.9,661.9l19.4-20.7c1.5-1.5,3.9-1.6,5.4-0.2l20.7,19.4c0.8,0.7,1.2,1.7,1.2,2.7l2.9-0.1
				c-0.1-1.7-0.8-3.4-2.1-4.7l-20.7-19.4c-2.7-2.6-7-2.4-9.6,0.3l-19.4,20.7c-1.3,1.4-1.9,3.1-1.8,4.8l2.9-0.1
				C692.8,663.7,693.2,662.7,693.9,661.9z"/>
			<path class="st13" d="M694.1,667.3c-1.5-1.5-1.6-3.9-0.2-5.4l19.4-20.7c1.5-1.5,3.9-1.6,5.4-0.2l20.7,19.4
				c1.5,1.5,1.6,3.9,0.2,5.4l-19.4,20.7c-1.5,1.5-3.9,1.6-5.4,0.2L694.1,667.3z"/>
		</g>
		<g>
			<path class="st11" d="M779.8,699.9c0,1-0.3,2-1,2.8l-19.4,20.7c-1.5,1.5-3.9,1.6-5.4,0.2l-20.7-19.4c-0.8-0.7-1.2-1.7-1.2-2.7
				l-2.9,0.1c0.1,1.7,0.8,3.4,2.1,4.7l20.7,19.4c2.7,2.6,7,2.4,9.6-0.3l19.4-20.7c1.3-1.4,1.9-3.1,1.8-4.8L779.8,699.9z"/>
			<path class="st12" d="M733.1,698.7l19.4-20.7c1.5-1.5,3.9-1.6,5.4-0.2l20.7,19.4c0.8,0.7,1.2,1.7,1.2,2.7l2.9-0.1
				c-0.1-1.7-0.8-3.4-2.1-4.7L760,675.7c-2.7-2.6-7-2.4-9.6,0.3L731,696.7c-1.3,1.4-1.9,3.1-1.8,4.8l2.9-0.1
				C732.1,700.4,732.4,699.5,733.1,698.7z"/>
			<path class="st13" d="M733.3,704.1c-1.5-1.5-1.6-3.9-0.2-5.4l19.4-20.7c1.5-1.5,3.9-1.6,5.4-0.2l20.7,19.4
				c1.5,1.5,1.6,3.9,0.2,5.4l-19.4,20.7c-1.5,1.5-3.9,1.6-5.4,0.2L733.3,704.1z"/>
		</g>
		<g>
			<path class="st11" d="M819.1,736.7c0,1-0.3,2-1,2.8l-19.4,20.7c-1.5,1.5-3.9,1.6-5.4,0.2l-20.7-19.4c-0.8-0.7-1.2-1.7-1.2-2.7
				l-2.9,0.1c0.1,1.7,0.8,3.4,2.1,4.7l20.7,19.4c2.7,2.6,7,2.4,9.6-0.3l19.4-20.7c1.3-1.4,1.9-3.1,1.8-4.8L819.1,736.7z"/>
			<path class="st12" d="M772.3,735.5l19.4-20.7c1.5-1.5,3.9-1.6,5.4-0.2l20.7,19.4c0.8,0.7,1.2,1.7,1.2,2.7l2.9-0.1
				c-0.1-1.7-0.8-3.4-2.1-4.7l-20.7-19.4c-2.7-2.6-7-2.4-9.6,0.3l-19.4,20.7c-1.3,1.4-1.9,3.1-1.8,4.8l2.9-0.1
				C771.3,737.2,771.6,736.2,772.3,735.5z"/>
			<path class="st13" d="M772.5,740.9c-1.5-1.5-1.6-3.9-0.2-5.4l19.4-20.7c1.5-1.5,3.9-1.6,5.4-0.2l20.7,19.4
				c1.5,1.5,1.6,3.9,0.2,5.4l-19.4,20.7c-1.5,1.5-3.9,1.6-5.4,0.2L772.5,740.9z"/>
		</g>
		<g>
			<g>
				<path class="st17" d="M893.6,731.8L873,712.4c-2.7-2.6-7-2.4-9.6,0.3l-54,57.6c-1.3,1.4-1.9,3.1-1.8,4.8l2.9-0.1
					c0-1,0.3-2,1-2.8l54-57.6c1.5-1.5,3.9-1.6,5.4-0.2l20.7,19.4c0.8,0.7,1.2,1.7,1.2,2.7l2.9-0.1
					C895.7,734.8,895,733.1,893.6,731.8z"/>
			</g>
			<g>
				<path class="st18" d="M891.8,739.3c1.5-1.5,1.4-4-0.2-5.4L871,714.5c-1.5-1.5-4-1.4-5.4,0.2l-54,57.6c-1.5,1.5-1.4,4,0.2,5.4
					l20.7,19.4c1.5,1.5,4,1.4,5.4-0.2L891.8,739.3z"/>
			</g>
			<g>
				<path class="st19" d="M895.8,736.5l-2.9,0.1c0,1-0.3,2-1,2.8l-54,57.6c-1.5,1.5-3.9,1.6-5.4,0.2l-20.7-19.4
					c-0.8-0.7-1.2-1.7-1.2-2.7l-2.9,0.1c0.1,1.7,0.8,3.4,2.1,4.7l20.7,19.4c2.7,2.6,7,2.4,9.6-0.3l54-57.6
					C895.2,740,895.8,738.2,895.8,736.5z"/>
			</g>
		</g>
		<g>
			<path class="st20" d="M830.6,551l-1.4,1.5l-15.5,6l-2.5-2.3l15.1-5.5c0,0-5.8-5.5-5.8-5.5l1.8-2L830.6,551z"/>
		</g>
		<g>
			<path class="st20" d="M852.4,588.9c1.5-1.6,3.3-1.8,5.4-1c-0.7-1.9-0.3-3.5,0.7-4.6c1.9-2,5-1.7,7.4,0.5c2.7,2.5,2.4,5.3,1,6.8
				c-1,1.1-2.6,1.6-4.6,1c0.8,1.8,0.8,3.9-0.6,5.4c-2.1,2.2-5.4,2-8-0.5C850.8,593.7,850.8,590.6,852.4,588.9z M859.1,594.9
				c1.2-1.3,0.9-2.8-0.1-4.5c-1.5-0.8-2.9-0.6-3.9,0.5c-1,1-1.1,2.7,0.2,4C856.5,596,858.1,596,859.1,594.9z M860.9,585.2
				c-1,1-0.7,2.4,0.2,3.9c1.1,0.5,2.4,0.5,3.3-0.4c0.8-0.9,1.1-2.2-0.1-3.4C863.1,584.1,861.7,584.3,860.9,585.2z"/>
		</g>
		<g>
			<path class="st20" d="M891.3,628.2c0.3,0.4,0.7,0.7,1.3,1.2c1,0.8,2.2,1.3,3.4,1.4c1.4,0.1,2.8-0.3,4.2-1.3
				c-1.3,0.1-2.6-0.4-3.8-1.5c-2.2-2-2.3-5.1-0.1-7.4c2.2-2.4,6-2.7,8.7-0.2c2.9,2.7,2.3,6.4-0.5,9.5c-2.5,2.7-5.2,3.7-7.6,3.8
				c-2,0-4.1-0.8-5.8-2.3c-0.6-0.4-1.1-0.9-1.5-1.3L891.3,628.2z M898.8,622.7c-1.2,1.3-1.4,3-0.1,4.2c1,0.9,2.1,1.1,3,0.9
				c0.2-0.1,0.5-0.2,0.8-0.5c1.6-1.7,2.3-3.7,0.8-5.2C902.1,621,900.2,621.2,898.8,622.7z"/>
		</g>
		<g>
			<path class="st14" d="M962,662.8c0,1-0.3,2-1,2.8l-19.4,20.7c-1.5,1.5-3.9,1.6-5.4,0.2L915.5,667c-0.8-0.7-1.2-1.7-1.2-2.7
				l-2.9,0.1c0.1,1.7,0.8,3.4,2.1,4.7l20.7,19.4c2.7,2.6,7,2.4,9.6-0.3l19.4-20.7c1.3-1.4,1.9-3.1,1.8-4.8L962,662.8z"/>
			<path class="st15" d="M915.3,661.6l19.4-20.7c1.5-1.5,3.9-1.6,5.4-0.2l20.7,19.4c0.8,0.7,1.2,1.7,1.2,2.7l2.9-0.1
				c-0.1-1.7-0.8-3.4-2.1-4.7l-20.7-19.4c-2.7-2.6-7-2.4-9.6,0.3l-19.4,20.7c-1.3,1.4-1.9,3.1-1.8,4.8l2.9-0.1
				C914.3,663.4,914.6,662.4,915.3,661.6z"/>
			<path class="st16" d="M915.5,667c-1.5-1.5-1.6-3.9-0.2-5.4l19.4-20.7c1.5-1.5,3.9-1.6,5.4-0.2l20.7,19.4c1.5,1.5,1.6,3.9,0.2,5.4
				l-19.4,20.7c-1.5,1.5-3.9,1.6-5.4,0.2L915.5,667z"/>
		</g>
		<g>
			<path class="st20" d="M943.7,659.2l-4.1,4.3l4.2,3.9l-1.4,1.5l-4.2-3.9l-4.1,4.4l-1.6-1.5l4.1-4.4l-4.2-3.9l1.4-1.5l4.2,3.9
				l4.1-4.3L943.7,659.2z"/>
		</g>
		<g>
			<path class="st14" d="M957.4,589.2c0,1-0.3,2-1,2.8L937,612.6c-1.5,1.5-3.9,1.6-5.4,0.2l-20.7-19.4c-0.8-0.7-1.2-1.7-1.2-2.7
				l-2.9,0.1c0.1,1.7,0.8,3.4,2.1,4.7l20.7,19.4c2.7,2.6,7,2.4,9.6-0.3l19.4-20.7c1.3-1.4,1.9-3.1,1.8-4.8L957.4,589.2z"/>
			<path class="st15" d="M910.7,588l19.4-20.7c1.5-1.5,3.9-1.6,5.4-0.2l20.7,19.4c0.8,0.7,1.2,1.7,1.2,2.7l2.9-0.1
				c-0.1-1.7-0.8-3.4-2.1-4.7L937.6,565c-2.7-2.6-7-2.4-9.6,0.3L908.6,586c-1.3,1.4-1.9,3.1-1.8,4.8l2.9-0.1
				C909.6,589.7,910,588.7,910.7,588z"/>
			<path class="st16" d="M910.9,593.4c-1.5-1.5-1.6-3.9-0.2-5.4l19.4-20.7c1.5-1.5,3.9-1.6,5.4-0.2l20.7,19.4
				c1.5,1.5,1.6,3.9,0.2,5.4L937,612.6c-1.5,1.5-3.9,1.6-5.4,0.2L910.9,593.4z"/>
		</g>
		<g>
			<path class="st20" d="M936.1,583.5l-0.5,2.8c-0.2,0.8-0.3,1.5-0.5,2.2c0.8-0.2,1.5-0.4,2.2-0.7l2.6-0.8l2.6,2.4l-7.3,1.6
				l-1.4,7.8l-2.7-2.5l0.6-2.9c0.2-0.8,0.4-1.5,0.6-2.3c-0.8,0.2-1.5,0.5-2.3,0.7l-2.8,0.9l-2.6-2.4l7.7-1.7l1.2-7.5L936.1,583.5z"
				/>
		</g>
		<g>
			<path class="st14" d="M996.6,626c0,1-0.3,2-1,2.8l-19.4,20.7c-1.5,1.5-3.9,1.6-5.4,0.2l-20.7-19.4c-0.8-0.7-1.2-1.7-1.2-2.7
				l-2.9,0.1c0.1,1.7,0.8,3.4,2.1,4.7l20.7,19.4c2.7,2.6,7,2.4,9.6-0.3l19.4-20.7c1.3-1.4,1.9-3.1,1.8-4.8L996.6,626z"/>
			<path class="st15" d="M949.9,624.7l19.4-20.7c1.5-1.5,3.9-1.6,5.4-0.2l20.7,19.4c0.8,0.7,1.2,1.7,1.2,2.7l2.9-0.1
				c-0.1-1.7-0.8-3.4-2.1-4.7l-20.7-19.4c-2.7-2.6-7-2.4-9.6,0.3l-19.4,20.7c-1.3,1.4-1.9,3.1-1.8,4.8l2.9-0.1
				C948.8,626.5,949.2,625.5,949.9,624.7z"/>
			<path class="st16" d="M950.1,630.2c-1.5-1.5-1.6-3.9-0.2-5.4l19.4-20.7c1.5-1.5,3.9-1.6,5.4-0.2l20.7,19.4
				c1.5,1.5,1.6,3.9,0.2,5.4l-19.4,20.7c-1.5,1.5-3.9,1.6-5.4,0.2L950.1,630.2z"/>
		</g>
		<g>
			<path class="st20" d="M967.1,622.8l1.4-1.5l9.9,9.3l-1.4,1.5L967.1,622.8z M974.7,622.2c0.7-0.8,1.7-0.8,2.4-0.1
				c0.7,0.7,0.8,1.6,0,2.4c-0.7,0.7-1.6,0.8-2.4,0.1C974,623.9,974,623,974.7,622.2z M968.4,628.9c0.7-0.8,1.7-0.8,2.4-0.1
				c0.7,0.7,0.8,1.6,0,2.4c-0.7,0.7-1.6,0.8-2.4,0.1C967.7,630.7,967.7,629.7,968.4,628.9z"/>
		</g>
		<g>
			<path class="st20" d="M781,597.2l3-3.2l-5.6-5.3l1.4-1.5l12.3-3l2.8,2.6l-7,7.5l1.6,1.5l-1.7,1.8l-1.6-1.5l-3,3.2L781,597.2z
				 M785.7,592.3l3.2-3.4c0.7-0.7,1.4-1.4,2.1-2.1c-1.2,0.4-2.1,0.7-3.1,1l-5.5,1.3C782.3,589.1,785.7,592.3,785.7,592.3z"/>
		</g>
		<g>
			<path class="st20" d="M833,626.1l-4.8-4.5l-2.7,2.1c0.3,0.2,0.6,0.4,1,0.8c1.1,1,1.9,2.3,2.3,3.6c0.4,1.5,0.1,3.2-1.3,4.7
				c-2.2,2.4-6,2.5-9.1-0.4c-1.4-1.3-2.3-2.8-2.6-3.8l2.1-1.3c0.3,0.8,1,2.2,2.1,3.2c1.4,1.3,3.4,1.7,4.8,0.3
				c1.3-1.4,1.2-3.3-1.3-5.7c-0.7-0.6-1.2-1.1-1.8-1.5l6.7-5.5l6.4,6L833,626.1z"/>
		</g>
		<g>
			<path class="st20" d="M871.9,662.2c-0.3-0.3-0.7-0.7-1.3-1.1c-2.9-2.1-5.7-1.7-7.6-0.3c1.3-0.1,2.7,0.3,4,1.5
				c2.1,2,2.4,5.1,0,7.6c-2.2,2.4-5.9,2.8-8.6,0.3c-3-2.8-2.5-6.7,0.3-9.8c2.2-2.4,4.9-3.5,7.4-3.6c2.2,0,4.2,0.8,6.1,2.3
				c0.6,0.4,1,0.8,1.2,1.1L871.9,662.2z M864.5,667.8c1.3-1.4,1.5-3.2,0.2-4.5c-0.9-0.8-2.2-1-3.2-0.6c-0.3,0.1-0.5,0.3-0.9,0.6
				c-1.5,1.7-2,3.8-0.5,5.2C861.4,669.6,863.1,669.3,864.5,667.8z"/>
		</g>
		<g>
			<path class="st20" d="M908.5,703.7l-1.4,1.5l-8.4-7.9l1.4-1.5L908.5,703.7z"/>
		</g>
		<g>
			<path class="st20" d="M754.6,622.3c0,0-3.4-1-3.4-1l1.3-2.2l4.4,1.3l2,1.8l-11.7,12.4l-2.3-2.1L754.6,622.3z"/>
		</g>
		<g>
			<path class="st20" d="M780.4,666.2l1.3-1.4l2.7,0c5.5,0,8.3-0.2,9.8-1.8c1-1.1,1.4-2.6-0.3-4.2c-1.1-1-2.5-1.3-3.6-1.5l0.9-2.3
				c1.6,0.1,3.5,0.8,5,2.3c2.8,2.6,2.5,5.6,0.6,7.6c-2,2.2-5.3,2.5-9.3,2.5l-2-0.1c0,0,5.1,4.8,5.1,4.8l-1.8,2L780.4,666.2z"/>
		</g>
		<g>
			<path class="st20" d="M822.6,701c0.2,0.7,0.9,2.3,2.1,3.4c1.8,1.7,3.5,1.4,4.4,0.4c1.4-1.5,0.6-3.4-0.8-4.7l-1.1-1l1.6-1.7l1.1,1
				c1.1,1,2.9,1.8,4.1,0.6c0.8-0.8,0.8-2.1-0.5-3.4c-1-1-2.4-1.5-3.3-1.6l1.1-2.2c1.2,0.2,3,1,4.5,2.4c2.6,2.4,2.6,5.1,1,6.7
				c-1.2,1.3-3,1.7-5,0.8c1.2,1.7,1.4,4-0.2,5.7c-2,2.1-5.3,2.1-8.4-0.8c-1.5-1.4-2.4-3.1-2.7-4.1L822.6,701z"/>
		</g>
		<g>
			<path class="st20" d="M721.3,668c-3.8,4-7.7,5-10.6,2.3c-2.9-2.7-2-6.7,1.6-10.5c3.6-3.9,7.7-4.9,10.6-2.2
				C725.9,660.3,724.8,664.3,721.3,668z M714.6,662c-2.9,3-3.5,5.4-2.2,6.6c1.4,1.3,3.7,0.3,6.5-2.7c2.7-2.9,3.6-5.2,2.2-6.6
				C719.9,658.1,717.5,658.8,714.6,662z"/>
		</g>
		<g>
			<path class="st20" d="M755.4,700c-3.8,4-7.7,5-10.6,2.3c-2.9-2.7-2-6.7,1.6-10.5c3.6-3.9,7.7-4.9,10.6-2.2
				C760,692.3,758.8,696.3,755.4,700z M748.7,693.9c-2.9,3-3.5,5.4-2.2,6.6c1.4,1.3,3.7,0.3,6.5-2.7c2.7-2.9,3.6-5.2,2.2-6.6
				C753.9,690.1,751.6,690.8,748.7,693.9z"/>
			<path class="st20" d="M765.6,709.6c-3.8,4-7.7,5-10.6,2.3c-2.9-2.7-2-6.7,1.6-10.5c3.6-3.9,7.7-4.9,10.6-2.2
				C770.2,701.9,769.1,705.9,765.6,709.6z M759,703.5c-2.9,3-3.5,5.4-2.2,6.6c1.4,1.3,3.7,0.3,6.5-2.7c2.7-2.9,3.6-5.2,2.2-6.6
				C764.2,699.7,761.9,700.4,759,703.5z"/>
		</g>
		<g>
			<path class="st20" d="M789.6,739.9c1-1,2.4-1.1,3.4-0.2c1,1,1,2.3,0,3.4c-1,1-2.4,1.1-3.4,0.2
				C788.6,742.4,788.7,740.9,789.6,739.9z"/>
		</g>
		<g>
			<path class="st20" d="M847.8,750l1.4-1.5l9.9,9.3l-1.4,1.5L847.8,750z M844.2,753.9l1.4-1.5l9.9,9.3l-1.4,1.5L844.2,753.9z"/>
		</g>
		<g>
			<path class="st20" d="M855.8,515c-1.7,1.8-4.1,3.1-6.4,3.1c-1.8,0-3.5-0.6-5-2c-2.6-2.5-2.2-5.7-0.1-7.9c1.7-1.8,4.2-3.1,6.5-3.1
				c1.8,0,3.5,0.6,4.9,1.9C858.4,509.6,857.9,512.7,855.8,515z M851.3,507.3c-1.7,0.1-3.8,1.2-5,2.5c-1.4,1.5-1.9,3.4-0.2,5
				c0.7,0.7,1.7,1,2.8,1c1.7-0.1,3.8-1.3,5-2.6c1.3-1.3,2.1-3.2,0.3-5C853.3,507.6,852.4,507.3,851.3,507.3z"/>
			<path class="st20" d="M850.6,521.6l11.4-8.3l2,1.9l-2.6,6.4c-0.7,1.6-1.3,2.8-2.1,4c1-0.9,2.1-1.8,3.7-3l5-3.7l1.7,1.6l-11.4,8.3
				l-1.8-1.7l2.7-6.5c0.8-1.8,1.3-2.8,2.1-4.2c-1.1,0.8-2.5,1.9-4.2,3.1l-4.9,3.6L850.6,521.6z"/>
		</g>
		<g>
			<path class="st20" d="M892.7,560.6c-0.8-0.3-1.9-0.9-3.1-2c-2.6-2.5-2.8-5.7-0.3-8.3c2-2.1,4.6-3.1,7.1-2.8
				c1.8,0.2,3.4,1,4.9,2.3c1.1,1,1.7,2.1,1.8,2.5l-1.8,0.9c-0.2-0.5-0.7-1.3-1.6-2.2c-1-0.9-2.2-1.4-3.5-1.5
				c-1.6-0.1-3.4,0.7-4.8,2.2c-1.6,1.7-1.9,3.8,0.1,5.7c0.7,0.7,1.6,1.3,2.4,1.5L892.7,560.6z"/>
		</g>
	</g>
</g>
<g>
	<path class="st0" d="M726.1,572.2l-9.2-6.8l2-4c3.7-7.3,7.9-14.3,12.8-20.9L777,479l13.8,10.2l-45.3,61.5
		c-4.8,6.6-10.2,12.7-16.1,18.4L726.1,572.2z"/>
	
		<rect x="779.7" y="477.6" transform="matrix(0.593 -0.8052 0.8052 0.593 -73.0209 827.8029)" class="st21" width="5.2" height="17.1"/>
	
		<rect x="778.7" y="481.9" transform="matrix(0.593 -0.8052 0.8052 0.593 -72.7417 826.1205)" class="st22" width="4.2" height="6.1"/>
	<path class="st21" d="M836,439.2c0.7-1.1,0.4-2.5-0.6-3.3l-2.2-1.7c-1.1-0.8-2.7-0.6-3.5,0.5l-3.4,4.5c-0.1,0-7,8.9-7,8.9
		c1.2-1.5,3.3-1.8,4.8-0.6c1.4,1.1,1.7,3.1,0.6,4.6c-3.3,5-7.3,10.6-11.7,16.3c-2.9,3.8-5.8,7.3-8.6,10.6c-0.5-1.6-2.3-2.3-3.8-1.6
		l-1,0.7c-2.8,2.2-4.2,5.9-3.4,9.4l0.2,1.2c0.1,0.4,0.3,0.8,0.6,1.1c0.7,0.5,1.6,0.4,2.2-0.2c5-5.2,10.7-11.8,16.4-19.2
		C825.1,458.2,832.5,446.6,836,439.2z"/>
	<path class="st22" d="M834.9,438.8c0.3-0.8,0.6-1.7,0.1-1.8c-0.5-0.2-0.7,0.6-1.1,1.4c-1.5,3.1-2,4.7-8.3,14.4
		c-3.4,5.3-7.4,10.8-11.8,16.4c-2.9,3.7-5.8,7.3-8.7,10.6c0,0-1,1.1-1.3,1.5c-2.4,2.8-3.3,3.7-6.2,6.8c-0.4,0.4-0.1,0.8,0,0.8
		c0.2,0.2,0.5,0.1,0.7-0.1c5.2-5.4,10.8-12,16.3-19.1C823.8,458,831.4,446.4,834.9,438.8z"/>
	<path class="st0" d="M833,429.9l-11.9-8.8c0,0-11.3,13.6-14.9,18.3C798.6,449.1,777,479,777,479l13.8,10.2c0,0,22.1-29.5,29.2-39.6
		C823.3,444.7,833,429.9,833,429.9z"/>
	<path class="st21" d="M835.6,421.8l-7.6-5.6c-0.9-0.6-2.1-0.5-2.8,0.3l-4.2,4.6l11.9,8.8l3.2-5.3
		C836.7,423.6,836.4,422.4,835.6,421.8z"/>
	<path class="st22" d="M827.6,416.3l-4.4,5.9l4.9,3.6l4.4-5.9l-4.7-3.5C827.7,416.4,827.6,416.4,827.6,416.3z"/>
	<polygon class="st21" points="712.5,583.8 709.7,581.8 716.9,565.4 726.1,572.2 	"/>
	<polygon class="st22" points="711,582.2 710.7,582 718.1,567.2 720.6,569.1 	"/>
	<path class="st23" d="M708.4,586.5c-0.3-0.2-0.4-0.6-0.2-1l1.8-3.5l2.1,1.6l-2.8,2.8C709.1,586.7,708.7,586.8,708.4,586.5z"/>
	<path class="st24" d="M710.9,582.9l-0.6-0.5l-2.1,3.5c0,0.2,0,0.3,0.1,0.4L710.9,582.9z"/>
	<path class="st22" d="M803.4,480c-0.4-0.9-2.8-0.8-4.5,1.5c-1.8,2.3-1.8,4.2-1.8,5.7C798.9,485.2,803.4,480,803.4,480z"/>
	<path class="st22" d="M826.9,440.9c1.2-1.8,3.1-4.9,3.9-5.4c0.8-0.5,1.5-0.4,2.1,0.2c0.5,0.5,0.6,1.2-0.1,2.7
		c-0.6,1.3-2.6,4.5-2.7,4.8C830.1,441.9,828.2,440.5,826.9,440.9z"/>
</g>
<g>
	
		<rect x="748.3" y="389.9" transform="matrix(0.3993 -0.9168 0.9168 0.3993 88.0317 927.1069)" class="st25" width="6.4" height="13"/>
	<g>
		
			<rect x="751.6" y="388.7" transform="matrix(0.3992 -0.9169 0.9169 0.3992 89.4771 926.9932)" class="st26" width="0.9" height="13"/>
		
			<rect x="750.6" y="391" transform="matrix(0.3991 -0.9169 0.9169 0.3991 86.7996 927.4873)" class="st26" width="0.9" height="13"/>
	</g>
	<path class="st27" d="M759.5,388.2l-7.4-3.2c-1.2-0.5-2.7,0-3.2,1.3l-2,4.6l11.9,5.2l2-4.6C761.3,390.2,760.7,388.7,759.5,388.2z"
		/>
	<path class="st28" d="M751.9,385.5c-1-0.4-2.1,0-2.5,1l-2,4.6l10.9,4.8l2-4.6c0.4-1,0-2.1-1-2.5L751.9,385.5z"/>
	<g>
		<polygon class="st29" points="682.1,539.3 682.5,554.4 686,541 		"/>
		<polygon class="st30" points="694,544.5 690,542.7 682.5,554.4 		"/>
		<polygon class="st31" points="690,542.7 686,541 682.5,554.4 		"/>
	</g>
	<path class="st32" d="M694,544.5l-4-1.7l-4-1.7l-4-1.7c0,0,0.1,2,0.1,2c0.2,0.3,0.6,0.6,1.1,0.8c1.1,0.5,2.3,0.2,2.7-0.7
		c-0.4,0.9,0.2,1.9,1.3,2.4c1.1,0.5,2.3,0.2,2.7-0.7c-0.4,0.9,0.2,1.9,1.3,2.4c0.4,0.2,0.9,0.3,1.3,0.2L694,544.5z"/>
	<g>
		
			<rect x="641.4" y="468.4" transform="matrix(0.3992 -0.9168 0.9168 0.3992 0.5614 942.0432)" class="st33" width="155.5" height="4.3"/>
		<path class="st33" d="M690,542.7c-0.4,0.9-1.6,1.2-2.7,0.7c-1.1-0.5-1.7-1.6-1.3-2.4c0.4-0.9,1.6-1.2,2.7-0.7
			C689.8,540.8,690.4,541.9,690,542.7z"/>
	</g>
	<g>
		
			<rect x="637.4" y="466.7" transform="matrix(0.3993 -0.9168 0.9168 0.3993 -0.2537 937.3452)" class="st34" width="155.5" height="4.3"/>
		<path class="st34" d="M682.1,539.3c0,0,0,1.2,0,1.2c0.2,0.5,0.7,0.9,1.3,1.2c1.1,0.5,2.3,0.2,2.7-0.7L682.1,539.3z"/>
	</g>
	<g>
		
			<rect x="645.3" y="470.2" transform="matrix(0.3992 -0.9168 0.9168 0.3992 1.361 946.7175)" class="st35" width="155.5" height="4.3"/>
		<path class="st35" d="M694,544.5l-4-1.7c-0.4,0.9,0.2,1.9,1.3,2.4c0.6,0.3,1.2,0.3,1.7,0.1L694,544.5z"/>
	</g>
	<polygon class="st36" points="682.5,554.4 686.8,550.7 682.4,548.8 	"/>
	<polygon class="st37" points="682.5,554.4 684.6,549.8 683.2,549.2 	"/>
	<path class="st38" d="M749.3,386.5l-2,4.6l3.5,1.5l2.8-6.4l-1.7-0.7C750.9,385,749.8,385.5,749.3,386.5z"/>
	<path class="st27" d="M754.8,394.3l3.5,1.5l2-4.6c0.4-1,0-2.1-1-2.5l-1.7-0.7L754.8,394.3z"/>
	<path class="st39" d="M756.8,395.2l1.5,0.7l2-4.6c0.4-0.9,0.1-1.9-0.7-2.4L756.8,395.2z"/>
</g>
<g>
	<g>
		<g>
			<path class="st40" d="M230.6,362.1L277,340c6.8-3.3,15-2,20.6,3.1l97.2,89.8c5.6,5.1,7.4,13.2,4.7,20.3l-18.4,47.9
				c-0.9,2.3-0.3,4.9,1.5,6.6l144.7,133.8c2.4,2.3,2.6,6.1,0.3,8.5L462,721.1L149.7,432.5l65.7-71.1c2.2-2.4,6-2.6,8.4-0.4
				C225.7,362.6,228.3,363.2,230.6,362.1z"/>
			<path class="st41" d="M527.3,641.5L382.6,507.7c-0.4-0.4-0.8-0.9-1.1-1.3l-0.1,0.3c-0.9,2.3-0.3,4.9,1.5,6.6L527.7,647
				c0.4,0.4,0.8,0.8,1,1.3C529.7,646.1,529.3,643.3,527.3,641.5z M394.8,432.9l-97.2-89.8c-5.6-5.2-13.7-6.4-20.6-3.1l-46.3,22.1
				c-2.3,1.1-4.9,0.6-6.8-1.1c-2.4-2.2-6.2-2-8.4,0.4l-65.7,71.1l3,2.7l63.1-68.3c2.2-2.4,6-2.6,8.4-0.4c1.9,1.7,4.5,2.2,6.8,1.1
				l46.3-22.1c6.8-3.3,15-2,20.6,3.1l97.2,89.8c2.9,2.7,4.8,6.1,5.5,9.8C401.1,442.6,399.1,436.9,394.8,432.9z"/>
		</g>
		<g>
			<path class="st42" d="M282.7,354.1l102.2,94.4c2.8,2.6,3,7,0.4,9.7l-14.2,15.4c-2.6,2.8-7,3-9.7,0.4l-102.2-94.4
				c-2.8-2.6-3-7-0.4-9.7l14.2-15.4C275.6,351.7,280,351.5,282.7,354.1z"/>
			<g>
				<path class="st43" d="M312.3,384.5l71.1,65.7c1.9,1.8,2,4.7,0.3,6.6l-14.2,15.4c-1.8,1.9-4.7,2-6.6,0.3l-71.1-65.7L312.3,384.5z
					"/>
				<path class="st44" d="M281.2,355.7l28.4,26.2l-20.5,22.2L260.7,378c-1.9-1.8-2-4.7-0.3-6.6l14.2-15.4
					C276.4,354.1,279.3,354,281.2,355.7z"/>
			</g>
		</g>
	</g>
	<g>
		
			<rect x="208" y="385.7" transform="matrix(0.6787 -0.7344 0.7344 0.6787 -330.1141 409.8396)" class="st20" width="190.7" height="392.9"/>
		<g>
			
				<rect x="125.9" y="433.6" transform="matrix(0.6787 -0.7344 0.7344 0.6787 -262.6774 278.7065)" class="st16" width="122.5" height="12"/>
			
				<rect x="106.4" y="498.6" transform="matrix(0.6787 -0.7344 0.7344 0.6787 -329.7719 255.452)" class="st16" width="41.3" height="12"/>
		</g>
		
			<rect x="93.4" y="467.5" transform="matrix(0.6787 -0.7344 0.7344 0.6787 -286.7125 283.9844)" class="st45" width="175.7" height="4.4"/>
		
			<rect x="143.6" y="455" transform="matrix(0.6787 -0.7344 0.7344 0.6787 -269.6905 297.9388)" class="st45" width="124.1" height="4.4"/>
		<g>
			<path class="st16" d="M399.5,657.5c5.7,7,13.6,12,22.4,14c12.1,2.7,24.5-0.2,34.1-7.9c1.7-1.4,3.3-2.8,4.7-4.4
				c7.6-8.5,11.3-19.8,10.1-31.1c-0.8-7.7-3.8-15-8.7-21c-5.7-7-13.6-12-22.4-14c-12.1-2.7-24.5,0.2-34.1,7.9
				c-1.7,1.4-3.3,2.8-4.7,4.4c-7.6,8.5-11.3,19.8-10.1,31.1C391.6,644.2,394.6,651.5,399.5,657.5z M461.5,607.5
				c4.8,5.9,7.7,13.1,8.5,20.6c1.2,11.1-2.4,22.3-9.9,30.6c-1.4,1.5-2.9,3-4.6,4.3c-9.5,7.6-21.7,10.5-33.5,7.8
				c-8.6-1.9-16.5-6.8-22-13.7c-4.8-5.9-7.7-13.1-8.5-20.7c-1.2-11.1,2.4-22.3,9.9-30.6c1.4-1.5,2.9-3,4.6-4.3
				c9.5-7.6,21.7-10.5,33.5-7.8C448.1,595.7,456,600.6,461.5,607.5z"/>
			<path class="st46" d="M412.1,615l-1.9-1.7c0.9-1,1.9-1.9,3-2.8c6.8-5.5,15.5-7.3,23.4-5.6l-0.6,2.5c-7.2-1.5-15.1,0.1-21.3,5.1
				C413.8,613.2,412.9,614.1,412.1,615z"/>
			<path class="st47" d="M413.7,616.9c-4.4,4.8-6.3,11.2-5.8,17.4l-7.5,0.8c-0.8-8.3,1.9-16.8,7.7-23.2
				C408.1,611.9,413.7,616.9,413.7,616.9z"/>
			<path class="st48" d="M395.1,636c0.7,6.7,3.3,13.2,7.8,18.8c5.3,6.6,12.4,10.8,20,12.5c10.3,2.3,21.6,0.1,30.5-7.1
				c1.5-1.2,2.9-2.5,4.1-3.9c7-7.7,10.1-17.9,9-27.8c-0.7-6.7-3.3-13.2-7.8-18.8l-16,12.9c1.9,2.4,3,5.2,3.3,8
				c0.5,4.2-0.9,8.6-3.9,11.9c-0.5,0.6-1.1,1.2-1.8,1.7c-3.8,3.1-8.6,4-13.1,3c-3.3-0.7-6.3-2.5-8.6-5.3c-1.9-2.4-3-5.2-3.3-8.1
				l-7.5,0.8l-2.5,0.3l-2.5,0.3l-2.4,0.3L395.1,636z"/>
			<path class="st47" d="M454.3,612.9l-5.9,4.7c-3.4-4-7.8-6.6-12.6-7.7l1.7-7.4C443.9,604,449.8,607.5,454.3,612.9z"/>
			
				<rect x="439" y="648.3" transform="matrix(0.7783 -0.6279 0.6279 0.7783 -313.6159 422.7004)" class="st20" width="5.5" height="14.2"/>
			
				<rect x="418.7" y="619.6" transform="matrix(0.7783 -0.6279 0.6279 0.7783 -300.0451 403.6247)" class="st46" width="5.5" height="14.2"/>
			
				<rect x="427.7" y="612.4" transform="matrix(0.7783 -0.6279 0.6279 0.7783 -293.5316 407.6527)" class="st47" width="5.5" height="14.2"/>
		</g>
		
			<rect x="348.3" y="702" transform="matrix(0.6787 -0.7344 0.7344 0.6787 -376.3483 545.7687)" class="st16" width="174.7" height="2"/>
		
			<rect x="492.4" y="640.8" transform="matrix(0.6784 -0.7347 0.7347 0.6784 -313.8243 571.3763)" class="st16" width="6.6" height="6.6"/>
		<g>
			<g>
				<g>
					
						<rect x="336.1" y="383.5" transform="matrix(0.6787 -0.7344 0.7344 0.6787 -254.413 405.6838)" class="st45" width="0.8" height="220.3"/>
					
						<rect x="323.8" y="396.7" transform="matrix(0.6787 -0.7344 0.7344 0.6787 -268.0923 400.9427)" class="st45" width="0.8" height="220.3"/>
					
						<rect x="311.5" y="410" transform="matrix(0.6787 -0.7344 0.7344 0.6787 -281.7714 396.2007)" class="st45" width="0.8" height="220.3"/>
					
						<rect x="299.3" y="423.2" transform="matrix(0.6787 -0.7344 0.7344 0.6787 -295.451 391.4608)" class="st45" width="0.8" height="220.3"/>
					
						<rect x="287" y="436.5" transform="matrix(0.6787 -0.7344 0.7344 0.6787 -309.1303 386.7195)" class="st45" width="0.8" height="220.3"/>
					
						<rect x="274.8" y="449.8" transform="matrix(0.6787 -0.7344 0.7344 0.6787 -322.8097 381.9788)" class="st45" width="0.8" height="220.3"/>
					
						<rect x="262.5" y="463" transform="matrix(0.6787 -0.7344 0.7344 0.6787 -336.4889 377.2371)" class="st45" width="0.8" height="220.3"/>
					
						<rect x="250.2" y="476.3" transform="matrix(0.6787 -0.7344 0.7344 0.6787 -350.1685 372.4969)" class="st45" width="0.8" height="220.3"/>
					
						<rect x="238" y="489.6" transform="matrix(0.6787 -0.7344 0.7344 0.6787 -363.8478 367.7557)" class="st45" width="0.8" height="220.3"/>
					
						<rect x="225.7" y="502.8" transform="matrix(0.6787 -0.7344 0.7344 0.6787 -377.527 363.0145)" class="st45" width="0.8" height="220.3"/>
				</g>
				<g>
					
						<rect x="240.3" y="590.1" transform="matrix(0.6789 -0.7343 0.7343 0.6789 -330.3161 425.7164)" class="st45" width="162.5" height="0.8"/>
					
						<rect x="226.8" y="577.6" transform="matrix(0.679 -0.7341 0.7341 0.679 -325.4629 411.6785)" class="st45" width="162.5" height="0.8"/>
					
						<rect x="213.3" y="565.2" transform="matrix(0.6787 -0.7344 0.7344 0.6787 -320.7368 398.1187)" class="st45" width="162.5" height="0.8"/>
					
						<rect x="199.9" y="552.8" transform="matrix(0.6787 -0.7344 0.7344 0.6787 -315.9203 384.2171)" class="st45" width="162.5" height="0.8"/>
					
						<rect x="186.4" y="540.3" transform="matrix(0.6787 -0.7344 0.7344 0.6787 -311.1154 370.3552)" class="st45" width="162.5" height="0.8"/>
					
						<rect x="173" y="527.9" transform="matrix(0.6787 -0.7344 0.7344 0.6787 -306.3044 356.4727)" class="st45" width="162.5" height="0.8"/>
					
						<rect x="159.5" y="515.4" transform="matrix(0.6788 -0.7343 0.7343 0.6788 -301.4687 342.5126)" class="st45" width="162.5" height="0.8"/>
					
						<rect x="146" y="503" transform="matrix(0.6787 -0.7344 0.7344 0.6787 -296.683 328.7092)" class="st45" width="162.5" height="0.8"/>
					
						<rect x="132.6" y="490.6" transform="matrix(0.6786 -0.7345 0.7345 0.6786 -291.8918 314.883)" class="st45" width="162.5" height="0.8"/>
					
						<rect x="119.1" y="478.1" transform="matrix(0.6787 -0.7344 0.7344 0.6787 -287.0617 300.9456)" class="st45" width="162.5" height="0.8"/>
					
						<rect x="280.6" y="627.4" transform="matrix(0.6789 -0.7343 0.7343 0.6789 -344.7494 467.3485)" class="st45" width="162.5" height="0.8"/>
					
						<rect x="267.2" y="615" transform="matrix(0.6788 -0.7343 0.7343 0.6788 -339.9565 453.5484)" class="st45" width="162.5" height="0.8"/>
					
						<rect x="253.7" y="602.5" transform="matrix(0.6787 -0.7344 0.7344 0.6787 -335.1689 439.7648)" class="st45" width="162.5" height="0.8"/>
				</g>
			</g>
			<g>
				
					<rect x="301.8" y="480.8" transform="matrix(0.6787 -0.7344 0.7344 0.6787 -259.0581 388.3499)" class="st48" width="25.1" height="18.9"/>
				
					<rect x="286.3" y="498.6" transform="matrix(0.6787 -0.7344 0.7344 0.6787 -277.3766 382.0114)" class="st47" width="23.3" height="18.9"/>
				
					<rect x="265.1" y="518" transform="matrix(0.6787 -0.7344 0.7344 0.6787 -297.4506 375.0543)" class="st46" width="29.8" height="18.9"/>
			</g>
			<g>
				
					<rect x="336.3" y="502.3" transform="matrix(0.6787 -0.7344 0.7344 0.6787 -265.2394 417.3062)" class="st48" width="16" height="18.9"/>
				
					<rect x="325.1" y="514.2" transform="matrix(0.6787 -0.7344 0.7344 0.6787 -277.5134 413.0563)" class="st47" width="16.4" height="18.9"/>
				
					<rect x="311.7" y="527.3" transform="matrix(0.6787 -0.7344 0.7344 0.6787 -290.9493 408.3997)" class="st46" width="19.1" height="18.9"/>
			</g>
			<g>
				
					<rect x="363.2" y="527.2" transform="matrix(0.6787 -0.7344 0.7344 0.6787 -274.8625 445.0787)" class="st48" width="16" height="18.9"/>
				
					<rect x="353.7" y="538.4" transform="matrix(0.6787 -0.7344 0.7344 0.6787 -286.4049 441.0675)" class="st47" width="14.5" height="18.9"/>
			</g>
			
				<rect x="373.4" y="559.4" transform="matrix(0.6787 -0.7344 0.7344 0.6787 -292.061 470.2079)" class="st48" width="36" height="18.9"/>
			<g>
				
					<rect x="285.4" y="451.3" transform="matrix(0.6787 -0.7344 0.7344 0.6787 -244.6827 362.2424)" class="st48" width="12.6" height="18.9"/>
				
					<rect x="255.4" y="469.9" transform="matrix(0.6787 -0.7344 0.7344 0.6787 -263.8741 355.5848)" class="st47" width="38.1" height="18.9"/>
				
					<rect x="253.3" y="487.5" transform="matrix(0.6787 -0.7344 0.7344 0.6787 -282.0216 349.295)" class="st46" width="9.8" height="18.9"/>
			</g>
			<g>
				
					<rect x="255.6" y="427.7" transform="matrix(0.6787 -0.7344 0.7344 0.6787 -236.3734 334.0175)" class="st48" width="16" height="18.9"/>
				
					<rect x="238.3" y="442.3" transform="matrix(0.6787 -0.7344 0.7344 0.6787 -251.4135 328.8192)" class="st47" width="23.7" height="18.9"/>
				
					<rect x="218.9" y="461.1" transform="matrix(0.6787 -0.7344 0.7344 0.6787 -270.8524 322.0821)" class="st46" width="27.6" height="18.9"/>
			</g>
		</g>
	</g>
	<g>
		<g>
			<path class="st49" d="M289.8,558.8c6.1,5.7,15.2,7,22.7,3.2l35.9-18c4.6-2.3,10.1-1.5,13.9,2l145.5,134.4
				c7.4,6.8,7.3,18.5-0.2,25.2L340.4,854.8c-6.5,5.8-16.4,5.7-22.9-0.2L28,587c-6.4-5.9-7.3-15.8-2-22.8l103.1-135.6
				c4.4-5.8,12.8-6.5,18.2-1.6L289.8,558.8z"/>
			<path class="st50" d="M512.8,690c-0.7,3.5-2.5,6.8-5.3,9.4L340.4,848.6c-6.5,5.8-16.4,5.7-22.9-0.2L28,580.8
				c-2.8-2.6-4.6-6-5.2-9.5c-1.1,5.6,0.7,11.6,5.1,15.7l289.5,267.6c6.4,5.9,16.3,6,22.9,0.2l167.1-149.2
				C512,701.6,513.8,695.6,512.8,690z"/>
			<path class="st51" d="M26.2,570.7l103.1-135.6c4.4-5.8,12.8-6.5,18.2-1.6L290,565.3c6.1,5.7,15.2,7,22.7,3.2l35.9-18
				c4.6-2.3,10.1-1.5,13.9,2L507.9,687c2.6,2.4,4.2,5.4,5,8.6c0.8-5.4-0.9-11.1-5.2-15.1L362.2,546c-3.8-3.5-9.3-4.3-13.9-2
				l-35.9,18c-7.5,3.7-16.5,2.5-22.7-3.2L147.2,427.1c-5.3-4.9-13.8-4.2-18.2,1.6L26,564.2c-3.2,4.2-4.1,9.4-3,14.2
				C23.4,575.7,24.4,573.1,26.2,570.7z"/>
		</g>
		<g>
			<path class="st52" d="M51.7,546.3l-3.2,3l1.4,1.8l2.8-3.5L51.7,546.3z M224.5,558.6l-47.6,39.6l-15.2,12.6l-33.6,37.3l-87.3-80.7
				l-3.1,3.9l89.5,82.7l33.6-37.3l15.2-12.6l50.9-42.4L224.5,558.6z"/>
			<g>
				<polygon class="st53" points="227.9,555.8 126.5,640.1 49.4,543.3 146.6,451.7 				"/>
				<polygon class="st54" points="176.9,598.1 220.7,549.5 130.8,466.5 128.3,468.9 216.2,550.2 161.8,610.7 				"/>
				<polygon class="st55" points="216.2,550.2 128.2,648.1 38.7,565.3 120.6,461.9 				"/>
				<g>
					<path class="st56" d="M125,614.8l-6.6,7.6c-1.1,1.3-3.1,1.4-4.4,0.3l-7.2-6.7c-1.3-1.2-1.4-3.2-0.2-4.5l6.6-7.6
						c1.2-1.3,3.1-1.5,4.4-0.3l7.3,6.7C126.1,611.4,126.1,613.5,125,614.8z M107.4,612.3c-0.7,0.8-0.6,2,0.1,2.7l7.2,6.7
						c0.8,0.7,2,0.6,2.7-0.2l6.6-7.6c0.7-0.8,0.7-2-0.1-2.8l-7.3-6.7c-0.8-0.7-2-0.6-2.7,0.2L107.4,612.3z"/>
					<g>
						<path class="st56" d="M68.3,559.7l5.4,5c0.8,0.7,0.8,2,0.2,2.8l-6.4,7.8c-0.7,0.8-1.8,0.9-2.6,0.2l-7.2-6.7
							c-0.8-0.7-0.8-2-0.2-2.8l5.5-6.9l-0.5-1.4l-6,7.4c-1.1,1.4-1,3.4,0.3,4.6l7.2,6.7c1.3,1.2,3.2,1,4.3-0.3l6.4-7.8
							c1.1-1.4,1-3.4-0.3-4.6l-7-6.5L68.3,559.7z"/>
						<path class="st56" d="M69.8,570.2c-0.3,0.3-0.7,0.5-1.1,0.4l-8.1-1.6c-0.6-0.1-1.1-0.8-0.9-1.5c0.1-0.7,0.8-1.1,1.4-1l6.1,1.2
							L62.9,555c-0.2-0.7,0.1-1.4,0.7-1.7c0.6-0.2,1.3,0.1,1.5,0.8l4.9,14.9C70.2,569.4,70.1,569.9,69.8,570.2
							C69.8,570.2,69.8,570.2,69.8,570.2z"/>
					</g>
					<g>
						<path class="st56" d="M85,575.2l5.4,5c0.8,0.7,0.8,2,0.1,2.8l-6.5,7.7c-0.7,0.8-1.9,0.9-2.6,0.2l-7.2-6.7
							c-0.8-0.7-0.8-1.9-0.2-2.8l5.6-6.8l-0.5-1.4l-6.1,7.4c-1.1,1.3-1,3.4,0.3,4.5l7.2,6.7c1.3,1.2,3.2,1,4.3-0.3l6.5-7.7
							c1.1-1.4,1-3.4-0.2-4.6l-7-6.5L85,575.2z"/>
						<path class="st56" d="M86.5,585.7c-0.3,0.3-0.7,0.5-1.1,0.4l-8.2-1.7c-0.6-0.1-1.1-0.8-0.9-1.5c0.1-0.7,0.8-1.1,1.4-1l6.1,1.2
							l-4.2-12.7c-0.2-0.7,0.1-1.4,0.7-1.6c0.6-0.2,1.3,0.1,1.5,0.8l4.9,14.8C86.9,584.8,86.8,585.3,86.5,585.7
							C86.5,585.6,86.5,585.6,86.5,585.7z"/>
					</g>
					<g>
						<path class="st56" d="M101.8,590.7l5.4,5c0.8,0.7,0.8,2,0.1,2.8l-6.6,7.7c-0.7,0.8-1.9,0.9-2.6,0.2l-7.2-6.7
							c-0.8-0.7-0.8-1.9-0.1-2.8l5.7-6.8l-0.4-1.4l-6.1,7.3c-1.1,1.3-1,3.4,0.2,4.5l7.2,6.7c1.3,1.2,3.2,1,4.3-0.3l6.6-7.7
							c1.1-1.3,1.1-3.4-0.2-4.6l-7-6.5L101.8,590.7z"/>
						<path class="st56" d="M103.2,601.1c-0.3,0.3-0.7,0.5-1.1,0.4l-8.2-1.7c-0.6-0.1-1.1-0.8-0.9-1.5c0.1-0.7,0.8-1.1,1.4-1
							l6.1,1.3l-4.1-12.6c-0.2-0.7,0.1-1.4,0.8-1.6c0.6-0.2,1.3,0.1,1.5,0.8l4.8,14.8C103.6,600.3,103.5,600.7,103.2,601.1
							C103.2,601.1,103.2,601.1,103.2,601.1z"/>
					</g>
					<path class="st56" d="M100.5,553.2L92,563.5l6.6,6.1l8.6-10.3L100.5,553.2z M122.6,563l-13.7,16.2l6.6,6.1l13.7-16.1L122.6,563
						z M92.9,526l-17.7,22l6.6,6.1l17.8-21.9L92.9,526z M112.3,502l-15.2,18.8l6.7,6.2l15.2-18.7L112.3,502z M111.4,554.4l14.8-17.7
						l-6.8-6.3l-14.7,17.8L111.4,554.4z M132.4,600.8l6.6-7.6l-6.7-6.2l-6.6,7.6L132.4,600.8z M116.6,496.6l6.8,6.3l6.4-7.9
						l-6.9-6.4L116.6,496.6z M130.5,531.5l13.4-16.1l-6.9-6.3l-13.3,16.2L130.5,531.5z M158,571.6l18.9-21.6l-6.9-6.3l-18.8,21.7
						L158,571.6z M143.3,588.3l10.2-11.7l-6.7-6.2l-10.2,11.8L143.3,588.3z M133.6,564.1l31.3-36.7l-6.9-6.4l-31.1,36.8L133.6,564.1
						z"/>
				</g>
			</g>
			<path class="st57" d="M61.6,511.3l2.7,2.5l-1.5,2l-2.7-2.5c-0.5-0.4-0.5-1.3-0.1-1.8C60.4,511,61.1,510.9,61.6,511.3z"/>
			<path class="st57" d="M76.8,497.3l-1.5,2l-5.2-4.8c-1.2-1.1-2.8-1.7-4.5-1.5c-1.6,0.2-3.1,1-4.2,2.4c-1.1,1.4-1.6,3.2-1.5,4.9
				c0.1,1.8,0.9,3.4,2.1,4.5l5.3,4.8c0,0,2.8,2.5,2.8,2.5l11.9,11c0.8,0.7,1.8,1,2.8,0.9c1-0.1,1.9-0.7,2.6-1.6
				c1.2-1.7,0.9-4.1-0.6-5.5l-11.9-11l-2.7-2.5c0,0-2.5-2.3-2.5-2.3c-0.5-0.4-0.5-1.3-0.1-1.8c0.5-0.6,1.2-0.6,1.7-0.2l2.4,2.2
				c0,0,2.7,2.5,2.7,2.5l12,11c2.5,2.3,2.8,6.2,0.9,9c-1,1.5-2.5,2.4-4.2,2.7c-1.6,0.2-3.3-0.3-4.5-1.4l-11.9-11l-2.7-2.5
				c0,0-5.4-4.9-5.4-4.9c-1.7-1.6-2.7-3.8-2.9-6.2c-0.2-2.5,0.6-4.9,2-6.8c1.5-2,3.6-3.2,5.8-3.4c2.3-0.3,4.5,0.5,6.2,2L76.8,497.3z
				"/>
		</g>
	</g>
</g>
<g>
	<path class="st58" d="M544,535.6l76.6-14.9c37.5,11.1,70.6,20.3,99.1,28.7c31.7,9.3,42.6,16.6,59.4,26.6c18.5,11,44,25.5,56.1,95.9
		c5.9,34.2,10.8,93.9,0.5,162.1c-76.5,38.5-507.2,38.5-583.6,0c-10.3-68.3-5.4-127.9,0.5-162.1c12.1-70.3,37.6-84.9,56.1-95.9
		c16.8-10,27.8-17.4,59.4-26.6c28.6-8.4,61.6-17.5,99.1-28.7L544,535.6z"/>
	<g>
		<path class="st59" d="M468.3,433.8c2.4,26.7-1.6,89.2-9.5,110.5c19.7,32.8,52,56.4,85.2,56.4c33.1,0,65.5-23.6,85.2-56.4
			c-7.9-21.3-11.8-83.8-9.5-110.5H468.3z"/>
		<path class="st60" d="M619.8,478.4c-17.7,33.1-42.4,56.1-75.8,56.1c-33.4,0-58.1-23-75.8-56.1c0.2-2.7,0.3-5.5,0.4-8.1
			c17.3,33,41.8,56.3,75.4,56.3c33.5,0,58.1-23.2,75.4-56.3C619.5,473,619.6,475.7,619.8,478.4z"/>
		<g>
			<g>
				<path class="st59" d="M650.1,343.8c10.6-18.3,25-14,20.5,21.7c-2.2,18-20.5,68.6-32.6,43.5C641.5,378.4,650.1,343.8,650.1,343.8
					z"/>
				<path class="st59" d="M438,343.8c-10.6-18.3-25-14-20.5,21.7c2.2,18,20.5,68.6,32.6,43.5C446.6,378.4,438,343.8,438,343.8z"/>
			</g>
			<path class="st59" d="M544,526.6c72,0,102.6-107.2,109.1-188.4C657,289.9,627,215.9,544,215.9c-82.9,0-112.9,74-109.1,122.2
				C441.4,419.3,472.1,526.6,544,526.6z"/>
			<g>
				<g>
					<path class="st61" d="M631.9,238.3c-5,15.1-7.6,38.5-2.9,51.4c4.7,12.8,12.4,17.8,11.5,23.5c-0.9,5.7-6.1,17.5-4.8,29.3
						c1.3,11.8,6.1,13.1,6.6,25c0.4,11.8-1.3,18,0.9,23.2c3.5-6.1,2.9-24.5,3.9-32.4c2.5-19,8.8-16.2,12.3-27.6
						c3.5-11.4,5.3-35,4.8-56.5s-3-34.3-14-46.4C645.8,223,636,226.1,631.9,238.3z"/>
					<path class="st61" d="M456.2,238.3c5,15.1,7.6,38.5,2.9,51.4c-4.7,12.8-12.4,17.8-11.5,23.5c0.9,5.7,6.1,17.5,4.8,29.3
						c-1.3,11.8-6.1,13.1-6.6,25c-0.4,11.8,1.3,18-0.9,23.2c-3.5-6.1-2.5-24.5-3.9-32.4c-2.6-14-8.8-16.2-12.3-27.6
						c-3.5-11.4-5.3-35-4.8-56.5s3-34.3,14-46.4C442.3,223,452.1,226.1,456.2,238.3z"/>
				</g>
				<path class="st61" d="M639.3,245.3c-8,16.3-57.4,48.2-105.5,48.2c-48.2,0-87.8-5.3-110.6-31.6c3.7-28.5,15.6-49.9,41.4-71.3
					c20.6-17.1,51.7-21,75.8-21c39.4,0,68.7,11.8,86.3,26.7C644.2,211.2,651.2,221.2,639.3,245.3z"/>
			</g>
		</g>
		<g>
			<path class="st2" d="M656.5,337c0.4-0.6,0.8-1.3,1.2-2.1c2.2-1.6,4.5-2.1,6.5-1.5c1.5-6.9-2.4-6.6-3.5-6l-15.2,7l4,9.8L656.5,337
				z"/>
			<path class="st2" d="M431.6,337c-0.4-0.6-0.8-1.3-1.2-2.1c-2.2-1.6-4.5-2.1-6.5-1.5c-1.5-6.9,2.4-6.6,3.5-6l15.2,7l-4,9.8
				L431.6,337z"/>
			<g>
				<g>
					<path class="st62" d="M560.4,339.4c0.9-1.4,2-2.6,3.3-3.6c-3.1-1.5-6.2-2.6-9.5-3.2c-3.8-0.7-6.7-1-10.1-1
						c-3.4,0-6.3,0.2-10.1,1c-3.4,0.7-6.6,1.8-9.7,3.3c1.4,1.1,2.6,2.4,3.5,3.9c0.9,1.5,1.6,3,2.1,4.7l1.8,2.7c1.7-1.6,3.5-3,5.6-4
						c2.2-1.1,4.4-1.8,6.8-1.8c2.4,0,4.6,0.7,6.8,1.8c2.1,1,3.9,2.4,5.6,4l1.7-2.6C558.6,342.7,559.4,341,560.4,339.4z"/>
					<path class="st63" d="M529.1,336.5c2.3-0.9,4.7-1.7,7.2-2.2c3.8-0.7,6.7-1,10.1-1c3.4,0,6.3,0.2,10.1,1c1.7,0.3,3.4,0.8,5,1.3
						c-2.4-1-4.8-1.7-7.4-2.2c-3.8-0.7-6.7-1-10.1-1c-3.4,0-6.3,0.2-10.1,1c-2,0.4-3.9,0.9-5.7,1.6L529.1,336.5z"/>
					<path class="st64" d="M528.4,334.1c-1.4,0.5-2.8,1.1-4.1,1.8c1.4,1.1,2.6,2.4,3.5,3.9c0.9,1.5,1.6,3,2.1,4.7l1.8,2.7
						c0.8-0.7,1.6-1.4,2.5-2.1c-0.5-2.7-1.5-5.2-2.9-7.5C530.4,336.2,529.5,335.1,528.4,334.1z M563.3,335.6
						C563.7,335.8,563,335.4,563.3,335.6L563.3,335.6z M563.3,335.6c-1.2-0.6-2.5-1.1-3.7-1.6c-1,1-1.8,2-2.6,3.2
						c-1.5,2.4-2.6,5-3.1,7.8c0.9,0.6,1.7,1.4,2.5,2.1l1.7-2.6c0.5-1.8,1.2-3.6,2.2-5.1c0.9-1.4,2-2.6,3.3-3.6
						C563.6,335.7,563.5,335.7,563.3,335.6z"/>
				</g>
				<g>
					<path class="st62" d="M650.6,340.9l-2.1-5c-0.6-1.5-2.3-2.4-3.9-2l-6.9,1.5c2.8,3.7,4.6,8.1,5.1,12.8l0.4,1l6.1-4
						C650.7,344.2,651.2,342.5,650.6,340.9z"/>
					<g>
						<path class="st65" d="M648.1,340.1c0,1.4-1.1,2.6-2.6,2.6c-1.4,0-2.6-1.1-2.6-2.6c0-1.4,1.1-2.6,2.6-2.6
							C646.9,337.6,648.1,338.7,648.1,340.1z"/>
						<path class="st66" d="M644.8,341.2c0-1,0.8-1.7,1.7-1.7c0.2,0,0.4,0,0.6,0.1c-0.2-0.7-0.9-1.1-1.6-1.1c-1,0-1.7,0.8-1.7,1.7
							c0,0.8,0.5,1.4,1.1,1.6C644.8,341.6,644.8,341.4,644.8,341.2z"/>
					</g>
					<path class="st62" d="M450.3,335.4l-6.8-1.4c-1.6-0.3-3.3,0.5-3.9,2l-2.1,5c-0.6,1.5-0.1,3.3,1.3,4.2l6.1,4l0.4-1
						C445.7,343.5,447.5,339.1,450.3,335.4z"/>
					<g>
						<path class="st65" d="M445.2,340.1c0,1.4-1.1,2.6-2.6,2.6c-1.4,0-2.6-1.1-2.6-2.6c0-1.4,1.1-2.6,2.6-2.6
							C444,337.6,445.2,338.7,445.2,340.1z"/>
						<path class="st66" d="M441.9,341.2c0-1,0.8-1.7,1.7-1.7c0.2,0,0.4,0,0.6,0.1c-0.2-0.7-0.9-1.1-1.6-1.1c-1,0-1.7,0.8-1.7,1.7
							c0,0.8,0.5,1.4,1.1,1.6C441.9,341.6,441.9,341.4,441.9,341.2z"/>
					</g>
				</g>
				<g>
					<path class="st62" d="M517.5,331.1l-42.4-7.2c-16.7-2.8-31.8,10.2-31.6,27.1l0.2,12.6c0.2,11.1,7.7,20.6,18.5,23.3l6.9,1.7
						c9.5,2.4,19.3,3.1,29,2.2c13.2-1.2,22.7-8.8,28.6-22.6c2-4.7,3.5-9.3,4.7-13.9C534.2,343.8,528.3,333,517.5,331.1z M529.8,354
						c-1.4,5.3-2.9,9.6-4.7,13.7c-5.7,13.2-14.8,20.4-27.3,21.6c-2.6,0.2-5.2,0.4-7.8,0.4c-6.9,0-13.9-0.9-20.6-2.5l-6.9-1.7
						c-10-2.5-17.1-11.5-17.2-21.8l-0.2-12.6c-0.1-6.9,2.5-13.3,7.3-18.2c4.8-4.9,11.3-7.6,18.1-7.6c1.4,0,2.9,0.1,4.3,0.4l42.4,7.2
						c4.4,0.7,8.2,3.2,10.6,7C530.4,343.8,531.2,349,529.8,354z"/>
					<path class="st67" d="M490.1,389.7c-6.9,0-13.9-0.9-20.6-2.5l-6.9-1.7c-10-2.5-17.1-11.5-17.2-21.8l-0.2-12.6
						c-0.1-6.9,2.5-13.3,7.3-18.2c4.8-4.9,11.3-7.6,18.1-7.6c1.4,0,2.9,0.1,4.3,0.4l42.4,7.2c4.4,0.7,8.2,3.2,10.6,7
						c2.6,4.1,3.4,9.3,2,14.3c-1.4,5.3-2.9,9.6-4.7,13.7c-5.7,13.2-14.8,20.4-27.3,21.6C495.3,389.5,492.7,389.7,490.1,389.7z"/>
					<path class="st62" d="M644.3,364l0.3-12.6c0.4-16.9-14.7-30-31.4-27.3l-42.4,6.8c-10.8,1.7-16.8,12.6-14.1,23.2
						c1.2,4.6,2.7,9.3,4.6,14c5.8,13.8,15.3,21.5,28.5,22.8c9.7,1,19.5,0.3,29-2l6.9-1.7C636.4,384.5,644.1,375,644.3,364z
						 M625.3,385.6l-6.9,1.7c-6.8,1.6-13.7,2.4-20.6,2.4c-2.6,0-5.2-0.2-7.8-0.4c-12.4-1.2-21.6-8.6-27.1-21.8
						c-1.7-4.1-3.2-8.5-4.6-13.8c-1.3-5-0.5-10.2,2.1-14.3c2.4-3.7,6.2-6.2,10.6-6.9l42.4-6.8c1.4-0.2,2.9-0.3,4.3-0.3
						c6.8,0.1,13.2,2.8,18,7.7c4.8,4.9,7.3,11.4,7.2,18.3l-0.3,12.6C642.4,374.2,635.3,383.1,625.3,385.6z"/>
					<path class="st68" d="M597.7,389.6c6.9,0.1,13.9-0.8,20.6-2.4l6.9-1.7c10-2.4,17.2-11.3,17.4-21.6l0.3-12.6
						c0.1-6.9-2.4-13.3-7.2-18.3c-4.8-4.9-11.2-7.7-18-7.7c-1.4,0-2.9,0.1-4.3,0.3l-42.4,6.8c-4.4,0.7-8.2,3.2-10.6,6.9
						c-2.7,4.1-3.4,9.3-2.1,14.3c1.4,5.3,2.8,9.6,4.6,13.8c5.6,13.2,14.7,20.5,27.1,21.8C592.5,389.5,595.1,389.6,597.7,389.6z"/>
					<path class="st69" d="M523,341.7c2,0,4,0,5.9,0.1c-0.3-0.7-0.7-1.5-1.1-2.1c-2.4-3.7-6.1-6.2-10.6-7l-42.4-7.2
						c-1.4-0.2-2.9-0.4-4.3-0.4c-6.8,0-13.2,2.7-18.1,7.6c-4.8,4.9-7.4,11.3-7.3,18.2l0.1,8.9C466.5,348.6,493.5,341.7,523,341.7z"
						/>
					<path class="st69" d="M562.8,367.4c0.3,0.7,0.6,1.3,0.9,2c15.5-17.7,41-31.1,71.3-37.1c-4.7-4.5-10.8-6.9-17.3-7
						c-1.4,0-2.9,0.1-4.3,0.3l-42.4,6.8c-4.4,0.7-8.2,3.2-10.6,6.9c-2.7,4.1-3.4,9.3-2.1,14.3C559.7,358.9,561.1,363.3,562.8,367.4z
						"/>
				</g>
			</g>
		</g>
	</g>
	<g>
		<g>
			<polygon class="st70" points="544.1,585.5 452.4,559.1 419.2,589.8 544.1,853.9 668.9,589.8 635.7,559.1 			"/>
		</g>
		<g>
			<path class="st71" d="M544,645.5c-2.7,0-6,0.4-9.2,1.1c-7.2-9.7-14.7-16-25-22.3c6.8-5.3,21.8-25.7,26.7-33.6
				c1.3,0.1,6.2,0.2,7.5,0.2c1.4,0,6.2-0.1,7.5-0.2c4.9,7.9,19.9,28.3,26.7,33.6c-10.3,6.4-17.8,12.6-25,22.3
				C550,645.9,546.8,645.5,544,645.5z"/>
			<path class="st72" d="M566.2,632.9l-37-31.7c-1.8,2.5-3.7,5.1-5.7,7.6c0,0,35.7,30.6,35.7,30.6
				C561.5,637.1,563.8,634.9,566.2,632.9z"/>
			<g>
				<path class="st73" d="M516,618.1l32.3,27.6c1.6,0.2,3.3,0.5,5,0.8c2-2.6,4-5,6-7.2l-35.7-30.6C521,612.2,518.4,615.4,516,618.1z
					 M536.1,591.3c-1.6,2.5-4,6-6.9,9.9l37,31.7c3-2.5,6.3-4.9,10-7.3L536.1,591.3z"/>
			</g>
			<path class="st71" d="M544.1,853.9c-7.6-22.7-31.7-58.7-41.6-79.8c4.8-36.8,18.8-94.3,32.4-127.6c3.3-0.7,6.5-1.1,9.2-1.1
				c2.7,0,6,0.4,9.2,1.1c13.6,33.3,27.6,90.8,32.4,127.6C575.8,795.2,551.7,831.3,544.1,853.9z"/>
			<g>
				<path class="st72" d="M574.7,717l-68.8,59v5c1.4,2.7,2.9,5.6,4.6,8.5l67.6-57.9C577,726.8,575.9,721.9,574.7,717z M559.5,663.3
					L518,698.9c-2,7.3-3.8,14.8-5.5,22.2l51.4-44C562.4,672.3,561,667.7,559.5,663.3z M529.3,822.7c2.2,4.1,4.4,8.1,6.4,12
					l31.8-27.2c3.3-5.7,6.5-11.3,9.4-16.6l-0.8-8.2L529.3,822.7z"/>
			</g>
			<g>
				<path class="st73" d="M563.9,677l-51.4,44c-1.5,6.6-2.9,13.1-4.2,19.4l59.4-50.8C566.4,685.3,565.1,681.1,563.9,677z M578,731.6
					l-67.6,57.9c1.9,3.4,3.9,7,6,10.6l64.3-55.1C579.9,740.7,579,736.2,578,731.6z M540.9,846l10.4-8.9c4.7-9.4,10.4-19.7,16.1-29.6
					l-31.8,27.2C537.6,838.6,539.4,842.4,540.9,846z M571.5,704l-67.1,57.5c-0.7,4.4-1.4,8.7-1.9,12.7c0.5,1.1,1.1,2.2,1.6,3.3
					l70.6-60.5C573.7,712.7,572.6,708.3,571.5,704z M555.1,651.3L523.9,678c-2.1,6.7-4,13.7-6,20.9l41.5-35.5
					C558,659.1,556.6,655,555.1,651.3z M583.6,760.4L523.3,812c2,3.6,4,7.1,6,10.7l56.1-48.1c0.1-0.2,0.2-0.3,0.2-0.5
					C585.1,769.8,584.4,765.2,583.6,760.4z"/>
			</g>
			<path class="st74" d="M533.2,650.8c3.9-0.7,7.6-1.2,10.9-1.2c3.2,0,7,0.4,10.9,1.2c-0.5-1.4-1.1-2.9-1.6-4.2
				c-3.3-0.7-6.5-1.1-9.2-1.1c-2.7,0-6,0.4-9.2,1.1C534.3,647.9,533.7,649.4,533.2,650.8z"/>
		</g>
		<path class="st75" d="M617.3,605.5c-14.2,17.6-25.5,27.6-40.5,39c-5.9-12.9-16.8-30.2-24.9-44.3c-2.7-4.6-5-9-6.8-12.7
			c-0.4-0.7-0.7-1.4-1-2.1c-0.3,0.7-0.6,1.4-1,2.1c-1.8,3.7-4.1,8-6.8,12.6c-8.1,14.1-19,31.4-24.9,44.3c-15-11.4-26.3-21.4-40.5-39
			c-5.2-6.4-9-12.7-11.9-18.9c0.5,3.7,0.9,7.3,1.4,10.9c2.7,5.2,6.2,10.5,10.5,15.9c12.3,15.3,22.5,24.8,34.8,34.5
			c2.9,2.3,7.2,1.4,8.8-1.9c6.1-11.9,15-26,21.8-37.9c2.7-4.6,6-9.2,7.8-12.9c1.8,3.7,5.1,8.2,7.8,12.9
			c6.8,11.9,15.7,26.1,21.8,37.9c1.7,3.3,6,4.2,8.8,1.9c12.3-9.7,22.4-19.2,34.8-34.5c4.8-6,8.5-11.9,11.4-17.7
			c0.5-3.7,1-7.4,1.5-11.2C627.1,591.4,623,598.4,617.3,605.5z"/>
		<g>
			<g>
				<path class="st76" d="M623.7,519.3c-0.2,0.7-0.5,1.3-0.8,2C623.2,520.5,623.4,519.9,623.7,519.3c-0.7-4.9-1.3-10.1-1.9-15.4
					c0.2,0.2,0.4,0.3,0.5,0.5c0.1,0.1,0.3,0.3,0.4,0.5c0.1,0.1,0.2,0.2,0.3,0.4c0.3,0.4,0.5,0.7,0.7,1.1c0.2,0.4,0.4,0.8,0.6,1.3
					c0.1,0.2,0.2,0.4,0.2,0.7c0.1,0.5,0.3,1,0.4,1.5c0.1,0.3,0.1,0.5,0.1,0.8C625.3,513.2,624.8,516.1,623.7,519.3z"/>
				<path class="st77" d="M617.3,605.5c-14.2,17.6-25.5,27.6-40.5,39c-5.9-12.9-16.8-30.2-24.9-44.3c-2.7-4.6-5-9-6.8-12.7
					c-0.4-0.7-0.7-1.4-1-2.1c19.2-10.5,46.9-31.1,56.2-38.4c11-8.6,18.9-17.6,22.6-25.7c0-0.1,0.1-0.1,0.1-0.2
					c0.3-0.7,0.6-1.3,0.8-2c1.1-3.1,1.6-6.1,1.2-8.7c0-0.3-0.1-0.5-0.1-0.8c-0.1-0.5-0.2-1-0.4-1.5c-0.1-0.2-0.2-0.5-0.2-0.7
					c-0.2-0.4-0.4-0.9-0.6-1.3c-0.2-0.4-0.5-0.8-0.7-1.1c-0.1-0.1-0.2-0.3-0.3-0.4c-0.1-0.2-0.2-0.3-0.4-0.5
					c-0.2-0.2-0.3-0.4-0.5-0.5c-0.1-1.3-0.3-2.5-0.4-3.8c10.5,5.9,12.8,18.7,14.3,30.7C637.6,546,642,574.7,617.3,605.5z"/>
			</g>
			<g>
				<path class="st76" d="M466.3,503.9c-0.6,5.3-1.2,10.5-1.9,15.3c0.2,0.7,0.5,1.3,0.8,2c-0.3-0.6-0.6-1.3-0.8-1.9
					c-1.2-3.1-1.6-6.1-1.2-8.8c0.2-1.3,0.5-2.4,0.9-3.5c0.4-1,1-1.9,1.7-2.7C466,504.2,466.1,504,466.3,503.9
					C466.3,503.9,466.3,503.9,466.3,503.9z"/>
				<path class="st77" d="M544,585.5c-0.3,0.7-0.6,1.4-1,2.1c-1.8,3.7-4.1,8-6.8,12.6c-8.1,14.1-19,31.4-24.9,44.3
					c-15-11.4-26.3-21.4-40.5-39c-24.8-30.8-20.3-59.5-18.5-74.7c1.5-12.1,3.8-24.8,14.3-30.7c-0.1,1.3-0.2,2.5-0.4,3.8
					c-0.2,0.2-0.4,0.4-0.5,0.6c-0.7,0.8-1.3,1.7-1.7,2.7c-0.4,1-0.7,2.1-0.9,3.4c-0.3,2.7,0.1,5.6,1.2,8.7c0.2,0.7,0.5,1.3,0.8,2
					c0,0.1,0,0.1,0.1,0.2c3.7,8.1,11.6,17.1,22.6,25.7C497.1,554.3,524.9,574.9,544,585.5z"/>
			</g>
		</g>
		<path class="st78" d="M450.4,525.8c-7.4,2.2-14.7,4.3-21.7,6.3c-16,11.9-35.9,29.2-46.5,47.1c-1.5,2.5-0.7,5.8,1.9,7.3
			c9.6,5.6,17.8,11.1,26.5,17.6c-12.5,7.3-29.5,19.1-36.9,25.8c-1.9,1.7-2.3,4.5-1,6.7c59,97.6,114.1,172.5,163.6,222.7l5.3,5.4
			l4.9-10.3C459.4,724.7,435.3,560.3,450.4,525.8z"/>
		<path class="st58" d="M453.7,522.1c-9.8,4.8-50.5,32.1-67,59.8c12.8,7.5,22.8,14.5,33.5,23c-12,6-34.5,21.3-43,29
			c45.2,74.7,103.1,161.2,162.8,221.7c1.3-2.8,2.7-5.7,4-8.5C487.1,726.7,459.1,648.4,453.7,522.1z"/>
		<path class="st78" d="M586.3,827.2c46.4-62.2,99.5-141.4,129.2-190.5c1.3-2.2,0.9-5-1-6.7c-7.4-6.7-24.3-18.5-36.9-25.8
			c8.7-6.5,16.9-12,26.5-17.6c2.6-1.5,3.4-4.8,1.9-7.3c-11.4-19.1-32.4-36.6-46.4-47.1c-6.4-1.8-12.9-3.7-19.5-5.7
			c4,36.1,12.3,144.5-69.8,293.2C556.7,844.2,565.4,855.2,586.3,827.2z"/>
		<path class="st58" d="M588.9,814.6c44.5-60.4,93.8-134.2,122-180.7c-8.5-7.8-31-23-43-29c10.8-8.5,20.8-15.5,33.5-23
			c-13.2-22.2-41.8-44.1-57.8-54.4c-3.1-0.9-5.5-1.6-8.6-2.5c-5,109.4-27.6,182.8-71.3,279.7C554.4,825.4,564,848.4,588.9,814.6z"/>
	</g>
	<g>
		<path class="st78" d="M378.7,712.4c1.4-19.7,0.6-43-4.4-58.8c0.5,5.1,0.9,10.2,1,15c0.9,24.4-0.7,69.3-13.7,117.7
			c-1.7,6.5-8,32.3-14.3,51.9c2.3,1.2,4.6,2.4,6.9,3.5c1.7-4.6,2.9-8.2,3.4-10.2C370.9,785,376.9,737,378.7,712.4z"/>
		<path class="st78" d="M709.4,712.4c-1.4-19.7-0.6-43,4.4-58.8c-0.5,5.1-0.9,10.2-1,15c-0.9,24.4,0.7,69.3,13.7,117.7
			c1.7,6.5,8,32.3,14.3,51.9c-2.3,1.2-4.6,2.4-6.9,3.5c-1.7-4.6-2.9-8.2-3.4-10.2C717.2,785,711.2,737,709.4,712.4z"/>
		<g>
			<path class="st79" d="M691.5,748.7c-4.5,0.8-13.6,3.3-22.2,2.2c-0.5,0-1,0-1.5-0.1c-1.1-0.1-2.3-0.1-3.6-0.2
				c-0.6,0-1.3-0.1-2-0.2c-2.7-0.3-5.5-0.6-7.9-1.3c3.6-2.5,7.5-3.8,12.7-5.7c4.3-1.6,13.2-4.3,18.1-6c4.7-1.6,8.9-1.9,12.6,0.4
				c3,1.8,6.3,5.7,8.2,7.9C700.7,746.3,694.9,748.1,691.5,748.7z"/>
			<g>
				
					<rect x="685.8" y="702.8" transform="matrix(0.3682 -0.9297 0.9297 0.3682 -218.3315 1103.3918)" class="st80" width="33.8" height="19.2"/>
				
					<rect x="683" y="708.2" transform="matrix(0.3682 -0.9297 0.9297 0.3682 -219.0729 1100.0647)" class="st81" width="33.8" height="6.1"/>
				<path class="st80" d="M657.6,833.7l-5-2c-3.5-1.4-5.3-5.4-3.9-8.9l5-12.5l17.8,7.1l-5,12.5C665.1,833.4,661.1,835.1,657.6,833.7
					z"/>
				<path class="st82" d="M670.2,816.8l-4.5,11.4c-1.4,3.5-5.4,5.3-8.9,3.9l-5-2c-1.3-0.5-2.4-1.4-3.2-2.5c0.6,1.8,2,3.4,3.9,4.2
					l5,2c3.5,1.4,7.5-0.3,8.9-3.9l5-12.5L670.2,816.8z"/>
				<path class="st83" d="M713.9,710.1l-17.8-7c-2.3-0.9-3.4-3.5-2.5-5.8l4.7-11.9l26,10.3l-4.7,11.9
					C718.8,709.9,716.2,711,713.9,710.1z"/>
				<path class="st83" d="M756.6,576.4c-33.4-13.2-71.1,3.1-84.3,36.5c-12,30.3,0.4,64.3,27.8,80.2c2.7,1.6,5.6,3,8.6,4.2
					c3,1.2,6.1,2.1,9.2,2.9c30.8,7.2,63.2-9,75.2-39.4C806.3,627.4,789.9,589.7,756.6,576.4z M714.9,681.5
					c-24.7-9.8-36.7-37.7-27-62.3c9.8-24.7,37.7-36.7,62.3-27c24.7,9.8,36.7,37.7,27,62.3C767.5,679.2,739.6,691.3,714.9,681.5z"/>
				<path class="st84" d="M688,619.2c9.8-24.7,37.7-36.7,62.3-27c11.5,4.6,20.3,13.1,25.3,23.4c-4.7-12-14.1-22.2-27.1-27.3
					c-24.7-9.8-52.6,2.3-62.3,27c-5.2,13.1-4.2,27.2,1.6,38.9C683.7,643.3,683.3,630.9,688,619.2z M791.2,608.9
					c5.9,14.9,6.5,31.9,0.1,48c-12,30.3-44.3,46.6-75.2,39.4c-3.1-0.7-6.1-1.7-9.2-2.9c-3-1.2-5.9-2.6-8.6-4.2
					c-11.5-6.7-20.4-16.5-25.9-28c5.3,13.1,14.8,24.5,27.6,31.9c2.7,1.6,5.6,3,8.6,4.2c3,1.2,6.1,2.1,9.2,2.9
					c30.8,7.2,63.2-9,75.2-39.4C800,643.3,798.7,624.6,791.2,608.9z"/>
				<path class="st85" d="M773.4,611.5c7.7,12.5,9.7,28.3,3.9,43c-9.8,24.7-37.7,36.7-62.3,27c-8.1-3.2-14.9-8.5-19.9-14.9
					c5.2,8.4,13.1,15.4,23.1,19.3c24.7,9.8,52.6-2.3,62.3-27C786.9,642.5,783.6,624.5,773.4,611.5z M675.3,617.4
					c13.2-33.4,51-49.7,84.3-36.5c11.4,4.5,20.8,12,27.7,21.1c-7.1-11.1-17.6-20.3-30.8-25.5c-33.4-13.2-71.1,3.1-84.3,36.5
					c-8.7,22-4.5,45.8,8.8,63.3C670.2,659.3,667.3,637.5,675.3,617.4z"/>
				<path class="st86" d="M750.3,592.2c-24.7-9.8-52.6,2.3-62.3,27c-9.8,24.7,2.3,52.6,27,62.3c24.7,9.8,52.6-2.3,62.3-27
					C787.1,629.9,775,602,750.3,592.2z"/>
				<path class="st87" d="M701.1,632c8-20.3,31-30.3,51.4-22.2c7.1,2.8,13,7.5,17.2,13.3c-3.8-10.1-11.6-18.7-22.5-23
					c-20.3-8-43.3,1.9-51.4,22.2c-5.2,13.2-2.8,27.5,5,38.1C697.5,651.5,697.3,641.5,701.1,632z"/>
				
					<rect x="653.5" y="810.4" transform="matrix(0.3682 -0.9297 0.9297 0.3682 -345.2761 1131.7694)" class="st82" width="13.3" height="19.2"/>
				<path d="M670.3,828.9l-23.8-9.4c-2.6-1-3.8-3.8-2.9-6.3l36.9-93.2c1-2.4,3.8-3.6,6.4-2.6l23.8,9.4c2.6,1,3.8,3.8,2.9,6.3
					l-36.9,93.2C675.7,828.8,672.9,830,670.3,828.9z"/>
				<path class="st3" d="M691.5,727.9c4.7,0.8,17,3.1,17,3.1l-18.8-7.4c-2.2-0.9-4.7,0.2-5.5,2.4l-35.3,89.3
					c0,0,28.2-63.6,37.1-85.1C686.8,728.2,689.1,727.5,691.5,727.9z"/>
			</g>
			<path class="st75" d="M667.8,750.8c0.5,0,1,0,1.5,0.1c8.6,1.1,17.7-1.4,22.2-2.2c3.7-0.7,11.7-2.8,17.2-3.1l1.1-2.9
				c-7.5,0.7-17,3-19.8,3.7c-4.5,1.1-12.7,2.2-22,3.8c-1.1,0.2-2.2,0.3-3.3,0.3C665.8,750.7,666.9,750.8,667.8,750.8z"/>
			<path class="st59" d="M596,790.3c2.1-0.2,15-3.8,17.4-4.6c5.2-1.7,12.9-4.7,16.7-8c5.4-4.8,7.4-13.9,14.2-20
				c3.9-3.6,7-6.3,10.1-8.5c2.4,0.6,5.3,1,7.9,1.3c0.7,0.1,1.3,0.1,2,0.2c1.3,0.1,2.5,0.2,3.6,0.2c0.5,0,1,0,1.5,0.1
				c8.6,1.1,17.7-1.4,22.2-2.2c4.5-0.8,13.5-3.7,19.2-2.9c5.9,0.8,12.3,3.9,13.9,9.8c1.6,5.9-0.6,9.5-4.7,12.7
				c4.6,2,7.8,6.2,7.3,11.4c-0.6,5.2-2.5,8.8-5.4,10.7c1.9,2.2,2.9,4.8,2.8,8.3c-0.1,3.5-2,8.1-5.4,10.6c1.1,1.1,2.4,2.9,2.1,5.4
				c-0.5,5.9-5.2,12.3-11.3,16.8c-6.1,4.5-11.2,5.2-18.2,6.3c-6.9,1.1-64.7,9.8-74.5,11.7c-4.1,0.8-11.5,2.8-13.7,3.1L596,790.3z"/>
			<path class="st60" d="M709.9,831.4c-6.1,4.5-11.2,5.2-18.2,6.3c-6.9,1.1-64.7,9.8-74.5,11.7c-4.1,0.8-11.5,2.8-13.7,3.1
				l-2.1-11.5c2.9-0.7,12.8-1.8,15.5-2.3c43.8-8.9,63.4-3.2,81.5-7.4c8-1.9,15.1-5.5,22.7-15.6C720.2,821.3,715.7,827.2,709.9,831.4
				z"/>
			<path class="st88" d="M724.7,755.5c0.1,0.2,0.1,0.4,0.2,0.6c-2.5-3.7-5.9-6.2-11.1-8.2c-4.3-1.7-9-1.7-13.1-1.3
				c3.5-0.7,7.3-1.3,10.1-0.9C716.6,746.6,723.1,749.7,724.7,755.5z"/>
			<path class="st88" d="M724.9,771.9c-4.4-2.8-10-2.4-12.9-2.2c1.6-0.8,4.7-1.5,8-1.5C721.9,769.1,723.6,770.3,724.9,771.9z"/>
			<path class="st60" d="M719.9,768.2c-3.2,0-6.4,0.7-8,1.5c3.3-1.7,9.9-5.4,13-8.6C724.4,763.9,722.6,766.2,719.9,768.2z"/>
			<path class="st60" d="M721.8,790.3c-1.5,1.8-3.8,2.8-5.7,3.2c4.4-3.3,8-7,10.8-11.3C725.9,786,724.2,788.8,721.8,790.3z"/>
			<path class="st88" d="M716,793.5c1.9-0.4,4.3-1.4,5.7-3.2c0.3,0.3,0.6,0.7,0.8,1C720.3,792.8,718,793.8,716,793.5z"/>
			<path class="st60" d="M719.1,809.2c-2.2,1.9-4.4,2.5-7.6,3.5c3.8-2.1,10-7.2,12.8-12.2C723.8,803.6,722,807.2,719.1,809.2z"/>
			<path class="st88" d="M711.6,812.7c3.2-1,5.3-1.6,7.6-3.5c0.2,0.2,0.4,0.4,0.6,0.7C716.7,812.3,713.5,812.9,711.6,812.7z"/>
			<path class="st75" d="M626.8,792.6c41,11.5,72.4,16.6,93.8,19c-0.4-0.9-1-1.8-1.5-2.4c0.3-0.2,0.6-0.6,0.9-0.8
				c-14.1-1.2-36.5-5.1-58.8-10.1c-16.5-3.7-33.2-8.5-46.8-12.9c-0.4,0.1-0.7,0.3-1.1,0.4c-0.8,0.3-2.6,0.8-4.9,1.4
				C614.4,789,620.4,790.8,626.8,792.6z"/>
		</g>
		<path class="st58" d="M358,802.6l11.9,1.8c26.3,3.9,53.2,2.1,78.8-5.4c0,0,97.1,4.1,152.6-8.8c9-2.1,57.2,62.7,45.3,69.5
			c-22.9,13.1-60,26.2-79.5,31.4c-61.7,16.3-135.9,21.8-192.3,23.3c0,0-58.5-2.3-75.9-3.4c-23.4-1.4-35.7-9-40.4-36.4
			c-2.5-14.2-8.4-57.3-8.4-57.3L358,802.6z"/>
		<g>
			<path class="st59" d="M491.4,755.6c-26.4-7.7-54.5-7.7-80.8,0.3l-6.6,2c-11.7,3.5-22.2,10-30.5,18.7c-6,6.3-10.4,13.8-13.7,21.8
				l-1.8,4.3l11.9,1.8c15,2.3,30.1,2.6,45.1,1.1c0.1,0,0.3,0,0.4,0c2.3-0.5,4.7-0.8,7.1-0.9c10.6-0.6,21.3,1.7,30.9,6.2l18.2,8.6
				l26.3-62L491.4,755.6z"/>
			<path class="st69" d="M632.3,796.9L544,771l-52.6-15.4c-26.4-7.7-54.5-7.7-80.8,0.3l-6.6,2c-11.7,3.5-22.2,10-30.5,18.7
				c-4.7,5-8.5,10.8-11.5,16.9c2.2-3.7,4.7-7.3,7.7-10.5c8.1-8.8,18.4-15.5,30-19.2l6.6-2.1c26.1-8.5,54.2-9.3,80.8-2.4l53,13.8
				l90.3,23.5C630.9,796.6,631.6,796.7,632.3,796.9z"/>
			<path class="st70" d="M497.3,756l-25.8,63.5l21.1,10l28.5-68.6l-19.8-6.6C499.6,753.6,497.9,754.4,497.3,756z"/>
			<g class="st75">
				<path d="M394.8,803.5c-8.8-0.6-15.7-1.4-24.4-2.7l-11-1.6l-1.4,3.4l11.9,1.8c15,2.3,30.1,2.6,45.1,1.1c0.1,0,0.3,0,0.4,0
					c2.3-0.5,4.6-0.7,6.9-0.8C413.6,805.1,406.1,804.3,394.8,803.5z"/>
			</g>
			<path class="st78" d="M608.8,787.2c0.6-0.8,1.2-1.7,1.8-2.5c-11.7-3.5-22.6-7.1-33.4-10.8c-0.4,0.9-0.8,1.8-1.1,2.7
				C586.7,780.2,597.4,783.7,608.8,787.2z"/>
			<path class="st58" d="M805.2,814.8l-74.6-12.1l-1.3,4.6c-0.4,2.8-3,4.8-5.9,4.5c-21.5-2.2-53.8-7.2-96.6-19.3
				c-38.2-10.8-66.5-21.9-104.4-34.3c-2-0.6-4.1,0.4-4.8,2.3l-25.1,68.8c0,0,84.7,40,103.8,47.5c43.4,17.2,80.8,26.7,123.1,32.6
				c17.3,2.4,52.4,2.5,69.8,1.5c23.4-1.4,35.7-9,40.4-36.4c2.5-14.2,8.4-57.3,8.4-57.3L805.2,814.8z"/>
			<path class="st78" d="M556.6,859.6l-12.6-5.9l-90.7-42.9c-9.6-4.6-20.3-6.8-30.9-6.2c-0.5,0-1.1,0.1-1.6,0.1
				c-1.4,0.2-2.9,0.4-4.3,0.5c-0.2,0-0.4,0.1-0.6,0.1c22.9,0.9,28.1,5,35.9,8.7l103.3,48.8c6.2,2.9,35.9,15.9,42.1,18.5
				c1.6-0.6,3.8-1.4,5.6-2.1C595.3,876.4,563.9,863.1,556.6,859.6z"/>
		</g>
	</g>
</g>
</svg>
