<?xml version="1.0" encoding="utf-8"?>
<!-- Generator: Adobe Illustrator 23.0.2, SVG Export Plug-In . SVG Version: 6.00 Build 0)  -->
<svg version="1.1" id="Layer_1" xmlns="http://www.w3.org/2000/svg" xmlns:xlink="http://www.w3.org/1999/xlink" x="0px" y="0px"
	 viewBox="0 0 1080 1080" style="enable-background:new 0 0 1080 1080;" xml:space="preserve">
<style type="text/css">
	.st0{clip-path:url(#SVGID_1_);}
	.st1{fill:#F0F2F5;}
	.st2{fill:#FFFFFF;}
	.st3{fill:#F9A21B;}
	.st4{fill:#1F4168;}
	.st5{fill:#FFC89F;}
	.st6{fill:#FF9A6C;}
	.st7{fill:#1B1B2F;}
	.st8{fill:#E43F5A;}
	.st9{fill:#1F4068;}
	.st10{opacity:0.4;}
	.st11{fill:#A65B3C;}
	.st12{fill:none;}
	.st13{opacity:0.8;}
	.st14{fill:#1B1A2E;}
</style>
<g>
	<g>
		<defs>
			<rect id="SVGID_3_" x="-100.2" y="22.4" width="1292.9" height="1131.3"/>
		</defs>
		<clipPath id="SVGID_1_">
			<use xlink:href="#SVGID_3_"  style="overflow:visible;"/>
		</clipPath>
		<g class="st0">
			<g>
				<g>
					<g>
						<g>
							<g>
								<path class="st1" d="M833.4,222.1c-35.8-32.2-90.8-29.2-123,6.5c-24.2,26.9-28.5,64.8-13.9,95.6l-25.8,29.9l46.2-2.5
									c35.8,32.2,90.8,29.2,123-6.5C872.1,309.3,869.1,254.3,833.4,222.1z"/>
							</g>
						</g>
					</g>
				</g>
				<g>
					<g>
						<g>
							<g>
								<path class="st2" d="M790,257.5c4.1,3.8,6.2,8.9,6.2,15.2c0,7.1-2.2,12.4-6.6,15.8c-4.4,3.4-10.4,5.1-17.9,5.1l-0.3,9.7h-8
									l-0.4-16.1h2.9c6.7,0,12-1,15.8-3c3.8-2,5.7-5.9,5.7-11.5c0-4.1-1.2-7.3-3.7-9.7c-2.4-2.4-5.7-3.6-9.9-3.6
									c-4.2,0-7.5,1.1-9.9,3.4c-2.4,2.3-3.6,5.4-3.6,9.3h-8.7c0-4.1,0.9-7.6,2.7-10.7c1.8-3.1,4.4-5.5,7.8-7.2
									c3.4-1.7,7.2-2.5,11.6-2.5C780.5,251.8,785.9,253.7,790,257.5z M762.9,322.4c-1.2-1.2-1.8-2.7-1.8-4.5
									c0-1.8,0.6-3.3,1.8-4.5c1.2-1.2,2.7-1.8,4.5-1.8c1.7,0,3.1,0.6,4.3,1.8c1.2,1.2,1.8,2.7,1.8,4.5c0,1.8-0.6,3.3-1.8,4.5
									c-1.2,1.2-2.6,1.8-4.3,1.8C765.6,324.2,764.1,323.6,762.9,322.4z"/>
							</g>
						</g>
					</g>
				</g>
			</g>
			<g>
				<g>
					<g>
						<g>
							<g>
								<path class="st1" d="M613,103c-30.6,0.8-54.7,26.2-53.9,56.8c0.6,23,15.2,42.4,35.3,50.2l1.2,25l20.3-21.3
									c30.6-0.8,54.7-26.2,53.9-56.8C668.9,126.3,643.5,102.2,613,103z"/>
							</g>
						</g>
					</g>
				</g>
				<g>
					<g>
						<g>
							<g>
								<path class="st2" d="M623.8,139.5c2.6,2.4,3.9,5.6,3.9,9.7c0,4.5-1.4,7.9-4.2,10c-2.8,2.2-6.6,3.3-11.4,3.3l-0.2,6.1h-5.1
									l-0.3-10.2h1.9c4.3,0,7.6-0.6,10-1.9c2.4-1.3,3.6-3.7,3.6-7.3c0-2.6-0.8-4.6-2.3-6.1c-1.6-1.5-3.6-2.3-6.3-2.3
									c-2.7,0-4.8,0.7-6.3,2.2c-1.5,1.4-2.3,3.4-2.3,5.9h-5.6c0-2.6,0.6-4.9,1.7-6.8c1.2-2,2.8-3.5,4.9-4.6
									c2.1-1.1,4.6-1.6,7.4-1.6C617.7,135.9,621.2,137.1,623.8,139.5z M606.6,180.7c-0.8-0.8-1.2-1.7-1.2-2.8
									c0-1.1,0.4-2.1,1.2-2.8c0.8-0.8,1.7-1.2,2.8-1.2c1.1,0,2,0.4,2.7,1.2c0.8,0.8,1.1,1.7,1.1,2.8c0,1.1-0.4,2.1-1.1,2.8
									c-0.8,0.8-1.7,1.2-2.7,1.2C608.3,181.9,607.3,181.5,606.6,180.7z"/>
							</g>
						</g>
					</g>
				</g>
			</g>
			<g>
				<g>
					<g>
						<g>
							<g>
								<path class="st1" d="M300.7,475.3c3.9-27.5,29.5-46.7,57-42.7c20.7,3,36.7,18.2,41.7,37.3l22.5,3.7l-21.4,16.1
									c-3.9,27.5-29.5,46.7-57,42.7C315.8,528.3,296.7,502.8,300.7,475.3z"/>
							</g>
						</g>
					</g>
				</g>
				<g>
					<g>
						<g>
							<g>
								<path class="st2" d="M361.7,464.6c2.4,2.2,3.6,5.1,3.6,8.8c0,4.1-1.3,7.2-3.8,9.1c-2.5,2-6,3-10.4,3l-0.2,5.6h-4.6l-0.2-9.3
									h1.7c3.9,0,6.9-0.6,9.1-1.8c2.2-1.2,3.3-3.4,3.3-6.6c0-2.4-0.7-4.2-2.1-5.6c-1.4-1.4-3.3-2.1-5.7-2.1c-2.4,0-4.3,0.7-5.7,2
									c-1.4,1.3-2.1,3.1-2.1,5.4h-5.1c0-2.4,0.5-4.4,1.6-6.2c1.1-1.8,2.6-3.2,4.5-4.1c1.9-1,4.2-1.5,6.7-1.5
									C356.1,461.3,359.3,462.4,361.7,464.6z M346,502.2c-0.7-0.7-1.1-1.6-1.1-2.6c0-1,0.4-1.9,1.1-2.6c0.7-0.7,1.6-1.1,2.6-1.1
									c1,0,1.8,0.4,2.5,1.1c0.7,0.7,1,1.6,1,2.6c0,1-0.3,1.9-1,2.6c-0.7,0.7-1.5,1.1-2.5,1.1C347.5,503.2,346.7,502.9,346,502.2z"
									/>
							</g>
						</g>
					</g>
				</g>
			</g>
			<g>
				<g>
					<g>
						<g>
							<g>
								<path class="st1" d="M259.2,200.4c42.7-27.1,99.3-14.4,126.5,28.3c20.4,32.2,18.3,72.2-2.3,101.6l21.5,35.5l-47.5-10.6
									c-42.7,27.1-99.3,14.4-126.5-28.3C203.8,284.1,216.5,227.5,259.2,200.4z"/>
							</g>
						</g>
					</g>
				</g>
				<g>
					<g>
						<g>
							<g>
								<path class="st2" d="M276.5,276.7c0,5.6-4.5,10.1-10.1,10.1c-5.6,0-10.1-4.5-10.1-10.1c0-5.6,4.5-10.1,10.1-10.1
									C272,266.6,276.5,271.1,276.5,276.7z"/>
							</g>
						</g>
					</g>
					<g>
						<g>
							<g>
								<path class="st2" d="M320.1,276.7c0,5.6-4.5,10.1-10.1,10.1c-5.6,0-10.1-4.5-10.1-10.1c0-5.6,4.5-10.1,10.1-10.1
									C315.5,266.6,320.1,271.1,320.1,276.7z"/>
							</g>
						</g>
					</g>
					<g>
						<g>
							<g>
								<path class="st2" d="M363.6,276.7c0,5.6-4.5,10.1-10.1,10.1c-5.6,0-10.1-4.5-10.1-10.1c0-5.6,4.5-10.1,10.1-10.1
									C359.1,266.6,363.6,271.1,363.6,276.7z"/>
							</g>
						</g>
					</g>
				</g>
			</g>
			<g>
				<g>
					<g>
						<g>
							<g>
								<path class="st1" d="M468.6,133.8c21,1.3,36.9,19.4,35.6,40.4c-1,15.8-11.5,28.7-25.6,33.6l-1.4,17.2l-13.4-15.2
									c-21-1.3-36.9-19.4-35.6-40.4C429.6,148.4,447.6,132.5,468.6,133.8z"/>
							</g>
						</g>
					</g>
				</g>
				<g>
					<g>
						<g>
							<g>
								
									<ellipse transform="matrix(0.987 -0.1606 0.1606 0.987 -21.6317 80.01)" class="st2" cx="484.2" cy="173.8" rx="4.2" ry="4.2"/>
							</g>
						</g>
					</g>
					<g>
						<g>
							<g>
								
									<ellipse transform="matrix(0.985 -0.1726 0.1726 0.985 -23.0071 83.0461)" class="st2" cx="466.1" cy="173.8" rx="4.2" ry="4.2"/>
							</g>
						</g>
					</g>
					<g>
						<g>
							<g>
								
									<ellipse transform="matrix(0.9925 -0.1224 0.1224 0.9925 -17.9117 56.1529)" class="st2" cx="448" cy="173.8" rx="4.2" ry="4.2"/>
							</g>
						</g>
					</g>
				</g>
			</g>
			<g>
				<g>
					<g>
						<g>
							<g>
								<path class="st1" d="M807.9,484.7c-0.8-31.2-26.8-55.8-58-55c-23.5,0.6-43.2,15.5-51.2,36.1l-25.6,1.2l21.8,20.7
									c0.8,31.2,26.8,55.8,58,55C784.1,541.8,808.7,515.9,807.9,484.7z"/>
							</g>
						</g>
					</g>
				</g>
				<g>
					<g>
						<g>
							<g>
								<path class="st2" d="M773.8,482.4c0,3.5,2.8,6.3,6.3,6.3c3.5,0,6.3-2.8,6.3-6.3c0-3.5-2.8-6.3-6.3-6.3
									C776.6,476.2,773.8,479,773.8,482.4z"/>
							</g>
						</g>
					</g>
					<g>
						<g>
							<g>
								
									<ellipse transform="matrix(0.3827 -0.9239 0.9239 0.3827 19.2565 993.6439)" class="st2" cx="753.2" cy="482.4" rx="6.3" ry="6.3"/>
							</g>
						</g>
					</g>
					<g>
						<g>
							<g>
								
									<ellipse transform="matrix(0.2298 -0.9732 0.9732 0.2298 89.9364 1078.4641)" class="st2" cx="726.3" cy="482.4" rx="6.3" ry="6.3"/>
							</g>
						</g>
					</g>
				</g>
			</g>
		</g>
	</g>
	<g>
		<g>
			<path class="st3" d="M869.1,719.1c-11.2-1.4-28,5.6-39.5,10.7l-7.3-0.2c-3.4-0.1-6.3,2.6-6.3,6l0,0.1l-16.2,1.8
				c0.8-11.3-10.4-12.9-10.4-12.9c-8.4-52.9-35.9-121.5-47.6-149.3c-4.9-11.6-13.4-21.2-24.4-27.2c-35.4-19.4-92.3-22.8-92.3-22.8
				l0,0c0-2.4-1-4.6-2.7-6.2l-18.2-17.2c-3.9-3.7-9.3-5.4-14.6-4.5l-83,13.2c-9.2,1.5-17.9,5.5-24.8,11.8
				c-5.4,4.8-10.6,9.8-13.9,12.9c-2,1.9-3.2,4.6-3.2,7.4l0,0c-39.3,12.4-63.2,28.9-78.4,42.7c-13.2,12-22.1,28-25.2,45.5
				c-5,28.4,1.8,45.1,1.8,45.1c-16.3,51.3-17.3,100.7-17.3,100.7c-4.7-1-16.9-0.5-16.9-0.5v0c-1.8-2.3-4.4-3.9-7.3-4.4l-39.9-6.7
				c-14.6,14.5-14.7,37-12.3,53.1c1.7,11.6,8.6,21.7,18.7,27.7l5.7,3.4c7.7,4.6,17.2,4.5,24.8,0l0,0c33.6,19.7,67.5,22.3,67.5,22.3
				l0.5,100.2h375.9L739.8,820l14.6,11c6.5,4.9,15,6.3,22.8,3.7c27.8-9.2,52.6-27.9,52.6-27.9s0,0,0,0.1c1.8,3.9,6.9,4.9,10.2,2.1
				c3.4-2.9,8-6.8,11.9-9.9c0,0,7.9-1,14-7.1c10.5-10.7,17.9-24.1,17.6-39.1C883.1,738.2,880.3,720.6,869.1,719.1z"/>
		</g>
		<g>
			<path class="st4" d="M496.6,971.6l5.8-309.1l6.2-53.9c0.4-3.9,0.1-7.9-1-11.7c-0.9-3-2.2-6.5-3.8-9.2c0,0-2.7-18.6-16.6-29.6
				c0,0-6.9-23.1,1.9-27c16.3-7.2,51.8,17.1,97.2-8.9c24.3-13.9,18.4,28.9,1,45.5c-3.1,2.9-4.3,7.2-3.4,11.4l3.8,18l-3,10.8
				c-1,3.5-1.2,7.3-0.5,10.9l23.5,122.7l35.2,230.3H496.6z"/>
		</g>
		<g>
			<g>
				<g>
					<g>
						<path class="st5" d="M597.7,523.1c0,0-0.1,0-0.4,0.1c-6.1,0.7-11.4-4.1-11.4-10.2l-0.2-67.6h-91.9v87.9c0,2.3-1.8,4.2-4.1,4.2
							l0,0c0,0-5.9,28.1,42.7,29.3C587.7,568.2,607.9,542.8,597.7,523.1z"/>
					</g>
					<g>
						<path class="st5" d="M549,509.6h-18.5c-28.7,0-52-23.3-52-52v-93.3c0-28.7,23.3-52,52-52H549c28.7,0,52,23.3,52,52v93.3
							C601,486.3,577.7,509.6,549,509.6z"/>
					</g>
					<g>
						<path class="st6" d="M539.7,509.6c-5.3,0.4-10.7,0-15.9-1.2c-1.3-0.3-2.6-0.7-3.9-1c-1.3-0.4-2.5-0.9-3.8-1.3
							c-0.6-0.2-1.2-0.5-1.9-0.8l-1.8-0.8c-1.2-0.6-2.4-1.2-3.6-1.9c-1.2-0.7-2.3-1.4-3.4-2.1c-1.1-0.7-2.2-1.6-3.3-2.3
							c-1.1-0.8-2.1-1.7-3.1-2.6c-1-0.9-1.9-1.9-2.9-2.8c-3.7-3.9-6.9-8.3-9.2-13c3.1,4.3,6.5,8.3,10.4,11.8c1,0.8,2,1.7,2.9,2.6
							c1,0.8,2,1.6,3.1,2.4c1.1,0.7,2.1,1.5,3.2,2.2c1.1,0.7,2.2,1.4,3.3,2c1.1,0.6,2.3,1.3,3.4,1.8c1.2,0.5,2.3,1.1,3.5,1.6
							c1.2,0.5,2.4,1,3.6,1.4l1.8,0.6c0.6,0.2,1.2,0.5,1.9,0.6C529.3,508.2,534.4,509.1,539.7,509.6z"/>
					</g>
					<g>
						<path class="st6" d="M594.4,475.9c-0.8,2.7-2.1,5.2-3.5,7.6c-0.4,0.6-0.7,1.2-1.1,1.8l-1.2,1.7c-0.4,0.6-0.9,1.1-1.3,1.7
							l-1.4,1.6c-1.9,2.1-4,4-6.3,5.7c-2.3,1.7-4.7,3.1-7.3,4.2c2.1-1.9,4.2-3.7,6.2-5.6c2-1.9,3.9-3.8,5.7-5.8l1.4-1.5
							c0.4-0.5,0.9-1,1.3-1.6l1.3-1.6c0.4-0.5,0.8-1.1,1.3-1.6C591.2,480.4,592.8,478.1,594.4,475.9z"/>
					</g>
				</g>
				<g>
					<g>
						<path class="st5" d="M476,445.9h3.9c6.1,0,11-4.9,11-11v-21.1c0-6.1-4.9-11-11-11H476c-6.1,0-11,4.9-11,11v21.1
							C465,441,469.9,445.9,476,445.9z"/>
					</g>
					<g>
						<path class="st5" d="M599.5,445.9h3.9c6.1,0,11-4.9,11-11v-21.1c0-6.1-4.9-11-11-11h-3.9c-6.1,0-11,4.9-11,11v21.1
							C588.5,441,593.4,445.9,599.5,445.9z"/>
					</g>
					<g>
						<g>
							<path class="st6" d="M475.4,414.8c-1.2,0.4-2,1.3-2.6,2.4c-0.5,1-0.8,2.2-1,3.3c-0.3,2.3-0.2,4.7,0.5,6.9
								c0.3,1.1,0.8,2.1,1.5,3c0.3,0.4,0.8,0.8,1,1c0.1,0,0.1,0,0.1,0c0,0,0,0,0,0c0,0,0.2-0.1,0.3-0.3c0.2-0.4,0.3-1,0.5-1.6
								c0.1-0.6,0.2-1.2,0.3-1.8c0.1-1.2,0.2-2.5,0.3-3.8c0.4,1.2,0.6,2.5,0.7,3.8c0.1,0.6,0.1,1.3,0.1,1.9c0,0.7-0.1,1.3-0.3,2.1
								c-0.1,0.4-0.3,0.8-0.8,1.2c-0.2,0.2-0.6,0.3-0.9,0.3c-0.3,0-0.6,0-0.8-0.1c-0.9-0.4-1.4-0.9-1.9-1.4c-1-1.1-1.6-2.4-2-3.7
								c-0.8-2.6-0.8-5.4-0.1-8c0.4-1.3,0.9-2.5,1.8-3.6c0.4-0.5,1-1,1.6-1.3C474.1,415,474.8,414.8,475.4,414.8z"/>
						</g>
						<g>
							<path class="st6" d="M477.7,420.2c-0.3-0.8-0.5-1.5-0.6-2.2c-0.1-0.7-0.2-1.4-0.3-2c-0.1-0.6-0.2-1.2-0.3-1.6
								c-0.1-0.2-0.2-0.4-0.4-0.6c-0.2-0.2-0.6-0.3-1-0.5c0.3-0.3,0.7-0.5,1.2-0.6c0.5-0.1,1.1,0.1,1.5,0.5c0.8,0.7,1.1,1.6,1.2,2.5
								c0.1,0.8,0,1.6-0.2,2.4C478.6,418.8,478.2,419.6,477.7,420.2z"/>
						</g>
					</g>
					<g>
						<g>
							<path class="st6" d="M604.5,414.8c0.6,0,1.3,0.1,1.9,0.4c0.6,0.3,1.1,0.8,1.6,1.3c0.9,1.1,1.4,2.3,1.8,3.6
								c0.7,2.6,0.7,5.3-0.1,8c-0.4,1.3-1,2.6-2,3.7c-0.5,0.5-1,1-1.9,1.4c-0.2,0.1-0.5,0.2-0.8,0.1c-0.3,0-0.7-0.1-0.9-0.3
								c-0.5-0.4-0.7-0.8-0.8-1.2c-0.2-0.7-0.3-1.4-0.3-2.1c0-0.7,0-1.3,0.1-1.9c0.1-1.3,0.4-2.5,0.7-3.8c0.1,1.3,0.2,2.5,0.3,3.8
								c0.1,0.6,0.1,1.2,0.3,1.8c0.1,0.6,0.3,1.2,0.5,1.6c0.1,0.2,0.2,0.4,0.3,0.3c0,0,0,0,0,0c0,0,0,0,0.1,0c0.3-0.1,0.7-0.6,1-1
								c0.7-0.8,1.1-1.9,1.5-3c0.7-2.2,0.8-4.6,0.5-6.9c-0.2-1.2-0.5-2.3-1-3.3C606.5,416.2,605.7,415.3,604.5,414.8z"/>
						</g>
						<g>
							<path class="st6" d="M602.2,420.2c-0.6-0.7-0.9-1.4-1.1-2.2c-0.2-0.8-0.3-1.6-0.2-2.4c0.1-0.8,0.4-1.8,1.2-2.5
								c0.4-0.3,1-0.5,1.5-0.5c0.5,0.1,0.9,0.3,1.2,0.6c-0.4,0.2-0.8,0.3-1,0.5c-0.2,0.2-0.3,0.4-0.4,0.6c-0.2,0.4-0.3,1-0.3,1.6
								c-0.1,0.6-0.2,1.3-0.3,2C602.7,418.7,602.6,419.4,602.2,420.2z"/>
						</g>
					</g>
				</g>
				<g>
					<g>
						<g>
							
								<ellipse transform="matrix(0.2298 -0.9732 0.9732 0.2298 44.9088 870.6635)" class="st7" cx="572.5" cy="407" rx="5.5" ry="5.5"/>
						</g>
						<g>
							<path class="st7" d="M583.9,401.6c-1.8-1.1-3.6-2-5.5-2.5c-1.9-0.6-3.9-0.9-5.8-0.8c-0.5,0-1,0.1-1.5,0.1l-0.7,0.1
								c-0.2,0-0.5,0.1-0.7,0.1l-1.5,0.3c-0.5,0.2-0.9,0.3-1.4,0.4l-0.7,0.2l-0.7,0.3l-1.4,0.6c-0.9,0.4-1.8,0.9-2.8,1.3
								c0.8-0.7,1.6-1.4,2.4-2l1.4-0.8l0.7-0.4l0.7-0.3c0.5-0.2,1-0.4,1.5-0.6c0.5-0.1,1-0.3,1.5-0.4c0.3-0.1,0.5-0.1,0.8-0.2
								l0.8-0.1c0.5,0,1.1-0.2,1.6-0.1c2.1-0.1,4.3,0.4,6.2,1.2C580.7,398.8,582.5,400,583.9,401.6z"/>
						</g>
					</g>
					<g>
						<g>
							
								<ellipse transform="matrix(0.6181 -0.7861 0.7861 0.6181 -123.3617 559.983)" class="st7" cx="514.7" cy="407" rx="5.5" ry="5.5"/>
						</g>
						<g>
							<path class="st7" d="M526,401.6c-1.8-1.1-3.6-2-5.5-2.5c-1.9-0.6-3.9-0.9-5.8-0.8c-0.5,0-1,0.1-1.5,0.1l-0.7,0.1
								c-0.2,0-0.5,0.1-0.7,0.1l-1.5,0.3c-0.5,0.2-0.9,0.3-1.4,0.4l-0.7,0.2l-0.7,0.3l-1.4,0.6c-0.9,0.4-1.8,0.9-2.8,1.3
								c0.8-0.7,1.6-1.4,2.4-2l1.4-0.8l0.7-0.4l0.7-0.3c0.5-0.2,1-0.4,1.5-0.6c0.5-0.1,1-0.3,1.5-0.4c0.3-0.1,0.5-0.1,0.8-0.2
								l0.8-0.1c0.5,0,1.1-0.2,1.6-0.1c2.1-0.1,4.3,0.4,6.2,1.2C522.9,398.8,524.7,400,526,401.6z"/>
						</g>
					</g>
					<g>
						<path class="st7" d="M550.2,419.6c0.6,2.3,1.1,4.7,1.6,7c0.4,2.3,0.8,4.7,1.2,7.1c0.2,1.1,0.4,2.4,0.2,3.7
							c-0.1,1.3-0.4,2.5-1,3.6c-0.6,1.1-1.5,2.2-2.6,2.8c-1.1,0.5-2.2,1-3.3,1.5c0.9-0.7,1.9-1.4,2.9-2.1c0.9-0.6,1.5-1.6,1.9-2.6
							c0.4-1,0.7-2.1,0.7-3.3c0.1-1.1-0.1-2.2-0.3-3.4c-0.3-2.4-0.6-4.7-0.8-7.1C550.4,424.3,550.2,422,550.2,419.6z"/>
					</g>
					<g>
						<path class="st8" d="M551.3,458.6c-1.2,2.7-3.3,4.8-5.9,6.2c-0.7,0.4-1.4,0.6-2.1,0.9c-0.8,0.2-1.5,0.4-2.3,0.5
							c-1.6,0.2-3.3,0.1-4.8-0.3c-3.2-0.8-5.9-2.9-7.6-5.3c-0.9-1.2-1.5-2.5-2-3.9c-0.4-1.4-0.7-2.8-0.5-4.3
							c0.9,0.6,1.8,1.2,2.7,1.7c1.4,0.9,2.6,1.6,3.8,2.3c2,1.1,3.7,1.9,5.4,2.3c0.9,0.2,1.8,0.4,2.7,0.5c0.5,0.1,1,0.1,1.5,0.1
							c0.5,0,1,0,1.6,0c1.1,0,2.3-0.1,3.5-0.3C548.5,458.9,549.8,458.7,551.3,458.6z"/>
					</g>
					<g>
						<path class="st2" d="M547.2,459c-0.6,0.6-1.3,1-2.1,1.5c-0.6,0.3-1.2,0.6-1.9,0.8c-0.7,0.2-1.4,0.4-2.1,0.5
							c-1.4,0.2-2.9,0.1-4.4-0.3c-2.9-0.8-5.3-2.6-6.7-4.8c-0.6-0.8-1-1.7-1.3-2.6c1.4,0.9,2.6,1.6,3.8,2.3c2,1.1,3.7,1.9,5.4,2.3
							c0.9,0.2,1.8,0.4,2.7,0.5c0.5,0.1,1,0.1,1.5,0.1c0.5,0,1,0,1.6,0C544.8,459.2,546,459.1,547.2,459z"/>
					</g>
					<g>
						<path class="st7" d="M583.9,386.2c-2.5-0.1-4.5-0.3-6.3-0.4c-1.8-0.1-3.4-0.1-5-0.1c-0.2,0-0.4,0-0.6,0l-0.6,0
							c-0.2,0-0.4,0-0.6,0c-0.2,0-0.4,0-0.6,0c-0.4,0-0.8,0-1.3,0c-0.4,0.1-0.9,0.1-1.3,0.1c-0.2,0-0.5,0-0.7,0
							c-0.2,0-0.5,0.1-0.7,0.1c-0.5,0-1,0.1-1.5,0.1c-1.1,0.1-2.1,0.2-3.5,0.1c0.2-0.6,0.5-1.2,0.7-1.7c0.3-0.5,0.6-1.1,1-1.5
							c0.4-0.4,0.8-0.9,1.2-1.3c0.2-0.2,0.4-0.4,0.7-0.6c0.2-0.2,0.5-0.3,0.7-0.5c0.5-0.3,1-0.6,1.6-0.9c0.6-0.2,1.1-0.5,1.7-0.6
							c0.3-0.1,0.6-0.2,0.9-0.3l0.9-0.2c0.6-0.1,1.2-0.2,1.9-0.2c2.5-0.1,5,0.7,7.1,2c0.3,0.1,0.5,0.4,0.7,0.5
							c0.2,0.2,0.5,0.4,0.7,0.6c0.4,0.4,0.9,0.9,1.2,1.3C583,383.9,583.6,385,583.9,386.2z"/>
					</g>
					<g>
						<path class="st7" d="M526,386.2c-2.5-0.1-4.5-0.3-6.3-0.4c-1.8-0.1-3.4-0.1-5-0.1c-0.2,0-0.4,0-0.6,0l-0.6,0
							c-0.2,0-0.4,0-0.6,0c-0.2,0-0.4,0-0.6,0c-0.4,0-0.8,0-1.3,0c-0.4,0.1-0.9,0.1-1.3,0.1c-0.2,0-0.5,0-0.7,0
							c-0.2,0-0.5,0.1-0.7,0.1c-0.5,0-1,0.1-1.5,0.1c-1.1,0.1-2.1,0.2-3.5,0.1c0.2-0.6,0.5-1.2,0.7-1.7c0.3-0.5,0.6-1.1,1-1.5
							c0.4-0.4,0.8-0.9,1.2-1.3c0.2-0.2,0.4-0.4,0.7-0.6c0.2-0.2,0.5-0.3,0.7-0.5c0.5-0.3,1-0.6,1.6-0.9c0.6-0.2,1.1-0.5,1.7-0.6
							c0.3-0.1,0.6-0.2,0.9-0.3l0.9-0.2c0.6-0.1,1.2-0.2,1.9-0.2c2.5-0.1,5,0.7,7.1,2c0.3,0.1,0.5,0.4,0.7,0.5
							c0.2,0.2,0.5,0.4,0.7,0.6c0.4,0.4,0.9,0.9,1.2,1.3C525.2,383.9,525.8,385,526,386.2z"/>
					</g>
				</g>
			</g>
			<g>
				<path class="st7" d="M486.1,372.6l2.5-1.3l-2.5,14.9l-7.4,7.5c0,0,1.2,29.1,0.8,29.1c-0.4,0-10.2-27.8-10.2-50.7
					c0,0-7.3,6.6,2.2,17.3c0,0-13.3-2-7-13.4c2.3-4.1,4.3-8.4,5.9-12.8c0.1-0.2,0.1-0.3,0.2-0.5l-3.5,4.8c0,0-2.6-4.8,2.9-13.1
					c0,0-12.1,9.1-12.2,22c0,0-4.7-15,10.1-25.5c0,0-1.7-8.9,7.5-22.7c0,0-6.8,4.6-8.9,11.6c0,0-4.3-16.6,22.1-22.6
					c0,0,4.6-13.1,22-6.6c0,0-5.9-20.3,18.6-23.4c0,0-18.3,5.2-14.9,21.5c0,0,7.8-26.9,33.6-16.9c0,0,8-1.5,12.1,7.7
					c0,0,13.8,7.1,22.2,0c0,0-3.2,8.8-12.7,4.4c0,0,5.6,3.8,12.7,3.1c7.1-0.8,10.1,6.7,10.1,6.7s17.5-1.7,17,19.2
					c0,0,23.7,13.6,16.8,32.4c0,0,1-16.3-18.4-25.4c0,0,21.8,23.5,12.1,35.1c0,0,2-7.4-5.8-15.1l-4.4,14.3c0,0,7.8,12.1,4,17.3
					c0,0-1.5-12.1-4.6-16.3c0,0,2.1,24.9-8.6,38.6l0.5-19.3l-6.7-10.4l-1.7-21.3c0,0-15-9.6-14.5-9.6c0.5,0,4.3-1.4,4.3-1.4
					s-6.9-13.6-26.6-6.9l0.5-2.3l-7.6,3.4l1.6-4.6l-6.4,4.6l-6.4-2.1l1.4,2.5l-12.6-3.4l1.6,1.9c0,0-23.5,1.1-38.6,17l4-1.2
					L486.1,372.6z"/>
			</g>
			<g>
				<path class="st9" d="M510.1,303.3c-0.1,1.8,0.2,3.6,0.6,5.4c0.2,0.9,0.4,1.7,0.7,2.6c0.3,0.9,0.6,1.7,0.9,2.5
					c1.3,3.3,3.1,6.5,5.1,9.4c2,3,4.3,5.7,6.7,8.5l3.7,3.9c1.3,1.3,2.6,2.5,3.9,3.8c-1.5-1.1-2.9-2.2-4.4-3.3
					c-1.4-1.2-2.7-2.4-4.1-3.7c-0.6-0.7-1.3-1.3-1.9-2c-0.6-0.7-1.3-1.3-1.8-2l-1.7-2.2c-0.6-0.7-1.1-1.5-1.6-2.3
					c-2-3.1-3.8-6.3-4.9-9.9c-0.2-0.9-0.5-1.8-0.7-2.7c-0.2-0.9-0.4-1.8-0.5-2.7C509.7,306.9,509.7,305.1,510.1,303.3z"/>
			</g>
			<g>
				<path class="st9" d="M522.2,301.1c-0.6,1.5-0.9,3-1.1,4.6c-0.2,1.5-0.2,3.1-0.2,4.6c0.1,3.1,0.8,6.1,1.7,9.1
					c0.2,0.7,0.5,1.5,0.7,2.2l0.9,2.2c0.1,0.4,0.3,0.7,0.4,1.1l0.5,1c0.4,0.7,0.7,1.4,1,2.1l2.3,4.1c0.8,1.3,1.7,2.7,2.5,4
					c-1.1-1.2-2.1-2.4-3.1-3.6c-0.9-1.3-1.9-2.6-2.7-3.9c-1.6-2.8-3.1-5.6-4-8.7c-1-3.1-1.6-6.3-1.5-9.5c0.1-1.6,0.2-3.2,0.6-4.8
					C520.9,304,521.4,302.4,522.2,301.1z"/>
			</g>
			<g>
				<path class="st9" d="M548.6,337.8c1.7-2.1,3.3-4.2,4.7-6.4c1.5-2.2,2.8-4.5,3.9-6.8l0.8-1.8c0.3-0.6,0.5-1.2,0.7-1.8
					c0.1-0.3,0.2-0.6,0.4-0.9l0.3-0.9l0.3-0.9c0.1-0.3,0.2-0.6,0.3-0.9c0.7-2.5,0.9-5.1,1-7.8c0.5,2.6,0.6,5.4,0.1,8.1
					c-0.5,2.7-1.3,5.3-2.5,7.7c-1.2,2.4-2.7,4.7-4.3,6.8C552.6,334.2,550.7,336.2,548.6,337.8z"/>
			</g>
			<g>
				<path class="st9" d="M542.2,337.2c-0.6-1.3-0.9-2.7-1.1-4.1c-0.2-1.4-0.4-2.8-0.4-4.2c0-1.4,0.1-2.8,0.4-4.2
					c0.3-1.4,0.7-2.7,1.3-4c0,1.4-0.2,2.8-0.2,4.1c0,1.4-0.1,2.7-0.1,4.1l0,4.1C542.2,334.5,542.2,335.8,542.2,337.2z"/>
			</g>
			<g>
				<path class="st9" d="M554.3,334.4c2.5-3,5.4-5.7,8.3-8.2c3-2.5,6.2-4.8,9.6-6.8c3.4-2,7-3.7,10.8-4.7c3.8-1.1,7.8-1.5,11.7-0.8
					c-3.9-0.1-7.7,0.6-11.3,1.9c-1.8,0.6-3.6,1.4-5.3,2.2c-1.7,0.8-3.4,1.7-5.1,2.7c-3.3,1.9-6.5,4.1-9.6,6.4
					C560.3,329.4,557.2,331.8,554.3,334.4z"/>
			</g>
			<g>
				<path class="st9" d="M574.4,328.6c3.1-1.6,6.5-2.3,10-2.5c3.5-0.3,7,0,10.4,0.6c3.4,0.7,6.7,1.7,9.9,3.2
					c3.1,1.5,6.1,3.4,8.5,5.8c-2.9-1.9-5.9-3.5-9-4.7c-3.1-1.2-6.4-2.2-9.7-2.8c-3.3-0.6-6.7-1-10-0.9
					C581,327.3,577.7,327.6,574.4,328.6z"/>
			</g>
			<g>
				<path class="st9" d="M618.3,366.2c-1.4-1.9-2.9-3.6-4.4-5.3c-1.5-1.7-3.1-3.3-4.8-4.8c-1.7-1.5-3.4-2.9-5.3-4.2
					c-1.8-1.4-3.8-2.5-5.7-3.8c2.2,0.7,4.4,1.6,6.3,2.8c1,0.6,2,1.2,2.9,1.9c0.5,0.3,0.9,0.7,1.4,1.1c0.5,0.4,0.9,0.7,1.3,1.1
					c1.7,1.6,3.3,3.3,4.7,5.1C616.2,362.1,617.4,364.1,618.3,366.2z"/>
			</g>
			<g>
				<path class="st9" d="M480.4,319.9c1.7-1.1,3.6-1.9,5.5-2.4c0.5-0.1,1-0.3,1.5-0.4l1.5-0.3c1-0.1,2-0.2,3-0.2c0.5,0,1,0,1.5,0
					c0.5,0,1,0.1,1.5,0.1c1,0.2,2,0.3,3,0.6c2,0.5,3.8,1.4,5.5,2.5c-1.9-0.5-3.8-1.1-5.7-1.4c-1.9-0.3-3.8-0.5-5.8-0.5
					c-1.9,0-3.9,0.2-5.8,0.5C484.2,318.9,482.3,319.3,480.4,319.9z"/>
			</g>
			<g>
				<path class="st9" d="M525.2,341.9c-2.9-1.4-5.9-2.6-8.9-3.7c-1.5-0.5-3-1-4.6-1.4c-1.5-0.4-3.1-0.7-4.7-0.9
					c-1.6-0.2-3.1-0.3-4.7-0.3c-1.6,0-3.1,0.3-4.6,0.7c-1.5,0.4-2.9,1.1-4.3,1.9c-1.3,0.9-2.5,2-3.5,3.2c0.8-1.4,1.8-2.7,3.1-3.8
					c1.3-1.1,2.8-1.9,4.3-2.5c3.2-1.2,6.6-1.2,9.9-0.8c3.3,0.5,6.4,1.4,9.4,2.7C519.7,338.4,522.6,340,525.2,341.9z"/>
			</g>
			<g>
				<path class="st9" d="M527.6,345c-2.6-0.3-5.2-0.4-7.8-0.5c-2.6-0.1-5.2,0-7.8,0.1c-2.6,0.1-5.2,0.3-7.8,0.7
					c-2.6,0.4-5.1,0.8-7.6,1.4c-2.5,0.6-5,1.4-7.4,2.3c-2.4,0.9-4.7,2.1-7,3.4c-2.2,1.3-4.3,2.9-6.3,4.6c-2,1.7-3.7,3.7-5.3,5.8
					c1.3-2.3,3-4.4,4.8-6.3c1.9-1.9,3.9-3.6,6.2-5c2.2-1.4,4.6-2.6,7.1-3.7c2.5-1,5-1.8,7.6-2.4c5.2-1.2,10.5-1.8,15.7-1.8
					C517.1,343.5,522.4,343.9,527.6,345z"/>
			</g>
			<g>
				<path class="st9" d="M463.1,355.1c1.1-1.5,2.5-2.9,4-4c1.5-1.2,3.2-2.1,4.9-2.9c0.9-0.4,1.8-0.7,2.7-1c0.9-0.2,1.8-0.5,2.8-0.7
					c1.9-0.4,3.8-0.4,5.7-0.2c-1.8,0.4-3.6,0.8-5.4,1.3c-1.7,0.5-3.5,1.2-5.1,1.9c-1.7,0.7-3.3,1.6-4.9,2.5
					C466.2,353,464.7,354,463.1,355.1z"/>
			</g>
			<g>
				<path class="st9" d="M588.6,360.6c1.8,0.7,3.6,1.5,5.2,2.5c1.7,0.9,3.3,2,4.9,3c1.6,1.1,3.1,2.2,4.6,3.5c1.5,1.2,2.9,2.5,4.2,4
					c-1.7-1-3.3-2-4.9-3c-1.6-1-3.2-2.1-4.8-3.2c-1.6-1.1-3.1-2.2-4.7-3.3C591.7,362.9,590.1,361.8,588.6,360.6z"/>
			</g>
			<g>
				<path class="st9" d="M467.5,374.9c0.2-1.3,0.9-2.5,1.7-3.6c0.8-1.1,1.7-2,2.7-2.9c1-0.9,2.1-1.6,3.2-2.2
					c0.6-0.3,1.2-0.6,1.8-0.9c0.6-0.2,1.2-0.5,1.9-0.7c-0.5,0.5-1,0.9-1.5,1.3c-0.5,0.4-1,0.8-1.5,1.2c-1,0.8-2,1.6-2.9,2.4
					c-1,0.8-1.9,1.6-2.8,2.5C469.2,372.9,468.3,373.8,467.5,374.9z"/>
			</g>
			<g>
				<path class="st9" d="M475.2,388.2c0.8-1.7,1.7-3.4,2.7-5c1-1.6,2-3.2,3-4.8c1.1-1.6,2.2-3.1,3.3-4.6c1.2-1.5,2.3-3,3.7-4.4
					c-0.8,1.7-1.7,3.4-2.7,5c-1,1.6-2,3.2-3,4.8c-1.1,1.6-2.2,3.1-3.3,4.6C477.7,385.3,476.5,386.8,475.2,388.2z"/>
			</g>
		</g>
		<g class="st10">
			<path class="st11" d="M739.8,820c0,0-7.3-79.1-9.6-144.5C730.1,675.5,746,767.2,739.8,820z"/>
		</g>
		<g class="st10">
			<path class="st11" d="M759.9,741.7c0,0,14.8-16.6,39.8-4.1C799.8,737.5,763.6,715.1,759.9,741.7z"/>
		</g>
		<g class="st10">
			<path class="st11" d="M751,781.3c0,0,9.5-44.9,48.7-43.8C799.8,737.5,765.5,719.8,751,781.3z"/>
		</g>
		<g class="st10">
			<path class="st11" d="M743.7,712.3c0,0,11.9,8.6,45.7,12.4L743.7,712.3z"/>
		</g>
		<g class="st10">
			<path class="st11" d="M816,735.7c0,0-6.5,28.3,13.9,71.2C829.9,806.9,808.4,781.3,816,735.7z"/>
		</g>
		<g class="st10">
			<path class="st11" d="M831,779.8c0,0,0.9,20,20.9,19.3C851.9,799.1,835,811.5,831,779.8z"/>
		</g>
		<g class="st10">
			<path class="st11" d="M730.1,611.9l-1.1,39.6c0,0,2.4-22.3,16.3-29.9c0,0-4.5,2.1-9,6.3c-2.2,2-5.8,5.8-5.8-2.5
				C730.5,622,730.1,611.9,730.1,611.9z"/>
		</g>
		<g class="st10">
			<path class="st11" d="M628.7,595.2l-0.6-0.4c-6.3-3.8-11.8-8.7-16.4-14.4c-7.7-9.5-20.9-22.1-26.3-5.2c0,0,8.2-8.9,22.3,4.8
				C619.4,591.4,628.7,595.2,628.7,595.2z"/>
		</g>
		<g class="st10">
			<path class="st11" d="M501.4,583.1c-1.4-3.7-3.4-7.2-5.9-10.9c-3.6-5.2-9.6-6.3-14.9-0.1c-7.8,9.1-14,24.9-14,24.9
				S490,558.5,501.4,583.1z"/>
		</g>
		<g class="st10">
			<path class="st11" d="M382.7,776.5l28.1,17c3.3,2,7.4,2.3,10.9,0.8l20.6-9c0,0-21.5,14.6-28.5,11.8
				C403.5,793,382.7,776.5,382.7,776.5z"/>
		</g>
		<g class="st10">
			<path class="st11" d="M449,705.9l-31.4,13.5c0,0-4.3,2.9-11.4-0.9c-7.1-3.8-27.8-14.8-27.8-14.8s27,21.5,35,19.6
				C423.8,720.9,449,705.9,449,705.9z"/>
		</g>
		<g class="st10">
			<path class="st11" d="M386,871.3c0,0-0.3-73.6-3.2-94.8C382.7,776.5,376.3,838.9,386,871.3z"/>
		</g>
		<g class="st10">
			<path class="st11" d="M345.7,776.6c0,0,22.8,1.9,33.7,16.7C379.5,793.3,378.7,775.3,345.7,776.6z"/>
		</g>
		<g class="st10">
			<path class="st11" d="M368.5,770.1c0,0-13.6-1.9-22.8,6.5C345.7,776.6,347,763.1,368.5,770.1z"/>
		</g>
		<g class="st10">
			<path class="st11" d="M730.1,675.5L701,700.4c0,0-3.3,3.7-10,2s-32.2-6.5-32.2-6.5c14.8,3.4,35.1,12.7,41.5,8.4
				C712.8,695.7,730.1,675.5,730.1,675.5z"/>
		</g>
		<g class="st10">
			<path class="st11" d="M730.4,755.6l-25.3,18.6c0,0-4.4,4.8-17.2,0.9l-18.1-3.9c0,0,25.1,12,32.6,7.8
				C718.2,770.2,730.4,755.6,730.4,755.6z"/>
		</g>
		<g class="st10">
			<path class="st11" d="M501,737.3c0,0,20.7,154.8,122,217.6C622.9,954.9,519.8,859.4,501,737.3z"/>
		</g>
		<g class="st10">
			<path class="st11" d="M539.9,734.3c0,0,29,64.9,85.7,124.6C625.6,858.9,565.3,783.3,539.9,734.3z"/>
		</g>
		<g class="st10">
			<path class="st11" d="M328.8,776.1c0,0,33,46.7-10.3,73C318.5,849.1,370.9,839.4,328.8,776.1z"/>
		</g>
		<g class="st10">
			<path class="st11" d="M303.5,832.1c0,0-3.1,7.2-9.5,3.7c-9-4.8-18-20.9-18-20.9L303.5,832.1z"/>
		</g>
		<g class="st10">
			<path class="st11" d="M842.3,783.7c0,0,0.9,5.7,5.2,6.6c5.4,1.1,13.1-6.4,21-18.3L842.3,783.7z"/>
		</g>
		<g class="st10">
			<path class="st11" d="M744.7,971.6c-34.4-64.9-60.3-135.4-60.3-135.4s25.2,67.7,72.5,135.4H744.7z"/>
		</g>
		<g class="st10">
			<path class="st11" d="M429.7,877.4c0,0-11.7,50.5-25.4,94.1h-9L429.7,877.4z"/>
		</g>
		<g>
			<path class="st11" d="M628.7,595.2c-4.3-2.2-8.3-5.2-11.8-8.6c-3.5-3.5-6.2-7.6-9.7-10.9c-1.7-1.7-3.5-3.3-5.5-4.8
				c-1-0.7-2-1.4-3-1.9c-1-0.6-2.1-1-3.3-1.3c-1.1-0.3-2.3-0.4-3.4-0.1c-1.1,0.2-2.1,0.8-3,1.6c-0.9,0.8-1.6,1.8-2.1,2.8
				c-0.3,0.5-0.6,1.1-0.8,1.6c-0.3,0.5-0.5,1.1-0.7,1.7l-0.1,0c0.3-1.2,0.7-2.3,1.2-3.5c0.5-1.1,1.2-2.2,2.1-3.1
				c0.9-0.9,2-1.6,3.2-2c1.3-0.3,2.6-0.3,3.8,0c2.5,0.6,4.6,2,6.5,3.5c1.9,1.5,3.7,3.2,5.3,5.1c1.6,1.8,3.2,3.7,4.7,5.6
				c1.6,1.9,3.3,3.5,5.1,5.2c1.8,1.6,3.6,3.2,5.5,4.7C624.8,592.4,626.7,593.8,628.7,595.2L628.7,595.2z"/>
		</g>
		<g>
			<path class="st11" d="M625,525.3c1.1,5.7,2,11.5,2.8,17.3c0.7,5.8,1.3,11.6,1.7,17.5c0.1,1.5,0.2,2.9,0.2,4.4
				c0.1,1.5,0.1,2.9,0.2,4.4c0.1,2.9,0.1,5.9,0.1,8.8c0,1.5-0.1,2.9-0.1,4.4c0,0.7,0,1.5-0.1,2.2l-0.2,2.2l-0.2,2.2l-0.1,1.1
				l-0.1,1.1l-0.6,4.4l0.3-4.4l0.1-1.1l0-1.1l0.1-2.2l0.1-2.2c0-0.7,0-1.5,0-2.2c0-1.5,0-2.9,0-4.4c-0.1-5.8-0.3-11.7-0.7-17.5
				c-0.4-5.8-0.9-11.6-1.6-17.5c-0.3-2.9-0.6-5.8-1-8.7C625.8,531.1,625.4,528.2,625,525.3z"/>
		</g>
		<g>
			<path class="st11" d="M607.1,575.1c-0.5,2.5-1.5,4.8-2.8,7c-1.2,2.2-2.8,4.2-4.5,6.1c-0.4,0.5-0.9,0.9-1.3,1.3l-0.7,0.7l-0.7,0.6
				l-1.4,1.2l-1.5,1.1l-0.8,0.6c-0.3,0.2-0.5,0.3-0.8,0.5l-1.6,1c-0.5,0.3-1.1,0.6-1.7,0.9c-0.6,0.3-1.1,0.6-1.7,0.8
				c1-0.7,2.1-1.3,3.2-2l1.5-1.1l0.8-0.5l0.7-0.6l1.5-1.2l1.4-1.2l0.7-0.6l0.7-0.7c0.4-0.4,0.9-0.9,1.3-1.3c1.7-1.8,3.2-3.8,4.5-5.9
				C605.1,579.7,606.3,577.5,607.1,575.1z"/>
		</g>
		<g>
			<path class="st11" d="M670.4,971.6c-3.7-15.9-7.2-31.8-10.5-47.8c-3.3-16-6.3-32-8.9-48.1c-1.3-8.1-2.4-16.1-3.4-24.2
				c-1-8.1-2.1-16.2-3.1-24.3l-1.6-12.1l-1.7-12.1l-3.4-24.2c-2.3-16.1-4.8-32.3-7.3-48.4c-0.6-4-1.3-8.1-1.9-12.1
				c-0.6-4-1.3-8-2-12.1c-0.7-4-1.3-8-2.1-12.1l-1.1-6l-1.1-6c-1.5-8-3.2-16-4.9-24l-5.1-23.9L602,586.4l0.1,0
				c1.8,7.9,3.7,15.9,5.5,23.8l5.4,23.9l5.3,23.9c0.9,4,1.8,8,2.6,12l1.2,6c0.4,2,0.8,4,1.1,6c3,16,5.6,32.1,8.1,48.3
				c2.5,16.1,4.7,32.3,6.9,48.4l3.3,24.2l3.3,24.2l3.3,24.2c1.1,8.1,2.3,16.1,3.6,24.2c1.3,8,2.8,16.1,4.2,24.1c1.5,8,3,16,4.6,24
				C663.7,939.6,667,955.6,670.4,971.6L670.4,971.6z"/>
		</g>
		<g>
			<path class="st11" d="M658.9,695.8c4.5,0.8,9,1.6,13.6,2.5l6.8,1.3c2.3,0.4,4.5,0.9,6.7,1.4l6.7,1.5c2.2,0.5,4.6,0.1,6.6-1
				c1-0.5,1.8-1.3,2.7-2.1l2.6-2.2l5.2-4.5c3.5-3,7-6,10.5-9l5.3-4.5c0.9-0.7,1.8-1.5,2.6-2.2c0.8-0.7,1.5-1.6,2-2.6
				c1-1.9,1.4-4.2,0.9-6.4c-0.2-1.1-0.7-2.1-1.1-3.2l-1.2-3.2l-1.2-3.2l-0.6-1.6c-0.2-0.5-0.4-1.1-0.6-1.6c-0.5-1-1.3-1.8-2.3-2.3
				c-1-0.5-2.2-0.7-3.3-0.5l0-0.1c1.1-0.2,2.3-0.1,3.4,0.4c1.1,0.5,2,1.3,2.6,2.4c0.3,0.5,0.5,1.1,0.7,1.6l0.6,1.6l1.3,3.2l1.2,3.2
				l0.6,1.6c0.2,0.5,0.4,1.1,0.5,1.7c0.6,2.3,0.2,4.8-0.9,7c-0.6,1.1-1.3,2-2.2,2.8c-0.9,0.8-1.8,1.5-2.6,2.2l-5.3,4.4
				c-3.5,2.9-7.1,5.8-10.7,8.7l-5.3,4.4l-2.7,2.2c-0.9,0.7-1.7,1.5-2.8,2.1c-2,1.2-4.5,1.6-6.8,1.1l-6.8-1.2
				c-2.3-0.4-4.5-0.9-6.8-1.3l-6.7-1.4C667.8,698,663.3,697,658.9,695.8L658.9,695.8z"/>
		</g>
		<g>
			<path class="st11" d="M720.9,652.3c-4.3,0.9-8.5,1.7-12.8,2.7c-4.3,0.9-8.5,1.8-12.8,2.8c-8.5,1.9-17,4-25.4,6.3
				c-4.2,1.1-8.4,2.3-12.5,3.6c-1,0.3-2.1,0.6-3.1,1l-3.1,1c-0.5,0.2-1,0.3-1.5,0.6c-0.5,0.2-0.9,0.5-1.3,0.9
				c-0.8,0.7-1.3,1.6-1.5,2.6c-0.1,0.5-0.1,1-0.1,1.5c0,0.5,0.2,1,0.3,1.5l0.9,3.1l1.8,6.3c0.3,1,0.6,2.1,0.9,3.1
				c0.3,1,0.8,2,1.5,2.8c1.3,1.7,3.3,2.9,5.4,3.4c-1.1-0.2-2.1-0.6-3.1-1.1c-0.9-0.6-1.8-1.3-2.5-2.1c-0.7-0.8-1.3-1.8-1.6-2.9
				c-0.4-1-0.7-2.1-1-3.1l-1.9-6.2l-1-3.1c-0.2-0.5-0.3-1.1-0.4-1.6c-0.1-0.6,0-1.2,0.1-1.7c0.2-1.1,0.8-2.2,1.6-3
				c0.4-0.4,0.9-0.7,1.4-1c0.5-0.3,1.1-0.4,1.6-0.6l3.1-1.1c1-0.4,2.1-0.7,3.1-1c4.2-1.3,8.3-2.5,12.6-3.7
				c8.4-2.2,16.9-4.3,25.4-6.1c4.3-0.9,8.5-1.8,12.8-2.6C712.3,653.8,716.6,653,720.9,652.3z"/>
		</g>
		<g>
			<path class="st11" d="M705.1,774.2c1.4-1.1,2.8-2.1,4.2-3.2l4.2-3.1c2.8-2.1,5.7-4.1,8.5-6.2l4.3-3c0.7-0.5,1.4-1,2.1-1.6
				c0.6-0.6,1.2-1.2,1.8-1.8c0.5-0.7,1-1.4,1.4-2.1c0.4-0.8,0.8-1.6,1-2.4c0.6-1.6,0.8-3.4,0.8-5.1c0.2,1.7,0,3.5-0.5,5.3
				c-0.2,0.9-0.6,1.7-1,2.5c-0.4,0.8-0.9,1.6-1.4,2.3c-0.5,0.7-1.1,1.4-1.8,2c-0.7,0.6-1.4,1.1-2.1,1.6l-4.3,3.1c-2.9,2-5.7,4-8.6,6
				l-4.4,3C708.1,772.3,706.6,773.3,705.1,774.2z"/>
		</g>
		<g>
			<path class="st11" d="M655.4,694.8c1,9.7,2,19.3,2.9,29l1.3,14.5c0.4,4.8,0.9,9.7,1.2,14.5c0.2,2.4,0.4,4.9,0.6,7.3
				c0.3,2.4,1.2,4.7,2.7,6.6c1.5,1.9,3.5,3.4,5.7,4.2c1.1,0.4,2.3,0.7,3.5,0.9l3.6,0.7l7.2,1.4l7.1,1.5l3.6,0.8
				c1.2,0.2,2.4,0.3,3.5,0.2c2.4-0.1,4.7-0.9,6.8-2.2l0,0.1c-1,0.7-2,1.4-3.2,1.8c-1.1,0.4-2.4,0.8-3.6,0.9
				c-1.2,0.1-2.5,0.1-3.7-0.1l-3.6-0.7l-7.2-1.4l-7.1-1.5l-3.6-0.8c-1.2-0.2-2.4-0.6-3.5-1.1c-1.1-0.5-2.2-1.1-3.2-1.9
				c-1-0.8-1.8-1.6-2.6-2.6c-1.5-1.9-2.5-4.2-3-6.7c-0.1-0.6-0.2-1.2-0.2-1.8l-0.2-1.8l-0.4-3.6c-0.5-4.8-0.9-9.7-1.4-14.5
				l-1.3-14.5C656.8,714.2,656,704.5,655.4,694.8L655.4,694.8z"/>
		</g>
		<g>
			<path class="st11" d="M730.1,611.9l-0.4,12.9c-0.1,4.3-0.3,8.6-0.3,12.9c-0.1,4.3-0.1,8.6,0,12.9c0,1.1,0,2.1,0.1,3.2
				c0,1.1,0,2.1,0.1,3.2c0,1.1,0.1,2.1,0.1,3.2c0.1,1.1,0.1,2.1,0.2,3.2c-0.3-2.1-0.5-4.3-0.7-6.4c-0.1-1.1-0.2-2.1-0.2-3.2
				c-0.1-1.1-0.1-2.1-0.2-3.2c-0.1-2.2-0.1-4.3-0.1-6.5c0-2.2,0-4.3,0-6.5c0.1-4.3,0.2-8.6,0.5-12.9c0.1-2.1,0.3-4.3,0.4-6.4
				C729.7,616.2,729.9,614.1,730.1,611.9z"/>
		</g>
		<g>
			<path class="st11" d="M730.2,675.5c0.9,12,1.5,24.1,2,36.1c0.2,6,0.4,12.1,0.7,18.1c0.1,3,0.3,6,0.5,9c0.2,3,0.4,6,0.6,9
				c0.8,12,1.7,24.1,2.6,36.1c0.9,12,1.9,24,3.2,36.1l-0.1,0c-1.7-11.9-2.9-24-3.9-36c-1-12-1.7-24.1-2.2-36.1
				c-0.3-6-0.6-12.1-0.9-18.1c-0.3-6-0.8-12-1.1-18.1C730.9,699.6,730.4,687.6,730.2,675.5L730.2,675.5z"/>
		</g>
		<g>
			<path class="st11" d="M789.4,724.6c-4-0.1-7.9-0.6-11.9-1.1c-3.9-0.6-7.9-1.3-11.8-2.2c-3.9-1-7.7-2.1-11.4-3.6
				c-0.9-0.4-1.8-0.8-2.8-1.2c-0.5-0.2-0.9-0.4-1.4-0.6l-1.3-0.7l-1.3-0.7l-0.7-0.3l-0.6-0.4c-0.9-0.5-1.7-1-2.5-1.6
				c0.9,0.5,1.8,0.9,2.6,1.4l0.7,0.3l0.7,0.3l1.4,0.6l1.4,0.6c0.5,0.2,0.9,0.4,1.4,0.5c0.9,0.3,1.8,0.7,2.8,1.1l2.8,0.9
				c0.9,0.3,1.9,0.6,2.8,0.9l1.4,0.4c0.5,0.1,1,0.3,1.4,0.4c1,0.2,1.9,0.5,2.9,0.7c3.9,1,7.7,1.7,11.7,2.4c2,0.4,3.9,0.7,5.9,0.9
				C785.4,724.2,787.4,724.4,789.4,724.6z"/>
		</g>
		<g>
			<path class="st11" d="M799.8,737.5c-1.6-0.8-3.3-1.4-5-2c-1.7-0.6-3.4-1-5.2-1.4c-1.7-0.4-3.5-0.6-5.3-0.8
				c-1.8-0.2-3.5-0.2-5.3,0c-3.5,0.2-7,1.1-10.3,2.5c-1.6,0.7-3.2,1.6-4.7,2.6c-1.5,0.9-2.9,2.1-4.2,3.3c2.4-2.6,5.4-4.9,8.6-6.4
				l1.2-0.6c0.4-0.2,0.8-0.3,1.3-0.5c0.4-0.2,0.9-0.3,1.3-0.4c0.4-0.1,0.9-0.3,1.3-0.4c1.8-0.5,3.6-0.7,5.4-0.9
				c3.6-0.3,7.3,0.1,10.8,1C793.3,734.4,796.7,735.7,799.8,737.5z"/>
		</g>
		<g>
			<path class="st11" d="M799.8,737.5c-3-0.2-6,0.1-8.9,0.6c-2.9,0.5-5.8,1.3-8.5,2.4c-2.7,1.1-5.4,2.5-7.9,4.1
				c-2.5,1.6-4.8,3.5-6.9,5.6c-2.1,2.1-4,4.4-5.7,6.8c-0.8,1.2-1.7,2.4-2.4,3.7c-0.4,0.6-0.8,1.3-1.1,1.9l-1,2l-0.5,1l-0.5,1l-0.9,2
				c-0.6,1.4-1.1,2.8-1.7,4.1l-1.5,4.2l-1.3,4.3l1.1-4.4l1.3-4.3c0.5-1.4,1-2.8,1.6-4.2l0.9-2.1l0.4-1l0.5-1l1-2
				c0.3-0.7,0.7-1.3,1.1-2c0.7-1.3,1.6-2.5,2.4-3.8c1.7-2.4,3.6-4.8,5.8-6.9c4.3-4.2,9.4-7.6,15.1-9.7c2.8-1,5.7-1.8,8.7-2.2
				C793.8,737.4,796.8,737.2,799.8,737.5z"/>
		</g>
		<g>
			<path class="st11" d="M816,735.8c-0.6,3-0.8,6.1-0.8,9.1c-0.1,1.5,0,3.1,0,4.6c0,1.5,0.2,3,0.3,4.6c0.5,6.1,1.5,12.1,2.9,18.1
				l1,4.5l1.2,4.4l0.6,2.2c0.2,0.7,0.5,1.5,0.7,2.2c0.5,1.5,0.9,2.9,1.4,4.4c0.2,0.7,0.5,1.5,0.7,2.2l0.8,2.2l1.6,4.3
				c1.1,2.8,2.3,5.7,3.4,8.5c-1.3-2.8-2.5-5.6-3.8-8.4l-1.7-4.3l-0.8-2.1c-0.3-0.7-0.6-1.4-0.8-2.2c-0.5-1.4-1-2.9-1.5-4.4
				c-0.2-0.7-0.5-1.5-0.7-2.2l-0.6-2.2l-1.3-4.4l-1.1-4.5c-1.3-6-2.3-12.1-2.7-18.2c-0.1-1.5-0.1-3.1-0.2-4.6c0-1.5,0-3.1,0.1-4.6
				C815,741.8,815.2,738.8,816,735.8z"/>
		</g>
		<g>
			<path class="st11" d="M851.9,799.1c-2.6,0.5-5.4,0.3-8-0.5c-2.6-0.7-5.1-2.1-7-4.1c-1-1-1.8-2-2.5-3.2c-0.2-0.3-0.3-0.6-0.5-0.9
				c-0.2-0.3-0.3-0.6-0.5-0.9l-0.4-0.9l-0.4-1c-0.9-2.5-1.4-5.2-1.5-7.9c0.4,2.6,1.1,5.2,2.1,7.7c1,2.4,2.4,4.7,4.3,6.5
				c1.8,1.9,4.2,3.2,6.6,4c1.2,0.4,2.5,0.7,3.9,0.9C849.2,799.1,850.6,799.2,851.9,799.1z"/>
		</g>
		<g>
			<path class="st11" d="M729.5,649.7c0-2.8,0.5-5.6,1.2-8.3c0.7-2.7,1.7-5.4,3.1-7.8c0.7-1.2,1.4-2.4,2.2-3.6
				c0.8-1.1,1.7-2.3,2.7-3.3c1.9-2.1,4.2-3.8,6.6-5.2c-1.1,0.8-2.2,1.7-3.2,2.6c-1,0.9-2,1.9-2.9,3c-1.8,2.1-3.4,4.4-4.7,6.8
				c-1.3,2.4-2.3,5-3.2,7.6c-0.4,1.3-0.8,2.7-1.1,4C729.9,647,729.7,648.4,729.5,649.7z"/>
		</g>
		<g>
			<path class="st11" d="M739.5,577.5c0.1,2.7,0,5.5-0.4,8.2c-0.3,2.7-0.8,5.4-1.5,8.1c-0.7,2.7-1.6,5.3-2.7,7.8
				c-1.1,2.5-2.6,4.9-4.3,7c0.7-1.2,1.4-2.3,2-3.6c0.6-1.2,1.2-2.5,1.7-3.7c1-2.5,1.8-5.1,2.5-7.7c0.7-2.6,1.2-5.3,1.7-8
				C738.9,582.9,739.3,580.2,739.5,577.5z"/>
		</g>
		<g>
			<g>
				<path class="st11" d="M632,569.2c-0.1,0-0.2,0-0.3-0.1c-1.6-1.3-2.5-2-2.5-2c-0.2-0.1-0.2-0.4-0.1-0.6c0.1-0.2,0.4-0.2,0.6-0.1
					c0,0,1,0.7,2.6,2c0.2,0.1,0.2,0.4,0.1,0.6C632.3,569.1,632.2,569.2,632,569.2z"/>
			</g>
			<g>
				<path class="st11" d="M687,611.7L687,611.7c-0.3,0-0.5-0.2-0.5-0.4s0.2-0.4,0.4-0.4h0.1c1.7,0,3.4-0.1,5.1-0.4
					c0.4-0.1,0.8-0.1,1.3-0.2c0.2,0,0.4,0.1,0.5,0.3c0,0.2-0.1,0.4-0.3,0.5c-0.4,0.1-0.8,0.1-1.3,0.2
					C690.5,611.6,688.8,611.7,687,611.7z M680.5,611C680.5,611,680.5,611,680.5,611c-2.2-0.5-4.3-1.2-6.3-2
					c-0.2-0.1-0.3-0.3-0.2-0.5c0.1-0.2,0.3-0.3,0.5-0.2c1.9,0.9,4,1.5,6.1,2c0.2,0,0.4,0.3,0.3,0.5C680.9,610.9,680.7,611,680.5,611
					z M699.9,610.2c-0.2,0-0.4-0.2-0.4-0.4c0-0.2,0.1-0.4,0.4-0.4c2.2-0.3,4.4-0.5,6.5-0.6c0.2,0,0.4,0.2,0.4,0.4
					c0,0.2-0.2,0.4-0.4,0.4C704.3,609.7,702.1,609.9,699.9,610.2C699.9,610.2,699.9,610.2,699.9,610.2z M719.3,609.4
					C719.3,609.4,719.3,609.4,719.3,609.4c-2.1-0.1-4.3-0.1-6.5-0.1c0,0,0,0,0,0c-0.2,0-0.4-0.2-0.4-0.4c0-0.2,0.2-0.4,0.4-0.4
					c2.2,0,4.4,0,6.5,0.1c0.2,0,0.4,0.2,0.4,0.4C719.7,609.3,719.5,609.4,719.3,609.4z M668.8,605.8c-0.1,0-0.2,0-0.2-0.1
					c-1.8-1.3-3.4-2.8-4.9-4.4c-0.1-0.2-0.1-0.4,0-0.6c0.2-0.1,0.4-0.1,0.6,0c1.4,1.6,3,3,4.7,4.3c0.2,0.1,0.2,0.4,0.1,0.6
					C669,605.7,668.9,605.8,668.8,605.8z M659.9,596.4c-0.1,0-0.2,0-0.3-0.1c-1.3-1.6-2.8-3.3-4.2-4.9c-0.1-0.2-0.1-0.4,0-0.6
					c0.2-0.1,0.4-0.1,0.6,0c1.5,1.6,2.9,3.3,4.3,4.9c0.1,0.2,0.1,0.4-0.1,0.6C660,596.3,660,596.4,659.9,596.4z M651.2,586.7
					c-0.1,0-0.2,0-0.3-0.1c-1.5-1.5-3-3.1-4.6-4.6c-0.2-0.2-0.2-0.4,0-0.6c0.2-0.2,0.4-0.2,0.6,0c1.6,1.5,3.1,3.1,4.6,4.6
					c0.2,0.2,0.1,0.4,0,0.6C651.4,586.7,651.3,586.7,651.2,586.7z M641.9,577.6c-0.1,0-0.2,0-0.3-0.1c-1.6-1.5-3.2-2.9-4.9-4.3
					c-0.2-0.1-0.2-0.4,0-0.6c0.1-0.2,0.4-0.2,0.6,0c1.6,1.4,3.3,2.9,4.9,4.3c0.2,0.2,0.2,0.4,0,0.6
					C642.1,577.6,642,577.6,641.9,577.6z"/>
			</g>
			<g>
				<path class="st11" d="M729,610.5C729,610.5,728.9,610.5,729,610.5c-1.1-0.2-2.2-0.4-3.2-0.5c-0.2,0-0.4-0.2-0.3-0.5
					c0-0.2,0.2-0.4,0.5-0.3c1.1,0.1,2.2,0.3,3.2,0.5c0.2,0,0.4,0.3,0.3,0.5C729.4,610.4,729.2,610.5,729,610.5z"/>
			</g>
		</g>
		<g>
			<path class="st11" d="M466.5,597c1.6-4.7,3.7-9.1,6.1-13.5c1.2-2.1,2.6-4.2,4-6.2c1.4-2,2.8-4,4.4-5.9c0.8-0.9,1.8-1.8,2.8-2.5
				c1.1-0.7,2.3-1.2,3.5-1.4c1.3-0.2,2.6,0,3.8,0.5c1.2,0.5,2.3,1.2,3.2,2.1c0.5,0.4,0.9,0.9,1.3,1.4c0.4,0.5,0.7,1,1,1.5
				c0.7,1,1.3,2.1,1.9,3.2c1.2,2.2,2.2,4.4,2.9,6.8l-0.1,0c-0.5-1.1-1.1-2.2-1.6-3.3c-0.6-1.1-1.2-2.1-1.8-3.2c-0.6-1-1.3-2.1-2-3.1
				c-0.3-0.5-0.7-1-1-1.5c-0.4-0.5-0.7-0.9-1.2-1.3c-0.8-0.8-1.8-1.5-2.9-2c-1.1-0.5-2.3-0.6-3.4-0.5c-2.4,0.2-4.5,1.6-6.2,3.4
				c-1.6,1.8-3.1,3.8-4.4,5.8c-1.3,2.1-2.5,4.2-3.6,6.4C470.8,588.2,468.7,592.6,466.5,597L466.5,597z"/>
		</g>
		<g>
			<path class="st11" d="M464.7,542.6c-0.4,2.3-0.6,4.5-0.9,6.8c-0.1,1.1-0.2,2.3-0.3,3.4c-0.1,1.1-0.2,2.3-0.2,3.4l-0.2,3.4
				l-0.1,3.4c0,2.3,0,4.6,0.1,6.8l0,1.7c0,0.6,0.1,1.1,0.1,1.7l0.2,3.4c0.2,2.3,0.4,4.5,0.7,6.8c0.1,1.1,0.3,2.3,0.4,3.4l0.6,3.4
				c0.1,0.6,0.2,1.1,0.3,1.7l0.3,1.7c0.2,1.1,0.5,2.2,0.7,3.4c-0.3-1.1-0.6-2.2-0.9-3.3l-0.4-1.7c-0.1-0.6-0.2-1.1-0.4-1.7l-0.7-3.4
				c-0.2-1.1-0.4-2.3-0.6-3.4l-0.3-1.7c-0.1-0.6-0.1-1.1-0.2-1.7l-0.4-3.4l-0.2-3.4c0-0.6-0.1-1.1-0.1-1.7l-0.1-1.7
				c-0.1-4.6,0-9.2,0.4-13.7c0.2-2.3,0.5-4.6,0.8-6.8C463.8,547.1,464.2,544.9,464.7,542.6z"/>
		</g>
		<g>
			<path class="st11" d="M479.3,573.9c0.4,1.1,0.9,2.1,1.6,3c0.3,0.5,0.7,0.9,1,1.3c0.4,0.4,0.8,0.8,1.2,1.2
				c1.6,1.5,3.5,2.8,5.5,3.8c1,0.6,2,1,3,1.5c1,0.5,2.1,0.8,3.1,1.2l3.2,1c1.1,0.3,2.2,0.6,3.3,0.9c-1.1-0.1-2.2-0.3-3.4-0.5
				c-1.1-0.2-2.2-0.5-3.3-0.8c-0.5-0.2-1.1-0.3-1.6-0.5c-0.5-0.2-1.1-0.3-1.6-0.6c-1.1-0.5-2.1-0.9-3.1-1.5c-1-0.5-2-1.2-2.9-1.8
				l-1.3-1.1c-0.4-0.4-0.8-0.8-1.2-1.2c-0.4-0.4-0.8-0.9-1.1-1.3c-0.3-0.5-0.7-0.9-1-1.4C480,576.1,479.5,575,479.3,573.9z"/>
		</g>
		<g>
			<path class="st11" d="M491.1,584.9l-1.5,24.2l-0.7,12.1l-0.4,6l-0.4,6c-1.3,16.1-2.9,32.2-4.5,48.2c-0.8,8-1.6,16.1-2.3,24.1
				c-0.7,8-1.4,16.1-1.8,24.1c-0.4,8.1-0.6,16.1-0.8,24.2L478,778c-0.9,32.3-1.9,64.5-3,96.8c-0.5,16.1-1.1,32.3-1.7,48.4l-0.9,24.2
				l-1,24.2l-0.1,0l0.6-24.2l0.7-24.2c0.5-16.1,0.9-32.3,1.5-48.4c1-32.3,2.2-64.5,3.4-96.8l1.7-48.4c0.8-16.1,2.2-32.2,3.7-48.3
				l2.3-24.1c0.8-8,1.5-16.1,2.2-24.1c0.7-8,1.1-16.1,1.7-24.1C489.7,601,490.4,592.9,491.1,584.9L491.1,584.9z"/>
		</g>
		<g>
			<path class="st11" d="M386,877.1l-0.5-25.2c-0.2-8.4-0.3-16.8-0.6-25.2c-0.2-8.4-0.5-16.8-0.8-25.1c-0.1-2.1-0.2-4.2-0.3-6.3
				c-0.1-2.1-0.2-4.2-0.3-6.3c-0.1-2.1-0.2-4.2-0.3-6.3l-0.4-6.3l0.6,6.3c0.2,2.1,0.3,4.2,0.5,6.3c0.2,2.1,0.3,4.2,0.4,6.3
				c0.1,2.1,0.3,4.2,0.4,6.3c0.5,8.4,0.7,16.8,1,25.1c0.2,8.4,0.4,16.8,0.4,25.2l0,12.6C386.1,868.7,386.1,872.9,386,877.1z"/>
		</g>
		<g>
			<path class="st11" d="M410.9,793.5c2.1,1.2,4.5,1.8,6.9,1.6c1.2-0.1,2.4-0.3,3.5-0.7c1.1-0.4,2.2-0.9,3.3-1.4l13.2-5.6
				c1.1-0.5,2.2-0.9,3.2-1.5c1-0.6,1.9-1.3,2.7-2.2c1.6-1.7,2.6-3.9,3-6.2c0.1-0.6,0.1-1.1,0.2-1.7l0-1.8l0.1-3.6l0.2-7.2l0.9-28.7
				l0.5-14.3l0.6-14.3l-0.2,14.3l-0.3,14.3l-0.7,28.7l-0.2,7.2l-0.1,3.6l-0.1,1.8c0,0.6-0.1,1.2-0.2,1.8c-0.4,2.4-1.5,4.7-3.2,6.5
				c-0.8,0.9-1.8,1.7-2.9,2.3c-1.1,0.6-2.2,1-3.3,1.5l-13.3,5.4c-1.1,0.4-2.2,0.9-3.3,1.3c-1.1,0.4-2.3,0.6-3.5,0.7
				c-1.2,0-2.4-0.1-3.6-0.4C413,794.7,411.9,794.2,410.9,793.5z"/>
		</g>
		<g>
			<path class="st11" d="M378.3,703.8l0.2,13.4l0.1,13.4l0.1,26.7l0,6.7l0,3.3c0,1.1,0.2,2.2,0.5,3.2c0.6,2.1,1.8,4,3.4,5.4
				c0.8,0.7,1.7,1.3,2.7,1.9l2.9,1.7l11.4,7l11.4,7l-11.6-6.7l-11.5-6.8l-2.9-1.7c-1-0.5-2-1.2-2.8-1.9c-1.7-1.5-3-3.6-3.6-5.8
				c-0.3-1.1-0.5-2.2-0.5-3.4l0-3.3l0-6.7l0.1-26.7l0.1-13.4L378.3,703.8z"/>
		</g>
		<g>
			<path class="st11" d="M377.7,703.4c-1-0.5-1.8-1.2-2.5-2.1c-0.6-0.9-1.1-2-1.2-3.1c-0.1-0.5-0.1-1.1,0-1.7
				c0.1-0.5,0.2-1.1,0.4-1.6l0.9-3.1l1.9-6.3l0.9-3.1c0.2-0.5,0.3-1.1,0.6-1.6c0.3-0.5,0.5-1,0.9-1.4c0.7-0.9,1.7-1.6,2.7-2
				c1-0.5,2.2-0.6,3.4-0.6l6.5,0.3l13.1,0.6l26.2,1.5l13.1,0.8l3.3,0.2c0.5,0,1.1,0.1,1.6,0.1c0.6,0.1,1.1,0.2,1.6,0.5
				c1,0.5,1.8,1.3,2.4,2.3c0.3,0.5,0.4,1,0.5,1.6c0.1,0.5,0.1,1.1,0,1.6c0.3-2.2-1-4.4-3-5.3c-1-0.5-2.1-0.4-3.2-0.5l-3.3-0.1
				l-13.1-0.6l-26.2-1.3l-13.1-0.7l-6.5-0.4c-2.1-0.2-4.2,0.7-5.5,2.3c-0.3,0.4-0.6,0.8-0.9,1.3c-0.2,0.5-0.4,1-0.6,1.5l-1,3.1
				l-2,6.2l-1,3.1c-0.2,0.5-0.3,1-0.4,1.6c-0.1,0.5-0.1,1.1,0,1.6C374.4,700.4,375.7,702.4,377.7,703.4z"/>
		</g>
		<g>
			<path class="st11" d="M453.9,686.3c-0.5,4.1-1,8.2-1.5,12.3l-0.4,3.1c-0.1,1-0.4,2.1-1.1,3c-0.3,0.4-0.7,0.8-1.2,1.1
				c-0.4,0.3-1,0.5-1.4,0.7l-2.8,1.3c-7.6,3.3-15.1,6.6-22.7,9.9l-2.8,1.2l-1.4,0.6c-0.5,0.2-1,0.4-1.5,0.6c-2,0.6-4.2,0.8-6.3,0.5
				c-1-0.2-2.1-0.4-3.1-0.8l-0.7-0.3l-0.7-0.4l-1.4-0.7l-5.4-3l-10.9-5.9c-3.6-2-7.2-4-10.8-6c3.7,1.9,7.4,3.8,11,5.7l11,5.7
				l5.5,2.9l1.4,0.7l0.7,0.3l0.7,0.3c0.9,0.4,1.9,0.6,2.9,0.8c2,0.3,4,0.1,6-0.5c0.9-0.3,1.9-0.7,2.8-1.2l2.8-1.2
				c7.6-3.2,15.2-6.5,22.8-9.8l2.9-1.2c0.5-0.2,0.9-0.4,1.3-0.7c0.4-0.3,0.8-0.6,1.1-1c0.6-0.8,1-1.7,1.1-2.7l0.5-3.1
				C452.6,694.4,453.2,690.3,453.9,686.3z"/>
		</g>
		<g>
			<path class="st11" d="M368.9,639.3c1.3,4.1,2.4,8.3,3.3,12.6c0.9,4.2,1.7,8.5,2.3,12.8c0.6,4.3,1,8.6,1.2,13
				c0.3,4.3,0.2,8.7,0,13c0-1.1-0.1-2.2-0.1-3.3l0-1.6l-0.1-1.6l-0.1-3.2l-0.2-3.2c-0.1-1.1-0.2-2.2-0.3-3.2
				c-0.1-1.1-0.2-2.2-0.3-3.2c-0.3-2.1-0.5-4.3-0.8-6.4c-0.6-4.3-1.3-8.6-2.1-12.8l-0.6-3.2l-0.7-3.2
				C369.9,643.5,369.4,641.4,368.9,639.3z"/>
		</g>
		<g>
			<path class="st11" d="M684.5,836.2c2.2,5.8,4.5,11.5,6.8,17.2l3.5,8.6l3.5,8.6c4.7,11.4,9.6,22.8,14.6,34.1
				c1.3,2.8,2.5,5.7,3.8,8.5l3.8,8.4c1.3,2.8,2.6,5.6,3.9,8.4c1.3,2.8,2.6,5.6,3.9,8.4l4,8.4l4.1,8.3l2,4.2l2.1,4.1l4.2,8.3
				l-4.4-8.2l-2.2-4.1l-2.1-4.1l-4.2-8.3l-4.1-8.3c-5.4-11.1-10.6-22.3-15.6-33.6c-5-11.3-9.8-22.7-14.5-34.1l-3.4-8.6l-3.4-8.6
				C688.7,847.8,686.6,842,684.5,836.2z"/>
		</g>
		<g>
			<path class="st11" d="M429.7,877.4c-0.8,4-1.8,7.9-2.7,11.9l-2.8,11.9c-1.9,7.9-4,15.8-6,23.6c-2.1,7.8-4.3,15.7-6.6,23.5
				c-1.2,3.9-2.3,7.8-3.5,11.7c-1.2,3.9-2.5,7.7-3.7,11.6c1.1-3.9,2.3-7.8,3.4-11.7c1.1-3.9,2.2-7.8,3.3-11.7
				c2.2-7.8,4.4-15.7,6.4-23.5c2.1-7.8,4.2-15.7,6.2-23.6L429.7,877.4z"/>
		</g>
		<g>
			<path class="st11" d="M363,675.9c0.7,1.6,1.5,3.2,2.4,4.8c0.8,1.6,1.7,3.1,2.7,4.6l0.7,1.1l0.8,1.1c0.2,0.4,0.5,0.7,0.8,1.1
				c0.3,0.3,0.5,0.7,0.8,1l0.9,1c0.3,0.3,0.6,0.6,0.9,1c0.6,0.7,1.3,1.2,1.9,1.9c-1.5-1-2.9-2.1-4.1-3.5c-1.2-1.3-2.4-2.7-3.3-4.3
				c-1-1.5-1.9-3.1-2.6-4.7C364.1,679.3,363.5,677.7,363,675.9z"/>
		</g>
		<g>
			<path class="st11" d="M361,694.6c1.4,2.3,2.6,4.7,3.7,7.1c1.1,2.4,2.2,4.9,3.2,7.3c2,5,3.7,10,5.2,15.2l0.5,1.9
				c0.2,0.6,0.3,1.3,0.5,1.9c0.3,1.3,0.7,2.6,1,3.9c0.5,2.6,1.2,5.2,1.5,7.9c0.2,1.3,0.4,2.6,0.6,4l0.5,4c0.1,0.7,0.2,1.3,0.2,2
				l0.1,2c0.1,1.3,0.2,2.7,0.2,4c-0.2-1.3-0.3-2.7-0.4-4l-0.2-2c-0.1-0.7-0.2-1.3-0.3-2l-0.6-4c-0.2-1.3-0.5-2.6-0.7-3.9
				c-0.5-2.6-1.1-5.2-1.6-7.8c-0.3-1.3-0.7-2.6-1-3.9c-0.2-0.6-0.3-1.3-0.5-1.9l-0.6-1.9c-0.4-1.3-0.7-2.6-1.1-3.8l-1.2-3.8
				l-1.3-3.8c-0.4-1.3-0.9-2.5-1.4-3.8c-0.5-1.3-1-2.5-1.5-3.7c-0.5-1.2-1-2.5-1.6-3.7C363.3,699.4,362.2,696.9,361,694.6z"/>
		</g>
		<g>
			<path class="st11" d="M345.7,776.6c1.6,0.1,3.2,0.3,4.8,0.5c1.6,0.3,3.2,0.6,4.7,1c1.6,0.4,3.1,0.9,4.7,1.4
				c1.5,0.5,3,1.1,4.5,1.8c2.9,1.4,5.8,3,8.3,5c1.3,1,2.5,2.1,3.6,3.3c1.1,1.2,2.1,2.4,3,3.8c-2.1-2.5-4.4-4.7-7-6.5
				c-2.6-1.9-5.4-3.4-8.3-4.7c-2.9-1.3-5.9-2.4-9-3.3c-1.5-0.5-3.1-0.9-4.7-1.2C348.9,777.2,347.3,776.9,345.7,776.6z"/>
		</g>
		<g>
			<path class="st11" d="M368.5,770.1c-1,0-2,0-3,0c-1,0-2,0.1-3,0.2c-2,0.2-4,0.6-5.9,1.1c-2,0.5-3.8,1.2-5.6,2l-1.4,0.7l-1.3,0.8
				l-0.7,0.4l-0.6,0.4c-0.4,0.3-0.8,0.6-1.2,0.9c1.4-1.4,3-2.8,4.9-3.7c1.8-1,3.7-1.8,5.7-2.2c2-0.5,4-0.8,6.1-0.9
				C364.5,769.7,366.5,769.8,368.5,770.1z"/>
		</g>
		<g>
			<path class="st11" d="M328.8,776.1c2,2.8,3.8,5.9,5.3,9c1.6,3.1,2.9,6.4,4,9.7c2.2,6.6,3.4,13.7,2.9,20.8c-0.4,7-2.9,13.9-7,19.7
				c-4.1,5.7-9.6,10.3-15.7,13.8l2.2-1.5l1.1-0.7l0.5-0.4l0.5-0.4l2-1.6c0.3-0.3,0.7-0.5,1-0.8l1-0.9c0.6-0.6,1.3-1.2,1.9-1.8
				l1.8-1.9c0.3-0.3,0.6-0.6,0.9-1l0.8-1l0.8-1c0.3-0.3,0.5-0.7,0.8-1.1c2-2.9,3.5-6,4.7-9.2c1.2-3.3,1.8-6.7,2-10.1
				c0.5-6.9-0.6-13.9-2.7-20.5c-1-3.3-2.3-6.6-3.8-9.7C332.3,782.1,330.7,779,328.8,776.1z"/>
		</g>
		<g>
			<path class="st11" d="M370.8,637.4c-0.2,0-0.4-0.1-0.4-0.3c0-0.2,0.1-0.4,0.3-0.5c2-0.3,4.2-0.6,6.4-0.9c0.2,0,0.4,0.1,0.5,0.3
				c0,0.2-0.1,0.4-0.3,0.5C375.1,636.8,372.9,637.1,370.8,637.4C370.9,637.4,370.9,637.4,370.8,637.4z M383.7,635.6
				c-0.2,0-0.4-0.1-0.4-0.4c0-0.2,0.1-0.4,0.4-0.5c2.1-0.3,4.2-0.5,6.4-0.8c0.2,0,0.4,0.1,0.4,0.4c0,0.2-0.1,0.4-0.4,0.4
				C387.9,635.1,385.8,635.4,383.7,635.6C383.7,635.6,383.7,635.6,383.7,635.6z M396.5,634.2c-0.2,0-0.4-0.2-0.4-0.4
				c0-0.2,0.1-0.4,0.4-0.4c2.2-0.2,4.4-0.4,6.4-0.6c0.2,0,0.4,0.1,0.4,0.4c0,0.2-0.1,0.4-0.4,0.4C400.9,633.7,398.8,634,396.5,634.2
				C396.5,634.2,396.5,634.2,396.5,634.2z M409.4,632.9c-0.2,0-0.4-0.1-0.4-0.3c0-0.2,0.1-0.4,0.3-0.5c2.1-0.4,4.1-1,6.1-1.9
				c0.2-0.1,0.4,0,0.5,0.2c0.1,0.2,0,0.4-0.2,0.5C413.7,631.8,411.6,632.5,409.4,632.9C409.4,632.9,409.4,632.9,409.4,632.9z
				 M421,627.6c-0.1,0-0.2-0.1-0.3-0.2c-0.1-0.2-0.1-0.4,0.1-0.6c1.7-1.3,3.1-2.8,4.4-4.5c0.1-0.2,0.4-0.2,0.6-0.1
				c0.2,0.1,0.2,0.4,0.1,0.6c-1.3,1.7-2.9,3.3-4.6,4.7C421.2,627.6,421.1,627.6,421,627.6z M428.8,617.4c-0.1,0-0.1,0-0.2,0
				c-0.2-0.1-0.3-0.3-0.2-0.5c0.9-2,1.9-3.9,3-5.8c0.1-0.2,0.4-0.3,0.6-0.1c0.2,0.1,0.3,0.4,0.1,0.6c-1.1,1.9-2.1,3.8-3,5.7
				C429.1,617.4,429,617.4,428.8,617.4z M435.3,606.2c-0.1,0-0.2,0-0.2-0.1c-0.2-0.1-0.2-0.4-0.1-0.6c1.2-1.8,2.5-3.5,3.9-5.2
				c0.1-0.2,0.4-0.2,0.6-0.1c0.2,0.1,0.2,0.4,0.1,0.6c-1.4,1.7-2.7,3.4-3.9,5.1C435.5,606.2,435.4,606.2,435.3,606.2z M443.5,596.3
				c-0.1,0-0.2,0-0.3-0.1c-0.2-0.2-0.2-0.4,0-0.6c1.5-1.5,3.1-3,4.7-4.5c0.2-0.1,0.4-0.1,0.6,0c0.1,0.2,0.1,0.4,0,0.6
				c-1.6,1.4-3.2,2.9-4.7,4.4C443.7,596.3,443.6,596.3,443.5,596.3z M453.2,587.8c-0.1,0-0.2-0.1-0.3-0.2c-0.1-0.2-0.1-0.4,0.1-0.6
				c1.8-1.3,3.6-2.6,5.3-3.7c0.2-0.1,0.4-0.1,0.6,0.1c0.1,0.2,0.1,0.4-0.1,0.6c-1.8,1.1-3.6,2.4-5.3,3.7
				C453.4,587.7,453.3,587.8,453.2,587.8z"/>
		</g>
		<g class="st13">
			<circle class="st2" cx="596.4" cy="618.2" r="5.4"/>
		</g>
		<g class="st13">
			
				<ellipse transform="matrix(0.2298 -0.9732 0.9732 0.2298 -206.2992 1133.4241)" class="st2" cx="612.9" cy="697" rx="5.4" ry="5.4"/>
		</g>
		<g class="st13">
			<circle class="st2" cx="691.8" cy="687.4" r="5.4"/>
		</g>
		<g class="st13">
			<circle class="st2" cx="412.1" cy="703.8" r="5.4"/>
		</g>
		<g class="st13">
			<circle class="st2" cx="625.9" cy="781.3" r="5.4"/>
		</g>
		<g class="st13">
			<circle class="st2" cx="636.2" cy="860" r="5.4"/>
		</g>
		<g class="st13">
			<circle class="st2" cx="652.6" cy="952.4" r="5.4"/>
		</g>
		<g class="st13">
			<path class="st2" d="M502.7,609.9C502.7,609.9,502.7,609.9,502.7,609.9l-7.1-0.9c-0.3,0-0.5-0.3-0.5-0.6c0-0.3,0.3-0.5,0.6-0.5
				l7.1,0.9c0.3,0,0.5,0.3,0.5,0.6C503.2,609.7,503,609.9,502.7,609.9z"/>
		</g>
		<g class="st13">
			<path class="st2" d="M494.5,697.3C494.5,697.3,494.5,697.3,494.5,697.3l-7.1-0.9c-0.3,0-0.5-0.3-0.5-0.6c0-0.3,0.3-0.5,0.6-0.5
				l7.1,0.9c0.3,0,0.5,0.3,0.5,0.6C495,697.1,494.8,697.3,494.5,697.3z"/>
		</g>
		<g class="st13">
			<path class="st2" d="M492.2,786.8C492.2,786.8,492.2,786.8,492.2,786.8l-7.1-0.3c-0.3,0-0.5-0.3-0.5-0.6c0-0.3,0.3-0.5,0.6-0.5
				l7.1,0.3c0.3,0,0.5,0.3,0.5,0.6C492.7,786.6,492.5,786.8,492.2,786.8z"/>
		</g>
		<g class="st13">
			<path class="st2" d="M490.2,872.7C490.2,872.7,490.2,872.7,490.2,872.7l-7.1-0.3c-0.3,0-0.5-0.3-0.5-0.6c0-0.3,0.3-0.5,0.6-0.5
				l7.1,0.3c0.3,0,0.5,0.3,0.5,0.6C490.7,872.4,490.5,872.7,490.2,872.7z"/>
		</g>
		<g class="st13">
			<path class="st2" d="M488.3,958.9C488.3,958.9,488.3,958.9,488.3,958.9l-7.1-0.3c-0.3,0-0.5-0.3-0.5-0.6c0-0.3,0.3-0.5,0.6-0.5
				l7.1,0.3c0.3,0,0.5,0.3,0.5,0.6C488.8,958.7,488.6,958.9,488.3,958.9z"/>
		</g>
		<g>
			<path class="st14" d="M501,737.3c0.8,5.3,1.9,10.5,3,15.8c1.1,5.2,2.3,10.4,3.6,15.6c2.6,10.4,5.5,20.7,8.7,30.9
				c1.6,5.1,3.3,10.2,5.1,15.2c0.9,2.5,1.8,5,2.7,7.5c1,2.5,1.9,5,2.9,7.5c4,9.9,8.5,19.6,13.3,29.1c9.8,19,21.4,37.1,35,53.5
				c6.8,8.2,14.2,16,22.1,23.1c4,3.6,8.1,7,12.3,10.2c4.3,3.2,8.6,6.3,13.1,9.2l0,0.1c-4.5-2.8-9-5.7-13.3-8.9
				c-4.3-3.2-8.5-6.5-12.5-10.1c-4-3.6-7.9-7.2-11.6-11.1c-1-0.9-1.9-1.9-2.8-2.9c-0.9-1-1.8-2-2.7-3l-2.7-3l-2.6-3.1
				c-13.8-16.4-25.2-34.7-34.8-53.8c-2.4-4.8-4.7-9.6-6.9-14.5c-2.2-4.9-4.3-9.8-6.3-14.8c-4-9.9-7.8-19.9-11.1-30.1
				c-3.3-10.2-6.2-20.5-8.7-30.9C504.5,758.4,502.4,747.9,501,737.3L501,737.3z"/>
		</g>
		<g>
			<path class="st14" d="M539.9,734.3c2.7,5.7,5.7,11.3,8.7,16.9c3,5.5,6.1,11.1,9.4,16.5l2.4,4.1c0.8,1.4,1.6,2.7,2.5,4.1
				c1.7,2.7,3.3,5.4,5,8l5.2,7.9c0.8,1.3,1.8,2.6,2.7,3.9l2.7,3.9l2.7,3.9l2.8,3.9l2.8,3.9c0.9,1.3,1.8,2.6,2.8,3.8
				c3.8,5,7.6,10.1,11.6,15l3,3.7c1,1.2,2,2.5,3,3.7l6.1,7.2l1.5,1.8c0.5,0.6,1,1.2,1.6,1.8l3.2,3.5l6.3,7.1l-6.5-6.9l-3.2-3.5
				c-0.5-0.6-1.1-1.2-1.6-1.8l-1.6-1.8l-6.2-7.2c-1.1-1.2-2-2.4-3-3.6l-3-3.7c-4.1-4.8-7.8-10-11.7-15c-1-1.2-1.9-2.6-2.8-3.8
				l-2.8-3.8l-2.8-3.8l-2.7-3.9c-7.2-10.4-14-21.1-20.3-32.1c-3.2-5.5-6.2-11-9.2-16.6C545.3,745.8,542.5,740.1,539.9,734.3z"/>
		</g>
		<g>
			<path class="st14" d="M504.8,582.8c3.1,1.2,6.2,2.1,9.4,2.9c3.2,0.8,6.4,1.4,9.7,1.8c6.5,0.9,13.1,1.1,19.6,0.6
				c6.5-0.4,13-1.6,19.3-3.4c1.6-0.5,3.1-0.9,4.7-1.5l2.3-0.8l2.3-0.9c1.5-0.6,3-1.3,4.5-1.9c0.8-0.3,1.5-0.7,2.2-1.1l2.2-1.1
				c-1.4,0.8-2.9,1.6-4.4,2.3c-1.5,0.7-2.9,1.5-4.5,2.1l-2.3,1l-2.3,0.9c-1.5,0.6-3.1,1.1-4.7,1.6c-3.2,0.9-6.4,1.8-9.6,2.3
				c-3.2,0.6-6.5,1.1-9.8,1.3c-6.6,0.5-13.2,0.2-19.7-0.8C517.3,587.1,510.8,585.5,504.8,582.8z"/>
		</g>
		<g>
			<path class="st5" d="M303.5,832.1c0,0-13.5-5.3-35.4-23.5c-21.9-18.2-40.7-21.8-40.7-21.8s-26.1,10.4-59.7,6.7l-21.3,2.7
				c-1.4,0.2-2.8,0-4.1-0.4l-13.1-4.3c-0.7-0.2-1.5-0.4-2.2-0.6l-19.1-3.9c-1-0.2-1.4-1.3-0.9-2.1l0,0c0,0-13.2-3.8-26.1-2
				c-5.6,0.8-4.5-6.7-1.1-8.5l0,0c-1.9-0.2-3-2.3-2-4c1.6-2.6,6.1-5.5,18.2-4l22.6-1.3l-20.5-4.1c0,0-12.1-1.9-22.3-2.6
				c-5-0.3-6.2-7.2-1.6-9.1c4.6-1.9,11.9-2.9,23.4-1l23.8-0.1l20.2,0.6c0,0,9.1-1.9,18.7-2.1c5.6-0.1,11-2.4,15-6.3l5.7-5.6
				c0,0-3.4-2.5-16.9-5c-17.3-3.2-26.9-15.6-17.6-21.1c9.3-5.5,34.1,9.5,34.1,9.5l19.5,3c0,0,27.5-1.8,33,16
				c0,0,30.8,25.4,56.6,29.1C289.7,766.4,317.9,787.9,303.5,832.1z"/>
		</g>
		<g>
			<path class="st5" d="M859.6,719.3c0,0-24.4,22.4-17.4,64.4c0,0,14,2.8,30.8-16.6c18.5-21.3,48.1-37.8,48.1-37.8
				s14.5-6.1,44.6-7.2c2.6-0.1,5.1-0.5,7.6-1.1c4.9-1.3,13.4-3.6,19.1-4.9c2.8-0.7,5.4-1.6,8-3c2.9-1.5,7.1-3.6,10.8-5
				c3.3-1.2,6.4-3,9.1-5.1c7.6-6,23.8-17.3,43.1-22.4c2.6-0.7,4-3.4,3.2-5.9c-1.1-3.3-3.8-5.1-11.7-4.2l3.9-1.5
				c2.9-1.1,3.3-5.2,0.7-6.8c-4.1-2.5-11.7-3.7-25.3,3.4l-21.1,7l-16.9,6.7c-10.4-0.1-21.7,5.1-21.7,5.1s-8.1,0.6-13.1-5.8
				c0,0,6.3-4.4,11.9-7c10.5-4.7,19-17.4,14.7-23.1c-4.3-5.7-17.8,1.8-26.2,10.1c-4.7,4.7-9.8,12.3-23.7,12.2
				c-14.7-0.1-26.9,2.5-31.7,15.9C906.3,686.8,890.4,709.4,859.6,719.3z"/>
		</g>
		<g>
			<path class="st6" d="M1013.8,706.1c1-1.4,2.1-2.8,3.3-4.2c1.1-1.3,2.4-2.6,3.6-3.8c0.6-0.6,1.3-1.2,2-1.8
				c0.7-0.6,1.3-1.1,1.7-1.8c0.4-0.7,0.5-1.6,0.4-2.4c-0.1-0.8-0.6-1.6-1.2-2.1c-0.6-0.6-1.5-0.8-2.4-0.9c-0.9-0.1-1.7,0-2.6,0.2
				c-1.7,0.4-3.3,1.2-4.7,2.1c-1.5,0.9-2.8,2.1-4.1,3.2c-1.3,1.2-2.4,2.5-3.6,3.8l-0.1,0.1l-0.2,0c-2.6,0.4-5.2,1-7.8,1.7
				c-1.3,0.4-2.5,0.8-3.8,1.2c-1.2,0.5-2.5,1-3.7,1.6l0-0.1c1.1-0.7,2.3-1.4,3.5-1.9c1.2-0.5,2.5-1.1,3.8-1.5
				c1.3-0.4,2.6-0.8,3.9-1.1c1.3-0.3,2.6-0.6,4-0.8l-0.3,0.1c2.4-2.6,4.9-5.1,8-6.9c1.5-0.9,3.2-1.6,5-1.9c0.9-0.2,1.8-0.2,2.7-0.1
				c0.4,0.1,0.9,0.1,1.3,0.2c0.2,0.1,0.4,0.2,0.6,0.3c0.2,0.1,0.4,0.2,0.6,0.4c0.7,0.6,1.3,1.4,1.5,2.3c0.2,0.9,0.1,1.9-0.3,2.7
				c-0.2,0.4-0.5,0.8-0.8,1.2c-0.3,0.4-0.7,0.6-1,0.9c-0.7,0.6-1.3,1.2-1.9,1.8C1018.6,701,1016.2,703.5,1013.8,706.1L1013.8,706.1z
				"/>
		</g>
		<g>
			<path class="st6" d="M1048.4,671.5c-1-0.1-2.1-0.1-3.1,0.1c-1,0.1-2,0.4-3,0.7c-2,0.7-3.8,1.6-5.6,2.6c-0.9,0.5-1.8,1-2.7,1.6
				c-0.9,0.6-1.8,1.1-2.6,1.7c-0.9,0.6-1.7,1.2-2.5,1.9c-0.8,0.7-1.6,1.4-2.4,2.1l0,0l0,0c-2.6,1.5-5.2,3.1-7.8,4.6
				c-2.6,1.5-5.2,3-7.9,4.4l-0.1,0l-0.1,0c-2,0.3-4,0.6-6,0.9c-2,0.3-4,0.7-6,1.1l0-0.1c1.9-0.7,3.9-1.2,5.9-1.6c1-0.2,2-0.4,3-0.6
				c1-0.2,2-0.4,3-0.5l-0.1,0c2.6-1.5,5.3-2.9,7.9-4.3c2.6-1.4,5.3-2.8,8-4.2l0,0c1.6-1.4,3.2-2.7,4.8-4c1.6-1.3,3.3-2.6,5.1-3.7
				c1.8-1.1,3.8-2,5.8-2.6C1044.2,671.2,1046.4,671,1048.4,671.5L1048.4,671.5z"/>
		</g>
		<g>
			<path class="st6" d="M1048.4,671.4c0.8,0.1,1.5,0.4,2.2,0.8c0.6,0.5,1.1,1.2,1.4,1.9c0.6,1.5,0.3,3.4-0.8,4.6
				c-0.1,0.1-0.3,0.3-0.4,0.4l-0.5,0.4l-1,0.6c-0.6,0.4-1.3,0.8-1.8,1.3c-1.2,0.9-2.2,2-3.2,3.2c-0.5,0.6-0.9,1.2-1.4,1.8
				c-0.2,0.3-0.4,0.6-0.7,0.9c-0.2,0.3-0.5,0.6-0.8,0.9c-0.3,0.3-0.6,0.5-0.9,0.8l-0.9,0.7c-0.6,0.5-1.2,0.9-1.8,1.3
				c-2.5,1.7-5,3.4-7.6,5l0-0.1c2.3-2,4.7-3.8,7.1-5.6c0.6-0.4,1.2-0.9,1.8-1.3l0.9-0.6c0.3-0.2,0.6-0.4,0.9-0.7
				c0.6-0.5,1-1,1.5-1.6c0.5-0.6,1-1.1,1.6-1.7c1.1-1.1,2.2-2.1,3.4-3.1c0.6-0.5,1.2-1,1.7-1.5c0.3-0.2,0.6-0.5,0.9-0.7l0.4-0.4
				c0.1-0.1,0.2-0.3,0.3-0.4c0.9-1.1,1.2-2.6,0.7-3.9C1051,673,1049.9,671.9,1048.4,671.4L1048.4,671.4z"/>
		</g>
		<g>
			<path class="st6" d="M998.1,688.8c1.1-0.1,2.2-0.3,3.2-0.6c1-0.4,2.1-0.7,3.2-1c2.2-0.6,4.3-1.2,6.5-1.7c2.2-0.5,4.4-0.9,6.6-1.3
				c2.2-0.4,4.4-0.7,6.7-0.9c-4.4,1-8.7,2-13.1,3c-2.2,0.5-4.3,1.1-6.5,1.6c-1.1,0.3-2.1,0.6-3.2,0.9
				C1000.4,689,999.2,689,998.1,688.8z"/>
		</g>
		<g>
			<path class="st6" d="M951.1,673.6c1.3-0.1,2.5,0.3,3.7,0.7c1.2,0.5,2.3,1.1,3.3,1.7c0.5,0.3,1,0.7,1.5,1.1c0.5,0.4,1,0.8,1.4,1.2
				c0.5,0.4,0.9,0.9,1.3,1.3c0.4,0.5,0.8,0.9,1.2,1.4c-0.5-0.4-1-0.7-1.5-1.1c-0.5-0.4-1-0.7-1.5-1.1c-1-0.7-2-1.5-3-2.1
				c-1-0.7-2.1-1.3-3.1-1.8C953.5,674.3,952.4,673.8,951.1,673.6z"/>
		</g>
		<g>
			<path class="st6" d="M925.4,697.7c2.6-0.3,5.2-0.4,7.9-0.4c2.6,0,5.3,0.2,7.9,0.6c2.6,0.4,5.2,0.9,7.7,1.7c2.5,0.8,5,1.8,7.2,3.2
				c-2.4-1.1-4.9-1.9-7.4-2.6c-2.5-0.6-5.1-1.1-7.7-1.5c-2.6-0.4-5.2-0.6-7.8-0.8C930.6,697.8,928,697.7,925.4,697.7z"/>
		</g>
		<g>
			<path class="st6" d="M958,702.4c2.6-0.8,5.4-1.4,8.1-1.8c2.7-0.4,5.5-0.6,8.3-0.5c0.7,0,1.4,0,2.1,0.1l2.1,0.1
				c0.7,0,1.4,0.2,2.1,0.2c0.7,0.1,1.4,0.2,2.1,0.3c2.7,0.4,5.4,1.3,8,2.3c-0.7-0.2-1.3-0.3-2-0.5l-1-0.3l-1-0.2l-2-0.4l-2-0.3
				c-2.7-0.3-5.5-0.6-8.2-0.6c-2.7,0-5.5,0.1-8.2,0.4c-1.4,0.1-2.7,0.3-4.1,0.5C960.7,701.9,959.4,702.1,958,702.4z"/>
		</g>
		<g>
			<path class="st6" d="M997.3,685.7c0.2,1.5,0.2,3,0,4.5c-0.1,0.4-0.1,0.7-0.2,1.1l-0.3,1.1c-0.2,0.7-0.4,1.5-0.7,2.2l-0.2,0.5
				l-0.3,0.5c-0.2,0.3-0.3,0.7-0.5,1c-0.4,0.6-0.8,1.3-1.3,1.9c-0.9,1.2-2,2.3-3.2,3.2c0.9-1.2,1.9-2.3,2.7-3.6
				c0.8-1.2,1.5-2.5,2-3.9c0.6-1.3,1-2.8,1.3-4.2C997,688.7,997.2,687.2,997.3,685.7z"/>
		</g>
		<g>
			<path class="st6" d="M904,703.1c-0.6,0.7-1.2,1.4-1.8,2.2c-0.3,0.4-0.5,0.8-0.8,1.2c-0.2,0.4-0.5,0.8-0.7,1.2
				c-0.9,1.6-1.5,3.4-1.8,5.2c0,0.2-0.1,0.4-0.1,0.7l-0.1,0.7c0,0.5-0.1,0.9-0.1,1.4l0,1.4c0,0.5,0.1,0.9,0.1,1.4
				c0,0.5,0.1,0.9,0.2,1.4l0.3,1.4c0.2,0.9,0.5,1.8,0.8,2.7c-0.2-0.4-0.4-0.8-0.6-1.3l-0.3-0.6c-0.1-0.2-0.2-0.4-0.3-0.7
				c-0.3-0.9-0.6-1.8-0.7-2.8c-0.4-1.9-0.3-3.8,0-5.7c0.1-0.5,0.2-1,0.3-1.4c0.1-0.5,0.3-0.9,0.4-1.4l0.6-1.3
				c0.2-0.4,0.5-0.8,0.7-1.3C901.3,705.8,902.5,704.3,904,703.1z"/>
		</g>
		<g>
			<path class="st6" d="M1059.4,670.4c-1.8,0.3-3.6,0.5-5.5,0.7c-1.8,0.2-3.6,0.4-5.5,0.5c1.8-0.5,3.6-0.8,5.4-1
				C1055.7,670.3,1057.5,670.2,1059.4,670.4z"/>
		</g>
		<g>
			<path class="st6" d="M106.9,785c0.1-0.6,0.4-1.1,0.6-1.6c0.3-0.5,0.6-1,1-1.4c0.8-0.9,1.8-1.5,2.8-2.1c0.5-0.2,1.1-0.5,1.6-0.7
				c0.6-0.2,1.1-0.3,1.7-0.5l1.7-0.3c0.6-0.1,1.2-0.1,1.7-0.1c0.6,0,1.2,0,1.7,0.1c0.6,0,1.2,0.1,1.7,0.1l1.7,0.3
				c0.6,0.1,1.1,0.2,1.7,0.3c2.3,0.4,4.5,1,6.8,1.1c1.1,0.1,2.3,0,3.4,0l3.4,0c1.1,0,2.3,0,3.4,0c1.1-0.1,2.3-0.2,3.4-0.3
				c1.1-0.2,2.2-0.4,3.3-0.7c1.1-0.3,2.3-0.5,3.4-0.7c2.3-0.4,4.6-0.7,6.9-0.8l0,0.1c-2.3,0.3-4.5,0.8-6.7,1.3
				c-1.1,0.3-2.2,0.5-3.3,0.8c-1.1,0.3-2.3,0.6-3.4,0.8c-1.2,0.2-2.3,0.3-3.5,0.3c-1.2,0-2.3,0-3.5,0l-3.4-0.1
				c-1.1,0-2.3-0.1-3.5-0.2c-2.3-0.2-4.5-0.9-6.8-1.3c-0.6-0.1-1.1-0.2-1.7-0.2l-1.7-0.1c-0.6,0-1.1,0-1.7,0c-0.6,0-1.1,0-1.7,0
				c-2.3,0.1-4.5,0.5-6.6,1.4c-1,0.5-2,1-2.8,1.8C108.1,783,107.4,783.9,106.9,785L106.9,785z"/>
		</g>
		<g>
			<path class="st6" d="M79.8,774.5c0.6-0.4,1.2-0.8,1.8-1.1l1-0.5l1-0.4c1.3-0.5,2.7-0.9,4.1-1.2c2.8-0.6,5.6-0.9,8.5-0.8
				c2.8,0.1,5.7,0.5,8.4,1c0.7,0.1,1.4,0.3,2.1,0.4l2.1,0.4c1.4,0.3,2.8,0.5,4.2,0.7c2.8,0.3,5.6,0.5,8.4,0.6
				c1.4,0.1,2.8,0.1,4.2,0.2c1.4,0,2.8,0,4.1-0.2c5.5-0.9,11.2-1.5,16.9-1.2l0,0.1c-5.6,0.2-11.2,1-16.8,2c-1.4,0.2-2.9,0.3-4.3,0.2
				c-1.4-0.1-2.8-0.2-4.2-0.3c-2.8-0.2-5.6-0.5-8.4-0.9c-1.4-0.2-2.8-0.5-4.2-0.8c-1.4-0.3-2.7-0.7-4.1-0.9l-2.1-0.3
				c-0.7-0.1-1.4-0.1-2.1-0.2c-1.4-0.1-2.8-0.1-4.2-0.1c-2.8,0-5.6,0.3-8.3,0.8c-1.4,0.3-2.7,0.6-4.1,1
				C82.3,773.3,81,773.9,79.8,774.5L79.8,774.5z"/>
		</g>
		<g>
			<path class="st6" d="M216,758.4c-2.1,1.1-4.2,2.2-6.3,3.2c-2.1,1-4.3,2-6.5,2.9c-4.4,1.9-8.8,3.6-13.3,5c-1.1,0.3-2.3,0.7-3.4,1
				l-1.7,0.4c-0.6,0.1-1.2,0.2-1.7,0.4c-1.2,0.3-2.3,0.4-3.5,0.6c-1.2,0.2-2.3,0.3-3.5,0.4c-2.3,0.3-4.7,0.7-6.9,1.3
				c-1.1,0.3-2.3,0.6-3.4,1c-0.6,0.2-1.1,0.4-1.6,0.7c-0.5,0.2-1.1,0.5-1.5,0.9c0.9-0.8,2-1.3,3.1-1.8c1.1-0.5,2.2-0.9,3.4-1.2
				c2.3-0.7,4.6-1.1,7-1.5c1.2-0.2,2.4-0.3,3.5-0.5c1.2-0.2,2.3-0.3,3.5-0.6c0.6-0.1,1.1-0.2,1.7-0.4l1.7-0.5c1.1-0.3,2.3-0.7,3.4-1
				c4.5-1.4,8.9-3.1,13.3-4.8c2.2-0.9,4.4-1.8,6.6-2.7C211.7,760.3,213.9,759.3,216,758.4z"/>
		</g>
		<g>
			<path class="st6" d="M176.6,739.3c0.8-1.2,1.8-2.2,2.8-3.2c1-1,2.1-1.9,3.3-2.7c1.2-0.8,2.4-1.5,3.7-2.1c1.3-0.5,2.7-0.9,4.1-1
				c-1.4,0.4-2.6,1-3.9,1.6c-1.2,0.7-2.4,1.4-3.6,2.2c-1.1,0.8-2.2,1.7-3.3,2.5C178.7,737.4,177.7,738.3,176.6,739.3z"/>
		</g>
		<g>
			<path class="st6" d="M239.4,758.7c0.4,1,0.7,2,0.9,3c0.2,1,0.3,2.1,0.3,3.2c0,2.1-0.3,4.2-1,6.3c-0.2,0.5-0.4,1-0.6,1.5l-0.3,0.7
				l-0.4,0.7c-0.3,0.5-0.5,0.9-0.8,1.4l-0.9,1.3l-0.5,0.6l-0.5,0.6l-1.1,1.2c-0.4,0.4-0.8,0.7-1.2,1.1c-0.4,0.4-0.8,0.7-1.2,1
				c0.7-0.8,1.4-1.6,2-2.4l0.9-1.2l0.5-0.6l0.4-0.7l0.8-1.3c0.3-0.4,0.5-0.9,0.7-1.4l0.4-0.7l0.3-0.7c0.2-0.5,0.4-0.9,0.6-1.4
				l0.5-1.5c0.1-0.5,0.2-1,0.3-1.5c0.2-1,0.3-2,0.4-3.1C240,762.8,239.9,760.7,239.4,758.7z"/>
		</g>
		<g>
			<path class="st6" d="M116.2,765.4c3.9-0.6,7.9-0.9,11.9-1.1c4-0.1,8-0.1,11.9,0.3l-5.9,0.2l-5.9,0.2
				C124.1,765.2,120.1,765.4,116.2,765.4z"/>
		</g>
		<g>
			<path class="st6" d="M140.7,762.8c0.8,1.5,1.8,3,2.8,4.4c1,1.4,2,2.8,3.2,4.1c1.1,1.3,2.3,2.6,3.6,3.7c1.3,1.2,2.6,2.2,4,3.3
				c-1.6-0.8-3.1-1.7-4.4-2.8c-0.7-0.5-1.3-1.1-2-1.7c-0.6-0.6-1.3-1.3-1.8-1.9c-1.2-1.3-2.2-2.8-3.1-4.3
				C142.1,766.1,141.3,764.5,140.7,762.8z"/>
		</g>
		<g class="st13">
			<path class="st2" d="M525.3,668c-0.2-0.2-0.3-0.5-0.4-0.7c-0.1-0.3-0.1-0.6-0.1-0.9c0-0.2,0.1-0.5,0.2-0.9
				c0.1-0.4,0.2-0.7,0.4-1.1c0.2-0.4,0.3-0.8,0.5-1.2c0.2-0.4,0.4-0.8,0.6-1.2c0.2-0.4,0.4-0.7,0.5-1c0.2-0.3,0.3-0.5,0.4-0.7
				c-0.1,0-0.2-0.1-0.3-0.3c-0.1-0.1-0.3-0.3-0.5-0.5c0.3-0.3,0.6-0.7,0.9-1.1c0.3-0.4,0.5-0.8,0.7-1.1c0.2-0.4,0.4-0.7,0.5-1.1
				c0.1-0.4,0.2-0.7,0.2-1c0-0.1,0-0.3-0.1-0.5c-0.1-0.2-0.2-0.4-0.3-0.6c-0.1-0.2-0.3-0.4-0.5-0.6c-0.2-0.2-0.4-0.4-0.6-0.5
				c-0.2-0.2-0.4-0.3-0.6-0.4c-0.2-0.1-0.4-0.2-0.6-0.2c-0.5,0-1.1,0.1-1.6,0.3c-0.6,0.2-1.1,0.4-1.6,0.8c-0.5,0.3-1.1,0.7-1.6,1.2
				c-0.5,0.5-1,1-1.5,1.5c-0.5,0.6-0.9,1.1-1.4,1.7c-0.4,0.6-0.8,1.2-1.2,1.8c-0.4,0.6-0.7,1.2-0.9,1.8c-0.3,0.6-0.5,1.2-0.6,1.7
				c0,0.1,0,0.2-0.1,0.3c0,0.1,0,0.2,0,0.4c0,0.1,0,0.2,0,0.4c0,0.1,0,0.2,0,0.3c0,0.2,0.1,0.5,0.1,0.7c0.1,0.3,0.2,0.5,0.4,0.8
				c0.1,0.3,0.3,0.5,0.5,0.8c0.2,0.3,0.4,0.5,0.6,0.7c0.2,0.2,0.4,0.4,0.7,0.5c0.2,0.1,0.5,0.2,0.7,0.2c0.4,0,0.8,0,1.2-0.2
				c0.4-0.1,0.8-0.3,1.3-0.5c0.4-0.2,0.8-0.5,1.2-0.8c0.4-0.3,0.8-0.6,1.1-0.9c0,0.4,0.1,0.8,0.3,1.1c0.1,0.3,0.3,0.6,0.5,0.8
				c0.2,0.2,0.4,0.4,0.6,0.6c0.2,0.2,0.5,0.3,0.7,0.4c0.2,0.1,0.4,0.2,0.6,0.2c0.2,0,0.3,0.1,0.4,0.1c0.2-0.2,0.3-0.4,0.5-0.6
				c-0.4,0-0.7-0.1-0.9-0.3C525.7,668.4,525.5,668.2,525.3,668z M523.2,662.6c-0.4,0.6-0.8,1.1-1.2,1.5c-0.4,0.5-0.8,0.9-1.2,1.2
				c-0.4,0.4-0.8,0.7-1.1,0.9c-0.3,0.2-0.6,0.4-0.9,0.5c-0.3,0.1-0.4,0.2-0.6,0.2c-0.4,0-0.6-0.3-0.6-0.8c0-0.5,0.1-1,0.3-1.7
				c0.2-0.6,0.5-1.3,0.8-2c0.3-0.7,0.7-1.4,1.1-2.1c0.4-0.7,0.9-1.4,1.4-2.1c0.5-0.7,1-1.3,1.5-1.9c0.5-0.6,1-1.1,1.5-1.5
				c0.5-0.4,1-0.8,1.4-1c0.5-0.3,0.9-0.4,1.2-0.4c0.1,0,0.2,0.1,0.3,0.2c0.1,0.1,0.1,0.3,0.1,0.6c0,0.4-0.1,0.9-0.3,1.3
				c-0.2,0.4-0.4,0.8-0.6,1.1c-0.3,0.4-0.5,0.7-0.9,1c-0.3,0.3-0.6,0.6-0.9,0.8c-0.3,0.2-0.6,0.5-0.8,0.6c-0.2,0.2-0.4,0.3-0.5,0.4
				c0.4,0.4,0.8,0.8,1.1,1.2C524,661.4,523.6,662,523.2,662.6z"/>
			<path class="st2" d="M583.7,658.8c-0.2,0.4-0.5,0.7-0.7,1.1c-0.3,0.4-0.5,0.7-0.8,1c-0.3,0.3-0.6,0.6-1,0.8
				c-0.3,0.2-0.7,0.4-1.2,0.5c-0.2,0.1-0.4,0.1-0.5,0c-0.1,0-0.2-0.2-0.2-0.4c0-0.1-0.1-0.3-0.1-0.4c0.5-0.4,1-0.7,1.4-1.1
				c0.4-0.3,0.8-0.7,1-1c0.3-0.3,0.5-0.6,0.6-0.8c0.1-0.3,0.2-0.5,0.1-0.7c0-0.1-0.1-0.3-0.3-0.4c-0.1-0.2-0.3-0.3-0.5-0.4
				c-0.2-0.1-0.4-0.2-0.6-0.3c-0.2-0.1-0.4-0.1-0.6,0c-0.3,0.1-0.6,0.2-0.9,0.3c-0.3,0.2-0.6,0.4-0.9,0.6c-0.3,0.2-0.6,0.5-0.8,0.9
				c-0.2,0.3-0.4,0.7-0.6,1.1c-0.2,0.4-0.3,0.8-0.3,1.3c0,0.1,0,0.3,0,0.4c0,0,0,0,0,0c-0.2,0.2-0.3,0.4-0.5,0.6
				c-0.2,0.2-0.3,0.4-0.5,0.5c-0.2,0.2-0.3,0.3-0.4,0.4c-0.1,0.1-0.2,0.2-0.3,0.2c0,0-0.1,0-0.1,0c0-0.1,0-0.3,0-0.5
				c0-0.3,0.1-0.5,0.1-0.9c0.1-0.3,0.1-0.6,0.2-1c0.1-0.3,0.1-0.6,0.1-0.9c0-0.1,0-0.1,0-0.2c0-0.1-0.1-0.1-0.2-0.2
				c-0.3-0.1-0.5-0.2-0.8-0.3c-0.2-0.1-0.5-0.2-0.8-0.3c-0.3-0.1-0.6-0.2-0.8-0.3c0-0.1-0.1-0.3-0.1-0.4c0-0.1,0-0.2-0.1-0.2
				c0,0-0.1-0.1-0.2-0.1c-0.1,0-0.2-0.1-0.3-0.1c-0.1,0-0.2,0-0.3-0.1c-0.1,0-0.1,0-0.1,0c0,0-0.1,0.1-0.1,0.1
				c-0.1,0.1-0.1,0.2-0.2,0.3c-0.1,0.1-0.1,0.3-0.2,0.5c-0.1,0.2-0.1,0.3-0.2,0.5c-0.1,0.2-0.1,0.3-0.1,0.4c0,0.1,0,0.2,0,0.3
				c0,0.1,0,0.1,0.1,0.1c0.1,0,0.2,0.1,0.3,0.2c0.1,0.1,0.2,0.1,0.4,0.2c0.1,0.1,0.3,0.1,0.5,0.2c-0.2,0.3-0.4,0.5-0.6,0.8
				c-0.1,0.2-0.2,0.3-0.3,0.4c0,0,0,0,0,0c-0.1,0.1-0.2,0.2-0.3,0.3c-0.1,0.2-0.3,0.3-0.4,0.5c-0.2,0.2-0.3,0.4-0.5,0.6
				c-0.2,0.2-0.4,0.4-0.5,0.5c-0.2,0.2-0.3,0.3-0.5,0.4c-0.1,0.1-0.2,0.2-0.3,0.2c0,0-0.1,0-0.1,0c0-0.1,0-0.2,0-0.4
				c0-0.2,0-0.4,0.1-0.6c0-0.2,0.1-0.5,0.1-0.7c0-0.3,0.1-0.5,0.1-0.8c0-0.3,0.1-0.5,0.1-0.8c0-0.2,0.1-0.5,0.1-0.6c0,0,0-0.1,0-0.1
				c0,0,0-0.1,0-0.1c0,0-0.1-0.1-0.3-0.2c-0.2-0.1-0.3-0.2-0.5-0.3c-0.2-0.1-0.4-0.2-0.5-0.2c-0.2-0.1-0.3-0.1-0.3-0.1
				c-0.1,0-0.1,0-0.1,0.1c0,0.3-0.1,0.5-0.1,0.8c-0.2,0.7-0.5,1.3-0.7,1.8c-0.2,0.5-0.5,0.9-0.7,1.2c-0.2,0.3-0.4,0.6-0.6,0.7
				c-0.2,0.2-0.3,0.2-0.3,0.3c0,0,0,0,0,0c0-0.1,0-0.2,0-0.5c0-0.2,0.1-0.4,0.1-0.7c0.1-0.3,0.1-0.5,0.2-0.8
				c0.1-0.3,0.2-0.5,0.2-0.8c0.1-0.2,0.1-0.5,0.2-0.6c0.1-0.2,0.1-0.3,0.1-0.3c0,0-0.1-0.1-0.3-0.1c-0.2-0.1-0.4-0.1-0.6-0.2
				c-0.2-0.1-0.4-0.1-0.7-0.2c-0.2,0-0.4-0.1-0.5-0.1c0,0,0,0-0.1,0c0,0,0,0,0,0c-0.2,0.6-0.3,1.3-0.4,1.8c-0.1,0.5-0.2,1-0.3,1.4
				c0,0-0.1,0.1-0.1,0.1c-0.1,0.1-0.3,0.3-0.4,0.5c-0.2,0.2-0.3,0.3-0.5,0.5c-0.2,0.2-0.4,0.3-0.5,0.5c-0.2,0.1-0.3,0.3-0.4,0.4
				c-0.1,0.1-0.2,0.2-0.3,0.2c0,0-0.1,0-0.1,0c0-0.3,0-0.6,0-1.1c0-0.4,0.1-0.9,0.2-1.4c0.1-0.5,0.2-1.1,0.4-1.7
				c0.1-0.6,0.3-1.2,0.4-1.7c0.6-0.1,1.3-0.2,1.9-0.3c0.1,0,0.1,0,0.1,0c0,0,0.1,0,0.1,0c0.1-0.1,0.1-0.2,0.2-0.3
				c0.1-0.1,0.1-0.2,0.2-0.3c0.1-0.1,0.1-0.2,0.1-0.3c0-0.1,0-0.1-0.1-0.1c-0.8,0.1-1.5,0.3-2.3,0.4c0.1-0.5,0.3-0.9,0.4-1.4
				c0.1-0.4,0.2-0.8,0.3-1.1c0.1-0.3,0.2-0.6,0.3-0.8c0.1-0.2,0.1-0.4,0.1-0.4c0,0,0,0,0,0c0,0,0,0,0,0c0,0,0,0-0.1,0
				c-0.1,0-0.2,0-0.3,0.1c-0.2,0.1-0.3,0.2-0.5,0.2c-0.2,0.1-0.4,0.2-0.6,0.3c-0.2,0.1-0.3,0.2-0.5,0.3c-0.2,0.1-0.3,0.2-0.4,0.3
				c-0.1,0.1-0.2,0.2-0.2,0.3c-0.1,0.1-0.1,0.2-0.1,0.3c0,0.1,0,0.2-0.1,0.2c-0.1,0.3-0.2,0.6-0.3,1c-0.1,0.4-0.2,0.8-0.4,1.2
				c-0.4,0.1-0.8,0.1-1.2,0.2c0,0-0.1,0.1-0.1,0.1c0,0.1-0.1,0.2-0.1,0.2c0,0.1-0.1,0.2-0.1,0.2c0,0.1,0,0.1,0,0.2c0,0,0,0,0,0
				c0,0,0,0,0,0c0.5-0.1,0.9-0.1,1.4-0.2c-0.2,0.6-0.3,1.2-0.4,1.8c-0.1,0.6-0.3,1.2-0.4,1.8c0,0.2-0.1,0.4-0.1,0.5
				c0,0-0.1,0.1-0.1,0.1c-0.1,0.1-0.3,0.3-0.5,0.5c-0.2,0.2-0.3,0.4-0.5,0.5c-0.2,0.2-0.4,0.3-0.5,0.5c-0.2,0.2-0.3,0.3-0.5,0.4
				c-0.1,0.1-0.2,0.1-0.3,0.2c0,0-0.1,0-0.1-0.1c0-0.1,0-0.2,0-0.3c0-0.2,0.1-0.3,0.1-0.5c0-0.2,0.1-0.4,0.2-0.7
				c0.1-0.2,0.1-0.5,0.2-0.7c0.1-0.2,0.1-0.5,0.2-0.7c0.1-0.2,0.1-0.4,0.1-0.6c0,0,0-0.1,0-0.1c0,0,0-0.1,0-0.1
				c0-0.1-0.1-0.2-0.2-0.3c-0.1-0.1-0.3-0.2-0.5-0.3c-0.2-0.1-0.4-0.2-0.5-0.2c-0.2-0.1-0.3-0.1-0.4-0.1c-0.1,0-0.2,0-0.3,0.1
				c-0.1,0.1-0.3,0.2-0.5,0.4c-0.2,0.2-0.4,0.4-0.7,0.7c-0.3,0.3-0.6,0.7-1,1.2c0.1-0.2,0.1-0.4,0.2-0.7c0.1-0.2,0.1-0.4,0.2-0.6
				c-0.3-0.2-0.6-0.4-1-0.6c-0.4-0.2-0.7-0.3-1-0.4c-0.1,0.4-0.3,0.8-0.4,1.2c-0.1,0.4-0.2,0.8-0.3,1.2c-0.1,0.3-0.1,0.5-0.2,0.8
				c-0.2,0.3-0.5,0.5-0.7,0.7c-0.3,0.3-0.6,0.6-1,0.8c-0.3,0.2-0.7,0.5-1.1,0.6c-0.4,0.2-0.8,0.3-1.2,0.3c-0.2,0-0.4,0-0.5-0.1
				c-0.1-0.1-0.2-0.2-0.2-0.4c0-0.1,0-0.3,0-0.4c0.6-0.3,1.1-0.6,1.6-0.8c0.5-0.3,0.9-0.5,1.2-0.8c0.3-0.3,0.6-0.5,0.7-0.7
				c0.2-0.2,0.2-0.5,0.2-0.7c0-0.1-0.1-0.3-0.2-0.5c-0.1-0.2-0.3-0.3-0.4-0.5c-0.2-0.2-0.4-0.3-0.6-0.4c-0.2-0.1-0.4-0.1-0.6-0.1
				c-0.3,0-0.6,0.1-0.9,0.2c-0.3,0.1-0.7,0.3-1,0.5c-0.3,0.2-0.6,0.4-0.9,0.7c-0.3,0.3-0.6,0.6-0.8,1c-0.2,0.4-0.4,0.8-0.5,1.2
				c0,0.1-0.1,0.2-0.1,0.4c-0.1,0-0.1,0.1-0.2,0.1c-0.2,0.1-0.4,0.2-0.6,0.2c-0.2,0.1-0.4,0.1-0.7,0.1c-0.1,0-0.1,0-0.2,0
				c0,0-0.1,0-0.1,0c0.2-0.2,0.3-0.5,0.5-0.7c0.2-0.2,0.3-0.5,0.4-0.7c0.1-0.2,0.2-0.4,0.2-0.6c0.1-0.2,0.1-0.3,0.1-0.5
				c0-0.1-0.1-0.2-0.2-0.3c-0.1-0.1-0.2-0.2-0.4-0.3c-0.1-0.1-0.3-0.2-0.5-0.3c-0.2-0.1-0.3-0.2-0.5-0.2c-0.1,0.1-0.1,0.2-0.2,0.3
				c-0.1,0.1-0.2,0.3-0.3,0.5c-0.1,0.2-0.2,0.4-0.3,0.6c-0.1,0.2-0.2,0.4-0.2,0.6c-0.1,0.2-0.1,0.4-0.1,0.6c0,0.2,0,0.3,0,0.5
				c0,0.2,0.1,0.4,0.2,0.6c-0.1,0.2-0.3,0.3-0.4,0.5c-0.1,0.1-0.3,0.3-0.4,0.4c-0.1,0.1-0.3,0.2-0.4,0.3c-0.1,0.1-0.2,0.1-0.4,0.1
				c-0.1,0-0.1,0-0.1-0.1c0,0,0-0.1,0-0.1c0-0.1,0-0.2,0-0.4c0-0.2,0.1-0.4,0.1-0.6c0.1-0.2,0.1-0.5,0.2-0.7
				c0.1-0.3,0.1-0.5,0.2-0.8c0.1-0.3,0.2-0.5,0.3-0.8c0.1-0.2,0.2-0.5,0.3-0.7c-0.3-0.2-0.6-0.4-0.9-0.6c-0.3-0.2-0.7-0.3-1-0.5
				c-0.1,0.4-0.3,0.8-0.4,1.2c-0.1,0.4-0.3,0.8-0.4,1.2c-0.1,0.3-0.1,0.5-0.2,0.8c0,0-0.1,0.1-0.1,0.1c-0.1,0.1-0.3,0.3-0.5,0.4
				c-0.2,0.1-0.4,0.3-0.6,0.5c-0.2,0.2-0.4,0.3-0.6,0.4c-0.2,0.1-0.4,0.2-0.6,0.3c-0.2,0.1-0.3,0.1-0.5,0.1c-0.1,0-0.2-0.1-0.2-0.2
				c0-0.5,0-1,0.1-1.6c0.1-0.6,0.3-1.2,0.4-1.8c0.5-0.5,0.9-1,1.4-1.5c0.5-0.5,0.9-1,1.3-1.5c0.4-0.5,0.8-1,1.1-1.5
				c0.3-0.5,0.6-1,0.9-1.4c0.2-0.5,0.4-0.9,0.6-1.3c0.1-0.4,0.2-0.7,0.2-1c0-0.1-0.1-0.2-0.2-0.3c-0.1-0.1-0.2-0.3-0.4-0.4
				c-0.1-0.1-0.3-0.2-0.5-0.3c-0.2-0.1-0.3-0.1-0.4-0.1c-0.3,0.1-0.6,0.2-1,0.5c-0.3,0.3-0.7,0.6-1.1,1c-0.4,0.4-0.7,0.9-1.1,1.4
				c-0.4,0.5-0.7,1.1-1,1.7c-0.3,0.6-0.7,1.2-1,1.9c-0.3,0.7-0.6,1.3-0.8,2c-0.1-0.1-0.3-0.1-0.4-0.2c-0.1-0.1-0.3-0.1-0.4-0.1
				c-0.5,0.1-0.9,0.3-1.4,0.6s-0.8,0.5-1.2,0.8c-0.4,0.3-0.7,0.6-1,0.9c-0.3,0.3-0.5,0.7-0.7,1c-0.2,0.3-0.4,0.7-0.5,1
				c-0.1,0.3-0.2,0.6-0.2,0.9c0,0.1,0,0.2,0.1,0.4c0.1,0.1,0.2,0.2,0.3,0.3c0.1,0.1,0.2,0.2,0.3,0.3c0.1,0.1,0.2,0.1,0.3,0.1
				c0.1,0,0.2,0,0.3-0.1c0.3-0.1,0.7-0.2,1-0.4c0.3-0.2,0.6-0.3,0.9-0.5c0.3-0.2,0.6-0.4,0.9-0.6c0.3-0.2,0.6-0.5,0.9-0.7
				c0,0.3-0.1,0.6-0.1,0.9c0,0.1,0.1,0.3,0.2,0.5s0.3,0.3,0.4,0.5c0.2,0.2,0.3,0.3,0.5,0.4c0.2,0.1,0.3,0.2,0.5,0.2
				c0.2,0,0.5,0,0.7-0.1c0.3-0.1,0.5-0.2,0.8-0.4c0.3-0.2,0.5-0.3,0.8-0.5c0.3-0.2,0.5-0.4,0.8-0.6c0.1-0.1,0.2-0.2,0.4-0.3
				c0,0.2,0,0.4,0,0.6c0,0.2,0.1,0.3,0.2,0.5c0.1,0.2,0.3,0.3,0.5,0.4c0.2,0.1,0.4,0.2,0.6,0.3c0.2,0.1,0.3,0.1,0.4,0.1
				c0.2,0,0.4-0.1,0.6-0.2c0.2-0.1,0.5-0.2,0.7-0.4c0.2-0.2,0.5-0.3,0.7-0.5c0.2-0.2,0.5-0.4,0.7-0.6c0.2,0.1,0.5,0.1,0.7,0.1
				c0.3,0,0.5,0,0.8-0.1c0.2-0.1,0.5-0.2,0.7-0.3c0,0.1,0,0.2,0,0.3c0,0.1,0.1,0.3,0.2,0.5c0.1,0.2,0.3,0.4,0.5,0.5
				c0.2,0.2,0.4,0.3,0.7,0.4c0.2,0.1,0.4,0.2,0.6,0.2c0.4,0,0.9-0.1,1.3-0.2c0.4-0.1,0.9-0.3,1.4-0.6c0.5-0.3,1-0.6,1.5-1
				c0.2-0.2,0.4-0.4,0.7-0.6c0,0,0,0,0,0.1c0,0.3-0.1,0.5-0.1,0.7c0,0.2,0,0.3,0,0.3c0.1,0.1,0.3,0.2,0.4,0.3
				c0.2,0.1,0.3,0.2,0.5,0.3c0.2,0.1,0.3,0.2,0.5,0.2c0.2,0,0.3,0.1,0.4,0.1c0.1,0,0.2,0,0.2-0.1c0-0.1,0.1-0.1,0.1-0.2
				c0.3-0.7,0.5-1.4,0.8-1.9c0.3-0.5,0.5-1,0.8-1.4c0.3-0.4,0.5-0.7,0.7-1c0.2-0.3,0.4-0.5,0.5-0.6c0,0,0,0,0,0
				c-0.1,0.3-0.2,0.6-0.3,1c-0.1,0.3-0.2,0.7-0.3,1.1c-0.1,0.4-0.2,0.7-0.2,1c-0.1,0.3-0.1,0.6-0.1,0.9c0,0.1,0.1,0.2,0.2,0.3
				c0.1,0.1,0.2,0.2,0.4,0.3c0.2,0.1,0.3,0.2,0.5,0.2c0.2,0.1,0.3,0.1,0.4,0.1c0.2,0,0.3-0.1,0.6-0.2c0.2-0.1,0.4-0.3,0.7-0.5
				c0.2-0.2,0.5-0.4,0.7-0.6c0.3-0.2,0.5-0.5,0.7-0.7c0.1-0.1,0.1-0.2,0.2-0.2c0,0.3,0,0.5,0,0.6c0,0.1,0.1,0.2,0.2,0.4
				c0.1,0.1,0.3,0.3,0.5,0.4c0.2,0.1,0.4,0.2,0.6,0.3c0.2,0.1,0.4,0.1,0.5,0.1c0.2,0,0.3-0.1,0.5-0.2c0.2-0.1,0.4-0.3,0.7-0.5
				c0.2-0.2,0.5-0.4,0.7-0.7c0.2-0.2,0.5-0.5,0.7-0.7c0.1-0.1,0.1-0.1,0.2-0.2c0,0,0,0.1,0,0.1c0,0.3-0.1,0.6,0,0.7
				c0,0.1,0.1,0.2,0.2,0.4c0.1,0.1,0.2,0.2,0.4,0.3c0.1,0.1,0.3,0.2,0.5,0.2c0.2,0.1,0.3,0.1,0.4,0c0.1,0,0.1,0,0.2-0.1
				c0.1,0,0.1-0.1,0.2-0.1c0.1-0.1,0.2-0.2,0.4-0.3c0.2-0.2,0.3-0.4,0.5-0.6c0.2-0.2,0.4-0.5,0.7-0.9c0.2-0.3,0.5-0.7,0.7-1.1
				c0,0.4-0.1,0.7-0.1,1c0,0.3,0,0.5,0,0.6c0,0.1,0.1,0.2,0.2,0.3c0.1,0.1,0.2,0.2,0.4,0.3c0.1,0.1,0.3,0.1,0.4,0.2
				c0.1,0,0.3,0.1,0.4,0c0.2,0,0.3-0.1,0.5-0.2c0.2-0.1,0.4-0.3,0.7-0.5c0.2-0.2,0.5-0.4,0.7-0.7c0.2-0.2,0.5-0.5,0.7-0.8
				c0.2-0.3,0.4-0.5,0.6-0.7c0.1-0.1,0.2-0.3,0.3-0.4c0,0,0,0,0,0c0.1-0.1,0.2-0.2,0.3-0.4c0.1-0.1,0.2-0.3,0.3-0.4
				c0.1-0.1,0.2-0.3,0.3-0.4c0.1-0.1,0.2-0.3,0.3-0.4c0.1,0,0.2,0,0.2,0.1c0.1,0,0.2,0,0.2,0.1c0,0.1,0,0.2-0.1,0.3
				c0,0.1-0.1,0.3-0.1,0.6c0,0.2-0.1,0.5-0.1,0.8c0,0.3-0.1,0.7-0.1,1.1c0,0.1,0.1,0.2,0.2,0.3c0.1,0.1,0.3,0.2,0.4,0.3
				c0.2,0.1,0.3,0.1,0.5,0.2c0.2,0,0.3,0,0.4,0c0.2,0,0.3-0.1,0.5-0.3c0.2-0.1,0.4-0.3,0.6-0.5c0.2-0.2,0.4-0.4,0.7-0.7
				c0.2-0.2,0.3-0.4,0.5-0.6c0,0,0,0,0,0.1c0,0.1,0.1,0.3,0.3,0.5c0.2,0.2,0.4,0.3,0.6,0.5c0.2,0.1,0.5,0.2,0.7,0.3
				c0.2,0.1,0.5,0.1,0.6,0.1c0.4-0.1,0.8-0.2,1.2-0.4c0.4-0.2,0.8-0.5,1.3-0.8c0.4-0.3,0.9-0.8,1.3-1.2c0.4-0.5,0.9-1.1,1.3-1.8
				C584.1,659,583.9,658.9,583.7,658.8z M579.4,659.3c0.1-0.3,0.2-0.6,0.3-0.8c0.1-0.2,0.2-0.5,0.3-0.6c0.1-0.2,0.2-0.3,0.4-0.3
				c0.1,0,0.1,0,0.2,0c0,0,0.1,0.1,0.1,0.1c0,0.2,0,0.4,0,0.6c-0.1,0.2-0.2,0.4-0.3,0.7c-0.1,0.2-0.3,0.4-0.5,0.7
				c-0.2,0.2-0.4,0.4-0.6,0.6C579.3,660,579.4,659.6,579.4,659.3z M546.3,663.9c0.1-0.3,0.3-0.6,0.4-0.8c0.1-0.2,0.3-0.4,0.4-0.6
				c0.1-0.1,0.3-0.2,0.4-0.2c0.1,0,0.1,0,0.2,0.1c0,0,0.1,0.1,0.1,0.1c0,0.2,0,0.4-0.1,0.6c-0.1,0.2-0.2,0.4-0.4,0.6
				c-0.2,0.2-0.4,0.4-0.6,0.6c-0.2,0.2-0.5,0.4-0.7,0.5C546,664.5,546.1,664.2,546.3,663.9z M535.9,659.4c0.2-0.5,0.4-1,0.7-1.5
				c0.2-0.5,0.4-0.9,0.6-1.3c0.2-0.4,0.4-0.7,0.6-1c0.2-0.3,0.4-0.5,0.5-0.7c0.2-0.2,0.3-0.2,0.4-0.2c0,0,0.1,0,0.1,0.1
				c0,0.1,0,0.1,0,0.1c0,0.3-0.1,0.6-0.3,1.1c-0.2,0.4-0.4,0.9-0.7,1.5c-0.3,0.5-0.7,1.1-1.1,1.7c-0.4,0.6-0.9,1.2-1.4,1.8
				C535.5,660.5,535.7,659.9,535.9,659.4z M532.2,663.6c-0.1,0.3-0.2,0.6-0.2,0.9c-0.5,0.5-1,0.9-1.5,1.2c-0.4,0.3-0.8,0.4-1,0.4
				c-0.1,0-0.1-0.1-0.1-0.2c0-0.1,0.1-0.3,0.3-0.6c0.2-0.3,0.4-0.6,0.7-0.9c0.3-0.3,0.6-0.6,1-0.9c0.4-0.3,0.7-0.6,1.1-0.8
				C532.3,663,532.2,663.3,532.2,663.6z"/>
		</g>
	</g>
	<g>
		<g>
			<g>
				<circle class="st2" cx="948.8" cy="528.6" r="94.5"/>
			</g>
		</g>
		<g>
			<g>
				<g>
					<g>
						<g>
							<path class="st9" d="M1032.6,484.8l-13.7,13.7c4,9.3,6.2,19.5,6.2,30.2c0,42.1-34.2,76.3-76.3,76.3
								c-42.1,0-76.3-34.2-76.3-76.3c0-42.1,34.2-76.3,76.3-76.3c18.1,0,34.7,6.3,47.7,16.8l12.9-12.9
								c-16.4-13.8-37.6-22.1-60.7-22.1c-52.1,0-94.5,42.4-94.5,94.5c0,52.1,42.4,94.5,94.5,94.5c52.1,0,94.5-42.4,94.5-94.5
								C1043.4,512.8,1039.5,497.9,1032.6,484.8z"/>
						</g>
					</g>
				</g>
			</g>
			<g>
				<g>
					<g>
						<g>
							<polygon class="st9" points="946.6,557.8 912,523.2 924.9,510.3 946.6,532 1035.1,443.6 1048,456.4 							"/>
						</g>
					</g>
				</g>
			</g>
		</g>
	</g>
	<g>
		<g>
			<g>
				<circle class="st2" cx="131.7" cy="574.6" r="94.5"/>
			</g>
		</g>
		<g>
			<g>
				<g>
					<path class="st9" d="M140.5,480.5c-22.5-2.1-45.6,3.9-63.2,16.9l13.3,13.3c13.7-9.3,30.8-13.6,48.2-12
						c41.9,3.9,72.8,41.2,68.9,83.1c-3.9,41.9-41.2,72.8-83.1,68.9c-41.9-3.9-72.8-41.2-68.9-83.1c0.9-10,4.7-25.5,10.6-34.9
						l-12.5-12.5c-8.6,11.4-14.8,30.8-16.2,45.7c-4.9,51.9,33.4,98.1,85.3,102.9c51.9,4.9,98.1-33.4,102.9-85.3
						C230.7,531.5,192.4,485.4,140.5,480.5z"/>
				</g>
			</g>
			<g>
				<g>
					<polygon class="st9" points="87.5,606.3 100,618.8 131.6,587.1 163.4,618.8 175.8,606.3 144.1,574.7 175.8,543 163.4,530.5 
						131.6,562.2 39.6,470.5 27.1,482.9 119.2,574.7 					"/>
				</g>
			</g>
		</g>
	</g>
</g>
</svg>
