<svg width="423" height="425" viewBox="0 0 423 425" fill="none" xmlns="http://www.w3.org/2000/svg">
<path d="M350.604 424.396H314.638L300.004 409.761L300.222 14.6338L415.445 35.003C417.825 35.4235 419.941 36.7687 421.332 38.7447C422.723 40.7206 423.276 43.1668 422.869 45.5489L359.621 416.786C359.258 418.914 358.154 420.846 356.503 422.239C354.853 423.632 352.763 424.396 350.604 424.396Z" fill="#FDBF44"/>
<path d="M300.222 14.6338L300.004 409.761L314.638 424.396H329.273V19.7695L300.222 14.6338Z" fill="#E6AD3E"/>
<path d="M305.492 0H9.14647C4.09501 0 0 4.09501 0 9.14647V415.25C0 420.301 4.09501 424.396 9.14647 424.396H305.492C310.543 424.396 314.638 420.301 314.638 415.25V9.14647C314.638 4.09501 310.543 0 305.492 0Z" fill="#25B1FA"/>
<path d="M91.4647 212.198H54.8789C44.776 212.198 36.5859 220.388 36.5859 230.491V267.077C36.5859 277.18 44.776 285.37 54.8789 285.37H91.4647C101.568 285.37 109.758 277.18 109.758 267.077V230.491C109.758 220.388 101.568 212.198 91.4647 212.198Z" fill="#FCFEFF"/>
<path d="M91.4647 321.956H54.8789C44.776 321.956 36.5859 330.146 36.5859 340.249V376.835C36.5859 386.938 44.776 395.128 54.8789 395.128H91.4647C101.568 395.128 109.758 386.938 109.758 376.835V340.249C109.758 330.146 101.568 321.956 91.4647 321.956Z" fill="#FCFEFF"/>
<path d="M80.4909 270.736C79.53 270.736 78.5785 270.546 77.6907 270.179C76.8029 269.811 75.9962 269.272 75.3168 268.592L53.3652 246.641L63.7135 236.293L80.0775 252.657L118.838 207.436L129.95 216.961L86.0465 268.181C85.3903 268.946 84.583 269.568 83.6753 270.006C82.7676 270.445 81.7791 270.691 80.7717 270.73C80.6784 270.735 80.5824 270.736 80.4909 270.736Z" fill="#80DAFF"/>
<path d="M80.4909 380.493C79.53 380.493 78.5785 380.304 77.6907 379.936C76.8029 379.569 75.9962 379.03 75.3168 378.35L53.3652 356.399L63.7135 346.05L80.0775 362.414L118.838 317.193L129.95 326.718L86.0465 377.939C85.3903 378.704 84.583 379.326 83.6753 379.764C82.7676 380.203 81.7791 380.449 80.7717 380.488C80.6784 380.493 80.5824 380.493 80.4909 380.493Z" fill="#80DAFF"/>
<path d="M146.344 314.639H256.101V329.273H146.344V314.639Z" fill="#FCFEFF"/>
<path d="M146.344 351.225H182.93V365.859H146.344V351.225Z" fill="#FCFEFF"/>
<path d="M197.562 351.224H256.1V365.858H197.562V351.224Z" fill="#FCFEFF"/>
<path d="M146.342 204.881H256.099V219.515H146.342V204.881Z" fill="#FCFEFF"/>
<path d="M146.342 241.467H182.928V256.101H146.342V241.467Z" fill="#FCFEFF"/>
<path d="M197.562 241.467H256.1V256.101H197.562V241.467Z" fill="#FCFEFF"/>
<path d="M160.886 29.2686L95.123 58.593L100.605 93.3954C105.826 121.72 121.713 146.962 144.993 163.921L160.946 175.67L176.143 164.622C199.733 147.671 215.847 122.25 221.111 93.6826L226.649 58.593L160.886 29.2686ZM158.659 122.304C157.287 123.676 155.426 124.446 153.485 124.446C151.545 124.446 149.684 123.676 148.312 122.304L126.36 100.352L136.708 90.0011L153.487 106.778L192.216 68.0496L202.563 78.397L158.659 122.304Z" fill="#FCFEFF"/>
<path d="M29.2676 21.9512H73.1706V36.5855H29.2676V21.9512Z" fill="#FCFEFF"/>
<path d="M29.2676 51.2197H58.5363V65.8541H29.2676V51.2197Z" fill="#FCFEFF"/>
<path d="M248.783 21.9512H263.418V36.5855H248.783V21.9512Z" fill="#FCFEFF"/>
<path d="M278.051 21.9512H292.685V36.5855H278.051V21.9512Z" fill="#FCFEFF"/>
</svg>
