<svg width="480" height="437" viewBox="0 0 480 437" fill="none" xmlns="http://www.w3.org/2000/svg">
<path fill-rule="evenodd" clip-rule="evenodd" d="M164.57 314.009H315.427V399.937H164.57V314.009Z" fill="#A79BA7"/>
<path fill-rule="evenodd" clip-rule="evenodd" d="M303.73 314.009H315.429V399.937H303.73V314.009Z" fill="#837683"/>
<path fill-rule="evenodd" clip-rule="evenodd" d="M76.9336 436.572H403.063V411.429C403.063 397.6 388.903 386.286 371.595 386.286H108.402C91.0936 386.286 76.9336 397.6 76.9336 411.429V436.572Z" fill="#ECEFF1"/>
<path fill-rule="evenodd" clip-rule="evenodd" d="M76.9336 436.572H403.063V411.429C403.063 403.211 398.061 395.881 390.37 391.286C392.099 394.393 393.062 397.825 393.062 401.429V426.572H76.9336V436.572Z" fill="#D1D1D6"/>
<path fill-rule="evenodd" clip-rule="evenodd" d="M36.9 0H443.099C463.394 0 479.999 16.606 479.999 36.901V290.759C479.999 311.054 463.393 327.66 443.099 327.66H36.9C16.605 327.66 0 311.055 0 290.759V36.901C0 16.606 16.605 0 36.9 0Z" fill="#ECEFF1"/>
<path fill-rule="evenodd" clip-rule="evenodd" d="M463.682 6.31836C473.507 12.9654 479.999 24.2124 479.999 36.9014V290.759C479.999 311.054 463.393 327.66 443.099 327.66H36.8994C24.2104 327.66 12.9644 321.169 6.31641 311.343C12.2064 315.327 19.2934 317.659 26.8994 317.659H433.098C453.393 317.659 469.999 301.054 469.999 280.758V26.9014C469.999 19.2954 467.666 12.2074 463.682 6.31836Z" fill="#D1D1D6"/>
<path fill-rule="evenodd" clip-rule="evenodd" d="M35.9735 30.8584H444.023C446.838 30.8584 449.141 33.1634 449.141 35.9754V265.768H30.8555V35.9754C30.8555 33.1614 33.1585 30.8584 35.9735 30.8584Z" fill="#D8ECFE"/>
<path fill-rule="evenodd" clip-rule="evenodd" d="M424.023 30.8584H444.024C446.839 30.8584 449.142 33.1634 449.142 35.9764V265.769H429.141V35.9754C429.141 33.1614 426.838 30.8584 424.023 30.8584Z" fill="#C4E2FF"/>
<path fill-rule="evenodd" clip-rule="evenodd" d="M253.195 56.6973H403.696C409.204 56.6973 413.696 61.1893 413.696 66.6973V119.233C413.696 124.741 409.204 129.233 403.696 129.233H253.195C247.687 129.233 243.195 124.741 243.195 119.233V66.6973C243.195 61.1893 247.687 56.6973 253.195 56.6973Z" fill="#6CF5C2"/>
<path fill-rule="evenodd" clip-rule="evenodd" d="M253.195 56.6973H263.195C257.687 56.6973 253.195 61.1893 253.195 66.6973V119.233C253.195 124.741 257.687 129.233 263.195 129.233H253.195C247.687 129.233 243.195 124.741 243.195 119.233V66.6973C243.195 61.1893 247.687 56.6973 253.195 56.6973Z" fill="#00E499"/>
<path fill-rule="evenodd" clip-rule="evenodd" d="M253.195 165.912H403.696C409.204 165.912 413.696 170.404 413.696 175.912V228.448C413.696 233.956 409.204 238.448 403.696 238.448H253.195C247.687 238.448 243.195 233.956 243.195 228.448V175.912C243.195 170.404 247.687 165.912 253.195 165.912Z" fill="#FFE177"/>
<path fill-rule="evenodd" clip-rule="evenodd" d="M253.195 165.912H263.195C257.687 165.912 253.195 170.404 253.195 175.912V228.448C253.195 233.956 257.687 238.448 263.195 238.448H253.195C247.687 238.448 243.195 233.956 243.195 228.448V175.912C243.195 170.404 247.687 165.912 253.195 165.912Z" fill="#FFD064"/>
<path fill-rule="evenodd" clip-rule="evenodd" d="M64.3398 56.6973H188.399C191.153 56.6973 193.399 58.9433 193.399 61.6973V233.448C193.399 236.202 191.153 238.448 188.399 238.448H64.3398C61.5858 238.448 59.3398 236.202 59.3398 233.448V61.6973C59.3408 58.9433 61.5858 56.6973 64.3398 56.6973Z" fill="#685E68"/>
<path fill-rule="evenodd" clip-rule="evenodd" d="M64.3398 56.6973H74.3398C71.5858 56.6973 69.3398 58.9433 69.3398 61.6973V233.448C69.3398 236.202 71.5858 238.448 74.3398 238.448H64.3398C61.5858 238.448 59.3398 236.202 59.3398 233.448V61.6973C59.3408 58.9433 61.5858 56.6973 64.3398 56.6973Z" fill="#544854"/>
<path fill-rule="evenodd" clip-rule="evenodd" d="M79.5586 156.821C75.1406 156.821 71.5586 153.239 71.5586 148.821C71.5586 144.403 75.1406 140.821 79.5586 140.821H92.9596C97.3776 140.821 100.96 144.403 100.96 148.821C100.96 153.239 97.3776 156.821 92.9596 156.821H79.5586ZM146.589 98.8965C142.171 98.8965 138.589 95.3145 138.589 90.8965C138.589 86.4785 142.171 82.8965 146.589 82.8965H163.465C167.883 82.8965 171.465 86.4785 171.465 90.8965C171.465 95.3145 167.883 98.8965 163.465 98.8965H146.589ZM146.589 118.897C142.171 118.897 138.589 115.315 138.589 110.897C138.589 106.479 142.171 102.897 146.589 102.897H175.431C179.849 102.897 183.431 106.479 183.431 110.897C183.431 115.315 179.849 118.897 175.431 118.897H146.589ZM79.5586 216.823C75.1406 216.823 71.5586 213.241 71.5586 208.823C71.5586 204.405 75.1406 200.823 79.5586 200.823H92.9596C97.3776 200.823 100.96 204.405 100.96 208.823C100.96 213.241 97.3776 216.823 92.9596 216.823H79.5586ZM119.56 216.823C115.142 216.823 111.56 213.241 111.56 208.823C111.56 204.405 115.142 200.823 119.56 200.823H167.803C172.221 200.823 175.803 204.405 175.803 208.823C175.803 213.241 172.221 216.823 167.803 216.823H119.56ZM79.5586 186.822C75.1406 186.822 71.5586 183.24 71.5586 178.822C71.5586 174.404 75.1406 170.822 79.5586 170.822H92.9596C97.3776 170.822 100.96 174.404 100.96 178.822C100.96 183.24 97.3776 186.822 92.9596 186.822H79.5586ZM119.56 186.822C115.142 186.822 111.56 183.24 111.56 178.822C111.56 174.404 115.142 170.822 119.56 170.822H167.803C172.221 170.822 175.803 174.404 175.803 178.822C175.803 183.24 172.221 186.822 167.803 186.822H119.56ZM119.56 156.821C115.142 156.821 111.56 153.239 111.56 148.821C111.56 144.403 115.142 140.821 119.56 140.821H167.803C172.221 140.821 175.803 144.403 175.803 148.821C175.803 153.239 172.221 156.821 167.803 156.821H119.56Z" fill="#ECEFF1"/>
<path fill-rule="evenodd" clip-rule="evenodd" d="M81.4198 124.293H127.556C128.816 124.293 129.748 123.151 129.497 121.917C127.125 110.276 116.83 101.515 104.488 101.515C92.1458 101.515 81.8508 110.275 79.4788 121.917C79.2268 123.151 80.1598 124.293 81.4198 124.293Z" fill="#8AC9FE"/>
<path fill-rule="evenodd" clip-rule="evenodd" d="M123.046 124.293H127.557C128.817 124.293 129.749 123.151 129.498 121.917C127.126 110.276 116.831 101.515 104.489 101.515C103.729 101.515 102.977 101.549 102.234 101.614C113.558 102.606 122.761 110.992 124.987 121.917C125.238 123.151 124.306 124.293 123.046 124.293Z" fill="#60B7FF"/>
<path d="M104.487 101.515C111.614 101.515 117.392 95.7373 117.392 88.6101C117.392 81.4828 111.614 75.7051 104.487 75.7051C97.3598 75.7051 91.582 81.4828 91.582 88.6101C91.582 95.7373 97.3598 101.515 104.487 101.515Z" fill="#F6DCCD"/>
<path fill-rule="evenodd" clip-rule="evenodd" d="M104.489 75.7061C111.616 75.7061 117.394 81.4841 117.394 88.6111C117.394 95.7381 111.616 101.516 104.489 101.516C103.879 101.516 103.279 101.473 102.691 101.391C108.967 100.516 113.798 95.1281 113.798 88.6111C113.798 82.0941 108.967 76.7071 102.691 75.8321C103.279 75.7491 103.879 75.7061 104.489 75.7061Z" fill="#F1CBBC"/>
</svg>
