<svg width="70" height="70" viewBox="0 0 70 70" fill="none" xmlns="http://www.w3.org/2000/svg">
<path d="M34.5879 69.1757C53.6902 69.1757 69.1757 53.6902 69.1757 34.5879C69.1757 15.4855 53.6902 0 34.5879 0C15.4855 0 0 15.4855 0 34.5879C0 53.6902 15.4855 69.1757 34.5879 69.1757Z" fill="white" fill-opacity="0.2"/>
<path d="M27.302 47.9738L19.405 40.2589C19.2342 40.0929 19.0984 39.8942 19.0057 39.6748C18.913 39.4553 18.8652 39.2195 18.8652 38.9812C18.8652 38.743 18.913 38.5071 19.0057 38.2877C19.0984 38.0682 19.2342 37.8696 19.405 37.7035L22.0238 35.1481C22.375 34.8078 22.8448 34.6175 23.3338 34.6175C23.8227 34.6175 24.2925 34.8078 24.6437 35.1481L29.3447 39.7444L42.5291 19.6962C42.8012 19.2917 43.2198 19.0088 43.6966 18.9073C44.1734 18.8059 44.6709 18.8938 45.084 19.1526L48.201 21.111C48.4046 21.2362 48.581 21.401 48.7197 21.5957C48.8584 21.7903 48.9566 22.0109 49.0084 22.2442C49.0603 22.4775 49.0648 22.7189 49.0217 22.954C48.9785 23.1892 48.8886 23.4132 48.7573 23.6129L33.1457 47.3594C32.8329 47.8242 32.422 48.2148 31.9419 48.5036C31.4619 48.7924 30.9244 48.9724 30.3672 49.031C29.8101 49.0896 29.2469 49.0253 28.7173 48.8426C28.1877 48.66 27.7046 48.3634 27.302 47.9738Z" fill="white"/>
</svg>
