<svg width="420" height="420" viewBox="0 0 420 420" fill="none" xmlns="http://www.w3.org/2000/svg">
<path d="M210 420C325.98 420 420 325.98 420 210C420 94.0202 325.98 0 210 0C94.0202 0 0 94.0202 0 210C0 325.98 94.0202 420 210 420Z" fill="#3DB39E"/>
<path d="M385.875 95.4844L200.156 287.766L200.484 308.438H209.016L410.156 146.344C404.25 128.297 396.047 110.906 385.875 95.4844Z" fill="#37A18E"/>
<path d="M416.062 86.2969L378.984 49.5469C374.062 44.625 365.859 44.625 360.609 49.5469L202.125 213.281L133.547 145.687C128.625 140.766 120.422 140.766 115.172 145.687L82.3594 178.172C77.4375 183.094 77.4375 191.297 82.3594 196.219L191.953 304.828C194.906 307.781 198.844 308.766 202.781 308.437C206.719 308.766 210.656 307.781 213.609 304.828L416.062 104.672C420.984 99.4219 420.984 91.2187 416.062 86.2969Z" fill="#F2F1EF"/>
<path d="M213.609 304.828L416.063 104.672C420.984 99.75 420.984 91.5469 416.063 86.625L410.156 81.0469L202.453 285.141L87.6094 173.25L82.6875 178.172C77.7656 183.094 77.7656 191.297 82.6875 196.219L192.281 304.828C195.234 307.781 199.172 308.766 203.109 308.438C206.719 308.766 210.656 307.781 213.609 304.828Z" fill="#E6E5E3"/>
</svg>
