<?xml version="1.0" encoding="UTF-8"?>
<svg id="_ëîé_1" data-name="‘ëîé_1" xmlns="http://www.w3.org/2000/svg" viewBox="0 0 1349.04 1576.73">
  <g>
    <path d="m749.87,0c-62.62,0-113.38,50.76-113.38,113.38v90.71h226.77v-90.71c0-62.62-50.76-113.38-113.38-113.38Zm58.15,154.38h-116.29v-46.52c0-32.11,26.03-58.15,58.15-58.15s58.15,26.03,58.15,58.15v46.52Z" style="fill: #ffcf00;"/>
    <path d="m636.49,204.09h226.77v-90.71c0-3.17-.16-6.29-.42-9.39-18.6-4.98-37.57-8.7-56.78-11.1,1.27,4.78,1.96,9.79,1.96,14.97v46.52h-116.29v-46.52c0-5.64.82-11.09,2.32-16.25-19.22,1.88-38.22,5.06-56.89,9.51-.43,4.03-.67,8.12-.67,12.26v90.71Z" style="fill: #ffa200;"/>
    <path d="m1181.8,856.32c-.06-2.35-.08-4.71-.08-7.07v-292.07c0-131.38-55.05-249.87-143.29-333.6-2.2-2.08-4.41-4.14-6.64-6.18-76.01-69.23-175.93-106.28-278.74-106.28h-17.43c-102.81,0-202.73,37.05-278.74,106.28-2.23,2.03-4.45,4.09-6.64,6.17-88.25,83.73-143.29,202.22-143.29,333.6v292.07c0,2.36-.03,4.71-.08,7.07-1.69,72.62-31.94,141.23-82.07,191.04h1039.09c-50.13-49.81-80.38-118.42-82.07-191.04Z" style="fill: #ffcf00;"/>
    <path d="m749.87,49.71c-26.47,0-48.79,17.69-55.83,41.89,13.77-1.35,27.64-2.05,41.57-2.05h17.43c17.8,0,35.5,1.14,53.01,3.33-6.61-24.85-29.26-43.17-56.19-43.17Z" style="fill: none;"/>
    <path d="m560.23,1233.27s0,.08,0,.12c0,95.72,82.42,173.32,184.1,173.32s184.1-77.6,184.1-173.32c0-.04,0-.08,0-.12h-368.19Z" style="fill: #ffcf00;"/>
    <path d="m923.3,1273.97c3.32-13.02,5.13-26.6,5.13-40.58,0-.04,0-.08,0-.12h-368.19s0,.08,0,.12c0,13.98,1.81,27.56,5.13,40.58h357.95Z" style="fill: #ffb700;"/>
    <path d="m528.2,302.72c-69.22,72.61-112.4,175.35-112.4,289.28v221.3c0,17.76,14.21,32.26,31.97,32.62h0c18.28.37,33.29-14.34,33.29-32.62v-205.83c0-126.96,45.45-241.45,118.32-322.37,30.93-34.34,66.16-61.45,103.97-80.89-64.8,13.15-125.74,46.67-175.16,98.51Z" style="fill: #ffe059;"/>
    <path d="m1181.8,856.32c-.06-2.35-.08-4.71-.08-7.07v-292.07c0-131.38-55.05-249.87-143.29-333.6-2.13-2.02-4.27-4.02-6.44-5.99-76.02-69.32-175.98-106.47-278.86-106.47h-17.51c-33.78,0-67.24,4.03-99.64,11.85,5.1-.18,10.21-.29,15.33-.29h17.43c102.81,0,202.73,35.55,278.74,101.98,2.23,1.95,4.45,3.93,6.64,5.93,88.25,80.34,143.29,194.04,143.29,320.1h0c.75,221.32-168.59,406.12-389.14,424.64l-454.54,38.17c-8.72,12.03-18.38,23.36-28.95,33.86h1039.09c-50.13-49.81-80.38-118.42-82.07-191.04Z" style="fill: #ffb700;"/>
    <rect x="139.62" y="1021.03" width="1209.43" height="212.23" rx="106.12" ry="106.12" style="fill: #ffcf00;"/>
    <path d="m1242.93,1021.03H245.73c-58.61,0-106.12,47.51-106.12,106.12h0c0,7.01.7,13.86,2,20.49,9.55-48.8,52.53-85.62,104.12-85.62h997.19c51.59,0,94.57,36.83,104.12,85.62,1.3-6.63,2-13.48,2-20.49h0c0-58.61-47.51-106.12-106.12-106.12Z" style="fill: #ffe059;"/>
    <g>
      <circle cx="1091.54" cy="280.13" r="190.33" style="fill: #f3156b;"/>
      <path d="m1247.52,171.07c5.66,18.83,8.71,38.78,8.71,59.45,0,113.9-92.34,206.24-206.24,206.24-33.55,0-65.22-8.02-93.22-22.23,34.46,34.55,82.11,55.93,134.76,55.93,105.11,0,190.33-85.21,190.33-190.33,0-40.58-12.71-78.18-34.34-109.07Z" style="fill: #d9135f;"/>
      <path d="m1092.42,211.67l-1.3,2.31c-2.84,5.03-7.85,10.37-14.87,15.88-7.14,5.59-15.61,10.42-25.19,14.37l-2.71,1.12v23.78l6.36-2.06c5.82-1.88,12.43-4.72,19.66-8.44,3.62-1.86,6.92-3.74,9.89-5.64v95.61h27.41v-136.92h-19.23Z" style="fill: #fff;"/>
    </g>
  </g>
  <path d="m894.9,495.63v279.42c0,52.11-42.24,94.35-94.35,94.35h-62.13l27.08,101.08-155.31-101.08H216.93c-52.11,0-94.35-42.24-94.35-94.35v-279.42c0-52.11,42.24-94.35,94.35-94.35h583.61c52.11,0,94.35,42.24,94.35,94.35Z" style="opacity: .1;"/>
  <g>
    <path d="m101.05,393.83c0,2.29-.87,4.59-2.63,6.34-3.5,3.5-9.18,3.5-12.68,0l-42.25-42.25c-3.5-3.5-3.5-9.18,0-12.68,3.5-3.5,9.18-3.5,12.68,0l42.25,42.25c1.75,1.75,2.63,4.04,2.63,6.34Z" style="fill: #8842ff;"/>
    <path d="m137.58,310.71v59.76c0,4.95-4.01,8.97-8.97,8.97s-8.97-4.01-8.97-8.97v-59.76c0-4.95,4.01-8.97,8.97-8.97s8.97,4.01,8.97,8.97Z" style="fill: #8842ff;"/>
    <path d="m77.69,430.36c0,4.95-4.01,8.97-8.97,8.97H8.97c-4.95,0-8.97-4.01-8.97-8.97s4.01-8.97,8.97-8.97h59.75c4.95,0,8.97,4.01,8.97,8.97Z" style="fill: #8842ff;"/>
  </g>
  <path d="m859.99,473.4v279.42c0,52.11-42.24,94.35-94.35,94.35h-62.13l27.08,101.08-155.31-101.08H182.03c-52.11,0-94.35-42.24-94.35-94.35v-279.42c0-52.11,42.24-94.35,94.35-94.35h583.61c52.11,0,94.35,42.24,94.35,94.35Z" style="fill: #8842ff;"/>
  <path d="m813.28,391.95c10.39,15.16,16.48,33.51,16.48,53.28v279.42c0,52.11-42.24,94.35-94.35,94.35h-62.13l27.08,101.08-155.31-101.08H151.79c-17.38,0-33.66-4.7-47.64-12.9,17,24.8,45.54,41.08,77.88,41.08h393.25l155.31,101.08-27.08-101.08h62.13c52.11,0,94.35-42.24,94.35-94.35v-279.42c0-34.73-18.77-65.07-46.71-81.45Z" style="fill: #7a3be6;"/>
  <path d="m749.16,698.85h0c0,10.92-8.85,19.77-19.77,19.77H218.27c-10.92,0-19.77-8.85-19.77-19.77h0c0-10.92,8.85-19.77,19.77-19.77h511.12c10.92,0,19.77,8.85,19.77,19.77Z" style="fill: #fff; opacity: .5;"/>
  <path d="m749.16,609.18h0c0,10.92-8.85,19.77-19.77,19.77H218.27c-10.92,0-19.77-8.85-19.77-19.77h0c0-10.92,8.85-19.77,19.77-19.77h511.12c10.92,0,19.77,8.85,19.77,19.77Z" style="fill: #fff; opacity: .5;"/>
  <path d="m682.32,519.51h0c0,10.92-8.85,19.77-19.77,19.77h-377.43c-10.92,0-19.77-8.85-19.77-19.77h0c0-10.92,8.85-19.77,19.77-19.77h377.43c10.92,0,19.77,8.85,19.77,19.77Z" style="fill: #fff; opacity: .5;"/>
  <ellipse cx="744.33" cy="1547.91" rx="604.71" ry="28.82" style="fill: #e8e8e8;"/>
</svg>