<?xml version="1.0" encoding="utf-8"?>
<!-- Generator: Adobe Illustrator 27.5.0, SVG Export Plug-In . SVG Version: 6.00 Build 0)  -->
<svg version="1.1" id="Layer_1" xmlns="http://www.w3.org/2000/svg" xmlns:xlink="http://www.w3.org/1999/xlink" x="0px" y="0px"
	 viewBox="0 0 5000 5000" style="enable-background:new 0 0 5000 5000;" xml:space="preserve">
<g id="Mobile_Security">
	<g>
		<g>
			<g>
				<g>
					<g>
						<path style="fill:#BBCAEA;" d="M3430.78,3502.259c-0.017,3.617-7.529,6.869-22.664,8.337l-38.476-0.078
							c-15.142-1.53-22.702-4.81-22.775-8.518c-0.073-3.707,7.378-6.869,22.557-8.427l38.659,0.078
							C3423.3,3495.271,3430.799,3498.461,3430.78,3502.259z"/>
					</g>
				</g>
			</g>
			<g>
				<g>
					<g>
						<path style="fill:#BBCAEA;" d="M3598.578,3503.07c-0.019,3.617-7.526,6.844-22.683,8.271l-38.499-0.193
							c-15.127-1.575-22.602-4.876-22.584-8.583c0.019-3.707,7.526-6.848,22.668-8.361l38.5,0.188
							C3591.12,3496.058,3598.596,3499.273,3598.578,3503.07z"/>
					</g>
				</g>
			</g>
			<g>
				<g>
					<g>
						<path style="fill:#BBCAEA;" d="M3766.159,3503.858c-0.016,3.617-7.529,6.848-22.698,8.279l-38.531-0.176
							c-15.14-1.566-22.623-4.868-22.605-8.575c0.016-3.707,7.529-6.848,22.684-8.37l38.53,0.176
							C3758.693,3496.85,3766.176,3500.064,3766.159,3503.858z"/>
					</g>
				</g>
			</g>
			<g>
				<g>
					<g>
						<path style="fill:#BBCAEA;" d="M3934.204,3504.51c-0.012,3.617-7.535,6.856-22.73,8.3l-38.6-0.135
							c-15.169-1.554-22.668-4.851-22.655-8.554c0.013-3.707,7.535-6.856,22.716-8.394l38.6,0.139
							C3926.718,3497.51,3934.218,3500.712,3934.204,3504.51z"/>
					</g>
				</g>
			</g>
			<g>
				<g>
					<g>
						<path style="fill:#BBCAEA;" d="M4102.254,3504.891c-0.006,3.617-7.529,6.873-22.732,8.345l-38.627-0.066
							c-15.182-1.525-22.694-4.806-22.688-8.513c0.007-3.707,7.529-6.869,22.716-8.435l38.629,0.07
							C4094.749,3497.907,4102.26,3501.098,4102.254,3504.891z"/>
					</g>
				</g>
			</g>
			<g>
				<g>
					<g>
						<path style="fill:#BBCAEA;" d="M4270.31,3504.657c0.01,3.617-7.497,6.906-22.694,8.448l-38.629,0.111
							c-15.19-1.456-22.716-4.699-22.728-8.407c-0.01-3.707,7.498-6.906,22.678-8.538l38.63-0.111
							C4262.773,3497.707,4270.299,3500.864,4270.31,3504.657z"/>
					</g>
				</g>
			</g>
			<g>
				<g>
					<g>
						<path style="fill:#BBCAEA;" d="M4384.628,3448.354c3.617,0,6.883,7.513,8.384,22.694v19.294v5.503
							c-0.033,3.186,0.312,6.705-0.995,8.763l-0.687,1.804l-0.343,0.902l-0.086,0.226l-0.021,0.057l-0.006,0.012
							c0.773,0.689-1.058-0.927-0.873-0.755l-0.017,0.029l-0.065,0.106l-0.246,0.398c-0.726,0.877-0.986,2.427-2.512,2.698
							c-2.678,0.919-6.028,1.042-9.198,1.263c-16.542-0.718-23.276-4.043-23.614-7.685c-0.343-3.736,7.958-6.955,21.716-9.177
							v-23.44C4377.655,3455.866,4380.833,3448.354,4384.628,3448.354z"/>
					</g>
				</g>
			</g>
			<g>
				<g>
					<g>
						<path style="fill:#BBCAEA;" d="M4384.628,3280.422c3.617,0,6.883,7.509,8.384,22.698v38.597
							c-1.501,15.173-4.767,22.681-8.474,22.681c-3.705,0-6.883-7.509-8.472-22.681v-38.597
							C4377.655,3287.93,4380.833,3280.422,4384.628,3280.422z"/>
					</g>
				</g>
			</g>
			<g>
				<g>
					<g>
						<path style="fill:#BBCAEA;" d="M4384.628,3112.359c3.617,0,6.883,7.512,8.384,22.71v38.617
							c-1.501,15.181-4.767,22.698-8.474,22.698c-3.705,0-6.883-7.517-8.472-22.698v-38.617
							C4377.655,3119.871,4380.833,3112.359,4384.628,3112.359z"/>
					</g>
				</g>
			</g>
			<g>
				<g>
					<g>
						<path style="fill:#BBCAEA;" d="M4384.628,2944.701c3.617,0,6.883,7.496,8.384,22.661v38.531
							c-1.501,15.144-4.767,22.645-8.474,22.645c-3.705,0-6.883-7.5-8.472-22.645v-38.531
							C4377.655,2952.198,4380.833,2944.701,4384.628,2944.701z"/>
					</g>
				</g>
			</g>
			<g>
				<g>
					<g>
						<path style="fill:#BBCAEA;" d="M4384.628,2776.926c3.617,0,6.883,7.504,8.384,22.681v38.564
							c-1.501,15.156-4.767,22.661-8.474,22.661c-3.705,0-6.883-7.504-8.472-22.661v-38.564
							C4377.655,2784.43,4380.833,2776.926,4384.628,2776.926z"/>
					</g>
				</g>
			</g>
			<g>
				<g>
					<g>
						<path style="fill:#BBCAEA;" d="M4384.628,2608.883c3.617,0,6.883,7.513,8.384,22.702v38.605
							c-1.501,15.177-4.767,22.69-8.474,22.69c-3.705,0-6.883-7.513-8.472-22.69v-38.605
							C4377.655,2616.396,4380.833,2608.883,4384.628,2608.883z"/>
					</g>
				</g>
			</g>
			<g>
				<g>
					<g>
						<path style="fill:#BBCAEA;" d="M4384.628,2440.91c3.617,0,6.883,7.513,8.384,22.702v38.601
							c-1.501,15.173-4.767,22.686-8.474,22.686c-3.705,0-6.883-7.513-8.472-22.686v-38.601
							C4377.655,2448.423,4380.833,2440.91,4384.628,2440.91z"/>
					</g>
				</g>
			</g>
			<g>
				<g>
					<g>
						<path style="fill:#BBCAEA;" d="M4384.628,2272.913c3.617,0,6.883,7.513,8.384,22.706v38.609
							c-1.501,15.177-4.767,22.69-8.474,22.69c-3.705,0-6.883-7.513-8.472-22.69v-38.609
							C4377.655,2280.425,4380.833,2272.913,4384.628,2272.913z"/>
					</g>
				</g>
			</g>
			<g>
				<g>
					<g>
						<path style="fill:#BBCAEA;" d="M4384.628,2104.833c3.617,0,6.883,7.517,8.384,22.723v38.63
							c-1.501,15.189-4.767,22.706-8.474,22.706c-3.705,0-6.883-7.517-8.472-22.706v-38.63
							C4377.655,2112.35,4380.833,2104.833,4384.628,2104.833z"/>
					</g>
				</g>
			</g>
			<g>
				<g>
					<g>
						<path style="fill:#BBCAEA;" d="M4384.628,1936.832c3.617,0,6.883,7.513,8.384,22.706v38.613
							c-1.501,15.177-4.767,22.69-8.474,22.69c-3.705,0-6.883-7.513-8.472-22.69v-38.613
							C4377.655,1944.344,4380.833,1936.832,4384.628,1936.832z"/>
					</g>
				</g>
			</g>
			<g>
				<g>
					<g>
						<path style="fill:#BBCAEA;" d="M4384.628,1768.805c3.617,0,6.883,7.513,8.384,22.71v38.617
							c-1.501,15.181-4.767,22.694-8.474,22.694c-3.705,0-6.883-7.513-8.472-22.694v-38.617
							C4377.655,1776.318,4380.833,1768.805,4384.628,1768.805z"/>
					</g>
				</g>
			</g>
		</g>
		<g>
			<g>
				<g>
					<path style="fill:#3A4146;" d="M3534.343,1251.316v2598.355c0,112.581-91.372,203.953-204.116,203.953H1927.686
						c-112.745,0-204.116-91.371-204.116-203.953V1251.153c0-159.083,128.898-288.144,288.145-288.144h1234.32
						C3405.281,963.009,3534.343,1092.07,3534.343,1251.316z"/>
				</g>
			</g>
			<g>
				<g>
					<path style="fill:#FFFFFF;" d="M3476.798,1251.413v2598.329c0,80.772-65.527,146.299-146.298,146.299H1927.548
						c-80.613,0-146.455-65.841-146.455-146.453V1251.256c0-126.814,103.87-230.682,230.682-230.682H2310.5
						c36.457,0,70.399,19.171,89.256,50.599c11.313,19.013,31.585,30.484,53.584,30.484h351.21
						c21.999,0,42.271-11.471,53.584-30.484c9.429-15.714,22.628-28.286,38.028-37.087c15.401-8.801,33-13.512,51.228-13.512
						h298.567C3373.4,1020.574,3476.798,1123.974,3476.798,1251.413z"/>
				</g>
			</g>
			<g>
				<g>
					<g>
						<circle style="fill:#FFFFFF;" cx="2481.005" cy="1043.968" r="23.433"/>
					</g>
				</g>
				<g>
					<g>
						<path style="fill:#FFFFFF;" d="M2804.133,1043.968c0,8.958-7.386,16.343-16.342,16.343h-228.483
							c-9.115,0-16.342-7.385-16.342-16.343c0-9.115,7.228-16.343,16.342-16.343h228.483
							C2796.747,1027.624,2804.133,1034.852,2804.133,1043.968z"/>
					</g>
				</g>
			</g>
		</g>
		<g style="opacity:0.05;">
			<g>
				<path d="M3534.343,1387.393v1202.831H2187.929c-51.722,0-93.655-41.933-93.655-93.655v-1015.52
					c0-51.723,41.933-93.656,93.655-93.656H3534.343z"/>
			</g>
		</g>
		<g>
			<g>
				<g>
					<path style="fill:#E4ECF9;" d="M3842.876,2540.297H2233.394c-53.25,0-96.418-43.168-96.418-96.418V1433.9
						c0-53.25,43.168-96.418,96.418-96.418h1609.482c53.25,0,96.418,43.168,96.418,96.418v1009.979
						C3939.294,2497.129,3896.127,2540.297,3842.876,2540.297z"/>
				</g>
			</g>
			<g>
				<g>
					<g>
						<g>
							<path style="fill:#4A5258;" d="M2814.401,1509.285c-40.164-40.339-93.833-62.613-151.185-62.613
								c-117.861,0-213.799,95.937-213.799,213.798v124.351h52.616V1660.47c0-88.921,72.261-161.181,161.182-161.181
								c43.146,0,83.661,16.661,114.003,47.178c30.343,30.519,47.18,71.033,47.18,114.003v124.351h52.617V1660.47
								C2877.015,1603.294,2854.742,1549.625,2814.401,1509.285z"/>
						</g>
					</g>
					<g>
						<g>
							<path style="fill:#FFCF3D;" d="M2947.522,1818.145v238.353c0,153.115-117.511,284.831-270.449,292.023
								c-163.287,7.717-298.161-122.422-298.161-283.955v-246.421c0-18.417,14.908-33.324,33.323-33.324h501.963
								C2932.615,1784.821,2947.522,1799.729,2947.522,1818.145z"/>
						</g>
					</g>
					<g>
						<g>
							<path style="fill:#FCC230;" d="M2947.573,1818.197v238.286c0,153.196-117.605,284.876-270.478,291.994
								c-121.327,5.823-226.801-64.385-273.067-167.108c54.516,54.84,131.195,87.517,215.477,83.473
								c153.033-7.118,270.478-138.797,270.478-291.993v-187.976h24.265C2932.691,1784.873,2947.573,1799.755,2947.573,1818.197z"/>
						</g>
					</g>
				</g>
				<g>
					<g>
						<path style="fill:#4A5258;" d="M2728.374,1977.924c0,23.327-12.278,43.847-30.869,55.247v73.138
							c0,18.416-15.083,33.499-33.674,33.499c-18.416,0-33.5-15.083-33.5-33.499v-72.26c-19.292-11.225-32.271-32.096-32.271-56.125
							c0-36.13,29.114-65.245,65.07-65.245C2699.26,1912.679,2728.374,1941.794,2728.374,1977.924z"/>
					</g>
				</g>
			</g>
			<g>
				<g>
					<path style="fill:#FFFFFF;" d="M3791.386,1854.203v169.374c0,23.177-18.72,41.897-41.898,41.897h-639.332
						c-23.177,0-41.896-18.72-41.896-41.897v-169.374c0-23.177,18.719-41.898,41.896-41.898h639.332
						C3772.667,1812.305,3791.386,1831.026,3791.386,1854.203z"/>
				</g>
			</g>
			<g>
				<g>
					<g>
						<path style="fill:#D1DCF8;" d="M3230.971,1982.631c-2.018-1.903-3.035-4.216-3.035-6.922c0-0.886,1.804-12.827,5.413-35.792
							c-18.027,14.632-27.475,22.177-28.377,22.62c-1.345,0.672-2.821,1.017-4.396,1.017c-3.822,0-6.873-1.69-9.12-5.069
							c-0.902-1.575-1.345-3.379-1.345-5.397c0-3.838,1.575-6.528,4.724-8.12l33.774-13.172l-33.774-13.172
							c-3.149-1.788-4.724-4.609-4.724-8.431c0-2.034,0.443-3.838,1.345-5.413c2.247-3.379,5.184-5.069,8.792-5.069
							c1.575,0,3.149,0.459,4.724,1.361c0.902,0.443,10.35,7.988,28.377,22.62c-3.609-22.964-5.413-34.89-5.413-35.792
							c0-2.707,1.017-5.019,3.035-6.922c2.034-1.919,4.396-2.887,7.103-2.887s5.069,0.968,7.086,2.887
							c2.034,1.903,3.051,4.216,3.051,6.922c0,0.902-1.804,12.827-5.413,35.792c18.011-14.632,27.475-22.177,28.377-22.62
							c1.115-0.902,2.707-1.361,4.724-1.361c3.592,0,6.528,1.689,8.776,5.069c0.902,1.804,1.361,3.494,1.361,5.069
							c0,3.838-1.575,6.758-4.724,8.776l-33.791,13.172l33.791,13.172c3.149,1.804,4.724,4.626,4.724,8.448
							c0,1.575-0.459,3.264-1.361,5.069c-2.247,3.379-5.282,5.069-9.12,5.069c-1.575,0-3.035-0.344-4.38-1.017
							c-0.902-0.443-10.367-7.988-28.377-22.62c3.609,22.964,5.413,34.906,5.413,35.792c0,2.707-1.017,5.019-3.051,6.922
							c-2.018,1.919-4.38,2.87-7.086,2.87S3233.005,1984.55,3230.971,1982.631z"/>
					</g>
				</g>
				<g>
					<g>
						<path style="fill:#D1DCF8;" d="M3371.809,1982.631c-2.018-1.903-3.035-4.216-3.035-6.922c0-0.886,1.804-12.827,5.413-35.792
							c-18.027,14.632-27.475,22.177-28.377,22.62c-1.345,0.672-2.822,1.017-4.396,1.017c-3.822,0-6.873-1.69-9.12-5.069
							c-0.902-1.575-1.345-3.379-1.345-5.397c0-3.838,1.575-6.528,4.724-8.12l33.774-13.172l-33.774-13.172
							c-3.149-1.788-4.724-4.609-4.724-8.431c0-2.034,0.443-3.838,1.345-5.413c2.247-3.379,5.184-5.069,8.792-5.069
							c1.575,0,3.149,0.459,4.724,1.361c0.902,0.443,10.35,7.988,28.377,22.62c-3.609-22.964-5.413-34.89-5.413-35.792
							c0-2.707,1.017-5.019,3.035-6.922c2.034-1.919,4.396-2.887,7.103-2.887s5.069,0.968,7.086,2.887
							c2.034,1.903,3.051,4.216,3.051,6.922c0,0.902-1.804,12.827-5.413,35.792c18.011-14.632,27.475-22.177,28.377-22.62
							c1.115-0.902,2.707-1.361,4.724-1.361c3.592,0,6.529,1.689,8.776,5.069c0.902,1.804,1.361,3.494,1.361,5.069
							c0,3.838-1.575,6.758-4.724,8.776l-33.791,13.172l33.791,13.172c3.149,1.804,4.724,4.626,4.724,8.448
							c0,1.575-0.459,3.264-1.361,5.069c-2.247,3.379-5.282,5.069-9.12,5.069c-1.575,0-3.034-0.344-4.38-1.017
							c-0.902-0.443-10.367-7.988-28.377-22.62c3.609,22.964,5.413,34.906,5.413,35.792c0,2.707-1.017,5.019-3.051,6.922
							c-2.018,1.919-4.38,2.87-7.086,2.87S3373.843,1984.55,3371.809,1982.631z"/>
					</g>
				</g>
				<g>
					<g>
						<path style="fill:#D1DCF8;" d="M3512.646,1982.631c-2.018-1.903-3.035-4.216-3.035-6.922c0-0.886,1.804-12.827,5.413-35.792
							c-18.027,14.632-27.475,22.177-28.378,22.62c-1.345,0.672-2.821,1.017-4.396,1.017c-3.822,0-6.873-1.69-9.12-5.069
							c-0.902-1.575-1.345-3.379-1.345-5.397c0-3.838,1.575-6.528,4.724-8.12l33.774-13.172l-33.774-13.172
							c-3.149-1.788-4.724-4.609-4.724-8.431c0-2.034,0.443-3.838,1.345-5.413c2.247-3.379,5.183-5.069,8.792-5.069
							c1.575,0,3.149,0.459,4.724,1.361c0.902,0.443,10.351,7.988,28.378,22.62c-3.609-22.964-5.413-34.89-5.413-35.792
							c0-2.707,1.017-5.019,3.035-6.922c2.034-1.919,4.396-2.887,7.103-2.887s5.069,0.968,7.086,2.887
							c2.034,1.903,3.051,4.216,3.051,6.922c0,0.902-1.804,12.827-5.413,35.792c18.011-14.632,27.475-22.177,28.377-22.62
							c1.115-0.902,2.707-1.361,4.724-1.361c3.592,0,6.529,1.689,8.776,5.069c0.902,1.804,1.361,3.494,1.361,5.069
							c0,3.838-1.575,6.758-4.724,8.776l-33.791,13.172l33.791,13.172c3.149,1.804,4.724,4.626,4.724,8.448
							c0,1.575-0.459,3.264-1.361,5.069c-2.247,3.379-5.282,5.069-9.12,5.069c-1.575,0-3.034-0.344-4.38-1.017
							c-0.902-0.443-10.367-7.988-28.377-22.62c3.609,22.964,5.413,34.906,5.413,35.792c0,2.707-1.017,5.019-3.051,6.922
							c-2.018,1.919-4.38,2.87-7.086,2.87S3514.68,1984.55,3512.646,1982.631z"/>
					</g>
				</g>
				<g>
					<g>
						<path style="fill:#D1DCF8;" d="M3653.501,1982.631c-2.018-1.903-3.035-4.216-3.035-6.922c0-0.886,1.804-12.827,5.413-35.792
							c-18.027,14.632-27.475,22.177-28.377,22.62c-1.345,0.672-2.821,1.017-4.396,1.017c-3.822,0-6.873-1.69-9.12-5.069
							c-0.902-1.575-1.345-3.379-1.345-5.397c0-3.838,1.575-6.528,4.724-8.12l33.774-13.172l-33.774-13.172
							c-3.149-1.788-4.724-4.609-4.724-8.431c0-2.034,0.443-3.838,1.345-5.413c2.247-3.379,5.183-5.069,8.792-5.069
							c1.575,0,3.149,0.459,4.724,1.361c0.902,0.443,10.35,7.988,28.377,22.62c-3.609-22.964-5.413-34.89-5.413-35.792
							c0-2.707,1.017-5.019,3.035-6.922c2.034-1.919,4.396-2.887,7.103-2.887s5.069,0.968,7.086,2.887
							c2.034,1.903,3.051,4.216,3.051,6.922c0,0.902-1.804,12.827-5.413,35.792c18.011-14.632,27.475-22.177,28.377-22.62
							c1.115-0.902,2.707-1.361,4.724-1.361c3.592,0,6.529,1.689,8.776,5.069c0.902,1.804,1.361,3.494,1.361,5.069
							c0,3.838-1.575,6.758-4.724,8.776l-33.791,13.172l33.791,13.172c3.149,1.804,4.724,4.626,4.724,8.448
							c0,1.575-0.459,3.264-1.361,5.069c-2.247,3.379-5.282,5.069-9.12,5.069c-1.575,0-3.035-0.344-4.38-1.017
							c-0.902-0.443-10.367-7.988-28.377-22.62c3.609,22.964,5.413,34.906,5.413,35.792c0,2.707-1.017,5.019-3.051,6.922
							c-2.018,1.919-4.38,2.87-7.086,2.87S3655.535,1984.55,3653.501,1982.631z"/>
					</g>
				</g>
			</g>
		</g>
		<g>
			<g>
				<g>
					<g>
						<path style="fill:#FEC9AC;" d="M973.447,3940.848l84.364,57.88l49.049-21.584c0,0,1.226-40.466,2.208-100.549
							c0.489-45.372,1.226-85.835,1.226-88.29c0-6.131-126.055,1.227-131.941,3.191c-2.452,0.737-3.679,28.446-4.169,61.802
							C972.958,3902.837,973.447,3936.435,973.447,3940.848z"/>
					</g>
				</g>
				<g style="opacity:0.5;">
					<g>
						<path style="fill:#FFAB90;" d="M974.183,3853.297c37.767,17.902,79.704,26.482,121.396,24.524
							c4.414-0.246,9.074-0.491,13.488-1.228c0.489-45.372,1.226-85.835,1.226-88.29c0-6.131-126.055,1.227-131.941,3.191
							C975.9,3792.232,974.673,3819.941,974.183,3853.297z"/>
					</g>
				</g>
				<g>
					<g>
						<g>
							<path style="fill:#3A4146;" d="M931.269,4034.908c1.135,7.617,7.78,12.967,15.56,12.967h379.909
								c6.645,0,12.48-4.052,14.911-10.213c5.673-15.396,13.29-43.922-4.375-56.078c-24.636-16.857-76.825-1.294-112.806-26.741
								c-35.819-25.285-78.769-111.349-130.309-52.837c0,0-41.492,63.533-69.694,50.079c-28.201-13.45-49.271-82.981-83.145-56.402
								C924.3,3909.136,925.759,4002.168,931.269,4034.908z"/>
						</g>
					</g>
				</g>
			</g>
			<g>
				<g>
					<g>
						<path style="fill:#FEC9AC;" d="M561.859,3940.848l84.364,57.88l49.049-21.584c0,0,1.226-40.466,2.208-100.549
							c0.489-45.372,1.226-85.835,1.226-88.29c0-6.131-126.055,1.227-131.941,3.191c-2.452,0.737-3.679,28.446-4.169,61.802
							C561.37,3902.837,561.859,3936.435,561.859,3940.848z"/>
					</g>
				</g>
				<g style="opacity:0.5;">
					<g>
						<path style="fill:#FFAB90;" d="M562.596,3853.297c37.767,17.902,79.704,26.482,121.396,24.524
							c4.414-0.246,9.074-0.491,13.488-1.228c0.489-45.372,1.226-85.835,1.226-88.29c0-6.131-126.055,1.227-131.941,3.191
							C564.313,3792.232,563.085,3819.941,562.596,3853.297z"/>
					</g>
				</g>
				<g>
					<g>
						<g>
							<path style="fill:#3A4146;" d="M519.682,4034.908c1.135,7.617,7.78,12.967,15.56,12.967H915.15
								c6.645,0,12.48-4.052,14.911-10.213c5.673-15.396,13.291-43.922-4.375-56.078c-24.636-16.857-76.825-1.294-112.806-26.741
								c-35.819-25.285-78.769-111.349-130.31-52.837c0,0-41.492,63.533-69.694,50.079c-28.201-13.45-49.271-82.981-83.145-56.402
								C512.713,3909.136,514.172,4002.168,519.682,4034.908z"/>
						</g>
					</g>
				</g>
			</g>
			<g>
				<g>
					<g>
						<path style="fill:#003567;" d="M1155.445,3819.302c0,32.187-103.499,43.827-177.904,34.786
							c-41.723-5.075-74.282-16.712-74.282-34.786c-12.504-187.935-18.448-624.906-24.761-988.886
							c-38.256,365.219-76.883,798.034-117.613,1014.32c-3.219,17.331-35.781,22.778-75.893,20.55
							c-71.435-4.21-166.515-33.054-160.944-63.881c3.467-382.925,28.847-930.381,63.513-1422.87l611.214,24.76
							C1205.834,2408.371,1171.045,3820.291,1155.445,3819.302z"/>
					</g>
				</g>
				<g>
					<g>
						<path style="fill:#022E4F;" d="M977.788,3853.965l-0.246,0.124c-41.723-5.075-74.282-16.712-74.282-34.786
							c-12.504-187.935-18.448-624.906-24.761-988.886c-38.256,365.219-76.883,798.034-117.613,1014.32
							c-3.219,17.331-35.781,22.778-75.893,20.55l-0.124-0.124l202.562-1187.3L977.788,3853.965z"/>
					</g>
				</g>
			</g>
			<g>
				<g>
					<path style="fill:#FE4C40;" d="M1374.824,1870.142c-1.75,3.068-3.503,5.912-5.254,8.761
						c-43.131,68.527-107.282,103.779-187.855,123.044l11.167,126.332c0.219,0.219,0.219,0.438,0.219,0.438l25.835,290.759
						c-3.503,100.059-680.917,75.535-677.195-24.519l1.752-11.172l63.931-426.504c-0.656,0-1.314,0-1.97-0.214
						c-68.093-4.822-135.09-32.409-188.949-75.321h-0.219c-9.195-7.446-18.173-15.325-26.712-23.642c0,0,1.971-15.33,9.414-39.63
						c28.464-95.901,137.498-331.485,516.929-325.135c340.02,5.693,444.238,325.354,457.374,371.329
						C1374.387,1868.175,1374.824,1870.142,1374.824,1870.142z"/>
				</g>
			</g>
			<g>
				<g>
					<path style="fill:#EA241F;" d="M712.955,1718.854l-106.626,237.119c-0.219,0.433-0.438,0.658-0.875,1.096
						c-68.093-4.822-135.09-32.409-188.949-75.321h-0.219c-9.195-7.446-18.173-15.325-26.712-23.642c0,0,1.971-15.33,9.414-39.63
						c38.098,6.35,75.317,19.922,113.851,18.388c38.096-1.529,74.442-17.73,105.312-40.063
						C649.243,1774.686,686.681,1746.66,712.955,1718.854z"/>
				</g>
			</g>
			<g>
				<g>
					<path style="fill:#EA241F;" d="M1374.824,1870.142c-1.75,3.068-3.503,5.912-5.254,8.761
						c-43.131,68.527-107.282,103.779-187.855,123.044l11.167,126.332c0.219,0.219,0.219,0.438,0.219,0.438l25.835,290.759
						c-3.503,100.059-680.917,75.535-677.195-24.519l1.752-11.172c10.072-0.652,20.362-1.31,30.434-1.748
						c89.767-4.816,179.533-9.852,269.302-14.887c46.854-2.411,94.365-5.035,139.687-17.736
						c45.322-12.481,88.891-35.91,117.573-73.129c42.694-55.174,79.914-204.496,81.227-274.338c0,0-33.986-235.367-36.933-255.759
						c23.209,39.849,57.077,84.549,94.954,111.04c37.659,26.711,92.613,34.809,128.958,6.35c1.533,0.214,3.066,0.652,4.597,1.09
						C1374.387,1868.175,1374.824,1870.142,1374.824,1870.142z"/>
				</g>
			</g>
			<g>
				<g>
					<path style="fill:#FEC9AC;" d="M1751.189,1816.721c0,0-10.29,13.791-27.805,36.348
						c-70.063,90.421-254.196,319.437-328.855,333.227c-110.786,20.804-201.429-57.58-201.429-57.58s0-0.219-0.219-0.438
						l-11.167-126.332c80.573-19.265,144.723-54.517,187.855-123.044c3.504,2.625,41.819,77.069,41.819,77.069l275.431-179.758
						l13.357,8.323L1751.189,1816.721z"/>
				</g>
			</g>
			<g style="opacity:0.5;">
				<g>
					<path style="fill:#FFAB90;" d="M1751.189,1816.721c0,0-10.29,13.791-27.805,36.348c-3.941-0.225-7.226-1.753-9.853-4.383
						c-17.515-18.174-21.895-43.789-13.355-64.149L1751.189,1816.721z"/>
				</g>
			</g>
			<g>
				<g>
					<path style="fill:#FEC9AC;" d="M607.423,1957.282l-7.226,47.295l-11.603,77.288l-181.943,171.649
						c-109.911-89.983-31.309-291.411-1.314-352.498c6.13-12.262,10.29-19.27,10.947-19.27h0.219
						C470.802,1925.098,538.674,1952.685,607.423,1957.282z"/>
				</g>
			</g>
			<g style="opacity:0.5;">
				<g>
					<path style="fill:#FFAB90;" d="M607.423,1957.282l-7.226,47.295c-16.639-1.972-33.059-5.693-49.043-10.728
						c-55.611-17.517-105.312-50.797-145.816-92.832c6.13-12.262,10.29-19.27,10.947-19.27h0.219
						C470.802,1925.098,538.674,1952.685,607.423,1957.282z"/>
				</g>
			</g>
			<g>
				<g>
					<g>
						<path style="fill:#42C1F4;" d="M1345.567,2170.333c-10.818-15.721-23.078-30.578-36.78-44.713
							c-17.453-18.03-36.348-33.752-56.396-47.31c-136.159-92.166-322.656-79.618-445.401,39.377
							c-140.919,136.302-144.38,361.022-8.077,501.797c136.447,140.775,361.167,144.381,501.941,7.933
							C1427.637,2504.672,1443.215,2310.531,1345.567,2170.333z M1188.062,2511.018c-76.589,73.993-198.469,71.974-272.606-4.327
							c-73.992-76.445-72.118-198.469,4.328-272.605c76.445-73.993,198.468-71.975,272.461,4.327
							C1266.382,2314.858,1264.362,2436.882,1188.062,2511.018z"/>
					</g>
				</g>
				<g>
					<g>
						<path style="fill:#42C1F4;" d="M1331.091,2227.826l745.08-721.811c33.58-32.531,34.43-86.125,1.899-119.705l-1.648-1.702
							c-32.531-33.58-86.125-34.43-119.705-1.899l-745.08,721.811c-33.58,32.531-34.43,86.125-1.899,119.705l1.649,1.702
							C1243.917,2259.508,1297.511,2260.358,1331.091,2227.826z"/>
					</g>
				</g>
				<g>
					<g>
						<path style="fill:#42C1F4;" d="M2166.652,1686.606l0.937-0.908c18.484-17.907,18.952-47.408,1.045-65.892l-121.896-125.826
							c-17.907-18.484-47.408-18.952-65.892-1.045l-0.937,0.907c-18.484,17.907-18.952,47.408-1.045,65.893l121.896,125.826
							C2118.667,1704.045,2148.168,1704.513,2166.652,1686.606z"/>
					</g>
				</g>
				<g>
					<g>
						<path style="fill:#42C1F4;" d="M2027.628,1752.467l0.937-0.907c18.484-17.907,18.952-47.408,1.045-65.893l-121.896-125.826
							c-17.907-18.484-47.408-18.952-65.893-1.045l-0.937,0.907c-18.484,17.907-18.952,47.408-1.045,65.893l121.896,125.826
							C1979.643,1769.906,2009.144,1770.374,2027.628,1752.467z"/>
					</g>
				</g>
			</g>
			<g>
				<g>
					<path style="fill:#FEC9AC;" d="M990.924,2241.551c-84.82,73.919-94.915,29.851-94.915,29.851
						c-221.585,73.066-374.484,75.918-489.279-17.928l181.901-171.682l321.949,104.31c0,0,48.352-61.266,66.065-44.404
						c17.713,17.032-18.37,32.789-18.37,32.789S1075.742,2167.633,990.924,2241.551z"/>
				</g>
			</g>
			<g>
				<g>
					<path style="fill:#FEC9AC;" d="M788.71,1501.224c22.331-24.086,26.491-59.99,31.309-102.251
						c28.243,27.587,70.28,54.084,123.703,44.008c10.291-1.967,19.486-5.474,27.806-10.728c1.533,9.632,3.722,18.832,6.349,27.587
						c4.818,15.983,11.824,30.217,21.677,41.822C1011.815,1615.074,780.609,1614.855,788.71,1501.224z"/>
				</g>
			</g>
			<g>
				<g>
					<path style="fill:#FEC9AC;" d="M971.551,1432.197c-8.32,5.254-17.515,8.755-27.805,10.728
						c-53.422,10.071-95.461-16.421-123.704-44.008c-26.274-25.615-40.943-52.106-41.818-52.106c0,0-63.494-24.305-51.89-68.313
						c0.875-3.501,1.97-6.35,3.503-8.756c15.763-29.56,58.677,1.529,58.677,1.529l5.254-128.956l104.437-61.744l141.22,86.701
						c0,0,0.219,2.849,0.437,7.665C1042.489,1213.471,1049.058,1385.126,971.551,1432.197z"/>
				</g>
			</g>
			<g>
				<g>
					<path style="fill:#2E363A;" d="M1096.13,1133.992c-15.983,33.499-37.439,42.041-56.269,40.945
						c-23.645-0.877-32.155-13.427-43.351-16.421c-16.362-4.376-33.527,4.156-54.108,7.438
						c-20.581,3.068-23.936-20.505-31.499-21.668c-95.606-14.701-105.312,130.928-107.722,134.868
						c-2.189,3.94-14.669-7.884-14.669-7.884s-42.914-31.088-58.677-1.529c0,0-107.283-106.19-4.817-256.169
						c50.795-74.877,214.128-93.49,274.776-23.423C1058.253,1057.799,1131.599,1058.676,1096.13,1133.992z"/>
				</g>
			</g>
			<g>
				<g>
					<g>
						<path style="fill:#4F2D2B;" d="M940.036,1347.862c-0.076-1.685,8.912,1.407,20.946-6.881c4.927-3.182,5.104-8.8,2.278-15.005
							c-1.96-5.917-4.781-12.671-6.493-19.179c-3.824-15.755-3.169-23.904-2.08-24.01c1.357-0.18,2.848,7.566,7.513,22.464
							c1.743,6.537,4.178,12.229,6.466,19.089c1.113,3.293,2.608,6.725,1.968,10.957c-0.285,4.138-3.211,8.21-6.322,10.244
							c-7.456,4.917-14.327,5.126-18.418,4.671C941.697,1349.65,939.897,1348.42,940.036,1347.862z"/>
					</g>
				</g>
			</g>
			<g>
				<g>
					<g>
						<path style="fill:#4F2D2B;" d="M899.125,1369.137c0.976-0.951,4.707,2.235,12.996,6.582c6.846,3.99,14.625,6.418,22.526,7.029
							c9.281,1.144,14.16,0.648,14.428,2.013c0.277,1.021-4.437,3.777-14.881,3.617c-8.751-0.681-17.317-3.354-24.903-7.771
							C900.601,1374.792,898.295,1369.839,899.125,1369.137z"/>
					</g>
				</g>
			</g>
			<g>
				<g>
					<g>
						<path style="fill:#4F2D2B;" d="M1018.588,1209.895c-0.63,1.181-4.603-0.287-12.517-1.69
							c-6.627-1.546-13.612-1.64-20.278-0.271c-7.94,1.185-11.952,2.547-12.564,1.325c-0.54-0.939,2.701-4.425,11.442-6.861
							c7.468-1.53,15.245-1.427,22.669,0.303C1016.022,1205.376,1019.169,1208.944,1018.588,1209.895z"/>
					</g>
				</g>
			</g>
			<g>
				<g>
					<g>
						<path style="fill:#4F2D2B;" d="M856.835,1226.926c-0.597-0.964,1.903-4.035,8.73-7.459c5.94-2.461,12.175-4.207,18.533-5.179
							c7.605-0.611,11.335,0.714,11.325,1.878c0.008,1.3-3.576,2.149-10.462,3.703c-5.911,0.906-11.715,2.53-17.239,4.818
							C861.021,1226.934,857.518,1228.066,856.835,1226.926z"/>
					</g>
				</g>
			</g>
			<g>
				<g>
					<ellipse style="fill:#4F2D2B;" cx="996.517" cy="1264.43" rx="10.776" ry="14.753"/>
				</g>
			</g>
			<g>
				<g>
					<ellipse style="fill:#4F2D2B;" cx="888.327" cy="1268.033" rx="10.776" ry="14.753"/>
				</g>
			</g>
			<g style="opacity:0.5;">
				<g>
					<path style="fill:#FFAB90;" d="M977.877,1459.84c-127.998,36.215-159.485-50.807-157.858-60.867
						c28.243,27.587,70.28,54.084,123.703,44.008c10.291-1.967,19.486-5.474,27.806-10.728
						C973.061,1441.886,975.25,1451.085,977.877,1459.84z"/>
				</g>
			</g>
			<g>
				<g>
					<path style="fill:#CE1717;" d="M607.446,1957.225c14.861-42.136,32.688-82.955,50.268-123.885
						c18.479-40.532,36.706-81.18,57.938-120.49c-14.838,42.144-32.679,82.959-50.268,123.885
						C646.895,1877.263,628.653,1917.902,607.446,1957.225z"/>
				</g>
			</g>
			<g>
				<g>
					<path style="fill:#CE1717;" d="M1181.739,2001.891c-9.594-42.119-15.979-84.706-22.63-127.252
						c-5.678-42.685-11.628-85.333-14.327-128.449c9.619,42.115,15.988,84.702,22.629,127.248
						C1173.079,1916.127,1179.012,1958.779,1181.739,2001.891z"/>
				</g>
			</g>
			<g>
				<g>
					<g>
						<path style="fill:#FFFFFF;" d="M762.567,1567.797c0.875-0.968,6.567,3.092,18.091,10.592
							c11.587,7.316,29.243,18.216,55.079,27.225c42.911,15.702,93.546,18.728,133.097-4.367
							c23.226-13.414,35.358-30.526,41.713-42.144c6.448-11.831,7.96-18.724,9.435-18.413c0.935,0.103,1.775,7.57-3.315,21.209
							c-5.007,13.352-16.945,33.303-42.064,49.062c-21.584,12.778-46.587,18.162-71.052,18.306
							c-24.567,0.127-48.833-4.704-71.701-13.049c-26.862-10.49-44.45-23.313-55.214-32.437
							C765.924,1574.448,761.776,1568.65,762.567,1567.797z"/>
					</g>
				</g>
			</g>
			<g>
				<g>
					<g>
						<path style="fill:#FFFFFF;" d="M1216.539,1941.662c-0.952-2.514,12.451-8.526,37.553-22.641
							c21.513-11.404,41.33-25.999,56.988-44.326c19.023-21.099,25.033-34.5,27.697-33.294c1.904,0.566-0.275,16.469-19.118,40.643
							c-16.768,19.626-37.816,35.058-60.26,46.95C1232.187,1941.863,1217.276,1943.77,1216.539,1941.662z"/>
					</g>
				</g>
			</g>
			<g>
				<g>
					<g>
						<path style="fill:#FFFFFF;" d="M602.787,1918.444c-0.325,2.038-18.27,2.132-52.2-8.767
							c-28.327-10.186-55.331-24.023-80.14-41.074c-28.631-21.16-39.039-35.779-37.534-37.276
							c1.908-2.054,15.105,9.198,43.918,27.955c24.016,16.506,50.172,29.911,77.594,39.77
							C586.509,1911.501,603.353,1915.635,602.787,1918.444z"/>
					</g>
				</g>
			</g>
			<g>
				<g>
					<path style="fill:#FEC9AC;" d="M1828.739,1755.6c22.77,23.746-91.603,133.417-114.373,109.671
						c-22.765-23.741-15.578-67.774,16.013-98.066C1761.97,1736.912,1805.974,1731.859,1828.739,1755.6z"/>
				</g>
			</g>
		</g>
		<g>
			<g>
				<circle style="fill:#FE7B73;" cx="2628.957" cy="3252.265" r="380.861"/>
			</g>
		</g>
		<g id="Icons_2_">
			<g id="Two-Tone_2_" transform="translate(-749.000000, -508.000000)">
				<g id="Action_2_" transform="translate(100.000000, 100.000000)">
					<g id="Two-Tone-_x2F_-Action-_x2F_-fingerprint_2_" transform="translate(646.000000, 406.000000)">
						<g>
							<g>
								<g>
									<path style="fill:#FFFFFF;" d="M2471.127,3053.347c-3.314-6.17-1.029-14.167,5.141-17.596
										c47.987-26.05,100.66-39.418,156.073-39.418c54.958,0,102.944,12.111,155.503,39.19c6.511,3.427,8.798,11.082,5.484,17.253
										c-2.285,4.684-6.742,7.312-11.311,7.312c-2.17,0-4.229-0.571-5.941-1.599c-49.588-25.479-92.434-36.334-143.735-36.334
										c-51.072,0-99.517,12.112-143.621,36.334C2482.438,3061.802,2474.784,3059.516,2471.127,3053.347z"/>
								</g>
							</g>
							<g>
								<g>
									<path style="fill:#FFFFFF;" d="M2843.827,3322.648c0,41.817-35.532,75.865-79.407,75.865
										c-43.875,0-79.407-34.048-79.407-75.865c0-27.65-23.995-50.044-53.7-50.044c-29.708,0-53.588,22.394-53.588,50.044
										c0,44.103,17.027,85.349,48.219,116.312c24.449,24.222,47.987,37.704,84.319,47.759c6.968,1.828,10.854,9.026,9.027,15.653
										c-1.258,5.942-6.742,9.826-12.112,9.826c-1.026,0-2.284-0.228-3.428-0.457c-40.902-11.426-67.753-26.622-95.859-54.157
										c-36.107-35.876-55.984-83.635-55.984-134.708c0-41.817,35.532-75.865,79.407-75.865c43.872,0,79.407,34.048,79.407,75.865
										c0,27.65,23.995,50.044,53.7,50.044c29.708,0,53.7-22.394,53.7-50.044c0-97.231-83.862-176.182-187.035-176.182
										c-73.24,0-140.306,40.789-170.471,103.972c-10.053,20.909-15.309,45.36-15.309,72.21c0,20.109,1.827,51.873,17.367,93.119
										c2.513,6.741-0.801,14.168-7.543,16.567c-6.739,2.513-14.168-1.029-16.452-7.541
										c-12.681-33.819-18.851-67.296-18.851-102.145c0-30.963,5.941-59.07,17.479-83.521
										c34.394-71.981,110.487-118.711,193.78-118.711C2748.426,3120.644,2843.827,3211.248,2843.827,3322.648z"/>
								</g>
							</g>
							<g>
								<g>
									<path style="fill:#FFFFFF;" d="M2858.567,3192.396c-5.941,4.113-13.939,2.856-18.053-3.085
										c-23.191-32.563-52.67-58.042-87.405-75.865c-74.038-37.933-168.756-37.933-242.45,0.228
										c-35.192,18.053-64.556,43.875-87.748,76.323c-2.059,3.656-5.941,5.485-10.056,5.485c-2.628,0-5.141-0.8-7.54-2.285
										c-5.827-4.228-7.2-12.226-3.085-18.053c25.593-36.219,58.043-64.554,96.774-84.435
										c81.008-41.703,184.636-42.046,265.988-0.228c38.617,19.88,71.181,47.987,96.66,83.863
										C2865.764,3179.942,2864.509,3188.283,2858.567,3192.396z"/>
								</g>
							</g>
							<g>
								<g>
									<path style="fill:#FFFFFF;" d="M2800.753,3441.017c1.372,6.969-3.314,13.711-10.511,14.967
										c-14.74,2.856-27.649,3.085-31.192,3.085c-30.734,0-57.814-7.769-79.979-22.966
										c-38.506-26.051-61.468-68.325-61.468-113.228c0-7.198,5.713-12.911,12.91-12.911c7.311,0,12.909,5.713,12.909,12.911
										c0,36.333,18.625,70.724,50.046,91.862c18.279,12.339,39.761,18.281,65.583,18.281c6.17,0,16.452-0.8,26.734-2.513
										C2792.756,3429.134,2799.498,3433.818,2800.753,3441.017z"/>
								</g>
							</g>
							<g>
								<g>
									<path style="fill:#FFFFFF;" d="M2583.552,3484.662c4.915,5.142,4.915,13.139,0,18.281
										c-2.742,2.628-6.167,3.885-9.481,3.885c-3.314,0-6.742-1.257-9.027-3.885c-22.508-22.394-34.62-36.905-51.873-68.096
										c-17.824-31.763-27.08-70.382-27.08-111.971c0-76.551,65.468-139.049,146.019-139.049
										c80.437,0,146.02,62.498,146.02,139.049c0,7.198-5.713,12.911-12.91,12.911c-7.2,0-12.912-5.713-12.912-12.911
										c0-62.383-53.928-113.227-120.198-113.227c-66.269,0-120.194,50.844-120.194,113.227c0,37.133,8.223,71.41,23.992,99.288
										C2552.361,3451.871,2563.787,3464.553,2583.552,3484.662z"/>
								</g>
							</g>
						</g>
					</g>
				</g>
			</g>
		</g>
		<g>
			<g>
				<circle style="fill:#8D7EA3;" cx="4378.192" cy="1784.873" r="204.49"/>
			</g>
		</g>
		<g>
			<g>
				<circle style="fill:#FFFFFF;" cx="4384.445" cy="1711.362" r="52.916"/>
			</g>
		</g>
		<g>
			<g>
				<path style="fill:#FFFFFF;" d="M4491.893,1881.935h-207.361c-6.016,0-11.08-5.696-9.181-11.71
					c13.93-49.072,58.884-85.476,112.704-85.476s99.091,36.404,113.021,85.476
					C4502.658,1876.238,4497.908,1881.935,4491.893,1881.935z"/>
			</g>
		</g>
		<g>
			<g>
				<path style="fill:#F3F6FD;" d="M4650,3159.435V3605.6c0,28.063-22.712,50.776-50.776,50.776H4153.06
					c-28.063,0-50.776-22.712-50.776-50.776v-446.165c0-28.063,22.713-50.776,50.776-50.776h446.165
					C4627.288,3108.658,4650,3131.372,4650,3159.435z"/>
			</g>
		</g>
		<g>
			<g>
				<path style="fill:#71C687;" d="M4517.095,3252.122v126.636c0,73.438-37.292,142.267-99.674,181.013
					c-17.362,10.778-37.359,20.829-60.303,29.181c-22.977-8.353-42.974-18.403-60.338-29.181
					c-62.382-38.747-99.672-107.575-99.672-181.013v-126.636c0-11.194,9.219-20.101,20.413-19.962
					c62.902,0.832,107.575-24.294,127.676-38.469c7.14-5.025,16.704-5.025,23.844,0c20.102,14.175,64.74,39.301,127.642,38.469
					C4507.876,3232.021,4517.095,3240.928,4517.095,3252.122z"/>
			</g>
		</g>
		<g>
			<g>
				<path style="fill:#FFFFFF;" d="M4321.422,3460.149c-4.297,0-8.595-1.64-11.876-4.921l-36.48-36.473
					c-6.562-6.553-6.562-17.19,0-23.752s17.19-6.561,23.752,0l24.604,24.596l95.959-95.959c6.561-6.561,17.19-6.561,23.751,0
					c6.562,6.561,6.562,17.191,0,23.752l-107.834,107.835C4330.018,3458.508,4325.72,3460.149,4321.422,3460.149z"/>
			</g>
		</g>
	</g>
</g>
</svg>
