<?xml version="1.0" encoding="UTF-8"?>
<svg xmlns="http://www.w3.org/2000/svg" viewBox="0 0 417.75 369.84">
  <g id="Shadow">
    <ellipse cx="208.87" cy="361.87" rx="208.87" ry="7.97" style="fill: #f5f5f5;"/>
  </g>
  <g id="Device">
    <g>
      <g id="freepik--device-1--inject-2">
        <path d="m248.98,278.99h-99.73c-11.22,0-20.3-9.1-20.93-20.18V20.45C128.94,9.1,138.03,0,149.25,0h99.73c11.22,0,20.31,9.1,20.31,20.31v238.37c0,11.22-9.1,20.3-20.31,20.31Z" style="fill: #263238;"/>
        <path d="m248.98,4.67h-25.92c-1.68,0-3.11,1.23-3.34,2.9l-.11.81c-.54,4.1-4.04,7.18-8.17,7.19h-24.63c-4.14-.02-7.63-3.09-8.17-7.19l-.1-.81c-.22-1.68-1.66-2.94-3.36-2.94h-25.92c-8.64-.03-15.67,6.95-15.7,15.59,0,.03,0,.06,0,.1v238.37c0,8.64,7,15.65,15.65,15.65h99.73c8.64,0,15.65-7,15.66-15.65V20.31c0-8.62-6.98-15.61-15.6-15.65Z" style="fill: #407bff;"/>
        <path d="m248.98,4.67h-25.92c-1.68,0-3.11,1.23-3.34,2.9l-.11.81c-.54,4.1-4.04,7.18-8.17,7.19h-24.63c-4.14-.02-7.63-3.09-8.17-7.19l-.1-.81c-.22-1.68-1.66-2.94-3.36-2.94h-25.92c-8.64-.03-15.67,6.95-15.7,15.59,0,.03,0,.06,0,.1v238.37c0,8.64,7,15.65,15.65,15.65h99.73c8.64,0,15.65-7,15.66-15.65V20.31c0-8.62-6.98-15.61-15.6-15.65Z" style="fill: #fff; isolation: isolate; opacity: .7;"/>
        <g style="opacity: .7;">
          <path d="m193.08,7.3c0,1.1-.88,1.99-1.97,2-1.1,0-1.99-.88-2-1.97,0-1.1.88-1.99,1.97-2,0,0,.02,0,.03,0,1.09,0,1.97.88,1.97,1.97Z"/>
          <path d="m207.12,5.33h-6.79c-1.09,0-1.97.88-1.97,1.97s.88,1.97,1.97,1.97h6.79c1.09,0,1.97-.88,1.97-1.97s-.88-1.97-1.97-1.97Z"/>
        </g>
        <rect x="144.46" y="13.48" width="2.1" height="2.1" style="fill: #407bff;"/>
        <polygon points="148.64 13.48 148.64 15.58 150.74 15.58 150.74 13.48 150.74 11.38 148.64 11.38 148.64 13.48" style="fill: #407bff;"/>
        <polygon points="152.84 9.29 152.84 11.38 152.84 13.48 152.84 15.58 154.94 15.58 154.94 13.48 154.94 11.38 154.94 9.29 152.84 9.29" style="fill: #407bff;"/>
        <path d="m243.03,9.43v1.53h-1.02v3.08h1.02v1.53h9.28v-6.14h-9.28Zm4.14,4.61h-3.15v-3.08h3.08l.07,3.08Z" style="fill: #407bff;"/>
      </g>
      <g>
        <rect x="158.31" y="124.43" width="81.6" height="52.3" rx="1.66" ry="1.66" style="fill: #407bff;"/>
        <rect x="169.42" y="134.83" width="16.22" height="14" rx="2.06" ry="2.06" style="fill: #fff; opacity: .6;"/>
        <g style="opacity: .3;">
          <path d="m169.42,159.5h10.55c1.2,0,1.2-1.86,0-1.86h-10.55c-1.2,0-1.2,1.86,0,1.86h0Z"/>
        </g>
        <g style="opacity: .3;">
          <path d="m185.66,159.5h10.55c1.2,0,1.2-1.86,0-1.86h-10.55c-1.2,0-1.2,1.86,0,1.86h0Z"/>
        </g>
        <g style="opacity: .3;">
          <path d="m201.89,159.5h10.55c1.2,0,1.2-1.86,0-1.86h-10.55c-1.2,0-1.2,1.86,0,1.86h0Z"/>
        </g>
        <g style="opacity: .3;">
          <path d="m218.13,159.5h10.55c1.2,0,1.2-1.86,0-1.86h-10.55c-1.2,0-1.2,1.86,0,1.86h0Z"/>
        </g>
      </g>
      <g>
        <rect x="171.71" y="31.92" width="53.29" height="49.09" rx="2.52" ry="2.52" style="fill: #407bff;"/>
        <g>
          <path d="m198.35,53h-18.58c-.58,0-.83-.73-.37-1.09l8.78-6.84,9.8-7.64c.22-.17.53-.17.75,0l9.8,7.64,8.78,6.84c.46.36.21,1.09-.37,1.09h-18.58Z" style="fill: #407bff;"/>
          <g style="opacity: .7;">
            <path d="m198.35,53h-18.58c-.58,0-.83-.73-.37-1.09l8.78-6.84,9.8-7.64c.22-.17.53-.17.75,0l9.8,7.64,8.78,6.84c.46.36.21,1.09-.37,1.09h-18.58Z" style="fill: #fff;"/>
          </g>
          <path d="m211.49,51.09h-26.28c-.24,0-.46-.15-.54-.38-.08-.23,0-.48.19-.63l13.14-10.24c.21-.16.49-.16.69,0l13.14,10.24c.19.15.27.4.19.63s-.29.38-.54.38Zm-25.39-.87h24.49l-12.25-9.54-12.25,9.54Z" style="fill: #407bff;"/>
          <rect x="183.43" y="53" width="3.55" height="15.17" style="fill: #407bff;"/>
          <g style="opacity: .7;">
            <rect x="183.43" y="53" width="3.55" height="15.17" style="fill: #fff;"/>
          </g>
          <rect x="191.48" y="53" width="3.55" height="15.17" style="fill: #407bff;"/>
          <g style="opacity: .7;">
            <rect x="191.48" y="53" width="3.55" height="15.17" style="fill: #fff;"/>
          </g>
          <rect x="202.41" y="53" width="3.55" height="15.17" style="fill: #407bff;"/>
          <g style="opacity: .7;">
            <rect x="202.41" y="53" width="3.55" height="15.17" style="fill: #fff;"/>
          </g>
          <rect x="210.33" y="53" width="3.55" height="15.17" style="fill: #407bff;"/>
          <g style="opacity: .7;">
            <rect x="210.33" y="53" width="3.55" height="15.17" style="fill: #fff;"/>
          </g>
          <path d="m217.29,72.08h-37.88c-.54,0-.94-.51-.81-1.04l.57-2.24c.09-.37.43-.63.81-.63h36.59c.36,0,.68.23.79.58l.71,2.24c.17.54-.23,1.09-.79,1.09Z" style="fill: #407bff;"/>
          <g style="opacity: .7;">
            <path d="m217.29,72.08h-37.88c-.54,0-.94-.51-.81-1.04l.57-2.24c.09-.37.43-.63.81-.63h36.59c.36,0,.68.23.79.58l.71,2.24c.17.54-.23,1.09-.79,1.09Z" style="fill: #fff;"/>
          </g>
          <path d="m198.35,49.1c-1.42,0-2.58-1.16-2.58-2.58s1.16-2.58,2.58-2.58,2.58,1.16,2.58,2.58-1.16,2.58-2.58,2.58Zm0-4.29c-.94,0-1.71.77-1.71,1.71s.77,1.71,1.71,1.71,1.71-.77,1.71-1.71-.77-1.71-1.71-1.71Z" style="fill: #407bff;"/>
          <rect x="180.13" y="53" width="36.45" height="2.2" rx=".62" ry=".62" style="fill: #407bff;"/>
          <g style="opacity: .7;">
            <rect x="180.13" y="53" width="36.45" height="2.2" rx=".62" ry=".62" style="fill: #fff;"/>
          </g>
          <path d="m215.77,53.56h-34.84c-.24,0-.44-.2-.44-.44s.2-.44.44-.44h34.84c.24,0,.44.2.44.44s-.2.44-.44.44Z" style="fill: #407bff;"/>
          <path d="m215.77,70.63h-34.84c-.24,0-.44-.2-.44-.44s.2-.44.44-.44h34.84c.24,0,.44.2.44.44s-.2.44-.44.44Z" style="fill: #407bff;"/>
        </g>
      </g>
      <rect x="167.92" y="89.64" width="62.4" height="2.89" style="fill: #407bff;"/>
      <g>
        <rect x="153.78" y="104.75" width="31.29" height="2.89" style="fill: #407bff;"/>
        <rect x="191.47" y="104.75" width="22.82" height="2.89" style="fill: #407bff;"/>
        <rect x="220.77" y="104.75" width="22.82" height="2.89" style="fill: #407bff;"/>
        <rect x="153.78" y="104.75" width="31.29" height="2.89" style="isolation: isolate; opacity: .3;"/>
        <rect x="191.47" y="104.75" width="22.82" height="2.89" style="isolation: isolate; opacity: .3;"/>
        <rect x="220.77" y="104.75" width="22.82" height="2.89" style="isolation: isolate; opacity: .3;"/>
      </g>
      <g>
        <circle cx="165.25" cy="198.91" r="4.49" style="fill: #407bff;"/>
        <rect x="179.56" y="196.7" width="58.63" height="2.73" style="fill: #407bff;"/>
        <circle cx="164.5" cy="216.81" r="4.49" style="fill: #407bff;"/>
        <rect x="179.56" y="214.65" width="58.63" height="2.73" style="fill: #407bff;"/>
        <circle cx="165.25" cy="233.96" r="4.49" style="fill: #407bff;"/>
        <rect x="179.56" y="232.59" width="58.63" height="2.73" style="fill: #407bff;"/>
        <rect x="179.56" y="196.7" width="58.63" height="2.73" style="isolation: isolate; opacity: .3;"/>
        <rect x="179.56" y="214.65" width="58.63" height="2.73" style="isolation: isolate; opacity: .3;"/>
        <rect x="179.56" y="232.59" width="58.63" height="2.73" style="isolation: isolate; opacity: .3;"/>
      </g>
      <path d="m132.52,213.76c0-2.4,8.69-33.64,27.82-66.48,19.12-32.84,42.77-10.41,65.72-46.45,22.95-36.04,25.53-96.2,25.53-96.2h-26.72s-5.07,67.37-29.41,76.18c-24.34,8.81-62.94,62.47-62.94,62.47v70.48Z" style="fill: #fff; opacity: .2;"/>
      <path d="m149.35,274.73h15.65s86.72-123.7,99.59-145.94v-23.98c-11.82,27.8-115.23,169.92-115.23,169.92Z" style="fill: #fff; opacity: .2;"/>
    </g>
  </g>
  <g id="Character">
    <g>
      <g>
        <polygon points="104.77 315.83 93.42 317.65 102.71 343.96 114.07 342.15 104.77 315.83" style="fill: #f2b269;"/>
        <path d="m98.54,339.8l4.01-1.59c.91-.36,1.93-.23,2.76.29,3.57,2.24,4.84.36,6.17-3.62,1.53-.82,2.69.84,3.01,1.29l7.34,9.73c.62.81.47,1.97-.34,2.59-.14.11-.3.2-.47.26-4.88,1.94-7.18,2.85-13.25,5.26l-18.56,7.37c-5.06,2.01-8.13-2.67-6.23-3.97,8.55-5.79,14.09-11.18,15.9-15.06.35-.69-.35-.83-.35-2.54Z" style="fill: #263238;"/>
        <path d="m94.03,345.9c1.26-.53,2.45-1.2,3.57-1.98.1-.09.11-.24.02-.34-.05-.05-.12-.08-.19-.08-.67-.05-6.62-.4-7.53.99-.17.25-.19.57-.05.84.21.52.66.9,1.2,1.04,1.01.17,2.06,0,2.97-.47Zm2.66-1.97c-1.37.86-3.98,2.32-5.46,1.92-.39-.12-.71-.39-.88-.76-.07-.11-.07-.25.01-.35.5-.76,3.88-.9,6.32-.81Z" style="fill: #407bff;"/>
        <path d="m97.55,343.95c.06,0,.11-.03.16-.06.04-.09.03-.19-.03-.26-.08-.21-3.22-4.68-5.85-3.28-.65.36-.71.77-.63,1.05.35,1.38,4.49,2.6,6.25,2.63l.1-.09Zm-5.29-3.32c1.74-.69,3.9,1.79,4.7,2.81-1.98-.21-5.09-1.36-5.27-2.22-.03-.07-.1-.25.39-.5l.18-.09Z" style="fill: #407bff;"/>
        <path d="m101.26,345.19c-.07,0-.14-.02-.2-.07-1.13-.83-2.63-1.13-4-.79-.18.04-.37-.07-.42-.25-.04-.18.07-.37.25-.42,1.56-.39,3.27-.05,4.57.9.15.11.19.33.08.48-.07.09-.17.14-.28.14Z" style="fill: #407bff;"/>
        <path d="m99.51,348.06c-.07,0-.14-.02-.2-.07-1.13-.83-2.63-1.13-4-.79-.19.04-.37-.07-.42-.25-.04-.18.07-.37.25-.42,1.56-.39,3.27-.05,4.57.9.15.11.19.33.08.48-.07.09-.17.14-.28.14Z" style="fill: #407bff;"/>
        <path d="m97.04,350.87c-.07,0-.14-.02-.2-.07-1.14-.83-2.63-1.13-4-.79-.18.04-.37-.07-.42-.25-.04-.18.07-.37.25-.42,1.56-.39,3.27-.05,4.57.9.15.11.19.33.08.48-.07.09-.17.14-.28.14Z" style="fill: #407bff;"/>
        <path d="m121.84,345.89l-7.34-9.73c-.33-.44-1.48-2.1-3-1.29l-6.73-19.04-11.35,1.81,7.49,21.21-2.37.94c0,1.71.7,1.85.35,2.54-.18.38-.4.78-.65,1.19-.2,0-.39.03-.59.05-.32-.52-3.3-4.57-5.82-3.22-.65.36-.71.77-.63,1.05.2.79,1.65,1.53,3.18,2.02-1.87.04-3.97.27-4.48,1.06-.17.25-.19.57-.05.84.21.52.66.9,1.2,1.04,1.01.17,2.06,0,2.97-.47,1.02-.43,1.99-.97,2.92-1.57.04,0,.07.03.11.02.23-.06.47-.07.71-.09-.47.69-1.03,1.41-1.68,2.17-.32.02-.63.05-.94.12-.19.05-.3.23-.25.42.05.18.23.3.42.25.02,0,.05,0,.07,0-.62.67-1.3,1.36-2.04,2.06-.22.03-.45.03-.67.09-.19.05-.3.23-.25.42.02.09.08.16.15.21-2.55,2.33-5.77,4.83-9.59,7.42-1.9,1.3,1.18,5.98,6.23,3.97l18.56-7.37c6.07-2.41,8.37-3.32,13.25-5.26.17-.06.33-.15.47-.26.81-.62.96-1.78.34-2.59Zm-30.15-4.66c-.03-.07-.1-.25.39-.5l.18-.09c1.74-.69,3.9,1.79,4.7,2.81-1.98-.21-5.09-1.36-5.27-2.22Zm-.45,4.63c-.39-.12-.71-.39-.88-.76-.07-.11-.07-.25.01-.35.48-.73,3.59-.89,6-.82.09.02.18.03.27.04-1.38.87-3.94,2.28-5.4,1.89Z" style="opacity: .3;"/>
      </g>
      <g>
        <polygon points="120.09 323.67 108.71 322.07 109.86 349.95 121.25 351.55 120.09 323.67" style="fill: #f2b269;"/>
        <path d="m107.09,344.75l4.31-.34c.97-.08,1.91.34,2.55,1.08,2.75,3.19,4.52,1.76,6.96-1.64,1.7-.34,2.32,1.6,2.5,2.11l4.15,11.45c.36.96-.13,2.02-1.08,2.38-.17.06-.35.1-.53.11-5.23.42-7.7.62-14.21,1.14l-19.9,1.59c-5.43.43-6.99-4.94-4.79-5.63,9.87-3.02,16.75-6.55,19.63-9.72.54-.56-.09-.89.41-2.53Z" style="fill: #263238;"/>
        <path d="m100.99,349.25c1.36-.14,2.69-.42,3.99-.84.12-.05.17-.2.12-.32-.03-.07-.09-.11-.16-.13-.63-.25-6.21-2.33-7.49-1.27-.24.19-.35.49-.29.79.05.56.36,1.06.84,1.35.92.46,1.96.61,2.98.43Zm3.12-1.1c-1.56.42-4.49,1.05-5.78.24-.34-.22-.56-.58-.62-.98-.04-.12.01-.26.11-.33.7-.58,3.97.28,6.28,1.08Z" style="fill: #407bff;"/>
        <path d="m104.93,348.43c.06.01.11,0,.17-.01.07-.07.09-.17.05-.26-.02-.22-1.71-5.42-4.63-4.85-.72.16-.91.52-.91.82-.07,1.42,3.53,3.81,5.2,4.35l.12-.05Zm-4.08-4.72c1.87-.15,3.2,2.86,3.66,4.06-1.83-.79-4.47-2.8-4.38-3.67,0-.07-.02-.27.52-.37l.2-.03Z" style="fill: #407bff;"/>
        <path d="m104.37,348.31c1.5.08,2.95.86,3.84,2.06" style="fill: none; stroke: #407bff; stroke-linecap: round; stroke-linejoin: round; stroke-width: .5px;"/>
        <path d="m101.86,350.54c1.5.08,2.95.86,3.84,2.06" style="fill: none; stroke: #407bff; stroke-linecap: round; stroke-linejoin: round; stroke-width: .5px;"/>
        <path d="m98.66,352.5c1.5.08,2.95.86,3.84,2.06" style="fill: none; stroke: #407bff; stroke-linecap: round; stroke-linejoin: round; stroke-width: .5px;"/>
      </g>
      <path d="m101.22,150.52s6.27,3.17,17.54,2.12c18.33-1.7,32.27-8.35,32.27-8.35" style="fill: none; isolation: isolate; opacity: .2; stroke: #000; stroke-linecap: round; stroke-linejoin: round; stroke-width: .5px;"/>
      <g>
        <path d="m102.4,152.64s-33.98,67.46-35.67,92.52c-1.87,27.48,30.96,91.5,30.96,91.5l17.58-8.2s-22.85-60.64-21.22-81.7c5.19-30.12,41.76-89.12,41.76-89.12l-33.4-4.99Z" style="fill: #407bff;"/>
        <path d="m120.06,168.63c-8.21,3.73-10.93,26.5-10.57,36.83,5.77-12.31,12-24.35,16.98-33.56-1.11-.67-5.28-3.91-6.41-3.27Z" style="isolation: isolate; opacity: .2;"/>
        <path d="m102.16,148.09l49.28,1.6s.32,15.12-3.41,26.38l-48.89-15.94,3.02-12.04Z" style="fill: #407bff;"/>
        <path d="m118.91,151.64s-10.91,75.52-11.27,100.87c-.4,27.78-.18,84.15-.18,84.15h17.16s7.11-52.1,9.9-79.02c3.17-30.67,15.57-91.37,15.57-91.37l-31.18-14.63Z" style="fill: #407bff;"/>
        <polygon points="107.39 305.99 107.44 332.11 104.51 333.48 105.7 300.78 107.39 305.99" style="isolation: isolate; opacity: .2;"/>
        <path d="m133.8,160.95c.64,1.77,2.05,3.24,3.79,3.96s3.77.68,5.48-.11" style="fill: none; isolation: isolate; opacity: .2; stroke: #000; stroke-linecap: round; stroke-linejoin: round; stroke-width: .5px;"/>
      </g>
      <g>
        <path d="m102.5,114.94c-.25.57-.53,1.13-.82,1.69-3.26,6.24-6.38,10.41-9.23,12.81-3.91,3.26-7.36,3.17-10.06.39-4.67-4.82-.33-16.93-.12-16.93s5.36,1.29,5.36,1.29l.42-1.29c.61-1.92,1.86-5.67,3.46-9.78,3.08-7.81,7.54-16.95,11.7-17.38,0-.1,5.73,14.96-.72,29.21Z" style="fill: #263238;"/>
        <polygon points="97.85 113.13 96.61 124.88 94.36 127.6 95.39 112.45 97.85 113.13" style="isolation: isolate; opacity: .2;"/>
        <path d="m90.22,124.12c.05-2.93-.19-5.85-.7-8.73l-1.91-1.15c.61-1.72,1.54-5.2,3.14-8.88,5.53,7.54-.27,18.36-.52,18.76Z" style="isolation: isolate; opacity: .2;"/>
        <path d="m149.29,122.66c.47,11.87,2.32,24.89,2.17,27.86-15.69,9.38-44.66,10.93-51.39,5.7-.2-1.29,1.53-5.2.38-5.7-10.98-4.83,1.99-64.66,2.78-64.89,4.22-.97,8.51-1.65,12.83-2.03,6.32-.32,12.65-.32,18.98,0,5.03.27,10.03.82,15,1.66-1.93,8.69-3.01,17.55-3.23,26.45-.24,5.42,2.31,6.23,2.5,10.95Z" style="fill: #263238;"/>
        <path d="m87.74,100.77c-1.78.32-3.54.78-5.25,1.37-.44.3-1.4,5.83-1.26,6.92.08.57,2.51,5.49,2.51,5.49.99.54,4.01.44,4.01.44v-14.22Z" style="fill: #f2b269;"/>
        <path d="m126.54,94.79s13.22-6.43,15.83-11.41c2.61-4.98-3.18-10.01-12.87-10.05s-19.53,3.86-18.34,11.32c1.19,7.45,5.62,10.08,5.62,10.08,0,0,2.86-3.48,9.77.06Z" style="fill: #263238;"/>
        <path d="m131.35,84.06c-3.86,2.95-8.01,8.16-10.48,8.08-2.1-.07-3.2-3.95-4.15-5.82,2.65-4.04,1.44-3.99-.79-7.58l9.67-13.95c.57,6.51.07,16.3,5.75,19.26Z" style="fill: #f2b269;"/>
        <path d="m121.68,70.49l-5.77,8.26c.65,1.02,1.57,1.93,2.02,3.05,2.72-1.23,5.23-4.36,5.49-7.6.21-2.05-.95-3.73-1.74-3.71Z" style="isolation: isolate; opacity: .2;"/>
        <path d="m98.25,106.98c.15.47-.09.99-.52,1.15-.04.01-.08.03-.12.03l-9.16,1.95c-.51.07-.99-.26-1.15-.79l-5.64-19.18c-.14-.53.14-1.09.62-1.26l9.16-1.95c.56-.05,1.08.33,1.25.92l5.57,19.13Z" style="fill: #263238;"/>
        <path d="m98.25,106.98c.15.47-.09.99-.52,1.15-.04.01-.08.03-.12.03l-9.16,1.95c-.51.07-.99-.26-1.15-.79l-5.64-19.18c-.14-.53.14-1.09.62-1.26l9.16-1.95c.56-.05,1.08.33,1.25.92l5.57,19.13Z" style="fill: #fff; isolation: isolate; opacity: .2;"/>
        <path d="m91.3,88.08c-.15-.51-.57-.85-1.04-.9l-7.99,1.7c-.49.16-.77.72-.62,1.26l5.64,19.18c.14.44.5.73.92.78l8.02-1.7s.08-.02.12-.03c.43-.16.67-.67.52-1.15l-5.57-19.13Z" style="isolation: isolate; opacity: .5;"/>
        <g>
          <path d="m103.64,106.69l-7.93-5.2.15,11.82s7.84,3.34,9.22-.85l-1.44-5.77Z" style="fill: #f2b269;"/>
          <path d="m87.44,108.44l.04.66c.14,2.44,2.18,4.33,4.62,4.28h4.01s-.4-11.89-.4-11.89l-3.97,1.03c-2.66.69-4.46,3.17-4.3,5.91Z" style="fill: #f2b269;"/>
          <path d="m103.22,106.41c2.45,1.16,12.71,8.98,12.71,8.98l-5.16,6.17-8.75-8.74,1.19-6.42Z" style="fill: #f2b269;"/>
        </g>
        <path d="m107.39,119.85s16.87,23.73,28.4,18.76c11.53-4.97,13.49-15.94,13.49-15.94l-14.78,9.24-27.11-14.13v2.08Z" style="isolation: isolate; opacity: .2;"/>
        <path d="m109.76,107.74s20.76,12.24,23,13.03c2.24.79,6.52-17.74,8.08-22.69,1.56-4.95,5.54-12.32,9.07-12.82,0,0,11.36-.47,6.41,18.35-4.95,18.82-12.91,32.15-21.85,32.46s-28.09-17.87-28.09-17.87l3.38-10.46Z" style="fill: #263238;"/>
        <path d="m83.39,101.88c1.68-.75,3.37-1.51,5.16-1.94.26-.06.54-.12.8-.07.27.05.52.24.58.5.07.34-.19.65-.44.89-1.27,1.22-2.73,2.25-4.3,3.06" style="fill: #f2b269;"/>
        <path d="m106.38,118.2l3.38-10.46s20.76,12.24,23,13.03c2.24.79,7.74-16.36,9.3-21.31" style="fill: none; isolation: isolate; opacity: .2; stroke: #000; stroke-linecap: round; stroke-linejoin: round; stroke-width: .5px;"/>
        <path d="m141.89,84.15s-15.82,12.5-19.86,12.83c0,0,15.58-3.37,19.86-12.83Z" style="isolation: isolate; opacity: .2;"/>
        <path d="m118.81,96.24c-.5-1.47-1.63-3.94-3.04-4.6-.36-.17-.75-.3-1.15-.27-.4.03-.8.26-.94.63-.23.58.22,1.19.64,1.65.57.63,1.12,1.19,1.9,1.5.78.31,1.81,1,2.6,1.09" style="fill: none; stroke: #fff; stroke-linecap: round; stroke-linejoin: round; stroke-width: .25px;"/>
        <path d="m119.01,96.23c1.56.03,4.26-.18,5.36-1.29.28-.28.54-.61.64-.99.11-.38.03-.84-.27-1.1-.47-.41-1.19-.2-1.77.03-.78.32-1.5.64-2.06,1.28-.55.63-1.56,1.36-1.92,2.07" style="fill: none; stroke: #fff; stroke-linecap: round; stroke-linejoin: round; stroke-width: .25px;"/>
        <path d="m118.86,96.48c-1.04,4.41-1.52,8.96-1.41,13.49" style="fill: none; stroke: #fff; stroke-linecap: round; stroke-linejoin: round; stroke-width: .25px;"/>
        <path d="m119.15,96.24c-.46,4.57,1.06,9.89,2.96,14.07" style="fill: none; stroke: #fff; stroke-linecap: round; stroke-linejoin: round; stroke-width: .25px;"/>
        <path d="m100.85,132.7c.16.05,14.65.47,14.65.47,0,0,8.25,7.42,12,8.15l.83,6.77s-12.41,5.48-24.98,1.24c-9.25-3.12-2.51-16.63-2.51-16.63Z" style="isolation: isolate; opacity: .2;"/>
        <path d="m87.95,91.47c.15.6-.11,1.18-.57,1.3-.47.12-.97-.27-1.12-.87-.15-.6.11-1.18.57-1.3.47-.12.97.27,1.12.87Z" style="fill: #fff;"/>
        <path d="m133.8,121.89s1.91,7.19,3.03,6.11c1.12-1.08-.5-3.56-.5-3.56,0,0,5.15,2.3,3.66.56-1.49-1.74-6.19-3.11-6.19-3.11Z" style="isolation: isolate; opacity: .2;"/>
      </g>
      <g>
        <path d="m105.23,52.5c4.12,1.63,3.41,6.1-3.27,14.35-4.23-3.53-6.61-11.7-4.48-14.35,2.14-2.65,4.15-1.4,7.75,0Z" style="fill: #263238;"/>
        <path d="m121.45,50.39c-4.08-5.37-11.75-6.41-17.12-2.33-7.4,5.64-5.01,18.59-1.03,25.72,4.44,7.94,16.07,8.97,20.7.66,3.09-5.54,1.55-10.5-.32-19.15-.37-1.78-1.13-3.46-2.24-4.9Z" style="fill: #f2b269;"/>
        <g>
          <path d="m112.04,62.38c.22.9-.2,1.73-.81,1.83-.61.1-1.2-.57-1.36-1.48-.16-.91.21-1.74.81-1.83.59-.1,1.2.55,1.36,1.48Z" style="fill: #263238;"/>
          <path d="m104.05,64.07c.22.9-.21,1.74-.81,1.83-.59.1-1.2-.57-1.36-1.48-.16-.91.21-1.74.81-1.83.59-.1,1.21.61,1.36,1.48Z" style="fill: #263238;"/>
          <path d="m99.99,59.64c.15.05.31.02.43-.08.79-.73,1.87-1.05,2.93-.85.22.06.45-.07.52-.29.06-.22-.07-.45-.29-.52,0,0,0,0,0,0-1.33-.28-2.71.1-3.71,1.03-.18.15-.2.41-.05.59,0,0,0,0,0,0,.05.05.11.09.17.12Z" style="fill: #263238;"/>
          <path d="m112.6,57.74c.08-.02.16-.06.22-.12.12-.2.06-.46-.14-.58,0,0,0,0,0,0-1.15-.73-2.59-.85-3.84-.32-.21.1-.3.35-.19.56h0c.11.21.35.29.56.19h0c1-.38,2.13-.27,3.04.3.12.04.25.03.36-.03Z" style="fill: #263238;"/>
        </g>
        <g>
          <path d="m118.43,48.58c-3.73,2.38,4.08,12.76,7.34,22.48,7.6-8.16,2.88-21.75.24-23.95-2.63-2.2-4.29-.59-7.58,1.47Z" style="fill: #263238;"/>
          <path d="m130.52,60.8c-.17,2.43-1.29,4.69-3.13,6.28-2.44,2.1-5.02.24-5.49-2.78-.39-2.69.36-7.09,3.38-8,3.02-.91,5.41,1.51,5.24,4.49Z" style="fill: #f2b269;"/>
          <path d="m124.07,64.13c-.37-1.6.01-3.36,1.01-4.67.42-.56,1.1-1.07,1.77-.85" style="fill: none; opacity: .1; stroke: #000; stroke-miterlimit: 10; stroke-width: .5px;"/>
        </g>
        <g>
          <path d="m110.46,70.6c1.7-.85,3.2-2.05,4.4-3.52.21.25.38.53.51.83.24.53.35,1.11.32,1.69-.07,1.19-.8,2.61-3.31,3.88-.18.1-.37.2-.56.28-.69-.95-1.44-1.85-2.26-2.7,0,0,.35-.16.9-.46Z" style="fill: #263238;"/>
          <path d="m114.81,67.09c.21.25.38.53.51.83-.37,1.09-1.86,2.25-4.22,3.47l-.69-.79c1.7-.85,3.2-2.05,4.4-3.52Z" style="fill: #fff;"/>
          <path d="m113.18,71.56c.71-.8,1.56-1.46,2.51-1.96-.07,1.19-.8,2.61-3.31,3.88.06-.71.34-1.37.8-1.91Z" style="fill: #ff3636;"/>
        </g>
        <path d="m106.09,62.18c-.52,2.52-1.39,4.97-2.59,7.25,1.21.59,2.61.61,3.84.07l-1.25-7.32Z" style="fill: #de842c;"/>
        <path d="m123.69,49.15s.99-3.33-5.27-6.83-16.79-1.27-23.79,3.03c-7,4.3.93,10.47,4.21,10.76l-.87-1.15c3.51.32,7.06-.07,10.4-1.15l-2.05-.75s13.14-1.66,17.38-3.91Z" style="fill: #263238;"/>
      </g>
    </g>
  </g>
</svg>