<?xml version="1.0" encoding="UTF-8"?>
<svg xmlns="http://www.w3.org/2000/svg" viewBox="0 0 1042.08 812.69">
  <g style="isolation: isolate;">
    <g id="Layer_1" data-name="Layer 1">
      <g>
        <path d="m59.17,611.88c-.14,0-.28-.02-.42-.06-4.18-1.23-8.32-2.91-12.3-4.98-.73-.38-1.02-1.29-.64-2.02.38-.73,1.29-1.02,2.02-.64,3.81,1.98,7.77,3.59,11.76,4.76.79.23,1.25,1.07,1.01,1.86-.19.65-.79,1.08-1.44,1.08Zm-22.97-11.86c-.32,0-.64-.1-.91-.31-3.45-2.65-6.75-5.65-9.79-8.89-.57-.6-.54-1.55.07-2.12.6-.57,1.55-.54,2.12.07,2.93,3.13,6.11,6.01,9.44,8.57.66.5.78,1.45.28,2.1-.3.38-.74.59-1.19.59Zm-17.73-18.87c-.48,0-.95-.23-1.24-.66-1.22-1.8-2.39-3.66-3.47-5.54-1.1-1.91-2.14-3.9-3.11-5.91-.36-.75-.05-1.64.7-2,.75-.36,1.64-.05,2,.7.94,1.94,1.95,3.87,3.01,5.72,1.04,1.82,2.17,3.62,3.35,5.35.47.69.29,1.62-.4,2.08-.26.18-.55.26-.84.26Zm-11.3-23.32c-.63,0-1.22-.4-1.43-1.03-1.33-4.08-2.46-8.37-3.33-12.74-.16-.81.37-1.6,1.18-1.76.81-.16,1.6.36,1.76,1.18.85,4.26,1.94,8.43,3.24,12.4.26.79-.17,1.63-.96,1.89-.15.05-.31.07-.47.07Zm-5.13-25.44c-.77,0-1.42-.59-1.49-1.37-.36-3.98-.54-8.07-.54-12.18v-.95c0-.83.68-1.49,1.5-1.49h0c.83,0,1.5.68,1.49,1.51v.93c0,4.01.17,8.02.53,11.91.07.83-.53,1.55-1.36,1.63-.05,0-.09,0-.14,0Zm.16-25.96c-.05,0-.1,0-.16,0-.82-.08-1.42-.82-1.34-1.65.47-4.56,1.18-8.93,2.12-13.01.19-.81.98-1.31,1.8-1.13.81.18,1.31.99,1.13,1.8-.91,3.95-1.6,8.21-2.06,12.64-.08.77-.73,1.35-1.49,1.35Zm5.95-25.22c-.19,0-.38-.04-.56-.11-.77-.31-1.14-1.19-.83-1.95,1.55-3.81,3.39-7.42,5.48-10.71.22-.35.45-.7.68-1.05.46-.69,1.39-.88,2.08-.42.69.46.88,1.39.42,2.08-.22.33-.43.66-.65,1-1.99,3.14-3.75,6.59-5.23,10.23-.24.58-.8.94-1.39.94Zm50.88-2.85c-1.7,0-3.36-.24-4.93-.7-.79-.24-1.25-1.07-1.01-1.86.24-.8,1.07-1.24,1.86-1.01,3.64,1.08,8.05.58,11.45-1.28.72-.4,1.64-.13,2.04.6.4.73.13,1.64-.6,2.04-2.67,1.46-5.71,2.23-8.81,2.23Zm-14.64-8.38c-.48,0-.95-.23-1.24-.65-2.45-3.55-4.03-7.76-4.58-12.19l-.07-.6c-.09-.82.51-1.56,1.33-1.65.82-.09,1.56.51,1.65,1.33l.06.56c.48,3.88,1.93,7.74,4.07,10.85.47.68.3,1.62-.38,2.09-.26.18-.56.27-.85.27Zm29.63-4.01s-.07,0-.1,0c-.83-.06-1.45-.77-1.4-1.6.02-.27.03-.54.03-.82,0-3.49-1.49-7.1-4.08-9.91-.56-.61-.52-1.56.08-2.12.61-.56,1.56-.53,2.12.08,3.1,3.36,4.88,7.71,4.88,11.95,0,.34-.01.68-.03,1.02-.05.79-.71,1.4-1.5,1.4Zm-51.44-6.13c-.4,0-.81-.16-1.1-.48-.56-.61-.53-1.56.08-2.12,3.36-3.1,7.02-5.71,10.88-7.75.73-.39,1.64-.11,2.03.63s.11,1.64-.63,2.03c-3.63,1.92-7.07,4.37-10.24,7.3-.29.27-.65.4-1.02.4Zm35.7-11.74c-.1,0-.21-.01-.31-.03-2.4-.51-5.03-.7-7.64-.58-1.56.07-3.14.25-4.7.53-.81.15-1.59-.4-1.74-1.21-.15-.82.4-1.59,1.21-1.74,1.69-.3,3.4-.5,5.09-.58,2.88-.13,5.76.08,8.41.64.81.17,1.33.97,1.16,1.78-.15.71-.77,1.19-1.47,1.19Zm-17.22-3.11c-.12,0-.24-.01-.36-.04-.8-.2-1.3-1.01-1.1-1.81.79-3.24,1.94-6.59,3.51-10.25.32-.75.65-1.49,1-2.23.35-.75,1.24-1.08,1.99-.73.75.35,1.08,1.24.73,1.99-.33.71-.65,1.43-.96,2.16-1.5,3.51-2.6,6.71-3.35,9.78-.17.68-.78,1.14-1.46,1.14Zm10.75-23.54c-.29,0-.57-.08-.83-.25-.69-.46-.88-1.39-.42-2.08,2.41-3.64,5.14-7.15,8.09-10.44.55-.62,1.5-.67,2.12-.12.62.55.67,1.5.11,2.12-2.85,3.18-5.49,6.58-7.82,10.1-.29.44-.77.67-1.25.67Zm17.3-19.3c-.43,0-.85-.18-1.15-.54-.53-.64-.45-1.58.19-2.11,3.38-2.83,6.98-5.44,10.7-7.74.7-.44,1.63-.22,2.06.49.44.7.22,1.63-.49,2.06-3.6,2.23-7.08,4.75-10.35,7.49-.28.24-.62.35-.96.35Zm22.04-13.62c-.58,0-1.14-.34-1.38-.91-.33-.76.03-1.64.79-1.97,4.09-1.76,8.31-3.18,12.52-4.24.8-.2,1.62.29,1.82,1.09.2.8-.29,1.62-1.09,1.82-4.06,1.02-8.12,2.4-12.07,4.09-.19.08-.39.12-.59.12Zm38.09-6.06c-.05,0-.11,0-.16,0-4.16-.45-8.45-.51-12.71-.19-.82.07-1.55-.56-1.61-1.38-.06-.83.56-1.55,1.38-1.61,4.43-.33,8.91-.27,13.25.2.82.09,1.42.83,1.33,1.65-.08.77-.73,1.34-1.49,1.34Z" style="fill: #8052ba;"/>
        <g>
          <g>
            <path d="m852.29,753.2V127.55c0-16.97-16.25-30.73-36.29-30.73h-470.16c-20.04,0-36.29,13.76-36.29,30.73v625.65c0,16.97,16.25,30.73,36.29,30.73h470.16c20.04,0,36.29-13.76,36.29-30.73Z" style="fill: #8476ba;"/>
            <path d="m841.43,126.47v594.42c0,11.29-11.41,20.46-25.43,20.46h-470.17c-14.03,0-25.43-9.17-25.43-20.46V126.47c0-11.28,11.4-20.45,25.43-20.45h470.17c14.02,0,25.43,9.17,25.43,20.45Z" style="fill: #fff;"/>
            <path d="m841.43,126.47v23.75H320.41v-23.75c0-11.28,11.4-20.45,25.43-20.45h470.17c14.02,0,25.43,9.17,25.43,20.45Z" style="fill: #ffb83d;"/>
          </g>
          <g>
            <rect x="385.5" y="120.93" width="356.35" height="17.8" rx="7" ry="7" style="fill: #fff;"/>
            <rect x="329.94" y="120.93" width="44.59" height="17.8" rx="7" ry="7" style="fill: #fff;"/>
            <rect x="751.61" y="120.93" width="40.49" height="17.8" rx="7" ry="7" style="fill: #fff;"/>
            <rect x="801.36" y="120.93" width="29.02" height="3.15" rx="1.24" ry="1.24" style="fill: #fff;"/>
            <rect x="801.36" y="128.25" width="29.02" height="3.15" rx="1.24" ry="1.24" style="fill: #fff;"/>
            <rect x="801.36" y="135.58" width="29.02" height="3.15" rx="1.24" ry="1.24" style="fill: #fff;"/>
          </g>
          <g>
            <ellipse cx="565.48" cy="716.56" rx="6.97" ry="6.72" style="fill: #ffb83d;"/>
            <ellipse cx="594.9" cy="716.56" rx="6.97" ry="6.72" style="fill: #9ead39;"/>
            <ellipse cx="624.31" cy="716.56" rx="6.97" ry="6.72" style="fill: #ff699b;"/>
          </g>
          <g>
            <path d="m590.32,307.77c-13.98,0-27.32-4.85-37.93-13.72l38.56-40.54,48.13,28.66c-4.98,7.24-11.56,13.32-19.2,17.73-8.94,5.15-19.16,7.88-29.55,7.88Z" style="fill: #ff699b;"/>
            <path d="m593.88,245.42v-55.12c29.73,1.77,53.6,25.53,55.38,55.12h-55.38Z" style="fill: #ff699b;"/>
            <path d="m614.3,254.54h46c-.5,8.22-2.72,16.24-6.52,23.51l-39.48-23.51Z" style="fill: #ffc31f;"/>
            <path d="m547.2,289.16c-10.31-10.92-15.94-25.05-15.94-40.17,0-31.22,24.58-56.84,55.5-58.68v57.26l-39.56,41.6Z" style="fill: #c2cbff;"/>
          </g>
          <g>
            <circle cx="688.09" cy="224.02" r="9.39" style="fill: #ffc31f;"/>
            <circle cx="688.09" cy="260.72" r="9.39" transform="translate(17.18 562.92) rotate(-45)" style="fill: #9ead39;"/>
            <path d="m717.31,217.26h105.11c.57,0,1.04.46,1.04,1.04v.56c0,.57-.46,1.04-1.04,1.04h-105.11c-.57,0-1.04-.46-1.04-1.04v-.56c0-.57.46-1.04,1.04-1.04Z" style="fill: #c5d0f0;"/>
            <rect x="716.27" y="227.81" width="107.19" height="2.64" rx="1.04" ry="1.04" style="fill: #c5d0f0;"/>
            <rect x="716.27" y="254.83" width="107.19" height="2.64" rx="1.04" ry="1.04" style="fill: #c5d0f0;"/>
            <rect x="716.27" y="265.38" width="107.19" height="2.64" rx="1.04" ry="1.04" style="fill: #c5d0f0;"/>
          </g>
          <rect x="365.34" y="466.48" width="172.52" height="89.15" style="fill: #ffc31f;"/>
          <g>
            <path d="m417.47,576.52h-50.89c-1.1,0-1.99-.89-1.99-1.99h0c0-1.1.89-1.99,1.99-1.99h50.89c1.1,0,1.99.89,1.99,1.99h0c0,1.1-.89,1.99-1.99,1.99Z" style="fill: #c5d0f0;"/>
            <path d="m507.37,576.52h-78.85c-1.1,0-1.99-.89-1.99-1.99h0c0-1.1.89-1.99,1.99-1.99h78.85c1.1,0,1.99.89,1.99,1.99h0c0,1.1-.89,1.99-1.99,1.99Z" style="fill: #c5d0f0;"/>
            <path d="m536.88,576.52h-16.55c-.96,0-1.74-.78-1.74-1.74h0c0-.96.78-1.74,1.74-1.74h16.55c.96,0,1.74.78,1.74,1.74h0c0,.96-.78,1.74-1.74,1.74Z" style="fill: #c5d0f0;"/>
            <path d="m536.62,597.13h-170.04c-1.1,0-1.99-.89-1.99-1.99h0c0-1.1.89-1.99,1.99-1.99h170.04c1.1,0,1.99.89,1.99,1.99h0c0,1.1-.89,1.99-1.99,1.99Z" style="fill: #c5d0f0;"/>
            <path d="m417.47,636.13h-50.89c-1.1,0-1.99-.89-1.99-1.99h0c0-1.1.89-1.99,1.99-1.99h50.89c1.1,0,1.99.89,1.99,1.99h0c0,1.1-.89,1.99-1.99,1.99Z" style="fill: #c5d0f0;"/>
            <path d="m507.37,636.13h-78.85c-1.1,0-1.99-.89-1.99-1.99h0c0-1.1.89-1.99,1.99-1.99h78.85c1.1,0,1.99.89,1.99,1.99h0c0,1.1-.89,1.99-1.99,1.99Z" style="fill: #c5d0f0;"/>
            <path d="m451.19,615.52h-84.61c-1.1,0-1.99-.89-1.99-1.99h0c0-1.1.89-1.99,1.99-1.99h84.61c1.1,0,1.99.89,1.99,1.99h0c0,1.1-.89,1.99-1.99,1.99Z" style="fill: #c5d0f0;"/>
            <path d="m536.62,615.52h-65.15c-1.1,0-1.99-.89-1.99-1.99h0c0-1.1.89-1.99,1.99-1.99h65.15c1.1,0,1.99.89,1.99,1.99h0c0,1.1-.89,1.99-1.99,1.99Z" style="fill: #c5d0f0;"/>
            <path d="m536.88,636.13h-16.55c-.96,0-1.74-.78-1.74-1.74h0c0-.96.78-1.74,1.74-1.74h16.55c.96,0,1.74.78,1.74,1.74h0c0,.96-.78,1.74-1.74,1.74Z" style="fill: #c5d0f0;"/>
          </g>
          <g>
            <path d="m401.55,531.08l21.34-33.75c1.14-1.8,3.49-1.73,4.55.13l18.18,31.97c1.13,2,3.71,1.9,4.73-.18l4.1-8.33c1.06-2.16,3.76-2.16,4.82,0l3.48,7.08c1.15,2.33,4.13,2.09,4.98-.4l9.56-27.86c.95-2.76,4.37-2.66,5.2.15l9.45,32.04c.61,2.06-.73,4.2-2.62,4.2h-85.53c-2.26,0-3.57-2.95-2.24-5.05Z" style="fill: #fff;"/>
            <ellipse cx="451.27" cy="486.12" rx="8.07" ry="9.28" style="fill: #fff;"/>
            <path d="m426.1,482.14c-.15,0-.3.02-.44.05.01-.13.02-.25.02-.38,0-2.04-1.44-3.7-3.22-3.7-1.52,0-2.79,1.21-3.13,2.83-.34-.36-.79-.58-1.29-.58-.7,0-1.31.43-1.64,1.08-.32-.16-.67-.25-1.04-.25-1.45,0-2.63,1.35-2.63,3.03s1.18,3.03,2.63,3.03c.62,0,1.18-.24,1.63-.65.86.83,2.3,1.37,3.93,1.37,1.52,0,2.88-.48,3.76-1.22.39.36.88.58,1.42.58,1.24,0,2.25-1.16,2.25-2.59s-1.01-2.59-2.25-2.59Z" style="fill: #fff;"/>
            <path d="m482.15,482.14c-.15,0-.3.02-.44.05.01-.13.02-.25.02-.38,0-2.04-1.44-3.7-3.22-3.7-1.52,0-2.79,1.21-3.13,2.83-.34-.36-.79-.58-1.29-.58-.7,0-1.31.43-1.64,1.08-.32-.16-.67-.25-1.04-.25-1.45,0-2.63,1.35-2.63,3.03s1.18,3.03,2.63,3.03c.62,0,1.18-.24,1.63-.65.86.83,2.3,1.37,3.93,1.37,1.52,0,2.88-.48,3.76-1.22.39.36.88.58,1.42.58,1.24,0,2.25-1.16,2.25-2.59s-1.01-2.59-2.25-2.59Z" style="fill: #fff;"/>
          </g>
        </g>
        <path d="m488.12,219.28h-244.76c-7.57,0-13.7,7.1-13.7,15.86v195.98c0,8.76,6.13,15.86,13.7,15.86h244.76c7.57,0,13.7-7.1,13.7-15.86v-195.98c0-8.76-6.13-15.86-13.7-15.86Z" style="fill: #d3d9e8; mix-blend-mode: multiply;"/>
        <g>
          <path d="m229.85,205.24h244.76c7.57,0,13.7,7.1,13.7,15.86v195.98c0,8.76-6.13,15.86-13.7,15.86h-244.76c-7.57,0-13.7-7.1-13.7-15.86v-195.98c0-8.76,6.13-15.86,13.7-15.86Z" style="fill: #9ead39;"/>
          <path d="m233.25,227.39h237.96c7.36,0,13.32,6.25,13.32,13.95v174.47c0,7.7-5.96,13.95-13.32,13.95h-237.96c-7.36,0-13.32-6.25-13.32-13.95v-174.47c0-7.7,5.96-13.95,13.32-13.95Z" style="fill: #fff;"/>
          <g>
            <path d="m266.16,216.63c0-1-1.02-1.81-2.28-1.81s-2.28.81-2.28,1.81,1.02,1.81,2.28,1.81,2.28-.81,2.28-1.81Z" style="fill: #fff;"/>
            <path d="m254.59,216.63c0-1-1.02-1.81-2.28-1.81s-2.28.81-2.28,1.81,1.02,1.81,2.28,1.81,2.28-.81,2.28-1.81Z" style="fill: #fff;"/>
            <path d="m243.02,216.63c0-1-1.02-1.81-2.28-1.81s-2.28.81-2.28,1.81,1.02,1.81,2.28,1.81,2.28-.81,2.28-1.81Z" style="fill: #fff;"/>
          </g>
          <path d="m414.17,220.6h50.25c1.98,0,3.58-1.3,3.58-2.89h0c0-1.6-1.6-2.89-3.58-2.89h-50.25c-1.98,0-3.58,1.3-3.58,2.89h0c0,1.6,1.6,2.89,3.58,2.89Z" style="fill: #fff;"/>
          <g>
            <path d="m460.53,259.13l-162-.24c-.97,0-1.76-.98-1.76-2.2h0c0-1.21.79-2.19,1.77-2.19l162,.24c.97,0,1.76.98,1.76,2.2h0c0,1.21-.79,2.19-1.77,2.19Z" style="fill: #c5d0f0;"/>
            <path d="m413.48,285.17l-115.5-.17c-.69,0-1.25-.98-1.25-2.2h0c0-1.21.57-2.19,1.26-2.19l115.5.17c.69,0,1.25.98,1.25,2.2h0c0,1.21-.57,2.19-1.26,2.19Z" style="fill: #c5d0f0;"/>
            <path d="m364.07,271.63l-65.56-.1c-.97,0-1.76-.98-1.76-2.2h0c0-1.21.79-2.19,1.77-2.19l65.56.1c.97,0,1.76.98,1.76,2.2h0c0,1.21-.79,2.19-1.77,2.19Z" style="fill: #c5d0f0;"/>
            <path d="m394.8,271.68l-19.46-.03c-.97,0-1.76-.98-1.76-2.2h0c0-1.21.79-2.19,1.77-2.19l19.46.03c.97,0,1.76.98,1.76,2.2h0c0,1.21-.79,2.19-1.77,2.19Z" style="fill: #c5d0f0;"/>
          </g>
          <g>
            <path d="m460.44,320.63l-162-.24c-.97,0-1.76-.98-1.76-2.2h0c0-1.21.79-2.19,1.77-2.19l162,.24c.97,0,1.76.98,1.76,2.2h0c0,1.21-.79,2.19-1.77,2.19Z" style="fill: #c5d0f0;"/>
            <path d="m413.39,346.67l-115.5-.17c-.69,0-1.25-.98-1.25-2.2h0c0-1.21.57-2.19,1.26-2.19l115.5.17c.69,0,1.25.98,1.25,2.2h0c0,1.21-.57,2.19-1.26,2.19Z" style="fill: #c5d0f0;"/>
            <path d="m363.97,333.13l-65.56-.1c-.97,0-1.76-.98-1.76-2.2h0c0-1.21.79-2.19,1.77-2.19l65.56.1c.97,0,1.76.98,1.76,2.2h0c0,1.21-.79,2.19-1.77,2.19Z" style="fill: #c5d0f0;"/>
            <path d="m394.7,333.18l-19.46-.03c-.97,0-1.76-.98-1.76-2.2h0c0-1.21.79-2.19,1.77-2.19l19.46.03c.97,0,1.76.98,1.76,2.2h0c0,1.21-.79,2.19-1.77,2.19Z" style="fill: #c5d0f0;"/>
          </g>
          <g>
            <path d="m460.35,382.13l-162-.24c-.97,0-1.76-.98-1.76-2.2h0c0-1.21.79-2.19,1.77-2.19l162,.24c.97,0,1.76.98,1.76,2.2h0c0,1.21-.79,2.19-1.77,2.19Z" style="fill: #c5d0f0;"/>
            <path d="m413.3,408.17l-115.5-.17c-.69,0-1.25-.98-1.25-2.2h0c0-1.21.57-2.19,1.26-2.19l115.5.17c.69,0,1.25.98,1.25,2.2h0c0,1.21-.57,2.19-1.26,2.19Z" style="fill: #c5d0f0;"/>
            <path d="m363.88,394.63l-65.56-.1c-.97,0-1.76-.98-1.76-2.2h0c0-1.21.79-2.19,1.77-2.19l65.56.1c.97,0,1.76.98,1.76,2.2h0c0,1.21-.79,2.19-1.77,2.19Z" style="fill: #c5d0f0;"/>
            <path d="m394.61,394.68l-19.46-.03c-.97,0-1.76-.98-1.76-2.2h0c0-1.21.79-2.19,1.77-2.19l19.46.03c.97,0,1.76.98,1.76,2.2h0c0,1.21-.79,2.19-1.77,2.19Z" style="fill: #c5d0f0;"/>
          </g>
          <path d="m259.69,287.82c-.59,0-1.19-.03-1.78-.09-.44-.04-.76-.43-.71-.87.04-.44.43-.76.87-.71,1.1.11,2.23.11,3.33-.01.44-.05.83.27.88.71.05.44-.27.83-.71.87-.62.07-1.25.1-1.88.1Zm-5.12-.8c-.08,0-.16-.01-.24-.04-1.16-.37-2.29-.87-3.35-1.48-.38-.22-.51-.7-.29-1.09.22-.38.7-.51,1.09-.29.96.55,1.99,1.01,3.04,1.34.42.13.65.58.51,1-.11.34-.42.55-.76.55Zm10.33-.03c-.33,0-.65-.21-.76-.55-.14-.42.09-.87.51-1,1.05-.35,2.07-.8,3.03-1.36.38-.22.87-.09,1.09.29.22.38.09.87-.29,1.09-1.06.61-2.18,1.12-3.34,1.5-.08.03-.17.04-.25.04Zm-16.36-3.43c-.19,0-.38-.07-.53-.2-.91-.81-1.74-1.73-2.46-2.71-.26-.35-.18-.85.17-1.11.35-.26.85-.18,1.11.17.66.89,1.41,1.72,2.24,2.46.33.29.36.8.06,1.12-.16.18-.37.26-.59.26Zm22.36-.07c-.22,0-.43-.09-.59-.26-.29-.33-.27-.83.06-1.12.82-.75,1.57-1.58,2.22-2.48.26-.36.76-.43,1.11-.18.36.26.44.75.18,1.11-.72.99-1.54,1.91-2.44,2.72-.15.14-.34.21-.53.21Zm-26.47-5.54c-.3,0-.59-.17-.73-.47-.5-1.11-.89-2.28-1.14-3.48-.09-.43.18-.85.61-.94.43-.09.85.18.94.61.23,1.08.58,2.15,1.04,3.16.18.4,0,.87-.4,1.05-.11.05-.22.07-.33.07Zm30.55-.09c-.11,0-.22-.02-.32-.07-.4-.18-.58-.65-.4-1.05.45-1.01.79-2.08,1.02-3.17.09-.43.51-.7.94-.62.43.09.71.51.62.94-.25,1.2-.63,2.37-1.12,3.48-.13.3-.42.47-.73.47Zm-32.01-6.7c-.44,0-.8-.36-.8-.8v-.07c0-1.23.13-2.45.38-3.64.09-.43.51-.7.94-.61.43.09.7.51.61.94-.23,1.08-.34,2.19-.34,3.31v.07c0,.44-.36.8-.79.8Zm33.44-.1c-.44,0-.79-.35-.79-.79,0-1.12-.12-2.23-.35-3.31-.09-.43.18-.85.61-.94.43-.09.85.18.94.61.25,1.19.38,2.41.39,3.64,0,.44-.35.8-.79.8h0Zm-32-6.76c-.11,0-.22-.02-.32-.07-.4-.18-.58-.65-.4-1.05.5-1.11,1.11-2.18,1.83-3.17.26-.36.76-.43,1.11-.18.35.26.43.76.18,1.11-.65.9-1.21,1.87-1.67,2.88-.13.3-.42.47-.73.47Zm30.55-.03c-.3,0-.59-.18-.73-.47-.45-1.01-1.02-1.98-1.67-2.88-.26-.35-.18-.85.17-1.11.35-.26.85-.18,1.11.17.72.99,1.34,2.05,1.84,3.16.18.4,0,.87-.4,1.05-.11.05-.22.07-.32.07Zm-26.46-5.59c-.22,0-.43-.09-.59-.26-.29-.33-.27-.83.06-1.12.91-.82,1.9-1.54,2.96-2.15.38-.22.87-.09,1.09.29.22.38.09.87-.29,1.09-.96.56-1.86,1.22-2.69,1.96-.15.14-.34.2-.53.2Zm22.36-.02c-.19,0-.38-.07-.53-.2-.83-.74-1.73-1.4-2.69-1.95-.38-.22-.51-.71-.29-1.09.22-.38.7-.51,1.09-.29,1.06.61,2.05,1.33,2.96,2.15.33.29.35.8.06,1.12-.16.17-.37.26-.59.26Zm-16.35-3.46c-.34,0-.65-.21-.76-.55-.14-.42.09-.87.51-1,1.16-.38,2.36-.63,3.58-.76.44-.04.83.27.87.71.05.44-.27.83-.71.87-1.1.12-2.2.35-3.25.69-.08.03-.16.04-.25.04Zm10.33-.01c-.08,0-.16-.01-.24-.04-1.05-.34-2.15-.57-3.26-.68-.44-.04-.75-.44-.71-.87.05-.44.43-.75.87-.71,1.22.13,2.42.38,3.58.75.42.14.65.58.51,1-.11.34-.42.55-.76.55Z" style="fill: #c5d0f0;"/>
          <path d="m284.66,250.29c-10.09,4.88-18.18,12.62-25.28,21.09-3.91-2.52-7.95-4.77-12.41-6.27l-.36.4c3.96,3.71,9.63,8.83,13.71,12.51,8.01-8.62,16.98-18.55,24.73-27.36l-.4-.36Z" style="fill: #ff699b;"/>
          <path d="m259.69,350.22c-.59,0-1.19-.03-1.78-.09-.44-.04-.76-.43-.71-.87.04-.44.43-.76.87-.71,1.1.11,2.23.11,3.33-.01.44-.05.83.27.88.71.05.44-.27.83-.71.88-.62.07-1.25.1-1.88.1Zm-5.12-.8c-.08,0-.16-.01-.24-.04-1.16-.37-2.29-.87-3.35-1.48-.38-.22-.51-.7-.29-1.09.22-.38.7-.51,1.09-.29.96.55,1.99,1.01,3.04,1.34.42.13.65.58.51,1-.11.34-.42.55-.76.55Zm10.33-.03c-.33,0-.65-.21-.76-.55-.14-.42.09-.87.51-1,1.05-.35,2.07-.8,3.03-1.36.38-.22.87-.09,1.09.29.22.38.09.87-.29,1.09-1.06.61-2.18,1.12-3.34,1.5-.08.03-.17.04-.25.04Zm-16.36-3.43c-.19,0-.38-.07-.53-.2-.91-.81-1.74-1.73-2.46-2.71-.26-.35-.18-.85.17-1.11.35-.26.85-.18,1.11.17.66.89,1.41,1.72,2.24,2.47.33.29.36.8.06,1.12-.16.18-.37.26-.59.26Zm22.36-.07c-.22,0-.43-.09-.59-.26-.29-.33-.27-.83.06-1.12.82-.75,1.57-1.58,2.22-2.48.26-.36.76-.43,1.11-.18.36.26.44.75.18,1.11-.72.99-1.54,1.91-2.44,2.72-.15.14-.34.21-.53.21Zm-26.47-5.54c-.3,0-.59-.17-.73-.47-.5-1.11-.89-2.28-1.14-3.48-.09-.43.18-.85.61-.94.43-.09.85.18.94.61.23,1.08.58,2.15,1.04,3.16.18.4,0,.87-.4,1.05-.11.05-.22.07-.33.07Zm30.55-.09c-.11,0-.22-.02-.32-.07-.4-.18-.58-.65-.4-1.05.45-1.01.79-2.08,1.02-3.17.09-.43.51-.7.94-.62.43.09.71.51.62.94-.25,1.2-.63,2.37-1.12,3.48-.13.3-.42.47-.73.47Zm-32.01-6.7c-.44,0-.8-.36-.8-.8v-.07c0-1.23.13-2.45.38-3.64.09-.43.51-.7.94-.61.43.09.7.51.61.94-.23,1.08-.34,2.19-.34,3.31v.07c0,.44-.36.8-.79.8Zm33.44-.1c-.44,0-.79-.35-.79-.79,0-1.12-.12-2.23-.35-3.31-.09-.43.18-.85.61-.94.43-.09.85.18.94.61.25,1.19.38,2.41.39,3.64,0,.44-.35.8-.79.8h0Zm-32-6.76c-.11,0-.22-.02-.32-.07-.4-.18-.58-.65-.4-1.05.5-1.11,1.11-2.18,1.83-3.17.26-.36.76-.43,1.11-.18.35.26.43.76.18,1.11-.65.9-1.21,1.87-1.67,2.88-.13.3-.42.47-.73.47Zm30.55-.03c-.3,0-.59-.18-.73-.47-.45-1.01-1.02-1.98-1.67-2.88-.26-.35-.18-.85.17-1.11.35-.26.85-.18,1.11.17.72.99,1.34,2.05,1.84,3.16.18.4,0,.87-.4,1.05-.11.05-.22.07-.32.07Zm-26.46-5.59c-.22,0-.43-.09-.59-.26-.29-.33-.27-.83.06-1.12.91-.82,1.9-1.54,2.96-2.15.38-.22.87-.09,1.09.29.22.38.09.87-.29,1.09-.96.56-1.86,1.22-2.69,1.96-.15.14-.34.2-.53.2Zm22.36-.02c-.19,0-.38-.07-.53-.2-.83-.74-1.73-1.4-2.69-1.95-.38-.22-.51-.71-.29-1.09.22-.38.7-.51,1.09-.29,1.06.61,2.05,1.33,2.96,2.15.33.29.35.8.06,1.12-.16.17-.37.26-.59.26Zm-16.35-3.46c-.34,0-.65-.21-.76-.55-.14-.42.09-.87.51-1,1.16-.38,2.36-.63,3.58-.76.44-.04.83.27.87.71.05.44-.27.83-.71.87-1.1.12-2.2.35-3.25.69-.08.03-.16.04-.25.04Zm10.33-.01c-.08,0-.16-.01-.24-.04-1.05-.34-2.15-.57-3.26-.68-.44-.04-.75-.44-.71-.87.05-.44.43-.75.87-.71,1.22.13,2.42.38,3.58.75.42.14.65.58.51,1-.11.34-.42.55-.76.55Z" style="fill: #c5d0f0;"/>
          <path d="m284.66,312.68c-10.09,4.88-18.18,12.62-25.28,21.09-3.91-2.52-7.95-4.77-12.41-6.27l-.36.4c3.96,3.71,9.63,8.83,13.71,12.51,8.01-8.62,16.98-18.55,24.73-27.36l-.4-.36Z" style="fill: #ff699b;"/>
          <path d="m259.69,412.61c-.59,0-1.19-.03-1.78-.09-.44-.04-.76-.43-.71-.87.04-.44.43-.76.87-.71,1.1.11,2.23.11,3.33-.01.44-.05.83.27.88.71.05.44-.27.83-.71.87-.62.07-1.25.1-1.88.1Zm-5.12-.8c-.08,0-.16-.01-.24-.04-1.16-.37-2.29-.87-3.35-1.48-.38-.22-.51-.7-.29-1.09.22-.38.7-.51,1.09-.29.96.55,1.99,1.01,3.04,1.34.42.13.65.58.51,1-.11.34-.42.55-.76.55Zm10.33-.03c-.33,0-.65-.21-.76-.55-.14-.42.09-.87.51-1,1.05-.35,2.07-.8,3.03-1.36.38-.22.87-.09,1.09.29.22.38.09.87-.29,1.09-1.06.61-2.18,1.12-3.34,1.5-.08.03-.17.04-.25.04Zm-16.36-3.43c-.19,0-.38-.07-.53-.2-.91-.81-1.74-1.73-2.46-2.71-.26-.35-.18-.85.17-1.11.35-.26.85-.18,1.11.17.66.89,1.41,1.72,2.24,2.47.33.29.36.8.06,1.12-.16.18-.37.26-.59.26Zm22.36-.07c-.22,0-.43-.09-.59-.26-.29-.33-.27-.83.06-1.12.82-.75,1.57-1.58,2.22-2.48.26-.36.76-.43,1.11-.18.36.26.44.75.18,1.11-.72.99-1.54,1.91-2.44,2.72-.15.14-.34.21-.53.21Zm-26.47-5.54c-.3,0-.59-.17-.73-.47-.5-1.11-.89-2.28-1.14-3.48-.09-.43.18-.85.61-.94.43-.09.85.18.94.61.23,1.08.58,2.15,1.04,3.16.18.4,0,.87-.4,1.05-.11.05-.22.07-.33.07Zm30.55-.09c-.11,0-.22-.02-.32-.07-.4-.18-.58-.65-.4-1.05.45-1.01.79-2.08,1.02-3.17.09-.43.51-.7.94-.62.43.09.71.51.62.94-.25,1.2-.63,2.37-1.12,3.48-.13.3-.42.47-.73.47Zm-32.01-6.7c-.44,0-.8-.36-.8-.8v-.07c0-1.23.13-2.45.38-3.64.09-.43.51-.7.94-.61.43.09.7.51.61.94-.23,1.08-.34,2.19-.34,3.31v.07c0,.44-.36.8-.79.8Zm33.44-.1c-.44,0-.79-.35-.79-.79,0-1.12-.12-2.23-.35-3.31-.09-.43.18-.85.61-.94.43-.09.85.18.94.61.25,1.19.38,2.41.39,3.64,0,.44-.35.8-.79.8h0Zm-32-6.76c-.11,0-.22-.02-.32-.07-.4-.18-.58-.65-.4-1.05.5-1.11,1.11-2.18,1.83-3.17.26-.36.76-.43,1.11-.18.35.26.43.76.18,1.11-.65.9-1.21,1.87-1.67,2.88-.13.3-.42.47-.73.47Zm30.55-.03c-.3,0-.59-.18-.73-.47-.45-1.01-1.02-1.98-1.67-2.88-.26-.35-.18-.85.17-1.11.35-.26.85-.18,1.11.17.72.99,1.34,2.05,1.84,3.16.18.4,0,.87-.4,1.05-.11.05-.22.07-.32.07Zm-26.46-5.59c-.22,0-.43-.09-.59-.26-.29-.33-.27-.83.06-1.12.91-.82,1.9-1.54,2.96-2.15.38-.22.87-.09,1.09.29.22.38.09.87-.29,1.09-.96.56-1.86,1.22-2.69,1.96-.15.14-.34.2-.53.2Zm22.36-.02c-.19,0-.38-.07-.53-.2-.83-.74-1.73-1.4-2.69-1.95-.38-.22-.51-.71-.29-1.09.22-.38.7-.51,1.09-.29,1.06.61,2.05,1.33,2.96,2.15.33.29.35.8.06,1.12-.16.17-.37.26-.59.26Zm-16.35-3.46c-.34,0-.65-.21-.76-.55-.14-.42.09-.87.51-1,1.16-.38,2.36-.63,3.58-.76.44-.04.83.27.87.71.05.44-.27.83-.71.87-1.1.12-2.2.35-3.25.69-.08.03-.16.04-.25.04Zm10.33-.01c-.08,0-.16-.01-.24-.04-1.05-.34-2.15-.57-3.26-.68-.44-.05-.75-.44-.71-.87.05-.44.43-.75.87-.71,1.22.13,2.42.38,3.58.75.42.13.65.58.51,1-.11.34-.42.55-.76.55Z" style="fill: #c5d0f0;"/>
          <path d="m284.66,375.08c-10.09,4.88-18.18,12.62-25.28,21.09-3.91-2.52-7.95-4.77-12.41-6.27l-.36.4c3.96,3.71,9.63,8.83,13.71,12.51,8.01-8.62,16.98-18.55,24.73-27.36l-.4-.36Z" style="fill: #ff699b;"/>
        </g>
        <path d="m911.64,371.38h-309.9c-9.58,0-17.34,7.73-17.34,17.27v213.49c0,9.54,7.76,17.27,17.34,17.27h309.9c9.58,0,17.34-7.73,17.34-17.27v-213.49c0-9.54-7.76-17.27-17.34-17.27Z" style="fill: #d3d9e8; mix-blend-mode: multiply;"/>
        <g>
          <g>
            <path d="m616.9,357.39h309.9c9.58,0,17.34,7.73,17.34,17.27v213.49c0,9.54-7.76,17.27-17.34,17.27h-309.9c-9.58,0-17.34-7.73-17.34-17.27v-213.49c0-9.54,7.77-17.27,17.34-17.27Z" style="fill: #ff699b;"/>
            <path d="m621.2,381.51h301.29c9.31,0,16.86,6.8,16.86,15.2v190.06c0,8.39-7.55,15.2-16.86,15.2h-301.29c-9.31,0-16.86-6.8-16.86-15.2v-190.06c0-8.39,7.55-15.2,16.86-15.2Z" style="fill: #fff;"/>
            <g>
              <path d="m662.87,369.79c0-1.09-1.29-1.97-2.89-1.97s-2.89.88-2.89,1.97,1.29,1.97,2.89,1.97,2.89-.88,2.89-1.97Z" style="fill: #fff;"/>
              <path d="m648.22,369.79c0-1.09-1.29-1.97-2.89-1.97s-2.89.88-2.89,1.97,1.29,1.97,2.89,1.97,2.89-.88,2.89-1.97Z" style="fill: #fff;"/>
              <path d="m633.57,369.79c0-1.09-1.29-1.97-2.89-1.97s-2.89.88-2.89,1.97,1.29,1.97,2.89,1.97,2.89-.88,2.89-1.97Z" style="fill: #fff;"/>
            </g>
            <path d="m850.27,374.12h63.62c2.5,0,4.53-1.41,4.53-3.15h0c0-1.74-2.03-3.15-4.53-3.15h-63.62c-2.5,0-4.53,1.41-4.53,3.15h0c0,1.74,2.03,3.15,4.53,3.15Z" style="fill: #fff;"/>
          </g>
          <g>
            <g>
              <rect x="690.49" y="469.06" width="13.26" height="27.7" style="fill: #9ead39;"/>
              <rect x="714.16" y="451.2" width="13.26" height="45.56" style="fill: #9152c7;"/>
              <rect x="737.82" y="475.28" width="13.26" height="21.49" style="fill: #ffc31f;"/>
              <rect x="761.48" y="437.48" width="13.26" height="59.29" style="fill: #9152c7;"/>
              <rect x="785.15" y="453.79" width="13.26" height="42.98" style="fill: #9ead39;"/>
              <rect x="808.81" y="439.55" width="13.26" height="57.21" style="fill: #9152c7;"/>
              <rect x="832.47" y="418.32" width="13.26" height="78.44" style="fill: #ffc31f;"/>
            </g>
            <path d="m827.07,399.49l-10.76-1.67-10.76-1.67c-.63-.1-.95.63-.58,1.31l4.45,8.09-21.88,11.77-6.78-6.39-2.03-1.91-2.5,1.24-31.24,15.57-7.79-4.26-1.61-.88-1.44.55-35.17,13.47c-.41.16-.66.59-.57,1.03.1.49.59.81,1.08.71l7.17-1.48,27.96-5.75,8.35,4.57,1.84,1,1.87-.93,30.61-15.26,6.85,6.45,2.1,1.98,2.54-1.37,24.46-13.16,1.52,2.75,2.96,5.39c.32.58.95.76,1.28.42.05-.05.1-.12.13-.2l4.38-9.93,4.15-9.4.23-.53c.25-.58-.21-1.43-.84-1.52Z" style="fill: #9152c7;"/>
          </g>
          <g>
            <circle cx="633.61" cy="536.42" r="11.72" transform="translate(-34.03 1029.84) rotate(-76.72)" style="fill: #ffc31f;"/>
            <circle cx="633.61" cy="564.33" r="11.72" transform="translate(-61.2 1051.34) rotate(-76.72)" style="fill: #9ead39;"/>
            <rect x="652.94" y="532.76" width="259.39" height="2.11" rx=".83" ry=".83" style="fill: #dfe0f0;"/>
            <rect x="652.94" y="541.19" width="259.39" height="2.11" rx=".83" ry=".83" style="fill: #dfe0f0;"/>
            <rect x="652.94" y="562.79" width="259.39" height="2.11" rx=".83" ry=".83" style="fill: #dfe0f0;"/>
            <rect x="652.94" y="571.22" width="259.39" height="2.11" rx=".83" ry=".83" style="fill: #dfe0f0;"/>
          </g>
          <path d="m644.64,557.14c-4.88,2.36-8.78,6.1-12.21,10.19-1.89-1.22-3.84-2.3-5.99-3.03l-.17.19c1.91,1.79,4.65,4.27,6.62,6.04,3.87-4.16,8.2-8.96,11.95-13.22l-.19-.18Z" style="fill: #fff;"/>
          <path d="m638.67,543.63c.76-.83,1.53-1.65,2.3-2.48-1.92-1.68-3.83-3.36-5.75-5.03,1.89-1.71,3.77-3.43,5.66-5.14-.78-.81-1.56-1.62-2.34-2.44-1.66,1.96-3.33,3.93-4.99,5.89-1.66-1.93-3.33-3.86-4.99-5.8-.77.83-1.53,1.65-2.3,2.48,1.88,1.68,3.76,3.36,5.63,5.04-1.85,1.71-3.7,3.43-5.55,5.14.78.81,1.56,1.62,2.34,2.44,1.63-1.96,3.26-3.93,4.89-5.89,1.7,1.93,3.39,3.86,5.09,5.8Z" style="fill: #fff;"/>
        </g>
        <g>
          <g>
            <path d="m985.94,778.64h-86.32s-.41-1.64-.91-4.35c-.58-3.02-1.26-7.37-1.61-12.28-.44-6.03-.38-12.93,1-19.22,1.03-4.79,2.85-9.23,5.79-12.69,8.49-9.94,20.18-20.81,27.04-30.86,3.49-5.06,5.73-9.91,5.73-14.34,0-.35,0-.7-.03-1.05-.39-5.06-3.53-10.64-7.97-16.45-5.02-6.56-11.67-13.4-17.86-20.04-2.43-2.61-4.78-5.17-6.91-7.69-1.61-1.88-2.88-4.06-3.87-6.44-.99-2.33-1.68-4.85-2.18-7.46-.45-2.43-.74-4.94-.88-7.44-.76-13.69,2.65-27.2,2.65-27.2h86.32s1.61,6.38,2.38,14.81c.5,5.59.64,12.08-.32,18.24-.91,5.85-2.82,11.38-6.32,15.49-11.19,13.13-27.97,27.86-31.93,40.17-.44,1.36-.71,2.7-.82,4-.03.35-.03.7-.03,1.05,0,1.53.27,3.12.77,4.74,1.82,5.99,6.72,12.54,12.57,19.21,1.46,1.67,2.99,3.35,4.53,5.03,2.76,2.99,5.59,5.96,8.32,8.9,2.3,2.49,4.53,4.93,6.58,7.32,1.62,1.91,2.91,4.11,3.9,6.52,2.08,4.99,2.93,10.82,3.11,16.52.39,13.1-2.74,25.5-2.74,25.5Z" style="fill: #ffc31f;"/>
            <path d="m988.68,753.14c-.18-5.7-1.03-11.54-3.11-16.52-.99-2.41-2.27-4.61-3.9-6.52-2.05-2.4-4.27-4.84-6.58-7.32-2.73-2.94-5.56-5.91-8.32-8.9-1.55-1.68-3.08-3.37-4.53-5.03-5.85-6.67-10.75-13.22-12.57-19.21-.5-1.62-.77-3.21-.77-4.74,0-.35,0-.7.03-1.05.11-1.3.38-2.64.82-4,3.96-12.31,20.74-27.04,31.92-40.17,3.5-4.11,5.41-9.64,6.32-15.49.96-6.15.82-12.64.32-18.24-.77-8.43-2.38-14.81-2.38-14.81h-86.32s-.26,1.03-.62,2.82h66.39c8.3,0,15.29,6.29,16.07,14.56,0,.08.02.17.02.25.5,5.59.64,12.08-.32,18.24-.91,5.85-2.82,11.38-6.32,15.49-11.19,13.13-27.97,27.86-31.93,40.17-.44,1.36-.71,2.7-.82,4-.03.35-.03.7-.03,1.05,0,1.53.27,3.12.77,4.74,1.82,5.99,6.72,12.54,12.57,19.21,1.45,1.67,2.99,3.35,4.53,5.03,2.76,2.99,5.59,5.96,8.32,8.9,2.3,2.49,4.53,4.93,6.58,7.32,1.62,1.91,2.91,4.11,3.9,6.52,2.08,4.99,2.93,10.82,3.11,16.52.28,9.32-1.23,18.29-2.12,22.68h6.22s3.14-12.4,2.74-25.5Z" style="fill: #f0dcce; mix-blend-mode: multiply;"/>
            <path d="m970.73,750.88c-19.19-2.7-23.85-14.18-24.38-24.81,0,0-1.09-36.35-.72-48.45.32-10.29,18.06-23.27,27.92-34.74,1.25-1.45,2.24-3.13,3.02-4.96,1.19-2.78-1.58-5.63-4.45-4.6-8.98,3.23-25.42,7.42-36.55.2-9.43-6.12-17.87-7.61-23.21-7.8-3.34-.12-5.89,2.89-5.27,6.15.79,4.17,2.27,8.06,4.81,11.02,9.85,11.46,28.29,24.51,29.07,34.78,0,0,1.49,36.34.57,48.41-.64,8.36-2.69,16.25-26.32,21.04-11.38,2.31-13.26,6.61-13.71,12.69.34,4.43.99,8.34,1.51,10.97.4,2.01,2.17,3.46,4.24,3.46h71.08c2.06,0,3.84-1.44,4.24-3.45.46-2.33,1.36-5.67,1.39-9.51.05-6.91-5.91-9.35-13.23-10.38Z" style="fill: #ffd58c;"/>
            <path d="m902,605.41c-1.31,5.12-.88,9.66.96,10.13,1.84.47,4.39-3.3,5.7-8.43,1.31-5.13.88-9.66-.96-10.13-1.84-.47-4.39,3.3-5.7,8.43Z" style="fill: #a7a9ac; mix-blend-mode: overlay;"/>
            <path d="m914,723.01c-3.46,4-5.11,8.25-3.67,9.49,1.44,1.24,5.41-.99,8.87-4.98,3.46-4,5.11-8.25,3.67-9.49-1.44-1.24-5.41.99-8.87,4.98Z" style="fill: #a7a9ac; mix-blend-mode: overlay;"/>
            <path d="m904.12,735.44c-.82.95-1.09,2.07-.59,2.5.5.43,1.57.01,2.39-.94.82-.95,1.09-2.07.59-2.5-.5-.43-1.57-.01-2.39.94Z" style="fill: #a7a9ac; mix-blend-mode: overlay;"/>
          </g>
          <rect x="894.19" y="777.66" width="95.99" height="6.07" rx="2.39" ry="2.39" style="fill: #3d2f78;"/>
          <rect x="894.19" y="586.04" width="95.99" height="6.07" rx="2.39" ry="2.39" style="fill: #3d2f78;"/>
        </g>
        <g>
          <polygon points="807.09 37.83 780.63 33.59 791.43 22.1 807.09 37.83" style="fill: #423182;"/>
          <polygon points="781.74 38.23 749.95 20.64 792.54 28.12 781.74 38.23" style="fill: #6e5bba;"/>
          <polygon points="749.93 20.6 807.73 7.95 797.57 18.41 749.93 20.6" style="fill: #6e5bba;"/>
          <polygon points="749.95 20.64 792.61 28.25 807.09 37.83 797.61 18.22 749.95 20.64" style="fill: #5c4c9c;"/>
        </g>
        <path d="m982.59,287.37l-17.03,6.4c-.51.19-1.09.09-1.5-.26-.42-.35-.6-.91-.5-1.44l3.42-16.77c.1-.51.46-.92.94-1.1.48-.18,1.03-.1,1.44.21l13.61,10.37c.43.33.65.87.57,1.41-.08.54-.45.99-.96,1.19Zm-15.55,2.63l11.95-4.49-9.55-7.28-2.4,11.77Z" style="fill: #ff699b;"/>
        <path d="m271.19,491.82l-17.03,6.4c-.51.19-1.09.09-1.5-.26-.42-.35-.61-.91-.5-1.44l3.42-16.77c.1-.51.46-.92.94-1.1.48-.18,1.03-.1,1.44.21l13.61,10.37c.43.33.65.87.57,1.41-.08.54-.45.99-.96,1.19Zm-15.55,2.63l11.95-4.49-9.55-7.28-2.4,11.77Z" style="fill: #ff699b;"/>
        <path d="m212.1,642.97l4.47-4.47c.38-.38.38-1,0-1.39s-1-.38-1.39,0l-4.47,4.47-4.47-4.47c-.38-.38-1-.38-1.39,0-.38.38-.38,1,0,1.39l4.47,4.47-4.39,4.39c-.38.38-.38,1,0,1.39.19.19.44.29.69.29s.5-.1.69-.29l4.39-4.39,4.39,4.39c.19.19.44.29.69.29s.5-.1.69-.29c.38-.38.38-1,0-1.39l-4.39-4.39Z" style="fill: #6f399e;"/>
        <path d="m176.65,225.43l4.47-4.47c.38-.38.38-1,0-1.39-.38-.38-1-.38-1.39,0l-4.47,4.47-4.47-4.47c-.38-.38-1-.38-1.39,0-.38.38-.38,1,0,1.39l4.47,4.47-4.39,4.39c-.38.38-.38,1,0,1.39.19.19.44.29.69.29s.5-.1.69-.29l4.39-4.39,4.39,4.39c.19.19.44.29.69.29s.5-.1.69-.29c.38-.38.38-1,0-1.39l-4.39-4.39Z" style="fill: #6f399e;"/>
        <path d="m1023.53,590.05c-3.76,0-6.82-3.06-6.82-6.82s3.06-6.82,6.82-6.82,6.82,3.06,6.82,6.82-3.06,6.82-6.82,6.82Zm0-11.47c-2.57,0-4.66,2.09-4.66,4.66s2.09,4.66,4.66,4.66,4.66-2.09,4.66-4.66-2.09-4.66-4.66-4.66Z" style="fill: #ffc31f;"/>
        <g>
          <path d="m392.65,73.89c-1.07-.32-1.61-1.2-1.61-2.65V16.2c0-1.07-.19-2.68-.57-4.83-.44-1.96-.66-3.57-.66-4.83v-.28c1.07-1.77,1.86-2.9,2.37-3.41.88,0,2.05-.13,3.51-.38,1.33-.25,2.49-.38,3.51-.38s1.99.3,2.94.9c.95.6,1.42,1.31,1.42,2.13,0,1.89-1.45,2.84-4.36,2.84h-1.33c-.38-.06-.82-.09-1.33-.09-.57,0-.92.03-1.04.09,0,2.15.13,4.74.38,7.77l.19,2.65.19,5.21c0,1.2-.09,3.03-.28,5.49l-.19,5.31,1.33-.28c1.26-.38,2.3-.57,3.13-.57.69,0,1.33.27,1.89.81.57.54.85,1.15.85,1.85,0,.76-.24,1.44-.71,2.04-.47.6-1.06.9-1.75.9l-1.14-.09h-1.23c-.95,0-1.61.22-1.99.66v29.27l5.31-.28c3.6,0,5.4.82,5.4,2.46v.38c-.38.76-1.07,1.37-2.08,1.85-1.01.47-1.99.77-2.94.9l-3.13.09h-2.94c-1.2,0-2.24-.16-3.13-.47Z" style="fill: #6f399e;"/>
          <path d="m415.06,73.85c-.54-.35-.81-.77-.81-1.28,0-.19.03-.28.09-.28,2.46-9.91,4.48-18.32,6.06-25.2,1.26-5.62,1.89-9.35,1.89-11.18,0-1.45-.21-3.22-.62-5.31-.41-2.08-1.31-6.28-2.7-12.6l-2.27-10.23c-.19-.76-.28-1.33-.28-1.71,0-.88.2-1.53.62-1.94.41-.41.93-.62,1.56-.62.95,0,1.64.76,2.08,2.27.5,1.71,1.23,5.08,2.18,10.14l.38,1.71.76,3.69,1.33,6.82,2.27-11.08,1.8-8.72c.63-2.53,1.1-4.17,1.42-4.93.5-.88,1.04-1.33,1.61-1.33.63,0,1.17.19,1.61.57.44.38.66.89.66,1.52,0,1.64-1.08,6.57-3.22,14.78-1.33,4.99-2.31,8.92-2.94,11.79-.63,2.87-.95,4.94-.95,6.21,0,.63.6,3.98,1.8,10.04,1.2,6.06,2.24,11.18,3.13,15.35l.66,2.65c.63,2.4.95,4.11.95,5.12,0,1.64-.57,2.46-1.71,2.46-1.58,0-2.5-.76-2.75-2.27-.25-1.26-.73-3.82-1.42-7.67l-.76-4.36c-1.2-6.63-2.08-11.15-2.65-13.55-3.16,14.15-5.05,22.36-5.68,24.63-.88,3.35-1.64,5.02-2.27,5.02-.7,0-1.31-.17-1.85-.52Z" style="fill: #6f399e;"/>
          <path d="m462.05,73.23c-.47-.38-.71-1.01-.71-1.89v-12.41c-.82-.57-2.37-1.07-4.64-1.52-2.27-.44-4.42-.73-6.44-.85-.7,1.33-1.2,2.94-1.52,4.83l-.38,1.89c-.06.44-.25,1.42-.57,2.94-.32,1.52-.66,2.83-1.04,3.93-.38,1.11-.76,1.97-1.14,2.61-2.4,0-3.79-.63-4.17-1.89.69-1.01,1.48-3.98,2.37-8.91l3.13-17.34c1.39-8.21,2.67-15.22,3.84-21.03,1.17-5.81,2.42-10.67,3.74-14.59,1.45-4.36,2.84-6.54,4.17-6.54s2.34.25,3.03.76c0,2.53.6,8.62,1.8,18.28,1.26,9.47,1.89,15.95,1.89,19.42s.35,8.15,1.04,14.4c.63,6.38.95,11.46.95,15.25,0,2.15-1.04,3.22-3.13,3.22-1.01,0-1.75-.19-2.23-.57Zm-.81-20.08c-.19-2.78-.51-6.22-.95-10.33-1.45-14.27-2.18-23.02-2.18-26.24v-.76c-.63.63-1.5,3.49-2.61,8.57-1.11,5.08-2.13,10.53-3.08,16.34-.95,5.81-1.45,9.66-1.52,11.56,2.65.76,5.46,1.14,8.43,1.14.5,0,1.14-.09,1.89-.28Z" style="fill: #6f399e;"/>
          <path d="m504.44,75.32c-.38-.63-.57-1.55-.57-2.75l-.09-14.02c-.06-1.2-.09-3.19-.09-5.97-.13-5.87-.19-12.51-.19-19.89v-4.83c-.57,3.03-1.55,7.29-2.94,12.79-1.39,5.68-2.37,10.36-2.94,14.02v.57l-.28,1.8c-.13,1.39-.44,2.81-.95,4.26-.63,1.52-1.61,2.27-2.94,2.27-2.27,0-3.41-2.97-3.41-8.91,0-3.28-.33-6.8-.99-10.56-.66-3.76-1.72-8.38-3.17-13.88l-2.84-10.61-.19,11.37c0,3.41.16,9.92.47,19.52l.19,6.44.19,12.98c0,1.33-.47,2.53-1.42,3.6-1.58,0-2.67-.49-3.27-1.47-.6-.98-.9-2.42-.9-4.31l.19-7.77c.19-3.41.28-5.97.28-7.67l-.19-18.28-.19-18.38c0-2.71.06-6.79.19-12.22l2.56-1.52c.5.06,1.01.43,1.52,1.09.51.66,1.07,1.72,1.71,3.17,1.58,3.92,3.63,11.75,6.16,23.49.38,1.64.63,3,.76,4.07.76,3.66,1.29,6.44,1.61,8.34l1.42,7.29.66-3.13,1.8-7.77c1.01-4.55,1.85-8.53,2.51-11.94.66-3.41,1.31-7.11,1.94-11.08.69-4.74,1.14-8.68,1.33-11.84v-.57c.13-.82.5-1.47,1.14-1.94.63-.47,1.39-.71,2.27-.71.57,0,1.07.25,1.52.76.44.51.66,1.04.66,1.61,0,7.58.28,18.92.85,34.01.32,7.39.54,14.62.66,21.69.13,3.22.19,7.29.19,12.22,0,1.45-.38,2.75-1.14,3.88-.76,1.14-1.61,1.71-2.56,1.71-.63,0-1.14-.32-1.52-.95Z" style="fill: #6f399e;"/>
          <path d="m519.41,70.86c0-1.52.95-2.27,2.84-2.27h1.14c.25.06.54.09.85.09.5,0,.87-.16,1.09-.47.22-.32.33-.88.33-1.71,0-5.37-.32-12.69-.95-21.98-.57-9.66-.85-16.96-.85-21.88,0-1.77.03-3.38.09-4.83l.09-4.83c0-2.08-.09-3.82-.28-5.21-.7.25-1.42.38-2.18.38-1.45,0-2.18-.76-2.18-2.27,0-.76.46-1.42,1.37-1.99.92-.57,2.1-.98,3.55-1.23,2.65-.44,4.89-.66,6.73-.66.76,0,1.4.25,1.94.76.54.51.81,1.11.81,1.8s-.21,1.3-.62,1.8c-.41.51-.93.76-1.56.76-.38,0-.7-.03-.95-.09h-.76c-.63,0-1.09.14-1.37.43-.28.28-.43.81-.43,1.56,0,6.69.41,15.92,1.23,27.66.76,12.32,1.14,21.57,1.14,27.76v3.6c.44-.06,1.07-.09,1.89-.09,2.65,0,3.98,1.11,3.98,3.32v.57l-2.37,1.61c-.06,0-.25.02-.57.05-.32.03-.95.05-1.89.05-2.15.13-3.47.19-3.98.19-5.43,0-8.15-.95-8.15-2.84Z" style="fill: #6f399e;"/>
          <path d="m561.56,55.71c-4.42-15.22-8.24-29.21-11.46-41.97v31.07c0,2.65.25,7.17.76,13.55.44,6.95.66,11.43.66,13.45,0,.57-.35,1.06-1.04,1.47-.7.41-1.48.62-2.37.62-1.33,0-1.99-.5-1.99-1.52l.19-2.75c.13-2.02.19-3.35.19-3.98,0-3.35-.19-8.65-.57-15.92-.38-7.39-.57-11.87-.57-13.45v-12.13c0-1.96.09-4.86.28-8.72.25-3.35.38-6.25.38-8.72v-.57c0-3.16.69-4.74,2.08-4.74.82,0,1.86,1.39,3.13,4.17,2.08,4.55,4.74,12.69,7.96,24.44,1.83,6.82,3.98,15.6,6.44,26.34-.06-.25.44,1.93,1.52,6.54l.09.47c0-6.13.06-11.62.19-16.48l.19-16.48V2.37c.25-1.58,1.26-2.37,3.03-2.37s2.56,1.23,2.56,3.69v.57c-.38.76-.57,1.67-.57,2.75,0,3.85-.09,9.66-.28,17.43-.19,7.83-.28,13.71-.28,17.62v28.89c0,1.01-.27,1.97-.81,2.89-.54.91-1.18,1.37-1.94,1.37-1.26,0-3.85-6.5-7.77-19.52Z" style="fill: #6f399e;"/>
          <path d="m601.5,73.23c-.47-.38-.71-1.01-.71-1.89v-12.41c-.82-.57-2.37-1.07-4.64-1.52-2.27-.44-4.42-.73-6.44-.85-.7,1.33-1.2,2.94-1.52,4.83l-.38,1.89c-.06.44-.25,1.42-.57,2.94-.32,1.52-.66,2.83-1.04,3.93-.38,1.11-.76,1.97-1.14,2.61-2.4,0-3.79-.63-4.17-1.89.69-1.01,1.48-3.98,2.37-8.91l3.13-17.34c1.39-8.21,2.67-15.22,3.84-21.03,1.17-5.81,2.42-10.67,3.74-14.59,1.45-4.36,2.84-6.54,4.17-6.54s2.34.25,3.03.76c0,2.53.6,8.62,1.8,18.28,1.26,9.47,1.89,15.95,1.89,19.42s.35,8.15,1.04,14.4c.63,6.38.95,11.46.95,15.25,0,2.15-1.04,3.22-3.13,3.22-1.01,0-1.75-.19-2.23-.57Zm-.81-20.08c-.19-2.78-.51-6.22-.95-10.33-1.45-14.27-2.18-23.02-2.18-26.24v-.76c-.63.63-1.5,3.49-2.61,8.57-1.11,5.08-2.13,10.53-3.08,16.34-.95,5.81-1.45,9.66-1.52,11.56,2.65.76,5.46,1.14,8.43,1.14.5,0,1.14-.09,1.89-.28Z" style="fill: #6f399e;"/>
          <path d="m623,73.09c-.54-.91-.81-2.04-.81-3.36,0-2.08.13-4.64.38-7.67l.19-2.46.19-5.02c0-2.21-.22-7.14-.66-14.78-.44-7.64-.66-12.57-.66-14.78,0-.19.01-.55.05-1.09.03-.54.05-1.37.05-2.51.06-1.26.09-2.81.09-4.64,0-4.61-.32-7.55-.95-8.81-.38,0-1.2.09-2.46.28l-2.65.19c-.82,0-1.55-.24-2.18-.71-.63-.47-.95-1.09-.95-1.85s.76-1.42,2.27-1.99c2.21-.76,5.97-1.29,11.27-1.61,2.15-.13,3.44-.19,3.88-.19.76,0,1.45.25,2.08.76.63.51.95,1.14.95,1.89s-.27,1.37-.81,1.85c-.54.47-1.22.71-2.04.71l-1.71-.09c-.51-.06-1.07-.09-1.71-.09h-.95c.44,4.3.66,8.18.66,11.65l-.09,6.06c-.06,1.83-.09,3.88-.09,6.16,0,3.03.13,6.66.38,10.89.32,5.24.47,8.87.47,10.89,0,2.4.13,5.24.38,8.53.25,3.35.38,6.19.38,8.53,0,3.1-.92,4.64-2.75,4.64-.95,0-1.69-.46-2.23-1.37Z" style="fill: #6f399e;"/>
          <path d="m640.76,70.86c0-1.52.95-2.27,2.84-2.27h1.14c.25.06.54.09.85.09.51,0,.87-.16,1.09-.47.22-.32.33-.88.33-1.71,0-5.37-.32-12.69-.95-21.98-.57-9.66-.85-16.96-.85-21.88,0-1.77.03-3.38.09-4.83l.09-4.83c0-2.08-.09-3.82-.28-5.21-.7.25-1.42.38-2.18.38-1.45,0-2.18-.76-2.18-2.27,0-.76.46-1.42,1.37-1.99.92-.57,2.1-.98,3.55-1.23,2.65-.44,4.89-.66,6.73-.66.76,0,1.4.25,1.94.76.54.51.81,1.11.81,1.8s-.21,1.3-.62,1.8c-.41.51-.93.76-1.56.76-.38,0-.7-.03-.95-.09h-.76c-.63,0-1.09.14-1.37.43-.28.28-.43.81-.43,1.56,0,6.69.41,15.92,1.23,27.66.76,12.32,1.14,21.57,1.14,27.76v3.6c.44-.06,1.07-.09,1.89-.09,2.65,0,3.98,1.11,3.98,3.32v.57l-2.37,1.61c-.06,0-.25.02-.57.05-.32.03-.95.05-1.89.05-2.15.13-3.47.19-3.98.19-5.43,0-8.15-.95-8.15-2.84Z" style="fill: #6f399e;"/>
          <path d="m675.06,74.75c-1.39-1.14-2.59-2.68-3.6-4.64-1.83-3.41-3.19-8.08-4.07-14.02-.63-4.1-1.11-8.84-1.42-14.21l-.09-5.02v-5.12c-.06-1.64-.09-3.63-.09-5.97,0-3.79.16-7.14.47-10.04.25-3.03.88-6.03,1.89-9,1.01-2.59,2.46-4.42,4.36-5.49,1.14-.5,2.27-.76,3.41-.76,3.35,0,6,1.33,7.96,3.98,2.15,2.97,3.57,6.29,4.26,9.95,1.01,4.42,1.58,8.65,1.71,12.69.25,4.49.38,8.72.38,12.69v5.4c0,1.07-.16,3.1-.47,6.06-.25,2.34-.38,4.33-.38,5.97v.38c-.38,1.77-.57,3.85-.57,6.25,0,1.77-.38,3.6-1.14,5.49-.76,1.89-1.83,3.51-3.22,4.83-1.39,1.52-2.97,2.27-4.74,2.27s-3.25-.57-4.64-1.71Zm8.05-7.01c.76-2.08,1.31-4.63,1.66-7.63.35-3,.65-6.39.9-10.18.13-1.64.19-3.76.19-6.35l-.09-8.72c-.13-3.41-.51-7.67-1.14-12.79-.51-4.36-1.45-8.21-2.84-11.56-.63-1.58-1.42-2.81-2.37-3.69-.95-.88-1.96-1.33-3.03-1.33-1.58,0-2.75,1.23-3.51,3.69-.95,2.59-1.58,5.43-1.89,8.53-.38,3.35-.6,6.54-.66,9.57l-.09,3.13c-.06.89-.09,2.08-.09,3.6v.38c0,4.23.44,9.44,1.33,15.63,1.01,8.4,2.49,14.37,4.45,17.91,1.26,2.21,2.59,3.32,3.98,3.32,1.26,0,2.34-1.17,3.22-3.51Z" style="fill: #6f399e;"/>
          <path d="m716.55,55.71c-4.42-15.22-8.24-29.21-11.46-41.97v31.07c0,2.65.25,7.17.76,13.55.44,6.95.66,11.43.66,13.45,0,.57-.35,1.06-1.04,1.47-.7.41-1.48.62-2.37.62-1.33,0-1.99-.5-1.99-1.52l.19-2.75c.13-2.02.19-3.35.19-3.98,0-3.35-.19-8.65-.57-15.92-.38-7.39-.57-11.87-.57-13.45v-12.13c0-1.96.09-4.86.28-8.72.25-3.35.38-6.25.38-8.72v-.57c0-3.16.69-4.74,2.08-4.74.82,0,1.86,1.39,3.13,4.17,2.08,4.55,4.74,12.69,7.96,24.44,1.83,6.82,3.98,15.6,6.44,26.34-.06-.25.44,1.93,1.52,6.54l.09.47c0-6.13.06-11.62.19-16.48l.19-16.48V2.37c.25-1.58,1.26-2.37,3.03-2.37s2.56,1.23,2.56,3.69v.57c-.38.76-.57,1.67-.57,2.75,0,3.85-.09,9.66-.28,17.43-.19,7.83-.28,13.71-.28,17.62v28.89c0,1.01-.27,1.97-.81,2.89-.54.91-1.18,1.37-1.94,1.37-1.26,0-3.85-6.5-7.77-19.52Z" style="fill: #6f399e;"/>
        </g>
        <g>
          <g>
            <path d="m395.72,734.9v40.94h-118.99c-11.29,0-20.48-9.17-20.48-20.46s9.19-20.48,20.48-20.48h118.99Z" style="fill: #fff4e3;"/>
            <path d="m266.99,775.84h128.73v8.09H59.17c-4.81,0-8.71-3.9-8.71-8.71v-39.69c0-4.81,3.9-8.71,8.71-8.71h336.55v8.08h-118.99c-17.87,0-30.46,23-9.74,40.94Z" style="fill: #7134a8;"/>
            <rect x="223.09" y="726.81" width="7.66" height="57.11" style="fill: #a573d1;"/>
            <rect x="198.92" y="726.81" width="7.66" height="57.11" style="fill: #a573d1;"/>
            <path d="m266.99,775.84h45.59l-.91,8.09H59.17c-4.81,0-8.71-3.9-8.71-8.71v-.9c40.85,4.13,180.73,6.59,185.37-1.96,3.84-7.08-.15-10.21-.19-20.33-.05-12.72,8.16-20.71,15.32-25.2h67.12l-.91,8.08h-40.44c-17.87,0-30.46,23-9.74,40.94Z" style="fill: #d1c9e0; mix-blend-mode: multiply;"/>
            <path d="m256.25,755.38c0,11.29,9.19,20.46,20.48,20.46h118.99v8.09h-118.99c-15.75,0-28.56-12.81-28.56-28.55s12.81-28.56,28.56-28.56h118.99v8.09h-118.99c-11.29,0-20.48,9.19-20.48,20.48Z" style="fill: #a573d1;"/>
            <g>
              <path d="m338.48,743.16h-62.59c-.85,0-1.54-.69-1.54-1.54h0c0-.85.69-1.54,1.54-1.54h62.59c.85,0,1.54.69,1.54,1.54h0c0,.85-.69,1.54-1.54,1.54Z" style="fill: #f5dac2;"/>
              <path d="m383.45,772.35h-71.02c-.85,0-1.54-.69-1.54-1.54h0c0-.85.69-1.54,1.54-1.54h71.02c.85,0,1.54.69,1.54,1.54h0c0,.85-.69,1.54-1.54,1.54Z" style="fill: #f5dac2;"/>
              <path d="m338.48,758.07h-38.97c-.85,0-1.54-.69-1.54-1.54h0c0-.85.69-1.54,1.54-1.54h38.97c.85,0,1.54.69,1.54,1.54h0c0,.85-.69,1.54-1.54,1.54Z" style="fill: #f5dac2;"/>
              <path d="m291.85,758.07h-16.66c-.85,0-1.54-.69-1.54-1.54h0c0-.85.69-1.54,1.54-1.54h16.66c.85,0,1.54.69,1.54,1.54h0c0,.85-.69,1.54-1.54,1.54Z" style="fill: #f5dac2;"/>
              <path d="m376.7,758.07h-16.66c-.85,0-1.54-.69-1.54-1.54h0c0-.85.69-1.54,1.54-1.54h16.66c.85,0,1.54.69,1.54,1.54h0c0,.85-.69,1.54-1.54,1.54Z" style="fill: #f5dac2;"/>
              <path d="m365.32,744.7h-5.28c-.85,0-1.54-.69-1.54-1.54h0c0-.85.69-1.54,1.54-1.54h5.28c.85,0,1.54.69,1.54,1.54h0c0,.85-.69,1.54-1.54,1.54Z" style="fill: #f5dac2;"/>
              <path d="m304.31,772.35h-5.28c-.85,0-1.54-.69-1.54-1.54h0c0-.85.69-1.54,1.54-1.54h5.28c.85,0,1.54.69,1.54,1.54h0c0,.85-.69,1.54-1.54,1.54Z" style="fill: #f5dac2;"/>
              <path d="m391.81,758.07h-5.28c-.85,0-1.54-.69-1.54-1.54h0c0-.85.69-1.54,1.54-1.54h5.28c.85,0,1.54.69,1.54,1.54h0c0,.85-.69,1.54-1.54,1.54Z" style="fill: #f5dac2;"/>
            </g>
            <polygon points="343.03 749.55 343.03 767.32 352.07 761.04 361.11 767.32 361.11 749.55 343.03 749.55" style="fill: #c24e4e;"/>
          </g>
          <g>
            <path d="m30.12,677.79v40.94h118.99c11.29,0,20.48-9.17,20.48-20.46s-9.19-20.48-20.48-20.48H30.12Z" style="fill: #fff4e3;"/>
            <path d="m375.38,676.06v44.39c0,3.52-2.85,6.37-6.36,6.37H30.13v-8.09h128.73c20.73-17.94,8.13-40.93-9.74-40.93H30.13v-8.09h338.89c3.51,0,6.36,2.85,6.36,6.36Z" style="fill: #ffb83d;"/>
            <rect x="195.14" y="669.7" width="7.66" height="57.11" transform="translate(397.94 1396.52) rotate(180)" style="fill: #ffd894;"/>
            <rect x="214.29" y="669.7" width="7.66" height="57.11" transform="translate(436.25 1396.52) rotate(180)" style="fill: #ffd894;"/>
            <path d="m375.38,718.74v1.71c0,3.52-2.85,6.37-6.36,6.37H118l-2.05-8.09h33.18c11.29,0,20.48-9.17,20.48-20.46s-9.19-20.47-20.48-20.47h-36.62l6.9-8.09h60.82c5.1,4.31,8.32,20.85,3.67,34.66-6.51,19.35,3.93,13.52,28.16,14.37,22.55.8,146.14.11,163.33.01Z" style="fill: #ebcf9d; mix-blend-mode: multiply;"/>
            <path d="m154.67,678.56c-3.76-4.45-9.38-7.29-15.65-7.29H30.12v6.52h118.99c1.92,0,3.79.27,5.56.77Z" style="fill: #ffb32e;"/>
            <path d="m177.68,698.26c0,15.74-12.81,28.55-28.56,28.55H30.13v-8.09h118.99c11.29,0,20.48-9.17,20.48-20.46s-9.19-20.47-20.48-20.47H30.13v-8.09h118.99c15.75,0,28.56,12.81,28.56,28.56Z" style="fill: #ffd894;"/>
            <g>
              <path d="m105.6,685.62H35.51c-.85,0-1.54-.69-1.54-1.54h0c0-.85.69-1.54,1.54-1.54h70.09c.85,0,1.54.69,1.54,1.54h0c0,.85-.69,1.54-1.54,1.54Z" style="fill: #f5dac2;"/>
              <path d="m155.72,714.81h-79.49c-.85,0-1.54-.69-1.54-1.54h0c0-.85.69-1.54,1.54-1.54h79.49c.85,0,1.54.69,1.54,1.54h0c0,.85-.69,1.54-1.54,1.54Z" style="fill: #f5dac2;"/>
              <path d="m105.6,700.53h-43.77c-.85,0-1.54-.69-1.54-1.54h0c0-.85.69-1.54,1.54-1.54h43.77c.85,0,1.54.69,1.54,1.54h0c0,.85-.69,1.54-1.54,1.54Z" style="fill: #f5dac2;"/>
              <path d="m53.65,700.53h-18.92c-.85,0-1.54-.69-1.54-1.54h0c0-.85.69-1.54,1.54-1.54h18.92c.85,0,1.54.69,1.54,1.54h0c0,.85-.69,1.54-1.54,1.54Z" style="fill: #f5dac2;"/>
              <path d="m148.19,700.53h-18.92c-.85,0-1.54-.69-1.54-1.54h0c0-.85.69-1.54,1.54-1.54h18.92c.85,0,1.54.69,1.54,1.54h0c0,.85-.69,1.54-1.54,1.54Z" style="fill: #f5dac2;"/>
              <path d="m137.19,685.62h-6.23c-.85,0-1.54-.69-1.54-1.54h0c0-.85.69-1.54,1.54-1.54h6.23c.85,0,1.54.69,1.54,1.54h0c0,.85-.69,1.54-1.54,1.54Z" style="fill: #f5dac2;"/>
              <path d="m67.54,714.81h-6.23c-.85,0-1.54-.69-1.54-1.54h0c0-.85.69-1.54,1.54-1.54h6.23c.85,0,1.54.69,1.54,1.54h0c0,.85-.69,1.54-1.54,1.54Z" style="fill: #f5dac2;"/>
              <path d="m165.03,700.53h-6.23c-.85,0-1.54-.69-1.54-1.54h0c0-.85.69-1.54,1.54-1.54h6.23c.85,0,1.54.69,1.54,1.54h0c0,.85-.69,1.54-1.54,1.54Z" style="fill: #f5dac2;"/>
            </g>
            <polygon points="126.07 689.31 126.07 707.21 118.06 700.88 110.05 707.21 110.05 689.31 126.07 689.31" style="fill: #c24e4e;"/>
          </g>
          <g>
            <path d="m398.22,667.99c-1.77-.63-295.39,1.2-296.65-.62-7.14-3.32-13.17-8.94-17.04-15.79h-.05v-37.52h.03c4.11-7.28,10.66-13.16,18.37-16.4h294.81c-6.96,22.79-4.25,47.37.53,70.34Z" style="fill: #fff4e3;"/>
            <path d="m402.73,660.25c1.03,1.02,1.67,2.45,1.67,4.02,0,3.14-2.54,5.69-5.69,5.69H112.39c-5.24,0-10.24-1.05-14.78-2.97-.47-.2-.94-.41-1.39-.63-.47-.22-.94-.45-1.4-.69-.38-.2-.76-.4-1.14-.62-.4-.23-.8-.46-1.19-.7-.33-.2-.66-.41-.99-.62-.34-.23-.68-.45-1.01-.69-.29-.21-.59-.42-.87-.63-.3-.23-.6-.46-.89-.69-.27-.21-.52-.42-.77-.63-.27-.23-.54-.46-.81-.69-.23-.2-.45-.41-.67-.62-.26-.23-.5-.46-.75-.7l-.31-.31c-.1-.1-.2-.2-.29-.3-.23-.23-.45-.45-.65-.69-.2-.2-.39-.41-.58-.63-.2-.23-.41-.46-.6-.69-.18-.2-.35-.41-.51-.62-.19-.23-.38-.46-.56-.7-.16-.2-.31-.41-.46-.62-.17-.23-.34-.45-.5-.69-.15-.21-.3-.42-.44-.63-.16-.23-.31-.47-.46-.69-.13-.21-.27-.41-.39-.62-.14-.23-.28-.46-.43-.7-.12-.21-.25-.42-.36-.63-.02-.03-.04-.06-.05-.09-3.11-5.53-4.88-11.9-4.88-18.69s1.77-13.16,4.88-18.69c0-.02.02-.04.03-.06.11-.21.24-.42.36-.62.13-.24.28-.47.43-.7.12-.21.26-.41.39-.62.14-.23.29-.46.45-.69.14-.21.28-.42.44-.63.16-.24.33-.46.5-.69.15-.21.3-.42.46-.62.18-.24.37-.47.55-.7.17-.21.34-.42.51-.62.2-.24.4-.46.61-.69.18-.22.37-.43.57-.63.21-.24.43-.46.65-.69.2-.21.41-.42.62-.63.24-.23.48-.46.73-.69.22-.21.45-.42.68-.62.27-.24.54-.47.82-.7.25-.21.49-.42.75-.62.29-.24.59-.46.89-.69.28-.21.57-.42.86-.63.33-.24.67-.46,1.01-.69.32-.21.64-.42.98-.62.39-.25.79-.47,1.19-.7.38-.22.76-.43,1.15-.63.46-.24.91-.46,1.38-.68.46-.22.92-.43,1.39-.63,4.57-1.93,9.6-3.01,14.87-3.01h286.32c1.57,0,3,.64,4.02,1.67,1.03,1.02,1.67,2.45,1.67,4.02,0,3.15-2.54,5.69-5.69,5.69H113.38c-.96,0-1.91.05-2.83.14-1.38.13-2.73.37-4.05.69-.72.18-1.44.39-2.14.63-.64.21-1.26.44-1.88.69-.46.19-.92.4-1.37.62-.46.22-.92.45-1.38.7-.36.19-.71.39-1.06.62-.37.22-.74.45-1.1.69-.3.2-.61.41-.9.63-.31.23-.61.46-.91.69-.26.2-.5.41-.75.62-.27.23-.53.45-.79.7-.22.2-.44.41-.65.62-.24.23-.46.45-.68.69-.2.21-.39.42-.57.63-.21.23-.41.46-.59.69-.18.2-.35.41-.5.62-.19.23-.36.46-.53.7-.16.21-.31.42-.45.63-.15.23-.3.46-.45.68-.14.21-.27.42-.39.63-.15.23-.28.46-.42.7-.12.21-.24.41-.33.62-.13.23-.25.45-.36.69-.1.21-.21.42-.29.63-.11.23-.22.46-.31.69-.09.21-.17.41-.25.62-.1.24-.19.46-.27.7-.09.2-.15.41-.22.62-.09.23-.16.45-.22.69-.08.21-.13.42-.19.63-.07.23-.12.46-.18.69-.06.2-.1.41-.14.62-.06.23-.1.46-.14.7-.05.2-.09.41-.11.62-.05.23-.08.45-.1.69-.04.21-.07.42-.09.63-.03.23-.05.46-.07.69-.03.21-.04.42-.05.63-.02.23-.03.46-.03.69-.02.2-.03.41-.02.62,0,.11,0,.22,0,.33,0,.12,0,.25,0,.37,0,.21,0,.42.02.62,0,.24,0,.46.03.69,0,.21.03.42.06.63,0,.24.03.46.07.69.02.21.05.42.09.62.02.24.06.47.1.7.03.21.07.42.11.63.04.23.09.45.14.68.04.21.09.42.14.63.06.24.11.46.18.7.06.21.12.42.19.62.07.24.13.46.23.69.06.21.12.42.21.62.08.24.17.46.27.7.08.21.16.41.26.62.1.24.2.46.31.69.09.21.19.42.29.63.11.24.23.46.36.69.1.21.22.41.33.62.13.24.27.47.42.7.12.21.25.42.39.62.14.24.29.46.46.69.14.21.29.42.46.63.16.24.34.46.52.69.16.21.32.42.5.62.19.24.39.47.61.7.18.22.37.42.57.63.22.23.45.46.67.68.22.22.45.43.66.63.26.25.52.47.8.7.25.21.49.42.75.62.3.24.61.47.92.69.29.22.6.43.9.63.36.25.72.47,1.1.69.35.22.71.43,1.08.62.45.26.91.48,1.38.7.45.22.91.43,1.37.62.63.26,1.26.48,1.91.69.72.25,1.45.45,2.2.63,1.42.35,2.89.58,4.39.69.77.08,1.54.11,2.32.11h285.32c1.57,0,3,.63,4.02,1.67Z" style="fill: #bf247b;"/>
            <path d="m256.78,619.45H109.79c-.85,0-1.54-.69-1.54-1.54h0c0-.85.69-1.54,1.54-1.54h147c.85,0,1.54.69,1.54,1.54h0c0,.85-.69,1.54-1.54,1.54Z" style="fill: #f5dac2;"/>
            <path d="m359.57,648.64h-166.27c-.85,0-1.54-.69-1.54-1.54h0c0-.85.69-1.54,1.54-1.54h166.27c.85,0,1.54.69,1.54,1.54h0c0,.85-.69,1.54-1.54,1.54Z" style="fill: #f5dac2;"/>
            <path d="m256.78,634.36h-93.02c-.85,0-1.54-.69-1.54-1.54h0c0-.85.69-1.54,1.54-1.54h93.02c.85,0,1.54.69,1.54,1.54h0c0,.85-.69,1.54-1.54,1.54Z" style="fill: #f5dac2;"/>
            <path d="m150.21,634.36h-42.03c-.85,0-1.54-.69-1.54-1.54h0c0-.85.69-1.54,1.54-1.54h42.03c.85,0,1.54.69,1.54,1.54h0c0,.85-.69,1.54-1.54,1.54Z" style="fill: #f5dac2;"/>
            <path d="m344.13,634.36h-42.03c-.85,0-1.54-.69-1.54-1.54h0c0-.85.69-1.54,1.54-1.54h42.03c.85,0,1.54.69,1.54,1.54h0c0,.85-.69,1.54-1.54,1.54Z" style="fill: #f5dac2;"/>
            <path d="m318.12,620.99h-16.02c-.85,0-1.54-.69-1.54-1.54h0c0-.85.69-1.54,1.54-1.54h16.02c.85,0,1.54.69,1.54,1.54h0c0,.85-.69,1.54-1.54,1.54Z" style="fill: #f5dac2;"/>
            <path d="m178.7,648.64h-16.02c-.85,0-1.54-.69-1.54-1.54h0c0-.85.69-1.54,1.54-1.54h16.02c.85,0,1.54.69,1.54,1.54h0c0,.85-.69,1.54-1.54,1.54Z" style="fill: #f5dac2;"/>
            <path d="m378.66,634.36h-16.02c-.85,0-1.54-.69-1.54-1.54h0c0-.85.69-1.54,1.54-1.54h16.02c.85,0,1.54.69,1.54,1.54h0c0,.85-.69,1.54-1.54,1.54Z" style="fill: #f5dac2;"/>
            <polygon points="285.99 639.63 276.39 634.18 266.8 639.63 266.8 616.37 285.99 616.37 285.99 639.63" style="fill: #cf3a3a;"/>
          </g>
        </g>
        <g>
          <g>
            <path d="m204,399.86l.32,15.07c-9.98,1.33-42.44-20.37-41.28-25.85,2.4-11.32,16.07-17.2,16.07-17.2l24.89,27.98Z" style="fill: #ffd0bd;"/>
            <path d="m175.16,402.6c5.89,5.37,13.3,8.3,13.3,8.3,3.07-.52,9.63-8.47,12.17-17.84-10.11-8.94-19.52-21.84-27-24.63,0,0-13.06,7.95-13.87,14.89-.46,3.87,7.92,12.46,15.4,19.28Z" style="fill: #ff699b;"/>
            <path d="m253.31,409.85c.49-3.99-8.17-.47-11.02-3.84.08-.98,3.16-2.99,2.07-3.69-2.19-1.42-6.32,3.14-8.64,4.2l.09,7.49c3.8,1.67,16.6,3.19,17.5-4.15Z" style="fill: #ffd0bd;"/>
            <path d="m200.87,398.3c6.62,4.15,22.29,6.08,37.28,8.19l-.3,7.22s-29.79,5.35-40.85-.75l3.87-14.66Z" style="fill: #ffd0bd;"/>
            <path d="m188.47,410.91s-6.98-8.05-6.07-17.18c.91-9.13-6.37-13.33-6.37-13.33l-.87,22.2c5.89,5.37,13.3,8.3,13.3,8.3Z" style="fill: #dbb8be; mix-blend-mode: multiply;"/>
          </g>
          <path d="m198.88,591.98c0-.06-.02-.12-.05-.17-.24-4.42-12.22-3.47-14.38-11.84-3.6-7.17-9.4,8.89-13.02-.8-2.68-.35-2.24,4.78-2.45,4.98-.74.76-1.33,4-.69,4.59-1.43,10.33,6.25,3.64,20.35,6.26,12.43,1.72,10.13-1.48,10.23-3.02Z" style="fill: #312073;"/>
          <path d="m142.26,577.72l-13.36,1.12s-6.47,11.9-2.5,15c3.97,3.1,16.95,1.26,18.36-.76,2.42-3.46-2.5-15.36-2.5-15.36Z" style="fill: #312073;"/>
          <path d="m187.19,582.67c-6.3,1.14-12.63,1.06-19,0l-10.22-77.12,25.48-8.97c2.03,29.97,3.73,86.09,3.73,86.09Z" style="fill: #7f3abd;"/>
          <path d="m184.16,513.05l-24.71,2.73-13.54-83.24s33.75-6.56,35.24,6.43l3.01,74.08Z" style="fill: #7f3abd;"/>
          <path d="m146.89,582.67c-6.57,1.14-15.35,1.06-22.41,0l.64-81.55,27.71-5.95c-1.86,31.46-5.95,87.5-5.95,87.5Z" style="fill: #7f3abd;"/>
          <path d="m159.74,438.21l-8.48,75.19-26.08-.64-.07-26.32v-.05l-.09-34.93-.02-7.67s34.91-19.31,34.74-5.58Z" style="fill: #7f3abd;"/>
          <path d="m148.46,457.28s-10.83,4.22-17.11,5.81c-4.7,1.19-5.92,15.94-6.23,23.29l-.09-34.93,23.43,5.83Z" style="fill: #cad8e8; mix-blend-mode: multiply;"/>
          <path d="m142.63,364.15c7.82,10.05,16.83,7.4,15.92.5-.95-.89-1.36-1.97-1.5-3.25-.18-1.62.07-3.54.14-5.77.02-.38.02-.77.03-1.17l-1.1-.14-2.6-.34-8.29-1.08c-.04.71-.06,1.46-.08,2.22-.08,2.58-.18,5.35-.95,7.18-.35.86-.86,1.51-1.58,1.84Z" style="fill: #ffd0bd;"/>
          <path d="m168.5,455.7h-.03c-17.15,2.83-42.63,2.27-46.78-4.99,8.03-17.88,6.55-30.2,3.54-40.51-3.35-11.48-8.59-20.46-4.69-31.84,2.69-7.85,11.69-13.71,21.54-15.09.8-.11,1.53-.56,2.35-.8,1.52,2.73,7.59,5.24,10.32,4.65,2.15-.46,3.17-3.8,3.17-3.8.42.09.83.2,1.24.28,7.37,1.43,11.6,3.14,14.47,4.84,11.19,6.6.94,53.54,10.52,79.74,1.17,3.2-5.89,5.91-15.67,7.52Z" style="fill: #ff699b;"/>
          <path d="m168.5,455.7h-.03c-17.15,2.83-42.63,2.27-46.78-4.99,8.03-17.88,6.55-30.2,3.54-40.51l12.5-18.4s2.41,14.98,0,24.09c-2.41,9.1-1.78,17.37,9.83,26.44,11.61,9.08,20.93,13.37,20.93,13.37Z" style="fill: #dbb8be; mix-blend-mode: multiply;"/>
          <path d="m142.08,363.27c2.57,2.58,7.3,6.48,12.06,6.02,4.42-.42,5.12-3.47,5.02-5.69-.4-.1-.82-.2-1.24-.28,0,0-1.02,3.34-3.17,3.8-2.74.59-8.81-1.92-10.33-4.65-.81.24-1.6.5-2.35.8Z" style="fill: #fff;"/>
          <g>
            <path d="m129.89,318.72c2.31-4.74,7.41-4.24,17.41-4.04,9.99.21,17.92,8.47,17.72,18.46-.21,9.99-7.29,16.64-17.22,17.79-13.17,1.53-24.94-17.78-17.9-32.21Z" style="fill: #232e38;"/>
            <path d="m166.95,317.58s8.39,14.93,4.73,27.93c-1.87,6.63-7.89,13.55-16.19,13.14-13.17-.66-16.65-9.63-17.6-14.99-1.52-8.53-1.6-17.37.03-22.46l29.04-3.61Z" style="fill: #ffdbcc;"/>
            <g>
              <path d="m150.98,337.69c.04,1.44-.75,2.64-1.76,2.66s-1.86-1.12-1.9-2.57c-.04-1.44.75-2.64,1.76-2.66,1.01-.03,1.86,1.12,1.9,2.57Z" style="fill: #222731;"/>
              <path d="m168.44,337.12c-.05,1.29-.81,2.3-1.71,2.27-.9-.03-1.59-1.1-1.55-2.39.05-1.29.81-2.3,1.71-2.27.9.03,1.59,1.1,1.55,2.39Z" style="fill: #222731;"/>
              <path d="m160.61,339.32c-.87-1.47-2.44-2.66-2.52-4.53-.03-.3-.49-.33-.54-.02-1.01,2.34,1.91,3.73,2.01,5.49.13,2.19-2.74,2.79-1.64,2.86,1.32.08,3.76-1.15,2.68-3.79Z" style="fill: #f2e0d5; mix-blend-mode: multiply;"/>
              <path d="m151.69,333.36c-.1-.11-.21-.2-.32-.3-.25-.21-.52-.36-.82-.49-.55-.24-1.17-.32-1.76-.24-1.16.14-2.04.97-2.52,2.01-.17.37.45.66.64.3.21-.39.47-.66.86-.86.35-.18.75-.33,1.12-.33.21,0,.38.01.55.05.11.03.23.06.34.11.11.04.11.04.21.1.2.11.35.22.47.33.23.21.37.47.68.58.37.12.85-.16.83-.59-.01-.26-.1-.46-.28-.65Z" style="fill: #232e38;"/>
              <path d="m164.9,332.62c.1-.09.2-.16.31-.24.24-.17.49-.28.76-.38.51-.17,1.06-.19,1.58-.08,1.02.21,1.74,1.02,2.08,1.97.12.34-.45.55-.6.22-.15-.36-.37-.62-.7-.83-.29-.19-.64-.35-.96-.38-.18-.02-.34-.02-.49,0-.1.02-.21.04-.31.07-.1.03-.1.03-.19.07-.18.08-.33.17-.44.26-.22.17-.36.39-.65.46-.34.08-.74-.21-.69-.58.03-.23.12-.4.3-.56Z" style="fill: #232e38;"/>
              <g>
                <path d="m161.22,347.01c.03.98-.36,1.89-1.02,2.57-.71.74-1.74,1.22-2.89,1.25-1.24.04-2.36-.44-3.13-1.22-.61-.62-.99-1.44-1.02-2.34-.07-2.04,2.57-.59,4.08-.63,1.26-.04,3.92-1.66,3.98.38Z" style="fill: #942525;"/>
                <path d="m160.2,349.58c-.71.74-1.74,1.22-2.89,1.25-1.24.04-2.36-.44-3.13-1.22.59-.63,1.66-1.07,2.9-1.11,1.35-.04,2.53.4,3.12,1.07Z" style="fill: #ff7878;"/>
              </g>
              <path d="m149.13,336.97c.01-.28.25-.5.53-.49.28.01.5.25.49.53-.01.28-.25.5-.53.49-.28-.01-.5-.25-.49-.53Z" style="fill: #fff;"/>
              <path d="m166.76,336.22c0-.25.22-.44.47-.44.25,0,.44.22.44.47,0,.25-.22.44-.47.44-.25,0-.44-.22-.44-.47Z" style="fill: #fff;"/>
            </g>
            <path d="m170.66,313.59c1.62,2.34,1.45,8-2.25,9.26-7.42,2.52-19.26.16-22.03.06-9.94-.37-1.29,9.3-8.71,13.97-.07-1.75-.61-3.11-2.4-3.31-2.1-.12-2.89,1.39-3.22,2.36,0,0-8.87-15.67,2.08-21.15,0,0,1.85-4.59,5.61-6.18,6.39-2.71,23.87-5.19,30.93,5Z" style="fill: #232e38;"/>
            <path d="m133.11,333.81c1.27-2.43,3.71.14,4.15,1.12.95,2.08,1.59,8.99,1.59,8.99-6.76-.13-7.01-7.68-5.74-10.11Z" style="fill: #ffdbcc;"/>
            <path d="m134.21,335.79c.48-.26,1.19-.18,1.47.33.12.22-.18.44-.33.23-.12-.17-.33-.24-.53-.17-.17.06-.32.27-.39.43-.22.5.04,1.08.25,1.54.21.45.48.88.8,1.27.33.41.78.72,1.11,1.12.32.39-.21.99-.64.74-.33-.19-.59-.5-.83-.79-.23-.27-.43-.55-.62-.85-.38-.61-.71-1.29-.86-1.99-.14-.63-.07-1.52.57-1.87Z" style="fill: #f2e0d5; mix-blend-mode: multiply;"/>
          </g>
          <path d="m110.02,434.16l14.44-6.05,13.27-44.09s-12.05-10.31-18.31-3.11c-6.68,7.69-14.94,39.84-9.4,53.25Z" style="fill: #ffdbcc;"/>
          <path d="m108.32,405.58c3.98,5.34,17.99,8.77,21.56,8.76,0,0,18.43-36.89,6.96-43.41-19.16-10.88-28.52,34.64-28.52,34.64Z" style="fill: #ff699b;"/>
          <g>
            <path d="m133.84,442.43h12.28v21.73h-12.27c-3.58,0-6.48-2.9-6.48-6.48v-8.76c0-3.58,2.9-6.48,6.48-6.48Z" transform="translate(-191.64 112.21) rotate(-27.13)" style="fill: #ffbd42;"/>
            <path d="m130.99,462.64l-5.2-10.15c-1.3-2.54-.3-5.65,2.24-6.95l.51-.26c.08.23.17.45.28.67l5.2,10.15c1.3,2.54,4.41,3.54,6.95,2.24l7.04-3.61,2.02,3.95-12.1,6.2c-2.54,1.3-5.65.3-6.95-2.24Z" style="fill: #ffaa0a;"/>
            <g>
              <path d="m245.53,381.01l16.55-1.84,6.29-.64,6.49-.66c1.73-.18,2.8,1.85,1.67,3.18l-4.5,5.29-4.68,5.52-10.19,12.34h0l-.48.58-.12-.26-2.49,1.33-10.51-22.4,2.49-1.33-.52-1.11Z" style="fill: #ffdbcc;"/>
              <path d="m267.35,391.85l4.68-5.52,4.5-5.29c1.13-1.33.06-3.36-1.67-3.18l-6.49.66-6.29.64c.32,2.67,1.05,5.3,2.22,7.8.84,1.79,1.86,3.42,3.05,4.88Z" style="fill: #312073;"/>
              <path d="m245.31,381.07l-10.44,5.59s-.08.07-.12.11l-99.91,53.5,2.78,5.92,108.97-58.35c.57-.3,1.92-2.7,1.15-4.34-.77-1.65-1.86-2.74-2.43-2.44Z" style="fill: #ffbd42;"/>
              <path d="m246.59,387.84l-108.97,58.35,2.8,5.97,109.03-58.38s-.04.02-.06.03c.57-.3,1.92-2.7,1.15-4.34-.77-1.64-3.38-1.93-3.95-1.62Z" style="fill: #ffbd42;"/>
              <path d="m249.45,393.78l-109.03,58.38,2.8,5.97,109.06-58.4s-.07.03-.1.04c.57-.3,1.92-2.7,1.15-4.34-.75-1.59-3.22-1.91-3.89-1.65Z" style="fill: #ffaa0a;"/>
              <path d="m252.29,399.73l-109.06,58.4,2.78,5.91,99.91-53.5c.06,0,.11,0,.16-.02l10.44-5.59c.57-.3.4-1.89-.37-3.54-.73-1.56-3.12-1.89-3.85-1.66Z" style="fill: #ffaa0a;"/>
              <path d="m156.08,461.03c-1.16.62-2.53.33-3.26-.63l-2.03,1.09c.28,1.2-.31,2.55-1.47,3.17-1.16.62-2.53.33-3.26-.63l-.05.03-.22-.47s0,0,0,0l-10.71-22.82s0,0,0,0l-.22-.47.05-.03c-.28-1.2.31-2.55,1.48-3.17,1.16-.62,2.53-.33,3.26.63l2.03-1.09c-.28-1.2.31-2.55,1.47-3.17,1.16-.62,2.53-.33,3.26.63l2.03-1.09c-.28-1.2.31-2.55,1.47-3.17,1.16-.62,2.53-.33,3.26.63l.05-.03,9.67-5.18,11.16,23.77-9.67,5.18-.05.03c.28,1.2-.31,2.55-1.48,3.17-1.16.62-2.53.33-3.26-.63l-2.03,1.09c.28,1.2-.31,2.55-1.47,3.17Z" style="fill: #463496;"/>
              <path d="m143.13,433.46c1.16-.62,2.53-.33,3.26.63l2.03-1.09c-.28-1.2.31-2.55,1.47-3.17,1.16-.62,2.53-.33,3.26.63l.05-.03,9.67-5.18.66,1.41-9.67,5.18-.05.03c-.73-.96-2.1-1.26-3.26-.63-1.16.62-1.76,1.97-1.47,3.17l-2.03,1.09c-.73-.96-2.1-1.26-3.26-.63-1.16.62-1.76,1.97-1.48,3.17l-2.03,1.09c-.73-.96-2.1-1.26-3.26-.63s-1.76,1.97-1.48,3.17l-.05.03-.44-.93s0,0,0,0l-.22-.47.05-.03c-.28-1.2.31-2.55,1.48-3.17,1.16-.62,2.53-.33,3.26.63l2.03-1.09c-.28-1.2.31-2.55,1.47-3.17Z" style="fill: #20206e;"/>
            </g>
            <polygon points="147.03 435.48 157.52 457.84 159.42 456.82 148.93 434.46 147.03 435.48" style="fill: #20206e;"/>
            <polygon points="153.81 431.9 164.31 454.26 166.21 453.24 155.71 430.88 153.81 431.9" style="fill: #20206e;"/>
            <polygon points="140.32 439.03 150.82 461.39 152.72 460.38 142.22 438.02 140.32 439.03" style="fill: #20206e;"/>
          </g>
          <path d="m119.23,422.93l28.95,23.87-3.55,7.04c-7.01-3-35.18-12.9-34.87-21.27l9.48-9.63Z" style="fill: #ffdbcc;"/>
          <path d="m165.04,454.86c.4-2.18-9.88-3.37-10.55-4.22-1.79-2.25,5.39-2.93,1.77-4.75-1.26-.63-7.18,1.23-8.81.31l-3.86,6.89c1.31,11.88,19.63,11.59,21.45,1.76Z" style="fill: #ffdbcc;"/>
        </g>
        <g>
          <g>
            <path d="m969.62,435.9l1.25-7.9c5.25-1.12,12.55,3.37,15.21,7.35,2.66,3.98,2.51,8.74.99,12.92-1.22,3.37-3.31,6.8-2.2,10.29.82,2.58,3.23,4.67,5.4,6.75,3.67,3.52,6.85,7.35,9.47,11.41,1.75,2.72,3.27,5.61,3.43,8.6.41,7.48-7.45,13.21-9.73,20.36-1.99,6.23.74,13.46,6.81,18.06-6.67-1.65-12.65-5.34-16.39-10.13-3.74-4.78-5.21-10.61-4.04-15.99.86-3.94,3.06-7.56,4.43-11.39,1.37-3.83,1.83-8.19-.64-11.82-.88-1.29-2.08-2.42-3.39-3.48,2.08,3.6,4.13,7.23,3.63,10.92-.89,6.56-9.59,11.12-9.42,17.76-1.7-7.46,6.65-14.54,3.81-21.82-1.24-3.17-4.39-5.66-6.42-8.59-3.67-5.31-2.14-11.64,1.21-16.75.03-.04,4.19-5.56,3.93-9.4-.26-3.84-2.55-7.02-7.35-7.16Z" style="fill: #873c29;"/>
            <g>
              <path d="m857.11,691.89c1.92,3.19,9.66,2.51,12.18.97,2.52-1.53,7.07-5.06,9.37-5,2.29.06,7.14.23,8.22-2.1.98-2.13.03-6.11-.4-9.2h0c-.35-2.49,1.96-12.57,1.96-12.57l-13.5.95s1.64,9.38,0,12.5c-1.02,1.94-3.68,3.99-6.18,4.97-.99.39-12.81,7.54-11.64,9.48Z" style="fill: #ffd4c2;"/>
              <path d="m854.85,692.12c1.92,3.19,11.91,2.27,14.43.73,2.52-1.53,7.07-5.06,9.37-5,2.29.06,7.14.23,8.22-2.1.98-2.13.03-6.11-.4-9.2h0s-1.13,2.69-2.76,4.69c-1.63,2-15.74,8.37-17.7,2.3-3.42.15-12.33,6.64-11.16,8.58Z" style="fill: #442361;"/>
            </g>
            <g>
              <path d="m922.86,696.96c3.33,1.66,9.5-3.06,10.8-5.71,1.3-2.64,3.26-8.06,5.23-9.24,1.96-1.18,6.15-3.63,5.81-6.18-.31-2.33-3.25-5.17-5.27-7.55h0c-1.63-1.91-5.08-11.66-5.08-11.66l-10.88,8.04s6.41,7.04,6.7,10.55c.18,2.18-.97,5.34-2.55,7.51-.62.86-6.77,13.23-4.74,14.24Z" style="fill: #ffd4c2;"/>
              <path d="m921.08,698.37c3.33,1.66,11.27-4.47,12.58-7.12,1.3-2.64,3.26-8.06,5.23-9.24,1.96-1.18,6.15-3.63,5.81-6.18-.31-2.33-3.25-5.17-5.27-7.55h0s.49,2.88.18,5.44c-.3,2.57-8.79,15.5-13.7,11.43-2.81,1.96-6.84,12.22-4.81,13.22Z" style="fill: #442361;"/>
            </g>
            <path d="m874.01,673.78c5.82.76,7.86.97,14.17-.79,2.41-12.86,8.97-71.83,3.51-96.25-.21-.94-17.11-14.62-17.11-14.62-10.63,11.57-.75,102.66-.58,111.66Z" style="fill: #8a9926;"/>
            <path d="m874.59,562.13c-.54.19,10.44,22.4,11.45,21.99,9.83-4.07,60.19-2.88,78.63-18.85.31-.27,4.84-28.97-8.74-27.59,0,0-68.8,12.69-81.34,24.45Z" style="fill: #8a9926;"/>
            <path d="m939.79,467.12c-.1,20.6,15.25,13.85,22.64.17-1.23-1.12-1.87-2.55-2.23-4.26-.46-2.16-.48-4.77-.74-7.78-.04-.51-.09-1.04-.15-1.57l-1.28-.1-3.04-.25-9.7-.8c.07.95.16,1.96.26,3,.31,3.48.63,7.22.04,9.74-.27,1.18-5.02,1.35-5.8,1.85Z" style="fill: #fac9b4;"/>
            <path d="m913.81,511.11l-23.48,26.09,5.66,7.08c14.59-10.85,34.12-20.15,36.55-32.29l-18.72-.88Z" style="fill: #fac9b4;"/>
            <path d="m911.97,509.43c5.38,5.67,14.79,11.36,22.89,14.29l10.88-21.7-13.07-28.82c-9.56,5.81-14.56,21.53-20.71,36.23Z" style="fill: #a469d6;"/>
            <path d="m923.76,670.37c6.29-1.46,9.33-2.65,15.17-6.89-6.26-13.85-14.03-65.81-29.07-88.89-.58-.88-16.88-3.8-16.88-3.8-11.26,18.47,25.78,91.63,30.78,99.58Z" style="fill: #9ead39;"/>
            <path d="m902.81,587.45s-10.98-15.36-10.45-15.7c7.12-12.28,38.74-18.8,48.85-28.43,9.76-3.41,31.23-9.93,32.14,3.68.42,6.19,3.4,25.43-7.7,33.77-12.19,9.15-62.84,6.68-62.84,6.68Z" style="fill: #9ead39;"/>
            <path d="m979.44,503.63c-.83,1.54-1.84,3.03-2.91,4.5-4.79,6.6-10.81,12.98-7.9,23.33,2.27,8.09,9.44,20.85,6.71,24.49-2.19,2.91-6.13,4.7-10.9,5.69-14.96,3.11-39.46-13.61-42.13-17.21,1.84-4.18,6.25-13.05,6.48-17.06.52-8.91-.49-14.04-5.14-25.99-3.5-8.98-1.29-32.33,20.75-35.28-2.28,14.27,12.19,9.68,18.04,1.19,3.99.73,11.13,5.32,13.75,8.4,7,8.21,7.45,15.74,3.26,27.93Z" style="fill: #9152c7;"/>
            <path d="m947.19,479.58c9.75,2.09,17.19-7.11,19.4-10.97-.82-.1-3.36-1.19-4.15-1.31-5.84,8.5-20.32,13.08-18.04-1.19-.97-.23-2.83.28-4.12.84-.88,4.33.74,11.31,6.91,12.63Z" style="fill: #fff;"/>
            <circle cx="952.31" cy="432.33" r="23.84" transform="translate(4.52 874.48) rotate(-49.43)" style="fill: #873c29;"/>
            <path d="m929.08,416.3s-7.67,19.16-1.25,34.1c3.27,7.62,10.86,13.48,20.71,11.68,15.63-2.86,17.33-11.72,17.63-18.27.47-10.43-2.53-21.04-5.27-26.87l-31.81-.64Z" style="fill: #ffdbcc;"/>
            <path d="m969.45,435.46c-1.71-2.45-4.76,1.65-4.76,1.65v10.08c7.28-1.11,6.47-9.28,4.76-11.73Z" style="fill: #ffdbcc;"/>
            <path d="m925.5,431.88c2.46-3.04,8.14-13.9,19.25-14.91,1.65,17.64,20.42,12.57,22.39,23.9,0,0,3.98-10.92-1.76-23.67-4.97-11.04-27.93-17.14-38.03.28-3.91,6.74-3.08,14.19-1.85,14.39Z" style="fill: #873c29;"/>
          </g>
          <g>
            <path d="m940.96,538.56l-34.6,11.59-2.28,10.13c18.31-1.08,41.81-3.91,51.13-11.09l-14.25-10.63Z" style="fill: #ffdbcc;"/>
            <path d="m940.96,538.56s13.57,11.4,14.25,10.63c10.44-11.87,18.87-43.26,19.5-48.31,1.86-14.78-15.72-9.6-18.65-2.41-4.33,10.66-15.11,40.09-15.11,40.09Z" style="fill: #ffdbcc;"/>
            <path d="m944.4,517.09c8.2,6.42,16.97,7.6,25.12,8.89,0,0,21.17-32.76,2.21-41.31-19.55-8.81-27.32,32.42-27.32,32.42Z" style="fill: #a469d6;"/>
          </g>
          <g>
            <polygon points="951.75 562.13 922.77 562.13 873.59 562.13 861.58 524.57 910.75 524.57 921.9 559.25 951.75 559.25 951.75 562.13" style="fill: #442361;"/>
            <path d="m921.9,562.13h-48.31l-12.01-37.56h5.73c9.36,35.97,40.86,30.64,54.59,37.56Z" style="fill: #34194d;"/>
          </g>
          <g>
            <path d="m950.51,440.64c-.05,1.62.84,2.97,1.97,3,1.14.03,2.1-1.26,2.14-2.88.05-1.62-.84-2.97-1.97-3-1.14-.03-2.1,1.26-2.14,2.88Z" style="fill: #222731;"/>
            <path d="m930.87,439.93c.05,1.45.91,2.59,1.92,2.56s1.79-1.23,1.75-2.68c-.05-1.45-.91-2.59-1.92-2.56s-1.79,1.23-1.75,2.68Z" style="fill: #222731;"/>
            <path d="m939.67,442.43c.98-1.65,2.75-2.99,2.85-5.08.04-.34.55-.37.6-.03,1.13,2.64-2.16,4.18-2.29,6.16-.16,2.47,3.07,3.15,1.84,3.22-1.49.09-4.23-1.31-3-4.27Z" style="fill: #f2e0d5; mix-blend-mode: multiply;"/>
            <path d="m949.73,435.77c.11-.12.24-.23.37-.33.28-.23.59-.41.92-.55.62-.27,1.31-.35,1.99-.27,1.31.16,2.29,1.1,2.82,2.27.19.41-.51.74-.73.34-.23-.44-.53-.75-.97-.98-.39-.2-.84-.37-1.25-.38-.23,0-.43.01-.62.06-.13.03-.26.07-.38.12-.13.05-.13.05-.23.11-.22.12-.4.24-.53.37-.26.24-.42.53-.77.64-.42.13-.96-.19-.94-.66.01-.3.11-.51.31-.73Z" style="fill: #873c29;"/>
            <path d="m934.87,434.88c-.11-.1-.23-.19-.35-.27-.27-.19-.55-.32-.86-.43-.57-.2-1.19-.22-1.78-.1-1.15.24-1.96,1.14-2.34,2.21-.14.38.51.62.67.25.17-.4.42-.7.79-.93.33-.21.72-.39,1.09-.42.21-.02.38-.02.55,0,.12.02.23.05.35.08.12.03.12.04.22.08.21.09.37.19.5.29.24.19.41.44.73.52.38.09.84-.24.78-.65-.03-.26-.14-.45-.33-.63Z" style="fill: #873c29;"/>
            <g>
              <path d="m938.95,451.08c-.04,1.1.39,2.12,1.14,2.89.8.83,1.95,1.37,3.25,1.42,1.39.05,2.66-.48,3.52-1.36.69-.7,1.12-1.62,1.16-2.63.08-2.3-2.89-.67-4.58-.73-1.41-.05-4.4-1.89-4.48.41Z" style="fill: #942525;"/>
              <path d="m940.09,453.97c.8.83,1.95,1.37,3.25,1.42,1.39.05,2.66-.48,3.52-1.36-.66-.71-1.87-1.21-3.26-1.26-1.51-.05-2.85.44-3.51,1.2Z" style="fill: #ff7878;"/>
            </g>
            <path d="m948.36,446.64c.03,1.06,2.15,1.85,4.74,1.77,2.58-.08,4.65-1.01,4.61-2.07-.03-1.06-2.15-1.85-4.74-1.77s-4.65,1.01-4.61,2.07Z" style="fill: #ffb394;"/>
            <path d="m928.17,445.03c0,.9,1.77,1.64,3.97,1.65,2.19,0,3.97-.72,3.98-1.62s-1.77-1.64-3.97-1.65c-2.19,0-3.97.72-3.98,1.62Z" style="fill: #ffb394;"/>
            <path d="m952.6,439.84c-.01-.32-.28-.56-.59-.55-.32.01-.56.28-.55.59.01.32.28.56.59.55.32-.01.56-.28.55-.59Z" style="fill: #fff;"/>
            <path d="m932.77,438.92c0-.28-.24-.5-.53-.49-.28,0-.5.24-.49.53s.24.5.53.49c.28,0,.5-.24.49-.53Z" style="fill: #fff;"/>
          </g>
        </g>
        <g>
          <circle cx="763" cy="724.69" r="55.13" transform="translate(-288.96 751.78) rotate(-45)" style="fill: #bfddff;"/>
          <path d="m822.33,713.07c-6.44-32.86-38.3-54.38-71.01-47.97-32.72,6.41-54.09,38.36-47.65,71.22,6.44,32.86,38.3,54.38,71.01,47.97,32.72-6.41,54.09-38.36,47.65-71.22Zm-109.54,21.47c-5.46-27.85,12.6-54.83,40.32-60.27,27.73-5.43,54.63,12.74,60.09,40.59,5.46,27.85-12.59,54.83-40.32,60.27-27.73,5.43-54.63-12.74-60.09-40.59Z" style="fill: #3d2f78;"/>
          <rect x="685.35" y="724.31" width="18.13" height="27.66" transform="translate(1285.22 -85.28) rotate(78.91)" style="fill: #3d2f78;"/>
          <path d="m781.77,707.92c-4.57-5.68-9.94-16-6.56-19.74,3.35-3.71,14.79-.34,21.42,6.41,7.85,7.98,10.12,21.86,5.84,24.9-4.18,2.97-14.83-4.28-20.7-11.57Z" style="fill: #e3f0ff;"/>
          <path d="m611.76,772.76c-16.49,3.29-32.22,5.7-47.07,7.43-2.21.26-4.4.51-6.58.74-1.9.2-3.78.38-5.65.57-9.24.88-18.08,1.51-26.51,1.93l-4.64-23.67c7.96-2.79,16.39-5.55,25.28-8.21,1.8-.54,3.61-1.07,5.45-1.61,2.1-.6,4.22-1.2,6.37-1.8,14.4-4,29.88-7.71,46.39-10.88,15.11-2.91,29.6-5.1,43.31-6.69,2.22-.26,4.41-.5,6.58-.73,1.9-.2,3.79-.38,5.65-.57,9.23-.88,18.08-1.52,26.51-1.94l4.64,23.67c-7.96,2.79-16.4,5.54-25.28,8.2-1.8.54-3.61,1.07-5.45,1.61-2.1.6-4.22,1.21-6.37,1.81-13.3,3.7-27.54,7.14-42.63,10.15Z" style="fill: #3d2f78;"/>
          <path d="m666.21,759.2l-5.87-29.93c9.23-.88,18.08-1.52,26.51-1.94l4.64,23.67c-7.96,2.79-16.4,5.54-25.28,8.2Z" style="fill: #ffb32e;"/>
          <path d="m552.47,781.5c-9.24.88-18.08,1.51-26.51,1.93l-4.64-23.67c7.96-2.79,16.39-5.55,25.28-8.21l5.87,29.95Z" style="fill: #ffb32e;"/>
          <path d="m654.4,762.62l-6.28-32.05c2.22-.26,4.41-.5,6.58-.73l6.07,30.97c-2.1.6-4.22,1.21-6.37,1.81Z" style="fill: #ffb32e;"/>
          <path d="m564.7,780.19c-2.21.26-4.4.51-6.58.74l-6.07-30.99c2.1-.6,4.22-1.2,6.37-1.8l6.28,32.05Z" style="fill: #ffb32e;"/>
        </g>
        <path d="m1039.08,789.74H6.04c-1.66,0-3-1.34-3-3s1.34-3,3-3h1033.04c1.66,0,3,1.34,3,3s-1.34,3-3,3Z" style="fill: #baaded;"/>
        <path d="m594.9,812.69h-289.04c-1.66,0-3-1.34-3-3s1.34-3,3-3h289.04c1.66,0,3,1.34,3,3s-1.34,3-3,3Z" style="fill: #baaded;"/>
        <path d="m705.69,812.69h-57.57c-1.66,0-3-1.34-3-3s1.34-3,3-3h57.57c1.66,0,3,1.34,3,3s-1.34,3-3,3Z" style="fill: #baaded;"/>
        <path d="m884.75,206.69c-.45,0-.89-.2-1.18-.58-.51-.65-.39-1.6.26-2.11,3.33-2.6,6.54-5.47,9.53-8.53.58-.59,1.53-.6,2.12-.02.59.58.6,1.53.02,2.12-3.09,3.15-6.4,6.11-9.83,8.79-.27.21-.6.32-.92.32Zm18.15-18.51c-.31,0-.63-.1-.9-.3-.66-.5-.79-1.44-.29-2.1,2.56-3.4,4.93-6.99,7.04-10.69.41-.72,1.33-.97,2.05-.56.72.41.97,1.33.56,2.05-2.18,3.81-4.62,7.51-7.25,11.01-.29.39-.74.6-1.2.6Zm12.87-22.51c-.19,0-.38-.04-.57-.11-.77-.32-1.13-1.19-.81-1.96,1.63-3.95,3.02-8.03,4.11-12.12.21-.8,1.04-1.28,1.84-1.06.8.21,1.28,1.04,1.06,1.84-1.13,4.21-2.55,8.41-4.24,12.49-.24.58-.8.93-1.39.93Zm6.69-25.05c-.06,0-.13,0-.19-.01-.82-.11-1.4-.86-1.3-1.68.12-.95.23-1.9.32-2.85.2-2.03.29-4.02.29-5.93,0-1.33-.05-2.64-.14-3.89-.06-.83.56-1.55,1.38-1.61.83-.06,1.55.56,1.61,1.38.1,1.32.15,2.7.15,4.11,0,2.01-.1,4.1-.31,6.22-.09.98-.2,1.96-.33,2.94-.1.76-.74,1.31-1.49,1.31Zm-16-16.27h0c-.65,0-1.31-.04-1.94-.12-.82-.11-1.4-.86-1.29-1.68.11-.82.86-1.4,1.68-1.29.51.07,1.03.1,1.55.1h0c3.25,0,6.68-1.27,9.41-3.49.64-.52,1.59-.43,2.11.22.52.64.42,1.59-.22,2.11-3.25,2.65-7.37,4.16-11.3,4.16Zm-11.11-8.02c-.64,0-1.23-.41-1.43-1.06-.41-1.33-.62-2.68-.62-4.03,0-3.41,1.32-6.35,3.71-8.29.39-.32.81-.61,1.24-.86.71-.42,1.63-.19,2.06.52.42.71.19,1.63-.52,2.06-.31.18-.61.39-.88.61-1.68,1.36-2.6,3.47-2.6,5.96,0,1.05.16,2.11.49,3.14.25.79-.2,1.63-.99,1.88-.15.05-.3.07-.44.07Zm24.55-1.25c-.56,0-1.1-.32-1.36-.86-1.44-3.08-3.4-5.63-5.83-7.57-.62-.49-1.29-.94-2-1.34-.72-.4-.99-1.32-.58-2.04.4-.73,1.32-.98,2.04-.58.86.48,1.67,1.02,2.42,1.62,2.79,2.23,5.04,5.14,6.68,8.64.35.75.03,1.64-.72,1.99-.21.1-.42.14-.63.14Zm3.52-5.5c-.12,0-.25-.02-.38-.05-.8-.21-1.28-1.03-1.07-1.83.62-2.4.94-5.01.94-7.78,0-.84-.03-1.69-.09-2.55-.05-.68-.11-1.36-.19-2.03-.1-.82.49-1.57,1.32-1.66.82-.09,1.57.49,1.66,1.32.08.72.15,1.45.2,2.18.06.92.09,1.85.09,2.75,0,3.02-.35,5.89-1.04,8.53-.18.67-.78,1.12-1.45,1.12Zm-2.61-25.43c-.59,0-1.14-.35-1.38-.92-1.58-3.77-3.68-7.45-6.26-10.95-.49-.67-.35-1.61.32-2.1.67-.49,1.61-.35,2.1.32,2.72,3.69,4.95,7.58,6.61,11.57.32.76-.04,1.64-.81,1.96-.19.08-.38.12-.58.12Zm-15.18-20.86c-.36,0-.72-.13-1.01-.39-3.1-2.8-6.52-5.37-10.17-7.64-.7-.44-.92-1.36-.48-2.07.44-.7,1.36-.92,2.07-.48,3.8,2.36,7.36,5.04,10.59,7.96.61.56.66,1.5.11,2.12-.3.33-.7.49-1.11.49Zm-21.95-13.7c-.19,0-.38-.04-.57-.11-3.8-1.55-7.88-2.91-12.14-4.04-.8-.21-1.28-1.03-1.07-1.83.21-.8,1.03-1.28,1.83-1.07,4.38,1.16,8.59,2.56,12.51,4.16.77.31,1.13,1.19.82,1.96-.24.58-.8.93-1.39.93Zm-25.04-6.77c-.08,0-.16,0-.24-.02-3.99-.64-8.17-1.15-12.8-1.57-.83-.07-1.43-.8-1.36-1.63s.8-1.44,1.63-1.36c4.69.42,8.95.94,13.01,1.6.82.13,1.37.9,1.24,1.72-.12.74-.76,1.26-1.48,1.26Zm-25.87-2.44s-.05,0-.07,0c-4.22-.2-8.37-.34-12.97-.49-.83-.03-1.48-.72-1.45-1.55.03-.83.76-1.47,1.55-1.45,4.61.15,8.77.29,13.01.49.83.04,1.47.74,1.43,1.57-.04.8-.7,1.43-1.5,1.43Z" style="fill: #8052ba;"/>
      </g>
    </g>
  </g>
</svg>