<?xml version="1.0" encoding="UTF-8"?>
<svg id="Layer_1" data-name="Layer 1" xmlns="http://www.w3.org/2000/svg" viewBox="0 0 1347.93 863.62">
  <rect width="1347.93" height="863.62" rx="52.51" ry="52.51" style="fill: #eff8ff;"/>
  <g style="opacity: .3;">
    <path d="m866.58,225.86c-42.95,0-83.93-4.25-122.5-12.74-69.97-15.4-130.29-44.55-179.27-86.64C442.59,21.45,298.8,25.28,199.71,46.99,92.31,70.51,12.82,119.51,12.03,120l-.32-.52c.79-.49,80.37-49.54,187.87-73.09,63.14-13.83,123.42-16.29,179.16-7.3,69.68,11.23,132.42,40.48,186.48,86.93,117.39,100.86,272.44,107.06,381.84,94.51,81.32-9.34,166.36-32.93,239.48-66.44,69.46-31.84,122.48-69.52,149.29-106.1l.5.36c-13.3,18.15-33.14,36.65-58.97,55-25.76,18.3-56.23,35.56-90.56,51.29-73.17,33.54-158.28,57.15-239.66,66.49-27.5,3.16-54.4,4.73-80.55,4.74Z" style="fill: #679ae2;"/>
    <path d="m866.58,245.72c-42.95,0-83.93-4.25-122.5-12.74-69.97-15.4-130.29-44.55-179.27-86.64C442.59,41.31,298.8,45.14,199.71,66.85,92.31,90.37,12.82,139.37,12.03,139.86l-.32-.52c.79-.49,80.37-49.54,187.87-73.09,63.14-13.83,123.42-16.29,179.16-7.3,69.68,11.23,132.42,40.48,186.48,86.93,117.39,100.86,272.44,107.06,381.84,94.51,81.32-9.34,166.36-32.93,239.48-66.44,69.46-31.84,122.48-69.52,149.29-106.1l.5.36c-13.3,18.15-33.14,36.65-58.97,55-25.76,18.3-56.23,35.56-90.56,51.29-73.17,33.54-158.28,57.15-239.66,66.49-27.5,3.16-54.4,4.73-80.55,4.74Z" style="fill: #679ae2;"/>
    <path d="m866.58,265.58c-42.95,0-83.93-4.25-122.5-12.74-69.97-15.4-130.29-44.55-179.27-86.64-122.23-105.03-266.01-101.2-365.11-79.49C92.31,110.23,12.82,159.22,12.03,159.72l-.32-.52c.79-.49,80.37-49.54,187.87-73.09,63.14-13.83,123.42-16.29,179.16-7.31,69.68,11.23,132.42,40.48,186.48,86.93,117.39,100.86,272.44,107.06,381.84,94.51,81.32-9.34,166.36-32.93,239.48-66.44,69.46-31.84,122.48-69.52,149.29-106.1l.5.36c-13.3,18.15-33.14,36.65-58.97,55-25.76,18.3-56.23,35.56-90.56,51.29-73.17,33.54-158.28,57.15-239.66,66.49-27.5,3.16-54.4,4.73-80.55,4.74Z" style="fill: #679ae2;"/>
    <path d="m866.58,285.43c-42.95,0-83.93-4.25-122.5-12.74-69.97-15.4-130.29-44.55-179.27-86.64-122.23-105.03-266.01-101.2-365.11-79.49C92.31,130.08,12.82,179.08,12.03,179.57l-.32-.52c.79-.49,80.37-49.54,187.87-73.09,63.14-13.83,123.42-16.29,179.16-7.3,69.68,11.23,132.42,40.48,186.48,86.93,117.39,100.86,272.44,107.06,381.84,94.51,81.32-9.34,166.36-32.93,239.48-66.44,69.46-31.84,122.48-69.52,149.29-106.1l.5.36c-13.3,18.15-33.14,36.65-58.97,55-25.76,18.3-56.23,35.56-90.56,51.29-73.17,33.54-158.28,57.15-239.66,66.49-27.5,3.16-54.4,4.73-80.55,4.74Z" style="fill: #679ae2;"/>
    <path d="m866.58,305.29c-42.95,0-83.93-4.25-122.5-12.74-69.97-15.4-130.29-44.55-179.27-86.64-122.23-105.03-266.01-101.2-365.11-79.49C92.31,149.94,12.82,198.94,12.03,199.43l-.32-.52c.79-.49,80.37-49.54,187.87-73.09,63.14-13.83,123.42-16.29,179.16-7.31,69.68,11.23,132.42,40.48,186.48,86.93,117.39,100.86,272.44,107.06,381.84,94.51,81.32-9.34,166.36-32.93,239.48-66.44,69.46-31.84,122.48-69.52,149.29-106.1l.5.36c-13.3,18.15-33.14,36.65-58.97,55-25.76,18.3-56.23,35.56-90.56,51.29-73.17,33.54-158.28,57.15-239.66,66.49-27.5,3.16-54.4,4.73-80.55,4.74Z" style="fill: #679ae2;"/>
    <path d="m866.58,325.15c-42.95,0-83.93-4.25-122.5-12.74-69.97-15.4-130.29-44.55-179.27-86.64-122.23-105.03-266.01-101.2-365.11-79.49C92.32,169.8,12.82,218.79,12.03,219.29l-.32-.52c.79-.49,80.37-49.54,187.87-73.09,63.14-13.83,123.42-16.29,179.16-7.3,69.68,11.23,132.42,40.48,186.48,86.93,117.39,100.86,272.44,107.06,381.84,94.51,81.32-9.34,166.36-32.93,239.48-66.44,69.46-31.84,122.48-69.52,149.29-106.1l.5.36c-13.3,18.15-33.14,36.65-58.97,55-25.76,18.3-56.23,35.56-90.56,51.29-73.17,33.54-158.28,57.15-239.66,66.49-27.5,3.16-54.4,4.73-80.55,4.74Z" style="fill: #679ae2;"/>
    <path d="m866.58,345.01c-42.95,0-83.93-4.25-122.5-12.74-69.97-15.4-130.29-44.55-179.27-86.64-122.23-105.03-266.01-101.2-365.11-79.49C92.32,189.66,12.82,238.65,12.03,239.14l-.32-.52c.79-.49,80.37-49.54,187.87-73.09,63.14-13.83,123.42-16.29,179.16-7.31,69.68,11.23,132.42,40.48,186.48,86.93,117.39,100.86,272.44,107.06,381.84,94.51,81.32-9.34,166.36-32.93,239.48-66.44,69.46-31.84,122.48-69.52,149.29-106.1l.5.36c-13.3,18.15-33.14,36.65-58.97,55-25.76,18.3-56.23,35.56-90.56,51.29-73.17,33.54-158.28,57.15-239.66,66.49-27.5,3.16-54.4,4.73-80.55,4.74Z" style="fill: #679ae2;"/>
    <path d="m866.58,364.86c-42.95,0-83.93-4.25-122.5-12.74-69.97-15.4-130.29-44.55-179.27-86.64-122.23-105.03-266.01-101.2-365.11-79.49C92.32,209.51,12.82,258.51,12.03,259l-.32-.52c.79-.49,80.37-49.54,187.87-73.09,63.14-13.83,123.42-16.29,179.16-7.31,69.68,11.23,132.42,40.48,186.48,86.93,117.39,100.86,272.44,107.06,381.84,94.51,81.32-9.34,166.36-32.93,239.48-66.44,69.46-31.84,122.48-69.52,149.29-106.1l.5.36c-13.3,18.15-33.14,36.65-58.97,55-25.76,18.3-56.23,35.56-90.56,51.29-73.17,33.54-158.28,57.15-239.66,66.49-27.5,3.16-54.4,4.73-80.55,4.74Z" style="fill: #679ae2;"/>
    <path d="m866.58,384.72c-42.95,0-83.93-4.25-122.5-12.74-69.97-15.4-130.29-44.55-179.27-86.64-122.23-105.03-266.01-101.2-365.1-79.49C92.32,229.37,12.82,278.37,12.03,278.86l-.32-.52c.79-.49,80.37-49.54,187.87-73.09,63.14-13.83,123.42-16.29,179.16-7.31,69.68,11.23,132.42,40.48,186.48,86.93,117.39,100.86,272.44,107.06,381.84,94.51,81.32-9.34,166.36-32.93,239.48-66.44,69.46-31.84,122.48-69.52,149.29-106.1l.5.36c-13.3,18.15-33.14,36.65-58.97,55-25.76,18.3-56.23,35.56-90.56,51.29-73.17,33.54-158.28,57.15-239.66,66.49-27.5,3.16-54.4,4.73-80.55,4.74Z" style="fill: #679ae2;"/>
    <path d="m866.58,404.58c-42.95,0-83.93-4.25-122.5-12.74-69.97-15.4-130.29-44.55-179.27-86.64-122.23-105.02-266.01-101.2-365.1-79.49C92.32,249.23,12.82,298.22,12.03,298.72l-.32-.52c.79-.49,80.37-49.54,187.87-73.09,63.14-13.83,123.42-16.29,179.16-7.31,69.68,11.23,132.42,40.48,186.48,86.93,117.39,100.86,272.44,107.06,381.84,94.51,81.32-9.34,166.36-32.93,239.48-66.44,69.46-31.84,122.48-69.52,149.29-106.1l.5.36c-13.3,18.15-33.14,36.65-58.97,55-25.76,18.3-56.23,35.56-90.56,51.29-73.17,33.54-158.28,57.15-239.66,66.49-27.5,3.16-54.4,4.73-80.55,4.74Z" style="fill: #679ae2;"/>
    <path d="m866.58,424.43c-42.95,0-83.93-4.25-122.5-12.74-69.97-15.4-130.29-44.55-179.27-86.64-122.23-105.02-266.01-101.2-365.1-79.49-107.39,23.52-186.89,72.52-187.68,73.01l-.32-.52c.79-.49,80.37-49.54,187.87-73.09,63.14-13.83,123.42-16.29,179.16-7.31,69.68,11.23,132.42,40.48,186.48,86.93,117.39,100.86,272.44,107.06,381.84,94.51,81.32-9.34,166.36-32.93,239.48-66.44,69.46-31.84,122.48-69.52,149.29-106.1l.5.36c-13.3,18.15-33.14,36.65-58.97,55-25.76,18.3-56.23,35.56-90.56,51.29-73.17,33.54-158.28,57.15-239.66,66.49-27.5,3.16-54.4,4.73-80.55,4.74Z" style="fill: #679ae2;"/>
    <path d="m866.58,444.29c-42.95,0-83.93-4.25-122.5-12.74-69.97-15.4-130.29-44.55-179.27-86.64-122.23-105.02-266.01-101.2-365.1-79.49-107.39,23.52-186.89,72.52-187.68,73.01l-.32-.52c.79-.49,80.37-49.54,187.87-73.09,63.14-13.83,123.42-16.29,179.16-7.31,69.68,11.23,132.42,40.48,186.48,86.93,117.39,100.86,272.44,107.06,381.84,94.51,81.32-9.34,166.36-32.93,239.48-66.44,69.46-31.84,122.48-69.52,149.29-106.1l.5.36c-13.3,18.15-33.14,36.65-58.97,55-25.76,18.3-56.23,35.56-90.56,51.29-73.17,33.54-158.28,57.15-239.66,66.49-27.5,3.16-54.4,4.73-80.55,4.74Z" style="fill: #679ae2;"/>
    <path d="m866.58,464.15c-42.95,0-83.93-4.25-122.5-12.74-69.97-15.4-130.29-44.55-179.27-86.64-122.23-105.02-266.01-101.2-365.1-79.49-107.39,23.52-186.89,72.52-187.68,73.01l-.32-.52c.79-.49,80.37-49.54,187.87-73.09,63.14-13.83,123.42-16.29,179.16-7.31,69.68,11.23,132.42,40.48,186.48,86.93,117.39,100.86,272.44,107.06,381.84,94.51,81.32-9.34,166.36-32.93,239.48-66.44,69.46-31.84,122.48-69.52,149.29-106.1l.5.36c-13.3,18.15-33.14,36.65-58.97,55-25.76,18.3-56.23,35.56-90.56,51.29-73.17,33.54-158.28,57.15-239.66,66.49-27.5,3.16-54.4,4.73-80.55,4.74Z" style="fill: #679ae2;"/>
    <path d="m866.58,484.01c-42.95,0-83.93-4.25-122.5-12.74-69.97-15.4-130.29-44.55-179.27-86.64-122.23-105.02-266.01-101.2-365.1-79.49-107.39,23.52-186.89,72.52-187.68,73.01l-.32-.52c.79-.49,80.37-49.54,187.87-73.09,63.14-13.83,123.42-16.29,179.16-7.3,69.68,11.23,132.42,40.48,186.48,86.93,117.39,100.86,272.44,107.06,381.84,94.51,81.32-9.34,166.36-32.93,239.48-66.44,69.46-31.84,122.48-69.52,149.29-106.1l.5.36c-13.3,18.15-33.14,36.65-58.97,55-25.76,18.3-56.23,35.56-90.56,51.29-73.17,33.54-158.28,57.15-239.66,66.49-27.5,3.16-54.4,4.73-80.55,4.74Z" style="fill: #679ae2;"/>
    <path d="m866.58,503.86c-42.95,0-83.93-4.25-122.5-12.74-69.97-15.4-130.29-44.55-179.27-86.64-122.23-105.02-266.01-101.2-365.1-79.49-107.39,23.52-186.89,72.52-187.69,73.01l-.32-.52c.79-.49,80.37-49.54,187.87-73.09,63.14-13.83,123.42-16.29,179.16-7.31,69.68,11.23,132.42,40.48,186.48,86.93,117.39,100.86,272.44,107.06,381.84,94.51,81.32-9.34,166.36-32.93,239.48-66.44,69.46-31.84,122.48-69.52,149.29-106.1l.5.36c-13.3,18.15-33.14,36.65-58.97,55-25.76,18.3-56.23,35.56-90.56,51.29-73.17,33.54-158.28,57.15-239.66,66.49-27.5,3.16-54.4,4.73-80.55,4.74Z" style="fill: #679ae2;"/>
    <path d="m866.58,523.72c-42.95,0-83.93-4.25-122.5-12.74-69.97-15.4-130.29-44.55-179.27-86.64-122.23-105.02-266.01-101.2-365.1-79.49-107.39,23.52-186.9,72.52-187.69,73.01l-.32-.52c.79-.49,80.37-49.54,187.87-73.09,63.14-13.83,123.42-16.29,179.16-7.3,69.68,11.23,132.42,40.48,186.48,86.93,117.39,100.86,272.44,107.06,381.84,94.51,81.32-9.34,166.36-32.93,239.48-66.44,69.46-31.84,122.48-69.52,149.29-106.1l.5.36c-13.3,18.15-33.14,36.65-58.97,55-25.76,18.3-56.23,35.56-90.56,51.29-73.17,33.54-158.28,57.15-239.66,66.49-27.5,3.16-54.4,4.73-80.55,4.74Z" style="fill: #679ae2;"/>
    <path d="m866.58,543.58c-42.95,0-83.93-4.25-122.5-12.74-69.97-15.4-130.29-44.55-179.27-86.64-122.23-105.02-266.01-101.2-365.1-79.49-107.39,23.52-186.9,72.52-187.69,73.01l-.32-.52c.79-.49,80.37-49.54,187.87-73.09,63.14-13.83,123.42-16.29,179.16-7.31,69.68,11.23,132.42,40.48,186.48,86.93,117.39,100.86,272.44,107.06,381.84,94.51,81.32-9.34,166.36-32.93,239.48-66.44,69.46-31.84,122.48-69.52,149.29-106.1l.5.36c-13.3,18.15-33.14,36.65-58.97,55-25.76,18.3-56.23,35.56-90.56,51.29-73.17,33.54-158.28,57.15-239.66,66.49-27.5,3.16-54.4,4.73-80.55,4.74Z" style="fill: #679ae2;"/>
    <path d="m866.58,563.44c-42.95,0-83.93-4.25-122.5-12.74-69.97-15.4-130.29-44.55-179.27-86.64-122.23-105.02-266.01-101.2-365.1-79.49-107.39,23.52-186.9,72.52-187.69,73.01l-.32-.52c.79-.49,80.37-49.54,187.87-73.09,63.14-13.83,123.42-16.29,179.16-7.31,69.68,11.23,132.42,40.48,186.48,86.93,117.39,100.86,272.44,107.06,381.84,94.51,81.32-9.34,166.36-32.93,239.48-66.44,69.46-31.84,122.48-69.52,149.29-106.1l.5.36c-13.3,18.15-33.14,36.65-58.97,55-25.76,18.3-56.23,35.56-90.56,51.29-73.17,33.54-158.28,57.15-239.66,66.49-27.5,3.16-54.4,4.73-80.55,4.74Z" style="fill: #679ae2;"/>
    <path d="m866.58,583.29c-42.95,0-83.93-4.25-122.5-12.74-69.97-15.4-130.29-44.55-179.27-86.64-122.23-105.02-266-101.2-365.1-79.49-107.39,23.52-186.9,72.52-187.69,73.01l-.32-.52c.79-.49,80.37-49.54,187.87-73.09,63.14-13.83,123.42-16.29,179.16-7.31,69.68,11.23,132.42,40.48,186.48,86.93,117.39,100.86,272.44,107.06,381.84,94.51,81.32-9.34,166.36-32.93,239.48-66.44,69.46-31.84,122.48-69.52,149.29-106.1l.5.36c-13.3,18.15-33.14,36.65-58.97,55-25.76,18.3-56.23,35.56-90.56,51.29-73.17,33.54-158.28,57.15-239.66,66.49-27.5,3.16-54.4,4.73-80.55,4.74Z" style="fill: #679ae2;"/>
    <path d="m866.58,603.15c-42.95,0-83.93-4.25-122.5-12.74-69.97-15.4-130.29-44.55-179.27-86.64-122.23-105.02-266-101.2-365.1-79.49-107.39,23.52-186.9,72.52-187.69,73.01l-.32-.52c.79-.49,80.37-49.54,187.87-73.09,63.14-13.83,123.42-16.29,179.16-7.31,69.68,11.23,132.42,40.48,186.48,86.93,117.39,100.86,272.44,107.06,381.84,94.51,81.32-9.34,166.36-32.93,239.48-66.44,69.46-31.84,122.48-69.52,149.29-106.1l.5.36c-13.3,18.15-33.14,36.65-58.97,55-25.76,18.3-56.23,35.56-90.56,51.29-73.17,33.54-158.28,57.15-239.66,66.49-27.5,3.16-54.4,4.73-80.55,4.74Z" style="fill: #679ae2;"/>
    <path d="m866.58,623.01c-42.95,0-83.93-4.25-122.5-12.74-69.97-15.4-130.29-44.55-179.27-86.64-122.23-105.02-266-101.2-365.1-79.49-107.4,23.52-186.9,72.52-187.69,73.01l-.32-.52c.79-.49,80.37-49.54,187.87-73.09,63.14-13.83,123.42-16.29,179.16-7.31,69.68,11.23,132.42,40.48,186.48,86.93,117.39,100.86,272.44,107.06,381.84,94.51,81.32-9.34,166.36-32.93,239.48-66.44,69.46-31.84,122.48-69.52,149.29-106.1l.5.36c-13.3,18.15-33.14,36.65-58.97,55-25.76,18.3-56.23,35.56-90.56,51.29-73.17,33.54-158.28,57.15-239.66,66.49-27.5,3.16-54.4,4.73-80.55,4.74Z" style="fill: #679ae2;"/>
    <path d="m866.58,642.86c-42.95,0-83.93-4.25-122.5-12.74-69.97-15.4-130.29-44.55-179.27-86.64-122.23-105.02-266-101.2-365.1-79.49-107.4,23.52-186.9,72.52-187.69,73.01l-.32-.52c.79-.49,80.37-49.54,187.87-73.09,63.14-13.83,123.42-16.29,179.16-7.31,69.68,11.23,132.42,40.48,186.48,86.93,117.39,100.86,272.44,107.06,381.84,94.51,81.32-9.34,166.36-32.93,239.48-66.44,69.46-31.84,122.48-69.52,149.29-106.1l.5.36c-13.3,18.15-33.14,36.65-58.97,55-25.76,18.3-56.23,35.56-90.56,51.29-73.17,33.54-158.28,57.15-239.66,66.49-27.5,3.16-54.4,4.73-80.55,4.74Z" style="fill: #679ae2;"/>
    <path d="m866.58,662.72c-42.95,0-83.93-4.25-122.5-12.74-69.97-15.4-130.29-44.55-179.27-86.64-122.23-105.02-266-101.2-365.1-79.49-107.4,23.52-186.9,72.52-187.69,73.01l-.32-.52c.79-.49,80.37-49.54,187.87-73.09,63.14-13.83,123.42-16.29,179.16-7.31,69.68,11.23,132.42,40.48,186.48,86.93,117.39,100.86,272.44,107.06,381.84,94.51,81.32-9.34,166.36-32.93,239.48-66.44,69.46-31.84,122.48-69.52,149.29-106.1l.5.36c-13.3,18.15-33.14,36.65-58.97,55-25.76,18.3-56.23,35.56-90.56,51.29-73.17,33.54-158.28,57.15-239.66,66.49-27.5,3.16-54.4,4.73-80.55,4.74Z" style="fill: #679ae2;"/>
    <path d="m866.58,682.58c-42.95,0-83.93-4.25-122.5-12.74-69.97-15.4-130.29-44.55-179.27-86.64-122.23-105.02-266-101.2-365.09-79.49-107.4,23.52-186.9,72.52-187.69,73.01l-.32-.52c.79-.49,80.37-49.54,187.87-73.09,63.14-13.83,123.42-16.29,179.16-7.31,69.68,11.23,132.42,40.48,186.48,86.93,117.39,100.86,272.44,107.06,381.84,94.51,81.32-9.34,166.36-32.93,239.48-66.44,69.46-31.84,122.48-69.52,149.29-106.1l.5.36c-13.3,18.15-33.14,36.65-58.97,55-25.76,18.3-56.23,35.56-90.56,51.29-73.17,33.54-158.28,57.15-239.66,66.49-27.5,3.16-54.4,4.73-80.55,4.74Z" style="fill: #679ae2;"/>
    <path d="m866.58,702.44c-42.95,0-83.93-4.25-122.5-12.74-69.97-15.4-130.29-44.55-179.27-86.64-122.23-105.02-266-101.2-365.09-79.49-107.4,23.52-186.9,72.52-187.69,73.01l-.32-.52c.79-.49,80.37-49.54,187.87-73.09,63.14-13.83,123.42-16.29,179.16-7.31,69.68,11.23,132.42,40.48,186.48,86.93,117.39,100.86,272.44,107.06,381.84,94.51,81.32-9.34,166.36-32.93,239.48-66.44,69.46-31.84,122.48-69.52,149.29-106.1l.5.36c-13.3,18.15-33.14,36.65-58.97,55-25.76,18.3-56.23,35.56-90.56,51.29-73.17,33.54-158.28,57.15-239.66,66.49-27.5,3.16-54.4,4.73-80.55,4.74Z" style="fill: #679ae2;"/>
    <path d="m866.58,722.29c-42.95,0-83.93-4.25-122.5-12.74-69.97-15.4-130.29-44.55-179.27-86.64-122.23-105.02-266-101.2-365.09-79.49-107.4,23.52-186.9,72.52-187.69,73.02l-.32-.52c.79-.49,80.37-49.54,187.87-73.09,63.14-13.83,123.42-16.29,179.16-7.31,69.68,11.23,132.42,40.48,186.48,86.93,117.39,100.86,272.44,107.06,381.84,94.51,81.32-9.34,166.36-32.93,239.48-66.44,69.46-31.84,122.48-69.52,149.29-106.1l.5.36c-13.3,18.15-33.14,36.65-58.97,55-25.76,18.3-56.23,35.56-90.56,51.29-73.17,33.54-158.28,57.15-239.66,66.49-27.5,3.16-54.4,4.73-80.55,4.74Z" style="fill: #679ae2;"/>
    <path d="m866.58,742.15c-42.95,0-83.93-4.25-122.5-12.74-69.97-15.4-130.29-44.55-179.27-86.64-122.22-105.02-266-101.2-365.09-79.49-107.4,23.52-186.9,72.52-187.69,73.02l-.32-.52c.79-.49,80.37-49.54,187.87-73.09,63.14-13.83,123.42-16.29,179.16-7.31,69.68,11.23,132.42,40.48,186.48,86.93,117.39,100.86,272.44,107.06,381.84,94.51,81.32-9.34,166.36-32.93,239.48-66.44,69.46-31.84,122.48-69.52,149.29-106.1l.5.36c-13.3,18.15-33.14,36.65-58.97,55-25.76,18.3-56.23,35.56-90.56,51.29-73.17,33.54-158.28,57.15-239.66,66.49-27.5,3.16-54.4,4.73-80.55,4.74Z" style="fill: #679ae2;"/>
    <path d="m866.58,762.01c-42.95,0-83.93-4.25-122.5-12.74-69.97-15.4-130.29-44.55-179.27-86.64-122.22-105.02-266-101.2-365.09-79.49-107.4,23.52-186.9,72.52-187.69,73.02l-.32-.52c.79-.49,80.37-49.54,187.87-73.09,63.14-13.83,123.42-16.29,179.16-7.31,69.68,11.23,132.42,40.48,186.48,86.93,117.39,100.86,272.44,107.06,381.84,94.51,81.32-9.34,166.36-32.93,239.48-66.44,69.46-31.84,122.48-69.52,149.29-106.1l.5.36c-13.3,18.15-33.14,36.65-58.97,55-25.76,18.3-56.23,35.56-90.56,51.29-73.17,33.54-158.28,57.15-239.66,66.49-27.5,3.16-54.4,4.73-80.55,4.74Z" style="fill: #679ae2;"/>
  </g>
  <g style="opacity: .3;">
    <path d="m866.58,306.12c-42.95,0-83.93-4.25-122.49-12.74-69.97-15.4-130.29-44.55-179.27-86.64-122.22-105.02-266-101.2-365.09-79.49C92.33,150.76,12.82,199.77,12.03,200.26l-.32-.52c.79-.49,80.37-49.54,187.87-73.09,63.14-13.83,123.42-16.29,179.16-7.31,69.68,11.23,132.42,40.48,186.48,86.93,117.39,100.86,272.44,107.06,381.84,94.51,81.32-9.34,166.36-32.93,239.48-66.44,69.46-31.84,122.48-69.52,149.29-106.1l.5.36c-13.3,18.15-33.14,36.65-58.97,55-25.76,18.3-56.23,35.56-90.56,51.29-73.17,33.54-158.28,57.15-239.66,66.49-27.5,3.16-54.4,4.73-80.55,4.74Z" style="fill: #679ae2;"/>
    <path d="m866.58,325.98c-42.95,0-83.93-4.25-122.49-12.74-69.97-15.4-130.29-44.55-179.27-86.64-122.22-105.02-266-101.2-365.09-79.49C92.33,170.62,12.82,219.62,12.03,220.11l-.32-.52c.79-.49,80.37-49.54,187.87-73.09,63.14-13.83,123.42-16.29,179.16-7.31,69.68,11.23,132.42,40.48,186.48,86.93,117.39,100.86,272.44,107.06,381.84,94.51,81.32-9.34,166.36-32.93,239.48-66.44,69.46-31.84,122.48-69.52,149.29-106.1l.5.36c-13.3,18.15-33.14,36.65-58.97,55-25.76,18.3-56.23,35.56-90.56,51.29-73.17,33.54-158.28,57.15-239.66,66.49-27.5,3.16-54.4,4.73-80.55,4.74Z" style="fill: #679ae2;"/>
    <path d="m866.58,345.83c-42.95,0-83.93-4.25-122.49-12.74-69.97-15.4-130.29-44.55-179.27-86.64-122.22-105.02-266-101.2-365.09-79.49C92.33,190.48,12.82,239.48,12.03,239.97l-.32-.52c.79-.49,80.37-49.54,187.87-73.09,63.14-13.83,123.42-16.29,179.16-7.31,69.68,11.23,132.42,40.48,186.48,86.93,117.39,100.86,272.44,107.06,381.84,94.51,81.32-9.34,166.36-32.93,239.48-66.44,69.46-31.84,122.48-69.52,149.29-106.1l.5.36c-13.3,18.15-33.14,36.65-58.97,55-25.76,18.3-56.23,35.56-90.56,51.29-73.17,33.54-158.28,57.15-239.66,66.49-27.5,3.16-54.4,4.73-80.55,4.74Z" style="fill: #679ae2;"/>
    <path d="m866.58,365.69c-42.95,0-83.93-4.25-122.49-12.74-69.97-15.4-130.29-44.55-179.27-86.64-122.22-105.02-266-101.2-365.09-79.49C92.33,210.34,12.82,259.34,12.03,259.83l-.32-.52c.79-.49,80.37-49.54,187.87-73.09,63.14-13.83,123.42-16.29,179.16-7.31,69.68,11.23,132.42,40.48,186.48,86.93,117.39,100.86,272.44,107.06,381.84,94.51,81.32-9.34,166.36-32.93,239.48-66.44,69.46-31.84,122.48-69.52,149.29-106.1l.5.36c-13.3,18.15-33.14,36.65-58.97,55-25.76,18.3-56.23,35.56-90.56,51.29-73.17,33.54-158.28,57.15-239.66,66.49-27.5,3.16-54.4,4.73-80.55,4.74Z" style="fill: #679ae2;"/>
    <path d="m866.58,385.55c-42.95,0-83.93-4.25-122.49-12.74-69.97-15.4-130.29-44.55-179.27-86.64-122.22-105.02-266-101.2-365.09-79.49C92.33,230.19,12.82,279.19,12.03,279.69l-.32-.52c.79-.49,80.37-49.54,187.87-73.09,63.14-13.83,123.42-16.29,179.16-7.31,69.68,11.23,132.42,40.48,186.48,86.93,117.39,100.86,272.44,107.06,381.84,94.51,81.32-9.34,166.36-32.93,239.48-66.44,69.46-31.84,122.48-69.52,149.29-106.1l.5.36c-13.3,18.15-33.14,36.65-58.97,55-25.76,18.3-56.23,35.56-90.56,51.29-73.17,33.54-158.28,57.15-239.66,66.49-27.5,3.16-54.4,4.73-80.55,4.74Z" style="fill: #679ae2;"/>
    <path d="m866.58,405.41c-42.95,0-83.93-4.25-122.49-12.74-69.97-15.4-130.29-44.55-179.27-86.64-122.22-105.02-266-101.2-365.09-79.49C92.33,250.05,12.82,299.05,12.03,299.54l-.32-.52c.79-.49,80.37-49.54,187.87-73.09,63.14-13.83,123.42-16.29,179.16-7.31,69.68,11.23,132.42,40.48,186.48,86.93,117.39,100.86,272.44,107.06,381.84,94.51,81.32-9.34,166.36-32.93,239.48-66.44,69.46-31.84,122.48-69.52,149.29-106.1l.5.36c-13.3,18.15-33.14,36.65-58.97,55-25.76,18.3-56.23,35.56-90.56,51.29-73.17,33.54-158.28,57.15-239.66,66.49-27.5,3.16-54.4,4.73-80.55,4.74Z" style="fill: #679ae2;"/>
    <path d="m866.58,425.26c-42.95,0-83.93-4.25-122.49-12.74-69.97-15.4-130.29-44.55-179.27-86.64-122.22-105.02-266-101.2-365.09-79.49-107.4,23.52-186.9,72.52-187.69,73.02l-.32-.52c.79-.49,80.37-49.54,187.87-73.09,63.14-13.83,123.42-16.29,179.16-7.31,69.68,11.23,132.42,40.48,186.48,86.93,117.39,100.86,272.44,107.06,381.84,94.51,81.32-9.34,166.36-32.93,239.48-66.44,69.46-31.84,122.48-69.52,149.29-106.1l.5.36c-13.3,18.15-33.14,36.65-58.97,55-25.76,18.3-56.23,35.56-90.56,51.29-73.17,33.54-158.28,57.15-239.66,66.49-27.5,3.16-54.4,4.73-80.55,4.74Z" style="fill: #679ae2;"/>
    <path d="m866.58,445.12c-42.95,0-83.93-4.25-122.49-12.74-69.97-15.4-130.29-44.55-179.27-86.64-122.22-105.02-266-101.2-365.09-79.49-107.4,23.52-186.9,72.52-187.69,73.02l-.32-.52c.79-.49,80.37-49.54,187.87-73.09,63.14-13.83,123.42-16.29,179.16-7.31,69.68,11.23,132.42,40.48,186.48,86.93,117.39,100.86,272.44,107.06,381.84,94.51,81.32-9.34,166.36-32.93,239.48-66.44,69.46-31.84,122.48-69.52,149.29-106.1l.5.36c-13.3,18.15-33.14,36.65-58.97,55-25.76,18.3-56.23,35.56-90.56,51.29-73.17,33.54-158.28,57.15-239.66,66.49-27.5,3.16-54.4,4.73-80.55,4.74Z" style="fill: #679ae2;"/>
    <path d="m866.58,464.98c-42.95,0-83.93-4.25-122.49-12.74-69.97-15.4-130.29-44.55-179.27-86.64-122.22-105.02-266-101.2-365.09-79.49-107.4,23.52-186.9,72.52-187.69,73.02l-.32-.52c.79-.49,80.37-49.54,187.87-73.09,63.14-13.83,123.42-16.29,179.16-7.31,69.68,11.23,132.42,40.48,186.48,86.93,117.39,100.86,272.44,107.06,381.84,94.51,81.32-9.34,166.36-32.93,239.48-66.44,69.46-31.84,122.48-69.52,149.29-106.1l.5.36c-13.3,18.15-33.14,36.65-58.97,55-25.76,18.3-56.23,35.56-90.56,51.29-73.17,33.54-158.28,57.15-239.66,66.49-27.5,3.16-54.4,4.73-80.55,4.74Z" style="fill: #679ae2;"/>
    <path d="m866.58,484.83c-42.95,0-83.93-4.25-122.49-12.74-69.97-15.4-130.29-44.55-179.27-86.64-122.22-105.02-266-101.2-365.09-79.49-107.4,23.52-186.9,72.52-187.69,73.02l-.32-.52c.79-.49,80.37-49.54,187.87-73.09,63.14-13.83,123.42-16.29,179.16-7.3,69.68,11.23,132.42,40.48,186.48,86.93,117.39,100.86,272.44,107.06,381.84,94.51,81.32-9.34,166.36-32.93,239.48-66.44,69.46-31.84,122.48-69.52,149.29-106.1l.5.36c-13.3,18.15-33.14,36.65-58.97,55-25.76,18.3-56.23,35.56-90.56,51.29-73.17,33.54-158.28,57.15-239.66,66.49-27.5,3.16-54.4,4.73-80.55,4.74Z" style="fill: #679ae2;"/>
    <path d="m866.58,504.69c-42.95,0-83.93-4.25-122.49-12.74-69.97-15.4-130.29-44.55-179.27-86.64-122.22-105.02-266-101.2-365.09-79.49-107.4,23.52-186.9,72.52-187.69,73.02l-.32-.52c.79-.49,80.37-49.54,187.87-73.09,63.14-13.83,123.42-16.29,179.16-7.31,69.68,11.23,132.42,40.48,186.48,86.93,117.39,100.86,272.44,107.06,381.84,94.51,81.32-9.34,166.36-32.93,239.48-66.44,69.46-31.84,122.48-69.52,149.29-106.1l.5.36c-13.3,18.15-33.14,36.65-58.97,55-25.76,18.3-56.23,35.56-90.56,51.29-73.17,33.54-158.28,57.15-239.66,66.49-27.5,3.16-54.4,4.73-80.55,4.74Z" style="fill: #679ae2;"/>
    <path d="m866.58,524.55c-42.95,0-83.93-4.25-122.49-12.74-69.97-15.4-130.29-44.55-179.27-86.64-122.22-105.02-266-101.2-365.09-79.49-107.4,23.52-186.9,72.52-187.69,73.02l-.32-.52c.79-.49,80.37-49.54,187.87-73.09,63.14-13.83,123.42-16.29,179.16-7.31,69.68,11.23,132.42,40.48,186.48,86.93,117.39,100.86,272.44,107.06,381.84,94.51,81.32-9.34,166.36-32.93,239.48-66.44,69.46-31.84,122.48-69.52,149.29-106.1l.5.36c-13.3,18.15-33.14,36.65-58.97,55-25.76,18.3-56.23,35.56-90.56,51.29-73.17,33.54-158.28,57.15-239.66,66.49-27.5,3.16-54.4,4.73-80.55,4.74Z" style="fill: #679ae2;"/>
    <path d="m866.58,544.41c-42.95,0-83.93-4.25-122.49-12.74-69.97-15.4-130.29-44.55-179.27-86.64-122.22-105.02-266-101.2-365.09-79.49-107.4,23.52-186.9,72.52-187.69,73.02l-.32-.52c.79-.49,80.37-49.54,187.87-73.09,63.14-13.83,123.42-16.29,179.16-7.31,69.68,11.23,132.42,40.48,186.48,86.93,117.39,100.86,272.44,107.06,381.84,94.51,81.32-9.34,166.36-32.93,239.48-66.44,69.46-31.84,122.48-69.52,149.29-106.1l.5.36c-13.3,18.15-33.14,36.65-58.97,55-25.76,18.3-56.23,35.56-90.56,51.29-73.17,33.54-158.28,57.15-239.66,66.49-27.5,3.16-54.4,4.73-80.55,4.74Z" style="fill: #679ae2;"/>
    <path d="m866.58,564.26c-42.95,0-83.93-4.25-122.49-12.74-69.97-15.4-130.29-44.55-179.27-86.64-122.22-105.02-266-101.2-365.09-79.49-107.4,23.52-186.9,72.52-187.69,73.02l-.32-.52c.79-.49,80.37-49.54,187.87-73.09,63.14-13.83,123.42-16.29,179.16-7.31,69.68,11.23,132.42,40.48,186.48,86.93,117.39,100.86,272.44,107.06,381.84,94.51,81.32-9.34,166.36-32.93,239.48-66.44,69.46-31.84,122.48-69.52,149.29-106.1l.5.36c-13.3,18.15-33.14,36.65-58.97,55-25.76,18.3-56.23,35.56-90.56,51.29-73.17,33.54-158.28,57.15-239.66,66.49-27.5,3.16-54.4,4.73-80.55,4.74Z" style="fill: #679ae2;"/>
    <path d="m866.58,584.12c-42.95,0-83.93-4.25-122.49-12.74-69.97-15.4-130.29-44.55-179.27-86.64-122.22-105.02-266-101.2-365.09-79.49-107.4,23.52-186.9,72.52-187.69,73.02l-.32-.52c.79-.49,80.37-49.54,187.87-73.09,63.14-13.83,123.42-16.29,179.16-7.31,69.68,11.23,132.42,40.48,186.48,86.93,117.39,100.86,272.44,107.06,381.84,94.51,81.32-9.34,166.36-32.93,239.48-66.44,69.46-31.84,122.48-69.52,149.29-106.1l.5.36c-13.3,18.15-33.14,36.65-58.97,55-25.76,18.3-56.23,35.56-90.56,51.29-73.17,33.54-158.28,57.15-239.66,66.49-27.5,3.16-54.4,4.73-80.55,4.74Z" style="fill: #679ae2;"/>
    <path d="m866.58,603.98c-42.95,0-83.93-4.25-122.49-12.74-69.97-15.4-130.29-44.55-179.27-86.64-122.22-105.02-266-101.2-365.09-79.49-107.4,23.52-186.9,72.52-187.69,73.02l-.32-.52c.79-.49,80.37-49.54,187.87-73.09,63.14-13.83,123.42-16.29,179.16-7.31,69.68,11.23,132.42,40.48,186.48,86.93,117.39,100.86,272.44,107.06,381.84,94.51,81.32-9.34,166.36-32.93,239.48-66.44,69.46-31.84,122.48-69.52,149.29-106.1l.5.36c-13.3,18.15-33.14,36.65-58.97,55-25.76,18.3-56.23,35.56-90.56,51.29-73.17,33.54-158.28,57.15-239.66,66.49-27.5,3.16-54.4,4.73-80.55,4.74Z" style="fill: #679ae2;"/>
    <path d="m866.58,623.84c-42.95,0-83.93-4.25-122.49-12.74-69.97-15.4-130.29-44.55-179.27-86.64-122.22-105.02-266-101.2-365.09-79.49-107.4,23.52-186.9,72.52-187.69,73.02l-.32-.52c.79-.49,80.37-49.54,187.87-73.09,63.14-13.83,123.42-16.29,179.16-7.31,69.68,11.23,132.42,40.48,186.48,86.93,117.39,100.86,272.44,107.06,381.84,94.51,81.32-9.34,166.36-32.93,239.48-66.44,69.46-31.84,122.48-69.52,149.29-106.1l.5.36c-13.3,18.15-33.14,36.65-58.97,55-25.76,18.3-56.23,35.56-90.56,51.29-73.17,33.54-158.28,57.15-239.66,66.49-27.5,3.16-54.4,4.73-80.55,4.74Z" style="fill: #679ae2;"/>
    <path d="m866.58,643.69c-42.95,0-83.93-4.25-122.49-12.74-69.97-15.4-130.29-44.55-179.27-86.64-122.22-105.02-266-101.2-365.09-79.49-107.4,23.52-186.9,72.52-187.69,73.02l-.32-.52c.79-.49,80.37-49.54,187.87-73.09,63.14-13.83,123.42-16.29,179.16-7.3,69.68,11.23,132.42,40.48,186.48,86.93,117.39,100.86,272.44,107.06,381.84,94.51,81.32-9.34,166.36-32.93,239.48-66.44,69.46-31.84,122.48-69.52,149.29-106.1l.5.36c-13.3,18.15-33.14,36.65-58.97,55-25.76,18.3-56.23,35.56-90.56,51.29-73.17,33.54-158.28,57.15-239.66,66.49-27.5,3.16-54.4,4.73-80.55,4.74Z" style="fill: #679ae2;"/>
    <path d="m866.58,663.55c-42.95,0-83.93-4.25-122.49-12.74-69.97-15.4-130.29-44.55-179.27-86.64-122.22-105.02-266-101.2-365.09-79.49-107.4,23.52-186.9,72.52-187.69,73.02l-.32-.52c.79-.49,80.37-49.54,187.87-73.09,63.14-13.83,123.42-16.29,179.16-7.31,69.68,11.23,132.42,40.48,186.48,86.93,117.39,100.86,272.44,107.06,381.84,94.51,81.32-9.34,166.36-32.93,239.48-66.44,69.46-31.84,122.48-69.52,149.29-106.1l.5.36c-13.3,18.15-33.14,36.65-58.97,55-25.76,18.3-56.23,35.56-90.56,51.29-73.17,33.54-158.28,57.15-239.66,66.49-27.5,3.16-54.4,4.73-80.55,4.74Z" style="fill: #679ae2;"/>
    <path d="m866.58,683.41c-42.95,0-83.93-4.25-122.49-12.74-69.97-15.4-130.29-44.55-179.27-86.64-122.22-105.02-266-101.2-365.09-79.49-107.4,23.52-186.9,72.52-187.69,73.02l-.32-.52c.79-.49,80.37-49.54,187.87-73.09,63.14-13.83,123.42-16.29,179.16-7.31,69.68,11.23,132.42,40.48,186.48,86.93,117.39,100.86,272.44,107.06,381.84,94.51,81.32-9.34,166.36-32.93,239.48-66.44,69.46-31.84,122.48-69.52,149.29-106.1l.5.36c-13.3,18.15-33.14,36.65-58.97,55-25.76,18.3-56.23,35.56-90.56,51.29-73.17,33.54-158.28,57.15-239.66,66.49-27.5,3.16-54.4,4.73-80.55,4.74Z" style="fill: #679ae2;"/>
    <path d="m866.58,703.26c-42.95,0-83.93-4.25-122.49-12.74-69.97-15.4-130.29-44.55-179.27-86.64-122.22-105.02-266-101.2-365.09-79.49-107.4,23.52-186.9,72.52-187.69,73.02l-.32-.52c.79-.49,80.37-49.54,187.87-73.09,63.14-13.83,123.42-16.29,179.16-7.31,69.68,11.23,132.42,40.48,186.48,86.93,117.39,100.86,272.44,107.06,381.84,94.51,81.32-9.34,166.36-32.93,239.48-66.44,69.46-31.84,122.48-69.52,149.29-106.1l.5.36c-13.3,18.15-33.14,36.65-58.97,55-25.76,18.3-56.23,35.56-90.56,51.29-73.17,33.54-158.28,57.15-239.66,66.49-27.5,3.16-54.4,4.73-80.55,4.74Z" style="fill: #679ae2;"/>
    <path d="m866.58,723.12c-42.95,0-83.93-4.25-122.49-12.74-69.97-15.4-130.29-44.55-179.27-86.64-122.22-105.02-266-101.2-365.09-79.49-107.4,23.52-186.9,72.52-187.69,73.02l-.32-.52c.79-.49,80.37-49.54,187.87-73.09,63.14-13.83,123.42-16.29,179.16-7.3,69.68,11.23,132.42,40.48,186.48,86.93,117.39,100.86,272.44,107.06,381.84,94.51,81.32-9.34,166.36-32.93,239.48-66.44,69.46-31.84,122.48-69.52,149.29-106.1l.5.36c-13.3,18.15-33.14,36.65-58.97,55-25.76,18.3-56.23,35.56-90.56,51.29-73.17,33.54-158.28,57.15-239.66,66.49-27.5,3.16-54.4,4.73-80.55,4.74Z" style="fill: #679ae2;"/>
    <path d="m866.58,742.98c-42.95,0-83.93-4.25-122.5-12.74-69.97-15.4-130.29-44.55-179.27-86.64-122.23-105.02-266-101.2-365.09-79.49-107.4,23.52-186.9,72.52-187.69,73.02l-.32-.52c.79-.49,80.37-49.54,187.87-73.09,63.14-13.83,123.42-16.29,179.16-7.3,69.68,11.23,132.42,40.48,186.48,86.93,117.39,100.86,272.44,107.06,381.84,94.51,81.32-9.34,166.36-32.93,239.48-66.44,69.46-31.84,122.48-69.52,149.29-106.1l.5.36c-13.3,18.15-33.14,36.65-58.97,55-25.76,18.3-56.23,35.56-90.56,51.29-73.17,33.54-158.28,57.15-239.66,66.49-27.5,3.16-54.4,4.73-80.55,4.74Z" style="fill: #679ae2;"/>
    <path d="m866.58,762.84c-42.95,0-83.93-4.25-122.5-12.74-69.97-15.4-130.29-44.55-179.27-86.64-122.23-105.02-266-101.2-365.09-79.49-107.4,23.52-186.9,72.52-187.69,73.02l-.32-.52c.79-.49,80.37-49.54,187.87-73.09,63.14-13.83,123.42-16.29,179.16-7.3,69.68,11.23,132.42,40.48,186.48,86.93,117.39,100.86,272.44,107.06,381.84,94.51,81.32-9.34,166.36-32.93,239.48-66.44,69.46-31.84,122.48-69.52,149.29-106.1l.5.36c-13.3,18.15-33.14,36.65-58.97,55-25.76,18.3-56.23,35.56-90.56,51.29-73.17,33.54-158.28,57.15-239.66,66.49-27.5,3.16-54.4,4.73-80.55,4.74Z" style="fill: #679ae2;"/>
    <path d="m866.58,782.69c-42.95,0-83.93-4.25-122.5-12.74-69.97-15.4-130.29-44.55-179.27-86.64-122.23-105.02-266-101.2-365.09-79.49-107.4,23.52-186.9,72.52-187.69,73.02l-.32-.52c.79-.49,80.37-49.54,187.87-73.09,63.14-13.83,123.42-16.29,179.16-7.3,69.68,11.23,132.42,40.48,186.48,86.93,117.39,100.86,272.44,107.06,381.84,94.51,81.32-9.34,166.36-32.93,239.48-66.44,69.46-31.84,122.48-69.52,149.29-106.1l.5.36c-13.3,18.15-33.14,36.65-58.97,55-25.76,18.3-56.23,35.56-90.56,51.29-73.17,33.54-158.28,57.15-239.66,66.49-27.5,3.16-54.4,4.73-80.55,4.74Z" style="fill: #679ae2;"/>
    <path d="m866.58,802.55c-42.95,0-83.93-4.25-122.5-12.74-69.97-15.4-130.29-44.55-179.27-86.64-122.23-105.02-266-101.2-365.09-79.49-107.4,23.52-186.9,72.52-187.69,73.02l-.32-.52c.79-.49,80.37-49.54,187.87-73.09,63.14-13.83,123.42-16.29,179.16-7.3,69.68,11.23,132.42,40.48,186.48,86.93,117.39,100.86,272.44,107.06,381.84,94.51,81.32-9.34,166.36-32.93,239.48-66.44,69.46-31.84,122.48-69.52,149.29-106.1l.5.36c-13.3,18.15-33.14,36.65-58.97,55-25.76,18.3-56.23,35.56-90.56,51.29-73.17,33.54-158.28,57.15-239.66,66.49-27.5,3.16-54.4,4.73-80.55,4.74Z" style="fill: #679ae2;"/>
    <path d="m866.58,822.41c-42.95,0-83.93-4.25-122.5-12.74-69.97-15.4-130.29-44.55-179.27-86.64-122.23-105.02-266-101.2-365.09-79.49-107.4,23.52-186.9,72.52-187.69,73.02l-.32-.52c.79-.49,80.37-49.54,187.87-73.09,63.14-13.83,123.42-16.29,179.16-7.3,69.68,11.23,132.42,40.48,186.48,86.93,117.39,100.86,272.44,107.06,381.84,94.51,81.32-9.34,166.36-32.93,239.48-66.44,69.46-31.84,122.48-69.52,149.29-106.1l.5.36c-13.3,18.15-33.14,36.65-58.97,55-25.76,18.3-56.23,35.56-90.56,51.29-73.17,33.54-158.28,57.15-239.66,66.49-27.5,3.16-54.4,4.73-80.55,4.74Z" style="fill: #679ae2;"/>
    <path d="m866.58,842.26c-42.95,0-83.93-4.25-122.5-12.74-69.97-15.4-130.29-44.55-179.27-86.64-122.23-105.02-266-101.2-365.09-79.49-107.4,23.52-186.9,72.52-187.69,73.02l-.32-.52c.79-.49,80.37-49.54,187.87-73.09,63.14-13.83,123.42-16.29,179.16-7.3,69.68,11.23,132.42,40.48,186.48,86.93,117.39,100.86,272.44,107.06,381.84,94.51,81.32-9.34,166.36-32.93,239.48-66.44,69.46-31.84,122.48-69.52,149.29-106.1l.5.36c-13.3,18.15-33.14,36.65-58.97,55-25.76,18.3-56.23,35.56-90.56,51.29-73.17,33.54-158.28,57.15-239.66,66.49-27.5,3.16-54.4,4.73-80.55,4.74Z" style="fill: #679ae2;"/>
  </g>
  <g>
    <rect x="786.86" y="194.53" width="478.76" height="546.02" style="fill: #679ae2;"/>
    <polygon points="1083.34 636.84 1077.81 552.87 1019.08 528.23 960.34 552.87 954.81 636.84 876.24 677.57 967.05 740.56 1071.1 740.56 1161.92 677.57 1083.34 636.84" style="fill: #f89ab5;"/>
    <path d="m1265.62,740.56v-59.46c-45.2-14.68-128.35-26.02-163.48-34.45-1.99,43.97-34.51,86.44-78.95,85.27-48.78-1.29-83.58-42.49-86.25-85.82-31.11,10.64-103.32,24.68-138.03,42.03-4.21,2.1-8.23,3.98-12.06,5.66v46.76h478.76Z" style="fill: #ef487d;"/>
    <path d="m986.1,575.11c51.51,34.92,93.74,8.41,93.74,8.41l-2.29-34.17-91.45,25.76Z" style="fill: #dd8ca6;"/>
    <path d="m1018.17,312.25h-114.06c-14.03,75.17,5.37,163.47,34.54,225.07,12.71,26.83,45.49,42.47,75.16,41.47l4.36-.15,4.36.15c29.67,1,62.45-14.63,75.16-41.47,29.17-61.59,48.57-149.9,34.54-225.07h-114.06Z" style="fill: #f89ab5;"/>
    <path d="m1131.56,276.8s-8.05-38.47-13.58-42.24c-5.53-3.77-16.09,2.01-16.09,2.01,0,0-.75-6.03-9.55-9.81-8.8-3.77-17.85,1.51-17.85,1.51-18.61-29.67-27.41-23.63-31.43-23.63s-47.77,13.83-47.77,13.83c-50.54-23.63-68.64,10.31-78.19,11.82-9.55,1.51-13.07,17.6-16.09,22.38-3.02,4.78-8.05,7.04-15.4,10.81-7.36,3.77-2.2,44.75-3.71,61.85s-1.76,4.02-5.28,23.13c-3.52,19.11,18.35,46.01,18.35,46.01h13.83s-4.27-38.72-4.27-39.47,22.63-23.13,22.63-23.13l14.04.12c8.64.08,16.95-3.2,23.33-9.03,4.16-3.79,8.9-7.19,12.07-6.6,6.79,1.26,12.15,8.21,12.91,8.97.75.75,20.62,8.8,21.37,9.3.75.5,26.4,4.78,35.95,7.04,9.55,2.26,30.54-6.54,41.1-3.02,10.56,3.52,34.83,58.83,34.83,58.83h23.13s19.11-94.54,15.59-103.08c-3.52-8.55-29.92-17.6-29.92-17.6Z" style="fill: #0a1a4e;"/>
    <circle cx="903.18" cy="429.03" r="39.2" transform="translate(-62.06 168.03) rotate(-10.28)" style="fill: #f89ab5;"/>
    <circle cx="1127.13" cy="429.03" r="39.2" style="fill: #f89ab5;"/>
    <path d="m979.25,375.39c-.27-4.53-4.16-7.98-8.69-7.71-11.59-3.73-19.34-3.16-32.13,1.92-4.53.27-7.98,4.16-7.71,8.69.27,4.53,4.16,7.98,8.69,7.71,12.6-4.62,19.83-4.59,32.13-1.92,4.53-.27,7.98-4.16,7.71-8.69h0Z" style="fill: #0a1a4e;"/>
    <path d="m1087.59,368.08c-12.87-4.87-20.62-5.31-32.15-1.39-4.53-.2-8.36,3.32-8.56,7.85h0c-.2,4.53,3.32,8.36,7.85,8.56,12.25-2.88,19.47-3.02,32.15,1.39,4.53.2,8.36-3.32,8.56-7.85h0c.2-4.53-3.32-8.36-7.85-8.56Z" style="fill: #0a1a4e;"/>
    <path d="m1028.11,453.97l-1.13-2.07c-1.61-2.94-2.5-6.21-2.62-9.55l-1.5-42.34c-.1-2.83-1.63-5.42-4.06-6.88l-.09-.05c-2.69-1.61-6.05-1.59-8.71.07-2.33,1.45-3.79,3.96-3.89,6.71l-1.51,42.49c-.12,3.34-1.02,6.61-2.62,9.55l-1.13,2.07c-.85,1.56-1.93,2.99-3.18,4.25-2.08,2.08-3.1,5.01-2.77,7.94l.33,2.87c.39,3.34,2.82,6.09,6.09,6.87l9.3,2.22h7.71l9.3-2.22c3.27-.78,5.71-3.53,6.09-6.87l.33-2.87c.34-2.93-.68-5.85-2.77-7.94-1.26-1.26-2.33-2.69-3.18-4.25Z" style="fill: #ef487d; opacity: .39;"/>
    <path d="m1042.35,494.91c-1.27-1.03-2.94-1.43-4.54-1.07-14.27,3.16-24.67,2.97-36.71.15-2.19-.51-4.49,0-6.25,1.37s-2.82,3.49-2.85,5.74v.03c-.03,2.49,1.59,4.69,3.97,5.39,18.09,5.33,30.03,4.79,42.97,1.09,3.14-.9,5.33-3.75,5.37-7.02l.02-1.46c.02-1.64-.71-3.19-1.98-4.22Z" style="fill: #fff;"/>
    <path d="m905.25,447.28c-.31.02-7.48.51-10.75-7.53-.79-1.95-.8-3.56-.03-4.92,1.84-3.25,7.45-4.16,7.51-4.17l1.46-.22-5.1-33.8c-.12-.81-.88-1.37-1.68-1.24-.81.12-1.37.88-1.24,1.68l4.67,30.96c-2.2.57-6.32,2.04-8.19,5.32-1.23,2.18-1.28,4.7-.14,7.5,3.57,8.78,11.22,9.38,13.25,9.38.31,0,.49-.01.5-.02.81-.07,1.41-.79,1.34-1.6-.07-.81-.78-1.42-1.6-1.35Z" style="fill: #dd8ca6;"/>
    <path d="m1136.26,428.04l4.67-30.96c.12-.81-.43-1.56-1.24-1.68-.81-.12-1.56.43-1.68,1.24l-5.1,33.8,1.46.22c1.57.24,5.97,1.45,7.5,4.17.78,1.37.77,2.98-.03,4.93-3.28,8.04-10.45,7.56-10.74,7.53-.81-.07-1.53.53-1.61,1.34-.07.81.53,1.53,1.34,1.61.01,0,.19.02.5.02,2.03,0,9.68-.6,13.25-9.38,1.14-2.8,1.09-5.33-.14-7.5-1.86-3.29-5.98-4.75-8.19-5.32Z" style="fill: #dd8ca6;"/>
    <path d="m906.5,454.15c-7.77,0-14.07,6.3-14.07,14.07s6.3,14.07,14.07,14.07,14.07-6.3,14.07-14.07-6.3-14.07-14.07-14.07Z" style="fill: #f89ab5;"/>
    <path d="m1127.13,454.15c-7.77,0-14.07,6.3-14.07,14.07s6.3,14.07,14.07,14.07,14.07-6.3,14.07-14.07-6.3-14.07-14.07-14.07Z" style="fill: #f89ab5;"/>
    <g>
      <path d="m934.37,701.01c-14.97-21.58-18.42-43.47-18.46-43.68-.07-.49-.52-.82-1.01-.75-.48.07-.82.53-.75,1.01.03.22,3.53,22.46,18.71,44.37,8.93,12.88,20.09,23.15,33.18,30.52,5.81,3.27,12.01,5.95,18.57,8.07h6.45c-28.76-7.59-46.35-24.64-56.69-39.54Z" style="fill: #cd3e6a;"/>
      <path d="m1111.76,701.93c13.8-21.93,15.89-44.17,15.91-44.4.04-.49-.32-.92-.81-.96-.49-.04-.92.32-.96.81-.02.22-2.06,22.04-15.64,43.6-9.39,14.91-25.9,31.97-54.18,39.57h6.34c6.43-2.12,12.47-4.81,18.07-8.08,12.63-7.37,23.15-17.65,31.27-30.54Z" style="fill: #cd3e6a;"/>
    </g>
    <path d="m954.81,635.95c-.49,0-.89.4-.89.89v15.59c0,.49.4.89.89.89s.89-.4.89-.89v-15.59c0-.49-.4-.89-.89-.89Z" style="fill: #dd8ca6;"/>
    <path d="m1083.54,635.95c-.49,0-.89.4-.89.89v15.59c0,.49.4.89.89.89s.89-.4.89-.89v-15.59c0-.49-.4-.89-.89-.89Z" style="fill: #dd8ca6;"/>
    <ellipse cx="1078.48" cy="466.8" rx="35.48" ry="23.63" transform="translate(-94.1 544.76) rotate(-27.21)" style="fill: #ef487d; opacity: .14;"/>
    <path d="m961.9,445.79c-17.43-8.96-36.39-6.82-42.36,4.79-5.97,11.6,3.32,28.28,20.75,37.24,17.43,8.96,36.39,6.81,42.36-4.79,5.97-11.6-3.32-28.28-20.75-37.24Z" style="fill: #ef487d; opacity: .14;"/>
    <path d="m1033.34,531.86c-20.17-9.14-28.6,3.81-28.69,3.94-.26.41-.14.96.28,1.22.15.09.31.14.47.14.29,0,.58-.15.75-.41.31-.48,7.74-11.74,26.45-3.27.45.2.97,0,1.18-.44.2-.45,0-.97-.44-1.18Z" style="fill: #dd8ca6;"/>
    <circle cx="957.75" cy="411.42" r="13.24" style="fill: #0a1a4e;"/>
    <path d="m1071.22,398.18c-7.31,0-13.24,5.93-13.24,13.24s5.93,13.24,13.24,13.24,13.24-5.93,13.24-13.24-5.93-13.24-13.24-13.24Z" style="fill: #0a1a4e;"/>
  </g>
  <g>
    <g>
      <path d="m117.13,382.57v6.17h-25.74v-33.25h25.13v6.17h-17.48v7.22h15.44v5.98h-15.44v7.69h18.1Z" style="fill: #679ae2;"/>
      <path d="m143.87,388.74l-8.03-11.54-7.88,11.54h-8.83l12.3-16.91-11.68-16.34h8.74l7.65,10.78,7.5-10.78h8.31l-11.59,16.05,12.4,17.19h-8.88Z" style="fill: #679ae2;"/>
      <path d="m177.86,356.97c2.17.98,3.84,2.37,5.01,4.18,1.17,1.8,1.76,3.94,1.76,6.41s-.59,4.57-1.76,6.39c-1.17,1.82-2.84,3.21-5.01,4.18-2.17.97-4.73,1.45-7.67,1.45h-6.7v9.17h-7.69v-33.25h14.39c2.94,0,5.5.49,7.67,1.47Zm-2.83,14.84c1.2-1,1.8-2.41,1.8-4.25s-.6-3.3-1.8-4.3c-1.2-1-2.96-1.5-5.27-1.5h-6.27v11.54h6.27c2.31,0,4.07-.5,5.27-1.5Z" style="fill: #679ae2;"/>
    </g>
    <g>
      <path d="m248.43,355.49v33.25h-7.69v-27.07h-6.65v-6.17h14.34Z" style="fill: #ef487d;"/>
      <path d="m279.06,382.47v6.27h-25.13v-4.99l12.82-12.11c1.36-1.3,2.28-2.41,2.75-3.35.47-.93.71-1.86.71-2.78,0-1.33-.45-2.35-1.35-3.06-.9-.71-2.22-1.07-3.97-1.07-1.46,0-2.77.28-3.94.83-1.17.55-2.15,1.39-2.95,2.49l-5.61-3.61c1.3-1.93,3.09-3.44,5.37-4.54,2.28-1.09,4.89-1.64,7.84-1.64,2.47,0,4.63.4,6.48,1.21,1.85.81,3.29,1.95,4.32,3.42,1.03,1.47,1.54,3.21,1.54,5.2,0,1.81-.38,3.5-1.14,5.08-.76,1.58-2.23,3.39-4.42,5.41l-7.65,7.22h14.3Z" style="fill: #ef487d;"/>
      <path d="m294.98,348.75h6.6l-15.67,44.74h-6.6l15.67-44.74Z" style="fill: #ef487d;"/>
      <path d="m307.28,387.27c-2.15-1.36-3.84-3.33-5.06-5.91-1.22-2.58-1.83-5.66-1.83-9.24s.61-6.66,1.83-9.24c1.22-2.58,2.9-4.55,5.06-5.91,2.15-1.36,4.61-2.04,7.36-2.04s5.21.68,7.36,2.04c2.15,1.36,3.84,3.33,5.06,5.91,1.22,2.58,1.83,5.66,1.83,9.24s-.61,6.66-1.83,9.24c-1.22,2.58-2.91,4.55-5.06,5.91-2.15,1.36-4.61,2.04-7.36,2.04s-5.21-.68-7.36-2.04Zm12.14-7.08c1.16-1.74,1.73-4.43,1.73-8.07s-.58-6.33-1.73-8.07c-1.16-1.74-2.75-2.61-4.77-2.61s-3.57.87-4.73,2.61c-1.16,1.74-1.73,4.43-1.73,8.07s.58,6.33,1.73,8.07c1.16,1.74,2.73,2.61,4.73,2.61s3.62-.87,4.77-2.61Z" style="fill: #ef487d;"/>
      <path d="m345.18,355.49v33.25h-7.69v-27.07h-6.65v-6.17h14.34Z" style="fill: #ef487d;"/>
      <path d="m363.23,348.75h6.6l-15.67,44.74h-6.6l15.67-44.74Z" style="fill: #ef487d;"/>
      <path d="m394.44,382.47v6.27h-25.13v-4.99l12.82-12.11c1.36-1.3,2.28-2.41,2.75-3.35.48-.93.71-1.86.71-2.78,0-1.33-.45-2.35-1.35-3.06-.9-.71-2.23-1.07-3.97-1.07-1.46,0-2.77.28-3.94.83-1.17.55-2.15,1.39-2.95,2.49l-5.6-3.61c1.3-1.93,3.09-3.44,5.37-4.54,2.28-1.09,4.89-1.64,7.84-1.64,2.47,0,4.63.4,6.48,1.21,1.85.81,3.29,1.95,4.32,3.42,1.03,1.47,1.54,3.21,1.54,5.2,0,1.81-.38,3.5-1.14,5.08-.76,1.58-2.23,3.39-4.42,5.41l-7.65,7.22h14.3Z" style="fill: #ef487d;"/>
      <path d="m404.41,387.27c-2.15-1.36-3.84-3.33-5.06-5.91-1.22-2.58-1.83-5.66-1.83-9.24s.61-6.66,1.83-9.24c1.22-2.58,2.9-4.55,5.06-5.91,2.15-1.36,4.61-2.04,7.36-2.04s5.21.68,7.36,2.04c2.15,1.36,3.84,3.33,5.06,5.91,1.22,2.58,1.83,5.66,1.83,9.24s-.61,6.66-1.83,9.24c-1.22,2.58-2.91,4.55-5.06,5.91-2.15,1.36-4.61,2.04-7.36,2.04s-5.21-.68-7.36-2.04Zm12.14-7.08c1.16-1.74,1.73-4.43,1.73-8.07s-.58-6.33-1.73-8.07c-1.16-1.74-2.75-2.61-4.77-2.61s-3.57.87-4.73,2.61c-1.16,1.74-1.73,4.43-1.73,8.07s.58,6.33,1.73,8.07c1.16,1.74,2.73,2.61,4.73,2.61s3.62-.87,4.77-2.61Z" style="fill: #ef487d;"/>
      <path d="m454.33,382.47v6.27h-25.13v-4.99l12.82-12.11c1.36-1.3,2.28-2.41,2.75-3.35.47-.93.71-1.86.71-2.78,0-1.33-.45-2.35-1.35-3.06-.9-.71-2.22-1.07-3.97-1.07-1.46,0-2.77.28-3.94.83-1.17.55-2.15,1.39-2.94,2.49l-5.61-3.61c1.3-1.93,3.09-3.44,5.37-4.54,2.28-1.09,4.89-1.64,7.84-1.64,2.47,0,4.63.4,6.48,1.21,1.85.81,3.29,1.95,4.32,3.42,1.03,1.47,1.54,3.21,1.54,5.2,0,1.81-.38,3.5-1.14,5.08-.76,1.58-2.23,3.39-4.42,5.41l-7.65,7.22h14.3Z" style="fill: #ef487d;"/>
      <path d="m487.49,381.76h-5.41v6.98h-7.5v-6.98h-17.91v-5.18l15.67-21.09h8.07l-14.53,20h8.93v-6.22h7.27v6.22h5.41v6.27Z" style="fill: #ef487d;"/>
    </g>
    <g>
      <g>
        <path d="m98.24,484.53c-1.88-.84-3.43-2.03-4.63-3.59l4.27-5.13c1.8,2.44,3.86,3.66,6.17,3.66,3.13,0,4.7-1.84,4.7-5.51v-15.82h-11.68v-6.17h19.33v21.56c0,4.08-1.01,7.15-3.04,9.19-2.03,2.04-5,3.06-8.93,3.06-2.25,0-4.32-.42-6.2-1.26Z" style="fill: #163891;"/>
        <path d="m145.19,478.09h-15.44l-2.94,7.12h-7.88l14.82-33.25h7.6l14.87,33.25h-8.07l-2.94-7.12Zm-2.42-5.84l-5.27-12.73-5.27,12.73h10.54Z" style="fill: #163891;"/>
        <path d="m165.92,483.58c-2.74-1.47-4.89-3.51-6.46-6.13-1.57-2.61-2.35-5.56-2.35-8.86s.78-6.25,2.35-8.86c1.57-2.61,3.72-4.65,6.46-6.13,2.74-1.47,5.82-2.21,9.24-2.21,2.88,0,5.49.51,7.81,1.52,2.33,1.01,4.28,2.47,5.87,4.37l-4.94,4.56c-2.25-2.6-5.03-3.89-8.36-3.89-2.06,0-3.89.45-5.51,1.35-1.62.9-2.87,2.16-3.78,3.78-.9,1.61-1.35,3.45-1.35,5.51s.45,3.89,1.35,5.51c.9,1.61,2.16,2.87,3.78,3.78,1.61.9,3.45,1.35,5.51,1.35,3.32,0,6.11-1.31,8.36-3.94l4.94,4.56c-1.58,1.93-3.55,3.4-5.89,4.42-2.34,1.01-4.96,1.52-7.84,1.52-3.39,0-6.45-.74-9.19-2.21Z" style="fill: #163891;"/>
        <path d="m206.13,472.16l-4.46,4.66v8.41h-7.65v-33.25h7.65v15.53l14.72-15.53h8.55l-13.77,14.82,14.58,18.43h-8.98l-10.64-13.06Z" style="fill: #163891;"/>
      </g>
      <g>
        <path d="m111.4,417.73v19.18h-3.64l-9.56-11.64v11.64h-4.38v-19.18h3.67l9.53,11.64v-11.64h4.38Z" style="fill: #679ae2;"/>
        <path d="m126.85,423.58c1.22,1.09,1.84,2.73,1.84,4.92v8.41h-4v-1.84c-.8,1.37-2.3,2.05-4.49,2.05-1.13,0-2.11-.19-2.95-.58-.83-.38-1.47-.91-1.9-1.59-.44-.68-.66-1.44-.66-2.3,0-1.37.52-2.45,1.55-3.23,1.03-.79,2.63-1.18,4.78-1.18h3.4c0-.93-.28-1.65-.85-2.15-.57-.5-1.42-.75-2.55-.75-.79,0-1.56.12-2.31.37-.76.25-1.4.58-1.93,1l-1.53-2.99c.8-.57,1.77-1,2.89-1.32,1.12-.31,2.28-.47,3.47-.47,2.28,0,4.04.54,5.26,1.63Zm-3.64,10.16c.57-.34.97-.84,1.21-1.49v-1.51h-2.93c-1.75,0-2.63.58-2.63,1.73,0,.55.21.98.64,1.3.43.32,1.02.48,1.77.48s1.38-.17,1.94-.51Z" style="fill: #679ae2;"/>
        <path d="m155.82,423.58c1.09,1.09,1.63,2.72,1.63,4.89v8.44h-4.27v-7.78c0-1.17-.24-2.04-.73-2.62-.48-.57-1.17-.86-2.07-.86-1,0-1.8.32-2.38.97-.58.65-.88,1.61-.88,2.89v7.4h-4.27v-7.78c0-2.32-.93-3.48-2.79-3.48-.99,0-1.77.32-2.36.97-.58.65-.88,1.61-.88,2.89v7.4h-4.27v-14.74h4.08v1.7c.55-.62,1.22-1.1,2.01-1.42.79-.33,1.67-.49,2.62-.49,1.04,0,1.98.21,2.82.62.84.41,1.52,1.01,2.03,1.79.6-.77,1.37-1.36,2.29-1.78.92-.42,1.93-.63,3.03-.63,1.84,0,3.31.54,4.4,1.63Z" style="fill: #679ae2;"/>
        <path d="m175.8,430.75h-11.15c.2.91.68,1.63,1.42,2.16.75.53,1.68.79,2.79.79.77,0,1.45-.11,2.04-.34.59-.23,1.15-.59,1.66-1.08l2.27,2.47c-1.39,1.59-3.42,2.38-6.08,2.38-1.66,0-3.13-.32-4.41-.97-1.28-.65-2.26-1.55-2.96-2.7-.69-1.15-1.04-2.46-1.04-3.92s.34-2.74,1.03-3.9c.68-1.16,1.62-2.06,2.82-2.71,1.2-.65,2.53-.97,4.01-.97s2.75.31,3.92.93c1.17.62,2.09,1.51,2.75,2.67.67,1.16,1,2.51,1,4.04,0,.05-.03.44-.08,1.15Zm-10-4.74c-.66.55-1.06,1.3-1.21,2.25h7.26c-.15-.93-.55-1.68-1.21-2.23-.66-.56-1.46-.84-2.41-.84s-1.78.27-2.44.82Z" style="fill: #679ae2;"/>
      </g>
    </g>
    <g>
      <path d="m98.66,338.21c-2.55-1.37-4.56-3.27-6.02-5.71-1.46-2.43-2.19-5.18-2.19-8.25s.73-5.82,2.19-8.25c1.46-2.43,3.47-4.34,6.02-5.71,2.55-1.37,5.42-2.06,8.61-2.06,2.68,0,5.11.47,7.28,1.42,2.17.94,3.99,2.3,5.46,4.07l-4.6,4.25c-2.09-2.42-4.69-3.63-7.79-3.63-1.92,0-3.63.42-5.13,1.26-1.5.84-2.68,2.01-3.52,3.52-.84,1.5-1.26,3.22-1.26,5.13s.42,3.63,1.26,5.13c.84,1.5,2.01,2.68,3.52,3.52,1.5.84,3.21,1.26,5.13,1.26,3.1,0,5.69-1.22,7.79-3.67l4.6,4.25c-1.48,1.8-3.3,3.17-5.49,4.12-2.18.94-4.62,1.42-7.3,1.42-3.16,0-6.01-.69-8.56-2.06Z" style="fill: #679ae2;"/>
      <path d="m144.61,333.1h-14.38l-2.74,6.64h-7.35l13.81-30.98h7.08l13.85,30.98h-7.52l-2.74-6.64Zm-2.26-5.44l-4.91-11.86-4.91,11.86h9.82Z" style="fill: #679ae2;"/>
      <path d="m177.84,339.74l-5.97-8.63h-6.59v8.63h-7.17v-30.98h13.41c2.74,0,5.13.46,7.15,1.37,2.02.91,3.58,2.21,4.67,3.89,1.09,1.68,1.64,3.67,1.64,5.97s-.55,4.29-1.66,5.95c-1.11,1.67-2.68,2.94-4.71,3.83l6.95,9.96h-7.7Zm-1.81-23.74c-1.12-.93-2.76-1.39-4.91-1.39h-5.84v10.8h5.84c2.15,0,3.79-.47,4.91-1.42,1.12-.94,1.68-2.27,1.68-3.98s-.56-3.08-1.68-4Z" style="fill: #679ae2;"/>
      <path d="m190.63,308.76h14.07c3.36,0,6.33.64,8.92,1.92,2.58,1.28,4.59,3.09,6.02,5.42,1.43,2.33,2.15,5.04,2.15,8.14s-.72,5.81-2.15,8.14c-1.43,2.33-3.44,4.14-6.02,5.42-2.58,1.28-5.55,1.92-8.92,1.92h-14.07v-30.98Zm13.72,25.09c3.1,0,5.57-.86,7.41-2.59,1.84-1.73,2.77-4.06,2.77-7.01s-.92-5.29-2.77-7.01c-1.84-1.73-4.31-2.59-7.41-2.59h-6.55v19.2h6.55Z" style="fill: #679ae2;"/>
    </g>
    <g>
      <path d="m264.86,327.83h5.75v4.82h-6.33l-.88,7.08h-5l.88-7.08h-6.5l-.88,7.08h-4.96l.88-7.08h-5.8v-4.82h6.37l.93-7.17h-5.8v-4.82h6.37l.88-7.08h4.96l-.88,7.08h6.5l.89-7.08h4.96l-.89,7.08h5.75l.04,4.82h-6.37l-.89,7.17Zm-5,0l.93-7.17h-6.5l-.93,7.17h6.5Z" style="fill: #ef487d;"/>
      <path d="m286.67,308.76v30.98h-7.17v-25.22h-6.2v-5.75h13.36Z" style="fill: #ef487d;"/>
      <path d="m315.21,333.9v5.84h-23.41v-4.65l11.95-11.28c1.27-1.21,2.12-2.25,2.57-3.12.44-.87.66-1.73.66-2.59,0-1.24-.42-2.19-1.26-2.85-.84-.66-2.07-1-3.7-1-1.36,0-2.58.26-3.67.77-1.09.52-2.01,1.29-2.74,2.32l-5.22-3.36c1.21-1.8,2.88-3.21,5-4.23,2.12-1.02,4.56-1.53,7.3-1.53,2.3,0,4.31.38,6.04,1.13,1.73.75,3.07,1.81,4.03,3.19.96,1.37,1.44,2.99,1.44,4.85,0,1.68-.35,3.26-1.06,4.73-.71,1.48-2.08,3.16-4.12,5.04l-7.12,6.73h13.32Z" style="fill: #ef487d;"/>
      <path d="m338.89,324.4c1.45,1.58,2.17,3.53,2.17,5.86,0,1.8-.47,3.46-1.42,4.98-.94,1.52-2.38,2.74-4.31,3.65-1.93.91-4.3,1.37-7.1,1.37-2.18,0-4.33-.29-6.44-.86-2.11-.58-3.9-1.39-5.38-2.46l2.79-5.49c1.18.89,2.54,1.57,4.09,2.06,1.55.49,3.13.73,4.76.73,1.8,0,3.22-.35,4.25-1.04,1.03-.69,1.55-1.67,1.55-2.94,0-2.54-1.93-3.81-5.8-3.81h-3.27v-4.73l6.37-7.21h-13.19v-5.75h21.68v4.65l-6.99,7.97c2.71.44,4.79,1.45,6.24,3.03Z" style="fill: #ef487d;"/>
      <path d="m372.74,333.23h-5.04v6.5h-6.99v-6.5h-16.68v-4.82l14.6-19.65h7.52l-13.54,18.63h8.32v-5.8h6.77v5.8h5.04v5.84Z" style="fill: #ef487d;"/>
      <path d="m395.06,323.01c2.08,1.74,3.12,4.07,3.12,6.99,0,1.89-.47,3.61-1.42,5.16-.94,1.55-2.38,2.79-4.31,3.72-1.93.93-4.31,1.39-7.15,1.39-2.18,0-4.33-.29-6.44-.86-2.11-.58-3.9-1.39-5.38-2.46l2.83-5.49c1.18.89,2.54,1.57,4.07,2.06,1.53.49,3.11.73,4.73.73,1.8,0,3.22-.35,4.25-1.06,1.03-.71,1.55-1.7,1.55-2.96s-.54-2.33-1.62-3.01c-1.08-.68-2.94-1.02-5.6-1.02h-7.92l1.59-17.43h18.89v5.75h-12.92l-.49,5.89h2.52c4.37,0,7.59.87,9.67,2.61Z" style="fill: #ef487d;"/>
      <path d="m421.41,321.51c1.62.8,2.91,1.92,3.85,3.39.94,1.46,1.42,3.15,1.42,5.07,0,2.07-.52,3.88-1.55,5.44-1.03,1.56-2.44,2.77-4.23,3.61-1.79.84-3.77,1.26-5.95,1.26-4.34,0-7.73-1.33-10.18-3.98-2.45-2.65-3.67-6.45-3.67-11.37,0-3.51.66-6.52,1.99-9.03,1.33-2.51,3.18-4.41,5.55-5.71,2.37-1.3,5.13-1.95,8.25-1.95,1.65,0,3.24.18,4.76.55,1.52.37,2.81.89,3.87,1.57l-2.65,5.27c-1.53-1.03-3.47-1.55-5.8-1.55-2.63,0-4.71.77-6.24,2.3-1.53,1.53-2.36,3.76-2.48,6.68,1.83-1.83,4.38-2.74,7.66-2.74,1.98,0,3.78.4,5.4,1.19Zm-3.12,12.17c.96-.83,1.44-1.95,1.44-3.36s-.48-2.54-1.44-3.39c-.96-.84-2.23-1.26-3.83-1.26s-2.85.44-3.85,1.31c-1,.87-1.5,1.98-1.5,3.34s.49,2.46,1.46,3.32c.97.86,2.3,1.28,3.98,1.28,1.53,0,2.78-.41,3.74-1.24Z" style="fill: #ef487d;"/>
      <path d="m453.36,308.76v4.65l-11.51,26.33h-7.79l11.11-25.13h-10.27v5.04h-6.37v-10.89h24.82Z" style="fill: #ef487d;"/>
      <path d="m480.51,326.46c.81,1.24,1.22,2.67,1.22,4.29,0,1.92-.55,3.59-1.64,5.02-1.09,1.43-2.63,2.54-4.6,3.32-1.98.78-4.26,1.17-6.86,1.17s-4.87-.39-6.84-1.17c-1.96-.78-3.48-1.89-4.56-3.32-1.08-1.43-1.62-3.1-1.62-5.02,0-1.62.41-3.05,1.22-4.29.81-1.24,1.97-2.24,3.47-3.01-1.15-.71-2.04-1.6-2.65-2.68-.62-1.08-.93-2.31-.93-3.69,0-1.8.5-3.36,1.5-4.69,1-1.33,2.4-2.35,4.2-3.08,1.8-.72,3.86-1.08,6.2-1.08s4.45.36,6.26,1.08c1.81.72,3.22,1.75,4.23,3.08,1,1.33,1.5,2.89,1.5,4.69,0,1.39-.31,2.62-.93,3.69-.62,1.08-1.52,1.97-2.7,2.68,1.53.77,2.71,1.77,3.52,3.01Zm-7.61,7.32c1.05-.81,1.57-1.9,1.57-3.25s-.52-2.43-1.57-3.23c-1.05-.8-2.47-1.19-4.27-1.19s-3.17.4-4.2,1.19c-1.03.8-1.55,1.87-1.55,3.23s.52,2.48,1.55,3.27c1.03.8,2.43,1.19,4.2,1.19s3.22-.41,4.27-1.22Zm-7.74-19.25c-.87.69-1.31,1.64-1.31,2.85s.43,2.11,1.28,2.79c.86.68,2.02,1.02,3.5,1.02s2.65-.34,3.54-1.02c.89-.68,1.33-1.61,1.33-2.79s-.44-2.16-1.33-2.85c-.89-.69-2.07-1.04-3.54-1.04s-2.6.35-3.47,1.04Z" style="fill: #ef487d;"/>
    </g>
  </g>
  <g>
    <rect x="67.37" y="593.32" width="9.22" height="147.5" style="fill: #b8d4f5;"/>
    <rect x="82.73" y="593.32" width="9.22" height="147.5" style="fill: #b8d4f5;"/>
    <rect x="98.09" y="593.32" width="9.22" height="147.5" style="fill: #b8d4f5;"/>
    <rect x="113.46" y="593.32" width="9.22" height="147.5" style="fill: #b8d4f5;"/>
    <rect x="130.67" y="593.32" width="5.53" height="147.5" style="fill: #b8d4f5;"/>
    <rect x="144.19" y="593.32" width="9.22" height="147.5" style="fill: #b8d4f5;"/>
    <rect x="159.55" y="593.32" width="9.22" height="147.5" style="fill: #b8d4f5;"/>
    <rect x="174.92" y="593.32" width="9.22" height="147.5" style="fill: #b8d4f5;"/>
    <rect x="190.28" y="593.32" width="9.22" height="147.5" style="fill: #b8d4f5;"/>
    <rect x="208.11" y="593.32" width="4.3" height="147.5" style="fill: #b8d4f5;"/>
    <rect x="219.17" y="593.32" width="12.91" height="147.5" style="fill: #b8d4f5;"/>
    <rect x="236.38" y="593.32" width="9.22" height="147.5" style="fill: #b8d4f5;"/>
    <rect x="254.2" y="593.32" width="4.3" height="147.5" style="fill: #b8d4f5;"/>
    <rect x="269.57" y="593.32" width="4.3" height="147.5" style="fill: #b8d4f5;"/>
    <rect x="280.63" y="593.32" width="12.91" height="147.5" style="fill: #b8d4f5;"/>
    <rect x="300.3" y="593.32" width="4.3" height="147.5" style="fill: #b8d4f5;"/>
    <rect x="313.2" y="593.32" width="9.22" height="147.5" style="fill: #b8d4f5;"/>
    <rect x="328.57" y="593.32" width="9.22" height="147.5" style="fill: #b8d4f5;"/>
    <rect x="343.93" y="593.32" width="9.22" height="147.5" style="fill: #b8d4f5;"/>
    <rect x="359.3" y="593.32" width="9.22" height="147.5" style="fill: #b8d4f5;"/>
    <rect x="374.66" y="593.32" width="9.22" height="147.5" style="fill: #b8d4f5;"/>
    <rect x="390.03" y="593.32" width="9.22" height="147.5" style="fill: #b8d4f5;"/>
    <rect x="405.39" y="593.32" width="9.22" height="147.5" style="fill: #b8d4f5;"/>
    <rect x="420.76" y="593.32" width="9.22" height="147.5" style="fill: #b8d4f5;"/>
    <rect x="436.12" y="593.32" width="9.22" height="147.5" style="fill: #b8d4f5;"/>
    <rect x="451.48" y="593.32" width="9.22" height="147.5" style="fill: #b8d4f5;"/>
    <rect x="468.69" y="593.32" width="5.53" height="147.5" style="fill: #b8d4f5;"/>
    <rect x="482.21" y="593.32" width="9.22" height="147.5" style="fill: #b8d4f5;"/>
    <rect x="497.58" y="593.32" width="9.22" height="147.5" style="fill: #b8d4f5;"/>
    <rect x="512.94" y="593.32" width="9.22" height="147.5" style="fill: #b8d4f5;"/>
    <rect x="526.46" y="593.32" width="12.91" height="147.5" style="fill: #b8d4f5;"/>
    <rect x="546.13" y="593.32" width="4.3" height="147.5" style="fill: #b8d4f5;"/>
    <rect x="559.04" y="593.32" width="9.22" height="147.5" style="fill: #b8d4f5;"/>
    <rect x="574.4" y="593.32" width="9.22" height="147.5" style="fill: #b8d4f5;"/>
    <rect x="589.77" y="593.32" width="9.22" height="147.5" style="fill: #b8d4f5;"/>
    <rect x="605.13" y="593.32" width="9.22" height="147.5" style="fill: #b8d4f5;"/>
    <rect x="620.5" y="593.32" width="9.22" height="147.5" style="fill: #b8d4f5;"/>
    <rect x="635.86" y="593.32" width="9.22" height="147.5" style="fill: #b8d4f5;"/>
    <rect x="651.23" y="593.32" width="9.22" height="147.5" style="fill: #b8d4f5;"/>
    <rect x="666.59" y="593.32" width="9.22" height="147.5" style="fill: #b8d4f5;"/>
    <rect x="681.96" y="593.32" width="9.22" height="147.5" style="fill: #b8d4f5;"/>
    <rect x="697.32" y="593.32" width="9.22" height="147.5" style="fill: #b8d4f5;"/>
    <rect x="712.69" y="593.32" width="9.22" height="147.5" style="fill: #b8d4f5;"/>
    <rect x="728.05" y="593.32" width="9.22" height="147.5" style="fill: #b8d4f5;"/>
  </g>
  <g>
    <path d="m1315.66,0H32.27C14.45,0,0,14.45,0,32.27v121.62h1347.93V32.27c0-17.82-14.45-32.27-32.27-32.27Z" style="fill: #679ae2;"/>
    <g>
      <path d="m332.84,122.23c-6.6-1.92-11.9-4.41-15.91-7.47l7.03-15.59c3.83,2.81,8.39,5.07,13.67,6.77,5.28,1.7,10.56,2.56,15.84,2.56,5.88,0,10.22-.87,13.03-2.62,2.81-1.74,4.22-4.07,4.22-6.96,0-2.13-.83-3.9-2.49-5.3-1.66-1.41-3.79-2.53-6.39-3.39-2.6-.85-6.11-1.79-10.54-2.81-6.82-1.62-12.39-3.24-16.74-4.86-4.34-1.62-8.07-4.22-11.18-7.79-3.11-3.58-4.66-8.35-4.66-14.31,0-5.19,1.41-9.9,4.22-14.12,2.81-4.22,7.05-7.56,12.71-10.03,5.66-2.47,12.58-3.7,20.76-3.7,5.71,0,11.28.68,16.74,2.04,5.45,1.36,10.22,3.32,14.31,5.88l-6.39,15.71c-8.26-4.68-16.53-7.03-24.79-7.03-5.79,0-10.07.94-12.84,2.81-2.77,1.87-4.15,4.34-4.15,7.41s1.6,5.35,4.79,6.84c3.19,1.49,8.07,2.96,14.63,4.41,6.81,1.62,12.39,3.24,16.74,4.85,4.34,1.62,8.07,4.17,11.18,7.67,3.11,3.49,4.66,8.22,4.66,14.18,0,5.11-1.43,9.77-4.28,13.99-2.85,4.22-7.13,7.56-12.84,10.03-5.71,2.47-12.65,3.71-20.82,3.71-7.07,0-13.91-.96-20.51-2.87Z" style="fill: #fff;"/>
      <path d="m435.5,51h-28.62v-16.86h77.93v16.86h-28.62v72.57h-20.7V51Z" style="fill: #fff;"/>
      <path d="m517.08,114.5c-7.11-7.07-10.67-17.16-10.67-30.28v-50.08h20.7v49.32c0,16.01,6.64,24.02,19.93,24.02,6.47,0,11.41-1.94,14.82-5.81,3.41-3.87,5.11-9.94,5.11-18.21v-49.32h20.44v50.08c0,13.12-3.56,23.21-10.67,30.28-7.11,7.07-17.06,10.6-29.83,10.6s-22.72-3.53-29.83-10.6Z" style="fill: #fff;"/>
      <path d="m620.63,34.14h40.63c9.71,0,18.29,1.85,25.74,5.56,7.45,3.7,13.24,8.92,17.38,15.65,4.13,6.73,6.2,14.56,6.2,23.51s-2.07,16.78-6.2,23.51c-4.13,6.73-9.92,11.95-17.38,15.65-7.45,3.71-16.03,5.56-25.74,5.56h-40.63V34.14Zm39.61,72.44c8.94,0,16.08-2.49,21.4-7.47,5.32-4.98,7.98-11.73,7.98-20.25s-2.66-15.27-7.98-20.25c-5.32-4.98-12.46-7.47-21.4-7.47h-18.91v55.45h18.91Z" style="fill: #fff;"/>
      <path d="m808.18,106.96v16.61h-69.25V34.14h67.59v16.61h-47.02v19.42h41.52v16.1h-41.52v20.7h48.68Z" style="fill: #fff;"/>
      <path d="m919.46,34.14v89.43h-16.99l-44.59-54.3v54.3h-20.44V34.14h17.12l44.46,54.3v-54.3h20.44Z" style="fill: #fff;"/>
      <path d="m971.97,51h-28.62v-16.86h77.93v16.86h-28.62v72.57h-20.7V51Z" style="fill: #fff;"/>
    </g>
  </g>
</svg>