<?xml version="1.0" encoding="UTF-8"?>
<svg xmlns="http://www.w3.org/2000/svg" xmlns:xlink="http://www.w3.org/1999/xlink" viewBox="0 0 159.54 187.12">
  <defs>
    <linearGradient id="linear-gradient" x1="40.99" y1="55.73" x2="71.97" y2="55.73" gradientUnits="userSpaceOnUse">
      <stop offset="0" stop-color="#fcd0bd"/>
      <stop offset="1" stop-color="#fcd0bd"/>
    </linearGradient>
    <linearGradient id="linear-gradient-2" x1="29.68" y1="31.27" x2="40.52" y2="31.27" gradientUnits="userSpaceOnUse">
      <stop offset="0" stop-color="#fbbea7"/>
      <stop offset="1" stop-color="#fbbea7"/>
    </linearGradient>
    <linearGradient id="linear-gradient-3" x1="30.56" y1="24.14" x2="46.78" y2="24.14" xlink:href="#linear-gradient"/>
    <linearGradient id="linear-gradient-4" x1="32.88" y1="23.84" x2="36.05" y2="23.84" xlink:href="#linear-gradient"/>
    <linearGradient id="linear-gradient-5" x1="27.02" y1="76.67" x2="57.5" y2="76.67" xlink:href="#linear-gradient"/>
    <linearGradient id="linear-gradient-6" x1="82.07" y1="61.02" x2="101.69" y2="61.02" xlink:href="#linear-gradient"/>
    <linearGradient id="linear-gradient-7" x1="80.77" y1="136.05" x2="92.16" y2="136.05" xlink:href="#linear-gradient"/>
    <linearGradient id="linear-gradient-8" x1="73.42" y1="134.77" x2="83.89" y2="134.77" xlink:href="#linear-gradient"/>
    <linearGradient id="linear-gradient-9" x1="68.39" y1="114.45" x2="78.93" y2="114.45" xlink:href="#linear-gradient-2"/>
    <linearGradient id="linear-gradient-10" x1="71.2" y1="124.73" x2="72.45" y2="124.73" xlink:href="#linear-gradient-2"/>
    <linearGradient id="linear-gradient-11" x1="79.2" y1="94.88" x2="85.95" y2="94.88" xlink:href="#linear-gradient-2"/>
    <linearGradient id="linear-gradient-12" x1="66.73" y1="113.88" x2="89.35" y2="113.88" xlink:href="#linear-gradient"/>
    <linearGradient id="linear-gradient-13" x1="75.52" y1="86.69" x2="91.7" y2="86.69" xlink:href="#linear-gradient"/>
    <linearGradient id="linear-gradient-14" x1="84.67" y1="89.03" x2="87.25" y2="89.03" xlink:href="#linear-gradient"/>
    <linearGradient id="linear-gradient-15" x1="109.72" y1="15.26" x2="109.72" y2="31.03" xlink:href="#linear-gradient-2"/>
    <linearGradient id="linear-gradient-16" x1="117.04" y1="47.18" x2="129.81" y2="47.18" xlink:href="#linear-gradient-2"/>
    <linearGradient id="linear-gradient-17" x1="129.27" y1="66.4" x2="144.33" y2="66.4" xlink:href="#linear-gradient-2"/>
    <linearGradient id="linear-gradient-18" x1="106.22" y1="2.99" x2="106.22" y2="25.28" xlink:href="#linear-gradient"/>
    <linearGradient id="linear-gradient-19" x1="111.03" y1="12.02" x2="109.91" y2="16.92" xlink:href="#linear-gradient"/>
    <linearGradient id="linear-gradient-20" x1="120.79" y1="58.4" x2="134.84" y2="58.4" xlink:href="#linear-gradient"/>
    <linearGradient id="linear-gradient-21" x1="134.05" y1="22.67" x2="134.05" y2="37.64" xlink:href="#linear-gradient-2"/>
    <linearGradient id="linear-gradient-22" x1="137.18" y1="74.6" x2="144.96" y2="74.6" xlink:href="#linear-gradient"/>
    <linearGradient id="linear-gradient-23" x1="131.37" y1="10.14" x2="131.37" y2="30.02" xlink:href="#linear-gradient"/>
    <linearGradient id="linear-gradient-24" x1="138.41" y1="50.16" x2="146.63" y2="50.16" xlink:href="#linear-gradient"/>
    <linearGradient id="linear-gradient-25" x1="122.41" y1="47.96" x2="122.41" y2="52.78" xlink:href="#linear-gradient"/>
    <linearGradient id="linear-gradient-26" x1="116.13" y1="57.54" x2="146.41" y2="57.54" xlink:href="#linear-gradient"/>
    <linearGradient id="linear-gradient-27" x1="134.28" y1="21.13" x2="137.18" y2="21.13" xlink:href="#linear-gradient"/>
  </defs>
  <g style="isolation: isolate;">
    <g id="Layer_1" data-name="Layer 1">
      <g>
        <ellipse cx="79.77" cy="158.57" rx="79.77" ry="13.86" style="fill: #775a5a; mix-blend-mode: multiply; opacity: .1;"/>
        <g>
          <g>
            <path d="m63.42,46.95c-.05-.18.44-.08,1.33-.89,1.03-.93,1.03-2.6.45-1.81-.59.79-1.08,1.02-2.23,1.17-.67.09-2.06.27-3.05,1.13-.64.55-1.15,2.06-1.57,2.5-2.54,2.6-4.69,4.23-11.42,9-6.73,4.77-7,7.57-4.49,9.16,2.43,1.54,8.66-5.93,17.74-16.63,2.02,1.09,6.21,3.22,9.82.76.64-.44,2.2-.77,1.92-1.4-.95-2.16-8.38-2.49-8.51-2.98Z" style="fill: url(#linear-gradient);"/>
            <g style="mix-blend-mode: multiply; opacity: .16;">
              <path d="m71.68,49.55c-.43.32-1.25.56-1.67.85-3.61,2.47-7.8.34-9.82-.76-9.08,10.69-15.32,18.17-17.74,16.63-.76-.48-1.26-1.07-1.41-1.8-.21,1.17.34,2.06,1.41,2.74,2.43,1.54,8.66-5.93,17.74-16.63,2.02,1.09,6.21,3.22,9.82.76.64-.44,2.2-.77,1.92-1.4-.06-.14-.15-.27-.25-.39Z" style="fill: #f2716f;"/>
            </g>
            <path d="m50.11,152.73c-4.1-.15-8.47-2.25-8.47-2.25l-2.86-.02s-.86,1.55-1.36,4.73c-.12.79,2.1,2.03,4.94,2.64,5.02,1.09,12.34,1.41,13.35.5,1.6-1.47-1.5-5.45-5.6-5.6Z" style="fill: #dbd6d1;"/>
            <path d="m48.47,158.26c-4.92-.36-8.04-1.76-11.05-3.07,0,0-.14.5.97,1.15,1.06.63,3.07,1.65,6.31,2.28,6.4,1.24,8.64.85,10.42.25,1.64-.55.86-2.44.86-2.44,0,0-1.32,2.28-7.51,1.83Z" style="fill: #c1bebc;"/>
            <path d="m25.98,152.2c-1.73-3.26-1.96-1.51-1.96-1.51,0,0-1.9-1.15-2.24,1.13-.2,1.33-1.62,4.52-1.82,5.46-.53,2.51-1.06,4.74,1.26,5.35,5.11,1.36,10.73-.19,8.64-2.91-2.33-3.03-2.22-4.4-3.87-7.52Z" style="fill: #dbd6d1;"/>
            <path d="m24.47,162.79c-4.99.02-4.92-1.88-4.92-1.88,0,0-.39,3.32,5.02,3.31,1.89,0,6.73-.52,5.73-3.36-.71,1-1.2,1.9-5.83,1.92Z" style="fill: #c1bebc;"/>
            <path d="m34.29,83.89c-2.09,1.19,1.88,22.41,3.09,31.61.53,4.05-1.55,7.85-1.55,12.43,0,3.61,1.6,17.43,2.61,23.32,1.09.05,3.42.47,4.01-.43.47-5.11.83-14.86,1.97-28.49.13-1.59.64-6.41.82-7.68,2.11-14.89,2.72-34.89.74-37.79-2.38-3.48-8.31,5.1-11.68,7.02Z" style="fill: #efc375;"/>
            <path d="m46.04,158.06c-2.52-.49-4.29-1.22-5.45-1.81-.46-.22-.85-.44-1.15-.66-.05-.04-.1-.07-.15-.11-.01,0-.02-.02-.03-.03-.15-.12-.26-.24-.33-.34-.03-.04-.05-.07-.07-.11,0-.02-.02-.03-.03-.05-.02-.03-.03-.06-.04-.09,0-.02-.02-.04-.02-.06,0-.02,0-.03,0-.05-.01-.08,0-.13,0-.13.3-1.89.72-3.19,1.01-3.94h0c-1.01-5.89-2.61-19.71-2.61-23.32,0-4.58,2.08-8.39,1.55-12.43-1.21-9.19-1.79-32.6.3-33.79,2.28-1.3,2.34-3.45,5.06-5.05-2.84.58-7.12,6.27-9.79,7.79-2.09,1.19,1.88,22.41,3.09,31.61.53,4.05-1.55,7.85-1.55,12.43,0,3.61,1.6,17.43,2.61,23.32h0c-.29.76-.71,2.06-1.01,3.94,0,0,0,.05,0,.13,0,.02,0,.03,0,.05,0,.02.01.04.02.06.01.03.02.06.04.09,0,.01.02.03.03.05.02.03.04.07.07.11.07.1.19.21.33.34.01,0,.02.02.03.03.05.04.09.07.15.11.3.22.69.44,1.15.66,1.16.59,2.93,1.32,5.45,1.81,6.4,1.24,8.64.85,10.42.25.25-.08.44-.2.58-.33-1.71.45-4.13.6-9.67-.48Z" style="fill: #f2716f; mix-blend-mode: multiply; opacity: .16;"/>
            <path d="m20.33,80.73c-1.05,2.44-.88,19.34,1.26,34.23.51,3.58-1.98,10.26-2.22,11.84-1.32,8.81,2.19,19.91,2.41,25.03,1.49.55,2.94.43,3.9-.17,1.3-5.83,2.35-19.16,2.53-22.76.22-4.57.38-8.12,2.17-15.18.89-3.51,7.03-25.3,6.25-32.88-.34-3.29-14.9-3.32-16.3-.11Z" style="fill: #ffd880;"/>
            <g style="mix-blend-mode: multiply; opacity: .16;">
              <path d="m21.41,161.22c-.03-.1-.05-.19-.07-.3,0,.03,0,.14.07.3Z" style="fill: #f2716f;"/>
              <path d="m29.66,78.35c-4.09-.14-8.59.65-9.33,2.37-1.05,2.44-.88,19.34,1.26,34.23.51,3.58-1.98,10.26-2.22,11.84-1.32,8.81,2.19,19.91,2.41,25.03-.2,1.33-1.62,4.52-1.82,5.46-.29,1.37-.58,2.65-.4,3.64,0,.07-.33,3.32,5.02,3.31.25,0,.55-.01.88-.03-4.4-.33-4.12-3.21-4.12-3.27-.17-.98.11-2.27.4-3.64.2-.94,1.61-4.12,1.82-5.46-.22-5.13-3.73-16.23-2.41-25.03.24-1.58,2.73-8.26,2.22-11.84-2.13-14.89-2.31-31.79-1.26-34.23.64-1.47,4.03-2.26,7.55-2.37Zm-10.1,82.57c.02.1.04.2.07.3-.07-.16-.07-.27-.07-.3Z" style="fill: #f2716f;"/>
            </g>
            <path d="m29.42,17.98c1.3-.19,1.52-.52,1.19-3.07,0,0-9.96-3.23-11.92,4.67-1.96,7.9,4.66,12.61-.36,16.78-5.01,4.17-1.82,11.95,3.74,11.22,5.55-.73,8.48-4.36,8.38-8.81-.1-4.45-2.5-12.21-4.82-14.11-.95-.77-1.63-5.9,3.78-6.69Z" style="fill: #4f3f38;"/>
            <path d="m44.12,59.8c-.52.17-.88,1.03-.81.26.21-2.07.38-4.57.34-6.66-.14-6.67,1.02-18.31-4.87-17.04-4.59.99-1.37,9.54-1.02,15.01.47,7.3,1.92,12.5,3.22,14.02.72.84,1.09,2.66,3.02,2.16.61-.15.95-8.02.1-7.75Z" style="fill: #d5414c;"/>
            <polygon points="31.49 34.96 39.24 35.92 39.24 34.05 29.68 33.47 31.49 34.96" style="fill: #d5414c;"/>
            <path d="m34.83,22.97c-.54,2.15-1.8,8.17-4.87,12.18-2.34,3.06,10.99,6.81,9.82,2.38-.49-1.86-.63-1.55-1.05-1.83.08-2.76,1.78-4.28,1.78-4.28,0,0-.38-6.65-5.68-8.45Z" style="fill: url(#linear-gradient-2);"/>
            <path d="m41.87,61.28c.49-4.11,3.54-6.14,4.14-8.28.6-2.14-.7-5.17-1.95-7.75-1.25-2.58-.97-1.71-1.63-5.53-.65-3.82-1.94-3.37-3.37-4.03.7.83,0,2.97-.62,3.17-2.95.92-7.04-2.97-8.74-3.66-3.06,2.78-7.6,4.94-6.9,10.93.69,5.98,5.26,11.48,5.34,15.9.08,4.42-7.71,9.73-8.2,20.91,2.9-3.54,20.41.49,25.56-.38,5.15-.88-4.1-17.15-3.61-21.27Z" style="fill: #ef4955;"/>
            <polygon points="36.81 39.15 38.42 38.91 37.93 37.22 36.81 39.15" style="fill: #d5414c;"/>
            <polygon points="28.62 36.54 37.35 40.35 37.93 37.22 29.68 33.47 28.62 36.54" style="fill: #f2716f;"/>
            <polygon points="38.42 38.91 39.68 38.06 38.57 37.05 38.42 38.91" style="fill: #d5414c;"/>
            <polygon points="38.57 37.05 39.92 38.67 39.92 36.24 39.24 34.39 38.57 37.05" style="fill: #f2716f;"/>
            <path d="m38.5,40.78c-.12.18-.09.41.07.51.16.1.38.04.5-.13.12-.18.09-.41-.07-.51-.16-.1-.38-.04-.5.13Z" style="fill: #c1bebc;"/>
            <path d="m41.99,48.39c-.17-.07-.38.02-.47.22-.08.2-.01.41.16.49.17.07.38-.02.47-.22.08-.2.01-.41-.16-.49Z" style="fill: #c1bebc;"/>
            <path d="m41.99,55.38c-.17-.07-.38.02-.47.22-.08.2-.01.41.16.49.17.07.38-.02.47-.22.08-.2.01-.41-.16-.49Z" style="fill: #c1bebc;"/>
            <path d="m40.07,70.84c-.17-.07-.38.02-.47.22-.08.2-.01.41.16.49.17.07.38-.02.47-.22.08-.2.01-.41-.16-.49Z" style="fill: #c1bebc;"/>
            <path d="m40.59,62.54c-.17-.07-.38.02-.47.22-.08.2-.01.41.16.49.17.07.38-.02.47-.22.08-.2.01-.41-.16-.49Z" style="fill: #c1bebc;"/>
            <path d="m43,74.51c-.17-.07-.38.02-.47.22-.08.2-.01.41.16.49.17.07.38-.02.47-.22.08-.2.01-.41-.16-.49Z" style="fill: #c1bebc;"/>
            <path d="m39.83,79.76c-.17-.07-.38.02-.47.22-.08.2-.01.41.16.49.17.07.38-.02.47-.22.08-.2.01-.41-.16-.49Z" style="fill: #c1bebc;"/>
            <path d="m38.76,35.95c-.02-1.22.48-2.83.48-2.83l-6.24-5.45s-2.26,4.9,5.76,8.28Z" style="fill: #f2716f; mix-blend-mode: multiply; opacity: .16;"/>
            <path d="m46.17,18.32c-2.14-3.93-4-5.05-8.75-4.67-4.76.38-5.31,2.12-6.69,6.48-.48,1.52.15,2.24.73,3.52.57,1.25,1.46,1.98,1.91,6.37.33,1.61.82,2.49,3.36,3.53,1.06.44,3.68,1.3,4.3,1.13.95-.27.72-1.16,3.07-4.1.61-.76,1.89-1.02,1.6-1.86-.42-1.23-.5-2.32-.45-3.62,2.06-2.11,1.69-5.37.92-6.78Z" style="fill: url(#linear-gradient-3);"/>
            <path d="m28.12,18.52c-2.39,6.75,2.53,11.55,4.56,11.57,1.4-1.02.06-4.65,2.69-7.87,2.86-3.51,3.42-2.46,6.49-4.69,3.07-2.23,5.84,5.04,4.56.58-1.55-5.35-14.24-11.03-18.29.41Z" style="fill: #4f3f38;"/>
            <path d="m34.24,21.2c-1.69.58-1.35,1.71-1.31,2.65.03.79.12,2.13,1.05,2.75.79-1.83,2.07-4.21,2.07-4.21,0,0-.12-1.77-1.81-1.18Z" style="fill: url(#linear-gradient-4);"/>
            <path d="m30.36,13.46c-1.54-.76-1.83,1.49-2.6,3.34-.77,1.85,1.32,1.86,1.32,1.86.9.24,1.2-.77,1.76-2.28s1.07-2.17-.47-2.92Z" style="fill: #dbd6d1;"/>
            <path d="m27.66,63.9c-1.14,2.96-3.15,5.4-4.75,8.36-1.64,3.03-2.85,6.59-3,10.68,1.38-1.37,3.06-1.29,3.06-1.29,0,0-.17-3.38,1.38-6.79,2.29-5.05,6.78-6.44,7.82-15.42,1.04-8.98-2.53-18.1-2.53-18.1,0,0,1.26,14.1-2,22.56Z" style="fill: #f2716f; mix-blend-mode: multiply; opacity: .16;"/>
            <path d="m54.03,79.84c-2.19-1.14-3.43-.94-5.67-2.28-5.13-3.06-16.65-12.45-19.9-10.37-2.88,1.85-1.53,4.34,4.95,7.47,6.48,3.13,11.41,4.01,13.93,5.22.37.5,2.47,3.03,5.9,5.43,3.26,2.28,4.58.72,4.22-1.07-.11-.55-.92-3.08-3.42-4.38Z" style="fill: url(#linear-gradient-5);"/>
            <path d="m30.53,56.89c-.33-7.14,1.7-18.84-4.58-17.31-4.89,1.19-3.27,9.17-2.74,15.02.7,7.81,2.67,14.84,4.11,16.43.64.71,1.01-.94,2.24-2,1.54-1.32,2.67-1.7,2.17-2.65-.64-1.21-.96-4.33-1.2-9.49Z" style="fill: #f2716f;"/>
            <path d="m54.15,85.45c-3.42-2.4-6.02-5.25-6.38-5.75-2.51-1.2-6.83-2.43-13.32-5.56-2.72-1.31-5.88-3.4-6.09-3.63-1.44-1.6-3.41-8.63-4.11-16.43-.47-5.23-1.8-12.15,1.41-14.41-4.55,1.42-2.99,9.19-2.48,14.92.7,7.81,2.67,14.84,4.11,16.43.21.23.39.21.58.04.98,1.09,2.78,2.28,5.5,3.6,6.48,3.13,11.41,4.01,13.93,5.22.37.5,2.47,3.03,5.9,5.43,2.07,1.45,3.36,1.35,3.93.62-.69.03-1.76.39-2.98-.47Z" style="fill: #f2716f; mix-blend-mode: multiply; opacity: .16;"/>
          </g>
          <g>
            <g>
              <path d="m95.93,43.19c-1.04,4.69-2.93,12.7-3.58,16.61-.44,2.67-1.12,3.9-2.75,7.36-1.1,2.34-2.36,6.14-3.73,9.11-.7,1.53-3.83,3.63-3.8,4.61.04,1.36.09,2.14,1.32,4.09.43.69,2.46,1.03,2.38.45-.23-1.87-1.29-2.49.1-4.14.06-.08.09-.16.13-.25-.09.47-.17.97-.06,1.5.26,1.26,1.42,1.34,1.09.58-.34-.76-.17-1.5.5-3,.25-.57.65-1.96.38-2.75.09-.22,6.71-8.87,8.25-15.48.92-3.94,5.92-12.43,5.51-24.44-.1-2.78-4.41-.17-5.73,5.76Z" style="fill: url(#linear-gradient-6);"/>
              <g style="mix-blend-mode: multiply; opacity: .16;">
                <path d="m100.87,36.32c.09.17-1.16.36-1.15.64.42,12-3.28,20.53-4.19,24.47-1.54,6.61-8.16,15.26-8.25,15.48.26.79-.13,2.19-.38,2.75-.67,1.5-.83,2.24-.5,3,.14.32.01.48-.2.48.42.62,1.09.56.82-.04-.34-.76-.17-1.5.5-3,.25-.57.65-1.96.38-2.75.09-.22,6.71-8.87,8.25-15.48.92-3.94,5.92-12.43,5.51-24.44-.02-.71-.33-1.07-.79-1.11Z" style="fill: #f2716f;"/>
              </g>
            </g>
            <g>
              <path d="m84.35,159.42c.02.8,1.66,3,5.1,1.64s5.1-2.55,4.96-4.21c-.06-.7-.03-.57-.45-1.03-1.09-1.19-9.61,3.59-9.61,3.59Z" style="fill: #777;"/>
              <path d="m88.7,154.73c-1.63,1.12-7.35,4.53-2.6,5.7,3.62.89,7.17-2.16,8.22-3.39.45-.53-.74-2.78-.94-3.25-.87-2.08-3.73.27-4.69.93Z" style="fill: #fff;"/>
              <path d="m89.63,138.37c-.14-2.49,2.04-7.56.78-12.07-2.28-8.17-2.63-11.82-6.84-8.19-5.45,4.72-1.32,12.74-1,18.28.21,3.72,1.67,8.45,3.39,11.67,1.64,3.09,1.81,3.54,3.28,7.16.25.61,2.85-.55,2.92-1.82.15-2.46-1.22-7.19-1.99-10.21-.64-2.51-.45-3.32-.53-4.82Z" style="fill: url(#linear-gradient-7);"/>
              <path d="m93.39,153.79c-.26-.63-.71-.85-1.23-.83-.01-2.55-1.28-6.92-2-9.77-.64-2.51-.45-3.32-.53-4.82-.14-2.49,2.04-7.56.78-12.07-1.82-6.53-2.42-10.16-4.73-9.51,1.56.55,2.22,3.99,3.76,9.51,1.26,4.5-.92,9.57-.78,12.07.08,1.51-.11,2.31.53,4.82.73,2.85,1.99,7.22,2,9.77.52-.01.97.21,1.23.83.18.42,1.15,2.27,1.01,3.03,0,.01,0,.02,0,.03.14,1.65-1.52,2.85-4.96,4.21-.58.23-1.1.35-1.57.4.7.08,1.54,0,2.54-.4,3.44-1.36,5.1-2.55,4.96-4.21,0-.01,0-.02,0-.03.13-.76-.84-2.61-1.01-3.03Z" style="fill: #f2716f; mix-blend-mode: multiply; opacity: .16;"/>
              <path d="m74.75,155.14c-.6.67-1.89,4.18-1.64,5.17.36,1.46,2.39,2.4,4.34,1.34,3.04-1.66,1.69-7.61,1.69-7.61,0,0-3.79.44-4.39,1.11Z" style="fill: #777;"/>
              <path d="m75.86,153.55c-1.67,1.11-4.58,6.88-1.72,7.59,5.17,1.3,5.24-5.11,5.01-6.99-.31-2.5-3.13-.72-3.3-.6Z" style="fill: #fff;"/>
              <path d="m77.66,115.81c-4.43,4.05-3.88,16.21-4.22,21.76-.23,3.72,1.4,10.26,1.83,17.13.04.68,3.12.77,3.26-.7.41-4.54,1.67-14.66,1.77-16.17.16-2.49,2.05-7.15,3.02-11.86,1.94-9.42-1.27-14.18-5.65-10.16Z" style="fill: url(#linear-gradient-8);"/>
              <path d="m80.17,114.43c2.42.47,3.67,4.82,2.28,11.55-.97,4.71-2.86,9.36-3.02,11.86-.09,1.41-.91,12.08-1.39,16.94.24.18,1.59,5.21-1.45,6.87-.44.24-.87.36-1.3.42.68.1,1.44,0,2.19-.42,3.04-1.66,1.69-7.61,1.69-7.61,0,0,0,0,0,0-.08-.48-.27-.79-.51-.97.48-4.86,1.59-13.82,1.68-15.23.16-2.49,2.05-7.15,3.02-11.86,1.55-7.51-.18-12.06-3.17-11.55Z" style="fill: #f2716f; mix-blend-mode: multiply; opacity: .16;"/>
              <g>
                <path d="m73.92,105.71c-.3,2.59-.65,6.03-1.24,7.45-.44,1.06-2.18,7.11-2.95,8.15-1.26,1.7-1.75,5.96-.94,6.51,3.46,2.34,3.34-.61,3.59-1.17.27-.62-.97-.55-.63-2.02.16-.68.15-1.27.05-1.78.31-.38,4.09-6.84,4.69-8.73,1.13-3.53,2.68-10.61,2.41-12.24-.49-2.89-4.28-2.33-4.98,3.84Z" style="fill: url(#linear-gradient-9);"/>
                <path d="m71.88,122.87c-.31-.22-.84.37-.64,1.14.11.44.42,1.72.62,2.24.21.52.71.47.51.17-.2-.3-.17-.57-.02-1.27.26-1.27-.05-1.99-.47-2.28Z" style="fill: url(#linear-gradient-10);"/>
              </g>
              <path d="m78.04,96.8c-3.13,1.08-3.64,3.99-4.63,6.88-.6,1.77,6.28,2,7.49.76,1.27-1.3,1.19-9.05-2.87-7.64Z" style="fill: #dbd6d1;"/>
              <path d="m79.36,96.68c1.7,1.63,1.51,6.27.55,7.25-.37.38-2.22-3.11-3.26-3-1.13,2.32-1.23,9.98-1.97,12.29-.6,1.88-3.53,8.64-3.88,9.1.03,0,.06.01.08.03.41.29.73,1.01.47,2.28-.11.53-.15.82-.08,1.05.08.09.13.18.13.29.02.06,0,.1-.02.12,0,.01,0,.03,0,.04-.21.48-.16,2.72-2.33,1.86,3.19,2.01,3.09-.78,3.34-1.33,0-.02,0-.03,0-.04.03-.03.04-.07.02-.12,0-.11-.05-.2-.13-.29-.07-.24-.03-.52.08-1.05.26-1.27-.05-1.99-.47-2.28-.03-.02-.05-.02-.08-.03.35-.46,4.08-6.84,4.68-8.72.74-2.31,1.66-6.13,2.13-8.96,1.04-.1,1.93-.34,2.29-.72,1.12-1.15,1.19-7.25-1.55-7.78Z" style="fill: #f2716f; mix-blend-mode: multiply; opacity: .16;"/>
              <path d="m83.47,96.22c-8.22-.34-6.64,5.82-7.52,11.43-.54,3.43-.51,4.4-.69,6.62-.43,5.1-3.05,6.44,1.13,8.27,13.61,5.94,11.03,3.55,10.51-1.48-.21-2.04-.59-5.2-.64-8.44-.05-3.01,5.04-16.08-2.78-16.4Z" style="fill: #dbd6d1;"/>
              <path d="m75.24,113.67s-7.32,13.22-6.64,22.05c6.98,3.23,18.94,1.84,25.21.22.07-6.34-5.35-16.77-7.45-22.27-10.36.81-11.12,0-11.12,0Z" style="fill: #705d5c;"/>
              <path d="m84.55,113.81c2.45,6.02,7.54,16.2,7.49,22.55.62-.14,1.23-.27,1.77-.42.07-6.34-5.35-16.77-7.45-22.27-.64.05-1.24.09-1.81.13Z" style="fill: #f2716f; mix-blend-mode: multiply; opacity: .16;"/>
              <path d="m84.4,91.8c-.64-.87-5.2,1.33-5.2,1.33,0,0,1.42,1.82.57,3.68-.73,1.59,7.18,1.94,6.07.22-1.11-1.72-.8-4.36-1.45-5.22Z" style="fill: url(#linear-gradient-11);"/>
              <path d="m79.77,94.06c.14.45.26.31.26,1.76,3.49.37,6.06-1.9,6.06-1.9,0,0-6.46-.31-6.32.14Z" style="fill: #ef4955; mix-blend-mode: multiply; opacity: .16;"/>
              <path d="m82.58,112.24c-1.3,1.91-1.39.85-4.86,3.85-.82.71-3.84,4.73-4.33,4.9-2.69.89-2.12,1.82-2.12,1.82,0,0,9.31-4.62,9.51-5.06.2-.44,5.32-9.72,5.32-9.72l-3.16-4.67s1.02,6.84-.36,8.87Z" style="fill: #f2716f; mix-blend-mode: multiply; opacity: .16;"/>
              <path d="m84.77,105.22c-1.01,2.11-.64,7.11-2.07,7.85-3.47,1.79-5.81,4.58-9.05,8.01-.89.94-2.92.32-4.27,1.41-2.46,1.98-3.08,2.92-2.39,4.5.51,1.17,3.33-.59,5.06-1.21,1.43-.51,2.97-1.66,3.73-2.32,1.22-1.05,9.65-7.25,9.91-7.47,3.22-2.7,4.1-11.55,3.46-13.48-1.05-3.15-1.52-3.29-4.39,2.7Z" style="fill: url(#linear-gradient-12);"/>
              <path d="m88.68,101.3c.03.08.06.16.09.25.64,1.93-.24,10.78-3.46,13.48-.26.22-8.69,6.41-9.91,7.47-.76.66-2.3,1.81-3.73,2.32-1.61.57-4.15,2.13-4.91,1.41.04.24.1.49.22.76.51,1.17,3.33-.59,5.06-1.21,1.43-.51,2.97-1.66,3.73-2.32,1.22-1.05,9.65-7.25,9.91-7.47,3.22-2.7,4.1-11.55,3.46-13.48-.16-.48-.31-.89-.45-1.22Z" style="fill: #f2716f; mix-blend-mode: multiply; opacity: .16;"/>
              <path d="m85.7,96.82c-1.62-.37-3.38,5.65-3.09,8.4.23,2.2,6.5,2.88,6.98.9.7-2.84,2.64-7.81-3.89-9.3Z" style="fill: #dbd6d1;"/>
              <path d="m79.22,79.72c-1.11.49-1.81,3.56-1.54,5.76-.57.8-1.11,1.41-1.93,1.95-.56.37.09,1.11.1,1.84.06,2.83-.49,3.26-.05,3.85.29.39,2.25,1.07,3.08,1.3,2,.55,7.08.17,7.99-.32.94-.5,3.76-3.2,4.17-4.32,1.17-3.23.87-6.87-1.8-9.28-2.66-2.41-6.95-2.14-10.03-.79Z" style="fill: url(#linear-gradient-13);"/>
              <path d="m90.86,80.98c-2.28-3.21-10.12-4.3-12.52-.48-1.66,2.64.22,2.38,2.69,3.01,4.82,1.24,2.83,5.46,3.09,7.08.32,2.01,1.35,3.49-.16,7.43-1.51,3.93-2.1,9.95,1.62,10.96,3.67,1.01,8.28.48,4.32-11.88-1.7-5.31,5.2-10.17.97-16.13Z" style="fill: #efc375;"/>
              <path d="m86.58,87.07c-1.19-.88-1.91.45-1.91.45,0,0,.23,2.16.23,3.77.98-.24,1.53-1.25,1.83-1.85.36-.71,1.04-1.49-.15-2.37Z" style="fill: url(#linear-gradient-14);"/>
            </g>
            <g>
              <path d="m97.71,162.75c-9.65,1.62-9.77-1.99-9.77-1.99,0,0-3.55,6.02,12.08,2.53,3.52-.78,6.03-2,7.13-2.9,1.07-.88.85-1.57.85-1.57-3.04,1.93-5.02,3.05-10.29,3.94Z" style="fill: #efc375;"/>
              <path d="m122.3,146c-1.86.18-2.1,3.42-5.02,6.7-2.92,3.28-6.27-.58-8.34,1.94-2.07,2.52,1.13,5.58,6.8,5.37,5.67-.21,5.72-1.54,9.91-5.51,2-1.9.23-4.97-.27-6.17-.67-1.62-1.22-2.52-3.08-2.34Z" style="fill: #ffd880;"/>
              <path d="m116.36,115.16c-1.81-3.33-4.19-5.92-4.88-8.36-.74-2.61-1.35-32.63-1.35-32.63,0,0-10.71-2.73-11.3.58-.53,2.97,1.89,30.66,4.92,36.22,2.28,4.18,14.83,32.21,16.26,37.55.42,1.58,5.56,1.82,4.69-1.53-.87-3.34-3.66-23.22-8.34-31.83Z" style="fill: #003a36;"/>
              <path d="m126.29,150.82c-.28-1.02-.76-1.94-.98-2.48-.22-.53-.43-.97-.67-1.33,0,0,0-.01,0-.02-.87-3.34-3.66-23.22-8.34-31.83-1.81-3.33-4.19-5.92-4.88-8.36-.74-2.61-1.35-32.63-1.35-32.63,0,0-.65-.17-1.64-.37.02,1.17.62,30.01,1.35,32.57.69,2.43,3.07,5.02,4.88,8.36,4.68,8.61,7.47,28.49,8.34,31.83,0,0,0,.01,0,.02.24.36.45.81.67,1.33.22.54.7,1.46.98,2.48-.02-.12-.05-.19-.05-.19,0,0,1.14,2.08.6,2.98-.54.9-5.08,6.88-11.42,6.89-1.28,0-2.33-.09-3.21-.24,1.09.4,2.65.66,4.85.66,6.34,0,10.88-5.99,11.42-6.89.54-.9-.6-2.98-.6-2.98,0,0,.03.07.05.19Z" style="fill: #f2716f; mix-blend-mode: multiply; opacity: .16;"/>
              <path d="m98.88,74.77s-.05-.02-.05-.02c.01,0,.03.01.05.02Z" style="fill: #f2716f; mix-blend-mode: multiply; opacity: .16;"/>
              <path d="m98.88,74.77c.58.22,7.11,3.35,6.58,34.53-.06,3.68.52,6.36,1.21,7.69.69,1.33,6.59-17.69,2.8-30.22-3.75-12.4-9.08-11.45-10.59-12.01Z" style="fill: #f2716f; mix-blend-mode: multiply; opacity: .16;"/>
              <path d="m101.83,152.54s-2.72,5.68-7.15,5.39c-5.19-.34-8.43,3.53-6.49,4.99,1.24.93,9.02.76,14.46-.64,3.08-.79,5.49-2.37,5.35-3.38-.54-4.06-1.47-6.04-1.47-6.04l-4.71-.33Z" style="fill: #ffd880;"/>
              <path d="m120.19,73.67s-18.16-5.01-15.73,1.71c4.59,12.72,2.04,32.82,2.4,38.87.13,2.19-3.8,33.86-5.21,38.65-.3,1.03,4.63,2.71,5.23.83,1.05-3.26,8.59-21.56,8.93-31.25.17-4.83-.83-7.89-.86-10.29-.02-1.4,7.75-25.66,5.24-38.51Z" style="fill: #004947;"/>
              <path d="m120.19,73.67s-.69-.19-1.78-.45c2.31,12.93-5.31,36.77-5.3,38.16.03,2.41,1.03,5.46.86,10.29-.34,9.69-7.88,28-8.93,31.25h0c.32.93.79,2.62,1.13,5.09h0s.22.69-.85,1.57c-1.09.9-3.61,2.12-7.13,2.9-5.12,1.14-8.18,1.26-9.98.91,1.13,1.02,4.19,1.59,11.82-.12,3.52-.78,6.03-2,7.13-2.9,1.07-.88.85-1.57.85-1.57,0,0,0,0,0,0-.34-2.47-.81-4.16-1.13-5.09h0c1.05-3.26,8.59-21.56,8.93-31.25.17-4.83-.83-7.89-.86-10.29-.02-1.4,7.75-25.66,5.24-38.51Z" style="fill: #f2716f; mix-blend-mode: multiply; opacity: .16;"/>
              <path d="m113.11,15.26c-5.36.32-8.65,6.82-8.65,6.82,0,0,1.55,2.77.93,5.35-.46.15-.64.09-1.57,1.69-2.21,3.81,13.33,1.34,11.94-2.09-1.82-4.49-2.69-9.64-2.64-11.77Z" style="fill: url(#linear-gradient-15);"/>
              <path d="m119.92,32.38c-1.71-2.46-4.3,2.7-1.94,9.08,2.41,6.52,5.7,18.67,8.03,20.01,1.45.84,2.97,1.26,3.2,1.08.47-.38.68-2.06.56-3.29-.34-3.23-2.01-15.61-9.85-26.89Z" style="fill: url(#linear-gradient-16);"/>
              <path d="m115.73,26.98c-2.81.43-4.16,4.11-9.57,3.32-2.76-.4-.78-2.88-.78-2.88,0,0-4.67,1.41-6.21,3.26-2.36,2.82-2.72,3.85-4.34,12.5-.44,2.34,5.5.95,5.5.95-.19,5.25-1.09,26.61-1.51,30.62-.42,4.01,22.69,4.47,21.87.53-1.11-5.38-2.66-2.67-2.14-11.45.13-2.21.85-13.74,1.32-16.37,5.34-.4,8.68-4.28,8.68-4.28,0,0-.68-4.11-3.57-9.79-1.42-2.79-4.69-4.25-9.26-6.41Z" style="fill: #fff;"/>
              <path d="m130.5,61.28c-1.89,1.86-2.01,3.3,2.71,6.42,4.73,3.12,5.34,2,7.24,3.29,2.3,1.58,4.79.57,3.54-1.22s-11.61-10.36-13.5-8.5Z" style="fill: url(#linear-gradient-17);"/>
              <path d="m100.34,44.13s.72-4.44.84-7.39c-.89,3.73-1.35,6.5-1.95,7.6.72-.1,1.12-.21,1.12-.21Z" style="fill: #f2716f; mix-blend-mode: multiply; opacity: .16;"/>
              <path d="m118.48,67.94c-.06-6.44,1.4-20.48,1.4-20.48h-1.29s-.77-5.83-1-8.72c-.56,9.68-1.77,29.62,0,33.12,1.77,3.5,1.54,5.11,1.54,5.11,0,0,1.7-.68,1.56-1.57-.22-1.46-.81-2.85-1.21-3.61-.65-1.24-.99-1.77-1.01-3.84Z" style="fill: #f2716f; mix-blend-mode: multiply; opacity: .16;"/>
              <path d="m105.38,24.42c.33,1.41,0,0,.14,1.86,1.59.15,4.09-1.6,5.27-2.67,1.19-1.08,1.33-5.84,1.33-5.84,0,0-7.08,5.25-6.75,6.66Z" style="fill: #f2716f; mix-blend-mode: multiply; opacity: .16;"/>
              <path d="m108.03,3.38c-4.74-.68-5.82-.93-8.25,3.13-.87,1.46-2.11,6.64-.19,9.01-.04,1.39-.98,2.23-1.49,3.52-.35.88,1.45,1.16,2.01,2,2.15,3.27.91,3.87,1.85,4.2.61.22,5.85-.49,6.94-.9,2.63-.97,1.77-2.69,2.21-4.39.77-4.65,1.51-4.26,2.18-5.56.68-1.33,1.36-2.06.99-3.71-1.07-4.72-1.5-6.61-6.24-7.29Z" style="fill: url(#linear-gradient-18);"/>
              <path d="m117.33,7.94c-1.63-2.32-1.24-5-3.08-5.68-.91-.34-3.72-1.15-5.08-1.7-1.72-.69-2.36-.86-4.72.17-1.1.48-1.73.21-2.21.94-.39.6-.68,1.23-1.04,1.79-.56.86-2.38.84-2.84,1.59-.37.61-1.03,2.84-.72,3.37,1.42,2.38,2.62-1.97,5.62-.25,2.36,1.35,1.42,2.76,3.17,4.17.47.38,1.49-.1,2.33.15,4.38,1.33,1.32,4.28,2.69,5.06.51-.06,1.13.6,1.84.83.58.18,1.23.07,1.92-.97.76-1.14,2.44-1.62,1.52-5.13-.35-1.31,1.54-3.02.6-4.34Z" style="fill: #4f3f38;"/>
              <path d="m110.85,12.01c-1.66-.67-1.87,1.09-1.87,1.09,0,0,1.47,2.22,2.16,4.1.96-.57.81-1.67.88-2.47.08-.93.48-2.05-1.18-2.72Z" style="fill: url(#linear-gradient-19);"/>
            </g>
            <g>
              <path d="m137.3,144.17c-1.6.62-1.01,3.55-2.78,7.19-1.77,3.63-5.7,1.05-6.91,3.8-1.21,2.75,2.49,3.82,7.46,2.23,4.97-1.59,4.59-1.95,7.31-6.5,1.3-2.18-1.04-4.46-1.77-5.4-1-1.27-1.7-1.93-3.31-1.31Z" style="fill: #004947;"/>
              <path d="m139.82,153.57c-1.7,2.06-2.59,3.48-6.33,3.97-3.74.49-6.07-1.05-6.07-1.05,0,0,.2,1.73,1.66,2.1,1.36.34,4.95,1.48,8.04-.72,3.08-2.2,5.91-7.17,6.16-8.1.26-.94-1.27-2.49-1.27-2.49,0,0,1.52,1.81-2.18,6.3Z" style="fill: #003a36;"/>
              <path d="m136.1,152.54c-1.5.95-7.26,3.48-8.46,5.13,2.39.42,3.52-.22,6.75-.89,3.23-.67,4.95-5.57,4.45-6.7-.5-1.13-1.24,1.5-2.75,2.45Z" style="fill: #f2716f; mix-blend-mode: multiply; opacity: .16;"/>
              <path d="m122.18,156.58c-2.38,1.66-4.24,3.18-8.3,2.6s-5.54-3.19-5.54-3.19c0,0-1.98,4.51,7.14,4.5,6.34,0,10.88-5.99,11.42-6.89.54-.9-.6-2.98-.6-2.98,0,0,1.06,2.34-4.13,5.95Z" style="fill: #efc375;"/>
              <path d="m126.87,22.26c-1.32,1.25-3.25,9.97-2.62,13.86.62,3.89,1.22,4.35,3.42,8.09,2.2,3.74,2.31-1.32,2.31-1.32l3.88-13.62s-5.67-8.25-6.99-7Z" style="fill: #efc375;"/>
              <path d="m129.81,33.88c-2.91.44-4.56,1.21-4.47,7.04.07,4.6.1,12.49.36,16.28.18,2.58-.18,3.88-.93,7.48-.51,2.43-.84,6.25-1.45,9.33-.31,1.58-2.77,4.23-2.52,5.14.34,1.26.56,1.97,2.14,3.52.56.55,2.52.42,2.32-.11-.63-1.7-1.76-2.04-.83-3.88.04-.08.04-.17.07-.26.02.45.05.94.27,1.41.53,1.12,1.63.93,1.14.3-.48-.63-.49-1.37-.21-2.91.11-.59.17-1.98-.25-2.65.04-.23,4.28-9.77,4.25-16.28-.02-3.88,11.49-26.12.1-24.41Z" style="fill: url(#linear-gradient-20);"/>
              <path d="m130.99,120.1c-2.14-2.72-8.58-8.3-8.17-8.93,2.94-4.56,9.11-11.48,12.37-20.78,5.11-14.6-4.94-17.79-9.12-16.23-1.99.74-12.92,30.75-11.66,38.66.36,2.27,4.48,6.22,12.48,17.99,10.79,15.88,8.19,17.25,10.69,16.17,3.01-1.29,1.7-1.94,1.15-4.77-.55-2.83-4.14-17.53-7.75-22.11Z" style="fill: #d5414c;"/>
              <path d="m142.08,147.42c-.5-.83-1.16-1.53-1.49-1.95-.47-.59-.87-1.05-1.33-1.3-.16-.52-.38-1.15-.54-1.96-.55-2.83-4.15-17.53-7.75-22.11-2.14-2.72-8.58-8.3-8.17-8.93,2.94-4.56,9.11-11.48,12.37-20.78,4.73-13.52,1.7-28.6-2.51-16.58-.64,1.82-2.86,15.23-4.09,20.89-1.61,7.34-5.03,12.88-7.39,16.54-.41.63,6.03,6.21,8.17,8.93,3.6,4.58,7.2,19.28,7.75,22.11.16.81.38,1.44.54,1.96.46.26.87.71,1.33,1.3.33.42.98,1.11,1.49,1.95-.05-.1-.09-.15-.09-.15,0,0,1.53,1.56,1.27,2.49-.25.93-3.08,5.9-6.16,8.1-1.01.72-2.08,1.08-3.11,1.23,1.47.06,3.17-.19,4.74-1.31,3.08-2.2,5.91-7.17,6.16-8.1.26-.94-1.27-2.49-1.27-2.49,0,0,.04.05.09.15Z" style="fill: #878787; mix-blend-mode: multiply; opacity: .16;"/>
              <path d="m139.16,151.92c-1.36.28-7.55,4.51-11.13,5.54-3.58,1.03-4.82-1.63-7.7-.42-3.39,1.43-4.47,1.88,2.73,4.55,3.01,1.11,16.1.03,18.64-.1,1.91-.1.86-6.48-.7-8.99,0,0-.49-.87-1.85-.59Z" style="fill: #004947;"/>
              <path d="m127.32,161.4c-6.83-.53-7.16-1.81-9.62-2.78-1.66,1.87,2.53,3.97,11.09,3.95,8.55-.02,11.76-.04,13.11-.42,1.35-.38.71-1.69.71-1.69-2.13.76-8.64,1.45-15.29.94Z" style="fill: #003a36;"/>
              <path d="m145.74,83.06c-1.95-15.35-13.66-13.66-16.71-10.4-1.19,1.27,3.8,24.93,4.75,36.54.24,2.98,1.76,8.02,2.56,22.96,1.22,22.76.82,17.93.88,20.8.04,1.81,4.14,1.86,4.4.77.75-3.13,4.15-21.63,3.37-28.54-.46-4.05-2.83-10.12-2.28-14.67.69-5.68,4.52-15.69,3.03-27.47Z" style="fill: #ef4955;"/>
              <path d="m135.54,22.67c-5.05,1.06-6.13,7.11-6.13,7.11,0,0,1.39,1.58,1.16,4.11-.41.21-.51-.09-1.16,1.56-1.56,3.93,11.05,1.96,9.25-1.1-2.37-4.01-2.86-9.65-3.11-11.68Z" style="fill: url(#linear-gradient-21);"/>
              <path d="m143.56,44.44c1.97-5.43-.92-8.55-4.32-11.04-1.63.66-5.55,4.39-8.38,3.5-.6-.19-.97-2.23-.29-3.03-1,.03-2.77-.41-3.4,3.25-.63,3.66-.5,3.43-1.7,5.9-1.2,2.48-2.09,3.45-2.62,6.22-.3,1.59,1.09,4.65,1.64,7.42.68,3.41.59,6.43.85,8.61.47,3.94.41,5.36.03,9.69,4.94.84,16.36-.51,19.13,2.89-4.33-15.37-7.78-14.16-7.7-18.39.08-4.24,4.5-8.78,6.76-15.02Z" style="fill: #705d5c;"/>
              <g style="mix-blend-mode: multiply; opacity: .16;">
                <path d="m145.74,83.06c-.26-2.03-.69-3.75-1.25-5.22,0,0,0,0,.01.01-4.33-15.37-7.78-14.16-7.7-18.39.08-4.24,4.5-8.78,6.76-15.02,1.97-5.43-.92-8.55-4.32-11.04-.08.03-.17.08-.27.13,2.74,2.33,4.66,5.29,2.96,9.97-2.26,6.24-6.68,10.78-6.76,15.02-.08,4.24,0,1.91,4.33,17.28,0,0,2.77,4.55,3.03,6.57,1.5,11.78-.75,21.53-1.44,27.21-.55,4.55,1.83,10.62,2.28,14.67.78,6.91-2.76,29.13-2.94,30.21.85,2.1.95,3.48.56,5.06,0,0,0,0,0,0,0,0,.64,1.31-.71,1.69-1.35.38-4.56.4-13.11.42-4.25,0-7.42-.51-9.34-1.26,1.28,1.23,5.09,2.21,10.97,2.2,8.55-.02,11.76-.04,13.11-.42,1.35-.38.71-1.69.71-1.69,0,0,0,0,0,0,.39-1.58-.14-4.62-.99-6.72,0,0,0,0,0,0,.75-3.13,4.15-21.63,3.37-28.54-.46-4.05-2.83-10.12-2.28-14.67.69-5.68,4.52-15.69,3.03-27.47Z" style="fill: #878787;"/>
              </g>
              <path d="m142.44,69.45c-.82.27-.3.69-.72,1.03-.52.42-1.34.17-2.37,1.24-.85.88-.89,1.74-1.78,2.26-.89.53.35,1.03,1.5.13.91-.71.47-.73.97-1.17.36-.32.22.67-.63,1.44-2.14,1.92-2.92,2.9-1.54,4.96,1.05,1.57,2.61-1.01,4.57-2.29,1.96-1.28,2.93-5.26,2.36-6.15-.89-1.4-1.66-1.67-2.36-1.44Z" style="fill: url(#linear-gradient-22);"/>
              <path d="m129.27,29.62s1.22,1.3,1.2,2.51c8.01-3.38,5.04-7.96,5.04-7.96l-6.24,5.45Z" style="fill: #f2716f; mix-blend-mode: multiply; opacity: .16;"/>
              <path d="m134.18,10.72c-4.42-1.26-6.39-.54-9.15,2.76-.99,1.19-1.96,4.21-.41,6.58-.19,1.24-.48,2.25-1.11,3.34-.43.74.73,1.23,1.16,2.06,1.67,3.22,1.28,4.02,2.13,4.45.55.28,3.19-.04,4.27-.26,2.6-.51,3.23-1.24,3.85-2.7,1.26-4.06,2.23-4.58,3.01-5.66.79-1.1,1.53-1.66,1.36-3.19-.49-4.38-.68-6.13-5.1-7.38Z" style="fill: url(#linear-gradient-23);"/>
              <path d="m123.66,53.6c.45,1.67,1.14,3.45,1.33,6.71,1.92-7.53,7.68-6.36,7.68-6.36,0,0-9.71-2.95-9.01-.35Z" style="fill: #f2716f; mix-blend-mode: multiply; opacity: .16;"/>
              <path d="m141.42,35.61c-2.74.38-4.11,7.09-1.92,12.98,2.23,6.02,2.85,13.6,5.01,14.85,1.34.77,1.37,1.42,1.58,1.25.43-.35.63-1.9.51-3.04-.31-2.99-1.92-26.5-5.18-26.05Z" style="fill: url(#linear-gradient-24);"/>
              <path d="m122.39,49.95c-1.64-.53-2.22-.89-2.58-1.69-.36-.8-1.11.17-.31,1.26.8,1.1,2.33,1.23,2.37,2.34.04,1.11,4.33,1.15,3.76.46-.87-1.06-1.6-1.84-3.24-2.38Z" style="fill: url(#linear-gradient-25);"/>
              <path d="m138.83,57.28c-9.78-3.05-4.93-1.49-12.28-3.87-.28-.09-.72-.83-.87-1.03-.9-1.21-2.88-.9-4.81-.96-1.93-.06-3.29-2.31-4.42-.88-.67.85-.23,2.18.89,3.72.35.48,2.88,1.6,3.75,2.02,1.36.67,2.94-.6,5.47-.13.66.12,17.94,10.8,19.53,8.54.23-.33,2.21-4.46-7.25-7.41Z" style="fill: url(#linear-gradient-26);"/>
              <g style="mix-blend-mode: multiply; opacity: .16;">
                <path d="m141.49,35.62c2.32,5.04,3.5,22.14,3.76,24.66.12,1.13-.08,2.69-.51,3.04-1.59,2.27-18.88-8.42-19.53-8.54-2.53-.47-4.1.8-5.47.13-.6-.3-2.02-.93-2.94-1.45.15.26.33.53.53.81.35.48,2.88,1.6,3.75,2.02,1.36.67,2.94-.6,5.47-.13.66.12,17.94,10.8,19.53,8.54.43-.35.63-1.9.51-3.04-.31-2.96-1.89-26.11-5.1-26.04Z" style="fill: #f2716f;"/>
              </g>
              <path d="m140.23,11.86c-4.5-5.9-13.22-5.08-15.57,1.32-1.45,3.94,1.14-.45,4.26.97,6.1,2.78,3.93,8.25,4.71,10.31.85,2.24,1.26,5.27-1.67,10.12-2.93,4.85-2.71,8.01,2.09,9.98,4.56,1.87,15.52-1.47,12.03-10.7-2.66-7.02,1.64-12.2-5.85-22Z" style="fill: #efc375;"/>
              <path d="m136.25,18.73c-1.44-.95-1.97.68-1.97.68,0,0,.63,2.53.93,4.42,1.01-.35,1.41-1.58,1.63-2.32.26-.86.84-1.84-.6-2.78Z" style="fill: url(#linear-gradient-27);"/>
            </g>
          </g>
        </g>
      </g>
    </g>
  </g>
</svg>