<svg width="124" height="114" viewBox="0 0 124 114" fill="none" xmlns="http://www.w3.org/2000/svg">
<g clip-path="url(#clip0_746_9610)">
<path d="M80.3008 26.9999L84.7008 21.5999L82.9008 20.8999L84.3008 16.8999L80.3008 21.5999L82.4008 22.1999L80.3008 26.9999Z" fill="#E0E0E0"/>
<path d="M94.3008 73.6001L98.4008 79.2001L99.5008 77.6001L102.901 79.9001L99.4008 74.8001L98.3008 76.7001L94.3008 73.6001Z" fill="#E0E0E0"/>
<path d="M19.1992 26.1001L23.5992 39.2001L26.5992 36.9001L31.6992 43.4001L28.0992 31.7001L24.9992 34.6001L19.1992 26.1001Z" fill="#E0E0E0"/>
<path d="M52.4996 101.1L55.4996 90.3L52.3996 90.4L51.9996 83.7L49.0996 93.2L52.4996 92.7V101.1Z" fill="#E0E0E0"/>
<path d="M37.6992 28.1001V33.2001L38.9992 32.8001L39.9992 35.6001L40.0992 31.1001L38.6992 31.7001L37.6992 28.1001Z" fill="#E0E0E0"/>
<path d="M15.3008 43.2L18.4008 47.0999L19.1008 45.9L21.7008 47.5L19.0008 43.9L18.3008 45.2999L15.3008 43.2Z" fill="#E0E0E0"/>
<path d="M61.6992 84.8999V89.9999L62.9992 89.5999L63.9992 92.4999L64.0992 87.9999L62.6992 88.5999L61.6992 84.8999Z" fill="#E0E0E0"/>
<path d="M18.9994 81.4999C23.4994 80.1999 25.9994 75.0999 24.4994 70.0999C23.0994 65.0999 18.2994 62.0999 13.7994 63.3999C9.29936 64.6999 6.79936 69.7999 8.29936 74.7999C9.69936 79.7999 14.4994 82.7999 18.9994 81.4999Z" fill="#455A64"/>
<path d="M22.6006 84.4999C26.5006 83.0999 27.9006 76.4999 25.5006 69.7999C23.2006 63.0999 18.1006 58.7999 14.2006 60.1999C10.3006 61.5999 8.90065 68.1999 11.3006 74.8999C13.6006 81.5999 18.7006 85.8999 22.6006 84.4999Z" fill="#FF725E"/>
<path d="M40.9998 79.7001C45.5998 78.1001 47.2998 70.8001 44.6998 63.4001C42.1998 56.1001 36.3998 51.4001 31.7998 53.1001C27.1998 54.7001 25.4998 62.0001 28.0998 69.4001C30.5998 76.7001 36.3998 81.3001 40.9998 79.7001Z" fill="#FF725E"/>
<path d="M39.1 101.2C36 94.7 37 84.3 37 84.3C37 84.3 36.8 82.4 37 81.6C37.2 80.8 41 79.7 41 79.7L32.1 53L13.5 60.6L19.4 84.5C19.4 84.5 20.3 93.8 21 98C21.6 102.2 22.6 108.2 23.4 110.4C24.2 112.6 28.1 112.9 30.2 113.2C32.3 113.5 40.1 109.6 40.9 108.4C41.8 107.2 42.2 107.7 39.1 101.2Z" fill="#FF725E"/>
<path opacity="0.3" d="M40.9998 79.7001C45.5998 78.1001 47.2998 70.8001 44.6998 63.4001C42.1998 56.1001 36.3998 51.4001 31.7998 53.1001C27.1998 54.7001 25.4998 62.0001 28.0998 69.4001C30.5998 76.7001 36.3998 81.3001 40.9998 79.7001Z" fill="black"/>
<path d="M31.5996 54.7999C31.5996 54.7999 40.7996 49.2999 45.4996 43.7999C49.2996 39.2999 54.5996 31.8999 54.5996 31.8999L78.8996 83.6999C78.8996 83.6999 66.2996 78.7999 54.5996 78.6999C43.4996 78.5999 39.2996 78.6999 39.2996 78.6999L31.5996 54.7999Z" fill="#E0E0E0"/>
<path d="M40.6992 78.3C44.2992 77 45.3992 70.6 43.0992 64C40.7992 57.4 35.9992 53.1 32.3992 54.4C28.7992 55.7 27.6992 62.1 29.9992 68.7C32.2992 75.3 36.9992 79.6 40.6992 78.3Z" fill="#E0E0E0"/>
<g opacity="0.3">
<path d="M31.0004 71.1C39.6004 65.8 48.8004 61.6 59.1004 62.9C56.5004 56.9 55.0004 50.5 54.5004 44C48.0004 53 39.6004 61.3 28.9004 64.1C28.9004 64.1 29.3004 66.8 29.8004 68.1C30.2004 69.3 31.0004 71.1 31.0004 71.1Z" fill="white"/>
</g>
<path opacity="0.2" d="M24.8008 109.9C24.9008 109.8 25.0008 109.8 25.2008 109.7C25.4008 109.6 25.5008 109.5 25.7008 109.4C25.8008 109.3 26.0008 109.3 26.1008 109.2C26.3008 109.1 26.4008 109 26.6008 109C26.7008 108.9 26.9008 108.9 27.0008 108.8C27.2008 108.7 27.3008 108.6 27.5008 108.6C27.6008 108.5 27.7008 108.5 27.9008 108.4C28.1008 108.3 28.3008 108.2 28.4008 108.1C28.5008 108 28.6008 108 28.7008 107.9C29.0008 107.8 29.3008 107.6 29.6008 107.5C29.7008 107.5 29.8008 107.4 29.9008 107.4C30.1008 107.3 30.3008 107.2 30.5008 107.1C30.6008 107 30.7008 107 30.9008 106.9C31.1008 106.8 31.2008 106.8 31.4008 106.7C31.5008 106.6 31.7008 106.6 31.8008 106.5C32.0008 106.4 32.1008 106.4 32.3008 106.3C32.4008 106.3 32.6008 106.2 32.7008 106.1C32.9008 106.1 33.0008 106 33.2008 105.9C33.3008 105.8 33.5008 105.8 33.6008 105.8C33.8008 105.7 33.9008 105.7 34.1008 105.6C34.2008 105.5 34.3008 105.5 34.5008 105.5C34.7008 105.4 34.8008 105.4 35.0008 105.3C35.1008 105.3 35.2008 105.2 35.3008 105.2C35.6008 105.1 35.9008 105 36.1008 104.9C35.9008 104.3 34.0008 100.5 32.0008 94.8001C29.8008 88.6001 31.2008 79.9001 30.7008 79.5001C30.2008 79.1001 19.3008 84.1001 19.3008 84.1001C19.3008 84.1001 20.4008 93.8001 21.0008 98.0001C21.6008 102.2 22.6008 108.2 23.4008 110.4C23.4008 110.5 23.4008 110.6 23.5008 110.6C23.6008 110.5 23.8008 110.4 24.0008 110.3C24.1008 110.2 24.2008 110.2 24.3008 110.1C24.5008 110.1 24.6008 110 24.8008 109.9Z" fill="#F5F5F5"/>
<g opacity="0.3">
<path d="M36.2 105.4C35.9 105.5 35.6 105.6 35.4 105.7C35.3 105.7 35.2 105.8 35.1 105.8C34.9 105.9 34.8 105.9 34.6 106C34.4 106 34.2 106 34.1 106C33.9 106.1 33.8 106.1 33.6 106.2C33.5 106.3 33.3 106.3 33.2 106.3C33 106.3 32.9 106.4 32.7 106.5C32.6 106.6 32.4 106.6 32.3 106.7C32.1 106.8 32 106.8 31.8 106.9C31.7 106.9 31.5 107 31.4 107.1C31.2 107.2 31.1 107.2 30.9 107.3C30.8 107.4 30.7 107.4 30.5 107.5C30.3 107.6 30.1 107.7 29.9 107.8C29.8 107.8 29.7 107.9 29.6 107.9C29.3 108 29 108.1 28.7 108.3C28.6 108.4 28.5 108.4 28.4 108.5C28.2 108.6 28 108.7 27.9 108.8C27.8 108.9 27.7 108.9 27.5 109C27.3 109.1 27.2 109.2 27 109.2C26.9 109.3 26.7 109.3 26.6 109.4C26.4 109.5 26.3 109.6 26.1 109.6C26 109.7 25.8 109.7 25.7 109.8C25.5 109.9 25.4 110 25.2 110.1C25.1 110.2 25 110.2 24.8 110.3C24.6 110.4 24.5 110.5 24.3 110.6C24.2 110.7 24.1 110.7 24 110.8C23.9 110.9 23.7 111 23.5 111.1C24.5 113.1 28.2 113.4 30.2 113.7C32.3 114 40.1 110.1 40.9 108.9C41.3 108.3 41.7 108.1 41.4 107.1C39.8 106.2 38.2 105.8 36.2 105.4Z" fill="black"/>
</g>
<path d="M33.5993 82.2C33.5993 82.2 32.8993 82.3 32.6993 82.5C32.4993 82.7 32.1993 92.3 33.1993 93.8C33.1993 93.9 33.0993 93.9 33.6993 94.2C34.2993 94.5 36.6993 95.6 37.4993 95.1C38.2993 94.6 40.0993 93 39.8993 92.3C39.7993 91.6 39.0993 91.1 38.2993 89.5C37.5993 88.1 37.2993 83.6 37.2993 83.6C36.8993 83.5 33.9993 82.2 33.5993 82.2Z" fill="#F5F5F5"/>
<path opacity="0.3" d="M39.8008 92.3C39.7008 91.6 39.0008 91.1 38.2008 89.5C37.5008 88.1 37.2008 83.6 37.2008 83.6C37.0008 83.5 34.5008 82.3 33.8008 82.2C33.8008 82.5 34.4008 85.4 34.8008 87.5C35.2008 89.4 36.1008 90.8 36.3008 91.1L36.4008 91C36.6008 91.2 38.8008 91.8 39.8008 92.3Z" fill="black"/>
<path opacity="0.5" d="M36.4008 91.2C35.8008 91.6 33.8008 93.6 33.3008 94.1C33.3008 94.2 33.4008 94.2 33.5008 94.3C34.0008 94.6 36.5008 95.7 37.3008 95.2C37.9008 94.8 39.4008 93.5 39.7008 92.7C39.7008 92.6 39.8008 92.5 39.7008 92.4C38.8008 91.8 36.6008 91.2 36.4008 91.2Z" fill="black"/>
<path d="M40.8 106.6C40.8 106.6 40.8 106.6 40.6 106.6C40.5 106.6 40.3 106.6 40.1 106.5C39.7 106.4 39 106.2 38.3 106C37.9 105.9 37.5 105.8 37.1 105.7C36.7 105.6 36.2 105.5 35.6 105.7C34.6 105.9 33.5 106.4 32.4 106.8C30.1 107.6 28.1 108.5 26.7 109.2C26 109.5 25.4 109.8 25 110C25.4 109.8 25.9 109.4 26.6 109.1C28 108.4 30 107.5 32.3 106.7C33.4 106.3 34.5 105.8 35.5 105.6C35.8 105.6 36 105.6 36.3 105.6C36.5 105.6 36.8 105.6 37 105.7C37.4 105.8 37.9 105.9 38.3 106C39 106.3 39.7 106.4 40.1 106.5C40.3 106.6 40.5 106.6 40.6 106.6C40.7 106.6 40.8 106.6 40.8 106.6Z" fill="#263238"/>
<path d="M36.5004 91.2C36.5004 91.2 36.3004 91.4 36.1004 91.6C35.8004 91.9 35.4004 92.2 35.0004 92.6C34.6004 93 34.2004 93.4 33.9004 93.6C33.6004 93.8 33.4004 94 33.4004 94C33.4004 94 33.5004 93.8 33.8004 93.5C34.0004 93.2 34.4004 92.8 34.9004 92.4C35.3004 92 35.7004 91.7 36.0004 91.4C36.2004 91.3 36.4004 91.2 36.5004 91.2Z" fill="#263238"/>
<path d="M35.9004 90.4999C35.9004 90.4999 35.8004 90.3999 35.7004 90.1999C35.6004 89.9999 35.5004 89.7999 35.3004 89.3999C35.0004 88.6999 34.8004 87.7999 34.5004 86.6999C34.3004 85.5999 34.1004 84.6999 34.0004 83.9999C34.0004 83.5999 33.9004 83.2999 33.9004 83.1999C33.9004 83.3999 34.0004 83.6999 34.0004 83.9999C34.1004 84.6999 34.3004 85.6999 34.5004 86.6999C34.7004 87.7999 34.9004 88.6999 35.2004 89.3999C35.7004 90.1999 35.9004 90.4999 35.9004 90.4999Z" fill="#263238"/>
<path d="M39.6004 92.2001C39.6004 92.2001 38.9004 91.9001 38.0004 91.6001C37.1004 91.3001 36.4004 91.1001 36.4004 91.1001C36.4004 91.1001 36.6004 91.1001 36.9004 91.2001C37.2004 91.3001 37.6004 91.4001 38.1004 91.5001C38.6004 91.6001 38.9004 91.8001 39.2004 92.0001C39.5004 92.2001 39.6004 92.2001 39.6004 92.2001Z" fill="#263238"/>
<g opacity="0.3">
<path d="M25.7007 62.7C25.4007 64.3 25.5007 65.9 26.1007 67.4C26.1007 67.4 16.7007 70.4 12.2007 72.5C11.5007 71.3 11.2007 69.8 11.4007 68.4L25.7007 62.7Z" fill="white"/>
</g>
<path d="M31.8 53.1001C31.7 53.2001 31.6 53.2001 31.5 53.3001C31.3 53.4001 31 53.6001 30.6 53.8001C29.9 54.3001 28.9 55.3001 28.2 56.8001C27.5 58.3001 27 60.3001 27 62.4001C27 64.6001 27.4 67.0001 28.2 69.4001C29 71.8001 30.2 73.9001 31.6 75.6001C33 77.3001 34.5 78.5001 36 79.3001C37.5 80.0001 38.8 80.2001 39.7 80.1001C40.1 80.0001 40.5 80.0001 40.7 79.9001C40.8 79.9001 40.9 79.8001 41 79.8001H41.1C41.1 79.8001 41.1 79.8001 41 79.8001C40.9 79.8001 40.9 79.9001 40.8 79.9001C40.6 80.0001 40.2 80.1001 39.8 80.1001C38.9 80.2001 37.5 80.1001 36 79.4001C34.5 78.7001 32.9 77.5001 31.6 75.7001C30.2 74.0001 29 71.9001 28.2 69.5001C27.4 67.1001 27 64.7001 27 62.5001C27 60.3001 27.5 58.3001 28.2 56.8001C28.9 55.3001 29.9 54.3001 30.7 53.8001C31.1 53.5001 31.4 53.4001 31.6 53.3001C31.6 53.2001 31.7 53.2001 31.8 53.1001Z" fill="#263238"/>
<path d="M36.9992 81.7001C36.9992 81.7001 36.8992 81.7001 36.7992 81.7001C36.6992 81.7001 36.3992 81.7001 36.1992 81.6001C35.6992 81.5001 34.8992 81.4001 34.0992 81.2001C33.2992 81.0001 32.5992 80.7001 31.9992 80.5001C31.7992 80.4001 31.4992 80.3001 31.3992 80.2001C31.2992 80.1001 31.1992 80.1001 31.1992 80.1001C31.1992 80.1001 31.4992 80.2001 31.9992 80.4001C32.4992 80.6001 33.1992 80.9001 34.0992 81.1001C34.8992 81.3001 35.6992 81.5001 36.1992 81.6001C36.6992 81.6001 36.9992 81.6001 36.9992 81.7001Z" fill="#263238"/>
<path d="M30.1004 79.8999C30.1004 79.8999 27.7004 80.9999 24.8004 82.2999C21.8004 83.5999 19.4004 84.5999 19.4004 84.4999C19.4004 84.4999 21.8004 83.3999 24.7004 82.0999C27.7004 80.8999 30.1004 79.8999 30.1004 79.8999Z" fill="#263238"/>
<path d="M54.4008 32.1999C54.3008 32.3999 54.1008 32.6999 53.9008 32.9999C53.4008 33.6999 52.7008 34.6999 51.8008 35.7999C50.9008 36.9999 49.9008 38.3999 48.7008 39.9999C48.1008 40.7999 47.5008 41.5999 46.8008 42.3999C46.5008 42.7999 46.1008 43.1999 45.8008 43.6999C45.5008 44.0999 45.1008 44.4999 44.7008 44.9999C43.1008 46.5999 41.5008 47.9999 39.9008 49.1999C38.4008 50.3999 36.9008 51.3999 35.7008 52.2999C34.5008 53.0999 33.5008 53.7999 32.8008 54.1999C32.5008 54.3999 32.2008 54.5999 32.0008 54.6999C31.9008 54.7999 31.9008 54.7999 31.8008 54.7999C31.8008 54.7999 31.9008 54.6999 32.0008 54.6999C32.2008 54.5999 32.4008 54.3999 32.8008 54.1999C33.5008 53.6999 34.5008 53.0999 35.7008 52.1999C36.9008 51.2999 38.3008 50.2999 39.9008 49.0999C41.4008 47.8999 43.1008 46.4999 44.6008 44.8999C45.0008 44.4999 45.4008 44.0999 45.7008 43.6999C46.0008 43.2999 46.4008 42.8999 46.7008 42.3999C47.4008 41.5999 48.0008 40.7999 48.6008 39.9999C49.8008 38.4999 50.9008 36.9999 51.7008 35.7999C52.6008 34.5999 53.3008 33.5999 53.8008 32.9999C54.0008 32.6999 54.2008 32.3999 54.4008 32.1999Z" fill="#263238"/>
<path d="M39.3008 78.6001C39.4008 78.6001 39.5008 78.6001 39.6008 78.6001C39.8008 78.6001 40.1008 78.6001 40.5008 78.6001C41.2008 78.6001 42.3008 78.6001 43.7008 78.6001C46.4008 78.6001 50.1008 78.6001 54.1008 78.6001C58.2008 78.6001 61.9008 79.2001 64.5008 79.7001C65.8008 80.0001 66.9008 80.2001 67.6008 80.4001C68.0008 80.5001 68.2008 80.6001 68.4008 80.6001C68.5008 80.6001 68.5008 80.7001 68.6008 80.7001H68.7008C68.7008 80.7001 68.7008 80.7001 68.6008 80.7001C68.5008 80.7001 68.5008 80.7001 68.4008 80.6001C68.2008 80.5001 67.9008 80.5001 67.6008 80.4001C66.9008 80.2001 65.8008 80.0001 64.5008 79.8001C61.9008 79.3001 58.2008 78.8001 54.1008 78.8001C50.0008 78.8001 46.3008 78.8001 43.7008 78.7001C42.4008 78.7001 41.3008 78.7001 40.5008 78.7001C40.1008 78.7001 39.9008 78.7001 39.6008 78.7001C39.6008 78.6001 39.5008 78.6001 39.3008 78.6001Z" fill="#263238"/>
<path opacity="0.3" d="M86.5997 48.8999L54.1997 32.3999L52.1997 35.1999C51.2997 41.9999 52.1997 50.5999 55.0997 59.3999C57.8997 67.8999 61.8997 75.0999 66.3997 80.0999L72.8997 81.6999L86.5997 48.8999Z" fill="black"/>
<path d="M82.4992 86C91.1992 83.1 93.4992 66.2 87.6992 48.2C81.9992 30.3 70.1992 18 61.4992 20.9C52.7992 23.8 50.4992 40.7 56.2992 58.7C62.0992 76.7 73.8992 88.9 82.4992 86Z" fill="#FF725E"/>
<path d="M81.2004 80.4C87.0004 78.5 87.9004 64.9 83.1004 50.1C78.3004 35.3 69.7004 24.8 63.9004 26.8C58.1004 28.7 57.2004 42.3 62.0004 57.1C66.8004 71.9 75.4004 82.3 81.2004 80.4Z" fill="#E0E0E0"/>
<path opacity="0.3" d="M86.0004 49.4999C81.0004 34.1999 71.8004 23.5999 65.4004 25.7999C64.7004 26.0999 64.0004 26.4999 63.4004 26.9999C63.6004 26.8999 63.7004 26.7999 63.9004 26.7999C69.7004 24.8999 78.3004 35.2999 83.1004 50.0999C87.9004 64.8999 87.0004 78.4999 81.2004 80.3999C80.3004 80.6999 79.4004 80.6999 78.4004 80.4999C80.1004 81.2999 81.7004 81.4999 83.2004 80.9999C89.6004 78.7999 90.9004 64.6999 86.0004 49.4999Z" fill="black"/>
<path d="M60.3008 51.4001L75.5008 48.1001L78.3008 56.6001L64.4008 64.0001C64.4008 64.0001 60.5008 55.3001 60.3008 51.4001Z" fill="#FF725E"/>
<path opacity="0.2" d="M64.5008 50.5C64.3008 50.6 61.4008 55.6 63.4008 58.5C65.4008 61.4 67.4008 62.4 67.4008 62.4L64.6008 64L61.7008 56.1L60.3008 51.5L64.5008 50.5Z" fill="black"/>
<path d="M78.9001 51.7001C79.7001 54.0001 79.3001 56.3001 78.2001 56.7001C77.0001 57.1001 75.5001 55.5001 74.7001 53.1001C73.9001 50.8001 74.3001 48.5001 75.4001 48.1001C76.6001 47.7001 78.2001 49.3001 78.9001 51.7001Z" fill="#FF725E"/>
<path d="M78.9008 51.7C78.9008 51.7 78.9008 51.6 78.8008 51.5C78.7008 51.4 78.7008 51.2 78.6008 50.9C78.5008 50.6 78.4008 50.3 78.1008 50C77.9008 49.7 77.7008 49.3 77.3008 48.9C77.0008 48.5 76.5008 48.2 76.0008 48.1C75.7008 48 75.4008 48.1 75.2008 48.2C75.0008 48.4 74.8008 48.6 74.6008 48.9C74.3008 49.5 74.3008 50.2 74.3008 50.9C74.3008 51.6 74.5008 52.3 74.7008 53C74.9008 53.7 75.2008 54.4 75.6008 55C76.0008 55.6 76.4008 56.1 77.0008 56.4C77.3008 56.6 77.6008 56.6 77.9008 56.6C78.2008 56.6 78.4008 56.4 78.6008 56.2C79.0008 55.8 79.1008 55.2 79.2008 54.8C79.3008 54.3 79.2008 53.9 79.2008 53.5C79.2008 53.1 79.1008 52.8 79.1008 52.5C79.1008 52.2 79.0008 52 79.0008 51.9C78.9008 51.7 78.9008 51.7 78.9008 51.7C78.9008 51.7 78.9008 51.8 79.0008 51.9C79.0008 52 79.1008 52.3 79.2008 52.5C79.2008 52.8 79.3008 53.1 79.4008 53.5C79.4008 53.9 79.4008 54.3 79.4008 54.8C79.3008 55.3 79.2008 55.9 78.8008 56.3C78.6008 56.5 78.3008 56.7 78.0008 56.7C77.7008 56.7 77.4008 56.6 77.1008 56.5C76.5008 56.2 76.1008 55.6 75.7008 55.1C75.3008 54.5 75.0008 53.8 74.8008 53.1C74.6008 52.4 74.4008 51.6 74.4008 50.9C74.4008 50.2 74.4008 49.5 74.7008 48.9C74.8008 48.6 75.0008 48.3 75.3008 48.2C75.6008 48 75.9008 48 76.2008 48C76.8008 48.1 77.2008 48.5 77.5008 48.9C77.8008 49.3 78.1008 49.6 78.3008 50C78.5008 50.3 78.6008 50.7 78.7008 50.9C78.8008 51.2 78.9008 51.4 78.9008 51.5C78.9008 51.6 78.9008 51.7 78.9008 51.7Z" fill="#263238"/>
<path opacity="0.3" d="M77.6 54.8C78.3 54.6 78.5 53.3 78 51.9C77.6 50.6 76.7 49.6 76 49.9C75.3 50.1 75.1 51.4 75.6 52.8C76.1 54.1 77 55 77.6 54.8Z" fill="black"/>
<path d="M63.9004 26.8C63.9004 26.8 63.9004 26.8 63.8004 26.9C63.7004 27 63.6004 27 63.4004 27.1C63.0004 27.3 62.5004 27.7 61.9004 28.2C60.8004 29.4 59.8004 31.6 59.4004 34.5C59.2004 35.9 59.1004 37.5 59.1004 39.3C59.1004 41 59.2004 42.9 59.4004 44.8C59.8004 48.7 60.8004 52.8 62.2004 57.1C63.6004 61.4 65.3004 65.3001 67.1004 68.7001C68.0004 70.4001 69.0004 72 70.0004 73.3C71.0004 74.7 72.0004 75.9 73.1004 77C75.1004 79.1 77.2004 80.3 78.8004 80.6C79.6004 80.8 80.2004 80.7 80.6004 80.7C80.8004 80.7 81.0004 80.6 81.1004 80.6C81.2004 80.6 81.3004 80.6 81.3004 80.6C81.3004 80.6 81.1004 80.7001 80.7004 80.8001C80.3004 80.9001 79.6004 80.9001 78.8004 80.8001C78.0004 80.6001 77.1004 80.3 76.1004 79.7C75.1004 79.1 74.1004 78.3 73.0004 77.2C72.0004 76.2 70.9004 74.9 69.9004 73.5C68.9004 72.1 67.9004 70.6001 67.0004 68.9001C65.1004 65.5001 63.4004 61.6 62.0004 57.3C60.6004 53 59.7004 48.9 59.2004 45C59.0004 43.1 58.9004 41.2 58.9004 39.5C58.9004 37.8 59.0004 36.1 59.2004 34.7C59.4004 33.2 59.8004 32 60.2004 30.9C60.6004 29.8 61.2004 29 61.8004 28.4C62.4004 27.8 62.9004 27.5 63.3004 27.3C63.7004 26.8 63.9004 26.8 63.9004 26.8Z" fill="#263238"/>
<path opacity="0.2" d="M63.0996 60.2999L75.4996 54.8999C75.4996 54.8999 76.4996 56.5999 77.6996 56.5999L64.5996 63.9999L63.0996 60.2999Z" fill="black"/>
<path opacity="0.3" d="M54.901 38.8999C54.901 38.8999 54.201 41.7999 54.901 42.9999H57.201V38.8999H54.901Z" fill="white"/>
<g opacity="0.3">
<path d="M65.1992 20.5C63.2992 20.9 61.5992 21.7 60.0992 23.1C56.2992 26.4 54.6992 32.1 54.6992 37.1C55.4992 36.9 56.5992 36.7 57.1992 37.1C57.3992 34.6 57.5992 32 58.4992 29.7C59.3992 27.4 60.9992 25.2 63.2992 24.2C65.1992 23.4 67.2992 23.5 69.2992 24.1C73.6992 25.4 77.0992 28.7 80.0992 32.3C75.5992 25.5 70.1992 21.1 65.1992 20.5Z" fill="white"/>
</g>
<path d="M87.8992 77.8C87.8992 77.9 87.7992 78.1 87.6992 78.3C87.4992 78.7 87.1992 79.3 86.5992 80C86.0992 80.7 85.3992 81.4 84.4992 82C83.9992 82.3 83.4992 82.6 82.9992 82.8C82.4992 83 81.7992 83.2 81.1992 83.3C79.8992 83.5 78.6992 83.1 77.6992 82.7C76.6992 82.2 75.8992 81.7 75.1992 81.2C74.5992 80.7 73.9992 80.2 73.6992 79.9C73.9992 80.2 74.5992 80.6 75.1992 81.1C75.8992 81.6 76.6992 82.2 77.6992 82.6C78.6992 83 79.8992 83.4 81.0992 83.2C81.6992 83.1 82.2992 82.9 82.8992 82.7C83.4992 82.5 83.8992 82.2 84.3992 81.9C85.2992 81.3 85.9992 80.6 86.4992 80C86.9992 79.3 87.3992 78.8 87.5992 78.4C87.7992 78 87.7992 77.9 87.8992 77.8Z" fill="white"/>
<g opacity="0.3">
<path d="M68.7005 68.2001C64.9005 60.0001 62.4005 51.1001 61.3005 42.0001C60.9005 39.0001 60.7005 36.0001 61.2005 33.0001C61.5005 30.9001 62.1005 28.9001 63.2005 27.1001C58.0005 29.8001 57.4005 42.9001 62.0005 57.1001C66.8005 71.9001 75.4005 82.4001 81.2005 80.4001C81.4005 80.3001 81.6005 80.2001 81.8005 80.1001C78.8005 79.9001 76.0005 78.4001 74.0005 76.2001C71.6005 74.0001 70.0005 71.1001 68.7005 68.2001Z" fill="black"/>
</g>
<path d="M88.8008 49.3L104.001 46.5L101.701 43.1L110.001 39.5L96.7008 41.1L99.1008 44.8L88.8008 49.3Z" fill="#FF725E"/>
<path d="M87.4004 39.3L97.1004 31.4L93.3004 29.7L96.7004 23.5L88.8004 30.2L92.0004 31.8L87.4004 39.3Z" fill="#FF725E"/>
<path d="M92.5 57.6001L102.2 65.5001L102.4 62.6001L108.8 65.3001L100.4 58.4001L100.2 61.5001L92.5 57.6001Z" fill="#FF725E"/>
</g>
<defs>
<clipPath id="clip0_746_9610">
<rect width="124" height="101.6" fill="white" transform="translate(0 12)"/>
</clipPath>
</defs>
</svg>
