<svg width="140" height="47" viewBox="0 0 140 47" fill="none" xmlns="http://www.w3.org/2000/svg">
<g clip-path="url(#clip0_715_298)">
<path d="M128.851 0.00015275H11.155C10.726 0.00015275 10.3021 0.00015275 9.87425 0.00250275C9.51607 0.00485275 9.16075 0.0116795 8.79913 0.0174252C8.01353 0.0267099 7.22978 0.0961224 6.45469 0.225059C5.68068 0.356804 4.93092 0.605179 4.23077 0.961784C3.53147 1.32141 2.8925 1.7887 2.33704 2.34671C1.77867 2.90315 1.31322 3.54632 0.958592 4.25149C0.602988 4.95526 0.356412 5.70941 0.227378 6.48789C0.097118 7.2654 0.0270238 8.05186 0.0177246 8.84024C0.00686756 9.2005 0.00572102 9.56195 0 9.92225V37.0815C0.00572102 37.4463 0.00686756 37.7998 0.0177246 38.1647C0.0270266 38.9531 0.0971208 39.7395 0.227378 40.517C0.356055 41.2959 0.602647 42.0505 0.958592 42.7545C1.31306 43.4574 1.77857 44.098 2.33704 44.6513C2.89039 45.2118 3.52978 45.6794 4.23077 46.0363C4.93092 46.3939 5.68059 46.6437 6.45469 46.7775C7.22991 46.9054 8.01358 46.9748 8.79913 46.9852C9.16075 46.9932 9.51607 46.9978 9.87425 46.9978C10.3021 47.0002 10.726 47.0002 11.155 47.0002H128.851C129.272 47.0002 129.699 47.0002 130.119 46.9978C130.476 46.9978 130.842 46.9932 131.198 46.9852C131.982 46.9754 132.764 46.9059 133.538 46.7775C134.315 46.6428 135.067 46.393 135.77 46.0363C136.471 45.6792 137.11 45.2116 137.662 44.6513C138.219 44.0958 138.686 43.4557 139.045 42.7545C139.398 42.05 139.642 41.2955 139.769 40.517C139.9 39.7394 139.972 38.9531 139.986 38.1647C139.991 37.7998 139.991 37.4463 139.991 37.0815C140 36.6546 140 36.2301 140 35.7963V11.2051C140 10.7748 140 10.348 139.991 9.92225C139.991 9.56195 139.991 9.2005 139.986 8.84019C139.972 8.05175 139.9 7.26545 139.769 6.48784C139.642 5.70981 139.398 4.95572 139.045 4.25144C138.323 2.83801 137.178 1.68748 135.77 0.961679C135.067 0.605944 134.314 0.357635 133.538 0.224954C132.764 0.0954485 131.982 0.0260119 131.198 0.0172607C130.842 0.0115267 130.476 0.00464125 130.119 0.00235C129.699 0 129.272 0.00015275 128.851 0.00015275Z" fill="black"/>
<path d="M9.88007 45.9721C9.52362 45.9721 9.17577 45.9675 8.82211 45.9595C8.08947 45.9499 7.35854 45.8859 6.63532 45.7679C5.96096 45.6512 5.30768 45.4342 4.69703 45.1241C4.09199 44.8165 3.54014 44.4132 3.06262 43.9296C2.5782 43.4517 2.17489 42.8974 1.86869 42.2887C1.55911 41.676 1.34486 41.0193 1.23341 40.3415C1.11305 39.6131 1.04793 38.8766 1.03861 38.1383C1.03119 37.8905 1.02148 37.0655 1.02148 37.0655V9.92229C1.02148 9.92229 1.03183 9.10989 1.03867 8.87121C1.04759 8.13411 1.11233 7.39876 1.23233 6.67153C1.34399 5.99181 1.5584 5.33322 1.86815 4.71856C2.17323 4.11028 2.5743 3.55558 3.0558 3.07597C3.53677 2.5918 4.09038 2.18641 4.69646 1.87457C5.3057 1.56541 5.95774 1.34996 6.63075 1.23544C7.35634 1.11625 8.08981 1.05182 8.82499 1.04267L9.88065 1.02832H130.114L131.182 1.04324C131.911 1.05194 132.637 1.1158 133.356 1.23429C134.036 1.35024 134.695 1.56719 135.311 1.87801C136.525 2.50645 137.513 3.50071 138.137 4.72143C138.441 5.33185 138.653 5.98507 138.763 6.65891C138.884 7.39211 138.952 8.13324 138.966 8.87638C138.97 9.20914 138.97 9.56657 138.97 9.92229C138.979 10.3629 138.979 10.7823 138.979 11.2051V35.7963C138.979 36.2232 138.979 36.6397 138.97 37.0597C138.97 37.4418 138.97 37.7918 138.965 38.1521C138.951 38.882 138.884 39.6099 138.765 40.33C138.656 41.0127 138.443 41.6745 138.133 42.2922C137.825 42.8943 137.424 43.4438 136.945 43.9204C136.467 44.4066 135.914 44.8123 135.308 45.1218C134.693 45.4344 134.035 45.6522 133.356 45.7679C132.633 45.8865 131.902 45.9505 131.17 45.9595C130.827 45.9675 130.468 45.9721 130.12 45.9721L128.851 45.9744L9.88007 45.9721Z" fill="white"/>
<path d="M29.2449 23.3703C29.2579 22.3505 29.5277 21.3505 30.0289 20.4635C30.5302 19.5764 31.2468 18.8312 32.1119 18.297C31.5623 17.5087 30.8373 16.86 29.9944 16.4023C29.1514 15.9446 28.2139 15.6907 27.2562 15.6606C25.2132 15.4452 23.2326 16.8884 22.1915 16.8884C21.1303 16.8884 19.5274 15.682 17.8013 15.7176C16.6849 15.7539 15.5968 16.0799 14.6431 16.6641C13.6894 17.2482 12.9027 18.0705 12.3595 19.0508C10.0066 23.1421 11.7617 29.155 14.0156 32.4622C15.1432 34.0816 16.4612 35.8905 18.1857 35.8264C19.8732 35.7561 20.5035 34.7457 22.5404 34.7457C24.5585 34.7457 25.1498 35.8264 26.9093 35.7856C28.7201 35.7561 29.861 34.159 30.9491 32.5243C31.7594 31.3704 32.3828 30.0951 32.7965 28.7456C31.7444 28.2987 30.8467 27.5507 30.2151 26.5948C29.5835 25.6389 29.2461 24.5175 29.2449 23.3703Z" fill="black"/>
<path d="M25.9225 13.4853C26.9098 12.295 27.3962 10.765 27.2784 9.22021C25.77 9.37933 24.3767 10.1034 23.376 11.2481C22.8868 11.8073 22.5121 12.4578 22.2733 13.1626C22.0345 13.8673 21.9364 14.6124 21.9846 15.3553C22.739 15.3631 23.4854 15.1988 24.1675 14.8749C24.8496 14.551 25.4497 14.0759 25.9225 13.4853Z" fill="black"/>
<path d="M49.4906 31.889H43.9528L42.6229 35.8328H40.2773L45.5227 21.2417H47.9596L53.205 35.8328H50.8194L49.4906 31.889ZM44.5264 30.0691H48.916L46.7521 23.6686H46.6915L44.5264 30.0691Z" fill="black"/>
<path d="M64.5324 30.5144C64.5324 33.8203 62.7706 35.9442 60.1119 35.9442C59.4385 35.9796 58.7687 35.8238 58.1793 35.4946C57.5899 35.1655 57.1046 34.6763 56.7792 34.083H56.7289V39.3522H54.5547V25.1948H56.6592V26.9642H56.6992C57.0396 26.3738 57.533 25.8871 58.1269 25.556C58.7208 25.2248 59.393 25.0615 60.0719 25.0835C62.7603 25.0835 64.5324 27.2178 64.5324 30.5144ZM62.2976 30.5144C62.2976 28.3607 61.1893 26.9447 59.4984 26.9447C57.8372 26.9447 56.7198 28.3905 56.7198 30.5144C56.7198 32.6579 57.8372 34.0934 59.4984 34.0934C61.1893 34.0934 62.2976 32.6877 62.2976 30.5144Z" fill="black"/>
<path d="M76.1911 30.5144C76.1911 33.8203 74.4288 35.9442 71.7701 35.9442C71.0967 35.9796 70.4269 35.8238 69.8375 35.4946C69.2481 35.1655 68.7629 34.6763 68.4374 34.083H68.3871V39.3522H66.2129V25.1948H68.3174V26.9642H68.3574C68.6978 26.3738 69.1912 25.8871 69.7851 25.556C70.379 25.2248 71.0512 25.0615 71.7301 25.0835C74.4185 25.0835 76.1911 27.2178 76.1911 30.5144ZM73.9558 30.5144C73.9558 28.3607 72.8475 26.9447 71.1566 26.9447C69.4954 26.9447 68.378 28.3905 68.378 30.5144C68.378 32.6579 69.4954 34.0934 71.1566 34.0934C72.8475 34.0934 73.9558 32.6877 73.9558 30.5144Z" fill="black"/>
<path d="M83.8956 31.7675C84.0567 33.2145 85.4563 34.1645 87.3689 34.1645C89.2015 34.1645 90.5199 33.2144 90.5199 31.9097C90.5199 30.7772 89.7248 30.0991 87.8419 29.6343L85.959 29.1788C83.2912 28.5316 82.0527 27.2786 82.0527 25.2453C82.0527 22.7278 84.2372 20.9985 87.338 20.9985C90.4091 20.9985 92.5137 22.7278 92.5845 25.2453H90.3897C90.2583 23.7892 89.0598 22.9102 87.3083 22.9102C85.5568 22.9102 84.3583 23.7995 84.3583 25.0938C84.3583 26.1254 85.1238 26.7324 86.9964 27.1971L88.5971 27.5918C91.5779 28.2998 92.8153 29.5024 92.8153 31.6366C92.8153 34.3664 90.6513 36.0761 87.2077 36.0761C83.9858 36.0761 81.8105 34.4066 81.6699 31.7674L83.8956 31.7675Z" fill="black"/>
<path d="M97.5098 22.6772V25.1948H99.524V26.924H97.5098V32.7887C97.5098 33.6998 97.9131 34.1243 98.7985 34.1243C99.0377 34.1201 99.2764 34.1033 99.5137 34.0738V35.7927C99.1157 35.8674 98.711 35.9012 98.3061 35.8937C96.1616 35.8937 95.3253 35.0847 95.3253 33.0216V26.924H93.7852V25.1948H95.3252V22.6772H97.5098Z" fill="black"/>
<path d="M100.689 30.5144C100.689 27.1673 102.652 25.064 105.713 25.064C108.784 25.064 110.738 27.1672 110.738 30.5144C110.738 33.8707 108.795 35.9648 105.713 35.9648C102.633 35.9648 100.689 33.8707 100.689 30.5144ZM108.523 30.5144C108.523 28.2183 107.475 26.8632 105.713 26.8632C103.951 26.8632 102.904 28.2287 102.904 30.5144C102.904 32.8196 103.951 34.1645 105.713 34.1645C107.475 34.1645 108.523 32.8196 108.523 30.5144Z" fill="black"/>
<path d="M112.531 25.1947H114.605V27.0054H114.655C114.796 26.4399 115.125 25.9401 115.589 25.5901C116.053 25.2401 116.623 25.0612 117.203 25.0834C117.454 25.0825 117.703 25.1098 117.948 25.1649V27.2073C117.632 27.1103 117.302 27.0657 116.971 27.0754C116.655 27.0625 116.34 27.1185 116.048 27.2393C115.756 27.3602 115.493 27.5432 115.278 27.7757C115.062 28.0083 114.9 28.2848 114.801 28.5864C114.702 28.888 114.67 29.2075 114.705 29.5229V35.8328H112.531L112.531 25.1947Z" fill="black"/>
<path d="M127.973 32.7083C127.68 34.6395 125.808 35.9648 123.412 35.9648C120.331 35.9648 118.418 33.8914 118.418 30.5649C118.418 27.2281 120.341 25.064 123.321 25.064C126.251 25.064 128.094 27.0858 128.094 30.3113V31.0594H120.613V31.1914C120.578 31.5829 120.627 31.9773 120.756 32.3484C120.885 32.7195 121.091 33.0589 121.36 33.3439C121.63 33.6289 121.957 33.853 122.319 34.0014C122.681 34.1498 123.071 34.2191 123.462 34.2046C123.976 34.253 124.492 34.1335 124.932 33.8639C125.373 33.5943 125.715 33.189 125.908 32.7083L127.973 32.7083ZM120.623 29.5333H125.919C125.938 29.1813 125.885 28.829 125.763 28.4986C125.64 28.1682 125.451 27.8667 125.207 27.6132C124.963 27.3597 124.669 27.1596 124.345 27.0253C124.02 26.8911 123.671 26.8258 123.321 26.8333C122.966 26.8312 122.615 26.8995 122.288 27.0344C121.96 27.1692 121.662 27.3678 121.412 27.6189C121.161 27.8699 120.962 28.1683 120.827 28.4969C120.691 28.8255 120.622 29.1777 120.623 29.5333Z" fill="black"/>
<path d="M44.254 10.2589C44.7098 10.2261 45.1672 10.2952 45.5932 10.4614C46.0192 10.6276 46.4031 10.8867 46.7174 11.2199C47.0316 11.5532 47.2683 11.9523 47.4103 12.3886C47.5523 12.8248 47.5962 13.2873 47.5387 13.7426C47.5387 15.9825 46.3334 17.27 44.254 17.27H41.7324V10.2589H44.254ZM42.8167 16.2785H44.1329C44.4586 16.298 44.7845 16.2444 45.087 16.1215C45.3895 15.9985 45.6609 15.8094 45.8814 15.5679C46.1019 15.3263 46.266 15.0385 46.3618 14.7252C46.4576 14.4119 46.4826 14.0811 46.435 13.7569C46.4791 13.434 46.4516 13.1052 46.3543 12.7943C46.2571 12.4833 46.0926 12.1978 45.8726 11.9581C45.6525 11.7185 45.3825 11.5307 45.0817 11.4083C44.7809 11.2858 44.4569 11.2316 44.1329 11.2497H42.8167V16.2785Z" fill="black"/>
<path d="M48.7637 14.6222C48.7306 14.2745 48.7702 13.9237 48.88 13.5922C48.9898 13.2608 49.1673 12.9561 49.4012 12.6976C49.6352 12.4391 49.9203 12.2326 50.2383 12.0913C50.5564 11.95 50.9003 11.877 51.2481 11.877C51.5959 11.877 51.9399 11.95 52.2579 12.0913C52.576 12.2326 52.8611 12.4391 53.095 12.6976C53.3289 12.9561 53.5065 13.2608 53.6163 13.5922C53.726 13.9237 53.7657 14.2745 53.7325 14.6222C53.7663 14.9703 53.7271 15.3216 53.6176 15.6535C53.5082 15.9855 53.3307 16.2908 53.0967 16.5498C52.8628 16.8088 52.5774 17.0157 52.259 17.1573C51.9407 17.299 51.5963 17.3721 51.2481 17.3721C50.8999 17.3721 50.5556 17.299 50.2372 17.1573C49.9188 17.0157 49.6335 16.8088 49.3995 16.5498C49.1655 16.2908 48.9881 15.9855 48.8786 15.6535C48.7691 15.3216 48.73 14.9703 48.7637 14.6222ZM52.6631 14.6222C52.6631 13.4753 52.1501 12.8046 51.2498 12.8046C50.3461 12.8046 49.8377 13.4753 49.8377 14.6222C49.8377 15.7783 50.3461 16.4438 51.2498 16.4438C52.1501 16.4438 52.6631 15.7737 52.6631 14.6222Z" fill="black"/>
<path d="M60.3367 17.2699H59.2582L58.1693 13.3732H58.0871L57.0028 17.2699H55.9346L54.4824 11.979H55.537L56.4807 16.0163H56.5584L57.6415 11.979H58.6389L59.722 16.0163H59.8043L60.7434 11.979H61.7831L60.3367 17.2699Z" fill="black"/>
<path d="M63.0059 11.9789H64.0067V12.8194H64.0844C64.2162 12.5176 64.4385 12.2645 64.7203 12.0955C65.0021 11.9265 65.3294 11.8501 65.6565 11.8768C65.9128 11.8574 66.1702 11.8963 66.4096 11.9904C66.649 12.0845 66.8642 12.2315 67.0393 12.4205C67.2144 12.6095 67.345 12.8356 67.4212 13.0821C67.4975 13.3287 67.5176 13.5893 67.48 13.8447V17.2698H66.4403V14.1069C66.4403 13.2566 66.0724 12.8338 65.3035 12.8338C65.1294 12.8256 64.9557 12.8554 64.7942 12.921C64.6327 12.9866 64.4872 13.0865 64.3677 13.2138C64.2482 13.3412 64.1576 13.493 64.102 13.6588C64.0464 13.8246 64.0271 14.0006 64.0455 14.1746V17.2699H63.0059L63.0059 11.9789Z" fill="black"/>
<path d="M69.1367 9.91357H70.1764V17.2699H69.1367V9.91357Z" fill="black"/>
<path d="M71.6211 14.6223C71.588 14.2746 71.6276 13.9237 71.7374 13.5923C71.8473 13.2608 72.0248 12.9561 72.2588 12.6976C72.4927 12.4391 72.7779 12.2326 73.096 12.0913C73.414 11.95 73.758 11.877 74.1058 11.877C74.4536 11.877 74.7976 11.95 75.1157 12.0913C75.4337 12.2326 75.7189 12.4391 75.9528 12.6976C76.1868 12.9561 76.3643 13.2608 76.4741 13.5923C76.584 13.9237 76.6236 14.2746 76.5905 14.6223C76.6242 14.9704 76.585 15.3217 76.4755 15.6536C76.366 15.9856 76.1885 16.2909 75.9545 16.5499C75.7205 16.8088 75.4351 17.0158 75.1167 17.1574C74.7984 17.299 74.454 17.3722 74.1058 17.3722C73.7576 17.3722 73.4132 17.299 73.0948 17.1574C72.7765 17.0158 72.4911 16.8088 72.2571 16.5499C72.0231 16.2909 71.8456 15.9856 71.7361 15.6536C71.6266 15.3217 71.5874 14.9704 71.6211 14.6223ZM75.5205 14.6223C75.5205 13.4754 75.0075 12.8047 74.1072 12.8047C73.2035 12.8047 72.6951 13.4754 72.6951 14.6223C72.6951 15.7784 73.2035 16.4439 74.1072 16.4439C75.0075 16.4439 75.5205 15.7738 75.5205 14.6223Z" fill="black"/>
<path d="M77.6855 15.7737C77.6855 14.8213 78.3916 14.2723 79.645 14.1942L81.072 14.1116V13.6549C81.072 13.0961 80.7041 12.7806 79.9934 12.7806C79.413 12.7806 79.0109 12.9946 78.8955 13.3687H77.8889C77.9952 12.4599 78.8464 11.877 80.0414 11.877C81.3622 11.877 82.1071 12.5373 82.1071 13.6549V17.27H81.1063V16.5265H81.024C80.857 16.7932 80.6226 17.0106 80.3446 17.1566C80.0666 17.3025 79.755 17.3717 79.4416 17.3572C79.2204 17.3803 78.9969 17.3566 78.7854 17.2876C78.574 17.2187 78.3792 17.1059 78.2138 16.9568C78.0483 16.8076 77.9158 16.6252 77.8249 16.4214C77.7339 16.2177 77.6864 15.997 77.6855 15.7737ZM81.072 15.3216V14.8793L79.7855 14.9619C79.06 15.0107 78.7309 15.2585 78.7309 15.7249C78.7309 16.2011 79.1422 16.4783 79.7078 16.4783C79.8736 16.4951 80.041 16.4783 80.2001 16.4288C80.3592 16.3794 80.5068 16.2983 80.6341 16.1904C80.7613 16.0825 80.8657 15.9499 80.9409 15.8007C81.0162 15.6514 81.0607 15.4885 81.072 15.3216Z" fill="black"/>
<path d="M83.4727 14.6222C83.4727 12.9503 84.3284 11.8912 85.6594 11.8912C85.9887 11.876 86.3154 11.9552 86.6015 12.1196C86.8876 12.284 87.1212 12.5267 87.275 12.8195H87.3527V9.91357H88.3924V17.2699H87.3961V16.434H87.3138C87.1482 16.7248 86.9064 16.9646 86.6148 17.1273C86.3232 17.29 85.9928 17.3695 85.6595 17.3571C84.3193 17.3572 83.4727 16.2981 83.4727 14.6222ZM84.5467 14.6222C84.5467 15.7444 85.0734 16.4197 85.9543 16.4197C86.8305 16.4197 87.3721 15.7347 87.3721 14.6268C87.3721 13.5241 86.8249 12.8293 85.9543 12.8293C85.079 12.8293 84.5467 13.5092 84.5467 14.6222Z" fill="black"/>
<path d="M92.6934 14.6222C92.6603 14.2745 92.6999 13.9237 92.8097 13.5922C92.9195 13.2608 93.097 12.9561 93.3309 12.6976C93.5648 12.4391 93.85 12.2326 94.168 12.0913C94.4861 11.95 94.83 11.877 95.1778 11.877C95.5256 11.877 95.8695 11.95 96.1876 12.0913C96.5056 12.2326 96.7908 12.4391 97.0247 12.6976C97.2586 12.9561 97.4362 13.2608 97.5459 13.5922C97.6557 13.9237 97.6953 14.2745 97.6622 14.6222C97.696 14.9703 97.6568 15.3216 97.5473 15.6535C97.4378 15.9855 97.2604 16.2908 97.0264 16.5498C96.7924 16.8088 96.5071 17.0157 96.1887 17.1573C95.8704 17.299 95.526 17.3721 95.1778 17.3721C94.8296 17.3721 94.4852 17.299 94.1669 17.1573C93.8485 17.0157 93.5632 16.8088 93.3292 16.5498C93.0952 16.2908 92.9178 15.9855 92.8083 15.6535C92.6988 15.3216 92.6596 14.9703 92.6934 14.6222ZM96.5928 14.6222C96.5928 13.4753 96.0798 12.8046 95.1795 12.8046C94.2758 12.8046 93.7674 13.4753 93.7674 14.6222C93.7674 15.7783 94.2758 16.4438 95.1795 16.4438C96.0798 16.4438 96.5928 15.7737 96.5928 14.6222Z" fill="black"/>
<path d="M99.0586 11.9789H100.059V12.8194H100.137C100.269 12.5176 100.491 12.2645 100.773 12.0955C101.055 11.9265 101.382 11.8501 101.709 11.8768C101.966 11.8574 102.223 11.8963 102.462 11.9904C102.702 12.0845 102.917 12.2315 103.092 12.4205C103.267 12.6095 103.398 12.8356 103.474 13.0821C103.55 13.3287 103.57 13.5893 103.533 13.8447V17.2698H102.493V14.1069C102.493 13.2566 102.125 12.8338 101.356 12.8338C101.182 12.8256 101.008 12.8554 100.847 12.921C100.685 12.9866 100.54 13.0865 100.42 13.2138C100.301 13.3412 100.21 13.493 100.155 13.6588C100.099 13.8246 100.08 14.0006 100.098 14.1746V17.2699H99.0586V11.9789Z" fill="black"/>
<path d="M109.406 10.6616V12.003H110.548V12.8825H109.406V15.6032C109.406 16.1574 109.634 16.4001 110.151 16.4001C110.284 16.3996 110.416 16.3916 110.548 16.376V17.2457C110.361 17.2793 110.172 17.2971 109.982 17.2991C108.826 17.2991 108.366 16.8906 108.366 15.8705V12.8825H107.529V12.003H108.366V10.6616H109.406Z" fill="black"/>
<path d="M111.969 9.91357H112.999V12.8293H113.082C113.22 12.5246 113.448 12.2701 113.736 12.1005C114.023 11.9309 114.356 11.8544 114.688 11.8815C114.943 11.8675 115.198 11.9103 115.434 12.0067C115.671 12.1031 115.884 12.2508 116.057 12.4392C116.23 12.6276 116.36 12.852 116.437 13.0966C116.514 13.3412 116.536 13.5998 116.502 13.854V17.27H115.461V14.1116C115.461 13.2664 115.07 12.8384 114.335 12.8384C114.156 12.8237 113.977 12.8484 113.808 12.9107C113.64 12.9731 113.487 13.0716 113.361 13.1993C113.235 13.3271 113.138 13.4811 113.077 13.6504C113.016 13.8198 112.993 14.0005 113.008 14.1798V17.2699H111.969L111.969 9.91357Z" fill="black"/>
<path d="M122.565 15.8415C122.424 16.3251 122.118 16.7434 121.7 17.0232C121.283 17.303 120.781 17.4266 120.282 17.3722C119.935 17.3814 119.59 17.3147 119.271 17.1766C118.953 17.0385 118.668 16.8323 118.436 16.5725C118.204 16.3127 118.032 16.0053 117.931 15.6719C117.829 15.3384 117.801 14.9867 117.849 14.6413C117.802 14.2948 117.831 13.9424 117.932 13.6079C118.033 13.2734 118.205 12.9646 118.435 12.7025C118.665 12.4404 118.949 12.2311 119.267 12.0886C119.585 11.9462 119.93 11.8741 120.278 11.877C121.743 11.877 122.628 12.8828 122.628 14.5443V14.9086H118.908V14.9672C118.891 15.1613 118.916 15.3568 118.979 15.5409C119.042 15.7251 119.143 15.894 119.275 16.0367C119.408 16.1794 119.568 16.2928 119.746 16.3697C119.924 16.4465 120.117 16.4851 120.311 16.4829C120.559 16.5129 120.811 16.4679 121.035 16.3537C121.258 16.2395 121.442 16.0612 121.564 15.8415L122.565 15.8415ZM118.908 14.1364H121.569C121.582 13.9588 121.558 13.7805 121.498 13.6128C121.438 13.4451 121.345 13.2917 121.222 13.1627C121.1 13.0336 120.953 12.9316 120.789 12.8632C120.625 12.7949 120.449 12.7617 120.272 12.7658C120.092 12.7635 119.914 12.7974 119.747 12.8655C119.58 12.9336 119.429 13.0344 119.302 13.1622C119.175 13.2899 119.075 13.4419 119.007 13.6092C118.939 13.7766 118.905 13.9558 118.908 14.1364Z" fill="black"/>
</g>
<defs>
<clipPath id="clip0_715_298">
<rect width="140" height="47" fill="white"/>
</clipPath>
</defs>
</svg>
