<svg width="114" height="115" viewBox="0 0 114 115" fill="none" xmlns="http://www.w3.org/2000/svg">
<path d="M69.8636 25.9569C71.0995 26.0682 73.1704 26.1796 74.3952 26.046C75.5754 25.9235 76.4773 25.5895 76.8892 25.3445C76.9894 25.2888 76.9115 25.1218 76.8002 25.1329C76.4884 25.1775 76.0653 25.2888 75.7647 25.3556C74.7737 25.6006 74.3395 25.4892 74.1725 25.2777C74.2282 25.0773 74.6067 24.9548 75.9762 24.643C76.6109 24.4983 77.4793 24.2979 77.5796 24.1865C77.9024 23.5964 76.4995 23.9639 75.8872 24.1531C75.2525 24.3536 74.6067 24.643 74.3618 24.3424C74.2838 24.2422 75.0298 23.8302 76.0542 23.4628C79.7507 22.1267 78.1474 21.8818 76.3993 22.6723C74.8071 23.396 74.1057 23.7412 73.9943 23.6076C74.0166 23.4183 74.3395 23.229 75.4195 22.6612C76.043 22.3383 76.9672 21.6591 77.034 21.4698C77.0674 21.0912 76.4773 21.3585 76.1878 21.5589C76.1544 21.5811 73.1147 23.5185 72.5692 23.0397C72.0125 22.5498 72.9032 22.0488 73.4376 21.7482C73.9832 21.4475 73.9943 20.7461 73.716 20.7238C73.3708 20.6904 73.1148 21.5811 72.1906 22.0042C71.2665 22.4273 69.9192 23.1622 69.6186 23.4072C69.485 23.5185 67.8817 24.476 65.6883 24.9659C65.2874 25.055 64.8421 25.133 64.3633 25.1775C64.3855 26.046 64.3744 26.9256 64.3633 27.8052C66.6347 27.1705 68.7502 26.4022 69.8636 25.9569Z" fill="#FD5E5A"/>
<path d="M100.737 112.414C100.737 113.872 70.2297 116.021 48.017 113.572C25.526 111.089 13 113.149 13 111.69C13 110.231 33.665 109.062 56.2897 109.062C78.9143 109.062 100.737 110.955 100.737 112.414Z" fill="#981B9F" fill-opacity="0.22"/>
<path d="M52.1584 43.9946L47.3262 42.1797L48.0833 44.195L49.7423 48.0251L52.4702 46.4663L52.1584 43.9946Z" fill="#FD5E5A"/>
<path d="M54.6857 42.8809L52.1582 43.9943L52.47 46.6331C52.47 46.6331 54.1846 46.3436 56.4115 45.9428C56.1442 44.7403 55.5987 43.6603 54.6857 42.8809Z" fill="#D2E6FF"/>
<path d="M73.7361 33.2162L74.059 21.2358L62.5685 39.4068L54.6855 42.8807C55.5985 43.6601 55.387 45.2634 56.4113 45.9426C59.7961 48.1806 66.0758 44.0943 66.6437 43.5042C67.5233 42.5801 73.7361 33.2162 73.7361 33.2162Z" fill="#6B91BF"/>
<path d="M81.6203 110.777L74.0156 111.145L78.9703 108.884L79.1485 106.969C79.9167 106.947 80.1172 107.47 80.8965 107.448C81.1415 108.662 81.6203 110.777 81.6203 110.777Z" fill="#432C47"/>
<path d="M91.8195 111.1L84.2148 111.468L89.1696 109.207L89.3477 107.292C90.116 107.27 90.3164 107.793 91.0958 107.771C91.3407 108.985 91.8195 111.1 91.8195 111.1Z" fill="#432C47"/>
<path d="M69.8848 23.5073L67.2571 23.9527C66.9454 25.3667 66.7672 26.7696 66.9676 28.0612L69.7957 26.9812L69.8848 23.5073Z" fill="#81669B"/>
<path d="M67.2672 23.9526C66.1315 22.8169 56.4225 25.8009 56.4225 25.8009L42.8388 20.1113L41.4805 30.6109L55.7434 32.3478C55.7434 32.3478 65.0738 30.3993 66.9777 28.0723C67.6235 27.2706 67.6013 24.2978 67.2672 23.9526Z" fill="#81669B"/>
<path opacity="0.36" d="M43.6753 20.4676L42.8291 20.1113L41.4707 30.6109L44.6439 31.0006C44.065 26.9032 43.7866 22.572 43.6753 20.4676Z" fill="#614D74"/>
<path d="M77.9891 108.06L81.4852 108.35C81.4852 108.35 82.9884 89.3883 81.4852 80.2137C79.9821 71.0391 79.9821 47.3345 79.9821 47.3345L72.834 49.4722C72.834 49.4722 73.7804 77.4858 74.248 79.902C74.7045 82.3292 77.9891 108.06 77.9891 108.06Z" fill="#464F7C"/>
<path d="M87.6877 49.0492C87.6877 49.0492 88.7232 74.257 90.8832 77.3857C93.0432 80.5144 92.03 108.283 92.03 108.283L87.6877 108.049C87.6877 108.049 86.2736 88.9875 85.5277 85.458C84.7705 81.9284 78.8471 60.7512 78.8471 60.7512L78.2793 46.8335L87.6877 49.0492Z" fill="url(#paint0_linear_746_9554)"/>
<path d="M43.1413 20.2451L37.6299 18.0962L29.424 18.5861L24.7031 19.8109C24.7031 19.8109 26.7184 33.8177 27.186 38.7724C27.6537 43.7159 27.6537 47.6797 27.6537 47.6797L28.589 50.8975C33.8777 51.354 37.8971 50.9643 43.2415 51.6101C43.2972 48.7709 43.3195 48.8711 43.3195 48.8711L43.1413 20.2451Z" fill="#BEA0DB"/>
<path opacity="0.36" d="M27.6648 47.6688L28.6001 50.8865C32.241 51.1983 35.2806 51.1092 38.554 51.2428C30.5152 49.5059 32.4637 41.0885 32.4637 41.0885C29.3127 38.8059 24.7031 19.811 24.7031 19.811C24.7031 19.811 26.7184 33.8178 27.186 38.7725C27.6648 43.7161 27.6648 47.6688 27.6648 47.6688Z" fill="#614D74"/>
<path d="M36.7947 16.9604V19.9332L30.8936 19.8998L30.8379 16.5039L36.7947 16.9604Z" fill="#81669B"/>
<path d="M79.6598 18.6305L74.0482 21.2471C74.0482 21.2471 70.5855 46.7889 72.8234 48.6149C73.7364 49.3609 85.6389 51.6879 87.7544 48.6149C88.6228 47.3456 87.9771 41.6894 89.1016 37.4362C90.2262 33.1829 93.2435 22.5164 93.2435 22.5164L85.7836 18.0293L79.6598 18.6305Z" fill="#A5CDFF"/>
<path d="M81.3977 19.4768C81.3643 19.7106 78.5362 40.9324 78.1465 49.2719L78.5139 49.2607C78.9147 40.9324 81.7317 19.7552 81.7651 19.5213L81.3977 19.4768Z" fill="#C4DEFF"/>
<path d="M79.8613 20.2784V17.9068L81.1418 16.8157C81.1418 16.8157 85.4841 16.9716 85.6511 17.172C85.7958 17.3612 85.9072 18.8866 85.9072 18.8866L79.8613 20.2784Z" fill="#6B91BF"/>
<path d="M84.1822 68.3004V65.5614C84.1822 65.5057 84.2268 65.4612 84.2713 65.4612H91.9205C91.9761 65.4612 92.0095 65.5057 92.0095 65.5614V68.3004H93.5238V65.5614C93.5238 64.6372 92.8112 63.8801 91.9205 63.8801H84.2713C83.3917 63.8801 82.668 64.6372 82.668 65.5614V68.3004H84.1822Z" fill="#040037"/>
<path d="M99.702 86.4713H75.6855V70.4937C75.6855 68.9349 76.0975 67.6768 77.6563 67.6768H96.4508C98.2545 67.6768 99.702 69.1353 99.702 70.9279V86.4713Z" fill="#6F4A1D"/>
<path opacity="0.6" d="M96.4731 67.6768H84.8935L84.437 73.0991L75.6855 75.2591V75.5932C78.7697 75.7156 86.675 76.2612 89.247 78.8666C91.3847 81.0378 92.0639 84.4337 92.2866 86.4713H99.7131V70.9613C99.702 69.1465 98.2545 67.6768 96.4731 67.6768Z" fill="#533816"/>
<path d="M79.6493 86.4711H75.6855V71.2729C76.8212 72.3418 78.5136 72.3418 79.6493 71.2729V86.4711Z" fill="#571C1C"/>
<path d="M97.5433 67.6768H77.6465C78.8044 68.2891 79.595 69.5584 79.595 71.017V77.2522H100.338V70.6384C100.349 69.0017 99.0909 67.6768 97.5433 67.6768Z" fill="#8C6E4B"/>
<path d="M23.9004 111.646L31.5162 111.813L26.5058 109.686L26.2831 107.771C25.5148 107.771 25.3256 108.294 24.5462 108.294C24.3235 109.508 23.9004 111.646 23.9004 111.646Z" fill="#432C47"/>
<path d="M34.7344 110.844L42.3502 111.011L37.3398 108.884L37.1171 106.98C36.3488 106.98 36.1595 107.504 35.3802 107.504C35.1575 108.706 34.7344 110.844 34.7344 110.844Z" fill="#432C47"/>
<path d="M83.9234 14.5667C84.0681 14.4776 85.9164 9.89034 85.9164 9.89034C85.9164 9.89034 87.1412 6.44988 86.3506 5.8709C85.5601 5.29192 83.6673 3.2655 82.0195 3.2321C80.3716 3.1987 79.2582 3.6886 79.1134 3.78881C78.9687 3.87788 77.8887 5.69275 77.8887 5.69275C77.8887 5.69275 78.3897 5.08037 78.6458 7.34061C78.9019 9.60085 83.9234 14.5667 83.9234 14.5667Z" fill="#381A3F"/>
<path d="M79.748 14.3662C79.9485 14.9563 79.8594 19.1316 80.0153 20.1782C80.1711 21.2137 84.9143 22.8282 85.0034 19.0537C85.0925 15.2792 84.725 10.8367 84.725 10.8367L79.748 14.3662Z" fill="#FC7575"/>
<path d="M79.748 14.3662L81.3959 13.1971L84.7139 10.8367C84.7139 10.8367 84.7139 10.8367 84.7139 10.8478C84.7139 10.8589 84.7139 10.8923 84.725 10.9369C84.7362 11.0705 84.7584 11.3488 84.7807 11.7274C84.7807 11.8053 84.7918 11.8833 84.7918 11.9724C84.7918 11.9835 84.7918 11.9835 84.7918 11.9835C84.8141 12.2618 84.8252 12.5736 84.8475 12.9188C84.8475 12.941 84.8475 12.9522 84.8475 12.9744C84.8475 13.0524 84.8586 13.1414 84.8586 13.2305C84.8586 13.2751 84.8586 13.3196 84.8698 13.3641V13.3753C84.8698 13.3975 84.8698 13.4087 84.8698 13.4309C84.8698 13.4421 84.8698 13.4421 84.8698 13.4532C84.8698 13.4866 84.8698 13.5089 84.8698 13.5423C84.2574 15.5687 81.9192 17.7621 79.9039 18.0294C79.9039 17.8846 79.8928 17.751 79.8817 17.6063C79.8817 16.1811 79.8594 14.6891 79.748 14.3662Z" fill="#FD5E5A"/>
<path d="M84.9133 7.36279C85.5256 8.87704 85.5479 11.6383 84.1005 13.7204C82.653 15.8136 80.66 16.8825 79.2237 15.8359C77.7874 14.7782 77.3866 8.17559 78.422 6.47206C79.4575 4.77966 83.9891 5.06915 84.9133 7.36279Z" fill="#FC7575"/>
<path d="M84.9146 13.7093C84.9146 13.7093 85.2375 11.5493 86.0614 11.0149C86.8965 10.4916 87.2639 10.1687 87.4198 9.40041C87.5645 8.63216 90.3369 8.13112 89.8804 6.87295C89.4239 5.61479 87.2639 5.02468 86.1616 2.84238C85.0593 0.660082 83.868 -0.553543 81.3071 0.248117C78.7351 1.06091 78.3788 2.6197 78.3788 2.6197C78.3788 2.6197 77.2431 2.41928 76.5528 3.77765C75.8625 5.13602 76.3524 5.90428 76.7978 6.53893C76.7978 6.53893 76.6975 4.74633 77.3211 4.8688C77.9334 4.99128 77.3211 6.96203 77.3211 6.96203C77.3211 6.96203 78.2452 6.2049 79.225 5.03582C80.2048 3.86673 79.971 5.23623 79.6704 6.71708C79.3809 8.19792 81.5632 6.80615 82.5319 5.73727C83.5005 4.66839 84.8812 5.67046 85.3933 7.18471C85.8944 8.71009 83.7121 11.0928 84.9146 13.7093Z" fill="#653870"/>
<path d="M84.4353 9.73446C84.4353 9.73446 85.3372 8.18681 85.816 8.85486C86.2836 9.52291 85.8939 11.5382 84.903 11.5493C83.9009 11.5827 84.4353 9.73446 84.4353 9.73446Z" fill="#FC7575"/>
<path d="M84.9479 9.84588C84.9479 9.84588 84.9145 8.95515 85.4044 9.24464C85.8943 9.54526 85.4044 10.9816 84.9479 10.9482C84.5026 10.9259 84.9479 9.84588 84.9479 9.84588Z" fill="#FD5E5A"/>
<path d="M79.8157 9.43384C79.6376 9.8458 79.5262 10.2689 79.4483 10.7143C79.3035 11.6607 79.4594 12.0726 79.4594 12.1283C79.5708 12.106 79.8602 12.0615 80.2499 11.9613C80.005 11.9502 79.7489 11.9613 79.504 11.9724L79.5819 12.0392C79.5485 11.1819 79.7155 10.3134 79.8157 9.43384Z" fill="#172866"/>
<path d="M81.0389 9.66749C80.9832 9.93471 81.1057 10.1908 81.295 10.2242C81.4954 10.2687 81.6958 10.0795 81.7515 9.81224C81.8072 9.54502 81.6847 9.28893 81.4954 9.25553C81.295 9.21099 81.0834 9.40027 81.0389 9.66749Z" fill="#2F499F"/>
<path d="M78.3221 9.27809C78.2664 9.54531 78.3889 9.80139 78.5782 9.8348C78.7786 9.87933 78.979 9.69005 79.0347 9.42283C79.0904 9.15561 78.9679 8.89953 78.7786 8.86612C78.5782 8.82159 78.3778 9.01087 78.3221 9.27809Z" fill="#2F499F"/>
<path d="M82.5766 8.98845C82.5766 8.98845 82.1646 8.25359 81.4631 8.11998C80.7728 7.97524 80.9732 8.56535 81.1403 8.59875C81.3073 8.62102 82.61 8.8437 82.5766 8.98845Z" fill="#172866"/>
<path d="M79.2708 7.77466C79.2708 7.77466 78.4469 8.01961 78.291 8.39817C78.291 8.39817 79.1595 8.33137 79.3154 8.11982C79.4712 7.9194 79.2708 7.77466 79.2708 7.77466Z" fill="#172866"/>
<path d="M81.9981 13.1194C81.9981 13.1194 79.8714 13.921 78.7246 13.1528C78.7246 13.1528 79.0475 14.2217 79.337 14.411C79.9605 14.8118 81.4748 14.5112 81.9981 13.1194Z" fill="white"/>
<path d="M96.3174 27.9055C95.5603 24.9327 93.2444 22.5166 93.2444 22.5166L90.2493 33.2388L91.9083 45.4196C91.9083 45.4196 90.8616 51.7995 89.9375 56.1752C91.14 56.1864 92.3536 57.2664 93.467 56.8433C97.7203 55.2288 97.0745 46.2324 97.0745 46.2324C97.0745 46.2324 97.0745 30.8672 96.3174 27.9055Z" fill="#D2E6FF"/>
<path d="M25.5927 80.0801C25.5927 80.0801 24.624 88.1301 24.123 93.931C23.622 99.7319 23.6776 108.517 23.6776 108.517L27.6414 108.762C27.6414 108.762 29.2224 89.7779 31.2043 84.3333L36.4263 61.4303L35.0122 108.005L39.1764 107.871C39.1764 107.871 43.1179 59.1478 43.2738 51.5988C37.9405 50.953 33.9099 51.3316 28.6212 50.8862L25.5927 80.0801Z" fill="url(#paint1_linear_746_9554)"/>
<path d="M82.5879 19.8554L82.677 22.6279L87.6539 18.9536L85.6609 17.1944C85.6498 17.1832 84.3137 19.4212 82.5879 19.8554Z" fill="#D2E6FF"/>
<path d="M80.6171 19.6882C80.6171 19.6882 81.1293 20.4231 82.5878 19.8552L82.6546 21.826L79.8711 21.581L80.6171 19.6882Z" fill="#6B91BF"/>
<path d="M80.5297 19.6882L80.4629 21.8371L82.0105 21.9819L82.5895 19.8553C82.5895 19.8553 81.2534 19.5435 80.5297 19.6882Z" fill="#F7931E"/>
<path d="M79.5818 22.3271L80.6173 19.6883C79.8601 19.0871 79.8601 17.918 79.8601 17.918L78.3125 19.2095L79.5818 22.3271Z" fill="#D2E6FF"/>
<path d="M87.7552 48.604H72.8242V50.3632H87.7552V48.604Z" fill="#2B1B09"/>
<path d="M90.3705 79.1894H89.3239C89.0455 79.1894 88.834 78.9667 88.834 78.6995V75.5708H90.8715V78.6995C90.8604 78.9667 90.6377 79.1894 90.3705 79.1894Z" fill="#F7931E"/>
<path d="M90.6611 76.0273H89.0801V76.9849H90.6611V76.0273Z" fill="#FFBA00"/>
<path d="M90.7833 75.3705H88.8125V74.3907C88.8125 73.8451 89.2579 73.4109 89.7923 73.4109C90.3379 73.4109 90.7721 73.8563 90.7721 74.3907V75.3705H90.7833Z" fill="#6F4A1D"/>
<path d="M79.1584 48.604H75.7402V50.3632H79.1584V48.604Z" fill="#B8A9C5"/>
<path d="M80.452 21.8374L81.9996 21.9821L80.953 44.9297L78.5258 48.9269L76.9336 44.7627L80.452 21.8374Z" fill="#F7931E"/>
<path d="M82.5895 19.8555L82.0105 21.9821L80.4629 21.8374C80.4629 21.8374 81.5652 21.8596 81.7656 21.6481C81.966 21.4477 82.5895 19.8555 82.5895 19.8555Z" fill="#C16D00"/>
<path d="M76.9336 44.7627L80.452 21.8374L77.4903 44.206L78.5258 48.9269L76.9336 44.7627Z" fill="#FABE78"/>
<path d="M88.8791 60.8959C89.1018 60.3949 89.3913 59.3594 89.7142 58.1235C90.6494 58.1681 91.6627 58.2683 92.442 58.7693C92.3307 59.0588 91.4066 61.5306 91.3843 61.8201C91.1282 67.8882 90.4156 66.0622 89.3356 66.463C88.9571 66.5966 88.3781 66.4408 88.2111 66.2403C88.0329 66.0399 86.9084 66.1513 86.9195 66.0288C86.9195 65.9175 86.4964 65.0824 86.9863 64.4255C87.4762 63.7686 85.6947 65.0713 85.717 64.548C85.7393 63.969 88.4449 61.898 88.8791 60.8959Z" fill="#FD5E5A"/>
<path d="M89.0117 59.7715C90.1919 59.7158 91.272 60.061 92.3186 60.5731C92.4522 60.0053 92.8975 58.5801 93.4654 56.8543C92.441 56.2531 91.1383 56.1863 89.9359 56.1863C89.5907 57.7785 89.2678 59.1146 89.0117 59.7715Z" fill="#D2E6FF"/>
<path d="M32.6521 14.322C32.5074 14.2329 30.7816 9.91283 30.7816 9.91283C30.7816 9.91283 29.6236 6.67278 30.3696 6.1272C31.1156 5.58163 32.8971 3.67768 34.4559 3.64428C36.0147 3.61088 37.0613 4.07852 37.1949 4.16759C37.3396 4.25666 38.3417 5.96019 38.3417 5.96019C38.3417 5.96019 37.8741 5.38121 37.6291 7.51898C37.3953 9.63447 32.6521 14.322 32.6521 14.322Z" fill="#381A3F"/>
<path d="M36.5803 14.1215C36.3911 14.6782 36.4801 18.6086 36.3242 19.5995C36.1795 20.5793 31.7147 22.0936 31.6256 18.5306C31.5366 14.9677 31.8928 10.7812 31.8928 10.7812L36.5803 14.1215Z" fill="#FC7575"/>
<path d="M36.5797 14.1214L35.0209 13.0191L31.8922 10.7922C31.8922 10.8034 31.8922 10.8368 31.8811 10.8702C31.8699 11.0038 31.8477 11.2599 31.8254 11.6162C31.8254 11.683 31.8143 11.7609 31.8143 11.85V11.8611C31.792 12.1172 31.7809 12.4178 31.7586 12.7407C31.7586 12.763 31.7586 12.7741 31.7586 12.7964C31.7586 12.8743 31.7475 12.9523 31.7475 13.0302C31.7475 13.0747 31.7475 13.1193 31.7363 13.1527V13.1638C31.7363 13.175 31.7363 13.1972 31.7363 13.2084C31.7363 13.2195 31.7363 13.2195 31.7363 13.2306C31.7363 13.264 31.7363 13.2863 31.7363 13.3197C32.3153 15.2236 34.5199 17.2946 36.4238 17.5507C36.4238 17.4171 36.435 17.2835 36.4461 17.1499C36.4572 15.836 36.4795 14.4331 36.5797 14.1214Z" fill="#FD5E5A"/>
<path d="M31.7255 7.53005C31.1576 8.95523 31.1242 11.5606 32.4826 13.5202C33.841 15.491 35.7338 16.5042 37.081 15.5133C38.4283 14.5223 38.818 8.28718 37.8382 6.68385C36.8583 5.09167 32.594 5.35889 31.7255 7.53005Z" fill="#FC7575"/>
<path d="M31.7266 13.5091C31.7266 13.5091 31.426 11.4716 30.6466 10.9705C29.8672 10.4695 29.5109 10.1689 29.3661 9.4563C29.2214 8.73258 27.8407 7.74164 28.2638 6.56141C28.6869 5.38119 29.5109 5.33665 30.5464 3.27683C31.5818 1.21701 32.7064 0.0813197 35.1225 0.82731C37.5386 1.5733 37.8838 3.05415 37.8838 3.05415C37.8838 3.05415 38.8413 2.93167 39.6096 4.1453C41.1127 6.55028 35.9576 7.98659 33.9645 6.0047C33.007 5.04716 31.7488 5.9379 31.2701 7.36307C30.7913 8.78825 32.8511 11.0374 31.7266 13.5091Z" fill="#653870"/>
<path d="M32.1725 9.76808C32.1725 9.76808 31.3152 8.3095 30.8698 8.94415C30.4244 9.5788 30.7918 11.4716 31.7383 11.4939C32.6847 11.505 32.1725 9.76808 32.1725 9.76808Z" fill="#FC7575"/>
<path d="M31.6931 9.86818C31.6931 9.86818 31.7265 9.02198 31.27 9.30034C30.8135 9.57869 31.27 10.9371 31.6931 10.9037C32.1162 10.8925 31.6931 9.86818 31.6931 9.86818Z" fill="#FD5E5A"/>
<path d="M36.5252 9.47876C36.6923 9.86846 36.8036 10.2693 36.8704 10.6813C37.004 11.572 36.8593 11.9617 36.8593 12.0174C36.7591 11.9951 36.4807 11.9617 36.1133 11.8615C36.3471 11.8503 36.5809 11.8615 36.8147 11.8726L36.7368 11.9283C36.7702 11.1155 36.6143 10.3138 36.5252 9.47876Z" fill="#172866"/>
<path d="M35.3778 9.70122C35.4223 9.9573 35.3221 10.1911 35.1328 10.2245C34.9435 10.2579 34.7542 10.0909 34.7097 9.83483C34.6652 9.57874 34.7654 9.34492 34.9547 9.31152C35.1328 9.26698 35.3221 9.44513 35.3778 9.70122Z" fill="#2F499F"/>
<path d="M37.9285 9.33364C37.9731 9.58972 37.8729 9.82354 37.6836 9.85694C37.4943 9.89034 37.305 9.72333 37.2605 9.46725C37.216 9.21116 37.3162 8.97734 37.5054 8.94394C37.6947 8.91054 37.884 9.07755 37.9285 9.33364Z" fill="#2F499F"/>
<path d="M33.9202 9.05555C33.9202 9.05555 34.3099 8.36523 34.9668 8.23162C35.6238 8.09801 35.4233 8.65472 35.2675 8.67698C35.1227 8.71039 33.898 8.92194 33.9202 9.05555Z" fill="#172866"/>
<path d="M37.0385 7.91968C37.0385 7.91968 37.8179 8.1535 37.9626 8.50979C37.9626 8.50979 37.1387 8.44298 36.994 8.2537C36.8492 8.05329 37.0385 7.91968 37.0385 7.91968Z" fill="#172866"/>
<path d="M34.2988 13.0081C35.0003 13.498 36.1026 13.9545 36.9376 13.7986C36.2584 14.4332 34.8667 13.7095 34.2988 13.0081Z" fill="white"/>
<path d="M28.5983 50.8862L43.2508 51.1423L43.184 53.4694L28.3867 53.0017L28.5983 50.8862Z" fill="#2D2828"/>
<path d="M83.312 48.604H82.8555V50.3632H83.312V48.604Z" fill="#464F7C"/>
<path d="M86.3081 48.604H85.8516V50.3632H86.3081V48.604Z" fill="#464F7C"/>
<path d="M38.9432 53.2802L35.4805 53.2245L35.5584 51.0422L39.0211 51.1202L38.9432 53.2802Z" fill="#6B7296"/>
<path d="M36.6484 51.2983C36.7152 51.2983 38.8196 51.3874 38.8196 51.3874L38.6192 53.1355L38.5969 51.5878L36.6484 51.2983Z" fill="#9095B0"/>
<path d="M32.4727 21.5145L34.5993 22.5166H36.3028L37.5832 21.5145L36.4364 19.4993H33.909L33.2632 19.1875L32.4727 21.5145Z" fill="#81669B"/>
<path d="M33.9102 19.4993H36.4376L36.304 22.5166H34.6005L33.9102 19.4993Z" fill="#C13665"/>
<path d="M32.5617 22.5164L34.5547 19.499L30.8359 16.5039L29.4219 18.586L32.5617 22.5164Z" fill="#DECFED"/>
<path d="M37.6965 22.294L36.1934 19.4993L36.7946 16.9607L38.9769 18.5417L37.6965 22.294Z" fill="#DECFED"/>
<path d="M34.6016 22.5166C34.6016 23.708 34.6906 48.103 34.6906 48.103L37.5855 51.5991L39.2445 47.9137L36.3051 22.5166H34.6016Z" fill="#CF3A6C"/>
<path d="M34.6016 22.5166L34.6906 48.103L37.5855 51.5991L35.3921 47.9248L34.6016 22.5166Z" fill="#A62E56"/>
<path d="M39.6338 44.0947C36.1934 42.1907 32.0292 38.9841 32.0292 38.9841L24.7029 19.811C24.7029 19.811 21.9082 23.0511 21.9082 27.3043C21.9082 31.5576 26.9297 44.3842 27.6089 45.1079C28.0097 45.531 34.8684 48.9269 39.2441 47.9137C39.066 46.611 39.155 45.4419 39.6338 44.0947Z" fill="#DECFED"/>
<path d="M32.2966 38.7837C30.3259 33.3613 26.9856 24.7769 24.7031 19.811C26.7073 26.2911 29.9139 34.4191 31.7622 39.1845C31.8067 39.2068 36.1602 42.4357 39.6229 44.0947C38.9883 43.6716 34.5346 40.5429 32.2966 38.7837Z" fill="#EBE2F4"/>
<path d="M42.5504 44.8072C41.8044 44.6291 40.7689 44.373 39.6221 44.0835C39.1433 45.4307 39.0654 46.611 39.2324 47.9137C40.3124 47.9248 41.3479 47.9248 42.2498 47.9248C42.1496 46.9116 42.1718 45.8872 42.5504 44.8072Z" fill="#DECFED"/>
<path d="M48.4503 44.2058C48.4503 44.2058 44.776 45.2302 43.6069 45.0409C43.4399 45.0186 43.0614 44.9295 42.5492 44.8071C42.1595 45.8871 42.1484 46.9114 42.2486 47.9246C43.9076 47.9246 45.1212 47.9135 45.3439 47.9135C46.1901 47.9135 48.4058 49.4277 49.174 49.4277C49.9534 49.4277 50.421 48.6372 50.421 48.6372C50.421 48.6372 51.1225 47.9914 51.3675 47.4459C51.6013 46.9003 51.8128 47.0005 51.8128 46.4326C51.824 45.8648 48.4503 44.2058 48.4503 44.2058Z" fill="#FC7575"/>
<path d="M47.3256 42.1797C47.3256 42.1797 45.8224 45.1525 46.1008 45.442C46.3791 45.7426 48.1606 44.284 48.1606 44.284L47.3256 42.1797Z" fill="#FD5E5A"/>
<path d="M45.3555 48.1138C45.3555 48.1138 47.304 46.4993 47.6157 46.8222C47.9275 47.1563 46.9254 48.1138 46.9254 48.1138C46.9254 48.1138 48.0277 47.2119 48.2726 47.3233C48.5176 47.4346 47.6268 48.5369 47.6268 48.5369C47.6268 48.5369 48.6735 47.5348 49.0297 47.6573C49.386 47.7798 48.5732 49.2606 48.5732 49.2606C48.5732 49.2606 45.4779 49.3052 45.3555 48.1138Z" fill="#FD5E5A"/>
<path opacity="0.24" d="M80.4512 69.0685V76.4949C80.4512 76.4949 87.1094 77.1073 86.8756 76.4949C86.6418 75.8826 81.7539 75.1254 81.7539 72.9209C81.7539 70.7163 81.2528 68.8012 80.4512 69.0685Z" fill="#8C6E4B"/>
<path d="M67.4919 21.4255C67.4696 21.4255 67.4473 21.4255 67.425 21.4144C67.3248 21.381 67.2803 21.2696 67.3137 21.1806C68.249 18.642 73.7604 17.0832 73.9942 17.0164C74.0944 16.9941 74.1946 17.0498 74.2169 17.1389C74.2392 17.2391 74.1835 17.3393 74.0944 17.3615C74.0387 17.3727 68.5273 18.9315 67.6589 21.303C67.6366 21.381 67.5698 21.4255 67.4919 21.4255Z" fill="#58307D"/>
<path d="M26.7188 12.5069C26.6742 12.5069 26.6297 12.4846 26.5851 12.4512C23.0222 8.8883 24.4585 1.95171 24.5142 1.66222C24.5365 1.56201 24.6367 1.49521 24.7257 1.51747C24.8259 1.53974 24.8927 1.63995 24.8705 1.72902C24.8593 1.79583 23.423 8.76583 26.8412 12.184C26.908 12.2508 26.908 12.3733 26.8412 12.4401C26.819 12.4846 26.7744 12.5069 26.7188 12.5069Z" fill="#58307D"/>
<path d="M100.348 28.2508C100.259 28.2508 100.181 28.184 100.17 28.0838C99.4348 21.8375 94.0235 19.3657 93.9679 19.3434C93.8788 19.2989 93.8343 19.1987 93.8788 19.0985C93.9233 19.0094 94.0235 18.9649 94.1238 19.0094C94.1794 19.0317 99.7799 21.5814 100.548 28.0392C100.559 28.1394 100.493 28.2285 100.392 28.2397C100.359 28.2508 100.348 28.2508 100.348 28.2508Z" fill="#58307D"/>
<path d="M98.2994 19.6666C98.2214 19.6666 98.1546 19.6221 98.1212 19.5441C97.4309 17.4398 92.4428 16.1037 92.3983 16.0814C92.298 16.0591 92.2424 15.9589 92.2646 15.8587C92.2869 15.7585 92.3871 15.7028 92.4873 15.7251C92.6989 15.7808 97.7093 17.1391 98.4664 19.4216C98.4998 19.5218 98.4441 19.6221 98.355 19.6555C98.3439 19.6555 98.3216 19.6666 98.2994 19.6666Z" fill="#58307D"/>
<defs>
<linearGradient id="paint0_linear_746_9554" x1="82.5078" y1="49.6215" x2="94.899" y2="135.63" gradientUnits="userSpaceOnUse">
<stop stop-color="#535A7D"/>
<stop offset="1" stop-color="#8791C1"/>
</linearGradient>
<linearGradient id="paint1_linear_746_9554" x1="33.2161" y1="53.2754" x2="33.7038" y2="106.686" gradientUnits="userSpaceOnUse">
<stop stop-color="#290051"/>
<stop offset="1" stop-color="#330065"/>
</linearGradient>
</defs>
</svg>
