<svg width="114" height="114" viewBox="0 0 114 114" fill="none" xmlns="http://www.w3.org/2000/svg">
<path d="M45.0192 74.7821C45.0192 74.7821 39.2724 73.9411 38.0109 73.3805C36.7495 72.82 34.7871 73.1001 33.1052 73.9411C31.4232 74.7821 27.6388 75.623 28.3394 77.0245C29.0403 78.4261 45.0189 77.8655 45.0189 77.8655V74.7821H45.0192Z" fill="#F9D5BF"/>
<path d="M112.244 114H57.5684L58.7017 90.3779C58.7017 90.3779 64.7396 44.1865 67.3622 41.5606C69.9878 38.935 87.3117 36.0493 98.595 38.6748C99.8672 38.9697 100.992 39.3485 101.99 39.8054C109.832 43.3823 109.679 51.6382 110.144 60.721C110.671 70.9576 112.244 114 112.244 114Z" fill="#6B8BD1"/>
<path d="M112.246 114H97.8195C97.5274 113.901 97.3684 113.847 97.3684 113.847C97.3684 113.847 92.7562 55.0563 101.992 39.8057C109.834 43.3826 109.681 51.6385 110.147 60.7212C110.673 70.9576 112.246 114 112.246 114Z" fill="#5074B5"/>
<path d="M83.3762 110.852C75.2393 110.325 51.3555 106.126 51.3555 106.126L57.9172 85.9172L80.1919 84.7067L91.7737 84.0784L92.8249 83.8179C92.8249 83.8179 94.2899 87.8174 95.2277 92.8712C95.6078 94.9093 95.8989 97.1159 95.9725 99.3042C96.236 106.914 91.5102 111.376 83.3762 110.852Z" fill="#F7C272"/>
<path opacity="0.25" d="M95.2278 92.8717C89.4905 91.8297 78.0405 89.5955 67.8379 86.6901L80.192 84.7071L91.7738 84.0789L92.825 83.8184C92.825 83.8184 94.29 87.8176 95.2278 92.8717Z" fill="#C4832C"/>
<path d="M99.5732 79.7021C99.0439 80.8241 96.6439 81.2348 93.5411 81.2461C93.4777 83.4641 93.4225 85.0688 93.3851 85.6907C93.1856 89.0824 67.8371 86.6882 67.8371 86.6882C67.8371 86.6882 67.4381 84.1206 66.9321 80.6041C58.4362 80.4769 43.1973 79.9678 43.1973 79.9678L43.7581 74.222L60.8507 72.1168C60.8507 72.1168 61.9785 66.7933 62.681 63.5691C63.3807 60.345 66.4632 50.5334 68.4268 47.8704C69.4792 46.4389 70.9801 45.2911 72.1425 44.5363C74.1729 43.3851 78.7986 41.0023 85.6003 41.7776C87.9828 42.0492 89.6022 42.6278 90.7359 43.1163C93.9361 44.7866 97.1064 47.7285 99.1738 54.1511C100.846 59.3419 101.17 76.3072 99.5732 79.7021Z" fill="#FCA695"/>
<path d="M64.9219 63.7091C71.7251 65.4143 86.0244 63.0784 86.0244 63.0784C86.0244 63.0784 86.6655 65.8964 87.2224 67.5477C87.7793 69.199 89.1618 70.9539 87.6643 71.2058C86.1669 71.4581 74.8735 71.8387 74.8735 71.8387L75.047 73.0502L66.2452 69.6097L64.9219 63.7091Z" fill="#ED8574"/>
<path d="M75.2259 43.0574C75.2259 43.0574 73.9488 46.7161 74.8725 49.5795L78.1423 46.7897L80.4961 50.7543C80.4961 50.7543 86.3354 45.9374 87.4167 42.0684C87.4167 42.0684 83.5397 39.5452 75.2259 43.0574Z" fill="white"/>
<path d="M66.932 80.6044L66.2461 76.9031" stroke="#588760" stroke-miterlimit="10"/>
<path d="M85.0337 9.04456C85.6519 8.57933 86.3982 8.3084 87.1564 8.15394C90.1501 7.54313 93.4116 8.79172 95.3421 11.1596C97.2729 13.5274 97.8512 16.8904 96.9594 19.8126C96.5171 21.2617 95.75 22.586 95.1174 23.9627C94.4849 25.3394 93.9758 26.831 94.1033 28.3407C94.2311 29.8504 95.1294 31.3757 96.5668 31.8545C94.8903 32.4135 92.9019 31.8704 91.7425 30.5369C91.7312 31.1618 91.8617 31.7892 92.1216 32.3577C90.7526 31.8253 89.6499 30.6497 89.2055 29.2497C88.4053 26.7271 89.706 23.9587 89.1871 21.3637C88.873 19.7915 87.8637 18.3713 86.4824 17.5576C84.9672 16.6648 82.942 16.2229 82.9512 14.1667C82.9598 12.3554 83.5274 10.1782 85.0337 9.04456Z" fill="#5A2402"/>
<path d="M65.501 24.7066C65.4266 23.9505 65.418 23.1812 65.5721 22.4374C65.9706 20.517 67.4021 18.9764 68.9486 17.7698C72.3576 15.1102 76.9136 13.564 81.0738 14.7424C83.5244 15.4363 85.6988 17.0618 87.058 19.2154C88.4173 21.369 88.949 24.0314 88.5212 26.5421C88.3551 27.5167 88.051 28.4637 87.6839 29.3813C86.8447 31.4779 85.6682 33.439 84.2133 35.166C83.745 35.722 83.2283 36.2684 82.5639 36.5633C81.8571 36.8768 81.0538 36.8747 80.2828 36.8216C76.4377 36.5578 72.6794 35.1385 69.6195 32.7948C67.1434 30.899 65.8017 27.7674 65.501 24.7066Z" fill="#5A2402"/>
<path d="M84.1082 42.5197C84.1082 42.5197 81.8069 44.8768 78.8234 45.1474C78.013 45.221 77.3133 44.5559 77.3624 43.7441C77.4004 43.1087 77.3547 42.4412 77.279 41.8421C77.1347 40.7188 76.8867 39.8313 76.8867 39.8313L82.7469 34.7241L83.0356 36.3681C83.0356 36.3681 83.0356 36.3681 83.0356 36.3711L84.1082 42.5197Z" fill="#F9D5BF"/>
<path d="M83.0356 36.368C83.0356 36.368 83.0356 36.368 83.0356 36.3711C82.3892 37.5758 80.413 40.807 77.279 41.8423C77.1347 40.7191 76.8867 39.8315 76.8867 39.8315L82.7469 34.7244L83.0356 36.368Z" fill="#FCA695"/>
<path d="M67.1219 26.5064C66.8994 28.8307 66.6705 37.143 71.6642 40.6001C75.5565 43.2946 81.8822 38.6794 83.4017 34.8208C85.3331 29.9156 85.1612 21.5991 79.754 20.0397C73.1794 18.1438 67.7376 20.0713 67.1219 26.5064Z" fill="#F9D5BF"/>
<path d="M70.2442 30.6338C70.626 30.6338 70.9356 30.2211 70.9356 29.7119C70.9356 29.2028 70.626 28.79 70.2442 28.79C69.8623 28.79 69.5527 29.2028 69.5527 29.7119C69.5527 30.2211 69.8623 30.6338 70.2442 30.6338Z" fill="#5A2402"/>
<path d="M66.837 26.174C66.0711 23.6361 67.1824 20.757 69.207 19.046C71.2316 17.3349 74.0129 16.6978 76.6562 16.8942C77.5545 16.961 78.4632 17.1228 79.2576 17.547C80.4789 18.1992 83.9798 19.5682 84.5787 20.8165C86.4957 24.812 86.1292 30.5073 81.6917 33.474C80.6739 32.7737 80.4664 31.3636 80.5102 30.1288C80.5543 28.894 80.7431 27.5875 80.1994 26.4784C80.2206 26.5213 78.2374 26.5017 78.0388 26.4633C77.2977 26.3196 76.5851 26.0364 75.9394 25.6469C74.6243 24.8537 73.7297 23.6726 73.1897 22.2585C72.566 24.8455 69.3253 26.4998 66.837 26.174Z" fill="#5A2402"/>
<path d="M77.1035 29.9424C77.1035 30.4514 76.794 30.8643 76.4121 30.8643C76.0302 30.8643 75.7207 30.4514 75.7207 29.9424C75.7207 29.4333 76.0302 29.0205 76.4121 29.0205C76.794 29.0205 77.1035 29.4333 77.1035 29.9424Z" fill="#5A2402"/>
<path d="M82.0579 30.9796C82.0579 30.9796 83.0375 29.1358 84.5355 29.7696C85.846 30.324 85.6302 31.671 85.2269 32.7081C84.8236 33.7452 83.6136 34.7823 82.7494 34.7247C81.8851 34.6671 81.0208 33.5727 82.0579 30.9796Z" fill="#F9D5BF"/>
<path d="M82.3458 33.1116C82.3458 33.1116 83.7863 33.7454 84.132 31.7288C84.3625 30.634 83.4406 30.634 83.4406 30.634C83.4406 30.634 82.2882 31.498 82.3458 33.1116Z" fill="#FCA695"/>
<path d="M71.1087 25.448C70.0422 25.2111 69.1111 25.5633 68.9576 26.0242C68.804 26.4851 69.265 26.9078 69.8411 26.7156C70.4173 26.5234 70.9935 27.0613 71.4544 26.8692C71.9154 26.677 72.1462 25.6785 71.1087 25.448Z" fill="#5A2402"/>
<path d="M75.964 25.7551C77.0305 25.5182 77.9616 25.8704 78.1151 26.3313C78.2687 26.7923 77.8078 27.2149 77.2316 27.0227C76.6554 26.8306 76.0792 27.3684 75.6183 27.1763C75.1573 26.9844 74.9269 25.9856 75.964 25.7551Z" fill="#5A2402"/>
<path d="M82.5768 33.5149C82.0197 32.9963 82.4582 31.1682 83.4411 30.634C84.3247 30.1538 84.7087 31.383 84.7087 31.383" stroke="#DB7665" stroke-miterlimit="10" stroke-linecap="round"/>
<path d="M82.6328 31.5366C82.6328 31.5366 83.6316 31.4214 83.7469 32.3432" stroke="#DB7665" stroke-miterlimit="10" stroke-linecap="round"/>
<path d="M71.6251 29.3904C71.9346 30.794 71.698 32.3111 70.9753 33.5539C70.9278 33.6354 70.8767 33.7234 70.8858 33.8174C70.8996 33.9572 71.0385 34.0473 71.1669 34.1043C71.8568 34.4096 72.6938 34.3575 73.3404 33.9695" stroke="#DB7665" stroke-miterlimit="10" stroke-linecap="round"/>
<path d="M72.1855 36.3304C73.8157 36.3994 75.5179 35.7405 76.4833 34.425" stroke="#DB7665" stroke-miterlimit="10" stroke-linecap="round"/>
<path d="M83.8973 15.0974C83.4115 14.7744 82.7857 14.4434 82.2816 14.737C82.1302 14.8252 82.002 14.9984 82.052 15.1663C82.0784 15.2552 82.1485 15.323 82.2166 15.3858C83.2246 16.3202 84.3236 17.156 85.4931 17.8777C85.5949 17.9406 85.7034 18.0043 85.8226 18.0071C86.0417 18.012 86.2183 17.7987 86.2443 17.5811C86.2704 17.3635 86.183 17.1486 86.0822 16.954C85.5915 16.0052 84.7242 15.2574 83.7134 14.912" fill="#7F3F98"/>
<path d="M75.047 73.0501L71.79 71.5585C71.79 71.5585 67.0381 68.9231 65.6409 69.1226C64.2436 69.3221 62.048 71.1187 60.8503 72.1166C59.6526 73.1145 56.8581 76.5078 58.6547 77.1066C60.451 77.7055 62.4471 78.5039 64.2436 77.7055C66.0402 76.9071 68.4353 76.3083 71.03 76.9071C73.6249 77.506 75.2909 77.4429 75.2909 77.4429L75.047 73.0501Z" fill="#F9D5BF"/>
<path d="M75.3476 79.4004L74.875 71.8383C74.875 71.8383 83.0046 71.6983 85.1071 71.5579C87.2095 71.4179 88.471 70.9974 88.471 70.9974C88.471 70.9974 81.7432 55.299 87.63 47.5898" stroke="#BC5648" stroke-miterlimit="10" stroke-linecap="round"/>
<path d="M88.4707 70.9978C91.507 71.7094 93.5417 73.5765 93.5417 73.5765" stroke="#BC5648" stroke-miterlimit="10" stroke-linecap="round"/>
<path d="M71.5096 46.1887C71.5096 46.1887 68.5662 52.6364 67.8653 54.8789C67.1644 57.1217 64.9219 61.747 64.9219 63.7091C64.9219 65.6715 66.1833 68.755 66.1833 68.755" stroke="#BC5648" stroke-miterlimit="10" stroke-linecap="round"/>
<path d="M77.1113 40.8118C80.4017 39.8832 82.6328 36.2673 82.6328 36.2673" stroke="#DB7665" stroke-miterlimit="10" stroke-linecap="round"/>
<path d="M88.6656 87.3372C93.7516 107.128 90.8974 111.759 53.2188 102.901" stroke="#A36B28" stroke-miterlimit="10" stroke-linecap="round"/>
<path d="M48.8134 77.3386H47.0625V78.1557H48.8134V77.3386Z" fill="#6489B5"/>
<path d="M51.0185 77.3386H49.2676V78.1557H51.0185V77.3386Z" fill="#6489B5"/>
<path d="M53.2213 77.3386H51.4707V78.1557H53.2213V77.3386Z" fill="#6489B5"/>
<path d="M55.4267 77.3386H53.6758V78.1557H55.4267V77.3386Z" fill="#6489B5"/>
<path d="M57.6337 77.3386H55.8828V78.1557H57.6337V77.3386Z" fill="#6489B5"/>
<path d="M59.8368 77.3386H58.0859V78.1557H59.8368V77.3386Z" fill="#6489B5"/>
<path d="M62.0419 77.3386H60.291V78.1557H62.0419V77.3386Z" fill="#6489B5"/>
<path d="M64.2467 77.3386H62.4961V78.1557H64.2467V77.3386Z" fill="#6489B5"/>
<path d="M66.4501 77.3386H64.6992V78.1557H66.4501V77.3386Z" fill="#6489B5"/>
<path d="M68.6552 77.3386H66.9043V78.1557H68.6552V77.3386Z" fill="#6489B5"/>
<path d="M70.8603 77.3386H69.1094V78.1557H70.8603V77.3386Z" fill="#6489B5"/>
<path d="M92.703 79.3765H0V81.9515H92.703V79.3765Z" fill="#E28F81"/>
<path d="M64.9849 79.3765H0V81.9515H64.9849V79.3765Z" fill="#EF9C8E"/>
<path d="M88.0228 81.9517H4.68359V113.848H88.0228V81.9517Z" fill="#E28F81"/>
<path d="M66.2497 81.9517H4.68359V113.848H66.2497V81.9517Z" fill="#D18075"/>
<path d="M48.6507 91.6077H17.5625V97.8996H48.6507V91.6077Z" fill="#F9D5BF"/>
<path d="M88.0228 81.9517H4.68359V83.6906H88.0228V81.9517Z" fill="#CE796E"/>
<path d="M52.0865 70.5472H17.837C15.6098 70.5472 13.8047 68.7417 13.8047 66.5148V43.0291C13.8047 40.8023 15.6101 38.9968 17.837 38.9968H52.0868C54.3137 38.9968 56.1191 40.8023 56.1191 43.0291V66.5148C56.1191 68.7417 54.3137 70.5472 52.0865 70.5472Z" fill="#90AED1"/>
<path d="M48.9325 70.5472H14.6827C12.4558 70.5472 10.6504 68.7417 10.6504 66.5148V43.0291C10.6504 40.8023 12.4558 38.9968 14.6827 38.9968H48.9325C51.1594 38.9968 52.9648 40.8023 52.9648 43.0291V66.5148C52.9648 68.7417 51.1594 70.5472 48.9325 70.5472Z" fill="#AAC2E5"/>
<path d="M19.9297 79.2699C19.9297 79.2699 24.1983 58.6694 25.6829 57.9271C27.1675 57.1848 31.9758 57.0978 32.9038 57.8401C33.8318 58.5823 34.9624 79.2699 34.9624 79.2699H19.9297Z" fill="#90AED1"/>
<path d="M27.3594 60.0839C26.5438 60.178 25.8166 63.3798 25.9569 64.2214C26.0973 65.0629 28.1308 65.1331 28.6919 64.572C29.2531 64.0111 29.1829 59.8737 27.3594 60.0839Z" fill="#AAC2E5"/>
<path d="M43.9399 79.5783H17.4127C16.7553 79.5783 16.2227 79.0454 16.2227 78.3883V78.2491C16.2227 77.5917 16.7556 77.0591 17.4127 77.0591H43.9399C44.5973 77.0591 45.1299 77.592 45.1299 78.2491V78.3883C45.1299 79.0457 44.597 79.5783 43.9399 79.5783Z" fill="#6489B5"/>
<path d="M71.5777 77.823H46.3398V79.4004H71.5777V77.823Z" fill="#6489B5"/>
<path d="M4.67969 81.9517H84.9063" stroke="#91443C" stroke-miterlimit="10"/>
<path d="M52.9648 43.4702V66.5149" stroke="#465C72" stroke-miterlimit="10"/>
<path d="M33.1035 59.1492L34.7557 75.8194" stroke="#465C72" stroke-miterlimit="10"/>
</svg>
