<svg width="124" height="114" viewBox="0 0 124 114" fill="none" xmlns="http://www.w3.org/2000/svg">
<path opacity="0.14" d="M118.581 111.311L58.1817 113.697L9.61328 111.311L89.523 108.406L118.581 111.311Z" fill="black"/>
<path d="M90.0421 102.46C90.0022 107.692 87.3617 110.851 84.1342 110.826C80.9066 110.802 78.3143 107.603 78.354 102.371C78.3938 97.139 81.0389 93.372 84.2666 93.3964C87.4941 93.4209 90.0817 97.2276 90.0421 102.46Z" fill="black"/>
<path d="M3.10075 59.4356C1.75705 59.4254 0.705724 58.2327 0.716885 56.7717V49.0972C0.727854 47.6361 1.85551 46.46 3.19936 46.4703C4.47605 46.4799 5.47806 47.6131 5.46743 49.0012V56.9336C5.45696 58.3251 4.38074 59.4452 3.10075 59.4356Z" fill="#A86504"/>
<path d="M2.38414 59.4304C1.04029 59.4202 -0.0110353 58.2275 8.74429e-05 56.7664V49.092C0.0112102 47.6309 1.13871 46.4547 2.48256 46.4649C3.75945 46.4746 4.76126 47.6078 4.75079 48.996V56.9284C4.74016 58.3199 3.66398 59.4401 2.38414 59.4304Z" fill="#FCD11A"/>
<path d="M2.38872 47.2718H1.36133C1.37671 45.2437 2.90735 43.6243 4.77278 43.6385H10.9809V44.7556H4.76426C3.46479 44.7458 2.39954 45.859 2.38872 47.2718Z" fill="#C67C10"/>
<path d="M111.534 103.689C111.494 108.921 108.854 112.08 105.626 112.055C102.399 112.031 99.8063 108.832 99.8462 103.6C99.886 98.3676 102.531 94.6007 105.759 94.6251C108.986 94.6497 111.574 98.4564 111.534 103.689Z" fill="#212323"/>
<path d="M34.0104 103.116C33.9687 108.617 31.1928 111.938 27.7997 111.912C24.4066 111.886 21.6814 108.524 21.7231 103.023C21.7649 97.5226 24.5457 93.5623 27.9388 93.588C31.3319 93.6137 34.0524 97.6158 34.0104 103.116Z" fill="black"/>
<path d="M68.317 103.987C68.2753 109.487 65.6675 113.353 62.2744 113.327C58.8813 113.301 55.988 109.394 56.0297 103.893C56.0715 98.3929 58.8523 94.4327 62.2454 94.4584C65.6385 94.4841 68.3588 98.4861 68.317 103.987Z" fill="#212323"/>
<path d="M16.4261 99.5447C28.221 100.013 111.783 97.0556 111.783 97.0556L113.175 47.3872C113.292 43.2005 110.234 40.2617 106.437 39.5571C91.582 36.8011 51.1372 36.6744 21.2144 38.1954C17.4197 38.3883 11.0094 40.8824 10.5801 44.9867V95.6628C10.5801 95.6628 14.5034 96.2647 16.7421 96.3533C16.985 96.363 16.1619 99.5342 16.4261 99.5447ZM80.6546 59.6203V49.1114C80.7914 47.5194 84.376 43.0508 99.877 44.6208C107.207 45.3632 109.766 48.4453 110.023 50.434L110.677 60.8542C110.717 62.4116 109.561 63.6009 108.128 63.5899H83.0516C81.0538 63.5748 80.6111 61.7918 80.6546 59.6203ZM60.9348 52.0796C61.8195 46.2707 71.5323 46.5801 72.4972 50.954V65.4051C72.4863 66.8564 62.0978 67.4178 60.9348 65.3174V52.0796ZM46.72 51.9719C47.6049 46.1628 57.3175 46.4722 58.2826 50.8461V65.2972C58.2715 66.7485 47.883 67.31 46.72 65.2096V51.9719ZM32.2947 51.8623C33.1794 46.0532 42.8922 46.3629 43.8571 50.7368V65.1878C43.8462 66.6391 33.4577 67.2006 32.2947 65.1001V51.8623ZM17.5536 51.7505C18.4383 45.9414 28.1511 46.251 29.1161 50.6248V65.076C29.1051 66.5273 18.7166 67.0886 17.5536 64.9883V51.7505Z" fill="#4C2502"/>
<path d="M40.0802 73.5858L26.0957 70.297V57.1752C26.1031 56.206 26.7798 55.4258 27.6712 55.4327L40.4144 55.6567L40.0802 73.5858Z" fill="#872E02"/>
<path d="M42.8895 66.4131H37.5801V58.2866C37.591 56.8509 38.7318 55.6973 40.0522 55.7073H40.58C41.0194 55.7106 41.43 55.8447 41.7822 56.0722C42.4882 56.5285 42.8969 57.369 42.8895 58.3269V66.4131Z" fill="#BC611D"/>
<path d="M47.625 79.3373L24.7742 75.9809L24.6562 62.859C24.6636 61.8898 25.4427 61.11 26.3964 61.1172L47.9731 61.4084L47.625 79.3373Z" fill="#CC592B"/>
<path d="M110.279 75.4063L96.2949 72.1175V58.9957C96.3023 58.0265 96.9791 57.2463 97.8706 57.253L110.614 57.4771L110.279 75.4063Z" fill="#872E02"/>
<path d="M113.089 68.2335H107.779V60.1069C107.79 58.6712 108.931 57.5176 110.251 57.5277H110.779C111.219 57.5309 111.629 57.6649 111.981 57.8925C112.687 58.3487 113.096 59.1893 113.089 60.1472L113.089 68.2335Z" fill="#BC611D"/>
<path d="M95.1935 75.2913L81.209 72.0025V58.8807C81.2163 57.9115 81.8932 57.1313 82.7847 57.138L95.5276 57.3622L95.1935 75.2913Z" fill="#872E02"/>
<path d="M98.003 68.1185H92.6934V59.9919C92.7043 58.5562 93.8451 57.4027 95.1655 57.4127H95.6933C96.1327 57.4159 96.5435 57.5499 96.8955 57.7775C97.6015 58.2337 98.0102 59.0742 98.003 60.0322L98.003 68.1185Z" fill="#BC611D"/>
<path d="M78.7325 75.1668L64.748 71.878V58.756C64.7554 57.7868 65.4323 57.0066 66.3237 57.0135L79.0667 57.2376L78.7325 75.1668Z" fill="#872E02"/>
<path d="M81.5421 67.994H76.2324V59.8674C76.2434 58.4319 77.3842 57.2781 78.7046 57.2882H79.2324C79.6717 57.2916 80.0825 57.4255 80.4345 57.653C81.1406 58.1093 81.5492 58.9498 81.542 59.9077V67.994H81.5421Z" fill="#BC611D"/>
<path d="M65.0235 75.0623L51.0391 71.7735V58.6515C51.0464 57.6825 51.7233 56.9023 52.6147 56.909L65.3577 57.1331L65.0235 75.0623Z" fill="#872E02"/>
<path d="M67.8329 67.8895H62.5234V59.7628C62.5344 58.3272 63.6752 57.1735 64.9956 57.1837H65.5234C65.9627 57.1869 66.3734 57.3209 66.7256 57.5485C67.4316 58.0047 67.8402 58.8452 67.8329 59.8031V67.8895Z" fill="#BC611D"/>
<path d="M19.1631 66.7286C19.0888 67.2549 18.0826 67.7566 18.0215 68.2847C23.7034 71.708 29.6188 72.5381 33.9256 64.5214C33.2139 63.802 33.2175 62.6011 32.444 61.9539C29.2815 67.8439 26.1681 70.152 19.1631 66.7286Z" fill="#FFD5C7"/>
<path d="M27.9902 66.3738C28.653 67.8287 31.3345 68.5981 31.6873 68.4735C31.6873 68.4735 33.0222 66.3804 33.0584 65.3865C33.1213 63.6628 31.6811 62.0732 31.077 62.0833C30.2527 62.8976 28.8275 65.6953 27.9902 66.3738Z" fill="#5F79D6"/>
<path d="M31.9838 68.2972C30.6653 67.7156 29.1483 66.4819 28.2749 65.6301C27.9735 65.9961 27.7656 66.2677 27.7656 66.2677C27.8254 66.6625 30.0887 68.9955 31.695 68.9662C31.7602 68.8027 31.885 68.5271 31.9838 68.2972Z" fill="#385EB2"/>
<path d="M41.1121 75.3131C35.9537 79.9831 30.4354 77.3119 29.6445 76.7524C29.6445 76.7524 30.89 65.3153 31.0783 62.0832C32.7621 61.5434 37.2709 61.0053 39.2826 61.5257C40.1042 63.6304 41.1121 75.3131 41.1121 75.3131Z" fill="#5F79D6"/>
<path d="M32.5469 59.7357L32.8835 62.09C32.9559 62.5961 33.0136 63.3549 33.8685 63.2328C34.7234 63.1108 36.0517 62.1539 35.9793 61.6478L35.6427 59.2935L32.5469 59.7357Z" fill="#E4A78E"/>
<path d="M26.1987 55.5525C26.397 56.8065 27.4381 57.6877 28.276 57.6524C29.1138 57.6172 29.352 56.629 29.2989 55.4346C29.246 54.2401 28.5237 53.2974 27.686 53.3356C26.5408 53.3882 26.0125 54.3736 26.1987 55.5525Z" fill="#FCC8B4"/>
<path d="M27.2997 56.1466C27.5555 56.6301 28.0987 56.8931 28.5127 56.7334C28.9271 56.5739 29.0552 56.0524 28.7992 55.5689C28.5431 55.0852 28.0003 54.8224 27.5863 54.982C27.1721 55.1415 27.0438 55.6627 27.2997 56.1466Z" fill="#E4A78E"/>
<path d="M26.6602 51.4802C26.8461 56.6019 30.0863 58.7912 34.5066 58.6307C38.9268 58.4704 41.5632 55.9731 41.6358 50.8256C41.708 45.7009 38.4282 44.734 34.0078 44.8943C29.5875 45.0546 26.4743 46.3587 26.6602 51.4802Z" fill="#7C473E"/>
<path d="M28.0506 48.1198C27.3139 48.7557 27.1862 50.4207 27.2641 51.4053C27.5065 54.4592 27.7606 56.6601 28.0424 58.547C28.2895 59.4411 29.4565 60.2262 30.9176 60.8256C31.5417 61.0817 32.3921 61.1817 32.7924 61.1706C34.9471 60.9708 38.1633 59.8048 38.5328 58.9546C40.05 55.9265 40.3668 49.8237 40.1616 48.9152C39.8163 47.3875 37.7484 46.3365 34.2028 46.1316C30.8689 45.9391 29.2785 47.0595 28.0506 48.1198Z" fill="#FFD5C7"/>
<path d="M38.616 51.8049C38.4011 53.366 38.3463 54.6534 39.4629 55.4854C40.7653 56.4559 41.8274 52.9013 41.7378 50.4352C41.6484 47.9688 39.8345 46.2049 36.7012 46.5339C35.0859 46.7035 39.1929 47.6149 38.616 51.8049Z" fill="#7C473E"/>
<path d="M42.0573 56.1124C41.6218 57.6032 40.1999 58.4737 39.1688 58.2662C38.1373 58.0588 37.9925 56.8065 38.2393 55.36C38.4864 53.9135 39.5232 52.9051 40.5538 53.1163C41.9625 53.405 42.4667 54.7109 42.0573 56.1124Z" fill="#FFD5C7"/>
<path d="M40.4683 56.4767C40.2008 57.152 39.4751 57.4189 39.167 57.2329C38.8204 57.0238 38.8261 56.6233 38.9683 55.9594C39.1347 55.1843 39.4725 54.759 39.9801 54.9373C40.5077 55.1229 40.7831 55.6821 40.4683 56.4767Z" fill="#E4A78E"/>
<path d="M34.0712 54.4943C33.8583 55.2566 33.9818 55.7856 34.6766 55.9796C35.3717 56.1735 36.5447 56.0461 36.8995 54.7761C37.1056 54.0385 36.4992 53.3228 35.7787 53.2841C34.9561 53.2399 34.2773 53.7567 34.0712 54.4943Z" fill="#F9FEFF"/>
<path d="M36.9318 54.8283C37.2665 53.8562 36.5405 53.1896 35.9221 53.1419C34.9105 53.064 34.172 53.7339 34.0723 54.4944C34.28 53.7509 34.9961 53.2677 35.7785 53.3096C36.1366 53.3289 36.4804 53.5213 36.6981 53.8246C36.9032 54.1103 36.9662 54.4458 36.876 54.7694C36.7586 55.1894 36.5297 55.5252 36.2494 55.7492C36.5846 55.528 36.7879 55.2467 36.9318 54.8283Z" fill="#602220"/>
<path d="M36.3366 54.2822C36.5657 54.7164 36.3993 55.2543 35.9647 55.4834C35.5301 55.7125 34.9922 55.546 34.7631 55.1117C34.5339 54.6773 34.7003 54.1396 35.1349 53.9105C35.5695 53.6814 36.1074 53.8478 36.3366 54.2822Z" fill="#461D14"/>
<path d="M36.2522 54.1495C36.3157 54.27 36.2696 54.4192 36.149 54.4827C36.0286 54.5462 35.8792 54.5001 35.8156 54.3797C35.7521 54.2592 35.7983 54.1099 35.9188 54.0463C36.0394 53.9828 36.1886 54.029 36.2522 54.1495Z" fill="#FEFFFE"/>
<path d="M30.603 54.8276C30.9722 55.5276 31.0027 56.0501 30.4729 56.3295C29.9432 56.6087 28.9343 56.6452 28.3189 55.4789C27.9616 54.8015 28.2861 54.0353 28.8763 53.9012C29.5501 53.7477 30.2456 54.1502 30.603 54.8276Z" fill="#F9FEFF"/>
<path d="M28.3053 55.533C27.7818 54.6486 28.2183 53.9132 28.7212 53.7842C29.544 53.5732 30.3277 54.114 30.6024 54.8276C30.242 54.1448 29.524 53.7795 28.8832 53.9252C28.5899 53.992 28.352 54.2224 28.2472 54.5417C28.1484 54.8425 28.1803 55.1718 28.3371 55.469C28.5405 55.8547 28.8159 56.1449 29.1055 56.3211C28.7707 56.1549 28.5307 55.9133 28.3053 55.533Z" fill="#602220"/>
<path d="M30.4837 55.0242C30.5848 55.5048 30.3432 55.9623 29.9441 56.0463C29.5451 56.1301 29.1397 55.8085 29.0386 55.3279C28.9376 54.8474 29.179 54.3899 29.5782 54.306C29.9772 54.2222 30.3826 54.5438 30.4837 55.0242Z" fill="#461D14"/>
<path d="M30.4406 54.8722C30.4686 55.0055 30.4016 55.1324 30.2909 55.1556C30.1801 55.1789 30.0678 55.0897 30.0396 54.9564C30.0116 54.823 30.0786 54.6962 30.1893 54.6729C30.3 54.6495 30.4126 54.7387 30.4406 54.8722Z" fill="#FEFFFE"/>
<path d="M28.1861 51.3497C28.1306 51.3518 28.0746 51.3311 28.0331 51.2879C27.9558 51.2078 27.958 51.0801 28.0382 51.0028C28.5588 50.5028 29.5175 50.3318 30.3217 50.5986C30.4275 50.6336 30.4848 50.7477 30.4494 50.8535C30.4142 50.9593 30.2997 51.0163 30.1945 50.9816C29.5362 50.7627 28.7294 50.8974 28.3184 51.2935C28.2811 51.329 28.2338 51.3479 28.1861 51.3497Z" fill="#7C473E"/>
<path d="M36.4835 51.0482C36.4355 51.0501 36.3864 51.0349 36.3469 51.0017C35.9071 50.6359 35.0918 50.561 34.453 50.8265C34.3494 50.8702 34.232 50.8206 34.1892 50.7176C34.1467 50.6147 34.1953 50.4967 34.2982 50.4541C35.0798 50.1299 36.0499 50.2299 36.6046 50.6917C36.6905 50.7629 36.7022 50.8901 36.6309 50.9756C36.5924 51.0215 36.5387 51.046 36.4835 51.0482Z" fill="#7C473E"/>
<path d="M31.6478 56.4278C31.6778 56.4268 31.7087 56.4043 31.7128 56.3734C31.741 56.1541 31.9082 56.0071 32.1387 55.9987C32.3705 55.9904 32.5522 56.1276 32.5905 56.3402C32.5967 56.3742 32.6295 56.397 32.6634 56.3908C32.6975 56.3846 32.7201 56.352 32.714 56.3179C32.6649 56.0456 32.4264 55.8628 32.1342 55.8735C31.8437 55.884 31.6242 56.0785 31.5883 56.3573C31.5839 56.3918 31.6134 56.4233 31.6478 56.4278Z" fill="#C68C75"/>
<path d="M24.7207 46.7011C27.664 48.0777 27.8299 45.8671 30.4479 45.878C29.9604 45.7455 29.5502 44.9751 29.4288 44.4749C30.2762 44.8498 31.8653 45.0363 32.9492 44.8673C35.1354 44.5264 36.5646 44.631 37.6557 45.686C38.4477 46.4519 38.5504 47.4183 38.3048 48.0406C37.7376 49.4793 33.837 50.4881 31.864 50.5847C27.2148 50.8123 25.0617 48.6595 24.7207 46.7011Z" fill="#7C473E"/>
<path d="M30.5378 58.1518C30.6709 59.0599 31.7804 59.6491 33.0158 59.4683C34.2512 59.2874 35.0645 58.0477 35.0118 57.4965C34.9114 56.4447 33.8488 57.0592 32.6045 57.1796C31.3615 57.3001 30.4047 57.2441 30.5378 58.1518Z" fill="#5B0000"/>
<path d="M32.6018 57.1396C33.2402 57.0779 33.8313 56.8935 34.2744 56.8621C34.1185 57.2572 33.5129 57.6176 32.7489 57.7297C31.986 57.8419 31.3026 57.6717 31.0391 57.3392C31.4239 57.222 31.9771 57.2003 32.6018 57.1396Z" fill="white"/>
<path d="M32.475 58.5983C33.2354 58.4583 33.9408 58.5698 34.3108 58.848C33.9712 59.1607 33.5316 59.4158 33.0189 59.4908C32.318 59.5935 31.6573 59.4523 31.1855 59.1478C31.4858 58.901 31.9395 58.6967 32.475 58.5983Z" fill="#CE6B5B"/>
<path d="M34.0549 66.8163C34.0549 66.9861 33.9171 67.1238 33.7472 67.1238C33.5772 67.1238 33.4395 66.9861 33.4395 66.8163C33.4395 66.6464 33.5772 66.5088 33.7472 66.5088C33.9171 66.5088 34.0549 66.6464 34.0549 66.8163Z" fill="#3E569B"/>
<path d="M34.0549 69.2426C34.0549 69.4125 33.9171 69.5502 33.7472 69.5502C33.5772 69.5502 33.4395 69.4125 33.4395 69.2426C33.4395 69.0728 33.5772 68.9351 33.7472 68.9351C33.9171 68.9351 34.0549 69.0728 34.0549 69.2426Z" fill="#3E569B"/>
<path d="M35.9188 74.8414C35.6401 74.8392 35.3332 74.8078 35.0011 74.7734C34.6419 74.7364 34.234 74.6944 33.7785 74.6778L33.2445 74.6582C30.9284 74.5755 29.6527 74.5295 27.905 74.0979L27.5864 74.019L27.5312 73.6687C26.9897 70.2301 28.7558 67.0186 31.4683 66.5099C32.798 66.2594 34.1464 66.6864 35.2673 67.7108C36.3635 68.7131 37.1106 70.1732 37.3704 71.8227C37.5878 73.202 37.5183 73.9496 37.1311 74.4037C36.8337 74.7524 36.4222 74.8451 35.9188 74.8414ZM28.4513 73.136C29.9421 73.4736 31.1055 73.5152 33.2779 73.5931L33.8124 73.6123C34.2904 73.63 34.7186 73.6739 35.0949 73.7125C35.6785 73.7726 36.2815 73.835 36.4129 73.6794C36.4776 73.6033 36.6065 73.2879 36.4042 72.0037C36.1832 70.6022 35.5553 69.3671 34.6361 68.5265C33.74 67.7079 32.6748 67.3647 31.6337 67.5602C29.5438 67.9524 28.1639 70.4133 28.4513 73.136Z" fill="black"/>
<path d="M44.73 78.1003L10.0332 74.892L10.5574 72.3469L44.9792 73.5923L44.73 78.1003Z" fill="#301A1A"/>
<path d="M112.593 98.9888C115.024 98.9295 117.665 98.7402 117.665 98.7402L116.643 43.6927C116.245 39.2316 112.813 36.0725 108.698 35.8005C76.2505 33.6571 32.3566 33.1284 16.1902 35.8747C12.0582 36.5766 8.69049 39.7157 8.74879 44.2611L9.52163 104.529L47.4834 104.938C47.4834 104.938 53.1267 104.161 55.0193 104.078C64.7794 103.652 100.076 102.771 112.883 102.457C113.17 102.45 112.329 98.9951 112.593 98.9888ZM41.0801 74.4956H13.8637C12.3085 74.4839 11.0745 72.9677 11.1442 71.2782L12.1191 47.6196C12.4305 45.4653 15.2586 42.163 23.2257 41.4779C40.0738 40.0296 43.9056 44.9381 44.0278 46.6682L45.0008 70.3434C45.0123 72.7007 43.2482 74.512 41.0801 74.4956ZM65.2548 64.5807C63.958 66.841 52.7035 66.0606 52.7154 64.4856V48.801C53.8349 44.0703 64.3904 43.8944 65.2548 50.2131V64.5807ZM80.6828 64.6978C79.3859 66.9581 68.1309 66.1747 68.1429 64.5995V48.9181C69.2623 44.1874 79.8184 44.0115 80.6828 50.3302V64.6978ZM96.3392 64.8167C95.0425 67.0768 83.788 66.2966 83.8 64.7213V49.0368C84.9193 44.3061 95.475 44.1302 96.3392 50.4489V64.8167ZM112.339 64.938C111.042 67.1983 99.7874 66.4179 99.7993 64.8428V49.1583C100.919 44.4276 111.474 44.2517 112.339 50.5704V64.938Z" fill="#FCD11A"/>
<path d="M112.594 98.9888C115.025 98.9295 117.665 98.7402 117.665 98.7402L116.644 43.6928C116.246 39.2316 112.814 36.0725 108.699 35.8005C92.3535 34.7208 73.0917 36.4565 55.9464 36.4088C51.6424 36.3971 47.9066 40.1608 47.8711 44.8401V104.916C48.7661 104.795 53.3072 104.153 55.0198 104.078C64.7798 103.652 100.076 102.771 112.884 102.457C113.171 102.45 112.33 98.9952 112.594 98.9888ZM65.2552 64.5807C63.9584 66.841 52.7039 66.0606 52.7158 64.4856V48.801C53.8353 44.0703 64.3908 43.8945 65.2552 50.2131V64.5807ZM80.6832 64.6978C79.3863 66.9581 68.1313 66.1748 68.1433 64.5995V48.9181C69.2627 44.1874 79.8188 44.0116 80.6832 50.3302V64.6978ZM96.3396 64.8167C95.0429 67.0768 83.7884 66.2966 83.8004 64.7214V49.0368C84.9197 44.3061 95.4754 44.1303 96.3396 50.4489V64.8167ZM112.339 64.938C111.042 67.1983 99.7878 66.4179 99.7997 64.8429V49.1583C100.919 44.4276 111.475 44.2518 112.339 50.5704V64.938Z" fill="#FFB624"/>
<path d="M54.0982 105.188L47.219 105.508L7.79226 104.643C7.32542 104.633 6.95507 104.213 6.96504 103.706L7.02714 100.562L47.2447 101.445L55.0853 101.084L55.0245 104.159C55.0135 104.714 54.608 105.164 54.0982 105.188Z" fill="#D8D8D8"/>
<path d="M7.02971 100.562C7.02971 100.562 6.96205 99.9229 7.14634 99.4547C7.47051 98.6315 9.18801 97.8794 9.18801 97.8794L9.23553 99.205L54.6002 100.136L55.0879 101.084L47.2979 101.442L7.02971 100.562Z" fill="#E0E1E3"/>
<path d="M113.171 103.602C113.154 96.8492 111.282 91.479 106.945 91.4459C103.502 91.4197 100.865 96.8939 100.783 103.722C103.845 103.598 108.741 103.605 113.171 103.602Z" fill="black"/>
<path d="M111.443 104.224C111.456 98.7703 109.559 94.8174 105.63 94.7875C104.134 94.7762 102.769 95.6212 101.72 97.0596C101.381 98.1034 101.111 99.2572 100.923 100.494C100.894 100.684 100.874 100.882 100.848 101.076C100.722 102.131 100.644 103.225 100.623 104.353C103.331 104.238 107.459 104.227 111.443 104.224Z" fill="#212323"/>
<path d="M70.0391 103.896C70.0207 96.7968 68.0527 91.151 63.4937 91.1163C59.874 91.0888 57.1013 96.8438 57.0156 104.022C60.2346 103.892 65.382 103.899 70.0391 103.896Z" fill="black"/>
<path d="M119.465 95.698H114.231V98.822C114.227 99.3296 114.578 99.757 115.045 99.7604H118.432C118.985 99.7647 119.46 99.2933 119.465 98.6918L119.465 95.698Z" fill="#D8D8D8"/>
<path d="M119.378 94.6071C119.077 93.7747 117.552 93.0586 117.552 93.0586L117.365 94.3988L114.977 94.4692L114.23 95.698H119.465C119.465 95.698 119.55 95.0805 119.378 94.6071Z" fill="#E0E1E3"/>
<g opacity="0.65">
<path d="M36.8488 98.3749H18.4902V88.0808C18.4902 88.0808 19.9407 83.6384 27.526 83.3856C34.7927 83.1434 36.8488 88.2201 36.8488 88.2201V98.3749Z" fill="black"/>
</g>
<path d="M35.9893 97.4714H17.6309V87.7885C17.6309 87.7885 19.0747 83.6124 26.6597 83.3783C33.9263 83.1538 35.9893 87.9279 35.9893 87.9279L35.9893 97.4714Z" fill="#D1D2D3"/>
<path d="M35.008 96.714H18.6211V88.071C18.6211 88.071 19.9099 84.3434 26.6804 84.1343C33.1665 83.934 35.008 88.1954 35.008 88.1954L35.008 96.714Z" fill="#212323"/>
<path d="M23.2869 84.1194C23.0271 84.1636 22.8415 84.2191 22.6016 84.273V97.404H23.2869V84.1194Z" fill="#D1D2D3"/>
<path d="M25.6754 84.0608C25.4284 84.0747 25.2233 84.0839 24.9902 84.1056V97.2594H25.6754V84.0608Z" fill="#D1D2D3"/>
<path d="M21.0825 84.9846C20.8208 85.0673 20.6257 85.1564 20.3926 85.2484V97.1566H21.0825V84.9846Z" fill="#D1D2D3"/>
<path d="M30.6326 84.2428C30.3951 84.1936 30.2018 84.1478 29.9473 84.1106V97.2287H30.6326V84.2428Z" fill="#D1D2D3"/>
<path d="M33.1844 85.1516C32.9506 85.0585 32.7538 84.9691 32.4961 84.8879V97.248H33.1844V85.1516Z" fill="#D1D2D3"/>
<path d="M27.5449 97.2105H28.2801V83.9832C28.045 83.9697 27.7926 83.9715 27.5449 83.9688V97.2105Z" fill="#D1D2D3"/>
<path d="M69.9743 100.64C69.7822 100.639 69.6249 100.523 69.6212 100.378C69.6174 100.231 69.7737 100.11 69.9701 100.107L100.96 99.7988C101.171 99.8167 101.318 99.9146 101.321 100.062C101.325 100.209 101.169 100.33 100.972 100.332L69.9743 100.64Z" fill="#CC8902"/>
<path d="M68.3133 104.108C68.3243 98.6546 66.1855 94.4547 62.2453 94.4585C60.6842 94.46 59.2603 95.2913 58.1657 96.7291C57.8125 97.773 57.5304 98.9265 57.3345 100.163C57.3044 100.353 57.2833 100.551 57.2572 100.745C57.1258 101.8 57.0433 103.106 57.0215 104.233C59.8475 104.119 64.1549 104.11 68.3133 104.108Z" fill="#212323"/>
<g opacity="0.65">
<path d="M46.7701 91.4057C46.7499 94.058 44.9515 96.1947 42.7529 96.1781C40.5544 96.1614 38.7886 93.9976 38.8088 91.3453C38.8289 88.6928 40.6274 86.5561 42.8259 86.5729C45.0244 86.5894 46.7902 88.7532 46.7701 91.4057Z" fill="black"/>
</g>
<path d="M45.6081 91.1828C45.5888 93.7169 43.791 95.7578 41.5926 95.7411C39.3941 95.7244 37.6275 93.6565 37.6466 91.1224C37.666 88.5884 39.4637 86.5476 41.6622 86.5643C43.8608 86.5809 45.6273 88.6488 45.6081 91.1828Z" fill="#F9EE8A"/>
<path d="M41.5879 96.0573C39.2327 96.0395 37.3332 93.8247 37.3537 91.12C37.3743 88.4155 39.3072 86.2297 41.6624 86.2477C44.0181 86.2655 45.9178 88.4803 45.8971 91.1848C45.8767 93.8894 43.9436 96.0752 41.5879 96.0573ZM41.6577 86.8805C39.623 86.865 37.9537 88.769 37.9358 91.1244C37.918 93.4799 39.5582 95.4089 41.5926 95.4245C43.6273 95.4398 45.2971 93.5359 45.3151 91.1804C45.333 88.825 43.6922 86.8959 41.6577 86.8805Z" fill="#A86802"/>
<path opacity="0.87" d="M44.3803 89.7943C44.371 91.0212 43.5005 92.0094 42.4361 92.0014C41.3716 91.9932 40.5161 90.9921 40.5255 89.765C40.5348 88.5381 41.4053 87.5499 42.4698 87.5579C43.5343 87.5661 44.3897 88.5672 44.3803 89.7943Z" fill="white"/>
<path opacity="0.87" d="M41.5948 93.1632C41.5895 93.8604 41.0948 94.4218 40.49 94.4173C39.8851 94.4127 39.3989 93.8437 39.4043 93.1465C39.4096 92.4493 39.9043 91.8878 40.5092 91.8924C41.114 91.8969 41.6002 92.4658 41.5948 93.1632Z" fill="white"/>
<g opacity="0.65">
<path d="M16.1934 91.0717C16.2136 88.4191 14.4476 86.2553 12.2491 86.2386C10.0506 86.2219 8.25199 88.3587 8.23183 91.0112C8.21166 93.6637 9.97757 95.8275 12.1761 95.8442C14.3746 95.8609 16.1732 93.7242 16.1934 91.0717Z" fill="black"/>
</g>
<path d="M15.028 90.8486C15.0087 93.3827 13.2109 95.4236 11.0125 95.4069C8.81401 95.3902 7.04738 93.3223 7.06656 90.7882C7.08589 88.2541 8.88367 86.2134 11.0821 86.2301C13.2807 86.2468 15.0472 88.3145 15.028 90.8486Z" fill="#F9EE8A"/>
<path d="M11.0098 95.7231C8.65456 95.7053 6.75507 93.4905 6.77555 90.7858C6.79619 88.0813 8.72912 85.8956 11.0843 85.9134C13.44 85.9313 15.3397 88.1461 15.319 90.8506C15.2986 93.5553 13.3655 95.741 11.0098 95.7231ZM11.0795 86.5463C9.04489 86.531 7.37557 88.4349 7.35769 90.7902C7.33982 93.1457 8.98004 95.0749 11.0145 95.0903C13.0491 95.1056 14.719 93.2017 14.737 90.8462C14.7549 88.4909 13.114 86.5617 11.0795 86.5463Z" fill="#A86802"/>
<path opacity="0.87" d="M13.8003 89.4602C13.7909 90.6871 12.9204 91.6753 11.856 91.6673C10.7914 91.659 9.93607 90.6579 9.94539 89.4308C9.95471 88.2039 10.8252 87.2157 11.8898 87.2239C12.9542 87.232 13.8096 88.2332 13.8003 89.4602Z" fill="white"/>
<path opacity="0.87" d="M11.0147 92.8289C11.0094 93.5261 10.5147 94.0876 9.9098 94.083C9.30503 94.0784 8.81886 93.5096 8.82426 92.8123C8.82952 92.1151 9.32421 91.5536 9.92913 91.5581C10.5339 91.5627 11.0201 92.1317 11.0147 92.8289Z" fill="white"/>
<path d="M65.7459 103.586C65.6429 106.33 64.7095 108.517 63.6615 108.472C62.6135 108.427 61.8475 106.166 61.9507 103.423C62.0539 100.679 62.9871 98.4916 64.0352 98.5368C65.0832 98.5819 65.8492 100.843 65.7459 103.586Z" fill="#E59515"/>
<path d="M109.512 103.352C109.42 105.782 108.496 107.716 107.448 107.671C106.4 107.626 105.625 105.619 105.716 103.188C105.808 100.758 106.731 98.8237 107.779 98.8689C108.828 98.914 109.603 100.921 109.512 103.352Z" fill="#E59515"/>
<path d="M34.9689 100.718H20.0254V106.979H34.9689V100.718Z" fill="#717272"/>
<path d="M33.7692 100.523H18.8281V106.16H33.7692V100.523Z" fill="#A9AAAA"/>
<path d="M117.346 84.8331L47.7578 86.2828V84.2632L117.346 82.8135V84.8331Z" fill="#80A8B7"/>
<path d="M48.2092 76.4702H8.94141V78.3906H48.2092V76.4702Z" fill="#8EB0BA"/>
<path d="M117.433 76.2617H47.8516V78.1857H117.433V76.2617Z" fill="#80A8B7"/>
<path d="M40.8525 63.1645C41.0988 63.5157 43.7142 67.8261 43.5043 69.0959C43.1515 69.2942 42.2796 69.5947 41.922 69.7843C40.9773 67.3496 37.9447 64.788 38.1079 62.8619C38.4563 62.4822 39.6089 60.963 40.8525 63.1645Z" fill="#FFD5C7"/>
<path d="M17.7349 68.1334C17.6623 68.244 17.4029 68.2564 17.0762 68.2713C16.7442 68.2864 15.2786 68.288 15.276 68.4992C15.2719 68.8167 16.303 68.9554 16.6295 69.015C17.1686 69.1136 18.378 69.2182 18.9926 69.2652C20.0351 69.4101 21.0834 68.7344 21.1907 67.7835C21.3517 66.3578 21.3403 65.578 21.406 64.6981C21.4222 64.4813 20.9316 64.8556 20.7943 65.1217C20.5004 65.6914 20.5918 65.9105 20.4168 66.1905C20.2461 66.4638 19.99 66.3738 19.7473 66.1736C18.8619 64.8772 18.062 63.325 17.5806 63.3775C17.1909 63.4816 18.1109 65.1693 18.7107 66.242C17.6561 65.3968 16.0486 64.3025 15.8646 64.6008C15.6467 64.9537 17.0576 66.2959 17.9838 66.9482C16.9474 66.8321 15.1476 66.2454 15.004 66.651C14.8752 67.0146 17.9395 67.8223 17.7349 68.1334Z" fill="#FFD5C7"/>
<path d="M43.0194 67.6021C42.0378 69.2422 39.8402 70.3407 38.8079 70.6641C37.621 70.8781 37.5436 71.7629 37.621 72.2201C39.7029 72.3174 42.0483 71.1242 43.4793 69.7179C43.715 68.9568 43.3856 68.1146 43.0194 67.6021Z" fill="#FFD5C7"/>
<path d="M33.1539 71.0185C33.1983 71.12 33.2694 71.3366 34.1202 71.3532C34.2607 71.356 33.4764 71.4573 33.6086 71.5598C33.9772 71.8461 34.646 72.1605 35.6819 72.3293C37.7325 72.6631 39.2066 71.9045 39.3402 71.3496C39.4341 70.9589 37.4167 68.4731 35.726 68.5981C35.556 68.6107 36.5342 69.4731 36.3732 69.5753C36.153 69.7151 35.6744 69.5023 35.0696 69.5666C33.7279 69.7094 32.8148 69.9755 33.1434 70.294C33.2566 70.4038 35.4937 70.5409 35.5124 70.6152C35.5311 70.6897 33.1205 70.9422 33.1539 71.0185Z" fill="#FFD5C7"/>
<path d="M42.9901 65.42C42.4025 66.9244 39.5033 68.0412 39.1323 67.944C39.1323 67.944 37.8759 65.7215 37.7743 64.7317C37.5982 63.0149 38.725 61.5507 39.3472 61.5142C40.6753 62.3543 42.085 64.807 42.9901 65.42Z" fill="#5F79D6"/>
<path opacity="0.24" d="M36.7361 61.3487L35.8616 61.0833L33.7033 63.2283L32.6872 61.7081L32.043 62.0321L32.5309 65.0863C32.5309 65.0863 33.2874 63.9923 33.6542 63.9537C34.0254 63.9147 36.6482 64.9808 36.6482 64.9808L36.7361 61.3487Z" fill="black"/>
<path d="M36.7606 61.3292L35.9011 60.5383L33.6937 63.1453L32.7268 61.1632L32.0039 61.8173L32.5705 64.5415C32.5705 64.5415 33.327 63.4474 33.6938 63.4089C34.0649 63.3698 36.2039 64.4048 36.2039 64.4048L36.7606 61.3292Z" fill="#5F79D6"/>
<path d="M34.0549 64.9364C34.0549 65.1064 33.9171 65.2441 33.7472 65.2441C33.5772 65.2441 33.4395 65.1064 33.4395 64.9364C33.4395 64.7666 33.5772 64.6289 33.7472 64.6289C33.9171 64.6289 34.0549 64.7666 34.0549 64.9364Z" fill="#3E569B"/>
<path d="M42.5925 64.9343C41.537 65.915 39.8037 66.8202 38.6758 67.2855C38.8927 67.707 39.0602 68.0052 39.0602 68.0052C39.4467 68.1064 42.4853 66.9505 43.0933 65.4639C42.9686 65.3394 42.7647 65.1159 42.5925 64.9343Z" fill="#385EB2"/>
<path opacity="0.32" d="M41.0829 74.6567L13.7488 74.37C12.1869 74.3536 10.9517 72.931 11.0267 71.2345L12.0749 47.4759C12.3936 45.3134 15.2439 42.0048 23.2474 41.34C40.1729 39.9343 44.0069 44.8754 44.1247 46.6133L45.033 70.3942C45.0377 72.7617 43.2605 74.6795 41.0829 74.6567Z" fill="#8FDEE2"/>
<path opacity="0.57" d="M65.2569 64.5636C63.9534 66.82 52.6963 66.0072 52.7129 64.432L52.8774 48.7479C54.0106 44.0205 64.5617 43.8752 65.4078 50.1963L65.2569 64.5636Z" fill="#8FDEE2"/>
<path opacity="0.57" d="M80.6843 64.7255C79.381 66.9819 68.1261 66.1751 68.1426 64.5999L68.305 48.9097C69.4382 44.1823 79.9891 44.0371 80.8352 50.3582L80.6843 64.7255Z" fill="#8FDEE2"/>
<path opacity="0.57" d="M96.343 64.8897C95.0396 67.1463 83.7823 66.3334 83.7988 64.7583L83.9635 49.0742C85.0965 44.3466 95.6476 44.2014 96.4937 50.5225L96.343 64.8897Z" fill="#8FDEE2"/>
<path opacity="0.57" d="M112.339 65.0575C111.036 67.314 99.7784 66.5011 99.7949 64.926L99.9596 49.2418C101.093 44.5144 111.644 44.3691 112.49 50.6902L112.339 65.0575Z" fill="#8FDEE2"/>
<path d="M40.4894 59.7195C39.1457 59.7093 38.0944 58.5166 38.1056 57.0555V49.3811C38.1165 47.92 39.2442 46.7438 40.588 46.754C41.8647 46.7636 42.8667 47.8969 42.8561 49.2851V57.2174C42.8456 58.609 41.7694 59.7291 40.4894 59.7195Z" fill="#A86504"/>
<path d="M39.7728 59.7138C38.429 59.7035 37.3776 58.5108 37.3888 57.0497V49.3754C37.3999 47.9144 38.5274 46.7382 39.8712 46.7484C41.1481 46.758 42.1499 47.8913 42.1395 49.2795V57.2118C42.1288 58.6033 41.0526 59.7235 39.7728 59.7138Z" fill="#FCD11A"/>
<path d="M39.7774 47.5552H38.75C38.7654 45.5271 40.296 43.9077 42.1615 43.9217H48.3695V45.0389H42.1529C40.8534 45.0291 39.7882 46.1424 39.7774 47.5552Z" fill="#C67C10"/>
<path d="M120.442 58.7198C120.627 58.6243 120.786 57.4671 120.578 57.4863C117.601 57.7614 112.335 57.4395 110.895 56.9666L110.95 59.7762C112.106 60.0798 118.316 59.8185 120.442 58.7198Z" fill="#FFD5C7"/>
<path d="M121.996 58.7212C122.029 58.8289 122.203 58.9095 122.469 59.0431C122.7 59.1589 123.051 59.3233 123.143 59.4823C123.242 59.6521 123.05 59.7279 122.751 59.6799C122.257 59.6006 121.146 59.3858 120.6 59.2443C119.658 59.0554 118.932 58.2208 119.095 57.4433C119.341 56.2774 119.517 55.8437 119.698 55.1341C119.742 54.9592 120.111 55.2205 120.158 55.4692C120.259 56.0017 120.121 56.1469 120.197 56.4176C120.271 56.6816 120.517 56.6855 120.781 56.5987C121.899 55.8383 122.443 55.2875 122.846 55.4684C123.156 55.6632 122.471 56.2856 121.661 56.9534C122.804 56.5961 123.759 56.3965 123.838 56.684C123.932 57.0243 123.08 57.4755 122.101 57.7187C123.031 57.9285 123.939 57.9819 123.954 58.3418C123.968 58.6645 121.903 58.4175 121.996 58.7212Z" fill="#FFD5C7"/>
<path d="M101.097 58.4391C103.028 57.4298 105.817 55.5812 106.212 55.491L107.431 58.4496C106.909 58.9025 103.753 59.5377 101.628 60.2369C101.318 60.3115 99.9279 59.6344 101.097 58.4391Z" fill="#E4A78E"/>
<path d="M102.537 60.9707C102.035 62.0378 101.325 62.917 100.939 62.6592C100.752 62.5338 100.267 62.2199 100.117 61.9008C99.7531 61.124 101.926 58.4183 102.371 58.5519C103.452 58.8773 103.039 59.9035 102.537 60.9707Z" fill="#F9951E"/>
<path d="M100.525 62.6437C101.393 63.5824 102.234 65.5655 106.037 66.0936C110.025 66.6472 111.81 65.5603 112.692 65.3544C112.692 65.3544 113.951 56.5595 113.883 54.5713C112.58 53.9884 107.176 52.7271 105.65 52.4846C104.483 53.8756 100.625 62.6987 100.525 62.6437Z" fill="#872C1A"/>
<path d="M101.252 65.6458C101.929 66.3787 104.868 66.4643 106.194 66.4822C108.56 66.5143 110.433 66.1502 111.487 65.7431C111.487 65.7431 111.707 58.6249 111.654 57.0726C110.637 56.6174 107.405 55.6804 106.213 55.491C105.302 56.5771 101.869 64.0398 101.252 65.6458Z" fill="#EF4848"/>
<path d="M103.063 55.9151C103.025 57.1372 104.845 58.8752 105.201 58.8645C105.201 58.8645 106.283 55.7862 106.237 55.4942C106.154 55.4477 103.063 55.9151 103.063 55.9151Z" fill="#EF4848"/>
<path d="M114.461 57.366C114.433 58.5883 112.781 60.7824 112.495 60.801C112.495 60.801 111.587 60.4931 111.262 59.8051C110.699 58.6117 111.212 57.0377 111.252 56.8542C112.365 57.0843 114.461 57.366 114.461 57.366Z" fill="#EF4848"/>
<path d="M110.881 54.8358L110.314 56.931C110.192 57.3815 109.476 57.5801 108.716 57.3743C107.955 57.1686 107.437 56.6364 107.559 56.1858L108.126 54.0906L110.881 54.8358Z" fill="#E4A78E"/>
<path d="M102.331 60.9424C102.353 60.9483 102.375 60.9517 102.398 60.9529C104.055 61.0262 105.286 59.91 105.771 58.771C105.837 58.6156 105.765 58.436 105.61 58.37C105.454 58.3015 105.274 58.376 105.208 58.5316C104.806 59.4762 103.79 60.4023 102.425 60.3418C102.256 60.3342 102.113 60.4651 102.106 60.6337C102.099 60.7795 102.196 60.9059 102.331 60.9424Z" fill="#403E42"/>
<path d="M111.99 63.2355C112.132 63.274 112.285 63.2049 112.348 63.0663C112.418 62.9124 112.349 62.7311 112.196 62.6615C111.182 62.2034 110.85 61.0398 110.971 60.0898C110.992 59.9223 110.874 59.7694 110.706 59.7481C110.538 59.7268 110.385 59.8455 110.364 60.013C110.185 61.4225 110.82 62.7107 111.943 63.2189C111.959 63.2258 111.99 63.2355 111.99 63.2355Z" fill="#403E42"/>
<path d="M112.094 56.8508C111.751 57.7483 111.513 59.7404 111.436 60.1522C111.356 60.5801 110.917 60.8435 110.492 60.7471C110.069 60.651 109.847 60.2362 109.898 59.8047C110.005 58.9053 110.208 57.4789 110.541 56.552L112.094 56.8508Z" fill="#403E42"/>
<path d="M111.812 56.789C111.563 57.4685 111.232 59.6969 111.173 60.0072C111.111 60.3296 110.809 60.5349 110.522 60.4699C110.237 60.4053 110.094 60.0981 110.136 59.7734C110.225 59.0966 110.539 57.2948 110.781 56.5935L111.812 56.789Z" fill="#FFAC48"/>
<path d="M105.622 55.1152C105.545 56.1065 104.867 57.8784 104.728 58.274C104.585 58.6848 104.834 59.1318 105.251 59.2596C105.666 59.387 106.065 59.1377 106.236 58.738C106.591 57.9046 107.022 56.7304 107.126 55.541L105.622 55.1152Z" fill="#403E42"/>
<path d="M105.851 55.1794C105.787 55.9467 105.065 57.912 104.958 58.2187C104.847 58.5375 105.033 58.8817 105.347 58.9779C105.659 59.0739 105.962 58.8787 106.093 58.5684C106.367 57.9215 106.813 56.5925 106.899 55.4766L105.851 55.1794Z" fill="#FFAC48"/>
<path d="M105.839 57.9779C105.823 58.0821 105.666 58.1404 105.507 58.116C105.348 58.0917 105.232 57.9874 105.248 57.8831C105.264 57.7788 105.406 57.7141 105.565 57.7386C105.724 57.7628 105.855 57.8737 105.839 57.9779Z" fill="#EAC7B0"/>
<path d="M106.288 57.2445C106.232 57.154 105.96 56.9305 105.73 56.788C106.424 56.9698 106.342 57.4816 106.458 57.4107C106.579 57.3364 106.682 57.0308 106.583 56.8684C106.513 56.754 106.141 56.4382 105.885 56.2878C106.436 56.3752 106.578 56.8546 106.666 56.7557C106.761 56.6496 106.751 56.4042 106.633 56.254C106.471 56.0462 105.669 55.6937 105.491 55.7561C105.286 55.8273 104.699 56.3418 104.277 56.8386C103.786 57.4161 103.366 58.1366 103.714 58.4568C104.411 59.0986 104.74 58.1747 105.05 57.6648C105.829 57.7775 105.595 58.1471 105.777 58.0786C105.911 58.0285 106.012 57.7146 105.921 57.5671C105.878 57.4975 105.707 57.3491 105.525 57.2195C106.122 57.3777 106.032 57.8247 106.144 57.7561C106.265 57.6815 106.378 57.392 106.288 57.2445Z" fill="#FFDDCF"/>
<path d="M104.143 58.585C102.632 60.1549 101.44 60.3177 101.44 60.3177C100.103 60.3946 100.202 58.5571 101.144 58.4353C101.957 58.4264 102.715 58.0882 103.754 57.5679C103.934 57.4781 104.284 58.4382 104.143 58.585Z" fill="#FFD5C7"/>
<path d="M103.383 42.5548C101.986 47.7171 105.094 51.0493 110.325 52.4642C115.557 53.8793 120.023 52.595 121.42 47.4329C122.817 42.2709 119.305 40.0343 114.073 38.6194C108.841 37.2044 104.78 37.393 103.383 42.5548Z" fill="#775640"/>
<path d="M120.935 52.3014C119.953 53.9982 117.857 54.6548 116.57 54.1065C115.282 53.5581 115.44 51.9866 116.163 50.2901C116.886 48.5934 118.518 47.6583 119.804 48.211C121.562 48.9666 121.858 50.7063 120.935 52.3014Z" fill="#FCC8B4"/>
<path d="M119.215 52.2524C118.898 52.9959 118.109 53.3724 117.453 53.093C116.797 52.8135 116.522 51.9838 116.839 51.2401C117.156 50.4961 117.945 50.1198 118.601 50.3991C119.258 50.6786 119.532 51.5083 119.215 52.2524Z" fill="#C68C75"/>
<path d="M100.691 46.8267C100.683 48.7869 102.162 50.4104 103.551 50.5858C104.94 50.7613 105.595 49.3243 105.827 47.495C106.058 45.6653 105.12 44.0351 103.731 43.8643C101.832 43.631 100.699 44.9843 100.691 46.8267Z" fill="#FCC8B4"/>
<path d="M102.296 47.677C102.195 48.4791 102.686 49.2019 103.394 49.2915C104.102 49.3807 104.758 48.8029 104.859 48.0007C104.961 47.1984 104.469 46.4758 103.762 46.3863C103.054 46.2968 102.398 46.8748 102.296 47.677Z" fill="#C68C75"/>
<path d="M105.984 39.4347C105.248 40.3528 103.065 49.6142 103.745 51.1716C104.466 52.8234 107.14 54.9362 109.169 55.4849C111.923 56.2297 115.11 55.8461 116.356 54.582C117.829 53.0859 120.483 45.0391 120.428 43.9811C120.243 40.407 117.509 39.5488 113.893 38.5711C110.511 37.6563 107.895 37.0527 105.984 39.4347Z" fill="#FFD5C7"/>
<path d="M113.66 52.3296C113.414 53.2377 113.92 54.1644 114.79 54.3997C115.66 54.635 116.564 54.0896 116.81 53.1815C117.055 52.2734 116.55 51.3464 115.68 51.1111C114.81 50.8758 113.906 51.4213 113.66 52.3296Z" fill="#F9BCB7"/>
<path d="M110.405 35.5275C114.803 35.5075 116.23 35.5649 119.668 39.9944C119.888 40.2779 118.861 41.3541 120.014 41.344C120.825 41.4413 121.98 42.8816 121.96 44.5349C121.94 46.2208 121.314 48.2975 120.499 48.4824C119.684 48.6673 118.734 47.3675 118.378 45.5801C118.198 44.6765 118.204 43.8223 118.359 43.1736C117.635 43.7272 116.644 44.2484 115.508 44.6345C112.926 45.5115 110.568 45.359 110.241 44.2944C110.165 44.047 110.206 43.7717 110.345 43.4846C110.214 43.482 110.082 43.4781 109.95 43.4724C105.559 43.28 102.102 41.3458 102.228 39.1525C102.353 36.958 106.993 35.5432 110.405 35.5275Z" fill="#775640"/>
<path d="M107.992 51.2188C107.746 52.1275 108.549 53.1355 109.786 53.4701C111.022 53.8046 112.224 53.3389 112.47 52.4299C112.716 51.5212 111.619 51.4077 110.399 51.0128C109.18 50.6182 108.237 50.3099 107.992 51.2188Z" fill="#630900"/>
<path d="M109.885 52.5735C110.554 52.7545 111.087 53.1095 111.344 53.4962C110.883 53.632 110.335 53.641 109.78 53.4908C109.155 53.3217 108.639 52.9832 108.309 52.5722C108.721 52.4245 109.292 52.413 109.885 52.5735Z" fill="#D36553"/>
<path d="M108.834 50.6018C109.256 50.6208 109.795 50.7955 110.403 50.9922C111.088 51.2139 111.734 51.3488 112.134 51.5807C111.858 51.8987 111.116 51.9902 110.316 51.7739C109.458 51.5418 108.836 51.0377 108.834 50.6018Z" fill="white"/>
<path d="M103.968 49.5745C103.723 50.4825 104.228 51.4093 105.098 51.6446C105.968 51.8799 106.872 51.3345 107.118 50.4263C107.364 49.5182 106.858 48.5913 105.988 48.356C105.118 48.1207 104.214 48.6663 103.968 49.5745Z" fill="#F9BCB7"/>
<path d="M116.573 45.9151C116.608 45.9244 116.645 45.9267 116.682 45.9205C116.823 45.8976 116.918 45.765 116.895 45.6243C116.818 45.1514 116.454 44.719 115.947 44.4955C115.417 44.2617 114.828 44.3 114.373 44.5972C114.253 44.6753 114.22 44.8351 114.298 44.9543C114.376 45.0737 114.536 45.1069 114.655 45.0293C114.968 44.8248 115.364 44.8025 115.739 44.9676C116.088 45.1215 116.336 45.4051 116.386 45.7079C116.403 45.8108 116.479 45.8895 116.573 45.9151Z" fill="#231F20"/>
<path d="M108.314 43.5516C108.408 43.5771 108.513 43.5475 108.58 43.4671C108.776 43.2307 109.133 43.1106 109.513 43.154C109.921 43.2008 110.25 43.4189 110.417 43.7535C110.481 43.8806 110.636 43.9325 110.763 43.8686C110.891 43.8049 110.943 43.65 110.879 43.5227C110.636 43.0365 110.147 42.7067 109.571 42.6415C109.02 42.5785 108.488 42.7689 108.182 43.1382C108.091 43.2479 108.107 43.4105 108.217 43.5014C108.246 43.5255 108.279 43.5422 108.314 43.5516Z" fill="#231F20"/>
<path d="M110.249 49.9216C110.285 49.9313 110.329 49.9162 110.345 49.8815C110.458 49.6347 110.708 49.5231 110.981 49.5969C111.256 49.6712 111.419 49.898 111.386 50.1611C111.381 50.2034 111.412 50.242 111.453 50.2469C111.496 50.2522 111.534 50.2221 111.539 50.18C111.581 49.8428 111.367 49.542 111.021 49.4482C110.677 49.355 110.349 49.5034 110.205 49.8173C110.188 49.8561 110.211 49.9039 110.249 49.9216Z" fill="#C68C75"/>
<path d="M112.889 49.9182C112.889 49.9182 114.429 50.9393 115.635 50.7577C116.147 50.6808 116.592 50.3882 116.844 49.7077C117.216 48.7029 116.327 47.7716 115.625 47.6114C114.847 47.4344 113.95 47.8749 113.393 48.6556C113.138 49.0139 112.955 49.4435 112.889 49.9182Z" fill="white"/>
<path d="M115.636 50.7579C116.106 50.6282 116.481 50.4373 116.781 49.764C117.065 49.1285 116.794 47.8849 115.588 47.6589C114.84 47.5187 114.068 47.8313 113.287 48.8171C113.576 48.3366 114.278 47.5695 115.151 47.4825C116.719 47.3265 117.457 48.7152 116.977 49.723C116.55 50.6181 115.854 50.7843 115.636 50.7579Z" fill="black"/>
<path d="M114.082 48.6161C113.72 49.0995 113.818 49.7849 114.301 50.147C114.785 50.5092 115.471 50.4109 115.833 49.9276C116.195 49.4444 116.097 48.7589 115.613 48.3967C115.13 48.0345 114.444 48.1328 114.082 48.6161Z" fill="#461D14"/>
<path d="M114.215 48.4711C114.114 48.6052 114.142 48.7953 114.276 48.8958C114.41 48.9964 114.6 48.969 114.701 48.8349C114.801 48.7008 114.774 48.5107 114.64 48.4102C114.506 48.3098 114.315 48.337 114.215 48.4711Z" fill="#FEFFFE"/>
<path d="M109.252 48.9354C109.252 48.9354 107.407 49.0407 106.457 48.2762C106.054 47.9518 105.816 47.4743 105.942 46.7599C106.128 45.7048 107.365 45.3485 108.053 45.5645C108.813 45.8033 109.366 46.6361 109.453 47.5906C109.492 48.0285 109.434 48.492 109.252 48.9354Z" fill="white"/>
<path d="M106.456 48.2759C106.115 47.927 105.887 47.573 105.968 46.8401C106.043 46.1485 106.905 45.211 108.06 45.6238C108.777 45.8797 109.286 46.5386 109.463 47.7836C109.456 47.223 109.236 46.2066 108.526 45.6916C107.251 44.7669 105.913 45.5938 105.819 46.7061C105.736 47.6942 106.254 48.1888 106.456 48.2759Z" fill="black"/>
<path d="M106.822 46.6525C106.46 47.1359 106.558 47.8211 107.042 48.1833C107.525 48.5456 108.211 48.4473 108.573 47.9639C108.935 47.4806 108.837 46.7951 108.354 46.4331C107.87 46.0709 107.184 46.1692 106.822 46.6525Z" fill="#461D14"/>
<path d="M106.955 46.5075C106.855 46.6416 106.882 46.8317 107.016 46.9323C107.15 47.0327 107.34 47.0055 107.441 46.8714C107.541 46.7373 107.514 46.5472 107.38 46.4466C107.246 46.3461 107.056 46.3734 106.955 46.5075Z" fill="#FEFFFE"/>
<path d="M103.461 45.4473C104.003 43.4458 106.073 42.2578 108.075 42.7994C110.077 43.3409 111.266 45.41 110.724 47.4116C110.182 49.4133 108.112 50.6013 106.11 50.0598C104.108 49.5183 102.919 47.4491 103.461 45.4473ZM103.772 45.5313C103.276 47.362 104.363 49.254 106.194 49.7493C108.025 50.2445 109.918 49.1582 110.414 47.3276C110.909 45.4973 109.822 43.6051 107.991 43.1099C106.16 42.6146 104.267 43.701 103.772 45.5313Z" fill="#913826"/>
<path d="M112.275 49.2273C112.291 49.2319 112.309 49.2337 112.327 49.2327C112.416 49.2268 112.483 49.1501 112.477 49.0614C112.451 48.6615 112.084 48.2786 111.545 48.0862C111.06 47.9134 110.39 47.8938 109.958 48.356C109.897 48.4208 109.9 48.5227 109.965 48.5834C110.03 48.6437 110.132 48.6404 110.192 48.5757C110.519 48.227 111.053 48.2513 111.436 48.3891C111.849 48.5361 112.138 48.815 112.156 49.0826C112.161 49.1531 112.21 49.2099 112.275 49.2273Z" fill="#913826"/>
<path d="M112.299 47.8373C112.841 45.8356 114.911 44.6478 116.913 45.1893C118.915 45.7309 120.104 47.8 119.562 49.8016C119.02 51.8033 116.95 52.9913 114.948 52.4498C112.946 51.9083 111.757 49.8391 112.299 47.8373ZM112.61 47.9213C112.114 49.7518 113.201 51.644 115.032 52.1393C116.863 52.6344 118.756 51.548 119.251 49.7175C119.747 47.8872 118.66 45.995 116.829 45.4998C114.998 45.0046 113.105 46.091 112.61 47.9213Z" fill="#913826"/>
<path d="M55.2466 55.6129C59.5315 55.6129 63.005 53.1458 63.005 50.1025C63.005 47.0591 59.5315 44.592 55.2466 44.592C50.9618 44.592 47.4883 47.0591 47.4883 50.1025C47.4883 53.1458 50.9618 55.6129 55.2466 55.6129Z" fill="#A35036"/>
<path d="M53.0527 64.9706C58.2383 67.1754 64.4175 65.2387 65.2227 64.6467C64.6221 58.76 64.8606 56.7574 63.7462 53.4253C62.78 53.3308 57.5702 53.3305 55.6523 53.5252C54.6801 53.5095 53.7931 54.1019 53.6066 55.246C53.3248 56.9737 53.2089 61.5813 53.0527 64.9706Z" fill="#B43083"/>
<path d="M53.5718 55.3399C53.6078 55.0977 53.6722 54.8801 53.7595 54.6872C54.0393 54.0691 54.8943 54.0743 55.1966 54.6813C55.3415 54.9728 55.4333 55.3132 55.4552 55.7C55.5655 57.628 55.3786 61.8614 55.1646 65.649C54.5158 65.4076 53.7339 65.0372 53.0898 64.6421C53.2358 61.1483 53.3064 57.121 53.5718 55.3399Z" fill="#E4478F"/>
<path d="M55.0917 65.6346C54.3474 65.3932 53.5005 65.2391 52.7617 64.8438C52.8163 63.7049 52.8665 62.2675 52.9136 61.1115C52.9172 61.0229 53.0503 60.9202 53.0959 61.0095C53.2178 61.2485 53.9642 61.5342 55.2874 61.3152C55.1951 62.6903 55.1824 64.2318 55.0917 65.6346Z" fill="#952978"/>
<path d="M49.8774 54.1392C49.6787 54.6076 49.4672 55.0594 49.2246 55.5067C52.036 56.8024 54.7321 58.0364 57.8204 58.434C57.8353 57.4749 57.9493 56.6582 58.0059 55.7006C55.1991 55.6603 52.5682 54.9273 49.8774 54.1392Z" fill="#FFD5C7"/>
<path d="M54.8016 55.1021C54.1104 56.2553 54.5731 58.5855 54.9481 58.7124C54.9481 58.7124 58.2492 59.2947 58.3898 55.543C57.2627 55.5772 54.8016 55.1021 54.8016 55.1021Z" fill="#56D8B0"/>
<path d="M47.4952 55.2174C47.4617 55.3281 47.291 55.4038 47.0285 55.5304C46.8013 55.6401 46.4555 55.7946 46.3632 55.9558C46.2647 56.128 46.4525 56.2159 46.746 56.1802C47.2309 56.1211 48.3217 55.9499 48.8578 55.8282C49.7836 55.6759 50.5037 54.841 50.3512 54.0236C50.1224 52.7978 49.9543 52.3378 49.7844 51.5902C49.7427 51.406 49.3787 51.6606 49.3299 51.9173C49.2257 52.4672 49.3598 52.625 49.2825 52.9034C49.207 53.1747 48.9659 53.1672 48.7074 53.0642C47.6199 52.2196 47.0928 51.6201 46.6957 51.7896C46.3904 51.9779 47.0546 52.6584 47.8414 53.392C46.7255 52.9659 45.791 52.713 45.7107 53.0087C45.6156 53.3586 46.4461 53.8688 47.403 54.1685C46.4896 54.3429 45.5985 54.3554 45.5802 54.7298C45.5638 55.0653 47.5896 54.9055 47.4952 55.2174Z" fill="#FFD5C7"/>
<path d="M71.0914 54.217C71.2901 54.6855 71.5016 55.1373 71.7444 55.5846C68.9328 56.8804 66.2367 58.1145 63.1485 58.5119C63.1336 57.5528 63.0196 56.7361 62.9629 55.7785C65.7697 55.7382 68.4006 55.0051 71.0914 54.217Z" fill="#FFD5C7"/>
<path d="M66.17 55.1797C66.8613 56.3329 66.3985 58.6632 66.0236 58.7901C66.0236 58.7901 62.7224 59.3723 62.582 55.6207C63.709 55.6549 66.17 55.1797 66.17 55.1797Z" fill="#56D8B0"/>
<path d="M55.1484 65.6688C59.1209 66.4451 63.8972 65.9178 65.0399 64.8194C64.9834 62.8684 63.8767 56.8661 63.4626 55.5907C62.44 55.63 58.5222 55.6638 57.4521 55.5806C56.8578 56.6625 56.2998 64.3538 55.1484 65.6688Z" fill="#56D8B0"/>
<path d="M61.673 53.8389L61.7151 55.8784C61.7243 56.3171 61.117 56.6854 60.3589 56.7011C59.6008 56.7168 58.979 56.3738 58.9698 55.9353L58.9277 53.8955L61.673 53.8389Z" fill="#E4A78E"/>
<path d="M55.795 61.393C55.6482 61.4056 55.5095 61.3103 55.4723 61.1627C55.4308 60.9988 55.5304 60.8325 55.6942 60.7912C56.7734 60.5196 57.3068 59.4323 57.3567 58.4754C57.3654 58.3064 57.5089 58.1767 57.6783 58.1857C57.8471 58.1944 57.9769 58.3383 57.968 58.5072C57.8942 59.9272 57.0404 61.0833 55.8439 61.3848C55.8278 61.3889 55.795 61.393 55.795 61.393Z" fill="#952978"/>
<path d="M56.8262 55.0858C57.0051 56.0306 56.8856 58.0348 56.8886 58.454C56.8915 58.8896 57.2771 59.2269 57.7128 59.2072C58.1469 59.1875 58.4393 58.8185 58.4652 58.3844C58.5192 57.4794 58.5718 56.0386 58.4087 55.0667L56.8262 55.0858Z" fill="#FB71BC"/>
<path d="M57.1172 55.0757C57.2413 55.7889 57.1721 58.0424 57.1755 58.3586C57.1792 58.687 57.4404 58.9428 57.7339 58.9297C58.0265 58.9164 58.2221 58.6392 58.2378 58.312C58.2709 57.6297 58.2804 55.7993 58.1667 55.0657L57.1172 55.0757Z" fill="#BC3787"/>
<path d="M64.6838 61.7354C64.8303 61.7528 64.972 61.6621 65.0139 61.5159C65.0606 61.3533 64.9345 61.2445 64.8039 61.1373C64.3443 60.7595 64.0609 59.7599 64.0418 58.8018C64.0385 58.6327 63.8992 58.4986 63.7296 58.502C63.5605 58.5053 63.4342 58.6451 63.4296 58.8139C63.3964 60.0288 63.802 61.2262 64.6352 61.7258C64.6496 61.7344 64.6838 61.7354 64.6838 61.7354Z" fill="#952978"/>
<path d="M62.6465 55.2966C62.8557 56.2352 62.8006 58.2422 62.817 58.661C62.834 59.0963 63.2303 59.4211 63.665 59.3874C64.0985 59.3539 64.3787 58.9756 64.3907 58.5409C64.4156 57.6347 64.422 56.1928 64.2275 55.2266L62.6465 55.2966Z" fill="#FB71BC"/>
<path d="M62.9375 55.2768C63.0844 55.9856 63.0877 58.24 63.1013 58.5559C63.1156 58.8842 63.3847 59.1314 63.6777 59.1089C63.9697 59.0863 64.1562 58.803 64.1616 58.4753C64.1726 57.7924 64.1233 55.9625 63.9862 55.2329L62.9375 55.2768Z" fill="#BC3787"/>
<path d="M73.4721 55.2951C73.5057 55.4058 73.6766 55.4814 73.9388 55.608C74.166 55.7177 74.5119 55.8723 74.6042 56.0334C74.7028 56.2057 74.5149 56.2936 74.2214 56.2579C73.7365 56.1988 72.6457 56.0275 72.1096 55.9058C71.1839 55.7537 70.4637 54.9187 70.6162 54.1012C70.845 52.8754 71.013 52.4155 71.1829 51.6678C71.2247 51.4836 71.5888 51.7382 71.6375 51.995C71.7417 52.5448 71.6077 52.7027 71.685 52.981C71.7603 53.2525 72.0016 53.2448 72.2599 53.1418C73.3474 52.2972 73.8746 51.6978 74.2717 51.8672C74.577 52.0556 73.9127 52.736 73.126 53.4696C74.2418 53.0436 75.1763 52.7906 75.2568 53.0863C75.3518 53.4362 74.5215 53.9464 73.5643 54.2461C74.4777 54.4205 75.3688 54.4331 75.3872 54.8074C75.4037 55.143 73.3778 54.9831 73.4721 55.2951Z" fill="#FFD5C7"/>
<path d="M69.5996 47.5276C69.6446 49.4913 68.7525 51.0185 67.8871 51.1009C67.0218 51.1833 66.5821 49.6998 66.4 47.8515C66.2177 46.0031 66.7712 44.4333 67.6369 44.3554C68.8205 44.2494 69.5568 45.681 69.5996 47.5276Z" fill="#FCC8B4"/>
<path d="M68.5832 48.6228C68.4168 49.4092 67.9124 49.9028 67.4567 49.7246C67.0005 49.5464 66.7659 48.7641 66.9325 47.9775C67.0991 47.1905 67.6031 46.6973 68.059 46.8755C68.5149 47.0538 68.7495 47.8359 68.5832 48.6228Z" fill="#E4A78E"/>
<path d="M67.6609 43.1051C68.2904 49.1586 64.3507 52.3294 59.0532 52.8799C53.7557 53.4304 49.5873 51.1113 48.9578 45.0579C48.3282 39.0047 52.0672 37.1952 57.3647 36.6447C62.6623 36.0942 67.0312 37.0518 67.6609 43.1051Z" fill="#A35036"/>
<path d="M66.2695 40.0271C66.4864 40.1961 66.6092 40.4571 66.6146 41.072C66.6556 45.7352 67.7167 46.1199 68.0139 48.9764C68.3063 51.7875 66.7141 53.6995 64.4717 54.4437C62.2826 55.1702 56.438 56.0656 52.769 50.6762C51.2121 48.3888 50.7413 43.3246 51.0183 42.3053C51.9546 38.8631 53.7514 39.0133 58.0612 38.5655C62.0924 38.1464 63.8098 38.1112 66.2695 40.0271Z" fill="#FFD5C7"/>
<path d="M53.437 44.9782C53.9418 46.7558 54.216 48.2414 53.0556 49.3899C51.7023 50.7295 49.8878 46.7759 49.5885 43.8981C49.2891 41.0199 51.1067 38.6756 54.7982 38.5456C56.7014 38.4786 52.082 40.2077 53.437 44.9782Z" fill="#A35036"/>
<path d="M59.0328 51.9393C59.1422 52.9908 58.378 53.9318 57.3261 54.0412C56.2741 54.1506 55.3325 53.3866 55.2233 52.3352C55.1139 51.2836 55.8782 50.3424 56.93 50.233C57.9819 50.1239 58.9235 50.8877 59.0328 51.9393Z" fill="#FFC6C5"/>
<path d="M67.328 50.7608C67.4194 51.6392 66.9223 52.411 66.2176 52.4842C65.5132 52.5574 64.8679 51.9044 64.7765 51.0259C64.6851 50.1474 65.1822 49.3757 65.8867 49.3025C66.5914 49.2293 67.2368 49.8822 67.328 50.7608Z" fill="#FFC6C5"/>
<path d="M56.4746 48.06C56.4684 48.9 57.3373 49.5874 58.4154 49.5954C59.4936 49.6036 60.3728 48.9293 60.379 48.0894C60.3854 47.2496 59.5165 46.562 58.4384 46.554C57.3602 46.5458 56.481 47.2201 56.4746 48.06Z" fill="#F9FEFF"/>
<path d="M57.3041 49.3139C56.8206 49.0372 56.5434 48.5222 56.5469 48.0603C56.5528 47.2601 57.3572 46.5792 58.3954 46.5876C58.9016 46.5914 59.4879 46.6986 60.1411 47.3472C59.6899 46.6089 58.7237 46.3413 57.9764 46.4339C57.236 46.5257 56.4651 46.9875 56.3859 47.7769C56.3172 48.4611 56.7661 49.1383 57.3041 49.3139Z" fill="#602220"/>
<path d="M57.254 47.7882C57.0912 48.3641 57.4263 48.9628 58.0025 49.1254C58.5786 49.2879 59.1774 48.9529 59.3401 48.377C59.5028 47.8013 59.1676 47.2027 58.5915 47.0401C58.0156 46.8775 57.4167 47.2123 57.254 47.7882Z" fill="#602220"/>
<path d="M57.32 47.6078C57.2749 47.7676 57.3678 47.9337 57.5277 47.9789C57.6875 48.0239 57.8536 47.931 57.8988 47.7712C57.9439 47.6114 57.851 47.4454 57.6911 47.4003C57.5313 47.3552 57.3652 47.4482 57.32 47.6078Z" fill="#FEFFFE"/>
<path d="M66.8418 46.9825C67.0061 47.8046 66.4219 48.6431 65.537 48.8552C64.652 49.0672 63.8015 48.5727 63.6371 47.7506C63.4727 46.9284 64.0569 46.0901 64.9418 45.878C65.8268 45.6658 66.6775 46.1603 66.8418 46.9825Z" fill="#F9FEFF"/>
<path d="M66.3986 48.3685C66.7437 48.0056 66.8741 47.4484 66.7837 46.9962C66.6271 46.2128 65.8367 45.6977 64.9846 45.9025C64.5694 46.0021 64.1076 46.2181 63.6934 46.9777C63.9245 46.1685 64.6682 45.7233 65.3 45.6725C65.9264 45.6222 66.6476 45.9289 66.8624 46.6879C67.0486 47.3456 66.8078 48.0944 66.3986 48.3685Z" fill="#602220"/>
<path d="M64.071 47.0836C63.9432 47.6559 64.2356 48.2589 64.7242 48.4307C65.2129 48.6023 65.7127 48.2776 65.8406 47.7055C65.9683 47.1332 65.676 46.5302 65.1873 46.3584C64.6987 46.1868 64.1989 46.5115 64.071 47.0836Z" fill="#602220"/>
<path d="M64.1236 46.9045C64.088 47.0634 64.1693 47.2307 64.3048 47.2783C64.4404 47.326 64.579 47.2358 64.6145 47.0771C64.6501 46.9182 64.5688 46.7509 64.4333 46.7034C64.2977 46.6558 64.1591 46.7458 64.1236 46.9045Z" fill="#FEFFFE"/>
<path d="M66.6183 43.7632C66.6795 43.7585 66.7384 43.7279 66.7772 43.6742C66.8471 43.5774 66.8252 43.442 66.7287 43.3721C66.0243 42.8622 64.85 42.8212 63.9348 43.2743C63.8276 43.3275 63.784 43.4574 63.837 43.5646C63.8901 43.6718 64.0207 43.7152 64.1269 43.6625C64.8927 43.2831 65.9023 43.3083 66.4743 43.7226C66.5181 43.7541 66.5688 43.767 66.6183 43.7632Z" fill="#874D3C"/>
<path d="M56.3215 44.8329C56.3749 44.8288 56.4262 44.8052 56.4647 44.7626C56.94 44.2401 57.9214 44.0068 58.7494 44.221C58.8688 44.2514 58.9834 44.1809 59.0133 44.0654C59.0433 43.9498 58.9737 43.8316 58.8582 43.8018C57.8714 43.5459 56.729 43.8282 56.1444 44.4715C56.0637 44.5601 56.0704 44.697 56.1587 44.7774C56.2049 44.8191 56.264 44.8374 56.3215 44.8329Z" fill="#874D3C"/>
<path d="M62.9401 49.3935C62.9034 49.3972 62.8623 49.3754 62.8522 49.3389C62.7809 49.0792 62.5542 48.9301 62.2746 48.9592C61.9935 48.9884 61.7978 49.1849 61.7876 49.4478C61.7858 49.4899 61.7501 49.523 61.7082 49.5212C61.6661 49.5195 61.6332 49.484 61.6348 49.4419C61.6479 49.1049 61.9045 48.8439 62.2589 48.8071C62.6113 48.7704 62.9091 48.9679 62.9998 49.2983C63.0109 49.3391 62.9807 49.3823 62.9401 49.3935Z" fill="#C68C75"/>
<path d="M48.923 50.7646C49.8022 52.6134 51.9248 53.4718 53.3073 53.0074C54.6903 52.5432 54.6557 50.8933 54.0449 49.0661C53.4341 47.2389 51.8163 46.1294 50.4354 46.5982C48.5476 47.2392 48.0968 49.0264 48.923 50.7646Z" fill="#FFD5C7"/>
<path d="M51.304 50.9724C51.7813 51.7814 52.793 51.9866 53.1684 51.6934C53.5906 51.3634 53.5106 50.8554 53.2015 50.0378C52.8402 49.0833 52.3149 48.6052 51.6732 48.9256C51.0062 49.259 50.7422 50.0207 51.304 50.9724Z" fill="#E4A78E"/>
<path d="M64.7784 51.3634C64.6955 52.4996 63.3751 53.3292 61.8291 53.2166C60.2833 53.104 59.1644 51.6425 59.1798 50.9553C59.2095 49.6439 60.5805 50.309 62.132 50.3459C63.6817 50.3828 64.8613 50.2274 64.7784 51.3634Z" fill="#5B0000"/>
<path d="M62.135 50.2961C61.339 50.2771 60.5904 50.1022 60.0391 50.103C60.2677 50.5782 61.0502 50.9699 62.0061 51.0398C62.9607 51.1099 63.7914 50.8378 64.0879 50.4022C63.6009 50.2918 62.914 50.3147 62.135 50.2961Z" fill="white"/>
<path d="M62.4183 52.0906C61.4643 51.9857 60.6009 52.1874 60.168 52.5652C60.6165 52.9218 61.1839 53.198 61.8255 53.2447C62.7025 53.3087 63.5077 53.0744 64.0644 52.6547C63.6705 52.3762 63.0901 52.1642 62.4183 52.0906Z" fill="#D36553"/>
<path d="M53.6687 40.8159C53.7637 40.9446 54.368 43.4166 54.6479 44.4754C54.8489 45.2355 54.2014 48.8282 50.7734 47.5212C54.778 46.1801 49.8247 43.1032 53.6687 40.8159Z" fill="#A35036"/>
<path d="M67.2075 37.955C66.2463 38.5288 64.907 38.059 64.5067 37.9188C65.1636 36.9575 64.7149 35.6971 63.723 35.4885C65.0083 37.8281 55.335 36.619 53.3398 39.8334C53.4201 39.8226 53.2764 40.5409 53.9397 41.0178C54.6598 42.1252 56.7113 43.8194 60.3485 43.3672C59.6406 43.1499 58.8986 42.6691 58.2609 42.2924C58.4873 42.3277 58.7171 42.3891 58.9545 42.3832C64.9105 42.2347 67.6311 40.4179 67.2075 37.955Z" fill="#A35036"/>
<path d="M50.0742 46.0864C50.0742 46.4504 49.7734 46.7456 49.4022 46.7456C49.0312 46.7456 48.7305 46.4504 48.7305 46.0864C48.7305 45.7223 49.0312 45.427 49.4022 45.427C49.7734 45.427 50.0742 45.7223 50.0742 46.0864Z" fill="#FFC151"/>
<path d="M51.3125 45.7585C51.3125 46.1227 51.0117 46.4178 50.6405 46.4178C50.2695 46.4178 49.9688 46.1227 49.9688 45.7585C49.9688 45.3944 50.2695 45.0991 50.6405 45.0991C51.0117 45.0991 51.3125 45.3944 51.3125 45.7585Z" fill="#B43083"/>
<path d="M95.0208 65.6546C94.1125 65.845 92.4156 66.5734 88.794 66.4309C85.1431 66.2871 84.48 65.8309 83.7402 65.4632C83.7402 65.4632 84.0376 57.7288 84.6444 56.2407C85.9808 56.1127 92.0947 56.311 93.5396 56.4942C94.2117 57.8272 94.9158 65.6723 95.0208 65.6546Z" fill="#9E3720"/>
<path d="M95.6932 60.4972C94.1076 59.4016 91.8639 57.4799 91.5263 57.3579L90.1328 59.8188C90.5417 60.2728 93.2427 61.1729 95.0316 62.0172C95.2955 62.1166 96.5893 61.6731 95.6932 60.4972Z" fill="#E4A78E"/>
<path d="M80.8152 60.709C82.3828 59.5877 84.5976 57.6259 84.9331 57.4985L86.3638 59.9401C85.9625 60.4009 83.2764 61.3448 81.5017 62.2181C81.2393 62.3217 79.9385 61.8994 80.8152 60.709Z" fill="#E4A78E"/>
<path d="M94.0535 65.8742C91.7679 66.5917 86.8597 66.9579 85.0713 66.0001C85.1364 64.5626 84.7419 59.1423 85.4074 57.158C87.0271 57.0223 90.0015 57.1536 91.5248 57.3581C92.4279 61.8597 93.1116 64.0434 94.0535 65.8742Z" fill="#FF69A6"/>
<path d="M90.5457 65.0139C91.4674 64.9663 93.3635 64.6329 94.519 63.7168C93.5958 62.2822 91.9562 59.0455 91.3727 57.2966C90.7878 57.1618 90.1231 57.1532 89.7598 57.1533C90.3629 60.3025 90.1964 62.9207 90.5457 65.0139Z" fill="#6D54C6"/>
<path d="M88.1839 65.5185C87.2645 65.4377 85.6782 65.4217 84.5566 64.4642C84.8477 62.8082 84.7637 58.8481 85.4101 57.1213C85.9996 57.0078 86.6642 57.0232 87.0273 57.0365C87.4991 60.9545 88.0846 63.0563 88.1839 65.5185Z" fill="#6D54C6"/>
<path d="M87.2012 55.7217V57.5612C87.202 57.9561 87.7787 58.275 88.4867 58.2735C89.1949 58.2718 89.7659 57.9502 89.7651 57.5553V55.7217L87.2012 55.7217Z" fill="#E4A78E"/>
<path d="M94.2135 58.0187C94.1021 59.0726 92.3115 60.3925 92.0019 60.3493C92.0019 60.3493 91.4261 57.6012 91.5008 57.3546C91.5781 57.3227 94.2135 58.0187 94.2135 58.0187Z" fill="#6D54C6"/>
<path d="M82.4844 58.3377C82.6338 59.5315 85.0866 60.7328 85.438 60.6789C85.438 60.6789 85.5256 57.4016 85.4355 57.123C85.3465 57.088 82.4844 58.3377 82.4844 58.3377Z" fill="#6D54C6"/>
<path d="M93.7998 62.8852C93.779 62.8865 93.7577 62.8855 93.7362 62.882C92.1906 62.631 91.2677 61.3627 91.0388 60.217C91.0077 60.0606 91.1091 59.9085 91.2655 59.8774C91.4221 59.844 91.574 59.9474 91.6051 60.1038C91.795 61.0542 92.5563 62.1056 93.8289 62.3121C93.9863 62.3376 94.0931 62.486 94.0676 62.6433C94.0457 62.7792 93.9318 62.8775 93.7998 62.8852Z" fill="#E5912E"/>
<path d="M91.9692 57.2294L90.5508 57.1777L90.5096 57.1721C90.3858 58.2782 90.5536 59.4268 90.7191 60.2546C90.7994 60.6567 91.1205 60.9638 91.5285 60.926C91.9382 60.888 92.2548 60.523 92.2011 60.1156C92.153 59.7496 91.9051 58.1932 91.9692 57.2294Z" fill="#AF4D22"/>
<path d="M90.7273 57.1843C90.6077 58.22 90.7582 59.4892 90.8835 60.1253C90.945 60.4372 91.1872 60.676 91.4947 60.6475C91.8033 60.6188 92.0412 60.3365 92.0001 60.0205C91.9634 59.739 91.7131 58.044 91.7465 57.2215L90.7273 57.1843Z" fill="#F9A02B"/>
<path d="M91.3357 59.3491C91.4265 59.4215 91.3962 59.0193 91.9369 58.9452C91.7636 59.0395 91.5968 59.151 91.5518 59.2075C91.4563 59.3272 91.511 59.6136 91.6225 59.672C91.7747 59.7519 91.6098 59.402 92.3054 59.3878C92.5226 59.869 92.7112 60.7157 93.3926 60.2281C93.7325 59.9848 93.4417 59.3067 93.074 58.7466C92.7578 58.2647 92.2977 57.7493 92.1262 57.6645C91.9762 57.5905 91.234 57.8129 91.0692 57.9776C90.9501 58.0967 90.9144 58.311 90.986 58.4145C91.0527 58.5108 91.2296 58.1055 91.7223 58.0885C91.4815 58.1928 91.121 58.4296 91.0469 58.5224C90.9419 58.6541 90.9993 58.9334 91.0977 59.012C91.1917 59.0868 91.1757 58.6287 91.8042 58.5443C91.5867 58.6444 91.3236 58.8111 91.2649 58.8846C91.1696 59.0043 91.2373 59.2707 91.3357 59.3491Z" fill="#FFD5C7"/>
<path d="M93.0022 60.2944C94.158 61.8365 95.1865 62.1087 95.1865 62.1087C96.3517 62.3214 96.4649 60.6979 95.6508 60.4886C94.9384 60.3927 94.3097 60.0134 93.4541 59.4441C93.3062 59.3457 92.8942 60.1503 93.0022 60.2944Z" fill="#FFD5C7"/>
<path d="M83.677 57.4768L83.7739 57.399C83.8404 57.3459 83.9372 57.3566 83.9905 57.423L84.2757 57.7792C84.3289 57.8455 84.3181 57.9424 84.2518 57.9955L84.1548 58.0733C84.0883 58.1263 83.9915 58.1157 83.9382 58.0492L83.6529 57.6931C83.5998 57.6267 83.6105 57.5298 83.677 57.4768Z" fill="white"/>
<path d="M83.8691 57.9838L84.2207 57.7024L84.1478 57.6114L83.7962 57.8928L83.8691 57.9838Z" fill="#BCB1B8"/>
<path d="M81.3745 54.8488L81.7143 54.5768L81.0371 54.073L81.3745 54.8488Z" fill="#E5C6B7"/>
<path d="M81.1428 54.3186L81.2518 54.2313L81.0371 54.073L81.1428 54.3186Z" fill="#161616"/>
<path d="M81.7011 54.5595L81.3496 54.8408L83.7962 57.8945L84.1477 57.6131L81.7011 54.5595Z" fill="#EA83C1"/>
<path d="M83.3603 56.6045C83.2662 56.6063 82.974 56.7139 82.7624 56.8257C83.2112 56.3781 83.5654 56.6692 83.5631 56.5492C83.5606 56.4233 83.3735 56.2079 83.2051 56.2112C83.0862 56.2137 82.679 56.356 82.4498 56.4837C82.7629 56.1028 83.1924 56.2087 83.1563 56.0974C83.1176 55.9776 82.9257 55.8757 82.7587 55.8978C82.5276 55.9284 81.8999 56.3825 81.8676 56.5466C81.8306 56.7342 81.9603 57.4127 82.1509 57.9566C82.3723 58.5889 82.7342 59.2319 83.1342 59.1099C83.9357 58.8655 83.3778 58.2012 83.1275 57.7363C83.5617 57.1927 83.7393 57.5364 83.7684 57.3669C83.7897 57.243 83.5955 57.0254 83.4425 57.0285C83.3701 57.03 83.1802 57.0945 83 57.1747C83.3876 56.7905 83.6885 57.0591 83.6862 56.943C83.6838 56.8172 83.5133 56.6014 83.3603 56.6045Z" fill="#FFD5C7"/>
<path d="M83.3016 59.1221C83.104 60.6449 81.8638 61.9344 81.8638 61.9344C80.8897 62.739 79.8588 61.4813 80.6097 60.5871C81.1966 60.0202 81.8596 59.5596 82.3649 58.5644C82.4522 58.3925 83.3271 58.9256 83.3016 59.1221Z" fill="#FFD5C7"/>
<path d="M80.3078 50.9288C80.4682 52.6316 81.891 53.915 83.1117 53.9487C84.3324 53.9824 84.7791 52.6789 84.824 51.0706C84.8684 49.4623 83.915 48.1272 82.694 48.0974C81.0253 48.0569 80.1571 49.3286 80.3078 50.9288Z" fill="#FAC7B3"/>
<path d="M81.6861 51.515C81.6668 52.2203 82.1553 52.8058 82.7775 52.8232C83.3995 52.8404 83.9198 52.2827 83.9391 51.5774C83.9586 50.8722 83.4701 50.2867 82.8482 50.2694C82.2258 50.2521 81.7057 50.81 81.6861 51.515Z" fill="#E4A68D"/>
<path d="M98.009 53.8972C97.3018 55.4546 95.5376 56.2036 94.3728 55.8373C93.2078 55.471 93.2111 54.0931 93.6939 52.5583C94.1768 51.0236 95.5139 50.0724 96.6779 50.4424C98.2685 50.9486 98.6739 52.4337 98.009 53.8972Z" fill="#FAC7B3"/>
<path d="M96.4255 53.9869C96.2139 54.6598 95.561 55.054 94.9672 54.8673C94.3735 54.6806 94.0639 53.9837 94.2756 53.3107C94.4874 52.6379 95.1403 52.2438 95.7339 52.4303C96.3276 52.617 96.6373 53.3139 96.4255 53.9869Z" fill="#E4A68D"/>
<path d="M98.2485 48.5462C97.3501 53.9 93.5552 55.7397 88.8066 54.9434C84.0582 54.1471 80.9799 51.1551 81.8784 45.8011C82.7769 40.4472 86.4679 39.7879 91.2163 40.5841C95.9647 41.3804 99.147 43.1924 98.2485 48.5462Z" fill="#B74D23"/>
<path d="M96.8595 46.0859C97.1141 47.0513 95.5173 54.9214 94.4171 55.8713C93.2503 56.879 89.1203 57.3383 88.2918 57.1994C87.4042 57.0506 83.7111 55.3986 83.1764 53.9865C82.5441 52.3153 83.3307 45.2079 83.7546 44.4172C85.1873 41.7467 87.667 42.0645 90.8895 42.6049C93.9043 43.1103 96.1989 43.5809 96.8595 46.0859Z" fill="#FBD3C7"/>
<path d="M94.5468 55.1261C94.405 55.9708 93.6051 56.5406 92.7599 56.399C91.9151 56.2574 91.3448 55.4577 91.4864 54.6129C91.6283 53.7681 92.4285 53.1983 93.2732 53.34C94.1185 53.4816 94.6885 54.2813 94.5468 55.1261Z" fill="#FFC0C0"/>
<path d="M86.4217 53.763C86.28 54.6078 85.4801 55.1778 84.6349 55.036C83.7901 54.8943 83.2198 54.0946 83.3614 53.2499C83.5033 52.4053 84.3035 51.8353 85.1482 51.9769C85.9933 52.1185 86.5635 52.9184 86.4217 53.763Z" fill="#FFC6C5"/>
<path d="M89.7442 52.2419C89.7086 52.236 89.6693 52.2041 89.6693 52.1669C89.6698 51.9028 89.4945 51.7027 89.2226 51.6572C88.9494 51.6113 88.713 51.7458 88.6347 51.9917C88.6219 52.031 88.5797 52.0529 88.5405 52.0403C88.501 52.0277 88.4792 51.9856 88.4919 51.9461C88.5921 51.6311 88.903 51.4515 89.2475 51.5093C89.59 51.5667 89.8198 51.831 89.8193 52.167C89.8192 52.2085 89.7856 52.2419 89.7442 52.2419Z" fill="#C68C75"/>
<path d="M91.4686 54.1114C91.3158 55.0932 90.1059 55.7204 88.7663 55.5121C87.4269 55.3036 86.4647 54.3388 86.6175 53.3569C86.7704 52.3751 87.8801 52.7366 89.2299 52.8796C90.5779 53.0223 91.6215 53.1294 91.4686 54.1114Z" fill="#630900"/>
<path d="M89.0547 54.6044C88.3307 54.4918 87.6625 54.6052 87.248 54.868C87.6353 55.1967 88.1613 55.4405 88.7626 55.5341C89.4396 55.6394 90.0839 55.5345 90.5799 55.28C90.2445 54.9605 89.6975 54.7045 89.0547 54.6044Z" fill="#D36553"/>
<path d="M90.9202 53.1548C90.504 52.992 89.9077 52.9289 89.2358 52.8577C88.4775 52.7775 87.7949 52.6303 87.3086 52.6822C87.4388 53.1071 88.1175 53.5142 88.9838 53.6489C89.9128 53.7934 90.7311 53.5743 90.9202 53.1548Z" fill="white"/>
<path d="M99.1286 50.2386C98.2181 49.7728 97.7015 49.052 97.8435 47.3959C98.4083 47.3327 98.6904 47.1912 99.2433 47.0636C97.2491 46.2783 97.9238 43.188 95.3896 41.5789C91.1912 39.3111 87.0159 40.1607 85.7726 40.746C83.4813 41.8245 83.0068 43.5722 82.6157 45.5471C82.1061 47.3184 81.6637 47.81 80.7266 48.1206C81.647 48.5221 82.2436 48.3222 82.6089 48.0081C82.3791 49.1332 81.8391 49.4371 81.2298 49.8782C82.7114 50.1266 84.0096 48.9619 84.414 47.8495C84.8632 46.6139 84.2537 45.0983 84.501 44.6223C84.6443 44.3467 85.8239 42.7957 86.2373 42.8293C87.1381 42.9028 87.7293 46.326 90.9129 46.63C89.7177 45.7523 89.1414 44.6359 88.6117 43.0774C88.842 43.2633 89.069 43.483 89.2889 43.7437C91.6043 46.4904 93.9362 47.3765 96.2015 47.4236C96.0017 49.868 95.2303 51.0613 97.9519 52.3041C97.7352 51.9377 97.4808 50.8812 97.5213 50.0736C97.8011 50.3067 98.3359 50.5442 99.1286 50.2386Z" fill="#B74D23"/>
<path d="M95.0778 47.7648C95.0271 47.764 94.9769 47.7451 94.9372 47.7082C94.4291 47.2377 93.4509 47.0917 92.6598 47.37C92.5503 47.4092 92.4285 47.3512 92.3891 47.2402C92.3501 47.1297 92.4082 47.0085 92.519 46.9694C93.4628 46.6379 94.6016 46.8177 95.226 47.3972C95.312 47.477 95.3171 47.6111 95.2372 47.697C95.1946 47.7432 95.1361 47.766 95.0778 47.7648Z" fill="#B74D23"/>
<path d="M84.961 46.1045C84.9049 46.088 84.8559 46.0488 84.8292 45.992C84.7788 45.8861 84.824 45.7595 84.9298 45.7092C85.7 45.3441 86.84 45.5146 87.6406 46.1135C87.7345 46.1841 87.7535 46.3171 87.6832 46.4107C87.6125 46.5049 87.4793 46.5239 87.3859 46.4535C86.7153 45.9503 85.7377 45.7951 85.112 46.0926C85.063 46.1158 85.0094 46.1188 84.961 46.1045Z" fill="#B74D23"/>
<path d="M85.1602 50.6698C85.1845 50.2824 85.358 49.9276 85.6493 49.6706C85.9402 49.4139 86.314 49.2857 86.7014 49.3098C87.0895 49.3333 87.4438 49.5074 87.7011 49.7985C87.958 50.0893 88.0861 50.4631 88.062 50.8504L87.6381 50.8242C87.6552 50.5498 87.5645 50.2855 87.3825 50.0795C87.2009 49.8737 86.9479 49.7502 86.6752 49.7337C86.4008 49.7165 86.1363 49.8072 85.9302 49.989C85.7243 50.1709 85.6013 50.4221 85.5842 50.6962L85.1602 50.6698Z" fill="#560802"/>
<path d="M93.6652 51.9208L93.2558 51.8073C93.329 51.5427 93.295 51.2651 93.1595 51.0261C93.0242 50.787 92.8037 50.615 92.5389 50.5418C91.9924 50.3864 91.424 50.7121 91.2726 51.2585L90.8633 51.145C91.0774 50.3731 91.8748 49.9222 92.6523 50.1324C93.0263 50.236 93.3379 50.4792 93.5292 50.8168C93.7205 51.1547 93.7685 51.5466 93.6652 51.9208Z" fill="#560802"/>
<path d="M92.9044 53.9518C91.1572 53.6588 89.9741 51.9994 90.2673 50.2528C90.5603 48.5062 92.2203 47.3236 93.9675 47.6166C95.7146 47.9095 96.8978 49.5689 96.6048 51.3155C96.3116 53.0622 94.6515 54.2447 92.9044 53.9518ZM93.9221 47.8876C92.3242 47.6197 90.8062 48.701 90.5382 50.2982C90.2702 51.8955 91.352 53.4129 92.9498 53.6808C94.5477 53.9488 96.0657 52.8673 96.3337 51.27C96.6017 49.6728 95.5199 48.1554 93.9221 47.8876Z" fill="#0D8E9B"/>
<path d="M88.4154 51.1091L88.3728 51.0946C88.306 51.0584 88.2813 50.975 88.3174 50.9084C88.4806 50.6074 88.9012 50.4406 89.3889 50.4835C89.8267 50.5221 90.3539 50.7456 90.5244 51.2583C90.5486 51.3303 90.5097 51.4081 90.4376 51.432C90.3657 51.4558 90.2881 51.4171 90.264 51.3451C90.1351 50.9583 89.7116 50.7868 89.365 50.7571C88.9921 50.7243 88.6683 50.8376 88.5589 51.039C88.5303 51.0921 88.4719 51.1186 88.4154 51.1091Z" fill="#0D8E9B"/>
<path d="M85.1934 52.6586C83.4463 52.3655 82.2632 50.7062 82.5563 48.9595C82.8494 47.2129 84.5095 46.0303 86.2567 46.3234C88.0038 46.6164 89.1869 48.2756 88.8938 50.0222C88.6008 51.7688 86.9406 52.9516 85.1934 52.6586ZM86.2111 46.5943C84.6132 46.3264 83.0954 47.4079 82.8274 49.005C82.5593 50.6022 83.641 52.1198 85.2389 52.3876C86.8369 52.6555 88.3547 51.574 88.6229 49.9769C88.8909 48.3797 87.8091 46.8623 86.2111 46.5943Z" fill="#0D8E9B"/>
<path d="M99.1571 38.4754C98.8282 39.404 98.4816 40.2358 98.4816 40.2358C98.4816 40.2358 99.0002 39.493 99.4893 38.6368C100.113 38.9831 100.776 39.6088 101.318 40.725C101.409 40.9111 101.462 41.226 101.493 41.5926C100.775 41.9747 100.206 42.3264 100.206 42.3264C100.206 42.3264 100.782 42.1134 101.511 41.8738C101.518 42.024 101.522 42.1791 101.524 42.3346C100.514 42.6483 99.5695 43.0425 99.5695 43.0425C99.5695 43.0425 100.513 42.8555 101.524 42.7104C101.517 43.5095 101.461 44.224 101.461 44.224C99.7769 43.7566 97.8646 43.7667 97.8646 43.7667C97.583 43.7338 96.8562 43.0459 96.6914 42.7593C97.0688 42.0364 97.4583 38.9741 97.4416 38.28C97.4416 38.28 98.2162 38.0834 99.1571 38.4754Z" fill="#B74D23"/>
<path d="M96.9363 44.0727C96.9171 44.5312 97.2736 44.9184 97.7322 44.9375C98.1908 44.9566 98.5783 44.6005 98.5973 44.142C98.6165 43.6833 98.2602 43.2963 97.8015 43.2771C97.3427 43.2579 96.9555 43.6143 96.9363 44.0727Z" fill="#45CECE"/>
<path d="M95.9011 43.0158C95.882 43.4743 96.2384 43.8614 96.6971 43.8806C97.1557 43.8997 97.5431 43.5436 97.5621 43.085C97.5813 42.6265 97.225 42.2394 96.7664 42.2202C96.3075 42.2011 95.9203 42.5572 95.9011 43.0158Z" fill="#45CECE"/>
<path d="M84.5331 35.9492C84.6075 36.9315 84.7243 37.8249 84.7243 37.8249C84.7243 37.8249 84.4183 36.9724 84.1701 36.0181C83.4774 36.1892 82.6736 36.6195 81.8582 37.5552C81.7224 37.7111 81.5882 38.0011 81.4632 38.347C82.056 38.9036 82.5132 39.3919 82.5132 39.3919C82.5132 39.3919 82.0123 39.0354 81.372 38.6138C81.3257 38.7568 81.2816 38.9056 81.239 39.0551C82.1311 39.6218 82.9397 40.2494 82.9397 40.2494C82.9397 40.2494 82.0781 39.8221 81.14 39.4178C80.9382 40.1908 80.8047 40.8951 80.8047 40.8951C82.5527 40.8844 84.3958 41.3943 84.3958 41.3943C84.6761 41.4361 85.5577 40.9622 85.7918 40.7289C85.6166 39.9324 86.0422 36.8748 86.2398 36.2092C86.2398 36.2092 85.5438 35.8167 84.5331 35.9492Z" fill="#B74D23"/>
<path d="M85.2124 41.9323C85.1109 42.3798 84.6656 42.6603 84.218 42.5588C83.7703 42.4573 83.4895 42.0122 83.5911 41.5647C83.6926 41.1172 84.1379 40.8367 84.5857 40.9383C85.0334 41.0396 85.314 41.4848 85.2124 41.9323Z" fill="#45CECE"/>
<path d="M86.4898 41.183C86.3882 41.6305 85.9428 41.911 85.4951 41.8097C85.0475 41.7082 84.7669 41.263 84.8684 40.8154C84.97 40.3679 85.4152 40.0875 85.8629 40.189C86.3106 40.2905 86.5911 40.7355 86.4898 41.183Z" fill="#45CECE"/>
<path d="M84.6606 63.5802C84.6798 63.5722 84.6984 63.5621 84.7165 63.5496C85.9983 62.6505 86.2761 61.1069 85.9827 59.9761C85.9426 59.8216 85.785 59.729 85.6307 59.7691C85.4751 59.8073 85.3835 59.9666 85.4236 60.1208C85.6671 61.0589 85.44 62.3369 84.3846 63.0769C84.2541 63.1686 84.2226 63.3485 84.314 63.4792C84.3931 63.5919 84.5382 63.6307 84.6606 63.5802Z" fill="#E5912E"/>
<path d="M85.104 56.9663C85.2728 57.8895 85.08 59.67 85.049 60.0643C85.0169 60.4738 85.352 60.8218 85.7632 60.8381C86.1729 60.8545 86.4771 60.5311 86.5363 60.1254C86.6598 59.2792 86.7709 58.1038 86.5791 56.9931L85.104 56.9663Z" fill="#AF4D22"/>
<path d="M85.3256 56.9702C85.4519 57.6859 85.2655 59.6533 85.2419 59.959C85.2172 60.2767 85.4696 60.5462 85.7792 60.5586C86.0878 60.5709 86.3173 60.3199 86.3622 60.0051C86.456 59.3489 86.5435 58.0288 86.3538 56.9893L85.3256 56.9702Z" fill="#F9A02B"/>
<path d="M89.2184 59.5632C89.2114 59.7589 89.047 59.9117 88.8512 59.9045C88.6556 59.8974 88.5028 59.733 88.51 59.5375C88.5171 59.3419 88.6815 59.1891 88.8771 59.1963C89.0729 59.2033 89.2257 59.3677 89.2184 59.5632Z" fill="#E03B77"/>
<path d="M89.3962 60.7992C89.3891 60.9949 89.2247 61.1477 89.0291 61.1405C88.8333 61.1333 88.6805 60.969 88.6877 60.7734C88.6948 60.5779 88.8593 60.4251 89.0548 60.4321C89.2506 60.4393 89.4034 60.6037 89.3962 60.7992Z" fill="#E03B77"/>
</svg>
