<svg width="114" height="115" viewBox="0 0 114 115" fill="none" xmlns="http://www.w3.org/2000/svg">
<path d="M61.9577 64.9782C62.2808 68.0912 63.2734 70.9106 64.4482 70.5993C65.0179 70.4466 66.4805 70.0824 67.1266 69.4128C68.689 67.7799 65.6523 59.1045 64.4423 59.0575C61.4937 58.9341 61.6347 61.8651 61.9577 64.9782Z" fill="#F93D77"/>
<path d="M40.6136 67.1989C40.8779 70.3178 40.408 73.2781 39.1628 73.2018C38.5578 73.1665 37.0072 73.0902 36.2259 72.5557C34.3346 71.2576 35.7561 62.1534 36.9719 61.8655C39.9323 61.1783 40.3493 64.0799 40.6136 67.1989Z" fill="#F93D77"/>
<path d="M38.183 73.6833C40.8027 75.6569 63.9568 73.56 65.5779 71.9682C65.5779 71.9682 62.7586 52.5322 59.1932 44.168C54.6705 43.2341 44.0097 46.3471 38.6881 48.1739C37.4253 52.8904 38.3886 69.2252 38.183 73.6833Z" fill="#D31E49"/>
<path d="M24.0304 65.5134C23.6721 65.3665 24.929 60.8027 25.2932 60.9378C30.5325 62.8585 34.8556 63.1463 40.23 62.6881C40.23 62.6881 40.512 67.2461 37.5222 68.2916C35.1904 69.1081 28.7293 67.4693 24.0304 65.5134Z" fill="#FFC19F"/>
<path d="M23.737 57.8184C22.4918 58.2178 21.552 58.8404 21.7341 58.9696C20.9764 60.9549 20.0484 63.0459 19.4434 63.9857C22.204 65.9593 24.3361 65.9769 25.1878 65.8066C26.4213 65.5599 27.878 64.0797 27.8193 62.4233C27.7899 61.6421 27.3259 59.9623 25.6695 57.8418C25.2055 57.8595 24.4301 58.0063 23.737 57.8184Z" fill="#FFC19F"/>
<path opacity="0.14" d="M25.5856 62.8933C24.9336 65.1606 21.9498 65.1429 20.1055 64.2325C20.3639 63.8449 21.9087 61.325 20.7281 59.1107C22.1436 58.3001 24.9983 59.5864 25.3624 59.1635C24.822 60.2384 24.3815 61.8772 25.5856 62.8933Z" fill="#6B1808"/>
<path d="M18.3328 62.523C18.509 62.0824 19.0964 62.0648 19.8189 62.3174C19.067 61.9121 18.5971 61.3658 18.697 60.9371C18.8145 60.4202 19.7014 60.2498 20.7528 60.4965C19.9775 59.9797 19.5311 59.3277 19.7073 58.8695C19.9011 58.3761 20.7528 58.2822 21.7219 58.5935C21.3108 58.0531 20.8996 57.3424 21.1933 57.0076C21.7278 56.3908 22.8614 56.8372 23.8012 57.5538C24.741 58.2704 25.4459 59.7271 25.0934 60.1852C24.8996 60.4378 24.3064 60.4437 23.7308 59.9796C23.9128 60.2616 23.9833 60.5435 23.8952 60.7667C23.7308 61.1896 23.0729 61.3189 22.2799 61.1485C22.8086 61.5186 23.114 61.9473 23.0318 62.3056C22.9495 62.6639 22.4033 63.0046 21.299 62.8225C21.7924 63.1103 22.2153 63.498 22.139 63.8269C22.045 64.2322 21.5281 64.7256 20.324 64.4143C19.0435 64.0795 18.0979 63.1221 18.3328 62.523Z" fill="#FFC19F"/>
<path opacity="0.14" d="M22.0096 59.6392C22.3562 60.2971 23.2079 61.0841 24.1594 60.5907C25.0405 60.1326 25.7923 58.9285 25.4457 58.2706C25.0992 57.6128 24.0126 57.4189 23.0199 57.836C22.0214 58.2471 21.6631 58.9813 22.0096 59.6392Z" fill="#6B1808"/>
<path d="M22.0099 59.6393C22.3388 60.2619 23.4548 60.4146 24.5062 59.9741C25.5576 59.5336 26.1391 58.6702 25.8102 58.0475C25.4812 57.4249 24.3652 57.2722 23.3138 57.7127C22.2625 58.1474 21.681 59.0108 22.0099 59.6393Z" fill="#FFC19F"/>
<path opacity="0.11" d="M83.6047 110.927C83.7388 109.181 70.9257 106.773 54.9859 105.549C39.0461 104.325 26.0156 104.749 25.8815 106.496C25.7474 108.243 38.5605 110.65 54.5003 111.874C70.4402 113.098 83.4707 112.674 83.6047 110.927Z" fill="black"/>
<path d="M43.4315 98.829C43.6429 99.481 37.6341 101.513 37.4168 100.861C35.4433 95.064 31.643 87.0993 30.8794 84.0802C30.4095 82.2241 31.3375 80.4737 32.3654 79.7454C33.5695 78.8996 37.1936 76.4268 37.1936 76.4268C38.3566 81.0259 41.8456 94.0067 43.4315 98.829Z" fill="#FFC19F"/>
<path d="M44.4304 101.436C44.4656 101.624 37.1117 103.545 37.0471 103.316C36.5009 101.507 35.6786 99.0283 35.3379 97.8829L43.2028 95.9504C43.5963 98.0708 44.213 100.221 44.4304 101.436Z" fill="#FCF6B4"/>
<path d="M34.6532 101.378C34.7589 100.955 34.9821 100.409 35.1584 99.9156C35.2876 99.5514 38.8412 99.5162 38.8764 100.391C38.8823 100.615 38.8823 100.814 38.8647 100.99C39.4755 100.979 40.1334 100.955 40.8265 100.914C42.336 100.82 43.6928 100.662 44.6385 100.485C44.7384 101.866 44.6737 104.256 44.7736 105.789C44.7736 105.789 28.9969 109.161 26.4418 106.929C25.7193 106.294 29.6253 103.316 34.6532 101.378Z" fill="#F93D77"/>
<path d="M44.7388 104.826C44.7506 105.167 44.7565 105.496 44.78 105.789C44.78 105.789 29.0032 109.161 26.4482 106.929C26.3483 106.841 26.3366 106.706 26.4129 106.529C30.8006 107.363 40.8093 105.59 44.7388 104.826Z" fill="#B22651"/>
<path d="M35.7386 102.67C35.7856 102.729 35.8561 102.758 35.9266 102.753C35.9677 102.753 36.0147 102.735 36.0499 102.706C36.1439 102.629 36.1615 102.488 36.0852 102.394C35.4508 101.595 34.3642 101.196 33.4479 101.419C33.3304 101.449 33.2541 101.572 33.2834 101.689C33.3128 101.807 33.4303 101.877 33.5536 101.854C34.3054 101.66 35.2041 102.001 35.7386 102.67ZM34.6285 103.24C34.6755 103.287 34.7401 103.311 34.7988 103.305C34.8517 103.299 34.9046 103.281 34.9398 103.24C35.0279 103.152 35.0279 103.011 34.9398 102.929C34.2173 102.206 33.2541 101.866 32.2849 102.007C32.1615 102.024 32.0793 102.136 32.0969 102.259C32.1146 102.383 32.2262 102.471 32.3495 102.447C32.837 102.371 33.7827 102.388 34.6285 103.24ZM30.84 102.917C30.8635 103.035 30.9751 103.117 31.0984 103.093C31.8326 102.935 32.8135 103.275 33.4773 103.886C33.5242 103.927 33.583 103.951 33.6417 103.945C33.6946 103.939 33.7474 103.916 33.7886 103.874C33.8708 103.786 33.8649 103.645 33.7768 103.563C33.0191 102.858 31.8796 102.482 31.0103 102.659C30.8987 102.676 30.8165 102.794 30.84 102.917Z" fill="#D2DAE5"/>
<path d="M76.2351 97.642C74.1264 93.9945 70.6668 88.0444 68.1118 83.8447L61.5156 88.4086C64.7227 92.5202 69.3159 98.4409 71.4774 101.108L76.2351 97.642Z" fill="#FFC19F"/>
<path d="M81.4235 104.362L75.2855 108.403C74.704 107.587 71.0388 101.196 70.3398 100.239L76.1019 96.8674C76.4779 97.9834 76.8068 98.4122 77.03 99.0231C77.2297 99.5458 81.3354 104.01 81.4235 104.362Z" fill="#FCF6B4"/>
<path d="M76.836 111.428C79.9138 113.102 82.5804 111.058 83.0503 108.838C83.3205 107.563 82.7743 106.154 81.2236 104.127C79.5849 103.769 76.231 108.797 76.0195 110.107C76.1899 110.412 76.4953 110.923 76.836 111.428Z" fill="#B22651"/>
<path d="M76.1124 110.271C79.9596 112.362 83.0962 109.513 82.3678 106.071C82.033 104.509 81.4868 104.626 78.9141 101.331C78.7262 100.979 78.0037 100.074 77.5279 99.0993C75.9655 98.2946 71.4486 101.032 71.9303 103.005C72.8583 104.186 74.8789 108.021 76.1124 110.271Z" fill="#F93D77"/>
<path d="M78.4694 102.759C78.5047 102.665 78.4577 102.565 78.3637 102.541C77.8468 102.406 77.048 102.588 76.2727 103.011L76.1963 103.052C75.4386 103.487 74.8865 104.057 74.6809 104.632C74.6457 104.726 74.6985 104.826 74.7925 104.85C74.8395 104.861 74.8924 104.85 74.9335 104.826C74.9746 104.803 75.0098 104.761 75.0275 104.715C75.2037 104.239 75.6912 103.728 76.3549 103.352C76.3784 103.34 76.4019 103.328 76.4254 103.317C77.1009 102.947 77.8116 102.776 78.2286 102.888C78.3226 102.905 78.4342 102.847 78.4694 102.759ZM79.1684 103.734C79.2037 103.64 79.1508 103.54 79.0568 103.516C77.976 103.258 75.744 104.374 75.2448 105.684C75.2095 105.778 75.2565 105.878 75.3505 105.901C75.4445 105.924 75.5561 105.866 75.5913 105.772C76.0084 104.673 78.023 103.645 78.9393 103.863C78.9863 103.875 79.0392 103.863 79.0803 103.839C79.1214 103.816 79.1508 103.781 79.1684 103.734ZM75.9731 107.082C76.026 107.099 76.0788 107.087 76.1258 107.064C76.167 107.04 76.1963 107.005 76.2139 106.964C76.6662 105.848 78.7925 104.756 79.7382 104.949C79.8321 104.973 79.9379 104.908 79.9731 104.814C80.0084 104.72 79.9555 104.621 79.8556 104.603C78.7396 104.362 76.4078 105.537 75.8733 106.864C75.8322 106.952 75.8791 107.052 75.9731 107.082Z" fill="white"/>
<path d="M41.4863 63.5224C41.3806 59.6869 40.7051 49.402 40.6346 49.2317C39.2837 49.731 35.9826 50.9351 35.454 51.775C34.3791 53.4784 33.6743 57.8367 32.6875 62.2361C33.4511 62.9233 40.4995 64.098 41.4863 63.5224Z" fill="#1AA7D3"/>
<path d="M70.8954 84.2972C69.8029 85.1547 64.5283 90.2413 51.4123 89.8126C39.0717 89.4073 33.6091 79.9389 32.0996 79.4983C32.0996 79.4983 39.43 73.9007 40.3991 73.3075C46.9366 74.0299 57.2273 71.5042 62.2669 69.9653C63.6825 72.585 69.5738 82.1474 70.8954 84.2972Z" fill="#224966"/>
<path opacity="0.37" d="M62.2636 69.9712C57.224 71.5101 46.9333 74.0299 40.3958 73.3133C40.1903 73.4367 39.6969 73.7891 39.0625 74.259C41.9935 75.14 45.8407 77.1489 50.7277 77.1489C55.3973 77.1489 61.0771 75.2399 64.3018 73.4543C63.4442 72.0799 62.6806 70.7406 62.2636 69.9712Z" fill="black"/>
<path d="M56.6526 44.5146C55.0374 44.8788 46.7261 46.5998 45.7922 46.8289C43.754 47.3282 38.174 49.8832 35.7129 51.4515C35.7834 51.7099 37.6336 56.0976 38.0447 57.9713C39.0315 62.4294 40.6527 67.8508 39.9596 71.3986C39.8715 71.8391 39.1666 71.9331 39.7834 72.6908C40.3825 73.425 38.6439 72.9668 38.8847 74.1651C41.1167 74.3119 43.008 75.4338 46.7202 76.1563C52.2062 77.2194 61.1695 75.0168 64.588 72.7789C63.0432 62.9874 60.8229 51.2283 56.6526 44.5146Z" fill="#1AA7D3"/>
<path d="M74.0272 34.3826C74.4031 33.8011 69.3811 31.763 69.0052 32.2446C64.083 38.4884 61.8099 40.2622 53.2695 44.6205C54.7321 46.2416 56.2005 48.9259 57.6748 50.5294C65.5573 44.8437 69.8803 40.7791 74.0272 34.3826Z" fill="#FFC19F"/>
<path d="M61.2446 39.6692C62.5486 41.3491 64.9098 45.3432 66.1492 47.1699C62.4311 50.0539 59.2769 52.2037 58.9304 52.233C55.3651 52.5502 50.9715 46.095 50.6309 45.7837C52.8629 44.8145 57.5442 42.377 61.2446 39.6692Z" fill="#1AA7D3"/>
<path d="M47.6111 57.2375C47.8167 57.6662 48.3336 57.8424 48.7565 57.6369C49.1853 57.4313 49.3615 56.9144 49.1559 56.4915C48.9503 56.0627 48.4334 55.8865 48.0105 56.0921C47.5818 56.2977 47.4055 56.8087 47.6111 57.2375Z" fill="white"/>
<path d="M48.2752 61.4018C48.4808 61.8305 48.9977 62.0067 49.4206 61.8012C49.8435 61.5956 50.0255 61.0787 49.82 60.6558C49.6144 60.227 49.0975 60.0508 48.6746 60.2564C48.2458 60.462 48.0696 60.9789 48.2752 61.4018Z" fill="white"/>
<path d="M44.6166 47.469C41.7619 48.2326 39.0483 48.9727 38.5549 51.005C38.0145 53.2194 40.7458 55.3104 44.0057 54.6056C46.9778 53.9595 49.5035 51.563 49.7384 49.795C50.0145 47.7275 47.5182 46.6878 44.6166 47.469Z" fill="white"/>
<path d="M47.5612 46.9229C49.893 45.6131 52.4833 44.4677 53.893 45.6013C55.6786 47.0404 55.5612 50.7584 52.8123 52.1681C50.3042 53.4544 46.9621 53.1196 45.6346 51.9097C44.0898 50.4882 45.1471 48.2797 47.5612 46.9229Z" fill="white"/>
<path d="M52.307 47.2458C52.2542 46.9169 52.0251 45.5366 51.8783 45.2429C50.5567 45.613 48.683 46.2591 45.2586 47.2752C42.9091 47.9683 40.73 48.7613 40.1309 49.1842C40.5596 51.7275 43.6844 53.4485 47.0736 52.8787C50.4686 52.309 52.7358 49.7892 52.307 47.2458Z" fill="#FFC19F"/>
<path d="M48.9351 40.6443L50.662 47.7162C51.032 49.2375 49.405 50.9409 47.0203 51.5224C44.6356 52.1039 42.4036 51.3462 42.0335 49.8249L40.3066 42.7529L48.9351 40.6443Z" fill="#FFC19F"/>
<path d="M62.4512 62.3533C62.4277 62.3533 62.3984 62.3533 62.369 62.3475C60.0136 61.9951 57.3235 57.4958 55.8257 51.4048C55.7552 51.1052 55.9373 50.8057 56.2368 50.7352C56.5305 50.6588 56.836 50.8409 56.9123 51.1405C58.3925 57.1669 60.9358 61.0141 62.5393 61.2491C62.8448 61.2961 63.0503 61.578 63.0033 61.8835C62.9564 62.1595 62.7214 62.3533 62.4512 62.3533Z" fill="#D31E49"/>
<path d="M55.4607 53.1613L57.9805 52.3448L58.5914 51.8221C58.5914 51.8221 54.5914 44.1686 53.5752 44.1393C52.7999 44.1158 51.214 44.803 50.9732 45.1672C50.9145 45.2611 50.8146 45.3845 50.8733 45.5607C50.9732 45.5196 51.1905 45.4961 51.2375 45.4785C52.6648 45.9131 55.4607 53.1613 55.4607 53.1613Z" fill="#D31E49"/>
<path d="M56.0541 52.6087L58.5857 51.8217C58.5857 51.8217 56.06 44.8966 53.9807 43.763C53.6812 43.5985 51.596 44.4678 51.2377 44.7615C50.9381 45.0082 50.9029 45.1961 50.9088 45.2725C51.0497 44.9142 51.549 44.7908 51.7605 44.9024C53.5754 45.9069 56.0541 52.6087 56.0541 52.6087Z" fill="#F93D77"/>
<path opacity="0.19" d="M53.5499 45.6188C53.3737 47.4866 49.8084 48.679 45.5852 48.2796C41.362 47.886 38.0786 46.0535 38.2548 44.1856C38.431 42.3178 41.9964 41.1254 46.2196 41.5248C50.4427 41.9184 53.7203 43.751 53.5499 45.6188Z" fill="#7F1703"/>
<path d="M39.4953 68.6438C39.2956 68.6438 39.1018 68.5322 39.0019 68.3443C38.861 68.0741 38.9667 67.7334 39.2369 67.5924C40.8345 66.7642 42.2853 62.6526 40.347 56.4618C40.253 56.1681 40.4175 55.8568 40.7112 55.7628C41.0166 55.6747 41.3162 55.8392 41.4102 56.127C43.4425 62.5998 42.0739 67.3751 39.7538 68.5792C39.6715 68.6262 39.5834 68.6438 39.4953 68.6438Z" fill="#D31E49"/>
<path d="M42.9459 57.1371L40.2793 58.212L39.3806 58.0769C39.3806 58.0769 37.6655 50.0593 38.3821 49.3369C38.9283 48.7847 40.5495 48.1915 40.9783 48.2914C41.084 48.3148 41.2426 48.3383 41.3248 48.5087C41.2249 48.5439 41.0487 48.6849 41.0076 48.7025C40.2617 50.0006 42.9459 57.1371 42.9459 57.1371Z" fill="#D31E49"/>
<path d="M42.3236 56.8667L39.3868 58.0767C39.3868 58.0767 36.6731 51.8153 37.7245 49.4894C37.9183 49.0606 39.9976 48.1149 40.4675 48.109C40.8552 48.1032 41.049 48.2676 41.1019 48.3322C40.8258 48.297 40.6555 48.2911 40.585 48.5202C39.9506 50.4879 42.3236 56.8667 42.3236 56.8667Z" fill="#F93D77"/>
<path d="M34.6897 51.4515C32.0877 50.729 30.4783 48.3149 31.1067 46.0594C31.7294 43.8039 34.349 42.5528 36.9511 43.2753C39.5531 43.9978 41.1625 46.4118 40.534 48.6673C39.9114 50.9228 37.2918 52.1739 34.6897 51.4515Z" fill="#933D18"/>
<path d="M37.9953 53.5659C37.9131 55.3515 36.521 56.7319 34.8823 56.6555C33.2494 56.5791 31.9866 55.0696 32.0747 53.284C32.1569 51.4984 33.549 50.1181 35.1877 50.1944C36.8206 50.2708 38.0776 51.7803 37.9953 53.5659Z" fill="#933D18"/>
<path d="M37.3755 58.4293C37.3109 59.8037 36.2419 60.8845 34.979 60.8258C33.7162 60.767 32.7412 59.5923 32.8058 58.2178C32.8704 56.8434 33.9453 55.7744 35.2081 55.8331C36.471 55.886 37.4401 57.049 37.3755 58.4293Z" fill="#933D18"/>
<path d="M36.3285 68.3264C36.4695 67.7919 36.4401 67.3514 36.2991 66.9285C36.2345 67.5922 35.1303 69.5834 33.2037 69.8888C34.4489 67.6685 31.7705 66.6348 32.5458 63.5511C32.9335 62.0063 34.3725 60.1972 35.4181 60.902C39.0304 63.3396 37.3446 67.6392 36.3285 68.3264Z" fill="#933D18"/>
<path d="M39.3475 58.7817L34.9775 60.8199L30.8248 58.3823L30.6016 63.1459L34.9716 61.0079L39.1243 63.5453L39.3475 58.7817Z" fill="#FFB600"/>
<path d="M59.8543 26.5118C60.6472 30.0419 59.3257 33.2313 57.5459 33.7893C55.7662 34.3473 54.3213 31.8745 53.2816 28.6146C52.242 25.3547 52.8411 22.2534 54.6267 21.7012C57.0584 20.9494 59.1083 23.1931 59.8543 26.5118Z" fill="#F4B18C"/>
<path d="M54.356 16.7675C59.9477 29.3607 54.9433 38.3651 44.4118 43.0405C33.8803 47.716 21.5514 46.553 16.7819 33.625C12.1946 21.1845 16.6468 13.7954 28.0359 9.49586C38.82 5.42539 48.7701 4.17429 54.356 16.7675Z" fill="#933D18"/>
<path d="M47.2785 8.31507C47.8717 8.53827 50.2505 10.1947 51.2021 12.5794C54.3856 20.5735 55.5545 23.1227 58.1272 29.3958C60.3709 34.8583 58.0743 42.0888 51.8482 44.9434C46.0567 47.6042 37.998 47.2342 34.6794 45.5367C30.3622 43.3223 18.1919 27.9685 18.0392 25.5015C17.5341 17.1843 21.4577 14.6998 30.4209 10.7233C38.8086 6.99936 44.3475 7.21081 47.2785 8.31507Z" fill="#FFC19F"/>
<path d="M26.7544 30.1711C28.4167 34.0125 31.8704 37.7776 29.1215 41.0081C26.3257 44.2915 19.5709 36.6851 16.916 30.6939C13.6208 23.2637 14.5254 15.8922 27.7295 11.0464C24.5635 17.5251 23.7471 23.2167 26.7544 30.1711Z" fill="#933D18"/>
<path d="M42.0163 38.4764C42.3981 40.7965 46.8915 42.4235 49.8694 41.0726C52.8357 39.7275 53.887 36.3736 53.0001 34.2062C52.3305 33.0902 50.4803 34.2003 47.473 35.3046C44.4656 36.4088 41.7814 37.0608 42.0163 38.4764Z" fill="#701608"/>
<path d="M48.7706 39.2282C50.1803 38.6996 51.3903 38.6291 52.3301 39.0168C51.7368 39.845 50.8558 40.7554 49.681 41.19C48.3536 41.6834 47.1084 41.9066 45.9219 41.3604C46.0335 40.6027 47.5136 39.6981 48.7706 39.2282Z" fill="#DD6B5B"/>
<path d="M43.168 36.955C44.0901 36.2561 45.7876 35.8625 47.2854 35.3163C48.9771 34.6937 50.1342 34.0241 51.2795 33.8655C51.2149 34.9169 50.0167 36.0211 48.0784 36.7612C45.8346 37.6129 43.8258 37.8126 43.168 36.955Z" fill="white"/>
<path d="M48.5942 32.6203C48.5179 32.6497 48.4298 32.6203 48.3828 32.544C48.0773 32.0212 47.4958 31.8274 46.9085 32.0564C46.3152 32.2855 46.0039 32.8259 46.1331 33.4015C46.1566 33.4955 46.0979 33.5895 46.0039 33.6071C45.9099 33.6306 45.8218 33.5719 45.7983 33.4779C45.628 32.7378 46.0333 32.0212 46.7851 31.7334C47.5311 31.4456 48.2888 31.704 48.6823 32.3678C48.7293 32.45 48.7 32.5557 48.6236 32.6027L48.5942 32.6203Z" fill="#C4735B"/>
<path d="M22.8127 43.2868C25.8142 46.394 30.2665 47.0401 32.3692 45.5188C34.472 43.9976 33.1504 40.8316 30.9302 37.4366C28.4574 33.6598 25.8553 32.4499 23.1769 33.8184C20.011 35.4278 19.9934 40.3676 22.8127 43.2868Z" fill="#FFC19F"/>
<path d="M27.0202 42.4058C28.3066 43.9095 30.3859 43.9212 30.9086 43.2458C31.3315 42.6995 30.9967 41.701 30.0158 40.1386C28.8705 38.3177 27.6664 37.4837 26.6561 38.259C25.6047 39.0637 25.5048 40.6378 27.0202 42.4058Z" fill="#E0956C"/>
<path d="M48.5769 26.5881C48.2539 28.6262 49.1056 30.3825 50.2451 30.7173C51.9661 31.2224 55.1614 30.2709 55.7017 28.3149C56.2304 26.4177 54.6269 23.9978 52.3537 23.5984C50.3684 23.2459 48.8941 24.6145 48.5769 26.5881Z" fill="#F9FEFF"/>
<path d="M54.121 23.8095C51.6834 21.8418 48.6349 24.0738 48.5645 26.6583C48.8875 24.6201 50.5086 23.3866 52.3471 23.7097C53.4807 23.9094 54.538 24.6612 55.1606 25.7126C55.6599 26.5525 55.8831 27.6333 55.6658 28.4204C56.0475 27.8095 55.9183 25.2545 54.121 23.8095Z" fill="#7C3929"/>
<path d="M49.4104 27.3339C49.4633 28.632 50.4618 29.7304 51.6424 29.7891C52.823 29.8478 53.7334 28.8376 53.6806 27.5395C53.6277 26.2414 52.6292 25.143 51.4486 25.0843C50.268 25.0314 49.3575 26.0358 49.4104 27.3339Z" fill="#752912"/>
<path d="M49.4867 27.0753C49.5043 27.4336 49.7804 27.739 50.1093 27.7566C50.4383 27.7743 50.6908 27.4923 50.6732 27.134C50.6556 26.7757 50.3795 26.4703 50.0506 26.4527C49.7275 26.4351 49.475 26.717 49.4867 27.0753Z" fill="#FEFFFE"/>
<path d="M40.4025 29.5308C42.288 30.8113 42.8871 32.8024 42.1176 33.9478C40.9605 35.6747 37.3306 37.4544 35.31 36.403C33.3541 35.3869 32.9136 32.309 34.6581 30.2298C36.1793 28.4089 38.5817 28.2856 40.4025 29.5308Z" fill="#F9FEFF"/>
<path d="M33.2239 31.7629C33.8935 28.3738 38.3928 27.6807 40.4662 29.572C38.5807 28.2915 36.1549 28.6204 34.7452 30.3003C33.8759 31.34 33.5058 32.7262 33.7643 34.0125C33.9699 35.0345 34.6042 36.0272 35.4207 36.4501C34.6101 36.2856 32.7305 34.2592 33.2239 31.7629Z" fill="#7C3929"/>
<path d="M35.3105 32.9376C35.3105 34.3414 36.4442 35.4809 37.8539 35.4868C39.2577 35.4868 40.3972 34.3532 40.403 32.9435C40.403 31.5397 39.2694 30.4002 37.8597 30.3943C36.45 30.3943 35.3105 31.5338 35.3105 32.9376Z" fill="#752912"/>
<path d="M35.416 32.6553C35.416 33.0429 35.7332 33.3601 36.1209 33.3601C36.5085 33.3601 36.8257 33.0429 36.8257 32.6553C36.8257 32.2676 36.5085 31.9504 36.1209 31.9504C35.7332 31.9504 35.416 32.2617 35.416 32.6553Z" fill="#FEFFFE"/>
<path d="M53.3754 19.0227C53.5105 18.9816 53.6221 18.8817 53.6809 18.7349C53.7925 18.4647 53.675 18.1299 53.4165 17.9948C51.5428 17.008 48.8174 17.3957 46.9437 18.9052C46.7264 19.0815 46.6912 19.428 46.8615 19.6747C47.0377 19.9214 47.3608 19.9743 47.5781 19.798C49.1464 18.5293 51.4782 18.1769 53.0054 18.9816C53.1287 19.0462 53.2579 19.058 53.3754 19.0227Z" fill="#702819"/>
<path d="M30.3375 27.3167C30.1906 27.3813 30.0086 27.3872 29.85 27.3167C29.5445 27.1816 29.4094 26.8292 29.5445 26.5237C30.5254 24.327 33.2861 22.606 36.0937 22.4239C36.4226 22.4004 36.7104 22.653 36.7281 22.9819C36.7457 23.3108 36.4931 23.5986 36.1701 23.6162C33.8088 23.769 31.4359 25.2256 30.637 27.0112C30.5783 27.1522 30.4667 27.2579 30.3375 27.3167Z" fill="#702819"/>
<path d="M49.3497 7.58054C50.2895 9.98876 49.2205 11.8566 47.6757 14.1238C44.7389 18.4293 40.0282 20.4322 38.4246 20.7141C41.5436 17.4836 42.1368 11.4161 41.5201 11.6216C39.8813 17.5658 35.3351 21.3309 34.3953 21.5541C34.9827 20.72 35.3938 18.8933 34.8006 19.0636C34.4482 19.9505 32.222 22.6172 31.059 23.1223C31.7051 22.441 32.3571 18.629 31.8872 18.1238C30.6068 22.3353 24.4981 24.3088 26.9709 33.3426C23.6758 30.2119 19.7992 21.8066 21.4732 18.1826C25.4555 9.57172 47.4173 2.61139 49.3497 7.58054Z" fill="#933D18"/>
<path d="M33.5621 40.2387C33.8206 41.0257 35.1245 41.3077 36.4755 40.8671C37.8264 40.4266 38.7134 39.434 38.4608 38.641C38.2023 37.8539 36.8984 37.572 35.5474 38.0125C34.1965 38.4531 33.3037 39.4516 33.5621 40.2387Z" fill="#FF9797"/>
<path d="M54.2559 32.45C54.5495 33.1255 55.6127 33.3134 56.623 32.867C57.6332 32.4206 58.2147 31.5161 57.921 30.8406C57.6274 30.1651 56.5642 29.9772 55.5539 30.4236C54.5437 30.87 53.9622 31.7745 54.2559 32.45Z" fill="#FF9797"/>
<path d="M70.0803 25.537C71.6427 25.3314 73.1934 25.8718 73.0641 26.1009C74.9085 27.8747 76.9819 29.6721 78.1273 30.3945C76.1302 33.9599 73.8806 34.7411 72.8586 34.9936C71.3901 35.3578 68.9878 34.8174 68.2007 32.9848C67.8307 32.1214 68.0128 28.8615 68.4944 27.2227C68.653 26.6765 68.8821 26.2183 70.0803 25.537Z" fill="#FFC19F"/>
<path d="M90.4971 6.99917L89.9744 5.73633L88.7409 5.88904C88.6234 5.90666 76.6528 7.40446 69.0111 8.69667L66.8496 9.06084L67.7659 11.2811C69.81 16.2502 71.0199 22.8993 72.0831 28.7671C72.9465 33.5483 73.7688 38.0593 74.9494 41.3544L75.3723 42.5292C75.3723 42.5292 93.0698 39.7098 96.9464 37.7127L97.7335 37.3074L97.8745 36.3559C99.0786 28.1327 91.3782 9.1372 90.4971 6.99917Z" fill="#E7EDF2"/>
<path d="M90.4525 14.0239L72.291 16.9079C72.3498 17.1194 72.4085 17.3367 72.4614 17.5481L90.6874 14.6583C90.6111 14.441 90.5288 14.2295 90.4525 14.0239Z" fill="#B6B8BF"/>
<path d="M93.2067 22.0295L74.1289 25.0545C74.17 25.2718 74.2111 25.4891 74.2523 25.7006L93.3946 22.6639C93.3359 22.4524 93.2713 22.241 93.2067 22.0295Z" fill="#B6B8BF"/>
<path d="M89.9233 18.4058L73.3066 20.9902C73.3536 21.2075 73.4006 21.419 73.4476 21.6363L90.1465 19.0401C90.0643 18.8228 89.9938 18.6113 89.9233 18.4058Z" fill="#B6B8BF"/>
<path d="M92.8347 26.3059L74.9023 29.1723C74.9435 29.3896 74.9846 29.6069 75.0257 29.8184L92.9875 26.9461C92.9405 26.7406 92.8876 26.5232 92.8347 26.3059Z" fill="#B6B8BF"/>
<path d="M75.7832 33.5892C75.8302 33.8065 75.8772 34.0239 75.9242 34.2353L95.2134 30.9989C95.1899 30.7816 95.1664 30.5643 95.137 30.3411L75.7832 33.5892Z" fill="#B6B8BF"/>
<path d="M76.4711 36.397L87.7369 34.3705C87.7428 34.1532 87.7369 33.93 87.731 33.7009L76.2949 35.7567C76.3537 35.9799 76.4124 36.1855 76.4711 36.397Z" fill="#B6B8BF"/>
<path d="M94.9056 28.8138C94.8645 28.6024 94.8234 28.3851 94.7823 28.1677L80.7383 30.2411C80.7794 30.4585 80.8264 30.6699 80.8675 30.8872L94.9056 28.8138Z" fill="#B6B8BF"/>
<path d="M93.9752 24.7201C93.9164 24.5086 93.8577 24.2913 93.799 24.0798L74.5215 27.14C74.5626 27.3574 74.6037 27.5747 74.6448 27.7861L93.9752 24.7201Z" fill="#B6B8BF"/>
<path d="M76.7422 14.1646C76.8127 14.3761 76.8832 14.5875 76.9478 14.799L89.9639 12.7608C89.8758 12.5435 89.7935 12.332 89.7172 12.1323L76.7422 14.1646Z" fill="#B6B8BF"/>
<path d="M83.9023 9.28973C83.9728 9.50119 84.196 10.1532 84.2665 10.3705L88.7658 9.68914C88.6777 9.47182 88.4427 8.81396 88.3605 8.61426L83.9023 9.28973Z" fill="#B6B8BF"/>
<path d="M70.498 11.5801C70.6273 11.9737 71.0502 13.2013 71.1735 13.6065L73.7286 13.1719C73.57 12.7607 73.1177 11.5331 72.9709 11.1631L70.498 11.5801Z" fill="#B6B8BF"/>
<path d="M92.7947 20.7078C92.7242 20.4964 92.6596 20.2849 92.5891 20.0735L78.457 22.2702C78.4981 22.4876 78.5451 22.699 78.5862 22.9164L92.7947 20.7078Z" fill="#B6B8BF"/>
<path d="M91.4321 16.6846C91.3557 16.4732 91.2794 16.2617 91.203 16.0562L72.8301 18.9695C72.8829 19.181 72.9299 19.3983 72.9828 19.6156L91.4321 16.6846Z" fill="#B6B8BF"/>
<path d="M91.2731 31.9271C91.3201 31.4689 91.3847 31.0108 91.467 30.5468C91.4728 30.5115 91.4787 30.4763 91.4846 30.4352C91.4905 30.3941 91.4963 30.3588 91.5022 30.3294C91.514 30.3001 91.5316 30.2707 91.5551 30.2413C91.5786 30.2178 91.6138 30.2002 91.6608 30.1943C91.7137 30.1885 91.7548 30.1885 91.79 30.1885C91.8723 30.1944 91.9369 30.212 91.9721 30.2355C92.0073 30.259 92.0308 30.2942 92.0367 30.3353C92.0426 30.3764 92.0426 30.4234 92.0308 30.4763C92.0191 30.5291 92.0132 30.582 92.0015 30.6407C92.0602 30.629 92.1189 30.6408 92.1659 30.676C92.2129 30.7112 92.254 30.7523 92.2952 30.8111C92.3363 30.864 92.3656 30.9227 92.3833 30.9873C92.4068 31.0519 92.4244 31.1048 92.4361 31.1518C92.5536 31.5923 92.6476 32.0211 92.7063 32.4498C92.7592 32.8786 92.8003 33.3074 92.8238 33.7362C92.8473 33.7421 92.8884 33.7538 92.9471 33.7714C93.0059 33.7891 93.0646 33.8008 93.1233 33.8243C93.1821 33.8419 93.235 33.8654 93.2761 33.8948C93.3172 33.9183 93.3348 33.9476 93.3289 33.977C93.3054 34.0592 93.2702 34.1121 93.2291 34.1356C93.1938 34.1062 93.1292 34.0827 93.0352 34.0534C92.9471 34.0299 92.8825 34.0123 92.8414 33.9946C92.859 34.2002 92.8767 34.4117 92.8943 34.629C92.9119 34.8463 92.9119 35.0578 92.8943 35.2692C92.8884 35.3691 92.8649 35.4513 92.8355 35.51C92.8062 35.5688 92.7416 35.5981 92.6417 35.5864C92.6182 35.5864 92.5771 35.5747 92.5242 35.5629C92.4714 35.5512 92.4361 35.5218 92.4244 35.4807C92.4361 35.4513 92.4479 35.3984 92.4538 35.3162C92.4596 35.234 92.4655 35.14 92.4714 35.0343C92.4772 34.9285 92.4772 34.8111 92.4714 34.6877C92.4714 34.5644 92.4538 34.1415 92.4538 34.0534C92.4479 33.9711 92.4479 33.9124 92.4361 33.883C92.3245 33.8537 92.1953 33.8243 92.0485 33.7891C91.9016 33.7597 91.7665 33.7303 91.649 33.7127C91.6256 33.9183 91.6021 34.1415 91.5668 34.3823C91.5374 34.6231 91.4905 34.8463 91.4435 35.0519C91.3906 35.2575 91.3319 35.4278 91.2614 35.5629C91.1909 35.698 91.1028 35.7626 90.9971 35.7567C90.9383 35.7509 90.8855 35.7391 90.8326 35.7156C90.7797 35.6921 90.7386 35.6686 90.7034 35.6451C90.6681 35.6216 90.6329 35.5864 90.5977 35.5453C90.6505 35.51 90.6975 35.4219 90.7445 35.281C90.7915 35.14 90.8326 34.9755 90.8737 34.7876C90.9148 34.5996 90.9501 34.3999 90.9853 34.1885C91.0147 33.977 91.0441 33.7832 91.0676 33.607C91.0676 33.607 91.0264 33.6011 90.9912 33.5952C90.956 33.5893 90.9207 33.5717 90.8796 33.5541C90.8444 33.5365 90.8091 33.513 90.7856 33.4836C90.7563 33.4543 90.7445 33.4249 90.7504 33.3838C90.7797 33.3192 90.8326 33.2898 90.909 33.2898C90.9853 33.2898 91.0558 33.2957 91.1145 33.3074C91.1674 32.8434 91.2203 32.3852 91.2731 31.9271ZM92.4068 33.2898C92.395 33.1312 92.3187 32.3265 92.2893 32.1033C92.2599 31.8801 92.2305 31.6686 92.2012 31.4748C92.1718 31.281 92.1366 31.1165 92.1013 30.9873C92.0661 30.8522 92.025 30.7758 91.9897 30.7465C91.9369 31.2046 91.7254 33.0255 91.6784 33.4425C91.79 33.4719 91.9192 33.5012 92.0543 33.5247C92.1953 33.5482 92.3187 33.5835 92.4303 33.6128C92.4303 33.56 92.4185 33.4484 92.4068 33.2898Z" fill="#DB2323"/>
<path d="M87.6122 32.8549C88.135 34.6405 89.2275 35.8563 91.4595 36.6728C93.2451 37.3306 94.69 36.8255 95.3126 36.244C95.8413 35.7565 96.1702 35.2044 96.2877 34.5876C96.4521 33.7359 96.2759 32.8373 95.759 31.8916C95.3714 31.2044 94.8486 30.6053 94.1908 30.0943C93.5329 29.5832 92.9103 29.2661 92.3288 29.1368C91.947 29.0664 91.5711 29.0487 91.2128 29.0781C90.8486 29.1075 90.5138 29.2426 90.2084 29.4775C89.8677 29.7301 89.6563 30.0884 89.5682 30.5348C89.5153 30.7991 89.5153 31.0693 89.5682 31.3395C89.5799 31.4393 89.6093 31.4511 89.6622 31.3806C89.6856 31.3453 89.6974 31.2807 89.6856 31.1809C89.6739 31.0869 89.6798 30.9812 89.7033 30.8696C89.7737 30.4937 90.1673 29.7536 90.7429 29.5421C91.8295 29.1368 93.7209 29.1956 95.389 31.7095C96.4286 33.2719 96.0703 34.4173 95.8765 34.9812C95.6827 35.5392 95.1129 36.2851 94.0674 36.5906C93.3038 36.8138 92.4052 36.6845 91.6886 36.5142C90.3964 36.2029 89.4624 35.5039 88.7811 34.6581C87.8883 33.5362 87.5946 32.2205 87.8883 30.711C87.9999 30.1471 88.1526 29.7301 88.3464 29.4481C88.5403 29.1662 88.7106 28.9959 88.8457 28.9254C88.9867 28.8608 89.2216 28.6963 88.9867 28.7198C88.7517 28.7374 88.4992 28.849 88.229 29.037C87.7826 29.36 87.0953 31.0869 87.6122 32.8549Z" fill="#DB2323"/>
<path d="M90.139 3.36956C90.0568 3.54577 90.1214 3.75135 90.28 3.85121L90.3211 3.8747C90.509 3.96281 90.7322 3.88057 90.8203 3.69262L92.2535 0.585431C92.3416 0.397472 92.2535 0.174272 92.0656 0.0802927C91.8776 -0.0078127 91.6544 0.074419 91.5663 0.262377L90.139 3.36956ZM92.6941 4.96721C92.5061 5.06119 92.4356 5.29026 92.5296 5.47822C92.559 5.54283 92.6059 5.58982 92.6647 5.62506C92.7763 5.69555 92.9173 5.70729 93.0406 5.64268L96.0773 4.07441C96.2653 3.98043 96.3357 3.75135 96.2418 3.56339C96.1478 3.38131 95.9187 3.30495 95.7308 3.39893L92.6941 4.96721ZM86.0803 0.567809L87.766 3.5399C87.8013 3.59276 87.8424 3.63975 87.8952 3.67499C88.0068 3.74548 88.1596 3.75723 88.2829 3.68674C88.465 3.58102 88.5296 3.35194 88.4239 3.16986L86.7381 0.191893C86.6324 0.00980804 86.4033 -0.0548023 86.2212 0.0509243C86.045 0.156651 85.9804 0.385725 86.0803 0.567809Z" fill="#B5B5B5"/>
<path d="M75.2847 25.8834C75.361 27.2461 73.5519 28.3092 71.4374 28.2681C69.9572 28.2388 68.7884 27.6808 68.8354 26.8349C68.8765 25.9891 70.1099 25.2549 71.5901 25.1962C73.0703 25.1374 75.2377 25.0317 75.2847 25.8834Z" fill="#FFC19F"/>
</svg>
